<?xml version="1.0" standalone="no"?><!DOCTYPE svg PUBLIC "-//W3C//DTD SVG 1.1//EN" "http://www.w3.org/Graphics/SVG/1.1/DTD/svg11.dtd" ><svg xmlns="http://www.w3.org/2000/svg"><metadata></metadata><defs><font id="1.000;TSAN;TsangerJinKai03-W03;TSANGER" horiz-adv-x="1000"><font-face font-family="TsangerJinKai03 W03" font-weight="400" font-stretch="normal" units-per-em="1000" panose-1="2 2 4 0 0 0 0 0 0 0" ascent="984" descent="-269" x-height="0" bbox="-62 -254 1003 860" underline-thickness="50" underline-position="-75" unicode-range="U+0000-ff1f" /><missing-glyph horiz-adv-x="500"  /><glyph glyph-name="" unicode="!" d="M110 734 q28 3 52 -6 q30 -13 27 -50 l-11 -190 q-9 -154 -14 -224 q-1 -21 -15 -26 q-10 -4 -27 -6 q-21 -1 -22 27 q-20 362 -24 425 q-4 47 34 50 ZM131 12 q-25 0 -42 18 q-17 17 -17 41 q0 25 17 42 q17 18 42 18 q25 0 42 -18 q18 -17 18 -42 q0 -24 -18 -41 q-17 -18 -42 -18 Z" /><glyph glyph-name="" unicode="&quot;" d="M237 759 q18 0 17 -20 q-15 -204 -14 -198 q-1 -23 -16 -23 q-17 0 -20 23 q-14 191 -15 198 q-1 20 18 20 l30 0 ZM121 755 q19 0 18 -20 l-14 -198 q-3 -22 -17 -22 q-18 0 -19 22 q-10 103 -15 198 q-1 20 17 20 l30 0 Z" /><glyph glyph-name="" unicode="&amp;" d="M223 63 q41 19 68 51 q-64 85 -113 192 q-29 -29 -37 -39 q-66 -80 -40 -155 q14 -37 51 -51 q36 -14 71 2 ZM167 498 q15 -53 34 -102 q64 53 81 70 q29 30 35 73 q5 42 -14 69 q-17 25 -49 28 q-34 3 -62 -19 q-46 -37 -25 -119 ZM475 71 q4 -6 -3 -20 q-48 -89 -117 -15 l-29 33 q-41 -44 -88 -64 q-54 -23 -109 -1 q-58 23 -83 83 q-48 118 58 226 q21 21 51 46 q-26 63 -46 136 q-30 116 49 173 q46 34 101 29 q56 -6 89 -48 q33 -42 29 -103 q-4 -64 -48 -111 q-22 -24 -106 -91 q43 -96 104 -182 q42 72 73 196 q4 16 17 21 q3 1 30 4 q15 0 11 -22 q-32 -151 -95 -245 q9 -12 29 -34 q26 -29 51 4 q6 9 14 4 q12 -8 18 -19 Z" /><glyph glyph-name="" unicode="&#39;" d="M116 780 q18 0 17 -21 l-14 -198 q-1 -22 -17 -22 q-17 0 -19 22 q-3 31 -8 105 l-7 93 q-1 21 17 21 l31 0 Z" /><glyph glyph-name="" unicode="(" d="M278 825 q29 26 50 7 q21 -19 -2 -42 q-159 -161 -156 -415 q3 -248 160 -411 q20 -21 1 -41 q-19 -20 -47 6 q-186 176 -186 446 q0 290 180 450 Z" /><glyph glyph-name="" unicode=")" d="M49 -35 q160 150 160 410 q0 262 -155 416 q-24 23 -3 42 q21 18 51 -9 q179 -159 179 -449 q0 -275 -186 -446 q-28 -25 -47 -4 q-19 20 1 40 Z" /><glyph glyph-name="" unicode="*" d="M462 479 q20 -9 7 -36 q-15 -26 -38 -10 q-18 15 -79 57 q-67 47 -92 66 q-3 21 20 -214 q3 -23 -28 -25 q-14 -1 -22 9 q-7 8 -5 19 q3 22 9 96 l10 113 q-90 -60 -176 -116 q-20 -14 -35 13 q-14 26 12 37 q20 8 88 38 q72 31 104 44 q-35 13 -103 42 l-96 40 q-22 8 -9 36 q6 13 18 15 q11 3 19 -3 q20 -14 80 -52 q73 -46 94 -60 l-21 203 q-3 23 27 25 q30 1 28 -27 q-3 -23 -7 -93 q-5 -80 -8 -111 q30 21 92 60 l86 55 q19 13 34 -13 q8 -13 3 -24 q-4 -10 -14 -13 l-88 -36 q-70 -30 -104 -43 q44 -20 194 -92 Z" /><glyph glyph-name="" unicode="+" d="M460 420 q12 0 17 -13 q5 -13 5 -30 q1 -14 -17 -14 q-100 0 -177 1 q1 -89 1 -190 q0 -12 -14 -18 q-7 -3 -29 -5 q-14 -2 -14 16 q0 115 1 197 l-174 -1 q-12 0 -18 14 q-4 7 -6 29 q-1 15 15 15 q99 0 183 -1 l0 202 q0 18 15 16 q17 0 29 -5 q13 -5 13 -17 q0 -109 -1 -196 l171 0 Z" /><glyph glyph-name="" unicode="," d="M214 83 q-6 -156 -157 -199 q-28 -8 -31 5 q-3 13 27 27 q76 35 93 110 q-27 1 -46 22 q-20 21 -20 51 q0 31 20 52 q19 22 47 22 q28 0 47 -22 q20 -21 20 -52 l0 -16 Z" /><glyph glyph-name="" unicode="-" d="M308 373 q13 0 16 -18 q5 -18 5 -33 q1 -18 -14 -18 l-263 0 q-10 0 -15 14 q-5 13 -7 36 q0 19 15 19 l263 0 Z" /><glyph glyph-name="" unicode="." d="M134 19 q-28 0 -48 22 q-20 22 -20 52 q0 31 20 53 q20 22 48 22 q28 0 48 -22 q20 -22 20 -53 q0 -30 -20 -52 q-20 -22 -48 -22 Z" /><glyph glyph-name="" unicode="/" d="M349 758 q9 18 22 21 q21 3 36 1 q20 -2 8 -27 q-128 -312 -326 -778 q-6 -15 -21 -18 q-14 -2 -31 -1 q-17 2 -9 22 l321 780 Z" /><glyph glyph-name="" unicode="0" d="M32 333 q0 158 66 250 q61 87 158 87 q97 0 159 -87 q65 -92 65 -250 q0 -151 -66 -245 q-63 -91 -158 -91 q-96 0 -158 90 q-66 94 -66 246 ZM95 334 q0 -132 47 -208 q44 -72 113 -72 q69 0 113 72 q47 77 47 208 q0 131 -47 208 q-44 73 -113 73 q-69 0 -113 -73 q-47 -77 -47 -208 Z" /><glyph glyph-name="" unicode="1" d="M241 686 q19 1 36 -5 q16 -7 16 -35 q3 -336 -3 -613 q-1 -28 -20 -33 q-14 -5 -37 -1 q-15 5 -15 33 q5 170 5 520 q0 26 -15 7 q-35 -48 -85 -87 q-11 -8 -18 -1 q-9 10 -16 29 q-4 11 7 21 q50 39 101 104 q49 61 44 61 Z" /><glyph glyph-name="" unicode="2" d="M54 497 q34 98 115 143 q77 43 160 21 q114 -29 130 -137 q15 -109 -82 -209 q-36 -37 -127 -124 q-76 -72 -109 -109 q-20 -22 12 -22 q136 3 303 5 q27 0 33 -13 q6 -13 8 -29 q2 -22 -24 -22 q-163 1 -364 -2 q-46 -1 -59 27 q-12 28 19 63 q43 49 133 138 q95 95 132 135 q65 70 57 143 q-8 72 -80 93 q-58 17 -112 -14 q-56 -33 -83 -107 q-10 -27 -29 -27 q-21 0 -31 15 q-9 13 -2 32 Z" /><glyph glyph-name="" unicode="3" d="M63 573 q69 86 173 98 q99 11 156 -51 q60 -65 37 -146 q-24 -83 -119 -111 q101 -19 143 -97 q41 -76 1 -157 q-56 -112 -194 -110 q-140 1 -219 122 q-15 22 0 30 q14 8 30 -9 q78 -82 179 -84 q98 -1 137 72 q39 71 -9 133 q-54 69 -178 64 q-25 -1 -31 14 q-7 13 1 27 q8 12 32 16 q115 13 155 76 q38 58 -13 115 q-38 43 -106 33 q-72 -10 -119 -72 q-17 -20 -36 -19 q-16 0 -25 15 q-11 19 5 41 Z" /><glyph glyph-name="" unicode="4" d="M119 230 q61 1 221 1 q3 180 3 349 q-177 -229 -236 -322 q-18 -28 12 -28 ZM480 231 q22 -1 25 -14 q4 -10 6 -27 q3 -21 -18 -21 l-90 1 l-3 -137 q-1 -27 -19 -32 q-16 -5 -32 -1 q-14 3 -14 28 l2 72 q2 48 2 70 q-140 2 -245 0 q-52 -1 -65 24 q-13 25 17 70 q116 171 296 393 q17 19 44 16 q3 -1 4 -4 l3 -1 q14 -6 14 -38 l-3 -399 l76 0 Z" /><glyph glyph-name="" unicode="5" d="M115 658 q83 0 313 4 q19 0 24 -12 q7 -16 8 -29 q4 -20 -16 -20 l-277 1 q-28 0 -29 -21 q-7 -66 -16 -168 q-3 -28 24 -17 q63 27 124 26 q96 -2 151 -60 q55 -59 53 -162 q-1 -93 -64 -151 q-62 -57 -156 -57 q-72 0 -129 44 q-55 41 -83 111 q-9 21 3 27 q12 6 23 -13 q67 -110 180 -110 q67 0 112 40 q46 41 47 109 q3 153 -138 163 q-69 6 -128 -28 q-42 -24 -65 -9 q-24 15 -19 65 q1 16 11 118 q7 72 11 123 q1 26 36 26 Z" /><glyph glyph-name="" unicode="6" d="M133 370 q50 65 152 62 q81 -2 132 -58 q54 -58 54 -155 q0 -102 -58 -163 q-58 -62 -156 -62 q-93 0 -153 68 q-60 68 -61 175 q-1 360 314 430 q27 5 33 -7 q5 -13 -22 -23 q-207 -82 -241 -266 q0 -3 2 -3 q2 -1 4 2 ZM116 218 q0 -71 42 -120 q42 -48 102 -48 q64 0 104 46 q41 47 41 120 q0 71 -40 119 q-41 47 -101 47 q-62 0 -104 -44 q-43 -47 -44 -120 Z" /><glyph glyph-name="" unicode="7" d="M446 666 q35 1 44 -23 q10 -25 -16 -56 q-70 -82 -107 -172 q-67 -168 -104 -390 q-4 -29 -25 -26 q-20 2 -34 14 q-13 12 -7 38 q45 224 114 383 q33 76 87 154 q14 20 -7 18 q-198 -2 -318 -2 q-20 0 -27 13 q-7 16 -10 33 q-3 16 15 16 l395 0 Z" /><glyph glyph-name="" unicode="8" d="M457 507 q2 -117 -113 -152 q142 -33 142 -171 q0 -85 -59 -135 q-61 -52 -167 -52 q-100 0 -162 53 q-61 52 -61 133 q0 129 130 171 q-49 14 -78 56 q-30 42 -29 97 q1 68 52 114 q54 49 144 49 q94 0 149 -49 q50 -45 52 -114 ZM254 614 q-57 0 -94 -30 q-37 -30 -38 -78 q0 -114 151 -124 q122 28 121 124 q-1 47 -39 77 q-39 31 -101 31 ZM104 186 q0 -57 46 -93 q44 -36 114 -36 q71 0 115 37 q43 35 43 91 q0 62 -46 98 q-48 39 -139 40 q-133 -32 -133 -137 Z" /><glyph glyph-name="" unicode="9" d="M41 444 q0 101 59 162 q59 61 154 61 q92 0 149 -67 q57 -67 57 -175 q0 -167 -80 -278 q-79 -110 -225 -152 q-26 -8 -32 6 q-6 13 19 25 q195 94 228 252 q1 3 -1 4 q-2 1 -5 -2 q-44 -52 -140 -49 q-77 2 -128 57 q-55 59 -55 156 ZM109 444 q0 -71 39 -116 q38 -45 97 -45 q64 0 104 47 q39 46 39 117 q0 73 -39 119 q-38 45 -97 45 q-62 0 -102 -47 q-41 -47 -41 -120 Z" /><glyph glyph-name="" unicode=":" d="M130 83 q-24 0 -41 18 q-17 18 -18 44 q0 26 17 45 q16 18 40 18 q24 0 42 -18 q17 -19 17 -45 q0 -26 -16 -44 q-17 -18 -41 -18 ZM127 366 q-24 0 -41 19 q-17 18 -17 44 q0 26 17 45 q16 18 40 18 q24 0 41 -18 q17 -19 18 -45 q0 -26 -17 -44 q-17 -19 -41 -19 Z" /><glyph glyph-name="" unicode=";" d="M118 367 q-24 0 -41 19 q-17 18 -17 45 q0 26 17 45 q17 19 41 19 q24 0 41 -19 q17 -19 17 -45 q0 -27 -17 -45 q-17 -19 -41 -19 ZM123 123 q-24 0 -41 19 q-17 19 -17 45 q0 26 17 45 q17 19 41 19 q18 0 35 -12 q17 -13 21 -33 q3 -7 3 -17 l0 -18 q-4 -125 -133 -157 q-24 -6 -28 5 q-3 11 23 22 q67 26 81 82 l-2 0 Z" /><glyph glyph-name="" unicode="=" d="M438 316 q19 0 25 -14 q4 -13 6 -33 q2 -18 -21 -18 l-383 0 q-17 0 -24 15 q-6 16 -7 31 q-4 19 17 19 l387 0 ZM438 520 q19 0 25 -14 q4 -12 6 -32 q2 -18 -21 -18 l-383 0 q-18 0 -24 15 q-6 14 -7 30 q-3 19 17 19 l387 0 Z" /><glyph glyph-name="" unicode="?" d="M243 622 q-119 -2 -129 -137 q-3 -24 -24 -22 q-19 3 -30 12 q-11 8 -9 24 q7 92 61 143 q51 47 133 48 q84 1 134 -43 q49 -44 51 -116 q2 -68 -82 -154 q-84 -86 -81 -149 q0 -15 -14 -23 q-14 -7 -31 -7 q-20 0 -22 27 q-7 73 72 163 q80 92 80 135 q0 101 -109 99 ZM233 -5 q-25 0 -43 18 q-17 17 -17 42 q0 25 17 42 q18 18 43 18 q25 0 42 -18 q18 -17 18 -42 q0 -25 -18 -42 q-17 -18 -42 -18 Z" /><glyph glyph-name="" unicode="A" d="M394 280 q-48 143 -98 271 q-8 18 -17 -1 q-43 -99 -107 -270 l222 0 ZM152 226 l-74 -202 q-8 -23 -25 -24 q-22 -2 -36 3 q-20 7 -12 30 q128 332 240 583 q16 36 44 36 q25 0 41 -35 q112 -264 224 -577 q12 -32 -8 -37 q-24 -5 -46 -1 q-18 3 -24 22 q-27 91 -64 202 l-260 0 Z" /><glyph glyph-name="" unicode="B" d="M292 62 q134 21 134 136 q0 47 -37 82 q-40 38 -102 39 l-143 0 q-2 -158 -6 -259 q88 -9 154 2 ZM275 594 q-66 6 -129 -4 l0 -4 q0 -129 -1 -211 q61 0 137 4 q115 4 115 103 q0 44 -32 74 q-33 31 -90 38 ZM66 574 q-16 -4 -26 6 q-12 10 -15 29 q-3 16 14 19 q157 32 262 17 q76 -11 123 -55 q44 -43 44 -97 q0 -108 -96 -134 q-12 -2 -1 -5 q54 -13 90 -58 q39 -47 39 -109 q0 -73 -54 -123 q-56 -52 -149 -61 q-146 -13 -264 38 q-24 10 -18 25 q5 15 28 10 l31 -7 q8 381 6 509 l-14 -4 Z" /><glyph glyph-name="" unicode="C" d="M520 452 q-18 6 -29 34 q-43 104 -174 104 q-89 0 -144 -71 q-54 -71 -54 -187 q0 -128 49 -197 q51 -72 149 -72 q161 0 216 162 q8 26 23 22 q14 -3 10 -29 q-16 -103 -81 -161 q-66 -57 -169 -57 q-134 0 -204 88 q-69 86 -69 246 q0 134 72 222 q76 94 204 94 q164 0 232 -137 q14 -27 3 -48 q-9 -21 -34 -13 Z" /><glyph glyph-name="" unicode="D" d="M270 64 q93 6 142 78 q46 67 45 178 q-2 262 -198 270 q-46 3 -100 -6 q0 -348 -7 -521 q50 -4 118 1 ZM79 567 q-24 -6 -33 2 q-15 11 -18 30 q-3 20 26 28 q98 27 213 23 q264 -9 267 -329 q1 -141 -65 -227 q-70 -89 -195 -93 q-141 -3 -249 52 q-22 11 -15 24 q6 12 26 6 q18 -5 47 -11 q7 339 6 498 l-10 -3 Z" /><glyph glyph-name="" unicode="E" d="M149 584 l-5 -213 q197 -2 286 -1 q21 1 27 -11 q8 -12 10 -32 q3 -16 -19 -16 l-306 5 q-2 -103 -9 -253 q251 2 333 4 q25 0 32 -11 q8 -14 12 -37 q3 -18 -23 -17 l-390 0 q-32 0 -31 34 q13 349 14 557 l-1 2 q-9 17 -11 33 q-3 15 16 15 q202 -2 377 2 q26 0 31 -11 q7 -16 11 -36 q3 -17 -21 -17 l-333 3 Z" /><glyph glyph-name="" unicode="F" d="M81 594 q-7 13 -12 34 q-4 16 16 16 q169 -2 370 3 q22 1 29 -12 q8 -13 12 -36 q3 -18 -22 -18 l-164 1 q-106 0 -153 1 l-5 -230 q237 0 264 1 q21 0 27 -12 q5 -9 10 -36 q1 -17 -19 -17 q-224 4 -284 4 q-3 -166 -8 -267 q0 -16 -19 -22 q-25 -5 -37 -5 q-19 -1 -18 21 q14 352 14 572 l-1 2 Z" /><glyph glyph-name="" unicode="G" d="M529 449 q-17 5 -25 29 q-41 113 -174 112 q-100 0 -157 -70 q-58 -72 -58 -200 q0 -117 64 -187 q60 -68 156 -68 q90 0 140 54 q53 58 54 168 q1 15 -14 15 q-54 1 -215 1 q-18 -1 -29 28 q-11 31 14 31 q192 0 275 -1 q34 -1 35 -36 q5 -157 -62 -242 q-67 -84 -197 -84 q-136 0 -218 93 q-77 89 -77 226 q0 155 82 246 q78 87 204 88 q175 0 240 -144 q11 -23 5 -42 q-11 -28 -43 -17 Z" /><glyph glyph-name="" unicode="H" d="M446 628 q0 23 18 23 q28 -4 38 -7 q16 -6 16 -24 l-2 -595 q0 -13 -16 -18 q-15 -5 -37 -7 q-18 -3 -18 21 l0 295 q-31 1 -307 4 q0 -160 -2 -292 q0 -14 -16 -20 q-11 -3 -35 -7 q-18 -1 -18 21 q4 326 1 579 q0 33 2 39 q2 11 16 10 q26 -4 36 -7 q16 -5 16 -24 l1 -241 l307 -3 l0 253 Z" /><glyph glyph-name="" unicode="I" d="M73 580 q-15 0 -19 12 q-5 15 -6 34 q-3 14 11 14 q174 0 256 3 q19 0 24 -11 q9 -18 9 -38 q1 -15 -26 -15 l-89 1 q0 -236 -6 -514 l52 1 q30 0 44 1 q20 2 25 -12 q7 -16 9 -38 q3 -17 -20 -16 l-274 0 q-16 0 -20 13 q-4 15 -6 33 q-1 15 12 15 l108 2 q7 257 5 515 l-89 0 Z" /><glyph glyph-name="" unicode="J" d="M64 583 q-17 0 -21 11 q-5 14 -8 35 q-1 15 12 15 q182 0 253 2 q18 1 24 -10 q8 -19 11 -38 q2 -15 -20 -15 l-93 0 q4 -211 2 -305 q-2 -125 -51 -190 q-50 -68 -165 -95 q-23 -5 -26 7 q-4 11 15 19 q84 39 119 98 q34 59 36 164 q3 139 -1 302 l-87 0 Z" /><glyph glyph-name="" unicode="K" d="M552 34 q19 -27 -6 -32 l-39 -3 q-23 0 -36 21 q-87 139 -207 336 q-67 -60 -124 -106 l-1 -119 q0 -73 -1 -108 q0 -16 -17 -20 q-7 -2 -37 -4 q-17 0 -17 19 q4 196 2 615 q0 21 16 19 q26 -2 40 -7 q16 -4 16 -17 q0 -200 -1 -311 q214 205 314 310 q17 17 33 18 q31 2 54 -3 q12 -1 13 -9 q2 -8 -6 -16 q-151 -141 -245 -226 l249 -357 Z" /><glyph glyph-name="" unicode="L" d="M471 54 q8 -14 12 -34 q3 -19 -22 -19 q-176 1 -361 0 q-33 0 -32 35 q4 150 10 596 q0 22 17 20 q25 -2 40 -6 q15 -4 15 -22 l-6 -275 q-4 -221 -6 -290 l303 6 q24 1 30 -11 Z" /><glyph glyph-name="" unicode="M" d="M4 28 q32 221 116 592 q6 29 27 28 q41 -4 55 -45 q71 -196 138 -422 q3 -8 6 1 q88 290 138 426 q15 40 55 41 q23 0 30 -32 q97 -472 115 -590 q4 -27 -15 -28 q-17 0 -32 3 q-20 3 -22 27 q-23 197 -86 507 q-1 7 -5 6 q-3 -1 -5 -6 q-56 -151 -145 -451 q-8 -24 -31 -24 q-23 0 -30 24 q-90 285 -147 443 q-2 7 -5 6 q-2 0 -3 -6 q-65 -337 -85 -504 q-3 -22 -21 -24 q-10 -2 -36 0 q-17 2 -12 28 Z" /><glyph glyph-name="" unicode="N" d="M545 31 q0 -30 -29 -30 q-58 0 -78 33 q-59 95 -149 256 q-96 170 -139 241 q-12 18 -12 -3 q-1 -45 5 -504 q0 -16 -18 -23 q-12 -4 -40 -4 q-18 0 -18 17 q2 372 2 601 q0 24 30 24 q53 2 69 -25 q50 -81 152 -260 q94 -165 141 -238 q5 -9 9 -7 q4 1 4 10 q2 227 -4 498 q0 21 21 28 q22 6 36 6 q18 0 18 -15 l0 -605 Z" /><glyph glyph-name="" unicode="O" d="M40 324 q0 139 73 230 q77 95 205 95 q128 0 204 -95 q72 -90 72 -230 q0 -139 -72 -230 q-76 -95 -204 -95 q-127 0 -205 95 q-73 91 -73 230 ZM112 324 q0 -115 52 -188 q55 -77 153 -77 q97 0 152 77 q50 72 50 188 q0 115 -50 187 q-55 77 -152 77 q-98 0 -153 -77 q-52 -72 -52 -187 Z" /><glyph glyph-name="" unicode="P" d="M298 226 q72 0 115 49 q43 49 43 134 q0 73 -46 127 q-47 55 -112 55 q-96 0 -160 -59 l0 -232 q56 -74 160 -74 ZM138 602 q63 49 160 49 q95 0 161 -72 q64 -71 64 -170 q0 -114 -63 -179 q-61 -62 -162 -62 q-105 0 -161 59 l-3 -200 q0 -17 -17 -22 q-9 -4 -35 -6 q-17 -2 -17 23 q7 332 3 604 q0 28 16 26 q18 0 38 -6 q16 -6 16 -24 l0 -20 Z" /><glyph glyph-name="" unicode="Q" d="M319 60 q39 0 75 14 q-17 29 -31 67 q-8 27 14 36 q30 13 37 -11 q8 -28 27 -64 q98 76 98 222 q0 111 -61 187 q-63 77 -159 77 q-94 0 -153 -77 q-56 -74 -56 -187 q0 -113 56 -187 q59 -77 153 -77 ZM609 -10 q33 -4 31 -19 q-1 -16 -30 -16 q-111 0 -177 67 q-52 -23 -111 -23 q-124 0 -204 95 q-78 93 -78 230 q0 138 78 230 q79 95 204 95 q125 0 209 -95 q83 -94 83 -230 q0 -181 -133 -275 q53 -52 128 -59 Z" /><glyph glyph-name="" unicode="R" d="M138 342 q76 -27 159 -24 q71 1 109 40 q37 37 37 100 q0 59 -44 97 q-43 37 -113 37 q-83 0 -148 -44 l0 -206 ZM138 613 q68 39 167 39 q91 0 153 -54 q62 -55 62 -139 q0 -77 -44 -130 q-44 -52 -118 -65 q51 -84 151 -233 q17 -25 -9 -30 q-25 -2 -37 -1 q-28 0 -38 19 q-118 213 -132 241 q-86 2 -155 32 q0 -112 -2 -266 q0 -14 -16 -20 q-19 -6 -36 -7 q-18 -1 -18 18 q6 283 2 612 q-1 23 16 21 q24 -2 39 -8 q15 -5 15 -20 l0 -9 Z" /><glyph glyph-name="" unicode="S" d="M465 558 q-8 -18 -22 -21 q-18 -6 -37 10 q-52 45 -139 45 q-78 0 -120 -29 q-36 -24 -36 -62 q0 -41 20 -64 q20 -23 76 -48 q19 -8 69 -26 q49 -17 70 -26 q129 -58 129 -170 q0 -169 -215 -169 q-132 0 -212 85 q-13 13 -6 26 q7 14 29 20 q11 3 26 -12 q62 -56 163 -56 q145 0 145 106 q0 68 -89 109 q-25 11 -66 27 l-66 25 q-79 32 -111 73 q-31 39 -31 100 q0 61 56 104 q62 47 169 47 q120 0 188 -63 q17 -15 10 -31 Z" /><glyph glyph-name="" unicode="T" d="M41 589 q-22 0 -27 11 q-9 17 -11 33 q-3 15 16 15 q356 0 414 1 q24 1 31 -10 q10 -14 14 -37 q2 -16 -23 -16 q-119 0 -182 1 q1 -196 -3 -563 q0 -14 -16 -18 q-19 -6 -37 -7 q-17 -1 -17 19 q6 337 2 569 l-161 2 Z" /><glyph glyph-name="" unicode="U" d="M468 88 q-62 -88 -171 -88 q-224 0 -227 229 q-5 196 0 401 q0 20 20 19 q23 0 40 -8 q14 -6 14 -30 q-9 -244 -5 -381 q2 -88 41 -128 q39 -41 122 -41 q113 0 166 109 q-2 281 1 453 q0 17 16 21 q18 6 42 6 q15 2 15 -20 q-4 -247 -1 -600 q0 -20 -17 -20 q-22 2 -38 6 q-17 6 -17 20 l-1 52 Z" /><glyph glyph-name="" unicode="V" d="M27 644 q60 -3 69 -34 q71 -252 180 -525 q5 -12 9 -1 q112 303 170 534 q7 31 73 34 q20 0 13 -27 q-73 -253 -197 -565 q-25 -63 -60 -63 q-39 -2 -66 61 q-105 240 -207 558 q-10 30 16 28 Z" /><glyph glyph-name="" unicode="W" d="M3 622 q-3 28 13 29 q20 2 36 0 q21 -3 24 -26 q21 -188 83 -506 q4 -14 9 1 q49 138 141 444 q9 28 31 28 q24 0 32 -26 q70 -254 142 -460 q8 -13 11 1 q66 338 88 515 q4 24 24 27 l31 3 q21 -1 16 -29 q-27 -157 -114 -581 q-9 -40 -35 -40 q-46 1 -62 50 q-63 177 -130 419 q-1 4 -2 5 q-2 0 -3 -4 q-71 -247 -131 -423 q-15 -42 -58 -46 q-22 -3 -30 29 q-86 386 -116 590 Z" /><glyph glyph-name="" unicode="X" d="M531 38 q20 -26 -3 -31 q-10 -2 -34 -5 q-27 -2 -38 14 q-80 116 -185 256 q-130 -176 -186 -256 q-11 -16 -36 -14 q-21 1 -36 5 q-21 4 -3 28 q86 118 219 294 q-126 168 -208 291 q-13 22 7 26 q17 5 38 5 q17 0 26 -14 q72 -111 178 -253 q108 146 181 252 q11 17 29 15 q17 0 37 -4 q21 -4 7 -25 q-70 -101 -212 -295 q190 -250 219 -289 Z" /><glyph glyph-name="" unicode="Y" d="M21 648 q24 2 41 -1 q16 -2 22 -16 q64 -124 190 -323 q4 -6 8 0 q116 196 176 323 q8 19 26 20 q30 2 45 1 q18 -3 9 -20 q-90 -165 -224 -373 q-5 -8 -6 -26 l3 -204 q0 -18 -11 -24 q-16 -8 -39 -6 q-17 1 -17 24 l0 207 q0 16 -9 29 q-140 211 -227 368 q-11 20 13 21 Z" /><glyph glyph-name="" unicode="Z" d="M65 643 q78 -1 186 1 q160 2 210 2 q29 0 29 -35 q0 -16 -24 -52 q-20 -31 -341 -476 q-12 -17 5 -17 q100 1 336 6 q20 0 28 -14 q5 -10 12 -34 q3 -21 -15 -21 l-215 -1 q-123 0 -216 -1 q-32 0 -33 32 q-2 19 29 63 q38 54 172 238 q106 144 162 230 q6 9 5 12 q-1 2 -11 2 q-39 0 -137 -2 l-155 -2 q-24 0 -32 15 q-8 13 -12 31 q-6 23 17 23 Z" /><glyph glyph-name="" unicode="`" d="M87 839 q15 0 20 -11 l106 -176 q11 -16 -10 -18 q-13 -1 -20 8 q-60 77 -137 174 q-7 8 -4 15 q2 6 11 7 l34 1 Z" /><glyph glyph-name="" unicode="a" d="M471 438 q-39 -286 25 -409 q13 -24 4 -33 q-9 -10 -31 6 q-31 22 -54 72 q-54 -75 -161 -75 q-100 -1 -160 66 q-59 67 -59 178 q0 103 65 169 q63 64 154 64 q92 0 145 -55 q5 38 20 42 q21 3 40 0 q16 -3 12 -25 ZM105 243 q-1 -83 45 -132 q44 -47 116 -45 q75 2 120 50 q13 15 12 53 q-6 78 -3 148 q1 28 -14 46 q-42 49 -115 49 q-70 -1 -115 -46 q-46 -47 -46 -123 Z" /><glyph glyph-name="" unicode="b" d="M153 122 q55 -57 140 -57 q67 0 110 48 q43 48 44 126 q0 74 -44 123 q-43 49 -108 51 q-84 2 -142 -64 q-16 -19 -17 -58 q-2 -63 0 -114 q0 -38 17 -55 ZM135 22 q0 -16 -16 -19 q-15 -5 -34 -6 q-18 -1 -18 22 q0 449 1 636 q0 24 16 24 q15 0 37 -4 q17 -5 17 -23 q1 -72 -1 -242 q67 69 171 67 q88 -2 146 -65 q60 -67 60 -173 q0 -108 -60 -175 q-59 -66 -149 -66 q-100 0 -170 67 l0 -43 Z" /><glyph glyph-name="" unicode="c" d="M441 330 q-15 -17 -34 -14 q-19 1 -27 23 q-11 32 -45 54 q-35 22 -77 22 q-64 0 -110 -50 q-46 -50 -46 -120 q0 -81 45 -132 q45 -51 115 -51 q57 0 105 35 q46 33 62 85 q5 16 15 13 q10 -3 8 -19 q-8 -76 -60 -125 q-54 -50 -131 -50 q-98 0 -161 68 q-63 68 -63 175 q0 101 63 168 q63 66 158 66 q135 -2 184 -111 q10 -23 -1 -37 Z" /><glyph glyph-name="" unicode="d" d="M261 413 q-69 0 -114 -53 q-43 -52 -43 -129 q1 -75 44 -121 q43 -46 110 -46 q84 0 140 56 q17 17 17 54 q2 52 0 115 q-1 43 -17 62 q-57 64 -137 62 ZM416 64 q-71 -65 -170 -65 q-90 0 -149 63 q-61 65 -61 169 q0 107 63 177 q61 66 152 68 q105 1 163 -66 q0 169 1 242 q1 19 17 22 q11 3 38 5 q16 0 15 -24 l0 -635 q0 -21 -19 -20 q-14 0 -34 4 q-16 5 -16 19 l0 41 Z" /><glyph glyph-name="" unicode="e" d="M114 217 q-11 0 -10 -13 q5 -62 49 -103 q46 -44 115 -44 q112 2 162 95 q7 13 17 10 q10 -4 6 -22 q-15 -64 -67 -103 q-51 -38 -118 -39 q-107 -1 -169 65 q-61 66 -63 183 q-1 100 61 166 q62 66 158 67 q90 1 144 -57 q56 -61 60 -171 q0 -28 -22 -29 l-323 -5 ZM254 421 q-61 -1 -103 -41 q-39 -38 -47 -96 q-1 -14 8 -14 q28 0 268 4 q11 1 9 17 q-17 130 -135 130 Z" /><glyph glyph-name="" unicode="f" d="M205 486 q90 0 146 2 q17 1 22 -11 q6 -18 8 -37 q2 -17 -19 -16 l-158 0 l0 -381 q1 -25 -15 -34 q-18 -9 -37 -9 q-16 2 -16 23 q3 201 3 401 l-103 1 q-17 0 -22 11 q-5 14 -8 35 q-1 15 12 15 l122 0 l0 17 q0 93 40 133 q42 43 147 44 q22 0 27 -16 q8 -22 4 -38 q-4 -14 -37 -13 q-66 2 -91 -23 q-24 -23 -25 -83 l0 -21 Z" /><glyph glyph-name="" unicode="g" d="M439 473 q20 1 20 -18 l0 -478 q0 -231 -191 -231 q-163 0 -222 164 q-9 26 5 34 q14 7 25 -15 q64 -122 177 -122 q140 0 140 171 l0 74 q-47 -52 -148 -52 q-88 0 -148 64 q-61 67 -61 169 q0 106 59 174 q58 67 150 69 q90 3 147 -45 q1 30 14 34 q14 6 33 8 ZM104 233 q0 -75 44 -123 q42 -47 109 -47 q80 0 118 42 q17 21 16 54 q-2 74 -2 159 q0 40 -14 55 q-42 45 -119 42 q-66 -3 -110 -56 q-42 -52 -42 -126 Z" /><glyph glyph-name="" unicode="h" d="M129 396 q52 80 147 80 q166 0 168 -150 q3 -169 3 -295 q0 -29 -14 -30 q-15 -1 -35 4 q-19 5 -18 28 q1 145 -2 281 q-2 99 -104 99 q-75 0 -122 -66 q-24 -33 -24 -93 l0 -231 q0 -14 -14 -19 q-24 -5 -32 -6 q-17 -1 -17 21 l0 640 q0 21 14 21 q21 -2 35 -6 q15 -4 15 -24 l0 -254 Z" /><glyph glyph-name="" unicode="i" d="M108 588 q-17 0 -30 12 q-12 13 -12 30 q0 18 12 30 q13 12 30 12 q17 0 30 -12 q12 -12 12 -30 q0 -17 -12 -30 q-13 -12 -30 -12 ZM85 479 q25 -2 40 -8 q15 -4 15 -25 l1 -413 q0 -23 -18 -29 q-20 -5 -36 -4 q-17 0 -17 23 q1 132 1 433 q0 23 14 23 Z" /><glyph glyph-name="" unicode="j" d="M86 481 q33 -3 43 -7 q12 -4 12 -19 q2 -196 -5 -404 q-3 -117 -40 -180 q-37 -62 -122 -96 q-24 -9 -30 2 q-6 11 15 27 q106 83 110 252 q5 204 3 403 q0 22 14 22 ZM106 591 q-17 0 -30 12 q-12 13 -12 30 q0 17 12 30 q13 12 30 12 q18 0 30 -12 q12 -13 12 -30 q0 -17 -12 -30 q-12 -12 -30 -12 Z" /><glyph glyph-name="" unicode="k" d="M137 23 q0 -16 -15 -22 q-18 -6 -36 -6 q-17 -1 -17 25 l-1 330 q0 196 -1 302 q0 25 17 25 q23 -2 37 -6 q15 -4 15 -24 l0 -391 q17 15 130 108 q79 65 117 101 q11 10 26 12 q30 4 55 2 q14 -1 17 -9 q2 -9 -10 -19 q-63 -53 -182 -143 l206 -277 q22 -28 -7 -30 q-25 -2 -38 -1 q-25 3 -36 20 q-32 53 -82 129 q-71 107 -84 128 q-88 -67 -112 -84 l1 -170 Z" /><glyph glyph-name="" unicode="l" d="M87 679 q21 -1 39 -7 q16 -5 16 -25 l0 -620 q0 -14 -17 -20 q-13 -5 -37 -7 q-17 -1 -17 22 q-1 236 -1 635 q0 24 17 22 Z" /><glyph glyph-name="" unicode="m" d="M509 477 q140 0 141 -135 l0 -325 q0 -17 -18 -19 q-22 -2 -38 5 q-13 4 -13 27 l1 141 q1 106 0 163 q0 79 -82 79 q-51 0 -90 -51 q-21 -29 -21 -80 q-2 -82 -2 -249 q0 -19 -18 -19 q-20 -2 -34 4 q-13 6 -13 27 l2 271 q0 94 -78 94 q-55 0 -91 -47 q-18 -22 -18 -76 l1 -257 q0 -22 -18 -27 q-16 -4 -37 -4 q-17 1 -17 25 q2 270 2 428 q0 24 17 24 q25 -2 37 -7 q14 -4 14 -52 q48 57 120 57 q97 0 120 -76 q42 79 133 79 Z" /><glyph glyph-name="" unicode="n" d="M130 406 q63 71 160 71 q70 0 110 -36 q39 -36 41 -101 q5 -265 5 -312 q0 -29 -16 -30 q-19 0 -35 4 q-16 4 -16 29 q2 176 -3 293 q-3 91 -103 91 q-74 0 -124 -61 q-20 -23 -20 -74 q-1 -54 -1 -257 q0 -14 -14 -20 q-13 -4 -33 -6 q-16 -1 -16 21 l1 435 q0 23 15 21 q19 0 34 -5 q15 -4 15 -22 l0 -41 Z" /><glyph glyph-name="" unicode="o" d="M36 237 q0 100 66 170 q66 71 160 71 q94 0 160 -71 q66 -70 66 -170 q0 -100 -66 -170 q-66 -70 -160 -70 q-94 0 -160 70 q-66 70 -66 170 ZM102 238 q0 -77 46 -130 q46 -53 114 -53 q67 0 113 53 q46 53 46 130 q0 76 -46 129 q-46 53 -113 53 q-68 0 -114 -53 q-46 -53 -46 -129 Z" /><glyph glyph-name="" unicode="p" d="M295 62 q66 3 107 50 q40 48 40 124 q-1 78 -42 127 q-42 48 -109 48 q-83 0 -138 -58 q-17 -18 -17 -56 q-2 -53 0 -119 q1 -40 17 -59 q54 -60 142 -57 ZM135 410 q73 68 169 68 q90 0 150 -66 q61 -68 61 -176 q0 -108 -60 -173 q-56 -62 -147 -65 q-106 -3 -171 60 q1 -84 1 -284 q0 -18 -17 -23 q-19 -4 -37 -5 q-16 0 -16 24 q-1 199 -1 686 q0 22 18 22 q18 -1 35 -6 q15 -4 15 -20 l0 -42 Z" /><glyph glyph-name="" unicode="q" d="M398 360 q-52 55 -131 55 q-69 0 -115 -45 q-48 -47 -48 -122 q0 -77 43 -130 q44 -53 109 -53 q92 0 142 59 q16 19 17 58 q2 67 0 124 q0 37 -17 54 ZM416 456 q0 15 16 19 q17 5 34 5 q18 1 18 -21 q0 -490 -1 -689 q0 -23 -16 -23 q-15 0 -37 4 q-17 5 -17 23 q0 206 1 289 q-60 -63 -171 -63 q-90 0 -148 68 q-59 69 -59 178 q0 106 65 171 q62 63 154 63 q99 0 161 -64 l0 40 Z" /><glyph glyph-name="" unicode="r" d="M296 477 q31 12 37 -11 q4 -22 2 -41 q-1 -21 -23 -25 q-74 -18 -136 -79 q-37 -35 -38 -107 q-1 -52 -1 -187 q-1 -21 -18 -26 q-18 -5 -35 -3 q-18 0 -18 22 q4 270 1 440 q0 22 16 22 q17 0 38 -7 q14 -4 15 -22 l1 -100 q62 83 159 124 Z" /><glyph glyph-name="" unicode="s" d="M396 384 q-5 -16 -22 -22 q-16 -5 -26 7 q-46 53 -127 53 q-115 0 -115 -65 q0 -37 28 -54 q30 -19 115 -31 q87 -13 124 -45 q36 -31 36 -94 q0 -134 -180 -134 q-117 1 -185 92 q-15 21 -6 33 q9 13 25 -3 q63 -62 163 -62 q111 0 111 74 q0 37 -24 56 q-26 20 -88 28 q-111 15 -150 45 q-36 29 -36 94 q0 121 184 121 q111 0 166 -65 q10 -14 7 -28 Z" /><glyph glyph-name="" unicode="t" d="M198 133 q0 -42 15 -59 q15 -17 53 -17 q52 0 87 40 q12 14 19 5 q7 -10 -2 -31 q-32 -71 -114 -71 q-69 0 -97 31 q-27 30 -27 102 l0 287 l-104 0 q-16 0 -18 11 q-6 20 -7 34 q-1 14 11 14 q79 0 118 1 l0 174 q0 17 20 17 q18 0 36 -6 q10 -5 10 -29 l0 -156 q109 0 146 2 q19 0 23 -12 q5 -13 7 -36 q2 -15 -17 -15 q-44 1 -159 1 l0 -287 Z" /><glyph glyph-name="" unicode="u" d="M372 65 q-64 -66 -149 -66 q-149 0 -152 133 l-4 314 q0 28 16 29 q13 1 33 -4 q18 -3 17 -29 l3 -296 q1 -84 104 -84 q62 0 107 53 q26 32 26 85 l0 251 q0 14 16 20 q16 5 37 7 q17 2 17 -22 q1 -79 0 -208 l-1 -223 q-1 -24 -16 -23 q-24 2 -39 6 q-15 5 -15 19 l0 38 Z" /><glyph glyph-name="" unicode="v" d="M32 477 q15 0 37 -4 q14 -3 20 -22 q54 -158 139 -357 q8 -17 14 0 q97 255 129 356 q5 21 18 23 q24 4 38 4 q22 0 13 -25 q-55 -162 -162 -416 q-16 -37 -42 -37 q-26 0 -43 37 q-99 214 -176 417 q-10 24 15 24 Z" /><glyph glyph-name="" unicode="w" d="M30 478 q16 1 37 -3 q16 -3 20 -24 q29 -139 88 -345 q3 -11 9 -12 q5 0 8 11 q24 75 96 323 q10 35 36 35 q24 0 33 -35 q49 -180 89 -323 q3 -9 8 -9 q5 0 8 10 q77 274 93 342 q4 20 23 25 q15 5 41 5 q15 0 11 -17 q-79 -267 -128 -410 q-17 -51 -46 -51 q-34 2 -49 51 q-34 112 -79 293 q-5 17 -10 1 q-52 -185 -87 -289 q-19 -55 -53 -55 q-28 0 -46 58 q-65 210 -115 402 q-5 17 13 17 Z" /><glyph glyph-name="" unicode="x" d="M428 31 q18 -23 -7 -28 q-15 -3 -40 -3 q-21 0 -32 15 q-21 30 -125 169 l-127 -167 q-13 -17 -31 -17 q-23 0 -39 3 q-25 5 -6 29 q30 39 81 102 q69 86 82 103 q-126 169 -161 218 q-14 19 5 21 q14 1 40 1 q14 0 25 -14 q28 -40 132 -174 q97 124 133 174 q9 14 24 14 q26 0 39 -1 q20 -2 6 -21 q-63 -87 -162 -216 q106 -134 163 -208 Z" /><glyph glyph-name="" unicode="y" d="M206 8 q-103 230 -188 443 q-8 22 7 23 q28 4 44 0 q20 -3 27 -23 q50 -152 144 -375 q93 214 148 367 q11 28 29 32 q23 5 40 2 q20 -3 10 -29 q-91 -224 -210 -480 q-53 -115 -102 -161 q-43 -40 -113 -51 q-29 -4 -30 9 q-1 14 26 25 q94 40 166 204 l4 9 l-2 5 Z" /><glyph glyph-name="" unicode="z" d="M373 470 q29 0 29 -17 q0 -31 -28 -67 q-46 -58 -132 -159 q-83 -98 -124 -150 q-9 -10 -8 -13 q1 -3 13 -3 l244 6 q22 0 28 -18 q4 -10 8 -32 q2 -16 -21 -16 l-321 0 q-30 0 -31 22 q-1 39 18 66 q36 48 125 155 q86 102 127 158 q7 10 -4 10 l-219 -3 q-20 0 -25 13 q-7 18 -9 29 q-5 20 14 20 l316 -1 Z" /><glyph glyph-name="" unicode="~" d="M321 399 q59 -42 98 -42 q35 0 88 100 q6 10 20 7 q9 -3 29 -13 q9 -6 3 -17 q-79 -138 -138 -138 q-53 0 -130 54 q-74 52 -101 52 q-41 0 -100 -93 q-6 -10 -19 -6 q-22 5 -31 14 q-9 7 -3 17 q84 129 152 129 q41 0 132 -64 Z" /><glyph glyph-name="" unicode="·" d="M278 433 q25 0 42 -18 q18 -17 18 -42 q0 -25 -18 -42 q-17 -17 -42 -17 q-25 0 -42 17 q-18 17 -18 42 q0 25 18 42 q17 18 42 18 Z" /><glyph glyph-name="" unicode="&#x2014;" d="M978 373 q8 0 9 -7 l14 -56 q2 -6 -5 -6 l-974 0 q-7 0 -9 8 l-7 27 q-4 17 -7 26 q-1 8 5 8 l974 0 Z" /><glyph glyph-name="" unicode="&#x2018;" d="M307 714 q26 0 44 -18 q18 -18 18 -43 q0 -26 -18 -44 q-18 -18 -44 -18 q-37 0 -53 31 q-15 26 -12 61 q11 118 139 165 q33 12 39 2 q5 -11 -23 -25 q-73 -36 -91 -111 l1 0 Z" /><glyph glyph-name="" unicode="&#x2019;" d="M182 720 q-25 0 -44 18 q-18 19 -18 44 q0 26 18 44 q19 18 44 18 q24 0 42 -16 q18 -17 20 -41 q3 -20 2 -41 q-9 -105 -127 -160 q-30 -12 -35 -1 q-6 10 18 25 q70 45 83 110 l-3 0 Z" /><glyph glyph-name="" unicode="&#x201c;" d="M274 707 q26 0 44 -18 q18 -18 18 -44 q0 -25 -18 -44 q-18 -18 -44 -18 q-44 0 -58 41 q-10 22 -7 52 q11 118 139 165 q32 12 38 2 q6 -11 -22 -26 q-75 -37 -91 -110 l1 0 ZM447 707 q26 0 44 -18 q18 -18 18 -44 q0 -25 -18 -44 q-18 -18 -44 -18 q-44 0 -58 41 q-10 22 -7 52 q11 118 138 165 q33 12 39 2 q5 -11 -23 -26 q-73 -37 -91 -110 l2 0 Z" /><glyph glyph-name="" unicode="&#x201d;" d="M155 722 q-25 0 -44 18 q-18 19 -18 44 q0 26 18 44 q19 18 44 18 q25 0 43 -17 q17 -17 19 -42 q3 -14 1 -39 q-8 -109 -127 -159 q-29 -13 -35 -3 q-5 10 18 26 q70 44 84 110 l-3 0 ZM329 722 q-25 0 -44 18 q-18 19 -18 44 q0 26 18 44 q19 18 44 18 q50 0 60 -50 q6 -19 3 -48 q-9 -110 -127 -159 q-29 -13 -35 -3 q-6 11 18 26 q70 44 84 110 l-3 0 Z" /><glyph glyph-name="" unicode="&#x3002;" d="M75 138 q0 52 37 88 q36 37 88 37 q52 0 88 -37 q37 -36 37 -88 q0 -52 -37 -88 q-36 -37 -88 -37 q-52 0 -88 37 q-37 36 -37 88 ZM119 139 q0 -35 23 -58 q23 -24 58 -24 q34 0 58 24 q23 23 23 58 q0 35 -23 58 q-23 23 -58 23 q-35 0 -58 -23 q-23 -23 -23 -58 Z" /><glyph glyph-name="" unicode="&#x4e00;" d="M671 445 q178 12 215 19 q32 5 50 -27 q25 -46 -13 -44 q-139 1 -824 -31 q-24 -1 -36 21 q-17 32 2 32 q433 20 606 30 Z" /><glyph glyph-name="" unicode="&#x4e03;" d="M893 99 q29 -29 3 -51 q-29 -24 -104 -33 q-116 -13 -258 -2 q-148 13 -154 179 q-3 92 -1 203 l-277 -55 q-24 -4 -39 17 q-19 27 -2 31 q202 39 319 64 q2 135 1 192 q-1 68 -6 131 q-2 26 20 19 q30 -11 46 -21 q15 -11 12 -33 q-6 -35 -8 -96 l-3 -179 q171 35 279 62 q78 19 115 32 q29 10 48 -19 q30 -40 -5 -46 q-96 -15 -438 -86 q0 -108 3 -213 q3 -107 97 -116 q126 -11 233 4 q53 8 58 41 q15 107 16 110 q4 18 11 17 q7 -1 8 -20 q5 -111 26 -132 Z" /><glyph glyph-name="" unicode="&#x4e07;" d="M399 649 q-38 -1 -127 -5 l-146 -6 q-23 -1 -34 21 q-9 18 -9 25 q1 5 12 6 q350 13 566 26 q153 9 205 18 q29 5 46 -26 q22 -42 -13 -42 q-91 1 -449 -15 l8 -4 q14 -9 10 -30 q-15 -88 -20 -114 l-5 -25 l230 10 q19 1 36 11 q7 5 14 4 q6 0 12 -3 q24 -14 35 -25 q12 -12 3 -27 q-10 -16 -14 -37 q-10 -45 -36 -173 q-26 -126 -41 -193 q-12 -53 -46 -68 q-40 -19 -46 8 q-2 8 -101 50 q-12 5 -11 11 q2 6 16 5 q116 -14 119 -1 q37 156 78 384 q-208 -7 -261 -10 q-77 -291 -334 -434 q-21 -12 -26 -5 q-5 6 14 21 q239 187 300 502 q13 62 15 138 l0 3 Z" /><glyph glyph-name="" unicode="&#x4e09;" d="M586 695 q105 8 142 15 q23 4 37 -25 q18 -38 -12 -38 q-59 0 -197 -7 q-194 -9 -316 -13 q-19 0 -28 20 q-14 31 3 31 q225 7 371 17 ZM583 424 q41 2 111 8 q24 1 34 -21 q15 -35 -14 -36 q-201 -10 -420 -18 q-28 -1 -39 18 q-11 18 -9 24 q2 6 19 7 q62 4 162 9 l156 9 ZM662 135 q168 10 210 17 q33 6 50 -26 q25 -45 -12 -44 q-158 3 -809 -33 q-22 -1 -36 21 q-17 32 3 33 q512 27 594 32 Z" /><glyph glyph-name="" unicode="&#x4e0a;" d="M937 93 q23 -45 -12 -43 q-148 5 -826 -26 q-24 -1 -36 21 q-17 32 3 32 l371 16 l0 329 q1 177 -1 260 q-2 64 -7 115 q-2 16 1 20 q4 4 17 0 q24 -5 48 -19 q13 -7 11 -33 q-4 -52 -4 -94 l-3 -184 l187 12 q62 4 87 13 q28 9 43 -21 q22 -43 -7 -43 q10 0 -311 -13 q-4 -208 -2 -340 l176 9 q173 10 216 17 q32 5 49 -28 Z" /><glyph glyph-name="" unicode="&#x4e0b;" d="M772 384 q43 -38 25 -74 q-21 -37 -61 3 q-74 77 -199 160 q-17 11 -14 17 q3 5 22 3 q117 -14 227 -109 ZM501 663 q14 -9 13 -33 q-2 -42 -2 -62 q-2 -70 -4 -236 q-3 -212 -5 -292 q-1 -59 -19 -89 q-10 -19 -21 -20 q-10 0 -16 19 q-12 35 -9 86 q12 326 10 547 q0 38 -5 80 l-318 -11 q-23 -1 -34 21 q-17 32 3 32 q369 13 566 24 q163 10 205 17 q29 5 46 -27 q23 -44 -13 -43 q-97 1 -401 -11 l4 -2 Z" /><glyph glyph-name="" unicode="&#x4e0d;" d="M513 470 q6 -18 8 -53 q5 -192 -2 -377 q-1 -57 -26 -87 q-19 -22 -31 6 q-8 17 -6 67 q9 195 4 392 q0 11 -2 29 q-153 -191 -380 -302 q-15 -8 -19 0 q-5 7 10 17 q226 166 359 353 q-24 31 14 20 q27 40 48 76 l31 56 q-213 -9 -332 -13 q-20 0 -31 21 q-16 31 3 31 q303 11 464 21 q136 10 173 17 q26 4 41 -26 q21 -41 -12 -41 q-50 1 -245 -7 l6 -6 q11 -12 0 -29 q-51 -82 -90 -136 q10 -12 15 -29 ZM880 260 q48 -40 30 -79 q-15 -32 -59 7 q-122 114 -269 217 q-19 14 -16 20 q3 6 25 0 q135 -38 289 -165 Z" /><glyph glyph-name="" unicode="&#x4e0e;" d="M645 190 q-24 0 -533 -18 q-18 -1 -29 21 q-15 29 3 31 q222 8 387 17 q117 8 145 14 q26 4 40 -25 q19 -40 -13 -40 ZM361 653 l305 14 l58 4 q37 2 57 4 q23 3 34 -21 q15 -34 -14 -35 q-142 -8 -435 -17 l-11 0 q-19 -157 -23 -181 q178 10 394 18 q23 0 45 11 q5 3 10 3 q6 2 13 -2 q23 -13 35 -24 q14 -12 5 -26 q-7 -12 -12 -37 q-6 -36 -23 -162 q-15 -116 -27 -184 q-9 -52 -41 -68 q-41 -20 -47 6 q-3 8 -100 46 q-12 5 -11 11 q2 6 15 5 q112 -8 115 5 q23 129 50 360 q-262 -9 -465 -22 q-5 0 -8 1 q-16 0 -13 24 q26 179 35 311 q5 67 5 106 q0 13 4 16 q4 4 18 0 q22 -5 37 -15 q15 -8 11 -26 q-5 -30 -12 -91 l-4 -34 Z" /><glyph glyph-name="" unicode="&#x4e13;" d="M490 660 l115 6 q88 4 130 7 q24 3 35 -21 q17 -35 -14 -36 q-84 -4 -280 -10 q-5 -21 -16 -61 l-18 -67 q122 6 208 12 q162 11 208 19 q29 6 46 -26 q23 -44 -13 -44 q-102 0 -464 -17 l-29 -104 q55 3 265 10 q22 0 40 9 q4 2 7 2 q10 3 20 -5 q11 -11 27 -33 q9 -15 -5 -26 q-163 -149 -232 -198 q42 -23 98 -62 q52 -36 38 -73 q-11 -33 -58 4 q-140 110 -305 200 q-22 12 -19 18 q2 6 26 1 q87 -17 185 -68 q92 89 170 173 q-142 -3 -310 -12 q-11 0 -16 6 q-6 7 -1 25 q21 72 36 130 l-255 -10 q-23 0 -35 22 q-17 31 3 32 q169 6 302 12 q18 68 33 129 l-159 -6 q-29 -1 -40 19 q-11 18 -9 24 q1 6 20 7 l201 9 l7 33 q18 81 26 132 q2 15 7 17 q4 3 18 -3 q16 -6 36 -21 q13 -11 6 -31 l-35 -124 Z" /><glyph glyph-name="" unicode="&#x4e14;" d="M345 84 q284 7 304 8 q0 111 1 172 l-302 -9 l-3 -171 ZM653 520 l3 165 q-187 -5 -311 -13 l1 -59 q1 -32 1 -103 q149 4 219 7 l87 3 ZM348 306 l114 4 q68 2 105 4 q60 2 83 2 l1 76 q0 50 1 75 l-304 -9 l0 -152 ZM285 95 q3 390 -5 548 q-3 47 -8 73 q-3 15 0 18 q2 3 16 0 q14 -4 22 -8 l321 14 q19 1 37 10 l5 2 q8 4 20 -1 q26 -10 38 -20 q12 -11 6 -34 q-9 -26 -12 -73 q-4 -61 -14 -530 q149 7 183 12 q34 5 51 -28 q23 -46 -13 -45 q-164 8 -842 -11 q-24 -1 -36 21 q-10 20 -8 26 q0 6 12 7 l227 6 l0 13 Z" /><glyph glyph-name="" unicode="&#x4e16;" d="M639 278 l3 183 l-149 -6 q2 -97 0 -183 l146 6 ZM434 505 q-2 138 -5 186 q-1 35 -7 62 q-3 13 -1 16 q2 2 15 0 q21 -4 40 -18 q12 -8 13 -37 q1 -7 1 -22 l1 -25 q1 -24 1 -75 l1 -84 q32 1 79 4 q60 3 71 3 q3 107 3 185 q0 50 -4 90 q-2 14 1 17 q3 3 15 0 q25 -6 48 -17 q12 -7 10 -28 q-4 -36 -5 -72 q-3 -69 -6 -171 q129 7 188 16 q31 4 47 -26 q24 -45 -12 -43 q-94 1 -225 -3 q-2 -61 -4 -186 q5 -2 11 -19 q7 -20 4 -26 q-2 -6 -17 -7 q-33 0 -103 -3 l-103 -3 q-3 -17 -20 -28 q-27 -17 -30 -2 q-5 16 -5 42 l-1 221 l-135 -6 q2 -176 -3 -361 q81 3 205 6 l157 5 q118 4 166 9 q26 2 39 -26 q18 -38 -14 -37 q-128 3 -543 -10 q-26 -2 -51 -10 q-25 -7 -43 41 q-3 9 0 14 q1 2 5 6 q18 14 18 51 q4 137 -1 310 l-144 -6 q-23 0 -35 21 q-17 30 3 31 l175 7 l-5 97 q-3 39 -8 65 q-3 14 0 18 q3 4 16 3 q21 -1 43 -10 q13 -5 14 -25 q4 -92 5 -146 l135 6 Z" /><glyph glyph-name="" unicode="&#x4e1a;" d="M636 255 q-9 -7 -15 -2 q-5 5 2 16 q142 224 155 252 q9 18 17 48 q5 16 21 10 q26 -11 44 -26 q14 -11 4 -27 q-126 -192 -228 -271 ZM263 280 q-30 70 -129 222 q-11 16 -6 21 q4 4 21 -5 q97 -56 169 -186 q27 -51 -4 -76 q-29 -26 -51 24 ZM667 97 q161 9 212 18 q31 5 48 -27 q23 -44 -13 -44 q-84 2 -804 -26 q-23 -1 -35 21 q-17 32 2 32 q168 6 302 12 q-8 562 -7 534 q-4 71 -9 107 q-2 15 1 19 q3 3 16 0 q28 -8 46 -18 q12 -7 11 -31 q-2 -46 -2 -87 l0 -232 q0 -166 2 -289 l113 5 q0 103 2 319 q2 175 1 251 q0 58 -6 113 q-2 16 2 19 q3 4 16 1 q27 -8 49 -20 q12 -7 10 -32 q-5 -62 -5 -92 q-10 -485 -10 -556 l58 3 Z" /><glyph glyph-name="" unicode="&#x4e1c;" d="M324 249 q13 12 19 9 q5 -4 0 -18 q-37 -107 -161 -192 q-66 -46 -75 0 q-5 34 26 54 q106 70 191 147 ZM604 388 q128 5 169 10 q26 4 40 -26 q18 -39 -13 -39 q-68 2 -258 -1 l-1 -159 q0 -103 -1 -166 q-2 -49 -29 -71 q-36 -28 -47 1 q-4 10 -109 44 q-12 4 -11 11 q1 7 14 7 q117 -3 118 10 q5 177 5 321 l-211 -5 q-23 0 -50 -9 q-25 -7 -41 41 q-3 11 1 15 q2 5 6 6 q30 10 55 52 q45 73 101 176 l-192 -6 q-20 -1 -31 20 q-14 29 3 30 l130 4 q75 2 118 4 l38 75 q21 45 30 87 q5 20 23 15 q29 -10 40 -16 q16 -8 7 -29 q-43 -89 -65 -130 l192 9 q151 8 188 14 q27 5 42 -25 q21 -41 -12 -39 q-96 2 -437 -10 q-58 -106 -134 -231 l199 6 l0 100 q0 29 -6 54 q-2 11 2 13 q3 3 17 0 q27 -7 46 -19 q13 -6 9 -25 q-5 -37 -5 -52 q-1 -11 -1 -33 l-1 -36 l62 2 ZM864 124 q37 -38 14 -70 q-23 -33 -55 9 q-49 61 -170 168 q-13 12 -10 17 q3 6 20 1 q106 -26 201 -125 Z" /><glyph glyph-name="" unicode="&#x4e1d;" d="M485 471 q0 6 7 9 q37 18 60 59 q37 65 91 185 q12 32 20 71 q4 21 21 13 q26 -12 43 -31 q12 -12 3 -32 q-70 -145 -139 -255 q98 8 143 10 q4 5 15 22 l14 21 q27 44 42 83 q9 21 26 10 q22 -16 37 -38 q11 -16 -3 -36 q-126 -175 -246 -307 l214 21 q29 2 31 -7 q3 -10 -26 -20 q-58 -22 -140 -40 q-92 -20 -115 -27 q-16 -5 -42 -17 q-18 -8 -26 5 q-14 23 -22 53 q-4 10 3 17 l6 3 q46 16 84 62 q58 70 115 149 q-23 -6 -74 -16 q-42 -8 -63 -15 q-15 -5 -34 -16 q-15 -8 -24 6 q-14 23 -20 50 q-1 3 -1 8 ZM388 541 q25 42 41 84 q8 22 24 10 q24 -19 36 -36 q11 -15 -2 -34 q-116 -170 -235 -308 q113 21 190 33 q28 4 31 -5 q3 -9 -24 -22 q-53 -25 -128 -48 q-87 -27 -109 -36 q-29 -13 -40 -20 q-17 -9 -26 4 q-15 20 -25 50 q-3 7 -1 12 q0 8 9 11 q48 16 86 63 q55 68 120 163 q-28 -9 -80 -21 q-46 -11 -68 -19 q-15 -5 -34 -16 q-14 -8 -23 5 q-12 19 -20 47 q-1 10 3 14 q1 2 5 4 q35 17 58 56 q43 73 92 180 q15 35 22 70 q4 21 21 13 q23 -12 43 -32 q11 -13 1 -33 q-74 -146 -137 -242 q68 10 145 16 l25 37 ZM927 89 q23 -44 -13 -44 q-110 4 -810 -16 q-23 -1 -35 21 q-17 32 3 33 q440 12 595 20 q166 6 211 14 q32 5 49 -28 Z" /><glyph glyph-name="" unicode="&#x4e22;" d="M601 550 q47 2 129 8 q25 1 36 -22 q16 -34 -15 -35 l-230 -10 l-3 -131 l149 7 q171 10 213 17 q32 5 49 -27 q23 -45 -13 -44 q-114 3 -440 -10 q9 -10 15 -21 q10 -16 -6 -31 q-89 -101 -181 -181 q171 19 379 33 q-37 51 -89 119 q-13 17 -8 22 q4 4 22 -6 q115 -63 200 -198 q32 -50 4 -80 q-26 -26 -52 23 q-20 37 -53 85 q-90 -17 -237 -39 q-135 -20 -190 -32 q-32 -5 -59 -18 q-16 -7 -24 5 q-15 23 -22 53 q-3 13 5 17 q2 2 4 2 q42 12 73 42 q73 71 139 155 q22 30 32 48 l-152 -6 q-139 -6 -175 -7 q-23 -1 -35 21 q-17 32 2 33 q230 8 387 15 q2 94 2 132 l-208 -9 q-29 -1 -41 18 q-11 18 -9 24 q1 6 20 7 q66 4 239 13 q1 26 1 72 q0 26 -3 53 q-110 -19 -216 -20 q-23 0 -23 8 q0 9 22 13 q202 39 322 77 q84 28 131 55 q14 9 25 -2 q12 -14 24 -37 q9 -18 -14 -25 l-61 -19 q-44 -14 -81 -23 q-34 -7 -66 -15 q9 -7 8 -22 l-5 -111 l79 4 Z" /><glyph glyph-name="" unicode="&#x4e24;" d="M410 680 q15 -9 12 -27 l-10 -117 l163 5 q4 77 1 143 l-166 -4 ZM755 547 q28 0 47 9 q4 2 7 2 q5 4 14 0 q11 -4 30 -16 q14 -11 7 -28 q-7 -17 -8 -39 q-2 -51 -2 -208 q-1 -151 -4 -235 q-1 -46 -30 -64 q-35 -23 -44 1 q-2 4 -108 38 q-12 4 -11 10 q1 7 14 6 q115 -3 115 10 q10 229 8 458 l-159 -4 q-8 -89 -25 -156 q77 -30 136 -114 q25 -34 2 -59 q-25 -25 -47 13 q-22 40 -99 133 q-39 -130 -152 -229 q-13 -12 -20 -8 q-6 5 4 19 q118 164 140 400 l-163 -5 q-10 -81 -24 -130 q64 -15 109 -69 q24 -30 3 -52 q-23 -26 -44 8 q-24 35 -75 88 q-38 -124 -139 -216 q-13 -12 -19 -8 q-6 4 3 18 q101 151 126 359 l-148 -6 q1 -8 1 -27 q2 -170 -1 -390 q-2 -54 -18 -80 q-21 -35 -35 -1 q-12 28 -9 67 q8 252 2 420 q-2 34 -9 61 q-7 22 14 16 q20 -6 32 -12 l176 7 l1 11 q5 61 3 131 l0 3 q-59 -2 -177 -4 q-20 -1 -32 21 q-15 31 4 31 q288 6 477 14 q136 6 176 13 q27 5 42 -26 q20 -41 -13 -41 q-51 1 -198 -1 q10 -8 9 -26 q-1 -6 -8 -117 l119 4 Z" /><glyph glyph-name="" unicode="&#x4e25;" d="M556 707 q-41 -2 -123 -4 q12 -4 18 -7 q11 -4 10 -21 l-1 -44 q0 -120 1 -198 l98 4 l1 114 q1 63 0 93 q0 29 -3 57 l-1 6 ZM677 443 q126 8 168 15 q26 4 41 -26 q20 -40 -13 -40 q23 0 -617 -20 q-1 -11 -2 -42 q-1 -31 -3 -51 q-10 -136 -52 -212 q-44 -79 -147 -139 q-15 -9 -20 -4 q-6 6 6 17 q133 136 147 341 q5 66 1 141 q-1 23 18 18 q17 -3 42 -15 l2 -1 l154 6 q-2 188 -3 207 q-1 28 -6 57 l-1 6 l-162 -3 q-29 0 -40 18 q-11 18 -9 24 q2 5 21 6 q300 10 447 19 q106 6 158 10 q24 3 35 -20 q10 -19 6 -26 q-3 -7 -20 -9 l-231 -12 l18 -6 q10 -5 9 -22 q-2 -24 -2 -44 q-2 -56 -4 -196 l59 3 ZM295 500 q-24 40 -86 107 q-17 20 9 17 q72 -11 124 -76 q25 -32 2 -57 q-27 -30 -49 9 ZM756 659 q6 16 20 7 q25 -13 41 -28 q13 -14 1 -27 q-97 -99 -159 -128 q-9 -5 -13 1 q-5 5 2 14 q83 109 96 135 q7 11 12 26 Z" /><glyph glyph-name="" unicode="&#x4e2a;" d="M510 539 q13 -7 12 -29 q-2 -40 -2 -70 q-3 -319 -4 -373 q-2 -80 -24 -132 q-15 -34 -25 1 q-12 49 -12 126 q2 205 0 381 q0 55 -3 91 q-2 15 1 18 q3 2 19 -1 q22 -5 38 -12 ZM950 413 q15 -8 16 -12 q1 -4 -13 -10 q-13 -5 -31 -18 q-18 -13 -28 -17 q-20 -11 -40 3 q-219 141 -356 340 q-43 -58 -83 -103 q-167 -189 -343 -282 q-23 -12 -27 -4 q-4 7 14 22 q185 151 303 299 q78 96 130 188 q10 18 27 9 q24 -13 34 -24 q15 -15 1 -31 l-36 -48 q147 -158 290 -243 q25 -15 68 -34 q56 -26 74 -35 Z" /><glyph glyph-name="" unicode="&#x4e2d;" d="M640 359 q37 2 107 4 q10 196 12 217 q-85 -2 -234 -8 q0 -140 -1 -217 l116 4 ZM240 545 q7 -129 9 -199 q139 4 209 7 q0 149 -1 217 q-142 -6 -218 -10 l1 -15 ZM728 633 q26 0 43 9 l9 3 q7 1 15 -2 q20 -7 34 -17 q12 -10 5 -27 q-7 -17 -9 -40 q-2 -16 -16 -206 l4 -10 q8 -22 5 -27 q-3 -6 -23 -6 q-82 -1 -271 -7 l-3 -179 q-2 -107 -25 -185 q-17 -51 -26 1 q-15 74 -13 178 l1 182 l-207 -6 l0 -15 q0 -18 -21 -28 q-27 -14 -32 -3 q-5 11 -6 32 l-17 280 q-3 30 -9 45 q-4 12 -2 15 q2 2 15 1 q20 -3 36 -9 q71 4 242 10 l-1 65 q-1 77 -6 129 q-2 18 1 21 q3 2 22 -2 q23 -4 42 -15 q15 -8 13 -35 q-2 -58 -2 -100 l0 -60 l202 8 Z" /><glyph glyph-name="" unicode="&#x4e30;" d="M668 300 q165 8 211 16 q22 3 30 -1 q10 -5 21 -25 q23 -43 -11 -43 q-128 5 -397 -7 l-2 -121 q-2 -108 -26 -184 q-15 -50 -24 1 q-14 70 -12 177 l1 124 q-194 -9 -362 -19 q-23 -1 -35 20 q-10 18 -9 25 q0 5 11 6 l395 20 l1 128 l-181 -6 q-27 -1 -38 18 q-11 18 -9 24 q2 5 19 6 l209 10 l0 121 l-116 -4 q-75 -2 -114 -4 q-30 -1 -42 19 q-11 18 -9 24 q2 5 21 6 l260 13 l0 50 q0 65 -4 129 q-2 18 1 20 q2 3 20 -1 q24 -6 42 -15 q14 -8 13 -35 q-4 -58 -4 -99 l-1 -46 l239 14 q24 3 36 -21 q9 -20 6 -28 q-4 -7 -21 -8 q-179 -8 -260 -11 l-1 -121 l71 4 q79 4 120 7 q24 1 34 -21 q14 -33 -14 -34 q-142 -6 -212 -8 l-2 -128 l145 8 Z" /><glyph glyph-name="" unicode="&#x4e34;" d="M166 629 q15 -7 16 -25 q1 -15 1 -42 q-2 -140 -9 -320 q-1 -45 -18 -68 q-19 -25 -32 0 q-15 28 -12 60 q12 188 10 341 q0 28 -6 52 q-4 19 13 15 q22 -5 37 -13 ZM335 767 q15 -12 14 -37 q-1 -12 -1 -32 l-12 -615 q0 -67 -18 -103 q-19 -40 -34 -1 q-16 45 -13 94 q16 362 13 608 q0 46 -8 88 q-5 25 16 18 q25 -6 43 -20 ZM804 84 q1 76 10 223 l-133 -3 l0 -40 q-4 -92 -4 -185 l127 5 ZM624 273 q0 19 -1 29 q-47 -1 -128 -5 q1 -7 1 -21 q4 -114 4 -202 l123 3 l1 107 q1 60 0 89 ZM469 348 q62 3 167 6 q113 4 154 6 q21 0 35 9 q5 3 9 3 q8 0 13 -2 q15 -6 32 -16 q14 -9 6 -24 q-5 -9 -7 -28 q-8 -139 -10 -253 q-1 -43 -35 -56 q-22 -8 -26 5 q-2 9 -4 33 l-148 -4 q-96 -3 -155 -4 l0 -15 q-2 -18 -21 -28 q-28 -12 -32 -2 q-4 13 -5 32 q-6 252 -9 284 q-2 26 -7 45 q-4 12 -2 15 q2 2 15 0 q16 -1 28 -6 l2 0 ZM728 391 q-25 -29 -49 10 q-19 29 -106 123 q-21 23 10 16 q84 -17 142 -91 q26 -33 3 -58 ZM536 573 q-59 -90 -149 -164 q-10 -8 -15 -4 q-6 5 2 17 q142 203 182 318 q10 33 15 62 q4 18 20 12 q24 -9 41 -23 q13 -9 5 -26 q-39 -89 -68 -139 l186 10 q72 6 96 14 q28 9 44 -23 q22 -43 -8 -43 q13 0 -350 -11 l-1 0 Z" /><glyph glyph-name="" unicode="&#x4e38;" d="M943 73 q23 -26 7 -47 q-20 -26 -73 -31 q-91 -7 -182 -1 q-57 5 -80 36 q-23 31 -19 102 q9 187 41 424 l-176 -16 q-14 -129 -47 -223 q36 -21 65 -42 q45 -31 30 -69 q-13 -31 -56 3 q-30 24 -63 48 q-83 -171 -299 -280 q-23 -11 -29 -5 q-5 6 16 20 q188 137 257 304 q-57 39 -123 78 q-18 11 -15 17 q2 6 22 2 q69 -13 136 -44 q25 81 37 185 q-175 -16 -214 -19 q-20 -2 -33 26 q-11 23 -10 28 q2 6 19 6 q115 6 244 17 q6 77 4 197 q-1 16 3 20 q4 4 17 0 q23 -6 43 -17 q15 -7 12 -32 l-11 -163 q48 4 150 14 q23 3 35 11 q4 3 8 4 q7 1 16 -3 q17 -7 32 -20 q14 -10 6 -28 q-12 -27 -19 -68 q-25 -164 -35 -373 q-2 -43 9 -59 q10 -15 41 -17 q94 -4 151 3 q26 3 30 31 q2 10 6 39 q3 26 6 41 q3 17 11 16 q7 -1 8 -19 q5 -77 22 -96 Z" /><glyph glyph-name="" unicode="&#x4e3a;" d="M333 615 q-30 47 -90 107 q-20 21 9 18 q72 -7 129 -73 q27 -33 4 -59 q-27 -32 -52 7 ZM669 218 q-23 -32 -51 6 q-28 34 -114 115 q-10 9 -8 14 q2 5 15 3 q78 -9 148 -79 q30 -30 10 -59 ZM846 559 q15 -12 6 -28 q-10 -17 -14 -43 l-26 -208 q-18 -149 -31 -235 q-8 -54 -42 -73 q-39 -21 -48 6 q-3 10 -101 49 q-12 5 -11 12 q2 6 16 5 q113 -11 116 5 q30 192 59 469 l-246 -16 q-43 -187 -136 -308 q-96 -126 -272 -216 q-26 -14 -31 -7 q-5 6 18 23 q274 201 349 504 l-249 -16 q-22 -2 -37 27 q-12 23 -10 29 q2 6 21 6 q156 5 288 12 l11 66 q14 97 14 197 q0 17 4 21 q4 4 17 0 q31 -10 45 -19 q15 -8 11 -33 l-10 -80 q-6 -56 -11 -89 q-6 -40 -10 -59 q105 6 214 14 q26 1 38 8 l7 3 q8 3 16 -2 q22 -11 35 -24 Z" /><glyph glyph-name="" unicode="&#x4e3b;" d="M494 661 q-26 53 -90 138 q-19 26 11 17 q81 -23 133 -105 q24 -39 -1 -64 q-32 -30 -53 14 ZM664 79 q153 6 209 14 q33 5 49 -28 q23 -46 -13 -43 q-141 6 -805 -18 q-23 -1 -35 21 q-17 32 3 33 l389 13 q0 162 1 230 l-189 -6 q-28 -1 -39 19 q-11 18 -9 24 q1 6 20 7 l217 9 q0 72 -1 102 q0 38 -5 85 l0 1 q-122 -4 -227 -5 q-20 0 -29 21 q-15 31 3 31 q247 4 402 14 q110 6 154 14 q24 4 38 -26 q18 -41 -14 -39 q-38 0 -266 -8 l4 -2 q13 -6 10 -27 q-3 -28 -3 -68 l-2 -90 l79 4 q81 4 124 7 q23 3 34 -21 q9 -20 6 -27 q-3 -7 -20 -8 l-224 -9 q-2 -136 -2 -230 l141 6 Z" /><glyph glyph-name="" unicode="&#x4e43;" d="M424 654 q15 -9 11 -31 l-18 -122 q-32 -192 -104 -305 q-77 -121 -235 -207 q-21 -12 -26 -5 q-5 6 13 21 q233 189 284 501 q11 68 11 146 l-161 -12 q-20 -1 -34 27 q-11 23 -10 29 q2 6 20 6 q215 8 470 30 q21 1 37 11 l6 3 q6 5 20 0 q22 -10 38 -23 q15 -12 7 -29 q-71 -154 -123 -242 q29 2 145 7 q16 1 29 8 q12 12 25 4 q25 -16 35 -26 q13 -12 4 -27 q-9 -13 -14 -37 q-9 -41 -31 -161 q-22 -117 -36 -181 q-12 -53 -47 -70 q-40 -20 -48 8 q-3 11 -133 55 q-12 4 -11 11 q2 6 16 5 q150 -17 153 -3 q35 153 68 360 q-89 -2 -203 -11 q-17 -2 -17 13 q-1 5 2 15 q80 205 97 253 l-245 -18 l5 -3 Z" /><glyph glyph-name="" unicode="&#x4e45;" d="M939 22 q15 -8 16 -12 q1 -5 -14 -10 q-14 -4 -31 -16 q-20 -13 -29 -17 q-21 -8 -40 5 q-218 133 -337 343 q-147 -222 -430 -341 q-27 -11 -30 -4 q-4 8 20 22 q192 117 304 247 q118 136 195 339 q-144 -6 -213 -11 q-75 -122 -200 -226 q-11 -9 -17 -3 q-6 5 3 17 q170 227 223 373 q8 21 19 71 q3 20 20 13 q24 -9 43 -23 q12 -11 5 -28 q-29 -73 -63 -136 q136 7 170 8 q17 0 32 9 q10 10 25 3 q20 -10 36 -24 q14 -14 3 -31 q-22 -34 -42 -80 q-39 -90 -82 -162 q115 -159 266 -253 q26 -16 72 -37 q57 -26 76 -36 Z" /><glyph glyph-name="" unicode="&#x4e48;" d="M540 734 q-189 -261 -404 -386 q-12 -7 -17 0 q-5 6 6 17 q214 202 319 361 q23 38 33 60 q8 18 23 8 q25 -15 40 -31 q11 -12 0 -29 ZM842 84 q31 -56 -2 -86 q-29 -24 -53 30 q-19 41 -52 99 q-87 -20 -248 -52 q-138 -27 -201 -44 q-38 -11 -61 -23 q-17 -9 -25 4 q-17 23 -26 54 q-3 7 -1 12 q1 7 11 10 q60 16 115 77 q166 181 301 372 q34 46 68 115 q13 24 31 9 q20 -17 34 -39 q12 -18 -6 -42 q-194 -259 -402 -471 q151 25 388 54 q-27 44 -87 134 q-13 19 -7 23 q5 4 24 -7 q119 -78 199 -229 Z" /><glyph glyph-name="" unicode="&#x4e49;" d="M449 602 q-24 56 -92 153 q-9 13 -5 17 q5 4 19 -1 q87 -31 135 -121 q23 -41 -5 -67 q-34 -29 -52 19 ZM922 24 q24 -13 24 -19 q-1 -5 -27 -9 q-13 -2 -30 -10 q-21 -10 -28 -12 q-22 -7 -52 8 q-200 103 -327 227 q-141 -153 -379 -225 q-31 -10 -35 -2 q-4 8 24 22 q224 111 345 251 q-101 112 -182 261 q-22 41 -44 60 q-15 12 -14 31 q1 32 25 19 q34 -20 73 -83 q85 -139 182 -237 q46 62 84 140 q84 175 114 296 q6 21 28 12 q20 -7 40 -23 q13 -12 4 -33 q-109 -251 -124 -281 q-47 -91 -98 -156 q89 -79 211 -147 q42 -23 99 -49 q67 -31 87 -41 Z" /><glyph glyph-name="" unicode="&#x4e4b;" d="M471 662 q-24 49 -92 133 q-18 24 12 18 q83 -19 137 -99 q26 -40 -2 -66 q-32 -30 -55 14 ZM735 616 q16 11 30 -5 q12 -13 26 -39 q9 -19 -9 -30 q-357 -262 -509 -351 l26 -13 q154 -83 388 -110 q41 -5 120 -6 q82 -3 128 -7 q25 -2 26 -9 q1 -8 -23 -16 q-18 -6 -36 -21 q-26 -21 -33 -26 q-19 -13 -51 -8 q-359 43 -542 160 q-48 31 -84 28 q-35 -3 -108 -43 q-25 -15 -43 13 q-17 26 14 40 q112 47 168 35 q206 138 439 335 q-55 -5 -248 -25 q-151 -16 -227 -23 q-21 -2 -35 26 q-12 23 -10 29 q1 6 19 7 q254 16 532 46 q23 2 38 11 l4 2 Z" /><glyph glyph-name="" unicode="&#x4e4c;" d="M705 136 q-26 1 -576 -16 q-19 -1 -30 21 q-14 30 4 31 q286 8 418 16 q111 6 157 14 q25 4 40 -26 q18 -42 -13 -40 ZM333 473 q-2 -77 -4 -124 q219 12 442 18 q26 1 46 12 q6 3 12 3 q5 0 11 -3 q23 -11 35 -22 q14 -12 5 -25 q-7 -13 -10 -34 q-5 -36 -17 -139 q-12 -101 -21 -157 q-7 -49 -39 -64 q-40 -20 -48 6 q-3 8 -102 44 q-12 5 -11 11 q1 6 15 5 q113 -9 116 4 q19 119 37 303 q-251 -7 -510 -20 q-16 -2 -18 10 q-1 3 -1 14 q6 167 5 272 q-2 66 -5 95 q-1 19 19 16 q21 -3 35 -10 q38 2 58 2 q32 66 46 110 q6 22 7 34 q4 16 18 13 q30 -5 50 -16 q16 -9 5 -26 q-55 -87 -84 -113 l179 7 q18 0 36 9 q10 6 18 1 l2 -1 q17 -6 34 -17 q13 -8 6 -22 q-5 -9 -7 -24 q-3 -21 -8 -80 q-5 -58 -9 -90 q-4 -41 -32 -55 q-40 -19 -48 5 q-2 8 -87 35 q-12 4 -11 10 q1 6 14 5 q96 -6 97 5 q9 64 16 165 q-196 -6 -287 -11 l-5 -161 Z" /><glyph glyph-name="" unicode="&#x4e4e;" d="M726 656 q7 16 21 7 q23 -14 40 -31 q12 -13 0 -27 q-123 -132 -205 -171 q-9 -5 -13 1 q-4 5 3 14 q112 132 138 174 l16 33 ZM333 448 q-28 45 -108 132 q-21 24 10 17 q83 -20 143 -99 q28 -35 5 -60 q-26 -29 -50 10 ZM925 387 q24 -46 -12 -44 q-113 2 -388 -9 q0 -213 -3 -318 q0 -50 -29 -75 q-37 -29 -47 1 q-5 12 -109 46 q-12 4 -11 11 q1 7 14 7 q117 -2 117 11 q4 153 6 314 l-360 -17 q-23 -1 -35 21 q-17 32 3 33 l392 18 q2 130 0 245 q0 18 -4 56 q-110 -25 -215 -29 q-22 -1 -22 8 q-1 8 21 13 q197 47 305 88 q70 26 127 61 q14 9 25 -2 q15 -17 25 -38 q9 -18 -14 -25 l-59 -21 q-43 -16 -78 -26 l-69 -19 l15 -9 q13 -8 10 -28 q-3 -54 -3 -63 q-1 -32 -1 -98 l-1 -110 q30 1 74 4 q56 3 66 3 q159 9 210 18 q33 5 50 -27 Z" /><glyph glyph-name="" unicode="&#x4e4f;" d="M190 625 q-23 -2 -24 7 q-1 8 22 14 q221 55 334 99 q76 29 135 67 q15 9 26 -2 q14 -14 25 -36 q9 -18 -13 -25 q-16 -5 -64 -25 q-46 -19 -82 -30 q-192 -58 -359 -69 ZM385 630 q71 -12 117 -77 q23 -33 -1 -57 q-13 -13 -26 -10 q-14 3 -23 20 q-19 38 -77 108 q-18 21 10 16 ZM315 139 q145 -69 374 -87 q38 -2 117 -2 q79 0 126 -3 q25 -1 26 -9 q1 -7 -22 -15 q-18 -6 -37 -22 q-26 -22 -32 -26 q-20 -13 -49 -10 q-349 30 -525 130 q-47 27 -81 23 q-36 -4 -109 -46 q-24 -15 -43 12 q-17 26 13 40 q114 51 176 39 q203 130 394 279 l-242 -25 q-146 -15 -222 -22 q-19 -1 -32 24 q-11 22 -10 27 q1 6 18 6 q268 17 521 46 q22 2 34 9 q7 4 14 4 q11 0 18 -9 q17 -20 25 -38 q8 -18 -9 -28 q-308 -207 -460 -289 l17 -8 Z" /><glyph glyph-name="" unicode="&#x4e50;" d="M309 286 q13 13 19 10 q6 -3 2 -18 q-25 -103 -142 -201 q-61 -50 -75 -6 q-10 34 20 57 q102 79 176 158 ZM628 433 q119 4 162 9 q27 3 40 -26 q18 -38 -14 -37 q-74 1 -281 -4 l-3 -354 q0 -49 -29 -74 q-37 -28 -48 1 q-4 11 -110 46 q-12 4 -11 11 q1 7 14 7 q117 -3 119 10 q4 171 6 351 q20 0 -210 -6 q-27 -2 -52 -10 q-25 -7 -42 41 q-4 13 3 17 q0 2 2 2 q22 12 30 42 q24 83 43 184 q6 37 5 60 q0 19 18 16 q29 -5 46 -13 q8 -3 10 -11 q184 45 272 84 q41 18 62 32 q16 10 28 2 q24 -19 37 -34 q14 -18 -9 -27 q-215 -75 -394 -86 q-32 -145 -62 -246 l213 8 q0 94 -1 138 q0 32 -6 60 q-4 19 19 13 q28 -7 48 -20 q12 -7 9 -27 q-5 -28 -5 -58 q-2 -64 -2 -104 l93 3 ZM858 146 q37 -38 16 -72 q-23 -33 -57 9 q-63 81 -179 175 q-15 13 -11 18 q3 5 21 1 q108 -24 210 -131 Z" /><glyph glyph-name="" unicode="&#x4e56;" d="M322 434 q0 23 -6 44 q-4 18 13 14 q23 -3 41 -12 q15 -7 13 -22 q0 -21 -1 -34 q-1 -20 -3 -254 q0 -35 -16 -56 q-17 -24 -31 -1 q-16 25 -14 54 l3 76 q-33 -24 -89 -51 q-62 -30 -84 -44 q-15 -10 -26 1 q-15 14 -27 37 q-10 19 7 20 q12 0 30 5 q50 14 190 68 l1 77 q-24 -1 -77 -5 l-79 -6 q-14 -2 -18 1 q-4 3 -11 19 q-10 23 -9 28 q2 5 20 5 q21 0 153 6 q7 1 21 1 l-1 29 ZM524 602 q72 3 125 6 q150 8 198 15 q28 4 44 -25 q22 -42 -12 -40 q-83 2 -357 -7 q-6 -270 -3 -521 q1 -58 -16 -94 q-18 -39 -33 -1 q-17 42 -15 92 q7 319 7 521 l-328 -11 q-21 -1 -32 20 q-15 29 3 30 q209 6 356 12 l0 29 q0 41 -6 75 q-96 -18 -182 -19 q-20 0 -21 8 q0 8 20 12 q176 38 270 71 q68 25 113 51 q13 9 24 -2 q12 -12 23 -34 q9 -18 -12 -23 l-53 -18 q-39 -13 -71 -21 l-28 -7 q-19 -4 -29 -7 l5 -3 q13 -10 12 -34 q-2 -44 -2 -65 l0 -10 ZM895 207 q25 -21 6 -40 q-19 -19 -63 -23 q-66 -7 -141 -1 q-86 7 -89 97 q-1 40 1 106 l1 94 l-3 62 q-1 18 15 14 q21 -3 42 -13 q12 -6 10 -21 q-3 -13 -5 -45 q-2 -48 -2 -80 q74 40 111 73 q18 15 31 31 q10 13 21 6 q18 -11 32 -30 q11 -13 -5 -24 q-113 -68 -190 -85 q0 -59 1 -87 q1 -38 37 -41 q66 -5 120 1 q25 3 27 20 q9 67 10 71 q3 14 9 14 q6 0 7 -16 q5 -72 17 -83 Z" /><glyph glyph-name="" unicode="&#x4e58;" d="M607 351 q-1 29 0 74 l1 67 q-2 45 -3 49 q-1 16 14 13 q23 -4 39 -11 q13 -5 9 -19 q-2 -11 -4 -35 q-1 -21 -1 -75 q64 41 96 73 q15 17 23 29 q9 13 19 7 q20 -12 31 -24 q11 -12 -4 -22 q-95 -69 -165 -89 q0 -24 1 -36 q0 -28 30 -31 q53 -4 114 1 q22 1 23 17 q1 4 4 28 q2 19 5 30 q3 13 9 12 q6 0 7 -15 q5 -60 14 -67 q23 -19 6 -36 q-16 -18 -57 -22 q-64 -6 -132 0 q-78 6 -79 82 ZM326 337 q-28 -20 -79 -45 q-54 -27 -76 -42 q-14 -9 -23 0 q-16 16 -25 33 q-10 17 6 18 q11 1 28 6 q34 11 170 66 l0 51 l-139 -9 q-19 -2 -29 19 q-9 21 -8 26 q2 5 19 5 q59 1 141 5 l16 0 l-1 24 q0 16 -5 34 q-6 16 11 13 q20 -3 39 -11 q13 -5 13 -18 q-1 -9 -1 -26 q-1 -48 -1 -181 q0 -28 -14 -43 q-16 -18 -30 -1 q-15 18 -13 41 l1 35 ZM519 720 q14 -9 11 -33 q-1 -11 -1 -31 l-1 -34 l115 5 q151 8 188 14 q26 4 40 -24 q20 -40 -11 -38 q-95 2 -333 -6 q-2 -142 -2 -244 q132 -129 276 -186 q28 -10 74 -22 l77 -21 q28 -9 5 -21 q-13 -7 -28 -21 q-17 -16 -26 -21 q-16 -10 -38 -2 q-214 85 -341 243 q0 -165 -1 -249 q-1 -60 -18 -92 q-10 -21 -21 -21 q-11 0 -17 20 q-11 37 -9 91 q4 151 5 228 q-186 -180 -392 -233 q-20 -5 -23 2 q-3 7 18 17 q244 119 398 306 q2 160 2 224 l-305 -10 q-20 0 -31 20 q-13 28 3 29 q220 5 332 10 l0 13 q0 30 -4 80 q-90 -15 -182 -15 q-20 1 -21 9 q0 7 20 11 q184 37 265 63 q71 22 111 45 q14 8 24 -2 q11 -13 23 -34 q9 -19 -13 -24 q-12 -3 -52 -15 q-40 -11 -70 -18 l-51 -11 l4 -2 Z" /><glyph glyph-name="" unicode="&#x4e5d;" d="M430 557 l155 18 q23 2 35 12 q8 5 14 5 q8 3 16 -1 q21 -11 32 -20 q13 -11 5 -27 q-11 -24 -19 -62 q-25 -126 -39 -338 q-2 -40 9 -55 q12 -14 45 -16 q95 -5 173 3 q29 3 33 29 q6 44 12 74 q4 16 11 16 q7 -1 8 -19 q5 -71 21 -90 q24 -25 7 -45 q-22 -25 -76 -29 q-101 -7 -204 -1 q-59 5 -82 35 q-23 30 -19 98 q10 167 44 377 q-102 -10 -187 -21 q-24 -194 -98 -313 q-76 -122 -233 -211 q-22 -12 -27 -6 q-6 5 12 20 q237 193 279 502 q-176 -20 -200 -22 q-20 -1 -33 26 q-11 23 -9 28 q1 6 17 6 q84 6 231 21 l2 17 q9 100 5 224 q0 17 4 20 q3 4 16 0 q27 -7 42 -16 q15 -9 12 -33 q-3 -26 -6 -88 q-4 -71 -7 -109 l-1 -9 Z" /><glyph glyph-name="" unicode="&#x4e5e;" d="M320 608 q-81 -104 -192 -177 q-11 -8 -16 -2 q-6 5 4 16 q171 198 230 321 q13 30 23 59 q4 18 20 10 q25 -11 41 -26 q12 -11 3 -28 q-37 -66 -74 -120 l269 12 q100 6 130 16 q29 9 48 -23 q26 -46 -6 -46 l-480 -12 ZM871 55 q25 -27 0 -46 q-28 -21 -104 -26 q-251 -13 -450 3 q-89 8 -106 57 q-16 47 39 106 q129 139 356 277 l-341 -18 q-18 -1 -30 26 q-10 21 -9 27 q2 5 18 5 q181 4 420 17 q22 1 32 9 q6 3 12 3 q7 1 15 -5 q18 -14 28 -33 q15 -21 -7 -29 q-26 -8 -63 -30 q-232 -121 -375 -268 q-37 -38 -29 -62 q7 -24 57 -28 q177 -14 420 1 q57 4 61 34 q13 83 14 86 q5 16 10 15 q6 -1 7 -18 q9 -88 25 -103 Z" /><glyph glyph-name="" unicode="&#x4e5f;" d="M300 423 q-4 -148 0 -253 q4 -103 125 -114 q196 -16 372 5 q72 9 77 43 q15 110 18 127 q4 18 11 17 q7 -1 8 -20 q4 -125 26 -147 q28 -29 -1 -51 q-31 -27 -122 -35 q-181 -18 -394 -2 q-92 7 -136 49 q-43 42 -47 126 q-3 71 1 233 l-114 -38 q-22 -7 -38 18 q-14 23 -14 28 q1 6 19 10 l148 46 l-1 45 q-2 75 -5 110 q-2 24 19 18 q24 -7 47 -21 q14 -9 10 -29 q-6 -44 -6 -79 l-1 -23 l159 53 q2 126 2 176 q0 59 -3 95 q-1 15 2 18 q3 2 19 -1 q21 -4 36 -12 q14 -7 13 -30 q-2 -42 -2 -74 q-1 -72 -3 -150 l154 53 q25 9 38 24 q6 7 14 9 q6 3 15 -1 q18 -10 33 -21 q13 -11 5 -24 q-7 -10 -10 -30 q-6 -36 -19 -129 q-13 -97 -21 -145 q-8 -45 -38 -58 q-39 -17 -45 7 q-2 8 -74 38 q-11 5 -10 10 q1 6 14 5 q84 -7 87 4 q21 115 38 262 l-182 -64 l-5 -184 q-3 -83 -26 -137 q-16 -38 -25 1 q-12 50 -10 132 l3 166 l-161 -56 Z" /><glyph glyph-name="" unicode="&#x4e60;" d="M628 416 q20 11 26 3 q5 -7 -11 -21 q-122 -109 -436 -289 q-22 -12 -35 -1 q-18 14 -35 38 q-11 19 8 24 q28 8 49 18 q170 74 434 228 ZM441 427 q-54 61 -165 153 q-29 26 9 19 q101 -22 194 -111 q37 -36 16 -68 q-21 -32 -54 7 ZM779 751 q15 -12 7 -32 q-11 -24 -12 -55 q-6 -78 -15 -288 q-9 -218 -17 -329 q-5 -58 -37 -80 q-36 -25 -48 2 q-6 12 -123 55 q-13 5 -11 11 q1 7 16 6 q86 -6 113 -3 q18 1 19 11 q23 321 33 657 l-473 -22 q-20 -1 -34 28 q-11 23 -9 29 q2 6 19 5 q287 5 478 18 q23 1 35 8 q5 3 9 3 q8 2 14 -2 q20 -9 36 -22 Z" /><glyph glyph-name="" unicode="&#x4e61;" d="M806 449 q13 -14 -2 -32 l-65 -90 q-43 -60 -87 -108 q-195 -214 -484 -286 q-29 -7 -31 1 q-3 9 23 20 q283 122 439 307 q15 17 27 33 q-59 -11 -169 -28 q-95 -15 -139 -25 q-23 -5 -50 -17 q-16 -7 -23 5 q-11 17 -21 49 q-1 11 3 15 q3 5 9 6 q50 13 103 61 q79 72 134 127 q-30 -6 -96 -15 q-54 -7 -81 -14 q-20 -5 -40 -15 q-17 -8 -24 5 q-14 27 -20 52 q-2 9 1 13 q2 5 8 6 q33 16 64 53 q70 82 134 179 q21 35 34 69 q8 19 24 10 q22 -16 38 -37 q11 -16 -3 -33 q-96 -132 -192 -235 q107 8 201 12 q40 42 73 79 q33 38 62 84 q12 21 27 7 q18 -17 31 -39 q10 -18 -8 -36 q-170 -181 -345 -321 q133 15 298 26 q44 61 82 134 q11 19 29 8 q22 -12 36 -30 Z" /><glyph glyph-name="" unicode="&#x4e66;" d="M673 756 q-25 22 7 18 q84 -8 155 -78 q31 -30 12 -59 q-21 -33 -51 4 q-36 44 -123 115 ZM464 388 l167 11 q8 118 13 177 q-93 -5 -179 -12 l-1 -176 ZM743 407 q25 2 39 10 q3 2 9 4 q7 3 16 -2 q21 -9 34 -21 q12 -9 4 -23 q-7 -13 -10 -28 l-16 -113 q-12 -79 -20 -125 q-8 -45 -38 -57 q-38 -17 -46 7 q-2 7 -83 39 q-12 5 -11 10 q2 6 15 5 q95 -9 96 3 q16 80 36 240 q-8 0 -304 -21 l-1 -286 q0 -64 -17 -102 q-10 -22 -21 -23 q-11 0 -17 22 q-10 35 -8 97 q4 187 5 288 q-118 -9 -257 -18 q-21 -1 -35 26 q-12 22 -10 27 q1 6 20 5 q126 4 283 14 l0 175 q-23 -2 -160 -10 q-16 -1 -27 24 q-9 20 -8 25 q2 5 16 4 q60 2 179 8 q0 80 -1 116 q0 53 -6 95 q-3 16 0 20 q3 3 15 -1 q25 -7 42 -19 q13 -10 12 -35 q-1 -25 -1 -75 q-1 -29 -1 -98 l161 11 q18 1 29 8 q8 5 14 2 q3 0 9 -2 q16 -5 29 -15 q12 -9 5 -26 q-6 -14 -9 -35 l-16 -154 l55 4 Z" /><glyph glyph-name="" unicode="&#x4e70;" d="M210 667 q-21 0 -33 26 q-11 22 -10 27 q2 6 19 5 q298 8 552 24 q25 2 37 11 q12 7 20 1 q6 -2 9 -4 q26 -16 43 -34 q19 -21 0 -33 q-22 -13 -32 -23 q-29 -29 -84 -95 q-46 -38 -26 18 q11 32 46 107 q-105 -5 -283 -15 l-258 -15 ZM434 493 q-23 -30 -48 5 q-29 37 -104 103 q-10 9 -7 14 q2 5 15 3 q78 -9 135 -70 q28 -28 9 -55 ZM184 475 q84 0 161 -58 q35 -25 19 -56 q-17 -33 -51 -2 q-42 38 -134 97 q-12 8 -10 14 q1 5 15 5 ZM812 29 q42 -40 23 -74 q-19 -34 -57 7 q-83 92 -220 186 q-18 12 -14 17 q3 6 23 2 q129 -28 245 -138 ZM653 321 q158 10 198 17 q29 5 45 -25 q23 -43 -12 -41 q-110 1 -365 -10 q-88 -223 -402 -318 q-27 -8 -31 -1 q-3 8 23 20 q258 120 339 296 l-312 -14 q-22 -1 -33 20 q-15 30 2 31 q127 5 364 16 q18 56 27 120 q12 88 10 193 q0 24 20 19 q21 -6 40 -17 q14 -9 10 -29 q-3 -22 -7 -79 q-5 -57 -9 -91 q-7 -58 -23 -113 l116 6 Z" /><glyph glyph-name="" unicode="&#x4e71;" d="M423 75 q2 87 6 164 q-181 -7 -213 -9 l3 -162 l204 7 ZM395 490 q98 6 131 12 q23 5 36 -23 q16 -37 -12 -37 q-54 1 -199 -6 l-3 -148 l60 3 q19 1 32 9 q6 3 10 3 q8 0 13 -2 q18 -5 31 -14 q11 -10 5 -26 q-3 -9 -7 -35 q-3 -27 -9 -156 q3 -5 6 -13 q7 -20 4 -26 q-2 -6 -17 -6 l-257 -8 l0 -11 q-2 -16 -20 -24 q-26 -12 -30 -2 q-4 10 -5 28 l-7 226 q-1 23 -7 39 q-4 11 -2 14 q2 2 14 1 q17 -1 30 -8 q57 3 98 6 q1 76 3 148 q-110 -5 -215 -8 q-17 -1 -27 19 q-12 28 3 30 l239 9 q1 37 1 100 q0 38 -4 67 q-70 -16 -134 -19 q-17 -1 -18 7 q-2 7 15 12 q151 50 203 74 q52 23 86 51 q13 9 24 -1 q17 -17 26 -35 q10 -18 -11 -25 q-11 -3 -42 -17 q-31 -13 -56 -21 l-51 -15 q12 -4 18 -7 q10 -6 9 -24 q-2 -17 -4 -55 l-3 -89 l43 3 ZM948 77 q28 -27 6 -47 q-22 -20 -75 -26 q-69 -9 -153 -1 q-109 10 -113 153 q-2 96 0 266 q2 180 1 236 q0 61 -5 131 q-2 25 18 18 q27 -8 42 -19 q15 -10 12 -32 q-7 -46 -8 -98 q-7 -304 -1 -499 q3 -90 62 -94 q72 -7 128 2 q33 4 37 32 q7 68 11 91 q3 17 10 17 q7 0 8 -19 q5 -96 20 -111 Z" /><glyph glyph-name="" unicode="&#x4e86;" d="M770 750 q13 8 25 -4 q14 -14 26 -33 q9 -16 -6 -27 q-185 -158 -291 -222 q17 -33 24 -71 q32 -187 3 -366 q-9 -55 -37 -77 q-38 -31 -48 3 q-5 15 -146 56 q-17 4 -16 13 q1 9 18 7 q113 -11 136 -10 q24 0 26 12 q27 175 4 354 q-8 67 -60 149 q-20 32 -15 36 q5 5 33 -18 q36 -28 60 -59 q132 116 209 191 l-507 -26 q-21 -1 -35 27 q-11 23 -10 28 q2 6 20 5 q261 6 548 22 q24 2 36 9 l3 1 Z" /><glyph glyph-name="" unicode="&#x4e88;" d="M542 529 q33 -24 24 -53 q134 5 207 9 q26 1 43 9 q5 3 9 3 q9 3 20 -6 q26 -17 41 -37 q19 -22 -1 -33 q-20 -11 -33 -22 q-18 -15 -92 -89 q-23 -17 -29 -12 q-7 5 4 31 q16 40 51 99 l-312 -13 q44 -47 56 -112 q29 -151 4 -298 q-9 -50 -36 -71 q-38 -30 -50 3 q-4 12 -136 50 q-16 4 -15 13 q1 9 17 7 q107 -8 128 -8 q22 1 23 12 q22 135 5 283 q-8 61 -33 119 l-314 -14 q-24 0 -40 29 q-14 23 -12 29 q2 6 24 5 q196 3 408 11 q-47 44 -148 111 q-13 9 -12 14 q2 6 17 4 q68 -4 136 -43 q139 139 155 156 l-394 -22 q-20 -1 -33 28 q-11 23 -9 29 q1 6 18 5 q201 4 433 19 q21 1 33 7 l8 3 q11 3 21 -6 q17 -16 28 -34 q10 -15 -5 -28 q-137 -123 -221 -179 l12 -8 Z" /><glyph glyph-name="" unicode="&#x4e89;" d="M678 259 q1 37 5 111 l-178 -6 l0 -111 l173 6 ZM506 417 l179 9 l6 93 q-80 -2 -185 -6 q1 -4 1 -15 l-1 -81 ZM473 567 l77 109 q-119 -4 -174 -8 q-6 0 -8 1 q-66 -71 -135 -112 l240 10 ZM664 574 q25 1 41 10 q7 4 16 2 l4 -1 q2 0 3 -1 q22 -8 35 -17 q13 -9 5 -29 q-8 -20 -11 -43 l-6 -66 q100 6 138 12 q30 5 46 -26 q23 -43 -12 -43 q-88 2 -176 -1 l-7 -115 q5 -4 11 -18 q8 -22 5 -28 q-4 -6 -23 -6 q-30 0 -228 -5 q0 -124 -2 -186 q-1 -50 -30 -73 q-37 -29 -49 0 q-5 13 -102 46 q-12 4 -10 11 q1 7 14 6 q110 -1 110 12 q3 90 3 182 q-103 -4 -209 -6 q-27 0 -34 19 q-8 22 -5 27 q2 6 21 6 q89 2 228 8 l1 111 l-335 -11 q-23 -1 -34 21 q-17 30 3 31 q211 6 366 12 l0 61 q0 23 -1 34 q-75 -2 -178 -8 q-20 -1 -31 24 q-10 20 -10 24 l-39 -21 q-11 -5 -15 1 q-5 5 5 15 q150 143 206 238 q16 29 21 43 q7 15 21 7 q22 -13 37 -28 q12 -11 1 -26 q-21 -28 -42 -54 l137 6 q19 0 32 8 q6 3 12 3 q8 -2 14 -6 q15 -10 32 -33 q11 -14 -2 -28 q-69 -75 -104 -106 l127 5 Z" /><glyph glyph-name="" unicode="&#x4e8b;" d="M716 264 q-88 -1 -206 -6 l-1 -71 l103 4 q68 2 102 4 l2 69 ZM510 303 l207 9 l3 65 l-210 -6 l0 -68 ZM295 581 q2 -40 2 -67 l79 2 q53 2 77 2 l0 73 l-81 -4 q-50 -2 -77 -4 l0 -2 ZM608 524 q42 2 81 3 l3 71 q-69 -1 -182 -5 l0 -73 l98 4 ZM693 426 q24 1 38 7 q6 2 10 2 q8 0 14 -2 q20 -5 34 -14 q14 -10 6 -28 q-6 -15 -9 -37 l-3 -39 q68 5 97 9 q27 4 42 -22 q21 -37 -10 -36 q-59 1 -132 0 l-4 -77 q3 -5 6 -13 q8 -20 5 -25 q-3 -6 -22 -6 q-77 -1 -256 -7 l-1 -66 q0 -44 -1 -66 q-1 -49 -28 -71 q-36 -30 -44 0 q-4 13 -76 43 q-11 5 -10 12 q0 6 13 5 q83 -2 83 12 l3 129 l-226 -6 q-25 0 -31 18 q-7 20 -4 24 q2 5 19 6 q163 4 243 7 l1 71 q-142 -6 -329 -12 q-20 0 -31 18 q-13 26 3 27 q205 6 358 12 l1 68 q-132 -5 -205 -10 q-18 0 -29 21 q-10 20 -8 24 q1 4 18 4 l224 9 l1 56 q-26 0 -78 -2 l-78 -2 q-3 -9 -19 -16 q-28 -9 -32 -2 q-5 9 -6 22 q-6 113 -7 117 q-1 15 -7 29 q-5 11 -3 13 q2 3 15 2 q17 -2 29 -6 l186 9 l0 51 q-100 -5 -310 -11 q-28 -1 -39 17 q-11 16 -9 21 q2 5 21 6 q174 6 336 15 l0 23 q-2 45 -7 72 q-2 13 1 16 q4 3 17 -1 q28 -9 47 -22 q12 -8 9 -30 q-5 -38 -6 -55 l142 7 l186 12 q24 1 34 -19 q9 -18 6 -25 q-3 -6 -20 -7 l-350 -17 l0 -51 l160 6 q20 0 35 8 q4 2 11 2 q3 0 9 -2 q17 -5 31 -13 q13 -9 6 -25 q-6 -14 -7 -27 q-4 -37 -5 -72 l2 -6 q6 -18 3 -23 q-2 -5 -18 -5 q-66 -1 -228 -7 l0 -56 l183 7 Z" /><glyph glyph-name="" unicode="&#x4e8c;" d="M591 632 q74 6 115 10 q24 3 34 -21 q15 -34 -12 -35 q-183 -15 -427 -22 q-27 -1 -38 18 q-11 18 -10 24 q2 6 20 7 q254 14 318 19 ZM669 182 q165 7 200 11 q21 4 30 -1 q10 -5 20 -26 q22 -44 -12 -41 q-193 13 -782 -17 q-22 -1 -33 21 q-16 31 3 32 l574 21 Z" /><glyph glyph-name="" unicode="&#x4e8e;" d="M907 448 q23 -44 -13 -44 q-109 0 -372 -13 q0 -244 -2 -367 q-1 -52 -30 -74 q-35 -30 -47 0 q-4 11 -117 47 q-12 4 -11 11 q1 7 14 6 q126 -2 126 11 q4 117 6 363 q-278 -12 -339 -14 q-23 0 -35 22 q-17 31 3 32 q121 4 371 16 q0 123 -1 180 q0 34 -4 61 q-124 -4 -184 -5 q-28 -1 -40 18 q-11 19 -9 25 q2 5 20 6 q239 10 355 18 q103 7 128 10 q24 3 35 -21 q10 -20 7 -27 q-3 -7 -20 -9 q-108 -8 -242 -13 l11 -7 q12 -8 10 -27 l-3 -61 q-1 -43 -1 -145 l132 8 q160 11 206 19 q29 6 46 -26 Z" /><glyph glyph-name="" unicode="&#x4e8f;" d="M312 682 q-26 -1 -37 18 q-11 19 -9 25 q2 6 18 7 q47 3 154 8 l149 8 q72 4 108 8 q24 1 34 -22 q15 -34 -13 -35 q-111 -6 -404 -17 ZM391 478 q13 -10 7 -24 q-5 -11 -16 -44 l-31 -86 q60 3 280 10 q21 0 38 12 q5 3 10 3 q7 3 15 -2 q18 -8 34 -22 q13 -10 4 -24 q-8 -12 -11 -30 q-5 -27 -20 -125 q-14 -89 -24 -141 q-10 -46 -41 -60 q-38 -17 -46 7 q-2 7 -105 44 q-12 5 -10 11 q1 5 14 4 q118 -11 121 1 q21 109 44 268 q-193 -4 -366 -14 q-10 -1 -14 5 q-5 6 -1 14 q0 2 2 8 q32 86 47 139 q9 30 11 46 l-223 -8 q-23 -1 -35 21 q-9 18 -9 25 q1 5 12 6 q384 11 590 24 q171 10 214 17 q29 5 46 -26 q22 -44 -13 -42 q-80 1 -526 -15 l2 -2 Z" /><glyph glyph-name="" unicode="&#x4e91;" d="M306 645 q-26 -1 -37 18 q-11 19 -9 25 q2 6 19 7 l314 14 q19 2 56 4 l55 4 q22 3 33 -22 q8 -19 5 -26 q-3 -7 -19 -9 q-166 -9 -417 -15 ZM928 467 q23 -44 -14 -44 q-119 2 -421 -9 l13 -16 q12 -15 -3 -34 q-109 -157 -212 -272 q183 27 384 48 l-87 141 q-12 18 -7 23 q5 4 23 -8 q113 -78 192 -229 q28 -57 -4 -84 q-28 -23 -50 30 q-17 39 -46 92 q-91 -22 -232 -48 q-135 -26 -188 -39 q-33 -8 -59 -22 q-16 -8 -25 5 q-13 19 -25 54 q-1 3 -1 9 q-1 9 9 12 q42 17 78 60 q81 102 152 212 q19 31 32 63 l-327 -12 q-23 0 -35 22 q-17 32 3 32 q414 15 590 25 q164 8 211 16 q32 5 49 -27 Z" /><glyph glyph-name="" unicode="&#x4e92;" d="M349 291 q89 4 180 7 l105 3 l29 172 q-169 -5 -260 -10 l-8 0 l-46 -172 ZM673 97 q159 6 204 13 q33 5 49 -28 q23 -45 -14 -43 q-103 5 -784 -14 q-23 -1 -35 21 q-15 32 4 33 l503 15 l24 148 q-126 -2 -279 -7 q-22 -2 -40 -8 q-26 -10 -39 42 q-2 8 0 13 q0 6 9 9 q18 7 26 32 q34 111 75 308 l5 41 q-53 -2 -163 -4 q-20 0 -29 20 q-15 29 2 29 q297 6 446 16 q122 6 169 14 q24 5 38 -24 q19 -38 -12 -38 q-28 0 -392 -12 q8 -5 4 -21 q-13 -45 -35 -135 q13 1 241 10 q20 1 35 12 q8 6 14 3 q4 0 12 -4 q21 -12 33 -22 q13 -12 2 -32 q-12 -22 -20 -53 q-15 -66 -65 -334 l12 0 Z" /><glyph glyph-name="" unicode="&#x4e94;" d="M461 382 q-25 -132 -50 -284 q107 3 226 8 q14 158 30 286 q-144 -6 -206 -10 ZM250 372 q-18 0 -31 27 q-10 22 -8 27 q1 5 17 5 q58 0 180 4 q23 132 22 123 q5 30 11 90 l-204 -5 q-19 -1 -29 20 q-15 29 3 31 q266 6 414 15 q126 8 157 14 q24 6 38 -25 q19 -39 -13 -39 q-46 1 -310 -9 q3 -1 7 -5 q10 -7 5 -28 q-9 -37 -17 -78 q-9 -46 -21 -102 q91 3 179 8 q20 1 31 6 q5 3 9 3 q6 1 14 -2 q20 -7 32 -18 q12 -11 4 -29 q-6 -14 -11 -44 q-7 -40 -33 -253 q159 7 193 13 q33 4 48 -27 q22 -43 -12 -43 q-149 6 -823 -16 q-23 -1 -34 21 q-17 31 3 31 l280 9 q15 100 47 283 l-148 -7 Z" /><glyph glyph-name="" unicode="&#x4e95;" d="M588 376 q1 62 1 182 q-62 -3 -189 -7 q-1 -11 -1 -33 l-1 -35 q-2 -67 -7 -116 l197 9 ZM663 379 q158 8 209 15 q31 5 48 -25 q22 -41 -12 -41 q-95 3 -261 -2 q-2 -141 -4 -209 q-3 -106 -25 -176 q-15 -50 -23 1 q-13 69 -11 170 l3 213 l-202 -8 q-34 -227 -221 -354 q-17 -12 -23 -7 q-6 5 7 19 q147 148 176 339 l-218 -10 q-22 -1 -34 20 q-15 29 3 30 l255 11 q5 48 7 120 q1 23 1 64 l-111 -4 q-29 -1 -42 18 q-11 19 -9 24 q2 5 22 7 l140 6 q0 82 -5 162 q-1 16 2 20 q3 3 15 1 q26 -7 40 -16 q15 -7 12 -31 q1 13 -2 -133 q96 5 189 9 l0 79 q0 77 -3 123 q-2 18 1 20 q2 2 19 -2 q20 -4 38 -14 q14 -7 12 -33 q-3 -42 -3 -96 l-1 -74 q88 4 130 8 q25 1 36 -21 q10 -20 6 -27 q-3 -7 -20 -8 l-153 -7 l-3 -182 l15 1 Z" /><glyph glyph-name="" unicode="&#x4e9a;" d="M787 533 q6 17 21 9 q27 -12 43 -26 q14 -13 3 -27 q-117 -165 -213 -229 q-10 -6 -15 -1 q-4 5 3 16 q130 191 143 217 q10 21 15 41 ZM263 275 q-24 58 -111 189 q-10 15 -5 19 q3 4 18 -4 q94 -49 150 -158 q23 -44 -4 -68 q-29 -24 -48 22 ZM422 657 q13 -7 13 -30 q-1 -21 -1 -81 q-3 -378 -2 -457 l123 5 l0 471 q-1 47 -6 98 q-86 -4 -129 -5 l2 -1 ZM667 99 q166 10 212 16 q32 5 49 -27 q24 -46 -13 -44 q-103 2 -810 -21 q-23 -1 -35 21 q-17 32 3 32 l299 11 l-2 261 q-1 143 -3 209 q-2 55 -7 98 l0 1 l-135 -4 q-30 -1 -42 18 q-12 19 -10 25 q2 5 22 6 q299 12 444 21 q104 6 154 10 q25 3 37 -21 q17 -35 -15 -36 q-66 -4 -206 -10 l2 -1 q13 -7 12 -30 q0 -17 -2 -81 q-6 -354 -5 -456 l51 2 Z" /><glyph glyph-name="" unicode="&#x4e9b;" d="M387 541 q-1 -50 -1 -166 l121 36 q20 6 24 -2 q4 -8 -12 -17 q-89 -52 -383 -158 q-22 -8 -34 4 q-15 14 -30 42 q-12 20 10 21 q24 0 45 5 l53 12 q-1 33 -2 132 q0 71 -2 105 q-1 30 -6 60 q-2 17 13 15 q26 -5 44 -13 q11 -5 10 -22 q-2 -26 -2 -47 l0 -215 l94 25 l0 183 q0 99 -1 144 q0 32 -5 72 q-2 20 14 16 q23 -4 46 -14 q11 -6 9 -25 q-2 -32 -2 -57 q0 -23 -2 -87 l102 9 q18 3 26 -20 q11 -31 -11 -32 l-118 -6 ZM298 182 q-10 17 -8 23 q1 7 17 8 q49 3 130 6 q95 3 127 5 q60 2 91 4 q22 1 31 -21 q13 -33 -13 -34 q-319 -8 -341 -9 q-24 -1 -34 18 ZM807 74 q30 4 46 -28 q20 -43 -14 -42 q-116 4 -669 -15 q-21 -1 -32 22 q-16 31 3 32 q414 14 490 18 q136 6 176 13 ZM918 361 q27 -24 5 -44 q-22 -22 -77 -26 q-86 -9 -184 -1 q-56 4 -81 34 q-26 28 -28 90 q-2 59 0 158 q2 110 2 142 q0 51 -4 90 q-1 20 17 15 q24 -5 43 -17 q13 -9 11 -26 q-4 -19 -6 -65 q-3 -144 -3 -170 q95 63 153 126 q16 16 32 40 q9 15 22 9 q21 -11 34 -26 q12 -13 -2 -26 q-135 -114 -239 -150 q0 -66 1 -98 q3 -61 56 -66 q90 -7 161 2 q33 4 37 29 q11 71 12 74 q4 17 11 16 q6 0 7 -18 q2 -77 20 -92 Z" /><glyph glyph-name="" unicode="&#x4ea4;" d="M487 697 q-21 42 -79 120 q-17 23 11 18 q76 -17 122 -89 q25 -37 -2 -62 q-31 -29 -52 13 ZM170 592 q-21 0 -31 21 q-16 30 3 30 q332 13 489 21 q129 6 179 14 q28 4 43 -25 q21 -42 -12 -40 q-100 2 -671 -21 ZM771 484 q39 -34 22 -67 q-19 -34 -57 2 q-63 64 -174 135 q-15 10 -13 15 q3 6 20 4 q104 -8 202 -89 ZM377 572 q27 -22 35 -32 q11 -14 -1 -26 q-148 -137 -247 -175 q-11 -4 -14 2 q-4 6 6 14 q122 109 178 180 q12 16 22 32 q8 14 21 5 ZM530 184 q103 -91 230 -138 q37 -13 92 -29 l85 -27 q24 -8 24 -13 q-1 -5 -25 -13 q-12 -4 -27 -13 q-17 -11 -25 -14 q-22 -9 -52 2 q-201 65 -343 203 q-151 -145 -376 -196 q-27 -6 -29 2 q-3 8 21 18 q216 91 342 221 q-43 46 -82 102 q-24 34 -55 60 q-9 7 -11 25 q-4 33 15 22 q37 -20 81 -72 q44 -51 88 -97 l9 11 q70 87 122 192 q8 18 27 7 q20 -11 35 -27 q12 -14 -1 -31 q-7 -9 -57 -82 q-37 -54 -75 -98 l-13 -15 Z" /><glyph glyph-name="" unicode="&#x4ea6;" d="M487 685 q-16 33 -82 123 q-17 23 12 17 q78 -16 127 -89 q26 -38 -2 -64 q-32 -30 -55 13 ZM693 462 q105 -41 183 -154 q32 -46 2 -76 q-29 -30 -55 18 q-34 60 -143 194 q-12 15 -8 20 q4 5 21 -2 ZM432 584 q8 -7 5 -24 q-2 -20 -4 -75 q-2 -58 -5 -97 q-14 -172 -84 -268 q-70 -97 -228 -161 q-20 -8 -25 -2 q-5 7 13 18 q131 82 189 171 q60 94 72 245 q6 78 2 190 q-108 -5 -230 -9 q-22 -1 -34 21 q-16 31 3 32 q279 10 547 24 q158 10 198 17 q29 5 46 -26 q22 -43 -13 -43 q-93 1 -263 -5 l2 -1 q13 -8 10 -27 q-4 -32 -4 -55 q-1 -56 -2 -219 q0 -165 -2 -255 q-1 -50 -30 -73 q-37 -30 -48 0 q-4 13 -96 46 q-12 4 -11 11 q1 7 14 6 q104 -2 104 11 q8 241 5 504 q0 25 -3 50 l-128 -6 ZM186 236 q-49 -57 -70 -16 q-14 31 10 57 q76 85 134 174 q10 14 16 12 q6 -1 5 -16 q-4 -102 -95 -211 Z" /><glyph glyph-name="" unicode="&#x4ea7;" d="M522 704 q-12 30 -65 113 q-15 22 11 15 q71 -17 109 -86 q20 -34 -6 -57 q-33 -26 -49 15 ZM693 438 q120 8 161 15 q25 6 39 -24 q20 -39 -12 -39 l-592 -21 q-2 -59 -5 -92 q-11 -130 -56 -205 q-47 -76 -152 -134 q-15 -8 -20 -3 q-5 6 7 17 q145 132 160 328 q4 48 2 140 q-1 21 17 17 q22 -6 38 -15 l4 -2 l150 5 q-7 5 -16 22 q-18 43 -77 133 q-15 24 12 16 q74 -25 120 -105 q21 -38 -5 -60 q-2 -2 -6 -4 q49 1 121 5 q67 133 74 155 l11 44 l-399 -13 q-28 -1 -40 18 q-11 18 -9 23 q2 5 21 6 l215 10 q135 5 208 9 q52 2 144 8 q24 3 35 -20 q17 -34 -14 -35 l-141 -6 q26 -10 40 -21 q15 -10 5 -26 q-75 -114 -113 -150 l73 4 Z" /><glyph glyph-name="" unicode="&#x4ea9;" d="M490 669 q-18 43 -77 132 q-18 25 13 17 q79 -23 123 -101 q23 -40 -6 -64 q-35 -30 -53 16 ZM657 101 q39 2 54 2 l5 143 q15 0 -200 -6 q-1 -44 -1 -144 l142 5 ZM278 232 q2 -44 4 -144 q92 2 179 6 q-1 77 0 144 l-183 -6 ZM277 282 q13 0 184 6 q0 61 -1 88 l-3 50 q-165 -7 -187 -9 l7 -135 ZM718 298 q4 96 7 137 l-208 -7 l1 -7 l-1 -131 l201 8 ZM283 15 q0 -20 -21 -32 q-26 -16 -31 -4 q-6 14 -6 39 q-17 378 -18 389 q-3 37 -9 55 q-4 13 -1 16 q2 3 15 1 q13 -1 33 -9 q173 8 450 18 q26 1 42 10 l9 3 q9 0 14 -2 q15 -7 34 -19 q14 -10 5 -27 q-7 -14 -7 -35 q-11 -154 -13 -349 q0 -54 -37 -70 q-23 -11 -27 4 q-2 12 -4 46 q-68 -1 -208 -6 q-149 -6 -220 -7 l0 -21 ZM917 618 q22 -43 -13 -43 q-34 1 -790 -23 q-22 -1 -34 20 q-16 31 3 31 q377 12 579 24 q154 8 209 17 q29 4 46 -26 Z" /><glyph glyph-name="" unicode="&#x4eab;" d="M639 737 q154 8 162 9 q24 1 35 -20 q9 -19 6 -25 q-3 -7 -20 -8 q-251 -12 -628 -21 q-28 0 -39 18 q-11 17 -9 23 q2 5 21 6 q117 3 315 11 l-3 5 q-14 29 -59 89 q-13 19 10 17 q65 -6 102 -60 q17 -24 3 -49 l104 5 ZM330 572 q2 -44 2 -76 q181 4 263 7 l65 2 l5 80 q-200 -3 -335 -10 l0 -3 ZM303 623 l343 11 q17 0 33 6 q7 3 14 1 l4 -1 q2 0 3 -1 q20 -9 27 -15 q12 -8 5 -24 q-1 -2 -6 -26 q-4 -39 -5 -76 q1 -1 5 -11 q7 -19 4 -24 q-2 -5 -18 -6 q-56 0 -184 -4 q-128 -3 -197 -4 q-3 -8 -18 -13 q-28 -11 -32 -2 q-4 8 -5 22 l-4 66 q-2 43 -4 61 q-1 15 -7 29 q-4 11 -2 13 q2 3 15 2 l29 -4 ZM253 334 q-17 0 -28 24 q-10 20 -8 25 q1 5 16 5 q202 3 452 17 q20 1 29 5 l7 2 q12 3 21 -7 q13 -19 20 -35 q7 -18 -9 -25 q-163 -86 -222 -109 q4 -8 5 -12 l133 7 q154 9 211 17 q28 5 44 -24 q21 -40 -12 -40 q-101 1 -363 -9 q13 -99 -2 -179 q-7 -41 -33 -61 q-37 -29 -48 3 q-3 9 -101 39 q-15 4 -13 12 q1 8 16 7 q77 -5 94 -4 q16 1 18 9 q13 82 5 171 q-272 -11 -365 -14 q-22 -1 -33 19 q-15 29 3 30 q225 8 388 15 q-7 23 -22 51 q-14 28 -9 32 q5 4 30 -13 q21 -14 33 -28 q88 55 140 90 l-397 -20 Z" /><glyph glyph-name="" unicode="&#x4eac;" d="M485 707 q-19 42 -64 105 q-14 21 11 16 q66 -12 105 -74 q22 -34 -2 -58 q-31 -30 -50 11 ZM307 227 q12 11 17 8 q5 -2 2 -16 q-22 -91 -131 -174 q-58 -43 -69 1 q-8 31 20 51 q91 63 161 130 ZM326 352 l264 7 l68 3 q2 58 8 140 q-230 -5 -344 -11 l4 -139 ZM518 302 q10 -5 9 -22 q-2 -22 -2 -35 q-1 -31 -1 -110 q0 -84 -1 -127 q-1 -44 -28 -63 q-36 -25 -48 0 q-3 9 -95 38 q-12 4 -11 11 q1 7 14 6 q102 -1 103 11 q3 145 2 256 q0 19 -3 37 l-130 -3 q-1 -13 -20 -20 q-27 -11 -30 -2 q-5 10 -6 26 l-10 194 q-2 20 -7 35 q-4 11 -3 14 q2 2 15 1 q20 -1 35 -9 l342 13 q21 1 36 9 q5 3 9 3 q6 2 13 -1 q21 -9 30 -15 q12 -9 5 -26 q-5 -14 -8 -32 q-2 -17 -11 -136 q3 -5 6 -13 q7 -20 4 -26 q-3 -6 -20 -6 q-135 -2 -197 -4 l8 -4 ZM647 239 q97 -21 187 -113 q36 -36 14 -67 q-21 -32 -53 7 q-46 57 -157 155 q-13 11 -10 16 q3 5 19 2 ZM905 678 q21 -42 -13 -42 q-25 1 -770 -16 q-22 -1 -33 20 q-15 30 3 31 q364 8 564 18 q153 6 205 15 q28 4 44 -26 Z" /><glyph glyph-name="" unicode="&#x4eae;" d="M630 736 q134 6 174 13 q25 4 39 -23 q19 -39 -11 -37 l-647 -15 q-19 -1 -29 19 q-14 28 3 28 q218 5 332 10 q-3 4 -5 8 q-14 28 -60 90 q-13 19 11 16 q67 -7 103 -63 q18 -27 0 -50 l90 4 ZM347 571 q2 -46 2 -81 q140 3 232 6 l53 2 l2 42 q2 29 2 41 q-195 -4 -291 -8 l0 -2 ZM707 597 q-3 -7 -7 -27 q-3 -31 -6 -77 q3 -5 6 -13 q6 -18 4 -23 q-3 -5 -18 -5 l-336 -8 q-3 -12 -20 -18 q-26 -10 -30 -2 q-4 8 -5 22 l-7 136 q-1 16 -7 30 q-4 10 -2 13 q2 2 14 1 q19 -1 33 -7 l293 9 q17 0 32 7 q7 3 11 2 q8 0 12 -2 q15 -5 27 -14 q11 -8 6 -24 ZM818 404 q11 8 24 -3 q22 -17 37 -37 q16 -22 -2 -31 q-20 -9 -28 -16 q-21 -16 -59 -64 q-23 -14 -28 -11 q-5 4 2 30 q9 28 28 71 q-323 -9 -577 -21 l-9 0 q-3 -41 -28 -98 q-26 -56 -56 -21 q-19 20 -6 45 q36 68 62 145 q4 13 9 13 q5 0 9 -12 q5 -11 6 -22 q205 9 570 22 q25 1 43 9 l3 1 ZM389 251 l164 5 q17 1 30 9 q7 3 11 2 q5 0 8 -1 q18 -5 30 -12 q12 -7 6 -21 q-4 -11 -6 -33 q-5 -62 -2 -149 q1 -20 11 -27 q11 -8 41 -9 q99 -4 173 2 q27 1 31 17 q5 23 12 43 q5 13 10 12 q6 0 8 -15 q5 -41 17 -53 q21 -20 6 -37 q-18 -21 -71 -24 q-94 -6 -201 -1 q-54 3 -75 23 q-21 20 -22 68 q-2 73 3 154 q-124 -2 -180 -5 q-2 -35 -5 -54 q-13 -95 -71 -147 q-59 -54 -179 -76 q-17 -3 -19 4 q-2 7 14 14 q96 40 139 86 q45 48 55 125 q6 45 4 101 q0 18 17 14 q19 -4 39 -14 l2 -1 Z" /><glyph glyph-name="" unicode="&#x4eba;" d="M447 478 q-135 -306 -374 -457 q-25 -16 -30 -10 q-5 6 16 26 q222 211 327 464 q70 168 91 264 q4 21 25 14 q23 -8 41 -21 q14 -11 6 -31 q-38 -97 -75 -186 q7 -10 7 -11 q122 -222 309 -365 q28 -21 77 -49 q64 -35 81 -46 q15 -10 16 -14 q0 -5 -15 -9 q-14 -4 -33 -15 q-20 -12 -30 -15 q-21 -7 -43 9 q-258 187 -384 479 l-12 -27 Z" /><glyph glyph-name="" unicode="&#x4ebf;" d="M281 466 q4 -20 4 -48 q4 -145 -1 -360 q-1 -57 -22 -84 q-21 -27 -33 2 q-13 28 -10 67 q8 186 3 382 q-2 28 -4 43 q-66 -70 -160 -141 q-12 -8 -17 -3 q-6 6 4 18 q209 249 279 378 q15 26 29 66 q7 18 22 11 q27 -15 42 -28 q12 -12 2 -28 q-84 -140 -166 -235 l8 -6 q16 -13 20 -34 ZM936 90 q25 -33 3 -52 q-28 -25 -89 -29 q-190 -13 -339 2 q-81 8 -100 59 q-19 48 21 125 q115 220 304 441 q-195 -14 -288 -18 q-18 0 -30 28 q-10 23 -8 29 q1 6 17 5 q140 4 326 15 q23 3 30 8 q10 5 16 3 q5 0 12 -5 q18 -13 31 -30 q16 -20 -2 -34 q-33 -24 -62 -56 q-168 -179 -285 -398 q-54 -103 35 -110 q140 -12 304 1 q44 4 48 43 q8 91 13 118 q3 18 10 17 q7 -1 8 -20 q7 -119 25 -142 Z" /><glyph glyph-name="" unicode="&#x4ec0;" d="M288 472 q3 -17 5 -49 q3 -152 -2 -362 q-1 -55 -21 -83 q-19 -28 -33 1 q-12 26 -11 68 q8 186 3 385 q0 16 -4 38 q-70 -79 -156 -148 q-12 -8 -17 -3 q-7 6 3 18 q204 258 266 379 q16 29 27 68 q7 17 21 11 q27 -12 42 -26 q12 -11 3 -27 q-79 -139 -155 -232 l9 -6 q16 -12 20 -32 ZM940 483 q19 -41 -13 -41 q-65 2 -256 -5 l-5 -318 q-2 -107 -25 -179 q-16 -48 -25 1 q-14 75 -12 172 q2 216 2 321 l-233 -9 q-19 -1 -30 21 q-14 32 3 32 q229 9 260 11 q0 131 -1 188 q0 72 -5 125 q-2 17 1 20 q3 3 21 -1 q21 -4 43 -15 q15 -8 13 -34 q-5 -48 -5 -96 q0 -56 -2 -184 l41 2 q27 2 37 2 q115 6 150 13 q26 4 41 -26 Z" /><glyph glyph-name="" unicode="&#x4ec1;" d="M477 539 q-26 0 -36 18 q-11 19 -9 25 q2 6 18 7 q41 3 129 8 q82 4 125 7 q62 4 93 7 q22 3 32 -21 q14 -34 -13 -35 q-107 -7 -339 -16 ZM261 495 q14 -14 20 -34 q6 -30 6 -49 q3 -181 -3 -372 q-1 -53 -26 -82 q-19 -26 -31 4 q-8 20 -7 63 q10 219 5 390 q0 26 -4 43 q-68 -80 -162 -157 q-11 -9 -17 -4 q-6 6 4 18 q201 260 267 397 q13 28 27 73 q6 18 21 12 q27 -12 43 -27 q12 -10 3 -28 q-74 -144 -151 -242 l5 -5 ZM948 192 q21 -44 -14 -42 q-127 7 -585 -12 q-21 0 -30 22 q-15 32 3 33 l428 15 q110 4 154 11 q29 5 44 -27 Z" /><glyph glyph-name="" unicode="&#x4eca;" d="M716 330 q16 -19 21 -28 q7 -15 -6 -23 q-16 -12 -26 -27 q-161 -246 -189 -299 q-14 -26 -41 2 q-15 18 5 53 q33 58 167 264 l-391 -25 q-18 -1 -31 26 q-10 22 -9 28 q1 5 18 5 q244 7 421 20 q24 3 32 8 q5 3 8 3 q9 5 21 -7 ZM541 379 q-27 -27 -48 11 q-12 20 -94 120 q-20 23 9 16 q77 -18 131 -90 q25 -34 2 -57 ZM953 408 q27 -13 3 -22 q-12 -5 -30 -18 q-17 -13 -27 -17 q-20 -11 -40 3 q-231 150 -373 358 q-43 -58 -85 -107 q-162 -192 -337 -287 q-22 -13 -27 -6 q-4 7 14 23 q183 151 300 302 q83 107 126 188 q10 17 25 9 q18 -8 33 -22 q13 -13 1 -29 l-31 -43 q150 -166 304 -262 q26 -15 70 -35 q57 -26 74 -35 Z" /><glyph glyph-name="" unicode="&#x4ecb;" d="M395 475 q14 -8 11 -26 q-2 -18 -4 -55 l-5 -68 q-14 -140 -67 -220 q-54 -81 -176 -140 q-16 -7 -21 -2 q-4 6 9 17 q94 73 136 147 q45 79 56 201 q5 57 3 143 q0 22 18 18 q23 -7 40 -15 ZM633 507 q14 -7 13 -29 q-1 -10 -1 -32 l-1 -36 q-1 -42 -2 -167 q-1 -113 -3 -187 q-3 -79 -25 -127 q-15 -32 -25 1 q-13 50 -11 122 q2 240 2 362 q0 54 -3 87 q-1 15 2 18 q2 2 18 -1 q14 -3 36 -11 ZM942 454 q27 -12 4 -21 q-13 -5 -31 -18 q-18 -14 -27 -18 q-19 -9 -39 3 q-225 122 -351 321 q-38 -55 -79 -105 q-148 -179 -321 -269 q-22 -10 -26 -4 q-4 7 13 21 q172 136 284 283 q73 97 114 180 q9 16 25 9 q20 -9 33 -21 q13 -12 2 -29 q-24 -34 -26 -38 q128 -150 281 -232 q26 -14 70 -31 q57 -23 74 -31 Z" /><glyph glyph-name="" unicode="&#x4ecd;" d="M277 474 q3 -16 5 -50 q4 -187 -2 -365 q-1 -57 -22 -86 q-19 -27 -33 2 q-11 27 -10 69 q9 204 4 388 q-2 34 -6 50 q-67 -74 -161 -147 q-11 -9 -17 -3 q-6 6 4 18 q201 249 266 379 q15 31 26 68 q5 19 22 11 q29 -13 43 -26 q13 -11 4 -28 q-76 -142 -156 -237 l13 -9 q16 -13 20 -34 ZM775 729 q8 8 22 3 q18 -8 35 -21 q14 -11 9 -27 q-54 -144 -97 -232 l103 5 q16 0 30 9 q2 2 5 2 q6 4 16 -1 q22 -11 35 -24 q14 -11 5 -25 q-9 -14 -12 -36 q-5 -33 -21 -156 q-15 -112 -26 -177 q-10 -51 -42 -66 q-38 -18 -46 7 q-2 7 -103 44 q-12 5 -10 11 q1 6 15 5 q115 -10 118 4 q27 154 47 349 q-57 -2 -153 -8 q-15 -2 -17 11 q-2 5 0 13 q62 204 74 248 q-79 -5 -182 -14 l2 -1 q15 -8 11 -28 l-6 -56 q-4 -41 -7 -63 q-23 -180 -74 -284 q-56 -113 -177 -201 q-16 -11 -22 -6 q-6 5 7 19 q167 181 204 476 q7 63 7 140 l-102 -7 q-16 0 -28 26 q-9 22 -8 27 q2 5 16 5 q157 6 342 20 q18 1 30 9 Z" /><glyph glyph-name="" unicode="&#x4ece;" d="M424 269 q-36 51 -110 121 q-72 -227 -245 -362 q-22 -17 -28 -12 q-7 6 12 28 q166 203 227 466 q37 163 41 247 q1 13 5 16 q4 3 17 0 q23 -4 45 -17 q16 -9 9 -30 l-53 -229 q-7 -31 -20 -76 q74 -22 142 -98 q30 -34 9 -62 q-23 -31 -51 8 ZM956 21 q12 -11 12 -15 q0 -4 -15 -6 q-13 -2 -31 -10 q-21 -9 -30 -11 q-21 -5 -36 12 q-155 167 -235 387 q-78 -260 -283 -409 q-25 -18 -31 -12 q-6 6 15 30 q203 222 265 520 q37 180 40 276 q1 14 4 17 q4 3 19 0 q23 -4 45 -17 q15 -9 9 -31 q-9 -37 -24 -112 q-19 -99 -29 -146 l-15 -63 q77 -174 202 -310 q21 -22 58 -51 q44 -35 60 -49 Z" /><glyph glyph-name="" unicode="&#x4ed4;" d="M262 484 q4 -23 4 -52 q3 -184 -1 -377 q-1 -58 -22 -89 q-19 -28 -33 2 q-12 26 -11 71 q10 187 4 402 q0 16 -4 40 q-61 -70 -141 -138 q-11 -9 -17 -4 q-7 6 2 18 q203 281 251 373 q13 24 27 67 q6 18 21 11 q28 -13 44 -26 q12 -12 3 -28 q-80 -139 -154 -231 q4 -2 7 -5 q16 -13 20 -34 ZM956 418 q20 -42 -13 -42 q-98 0 -271 -9 q21 -177 -4 -339 q-9 -55 -37 -79 q-17 -15 -31 -13 q-14 1 -19 16 q-4 14 -125 54 q-17 6 -16 14 q1 9 18 7 q96 -9 118 -8 q20 1 22 13 q24 170 9 332 l-259 -13 q-20 0 -31 22 q-15 32 3 32 l281 14 q-8 54 -52 131 q-35 64 20 18 q29 -26 44 -43 q114 137 137 167 l-308 -21 q-17 -1 -30 27 q-10 23 -9 29 q2 6 17 6 q172 5 340 18 q20 1 31 8 q5 3 8 3 q8 4 20 -4 q20 -15 32 -32 q12 -14 -1 -29 q-122 -132 -214 -204 q19 -33 27 -70 q38 1 90 5 q124 10 160 16 q27 6 43 -26 Z" /><glyph glyph-name="" unicode="&#x4ed6;" d="M239 488 q15 -14 18 -33 q3 -16 5 -48 q4 -181 -2 -354 q-1 -55 -21 -83 q-20 -27 -32 2 q-13 26 -10 66 q8 205 3 377 q0 20 -3 36 q-59 -65 -140 -129 q-11 -9 -17 -3 q-5 6 4 18 q188 234 253 366 q14 30 25 66 q5 17 20 11 q28 -13 41 -26 q13 -10 4 -27 q-74 -136 -154 -235 l6 -4 ZM466 440 q-4 -158 0 -269 q4 -91 97 -99 q139 -12 271 4 q56 6 60 36 l16 95 q4 17 11 16 q6 -1 7 -19 q2 -95 24 -114 q27 -25 1 -46 q-27 -23 -103 -30 q-142 -14 -293 -2 q-76 6 -112 43 q-36 37 -39 114 q-3 72 2 248 l-74 -28 q-19 -8 -35 16 q-14 21 -14 26 q0 6 16 10 l107 38 l0 46 q-2 74 -5 108 q-2 22 18 17 q27 -8 43 -19 q14 -9 11 -28 q-5 -31 -7 -79 l-1 -24 q59 20 121 44 l0 168 q0 56 -3 90 q-1 15 2 18 q2 2 18 -1 q20 -5 33 -11 q13 -7 12 -29 l-1 -70 q-1 -23 -1 -69 l-1 -74 q68 26 118 46 q20 10 31 23 q6 7 13 9 q5 3 14 -1 q19 -9 33 -19 q12 -10 5 -22 q-7 -12 -8 -28 l-12 -116 q-9 -83 -15 -130 q-4 -42 -33 -56 q-38 -19 -44 5 q-2 7 -70 34 q-11 5 -10 10 q1 6 14 5 q78 -5 79 7 q12 83 25 231 l-140 -54 q-2 -127 -4 -190 q-2 -80 -23 -131 q-15 -38 -24 0 q-12 53 -10 126 l1 172 l-121 -47 Z" /><glyph glyph-name="" unicode="&#x4ed8;" d="M286 504 q14 -14 18 -34 q5 -21 6 -47 q3 -178 -3 -365 q-1 -53 -26 -82 q-20 -25 -32 4 q-7 22 -6 63 q9 191 5 383 q0 14 -2 34 q-71 -79 -155 -147 q-11 -9 -17 -4 q-7 5 3 18 q210 267 275 395 q15 28 29 71 q6 18 20 11 q27 -12 42 -26 q12 -12 3 -28 q-79 -145 -161 -245 l1 -1 ZM598 226 q-24 -31 -51 9 q-38 56 -125 148 q-10 11 -7 16 q3 5 17 1 q85 -23 158 -111 q31 -37 8 -63 ZM955 541 q20 -43 -14 -41 q-57 2 -176 -1 q0 -317 -3 -478 q-1 -52 -30 -76 q-36 -30 -47 1 q-4 10 -117 47 q-13 4 -12 11 q2 8 15 7 q126 -3 126 11 q7 218 7 475 l-321 -15 q-20 0 -30 22 q-15 32 3 32 q110 6 348 16 q0 129 -1 188 q0 34 -7 72 q-2 13 1 16 q4 3 18 -1 q30 -9 49 -23 q13 -8 10 -30 q-7 -33 -7 -70 q-2 -90 -2 -149 q112 6 147 13 q28 5 43 -27 Z" /><glyph glyph-name="" unicode="&#x4ee3;" d="M635 730 q-23 20 7 18 q78 -6 146 -70 q30 -30 11 -58 q-21 -32 -51 3 q-32 41 -113 107 ZM290 450 q5 -21 6 -48 q4 -191 -2 -342 q-1 -57 -26 -84 q-19 -25 -31 4 q-8 22 -7 65 q8 159 4 359 q-2 39 -5 58 q-63 -82 -159 -165 q-11 -9 -17 -4 q-6 5 3 18 q186 260 237 375 q11 23 24 69 q4 18 20 12 q31 -14 43 -25 q13 -10 4 -27 q-63 -128 -126 -216 q9 -6 13 -12 q14 -15 19 -37 ZM896 104 q8 13 13 10 q6 -4 2 -20 q-21 -80 -15 -115 q6 -45 -36 -35 q-33 5 -73 36 q-180 132 -248 448 l-176 -38 q-18 -4 -30 17 q-16 29 -1 32 q116 24 197 42 q-15 82 -24 175 q-7 75 -24 153 q-5 26 13 22 q20 -4 46 -16 q17 -9 16 -27 q0 -56 7 -125 q8 -94 22 -170 q100 23 151 36 q59 16 75 22 q22 10 39 -19 q21 -38 -4 -42 q-61 -9 -251 -50 q64 -298 230 -406 q25 -17 36 3 q10 22 35 67 Z" /><glyph glyph-name="" unicode="&#x4ee4;" d="M724 352 q12 -9 31 -32 q11 -15 -2 -29 q-134 -146 -233 -228 q28 -19 64 -50 q45 -38 24 -76 q-18 -36 -59 7 q-79 80 -222 180 q-18 13 -15 18 q3 6 24 2 q77 -16 149 -58 q117 135 173 205 q-83 -5 -210 -14 l-193 -14 q-18 -1 -31 26 q-11 22 -9 27 q2 6 18 5 q213 8 432 25 q22 1 32 9 q1 1 4 2 l3 1 q11 2 20 -6 ZM553 387 q-27 -30 -50 10 q-23 40 -94 124 q-19 23 10 16 q78 -17 132 -90 q27 -35 2 -60 ZM950 418 q28 -12 4 -21 q-13 -6 -30 -19 q-17 -13 -27 -18 q-20 -9 -40 3 q-226 131 -368 324 q-43 -57 -73 -95 q-163 -199 -353 -297 q-23 -12 -27 -5 q-5 7 14 22 q195 157 313 312 q86 117 127 198 q10 19 26 10 q20 -9 35 -22 q14 -14 2 -30 q-7 -11 -22 -32 l-22 -32 q143 -149 293 -233 q26 -14 72 -33 l76 -32 Z" /><glyph glyph-name="" unicode="&#x4ee5;" d="M504 512 q-38 66 -125 161 q-10 12 -7 17 q4 5 19 0 q94 -30 160 -125 q28 -39 4 -67 q-27 -30 -51 14 ZM165 163 q10 14 11 36 q9 205 2 395 q0 32 -6 57 q-4 21 17 19 q24 -2 42 -10 q12 -5 12 -24 q1 -210 -7 -416 q95 78 209 166 q23 18 29 11 q6 -6 -14 -31 q-5 -7 -223 -237 q-11 -11 -35 -41 q-13 -14 -25 -7 q-21 12 -43 36 q-10 10 -4 18 q2 4 6 5 l29 23 ZM909 92 q40 -46 16 -79 q-21 -33 -55 13 q-70 96 -201 219 q-108 -153 -333 -250 q-27 -12 -31 -5 q-4 7 21 23 q179 110 273 241 q94 129 131 316 q15 78 17 173 q1 16 5 19 q4 4 17 0 q22 -6 41 -19 q14 -8 10 -31 l-11 -72 q-7 -47 -13 -75 q-38 -185 -112 -299 q116 -45 225 -174 Z" /><glyph glyph-name="" unicode="&#x4eec;" d="M370 783 q12 -11 3 -27 q-73 -128 -142 -217 q8 -6 11 -9 q16 -13 20 -35 q4 -21 4 -52 q4 -158 -1 -395 q-1 -59 -21 -90 q-19 -26 -32 3 q-11 27 -10 71 q10 198 4 419 q-2 35 -5 51 q-57 -68 -140 -140 q-11 -8 -17 -3 q-6 5 3 17 q189 262 236 357 q13 24 25 65 q5 17 20 11 q27 -12 42 -26 ZM450 569 q2 -19 2 -54 q5 -153 3 -448 q-2 -62 -17 -89 q-19 -35 -32 -2 q-14 34 -13 74 q8 281 -2 479 q-2 38 -9 68 q-5 21 14 17 q19 -4 37 -14 q14 -8 17 -31 ZM437 756 q72 -12 117 -77 q24 -31 2 -55 q-27 -27 -48 9 q-19 35 -80 107 q-18 21 9 16 ZM888 713 q15 -11 7 -30 q-8 -20 -9 -49 q-2 -69 -1 -279 q0 -205 -3 -315 q-1 -49 -30 -71 q-34 -25 -45 1 q-3 8 -85 41 q-12 5 -11 11 q2 6 15 6 q59 -2 77 1 q13 3 14 12 q9 305 6 628 q-19 -1 -104 -8 q-61 -5 -95 -7 q-14 0 -25 26 q-8 22 -7 27 q1 5 14 4 q68 2 205 12 q15 1 25 8 q9 5 15 2 l3 -1 q2 0 3 -1 q19 -9 31 -18 Z" /><glyph glyph-name="" unicode="&#x4ef6;" d="M251 520 q16 -11 20 -33 q4 -17 6 -52 q2 -206 -2 -376 q-1 -58 -22 -87 q-18 -27 -32 2 q-12 28 -9 70 q8 193 3 400 q0 16 -4 36 q-62 -76 -145 -148 q-10 -9 -16 -3 q-7 5 2 17 q189 263 240 372 q13 26 25 68 q4 19 20 12 q25 -12 42 -25 q12 -11 3 -27 q-65 -127 -136 -222 l5 -4 ZM750 362 q116 8 158 15 q28 6 43 -26 q21 -43 -13 -41 q-90 1 -273 -8 q-1 -28 -1 -84 l-1 -88 q-2 -107 -24 -179 q-16 -49 -25 0 q-13 65 -13 172 l1 176 l-253 -14 q-21 0 -31 22 q-16 31 2 32 q161 8 282 15 q0 121 -1 179 l-129 -6 q-13 0 -18 1 q-40 -66 -96 -118 q-8 -8 -14 -3 q-5 4 1 16 q92 186 106 235 q5 17 9 48 q3 19 19 12 q23 -7 44 -20 q13 -10 6 -26 q-28 -59 -46 -93 l118 7 l-1 101 q-1 76 -6 125 q-1 18 1 20 q3 3 20 -1 q23 -4 41 -14 q15 -8 14 -34 q-3 -42 -3 -98 l0 -95 l155 13 q23 1 33 -21 q9 -20 6 -27 q-3 -7 -19 -9 q-118 -8 -176 -10 l-1 -179 l85 5 Z" /><glyph glyph-name="" unicode="&#x4ef7;" d="M237 519 q15 -12 18 -33 q4 -20 4 -49 q2 -174 -3 -369 q-1 -55 -21 -84 q-19 -26 -31 3 q-11 25 -10 66 q10 196 5 392 q0 14 -2 36 q-58 -69 -140 -142 q-11 -9 -17 -4 q-6 5 3 17 q199 278 246 373 q15 29 26 67 q5 17 20 11 q28 -13 40 -25 q13 -11 4 -26 q-71 -130 -147 -228 l5 -5 ZM516 471 q13 -7 12 -25 q1 4 -7 -122 q-10 -133 -50 -209 q-41 -77 -137 -138 q-13 -9 -19 -4 q-6 5 5 16 q128 135 142 338 q5 67 1 140 q-1 21 16 17 q17 -4 37 -13 ZM719 496 q13 -6 12 -27 q-1 -10 -1 -32 l-5 -376 q-2 -72 -23 -121 q-15 -35 -24 1 q-11 42 -11 116 q2 241 1 350 q0 52 -3 83 q-2 15 1 18 q3 2 18 -1 q22 -5 35 -11 ZM951 462 q24 -13 1 -21 q-13 -4 -29 -14 q-19 -11 -27 -14 q-19 -7 -34 6 q-168 123 -260 290 q-17 -32 -46 -74 q-109 -169 -234 -257 q-17 -13 -22 -7 q-6 6 8 21 q123 142 196 268 q61 105 79 157 q6 17 23 12 q22 -8 35 -19 q14 -11 5 -27 q-9 -14 -25 -42 q91 -127 212 -214 q21 -15 58 -33 q46 -24 60 -32 Z" /><glyph glyph-name="" unicode="&#x4efb;" d="M242 502 q14 -12 18 -33 q5 -19 5 -48 q3 -191 -1 -381 q-1 -53 -24 -83 q-18 -26 -31 3 q-10 27 -7 66 q8 194 3 400 q0 15 -2 35 q-72 -77 -148 -138 q-11 -9 -17 -3 q-6 6 3 18 q203 258 266 376 q17 35 27 67 q7 17 21 11 q28 -13 41 -26 q13 -12 3 -28 q-80 -139 -159 -234 l2 -2 ZM721 91 q81 4 117 5 q24 1 34 -21 q16 -35 -15 -35 q-242 -6 -465 -17 q-28 -1 -40 18 q-11 19 -9 25 q2 5 20 7 l213 12 l1 269 l-244 -11 q-19 -1 -31 20 q-15 30 3 32 l272 13 q0 97 -1 137 q0 40 -5 90 q-89 -21 -171 -26 q-20 -1 -21 7 q-1 8 18 14 q177 52 258 86 q65 28 111 60 q14 10 25 -1 q13 -12 27 -36 q10 -19 -12 -26 q-9 -3 -52 -21 q-38 -16 -70 -26 q-22 -7 -64 -19 l12 -6 q12 -7 11 -29 q-3 -60 -3 -78 q0 -33 -2 -123 q20 2 108 7 q126 8 164 16 q27 4 42 -25 q21 -41 -13 -41 q-77 1 -301 -11 q-3 -120 -3 -270 l86 4 Z" /><glyph glyph-name="" unicode="&#x4efd;" d="M261 477 q5 -23 5 -48 q5 -173 -2 -377 q-3 -54 -25 -83 q-20 -23 -31 4 q-8 22 -7 64 q9 197 5 395 q-2 35 -5 51 q-59 -71 -139 -143 q-10 -9 -16 -4 q-7 5 2 17 q197 284 238 369 q12 25 25 67 q4 18 20 12 q29 -13 42 -25 q12 -11 3 -27 q-71 -132 -145 -228 q4 -3 10 -9 q14 -13 20 -35 ZM585 381 q14 -9 9 -27 l-8 -35 q-4 -23 -8 -37 q-31 -126 -85 -199 q-60 -81 -176 -138 q-17 -8 -21 -2 q-4 6 11 18 q161 128 207 329 q8 33 12 88 l-101 -7 q-16 0 -27 26 q-9 21 -8 26 q-30 -33 -76 -69 q-10 -8 -15 -3 q-6 5 2 16 q135 194 172 299 q10 29 15 58 q3 19 19 12 q22 -8 42 -23 q12 -9 4 -26 q-78 -171 -158 -259 q2 1 10 1 q135 4 308 17 q17 1 28 8 l3 2 q1 1 2 1 q8 3 17 -1 q20 -11 34 -23 q12 -12 5 -26 q-9 -14 -12 -36 q-5 -35 -19 -165 q-12 -117 -23 -186 q-8 -48 -40 -65 q-39 -18 -45 7 q-2 6 -93 42 q-12 5 -10 11 q1 5 15 4 q103 -7 106 6 q23 145 43 368 l-142 -11 l3 -1 ZM957 434 q16 -13 14 -17 q-1 -4 -21 -6 q-11 -1 -27 -7 q-19 -7 -28 -9 q-21 -4 -37 13 q-156 160 -223 321 q-9 25 -28 47 q-9 9 -5 30 q7 27 23 15 q25 -21 49 -66 q76 -144 181 -237 q22 -20 54 -45 l48 -39 Z" /><glyph glyph-name="" unicode="&#x4eff;" d="M620 670 q-19 41 -85 128 q-19 24 11 17 q80 -20 128 -98 q24 -37 -3 -62 q-31 -28 -51 15 ZM260 524 q15 -13 19 -36 q4 -16 6 -51 q3 -184 -3 -392 q-1 -57 -24 -88 q-20 -26 -32 4 q-11 26 -8 68 q9 219 4 414 q0 17 -4 43 q-67 -76 -155 -145 q-11 -9 -17 -4 q-6 6 4 18 q193 246 255 370 q15 29 26 67 q5 18 21 11 q32 -17 43 -27 q12 -12 3 -28 q-69 -125 -144 -219 l6 -5 ZM585 396 q32 2 152 7 q19 1 33 10 q1 1 2 1 l2 1 q8 4 18 -1 q20 -11 34 -23 q12 -11 4 -24 q-8 -13 -11 -33 q-6 -36 -22 -146 q-14 -105 -25 -163 q-8 -47 -40 -63 q-40 -17 -46 7 q-2 7 -102 44 q-12 5 -11 11 q2 5 15 4 q116 -10 117 3 q25 126 46 316 q-185 -9 -176 -8 q-49 -253 -248 -386 q-17 -11 -22 -5 q-5 5 8 19 q173 174 209 449 q8 61 8 122 l-164 -8 q-18 -1 -30 21 q-15 30 3 32 q261 11 407 21 q121 8 151 15 q26 4 41 -26 q19 -41 -13 -41 q-99 1 -325 -11 q4 -6 1 -19 l-16 -126 Z" /><glyph glyph-name="" unicode="&#x4f01;" d="M520 341 q94 4 115 6 q47 5 60 9 q27 8 40 -20 q19 -41 -9 -41 q-24 1 -207 -7 q-2 -128 -2 -216 l111 5 q144 6 187 13 q31 5 47 -26 q21 -42 -12 -42 q-163 7 -718 -19 q-21 -1 -33 21 q-16 31 3 31 q52 3 172 7 l-3 127 q-1 69 -3 103 q-1 29 -6 60 q-2 17 13 15 q25 -5 44 -12 q11 -5 11 -23 l3 -267 l125 5 l0 208 q1 115 0 165 q-2 54 -6 81 q-2 21 16 17 q25 -6 47 -16 q12 -6 10 -26 q-3 -28 -3 -65 l-2 -93 ZM949 456 q28 -11 5 -21 q-13 -6 -27 -19 q-17 -15 -24 -19 q-19 -11 -39 0 q-232 118 -386 303 q-39 -54 -79 -101 q-149 -175 -328 -254 q-21 -10 -25 -2 q-4 7 14 20 q179 132 286 270 q73 94 116 178 q10 18 26 9 q17 -7 36 -23 q14 -14 0 -31 l-28 -40 q163 -148 309 -217 q26 -12 69 -27 q59 -20 75 -26 Z" /><glyph glyph-name="" unicode="&#x4f0a;" d="M254 474 q5 -27 5 -50 q3 -176 -1 -362 q-1 -56 -22 -85 q-19 -28 -33 2 q-12 25 -11 68 q9 200 4 386 q-2 29 -4 42 q-62 -68 -141 -132 q-11 -8 -17 -3 q-6 5 4 17 q194 258 250 370 q16 32 26 67 q6 18 21 11 q26 -11 44 -26 q12 -12 3 -28 q-79 -144 -157 -237 l9 -7 q16 -11 20 -33 ZM672 361 q32 1 67 3 l6 134 l-157 -6 l-1 -15 q-4 -59 -14 -120 l99 4 ZM586 672 q13 -8 12 -30 q-4 -32 -7 -96 l156 8 q3 45 7 136 l-93 -5 q-63 -4 -93 -5 l9 -4 q6 -2 9 -4 ZM525 490 l-176 -5 q-20 -1 -31 21 q-14 30 4 31 q134 4 206 7 q2 46 0 124 l0 9 l-48 -2 q-32 -2 -45 -2 q-16 -1 -27 25 q-8 21 -7 26 q1 5 15 5 q144 3 325 13 q19 1 28 7 q5 3 10 3 q7 0 12 -2 q21 -7 34 -17 q13 -9 5 -30 q-9 -22 -12 -48 q-2 -17 -4 -46 l-4 -51 q85 7 108 11 q25 4 40 -26 q19 -40 -14 -40 q-34 0 -138 -2 l-8 -137 q9 -2 16 -21 q8 -22 5 -28 q-3 -6 -22 -6 q-115 -2 -235 -6 q-51 -215 -243 -341 q-17 -11 -23 -6 q-6 5 8 19 q148 143 194 325 l-122 -3 q-26 0 -32 19 q-8 22 -5 28 q2 5 20 6 q53 1 150 5 q11 57 15 124 l1 11 Z" /><glyph glyph-name="" unicode="&#x4f0f;" d="M672 707 q-21 20 8 16 q73 -9 127 -73 q26 -31 5 -56 q-24 -29 -49 7 q-22 36 -91 106 ZM254 445 q2 -18 4 -47 q2 -190 -2 -350 q-1 -53 -20 -82 q-19 -26 -32 1 q-12 26 -11 67 q9 175 4 373 q-2 31 -5 45 q-58 -61 -136 -122 q-10 -8 -16 -3 q-6 5 3 17 q196 244 255 354 q14 28 25 63 q5 16 20 10 q28 -13 40 -25 q12 -11 3 -27 q-82 -143 -164 -234 l13 -9 q15 -12 19 -31 ZM525 489 q4 39 5 62 q7 124 2 246 q-1 26 18 21 q25 -7 41 -16 q13 -7 12 -32 q-3 -28 -5 -96 q-2 -79 -5 -125 q0 -9 -2 -28 l-2 -29 l99 6 q112 8 141 14 q24 4 38 -24 q18 -38 -13 -38 q-71 1 -268 -9 q90 -201 236 -333 q23 -22 64 -48 q51 -34 66 -46 q13 -10 13 -14 q0 -5 -15 -7 q-13 -3 -31 -12 q-19 -10 -29 -13 q-21 -5 -38 11 q-188 168 -277 406 q-49 -276 -278 -422 q-19 -12 -25 -7 q-6 5 10 20 q202 185 238 462 l-179 -8 q-17 -1 -28 20 q-14 28 3 30 l209 9 Z" /><glyph glyph-name="" unicode="&#x4f11;" d="M241 522 q15 -12 19 -33 q4 -21 4 -50 q3 -178 -1 -369 q-1 -56 -21 -85 q-19 -28 -33 1 q-11 25 -10 70 q9 212 3 392 q0 12 -2 28 q-62 -69 -139 -132 q-11 -8 -17 -3 q-6 6 3 18 q186 246 240 356 q12 26 24 65 q5 17 20 11 q27 -12 43 -26 q12 -12 3 -28 q-68 -124 -138 -214 l2 -1 ZM953 162 q12 -10 12 -14 q0 -5 -14 -8 q-13 -3 -31 -12 q-19 -9 -29 -12 q-20 -5 -35 10 q-158 154 -239 351 q-3 -177 -1 -427 q1 -63 -16 -100 q-10 -23 -18 -23 q-8 0 -17 21 q-18 44 -16 101 q6 251 7 382 q-124 -220 -266 -315 q-15 -11 -21 -5 q-5 6 9 22 q157 186 240 376 q-127 -5 -164 -7 q-19 0 -29 21 q-14 31 3 31 q203 9 229 11 l-1 143 q-2 59 -10 96 q-6 27 16 20 q27 -7 50 -24 q15 -11 12 -37 q-3 -36 -3 -72 l-3 -123 l82 5 q107 6 140 13 q25 6 39 -25 q18 -41 -13 -39 q-71 1 -232 -7 q81 -153 206 -271 q20 -19 55 -42 q45 -30 58 -40 Z" /><glyph glyph-name="" unicode="&#x4f17;" d="M152 407 q-21 -8 -25 -1 q-4 8 14 19 q170 114 252 238 q59 88 88 164 q6 18 24 10 q20 -7 37 -21 q14 -12 3 -30 l-50 -80 q122 -123 245 -172 q25 -9 68 -21 q51 -13 71 -20 q28 -9 4 -20 q-12 -6 -27 -20 q-16 -15 -25 -20 q-16 -10 -36 -1 q-205 87 -317 246 q-10 -16 -32 -45 q-119 -161 -294 -226 ZM432 151 q-13 19 -105 113 q-81 -178 -263 -285 q-14 -8 -18 -1 q-5 6 7 17 q197 180 251 388 q9 36 14 76 q1 19 19 12 q24 -7 39 -21 q12 -9 7 -27 q-20 -75 -48 -140 q78 -16 139 -83 q27 -30 6 -57 q-22 -27 -48 8 ZM955 13 q23 -14 0 -20 q-13 -4 -31 -14 q-18 -11 -28 -14 q-19 -7 -34 7 q-155 116 -233 284 q-72 -191 -257 -309 q-14 -10 -19 -4 q-5 6 8 19 q198 195 242 428 q6 34 10 87 q0 20 19 13 q22 -7 39 -19 q13 -8 8 -28 q-13 -71 -35 -145 q81 -135 195 -218 q21 -15 57 -34 q44 -23 59 -33 Z" /><glyph glyph-name="" unicode="&#x4f18;" d="M749 629 q-24 35 -87 98 q-19 19 8 16 q71 -7 121 -67 q25 -30 5 -54 q-24 -28 -47 7 ZM269 468 q5 -27 5 -50 q4 -181 -2 -357 q-1 -56 -21 -85 q-19 -28 -33 1 q-12 26 -11 69 q9 199 4 381 q-2 32 -6 46 q-63 -74 -148 -149 q-10 -9 -16 -4 q-7 6 2 18 q201 277 251 376 q15 31 26 68 q5 17 20 11 q25 -11 42 -26 q12 -10 3 -27 q-73 -131 -150 -230 l14 -9 q16 -13 20 -33 ZM576 544 l116 7 q101 6 139 14 q25 6 39 -25 q18 -39 -13 -39 q-49 0 -286 -11 q-18 -187 -75 -301 q-60 -119 -186 -212 q-17 -13 -23 -8 q-7 5 7 20 q182 196 213 498 q-11 0 -74 -3 q-49 -3 -83 -4 q-19 0 -28 21 q-15 31 2 31 q101 4 187 9 l2 23 q7 123 2 222 q-1 17 3 21 q3 3 15 0 q27 -7 42 -16 q13 -7 12 -32 q-3 -27 -5 -87 q-3 -76 -5 -110 l-1 -18 ZM935 69 q27 -23 6 -44 q-21 -19 -72 -25 q-80 -8 -167 0 q-53 4 -76 30 q-23 26 -25 82 q-2 54 0 138 l2 123 q-2 52 -4 78 q-1 19 16 15 q21 -3 43 -15 q14 -7 11 -24 q-4 -18 -6 -57 q-4 -153 -2 -256 q3 -51 48 -55 q71 -6 146 1 q29 4 33 26 l5 46 q3 30 6 47 q3 15 10 15 q7 0 8 -17 q3 -95 18 -108 Z" /><glyph glyph-name="" unicode="&#x4f19;" d="M688 378 q-9 -6 -14 -1 q-4 5 3 15 q114 168 125 189 l14 36 q6 17 21 9 q23 -12 42 -28 q13 -13 2 -27 q-118 -148 -193 -193 ZM340 535 q-10 13 -6 17 q3 4 17 -1 q82 -30 143 -125 q25 -38 1 -64 q-28 -28 -50 15 q-30 58 -105 158 ZM247 490 q15 -12 18 -32 q4 -20 4 -48 q2 -165 -3 -359 q-1 -55 -21 -83 q-19 -28 -33 2 q-11 25 -10 66 q9 200 4 383 q0 17 -1 25 q-53 -62 -141 -140 q-11 -9 -17 -4 q-7 6 3 18 q194 269 254 397 q15 34 26 73 q5 19 21 13 q29 -12 44 -26 q13 -10 5 -29 q-75 -151 -156 -254 l3 -2 ZM954 8 q22 -17 -3 -21 q-13 -2 -31 -10 q-21 -9 -31 -11 q-21 -5 -36 12 q-167 155 -244 371 q-57 -254 -285 -392 q-20 -12 -26 -7 q-6 5 11 20 q130 117 188 244 q58 130 71 339 q7 120 2 242 q-1 17 3 21 q4 4 16 0 q29 -7 44 -16 q15 -9 12 -34 q-3 -27 -5 -94 q-2 -77 -5 -122 q-4 -75 -15 -140 q77 -182 211 -309 q22 -21 61 -48 q46 -31 62 -45 Z" /><glyph glyph-name="" unicode="&#x4f1a;" d="M186 256 q-21 0 -31 22 q-15 31 3 31 q378 14 450 18 q126 6 165 13 q28 4 43 -27 q21 -43 -13 -41 q-87 3 -324 -5 l8 -11 q10 -16 -4 -31 q-81 -95 -163 -169 q86 10 329 33 q-34 45 -81 100 q-12 15 -8 20 q4 5 22 -3 q114 -47 190 -170 q30 -49 2 -77 q-28 -29 -54 20 q-20 38 -47 77 q-77 -15 -213 -36 q-117 -19 -169 -31 q-25 -6 -51 -18 q-15 -8 -23 4 q-16 25 -22 49 q-3 11 3 15 q0 1 5 3 q37 11 67 41 q68 70 126 144 q16 24 23 38 l-233 -9 ZM626 498 q21 3 31 -21 q14 -33 -12 -34 q-127 -8 -294 -13 q-24 -1 -34 17 q-10 18 -8 24 q1 7 16 8 l112 7 q72 3 109 6 l80 6 ZM953 452 q27 -12 4 -22 q-14 -6 -30 -19 q-18 -14 -27 -19 q-19 -10 -40 2 q-222 133 -369 325 q-36 -49 -82 -103 q-157 -183 -337 -276 q-22 -11 -27 -4 q-4 7 15 22 q179 141 298 292 q79 100 123 183 q10 18 26 9 q22 -12 34 -24 q13 -13 1 -30 l-16 -21 q-10 -15 -16 -22 q157 -154 299 -231 q26 -14 69 -31 l75 -31 Z" /><glyph glyph-name="" unicode="&#x4f1f;" d="M273 470 q5 -25 5 -49 q4 -179 -1 -367 q-1 -56 -22 -85 q-20 -27 -32 2 q-11 23 -10 68 q8 189 3 390 q-2 29 -4 43 q-60 -70 -143 -138 q-11 -8 -17 -3 q-6 5 3 17 q186 245 243 366 q13 30 24 67 q4 19 20 11 q25 -9 43 -25 q13 -10 4 -27 q-69 -132 -144 -229 l9 -7 q15 -14 19 -34 ZM605 358 q59 2 189 10 q20 1 33 7 q3 2 9 4 q6 1 14 -2 q20 -8 34 -19 q12 -9 5 -23 q-8 -11 -9 -25 q-5 -27 -14 -89 l-16 -101 q-8 -43 -37 -55 q-38 -16 -45 7 q-3 10 -65 35 q-11 5 -10 11 q1 5 14 4 q73 -6 76 5 q16 90 28 186 q-34 -1 -103 -5 l-103 -6 q-1 -87 -3 -180 q-3 -111 -26 -181 q-15 -52 -25 1 q-12 67 -12 174 l2 182 q-89 -6 -171 -9 q-19 -1 -32 27 q-10 22 -9 28 q1 5 18 5 l194 6 l0 104 l-107 -4 q-24 -1 -34 17 q-11 18 -9 24 q2 6 18 7 q40 3 132 7 l0 98 l-151 -6 q-16 -1 -26 20 q-13 30 3 30 q37 1 92 4 q70 3 82 3 l0 28 q0 74 -5 126 q-2 18 1 21 q3 2 21 -2 q23 -5 41 -15 q14 -8 13 -34 q-2 -27 -4 -98 l0 -23 l81 5 q89 6 124 12 q22 6 35 -24 q16 -37 -12 -37 q-38 1 -229 -7 l-1 -98 l155 9 q21 1 31 -21 q14 -33 -13 -34 l-173 -6 l-1 -103 Z" /><glyph glyph-name="" unicode="&#x4f20;" d="M252 493 q14 -14 18 -33 q2 -18 4 -49 q4 -186 -2 -362 q-1 -56 -21 -84 q-18 -29 -31 2 q-13 26 -10 67 q8 185 3 385 q0 12 -2 32 q-65 -78 -138 -141 q-11 -10 -17 -5 q-7 6 3 19 q188 266 246 391 q13 26 25 72 q6 18 21 12 q25 -11 43 -25 q13 -12 4 -28 q-77 -152 -151 -249 l5 -4 ZM585 476 q76 3 158 8 q116 8 156 15 q26 4 41 -25 q19 -42 -13 -40 q-60 1 -355 -12 l-28 -114 q82 5 199 8 q20 2 34 8 q10 8 23 0 q13 -8 32 -27 q12 -13 1 -27 q-97 -132 -174 -209 q28 -19 64 -50 q42 -37 26 -71 q-17 -34 -55 6 q-93 90 -227 183 q-17 11 -14 17 q3 5 22 1 q73 -16 152 -64 q12 19 61 90 q36 53 56 85 q-136 -3 -245 -11 l-6 0 q-23 0 -16 28 l36 144 l-161 -7 q-19 0 -30 21 q-15 31 3 31 l201 9 q24 105 26 116 l-110 -3 q-25 -1 -36 17 q-10 18 -8 24 q2 6 18 7 l147 7 l8 38 q17 91 22 131 q2 14 6 17 q4 2 18 -3 q22 -9 34 -19 q12 -11 7 -30 q-10 -33 -29 -113 l-4 -18 q30 1 90 5 q71 4 108 7 q22 3 32 -20 q15 -33 -13 -34 q-75 -5 -230 -11 l-27 -115 Z" /><glyph glyph-name="" unicode="&#x4f24;" d="M261 505 q15 -13 19 -34 q5 -23 5 -47 q3 -191 -1 -371 q-1 -54 -26 -81 q-21 -26 -31 3 q-10 26 -7 64 q8 175 4 389 l-3 43 q-67 -75 -155 -146 q-11 -9 -17 -4 q-7 6 3 18 q210 271 271 384 q16 32 28 68 q7 17 21 11 q27 -12 43 -27 q12 -12 2 -28 q-78 -135 -162 -237 l6 -5 ZM879 411 q14 -12 5 -26 q-8 -15 -11 -35 l-20 -152 q-13 -109 -23 -172 q-7 -48 -40 -65 q-38 -20 -46 6 q-2 7 -96 44 q-12 5 -10 11 q1 5 15 4 q108 -7 109 5 q23 134 43 338 l-159 -12 q-26 -151 -92 -244 q-67 -96 -203 -169 q-20 -10 -24 -4 q-5 7 11 20 q196 158 240 392 l-76 -5 q-63 -4 -71 -5 q-18 -1 -30 27 q-10 22 -9 28 q1 5 17 5 q63 2 178 8 q10 69 8 146 q0 24 20 19 q21 -6 42 -17 q14 -8 11 -30 q-3 -16 -6 -53 q-4 -40 -7 -61 l134 10 q21 1 31 9 q9 6 17 3 q2 0 4 -1 q3 -1 4 -2 q24 -13 34 -22 ZM908 645 q15 -39 -13 -39 q-42 0 -140 -5 q-133 -6 -222 -9 l-6 0 q-59 -84 -144 -151 q-10 -8 -15 -3 q-6 5 2 17 q137 200 172 293 q10 30 15 57 q4 18 20 12 q30 -13 44 -23 q13 -10 5 -27 q-35 -73 -63 -119 q142 5 208 10 q75 6 103 12 q21 6 34 -25 Z" /><glyph glyph-name="" unicode="&#x4f2a;" d="M383 692 q-18 19 9 16 q72 -9 121 -72 q25 -30 3 -56 q-27 -29 -50 8 q-23 39 -83 104 ZM272 485 q3 -17 5 -51 q2 -199 -2 -374 q-1 -58 -21 -87 q-19 -29 -33 1 q-14 28 -11 71 q10 198 3 399 q0 20 -3 38 q-64 -80 -149 -159 q-11 -9 -17 -4 q-7 5 2 18 q193 284 241 388 q13 30 24 71 q5 19 21 13 q28 -12 45 -26 q13 -10 4 -28 q-65 -129 -138 -230 l10 -7 q16 -13 19 -33 ZM894 534 q14 -12 5 -29 q-9 -17 -12 -42 q-7 -52 -24 -201 q-16 -149 -27 -228 q-8 -54 -41 -72 q-39 -21 -47 6 q-3 9 -95 47 q-12 5 -11 11 q2 6 16 5 q105 -8 108 6 q27 193 52 457 q-32 -3 -97 -7 l-97 -7 q-13 -76 -33 -141 q3 3 14 1 q74 -11 131 -78 q27 -31 5 -57 q-25 -30 -50 7 q-18 28 -95 111 q-5 5 -7 11 q-70 -223 -274 -362 q-20 -13 -26 -8 q-7 5 10 21 q202 197 256 491 q-94 -7 -178 -12 q-19 -1 -32 26 q-11 23 -9 28 q2 6 18 6 q108 3 210 9 q5 38 9 78 q10 96 8 200 q-1 17 3 21 q4 4 17 0 q26 -7 43 -17 q15 -9 12 -33 q-3 -28 -7 -80 l-8 -94 q-7 -62 -9 -71 q91 4 170 11 q21 1 33 8 q8 4 11 4 q6 0 13 -3 q18 -10 35 -23 Z" /><glyph glyph-name="" unicode="&#x4f30;" d="M259 513 q15 -13 19 -35 q4 -20 4 -51 q2 -181 -3 -380 q-1 -58 -23 -88 q-19 -28 -33 2 q-12 24 -10 70 q11 212 6 405 q0 13 -2 33 q-69 -78 -148 -146 q-11 -9 -17 -4 q-7 6 3 18 q200 274 254 382 q18 37 27 70 q6 18 21 11 q27 -12 42 -26 q13 -12 4 -28 q-75 -134 -148 -230 l4 -3 ZM471 250 q5 -141 6 -191 l222 7 l49 3 q6 144 11 210 q-225 -9 -289 -13 l1 -16 ZM746 571 q118 6 154 13 q28 5 43 -27 q19 -43 -14 -41 q-94 3 -284 -5 q-2 -58 -4 -183 l96 4 q21 1 35 9 l1 0 q8 7 22 2 q23 -8 33 -16 q13 -10 5 -28 q-6 -15 -9 -39 q-2 -21 -14 -195 q3 -3 8 -17 q8 -21 5 -27 q-3 -6 -20 -6 q-54 -1 -159 -5 q-115 -4 -167 -5 l0 -29 q0 -18 -21 -29 q-27 -14 -32 -2 q-5 12 -6 33 q-10 278 -11 289 q-3 27 -8 46 q-4 12 -2 15 q2 2 15 1 q20 -3 36 -10 l132 6 l3 183 l-233 -10 q-21 0 -31 22 q-14 32 4 32 l261 12 q1 63 1 167 q0 52 -5 88 q-1 13 2 17 q3 3 15 1 q32 -9 48 -17 q12 -7 11 -28 q-4 -37 -5 -72 l-5 -154 l100 5 Z" /><glyph glyph-name="" unicode="&#x4f34;" d="M686 547 q-9 -5 -13 0 q-5 5 2 14 q99 146 101 150 q7 14 12 29 q4 15 19 8 q30 -16 41 -26 q13 -12 2 -26 q-100 -113 -164 -149 ZM479 557 q-21 37 -93 125 q-9 10 -6 15 q3 4 16 0 q76 -20 130 -94 q23 -35 0 -58 q-26 -27 -47 12 ZM266 460 q5 -23 5 -47 q3 -182 -3 -371 q-1 -51 -24 -81 q-20 -25 -30 4 q-8 20 -7 63 q10 184 6 388 q-2 35 -5 52 q-54 -70 -136 -145 q-10 -10 -16 -5 q-7 6 2 18 q188 278 229 371 q10 23 23 69 q4 18 19 12 q24 -9 43 -24 q12 -9 4 -27 q-69 -137 -139 -233 q4 -3 11 -10 q14 -14 18 -34 ZM641 302 l99 6 q119 6 157 13 q29 5 44 -25 q19 -42 -13 -40 q-101 3 -288 -6 l-1 -126 q-2 -107 -24 -180 q-16 -49 -25 1 q-13 65 -13 173 l1 128 l-246 -14 q-19 -1 -30 20 q-15 31 3 31 q153 9 273 15 l0 134 l-162 -7 q-25 -1 -36 18 q-11 17 -9 23 q2 6 18 7 l188 11 q0 139 -1 201 q0 46 -5 126 q-2 17 1 20 q3 3 20 -1 q24 -7 40 -15 q15 -8 14 -34 q-3 -40 -3 -99 l-1 -195 l168 11 q22 3 32 -20 q15 -33 -12 -34 q-94 -6 -188 -9 l-1 -133 Z" /><glyph glyph-name="" unicode="&#x4f38;" d="M258 522 q16 -12 20 -33 q4 -21 4 -50 q3 -175 -1 -369 q-1 -57 -21 -86 q-19 -28 -34 2 q-12 26 -11 69 q9 186 4 395 q0 17 -3 30 q-65 -79 -161 -158 q-11 -9 -17 -4 q-7 6 3 18 q193 259 249 379 q15 29 26 69 q4 20 21 12 q25 -11 45 -27 q13 -11 4 -28 q-70 -132 -133 -215 l5 -4 ZM808 300 l3 124 q-48 -1 -152 -5 l-1 -124 l150 5 ZM456 412 l3 -124 l70 2 q47 2 68 2 l0 124 q-23 0 -70 -2 l-71 -2 ZM596 583 q-97 -4 -146 -7 q0 -17 1 -26 l3 -91 q99 4 143 5 l-1 119 ZM813 473 l5 117 q-60 -1 -158 -5 l-1 -118 l57 2 q30 2 96 4 l1 0 ZM793 640 q20 1 36 9 l9 3 q8 0 12 -2 q9 -4 31 -17 q13 -8 5 -24 q-6 -13 -6 -29 q-8 -113 -10 -302 q-1 -44 -34 -59 q-21 -8 -24 4 q-1 2 -3 24 q-23 0 -74 -2 l-77 -2 l-2 -134 q0 -105 -23 -179 q-15 -50 -24 0 q-14 75 -12 172 l0 139 q-44 -2 -138 -4 l0 -10 q0 -19 -20 -30 q-26 -13 -30 -3 q-5 13 -6 36 l-14 338 q-3 31 -8 49 q-4 13 -2 16 q2 2 15 1 q13 -1 31 -9 q56 3 171 7 l-1 51 q0 72 -5 125 q-2 17 1 20 q2 2 20 -2 q22 -4 41 -14 q14 -8 12 -33 q-4 -56 -4 -97 l0 -47 l133 5 Z" /><glyph glyph-name="" unicode="&#x4f3c;" d="M599 574 q-34 53 -115 139 q-11 12 -8 17 q3 5 17 1 q90 -21 153 -103 q28 -37 5 -64 q-26 -31 -52 10 ZM252 486 q3 -16 5 -49 q4 -184 -2 -362 q-1 -57 -22 -86 q-19 -27 -33 2 q-11 27 -10 68 q9 204 4 386 q0 21 -3 39 q-55 -63 -134 -130 q-11 -8 -17 -3 q-6 6 3 18 q181 243 232 352 q14 30 24 65 q4 18 20 12 q26 -12 43 -26 q12 -11 3 -27 q-69 -128 -139 -219 l7 -6 q16 -13 19 -34 ZM605 351 q-35 -45 -90 -100 q-74 -72 -87 -86 q-10 -10 -30 -36 q-11 -15 -24 -6 q-24 14 -43 36 q-7 7 -5 13 q-3 7 7 13 q41 21 42 52 q8 145 2 309 q-2 32 -5 47 q-4 19 16 18 q22 -1 43 -9 q11 -5 11 -22 q1 -157 -6 -322 q119 90 153 114 q23 17 29 10 q6 -7 -13 -31 ZM941 94 q33 -48 8 -77 q-25 -28 -53 18 q-46 76 -164 213 q-84 -149 -258 -253 q-22 -13 -28 -7 q-5 6 14 23 q249 211 310 575 q12 72 14 155 q1 16 5 19 q3 4 16 1 q24 -8 43 -19 q15 -9 11 -32 q-4 -22 -10 -63 q-7 -49 -10 -66 q-35 -193 -94 -309 q110 -56 196 -178 Z" /><glyph glyph-name="" unicode="&#x4f46;" d="M785 514 q3 71 8 144 q-249 -9 -318 -13 l2 -29 q4 -62 5 -113 l115 4 q68 2 106 4 l82 3 ZM487 297 l209 6 q44 3 79 3 l3 71 q2 53 4 85 l-146 -5 q-95 -3 -152 -4 l3 -156 ZM488 244 q0 -22 -20 -33 q-26 -16 -31 -3 q-6 17 -6 38 q-18 396 -17 390 q-2 27 -9 55 q-4 13 -2 16 q2 2 15 1 q16 -2 33 -11 l319 14 q19 0 36 10 q6 5 13 3 q2 0 8 -2 q16 -6 32 -18 q13 -10 5 -25 q-6 -13 -8 -33 q-12 -175 -18 -357 q-1 -50 -36 -65 q-21 -10 -24 4 l-3 25 l-287 -9 ZM269 493 q5 -25 6 -52 q4 -210 -2 -385 q-1 -60 -25 -91 q-21 -27 -32 4 q-10 26 -7 70 q8 216 3 406 q0 28 -3 52 q-68 -79 -154 -150 q-11 -9 -17 -4 q-6 5 3 18 q194 263 248 373 q15 29 26 67 q6 18 21 12 q29 -12 44 -26 q13 -12 4 -28 q-71 -132 -140 -221 l7 -7 q14 -17 18 -38 ZM952 98 q20 -44 -14 -41 q-124 6 -591 -14 q-19 -1 -30 22 q-15 32 3 32 l432 17 q110 4 156 11 q29 5 44 -27 Z" /><glyph glyph-name="" unicode="&#x4f4d;" d="M379 533 q-11 19 -9 25 q2 5 19 6 q289 13 323 15 q78 4 116 8 q24 1 34 -22 q15 -34 -14 -35 q-206 -11 -431 -16 q-27 0 -38 19 ZM435 436 q83 -73 129 -208 q16 -50 -14 -70 q-30 -19 -43 31 q-19 71 -87 234 q-7 18 -3 22 q5 3 18 -9 ZM612 632 q-21 49 -75 133 q-15 24 12 16 q73 -25 117 -105 q21 -38 -5 -60 q-14 -13 -28 -8 q-14 4 -21 24 ZM240 483 q15 -15 19 -36 q5 -19 7 -48 q3 -172 -2 -363 q-3 -56 -26 -83 q-19 -24 -30 5 q-7 21 -6 63 q9 185 5 379 q-2 32 -4 48 q-68 -74 -144 -139 q-11 -9 -17 -4 q-6 5 3 18 q205 272 263 389 q13 25 28 70 q6 18 21 12 q25 -11 42 -27 q13 -10 4 -28 q-82 -148 -167 -252 l4 -4 ZM748 108 q132 7 161 12 q29 4 43 -27 q19 -42 -13 -40 q-127 6 -608 -14 q-19 -1 -30 21 q-14 31 4 31 q169 7 311 12 q109 270 116 295 q6 21 12 64 q1 19 18 14 q25 -8 43 -19 q13 -8 7 -25 q-85 -214 -165 -328 l101 4 Z" /><glyph glyph-name="" unicode="&#x4f4e;" d="M238 520 q14 -18 18 -37 q5 -23 5 -49 q3 -190 -3 -389 q-1 -55 -25 -86 q-21 -24 -31 5 q-7 27 -5 65 q9 203 5 408 q0 24 -3 45 q-57 -73 -138 -146 q-10 -10 -16 -5 q-7 6 2 18 q182 265 227 368 q12 27 22 68 q4 18 20 12 q26 -10 42 -23 q13 -11 4 -27 q-66 -134 -130 -221 l6 -6 ZM576 119 q71 -16 118 -82 q22 -31 -1 -54 q-26 -26 -46 11 q-16 28 -81 110 q-17 22 10 15 ZM590 677 q-53 -14 -127 -24 q0 -145 -1 -214 q32 3 87 6 l77 6 q-9 55 -14 95 q-7 62 -22 130 l0 1 ZM730 459 q93 8 116 14 q24 6 37 -24 q18 -38 -11 -38 q-58 0 -178 -8 q57 -259 195 -359 q21 -16 29 2 l29 52 q8 12 13 9 q6 -4 2 -19 q-17 -64 -13 -96 q6 -43 -34 -35 q-30 7 -65 37 q-153 129 -213 405 l-175 -12 q-3 -128 -9 -289 q85 56 128 82 q22 14 27 7 q5 -7 -13 -28 q-30 -35 -79 -77 q-62 -52 -76 -66 q-11 -10 -28 -31 q-10 -13 -23 -5 q-21 15 -36 35 q-7 10 -3 16 q2 7 8 10 q35 21 38 63 q12 273 3 502 q-1 35 -6 68 q-4 23 16 19 q18 -1 41 -10 q3 -1 7 -5 q147 46 232 94 q30 15 53 33 q13 11 25 4 q22 -13 38 -30 q15 -16 -7 -25 q-91 -42 -168 -66 l15 -6 q17 -7 17 -25 q0 -41 8 -103 q5 -42 14 -99 l46 4 Z" /><glyph glyph-name="" unicode="&#x4f4f;" d="M598 651 q-23 51 -82 134 q-17 25 12 17 q77 -22 125 -102 q23 -39 -3 -63 q-32 -31 -52 14 ZM257 503 q15 -14 19 -33 q4 -21 4 -50 q4 -188 -2 -378 q-1 -56 -21 -85 q-21 -28 -33 1 q-12 27 -11 69 q9 195 4 402 q0 22 -3 40 q-67 -70 -152 -137 q-11 -9 -17 -3 q-6 5 4 17 q214 274 273 381 q20 36 29 67 q7 18 22 11 q23 -10 44 -27 q13 -12 2 -29 q-82 -140 -170 -241 l8 -5 ZM796 366 q22 3 32 -21 q14 -34 -13 -35 q-111 -6 -168 -7 q-2 -138 -2 -229 l101 4 q117 6 155 13 q28 4 43 -28 q20 -43 -14 -41 q-103 4 -580 -15 q-20 0 -30 22 q-15 32 3 33 l260 9 q0 161 1 230 l-132 -4 q-25 -1 -36 18 q-10 19 -8 25 q2 6 18 7 q51 3 158 7 q0 69 -1 99 q0 38 -5 86 l-1 6 l-175 -6 q-18 -1 -27 21 q-14 31 3 31 q201 6 337 14 q98 6 130 13 q23 5 36 -25 q17 -39 -13 -39 q-38 1 -242 -7 q12 -4 17 -7 q12 -6 11 -27 q-4 -38 -4 -69 l-2 -87 l148 9 Z" /><glyph glyph-name="" unicode="&#x4f50;" d="M239 482 q15 -14 18 -33 q3 -17 5 -51 q2 -204 -2 -374 q-1 -57 -21 -86 q-18 -28 -32 2 q-11 27 -10 69 q10 186 4 398 q0 20 -3 35 q-56 -65 -140 -140 q-11 -9 -17 -4 q-7 6 3 18 q202 273 263 404 q16 35 26 74 q6 18 20 12 q26 -11 43 -25 q12 -11 3 -27 q-77 -157 -165 -268 l5 -4 ZM766 60 q122 7 151 12 q27 4 42 -27 q18 -42 -14 -40 q-105 5 -565 -13 q-19 -1 -30 22 q-14 31 4 31 l268 10 q-1 42 0 114 l0 94 q0 17 -4 57 l0 3 l-44 -1 q-29 0 -43 -1 q-24 -1 -34 18 q-8 15 -9 22 q-72 -136 -187 -240 q-20 -18 -26 -13 q-6 5 10 27 q141 191 221 413 l-128 -5 q-18 0 -28 20 q-14 30 3 30 l171 6 q48 139 61 212 q2 20 22 14 q23 -7 39 -18 q15 -9 8 -28 q-26 -75 -63 -176 l130 7 q103 8 140 15 q23 4 37 -25 q18 -37 -12 -37 q-37 0 -314 -12 q-37 -102 -79 -182 q6 2 12 2 l220 11 q53 4 82 7 q22 3 31 -21 q14 -34 -12 -35 q-52 -4 -158 -8 q2 0 5 -2 q3 -1 4 -2 q12 -5 11 -22 q-1 -6 -1 -20 l-1 -25 q-3 -153 -3 -197 l83 3 Z" /><glyph glyph-name="" unicode="&#x4f53;" d="M235 524 q14 -14 17 -34 q3 -18 5 -50 q4 -193 -2 -378 q-1 -57 -21 -86 q-18 -28 -32 2 q-12 26 -9 68 q8 195 3 402 q0 10 -2 30 q-59 -68 -138 -132 q-10 -8 -16 -3 q-6 5 3 17 q189 254 239 353 q11 24 24 64 q6 18 20 11 q30 -14 41 -25 q13 -10 4 -27 q-70 -127 -137 -211 l1 -1 ZM686 600 q101 8 138 15 q24 4 39 -25 q18 -41 -13 -39 q-71 0 -220 -8 q89 -156 212 -261 q21 -18 58 -41 q45 -29 60 -40 q12 -9 12 -13 q0 -4 -14 -8 q-13 -3 -31 -12 q-19 -10 -29 -13 q-20 -7 -36 9 q-167 151 -252 348 q-2 -178 -2 -291 l107 8 q20 1 30 -20 q14 -33 -12 -34 l-125 -6 l1 -118 q1 -64 -16 -101 q-10 -23 -18 -23 q-8 0 -17 22 q-18 44 -16 101 l3 116 l-94 -5 q-22 -1 -32 17 q-10 18 -8 24 q1 7 15 8 q80 6 120 8 l3 269 q-122 -229 -261 -332 q-15 -11 -20 -5 q-5 5 8 21 q148 191 223 365 l-151 -8 q-19 -1 -28 20 q-15 31 2 31 l122 6 q74 5 106 6 l-1 122 q0 49 -10 96 q-6 27 16 20 q27 -7 50 -24 q15 -11 12 -37 q-1 -8 -3 -73 l-2 -100 l74 5 Z" /><glyph glyph-name="" unicode="&#x4f55;" d="M578 279 q1 71 5 184 q-60 -1 -142 -5 l0 -12 q3 -72 3 -171 l134 4 ZM444 208 q0 -16 -19 -25 q-25 -12 -28 -2 q-5 10 -5 29 l-7 251 q-1 23 -7 40 q-4 12 -2 14 q2 3 14 1 q19 -3 32 -9 l142 5 q17 1 28 9 q5 3 9 3 q7 2 14 -1 q19 -6 28 -14 q11 -9 5 -24 q-4 -13 -6 -35 q-4 -36 -10 -174 q2 -2 7 -15 q7 -19 5 -25 q-3 -6 -17 -7 q-33 0 -91 -2 q-67 -3 -92 -3 l0 -16 ZM245 545 q14 -14 18 -35 q3 -15 5 -48 q3 -183 -3 -382 q-1 -54 -24 -84 q-20 -25 -31 4 q-9 26 -6 64 q8 185 4 401 q0 14 -2 36 q-61 -70 -146 -141 q-11 -8 -17 -3 q-6 5 3 17 q202 270 252 364 q15 29 26 65 q6 17 20 11 q27 -12 42 -26 q12 -11 3 -27 l-43 -72 q1 1 4 1 q247 7 406 17 q114 8 154 15 q24 4 38 -25 q19 -39 -13 -39 q-70 0 -142 -4 l1 0 q12 -8 9 -27 q-4 -34 -4 -59 q-1 -65 -2 -253 q0 -189 -2 -292 q-1 -49 -29 -71 q-36 -29 -46 0 q-4 12 -103 45 q-11 4 -10 10 q0 7 13 7 q111 -2 111 11 q8 253 6 574 q0 30 -4 53 q-201 -9 -357 -14 q-20 0 -29 21 q-7 13 -7 21 q-49 -77 -96 -134 l1 -1 Z" /><glyph glyph-name="" unicode="&#x4f59;" d="M326 214 q12 10 17 8 q5 -3 1 -16 q-26 -89 -135 -165 q-56 -38 -66 6 q-5 30 22 47 q83 51 161 120 ZM802 109 q35 -34 16 -65 q-20 -31 -53 6 q-47 54 -161 150 q-13 11 -11 17 q3 5 19 1 q97 -21 190 -109 ZM344 478 q-23 -1 -33 17 q-6 11 -8 21 q-96 -83 -218 -139 q-22 -10 -25 -2 q-4 7 14 21 q175 129 286 262 q72 86 120 170 q10 19 27 9 q20 -10 35 -25 q14 -13 0 -31 q-16 -19 -25 -32 q144 -139 287 -213 q25 -13 68 -29 q58 -22 72 -28 q28 -11 4 -21 q-13 -6 -28 -18 q-17 -15 -25 -19 q-19 -9 -38 2 q-220 120 -360 300 q-43 -57 -85 -101 q-50 -55 -97 -96 l5 0 q45 3 120 6 q87 3 116 5 l85 6 q21 1 30 -21 q15 -33 -12 -33 q-77 -4 -156 -6 l8 -5 q12 -6 9 -24 l-3 -48 l-1 -71 l51 2 q34 2 46 2 q138 8 173 14 q25 4 39 -25 q19 -39 -13 -39 q-75 1 -296 -6 q0 -182 -2 -274 q-1 -48 -29 -70 q-36 -28 -47 0 q-4 11 -101 43 q-12 4 -11 11 q1 7 14 6 q109 -2 109 11 q5 148 5 271 q-253 -7 -276 -7 q-19 0 -30 21 q-15 28 3 30 q143 2 303 8 l0 100 q0 27 -4 48 l-106 -3 Z" /><glyph glyph-name="" unicode="&#x4f5b;" d="M241 534 q15 -15 19 -35 q6 -22 6 -51 q3 -179 -2 -387 q-3 -56 -25 -85 q-20 -25 -31 5 q-8 18 -6 65 q9 198 5 405 q-2 33 -5 48 q-59 -68 -137 -134 q-10 -9 -16 -4 q-6 6 3 18 q191 263 236 353 q11 24 24 64 q5 17 20 11 q30 -14 41 -25 q13 -11 4 -26 q-75 -135 -142 -217 l6 -5 ZM634 345 l1 114 l-86 -3 q-1 -62 -6 -115 l91 4 ZM484 338 q3 37 5 116 q-54 -2 -81 -2 l-10 -119 l86 5 ZM549 620 l0 -112 l86 3 l0 113 l-86 -4 ZM697 626 l-1 -112 l83 3 q2 42 8 114 l-90 -5 ZM879 360 q16 -5 33 -18 q12 -9 5 -21 q-7 -9 -8 -22 l-10 -75 q-6 -54 -11 -83 q-7 -39 -35 -50 q-38 -15 -43 7 q-2 7 -67 31 q-11 5 -10 10 q1 6 14 5 q75 -5 76 4 q8 43 21 152 l-151 -5 l-3 -176 q-2 -106 -24 -178 q-15 -50 -23 1 q-13 69 -11 171 l2 179 l-96 -4 q-28 -199 -181 -317 q-15 -12 -21 -7 q-6 5 5 19 q115 140 137 302 q-82 -4 -121 -7 q-7 0 -12 3 q-7 3 -6 16 q10 89 11 146 q2 36 -1 58 q-1 16 17 13 q17 -3 34 -11 l89 3 q0 78 -1 111 l-77 -3 q-16 0 -28 26 q-9 20 -7 26 q1 5 16 4 q29 0 95 2 q-1 59 -6 112 q-1 25 17 20 q22 -5 39 -14 q13 -8 13 -32 q-1 -24 -1 -85 l86 3 l0 24 q0 72 -5 124 q-1 18 2 20 q2 3 19 -1 q22 -5 39 -14 q14 -8 12 -34 q-2 -24 -4 -97 l0 -19 l73 3 q20 1 29 7 q6 2 9 2 q4 1 11 -2 q15 -5 27 -14 q9 -8 4 -24 q-6 -14 -7 -29 q-5 -35 -10 -110 q4 -4 7 -15 q8 -21 5 -27 q-3 -6 -21 -6 q-62 0 -130 -3 l-1 -113 l122 4 q26 1 43 9 q8 3 16 1 l4 -2 Z" /><glyph glyph-name="" unicode="&#x4f5c;" d="M273 494 q5 -28 5 -52 q3 -155 -2 -373 q0 -55 -21 -87 q-18 -29 -33 1 q-13 25 -11 71 q9 187 4 398 q-2 29 -5 43 q-67 -78 -155 -148 q-11 -9 -17 -3 q-6 5 4 17 q188 253 240 358 q15 29 26 65 q6 18 21 11 q27 -11 44 -27 q13 -11 4 -29 q-72 -124 -135 -205 l11 -7 q16 -13 20 -33 ZM523 575 q-8 0 -12 1 q-70 -97 -168 -179 q-11 -9 -17 -4 q-6 5 3 18 q165 241 209 345 q11 25 21 66 q6 18 21 12 q26 -11 47 -26 q13 -11 4 -28 q-38 -78 -85 -152 q162 9 218 14 q78 7 108 17 q28 9 45 -22 q25 -42 -6 -44 q-37 -1 -123 -5 q-123 -7 -177 -9 q4 -4 5 -25 q0 -52 -1 -77 l-1 -37 q112 6 134 8 q48 3 68 10 q26 8 40 -21 q19 -42 -9 -42 q-24 0 -233 -9 q-1 -25 -1 -74 l-1 -78 q134 6 161 8 q50 3 74 9 q26 8 41 -22 q20 -43 -9 -41 q-29 1 -268 -7 q-1 -51 -3 -105 q-3 -86 -26 -142 q-15 -39 -26 1 q-12 53 -12 136 q4 274 4 411 q0 22 -3 94 l-22 -1 Z" /><glyph glyph-name="" unicode="&#x4f60;" d="M376 407 q-10 -9 -16 -4 q-6 5 1 18 q136 220 170 321 q11 30 16 63 q3 20 20 13 q27 -9 47 -24 q13 -11 6 -28 q-30 -69 -63 -130 l126 5 q74 3 116 4 q19 1 35 10 q10 11 27 2 q26 -15 41 -30 q20 -18 2 -30 q-19 -13 -30 -25 q-21 -23 -88 -107 q-19 -18 -25 -14 q-7 4 1 28 q16 44 46 110 q-161 -5 -286 -12 q-61 -95 -146 -170 ZM258 528 q16 -14 20 -34 q5 -28 5 -52 q4 -182 -1 -374 q-1 -57 -23 -87 q-18 -29 -32 2 q-13 27 -10 70 q8 193 3 398 q0 22 -3 38 q-66 -71 -148 -135 q-11 -8 -17 -3 q-6 5 4 17 q191 244 251 357 q15 29 26 65 q6 17 21 10 q27 -12 42 -26 q12 -11 3 -28 q-74 -127 -146 -215 l5 -3 ZM499 358 q10 13 16 11 q6 -2 4 -16 q-13 -95 -113 -196 q-50 -52 -67 -10 q-12 29 13 52 q85 80 147 159 ZM656 489 q12 -6 9 -24 q-4 -30 -4 -48 q-2 -51 -2 -176 l-2 -204 q0 -49 -30 -72 q-36 -28 -48 1 q-4 11 -109 44 q-12 4 -11 11 q1 7 14 7 q117 -3 118 10 q6 195 4 407 q0 30 -5 50 q-2 11 2 13 q3 2 17 -1 q28 -7 47 -18 ZM923 218 q31 -44 5 -74 q-27 -29 -55 16 q-34 55 -146 183 q-13 14 -9 19 q4 5 21 -1 q102 -36 184 -143 Z" /><glyph glyph-name="" unicode="&#x4f69;" d="M223 496 q3 -16 5 -49 q4 -207 -2 -390 q-1 -57 -22 -84 q-17 -27 -29 3 q-8 23 -7 65 q8 200 3 411 q0 30 -4 50 q-48 -61 -118 -123 q-9 -9 -15 -4 q-6 5 2 17 q173 254 208 330 q12 27 21 61 q4 16 18 10 q22 -9 39 -22 q12 -10 3 -25 q-67 -125 -129 -207 q4 -3 10 -9 q13 -13 17 -34 ZM656 468 q16 1 28 8 q6 2 8 2 q3 1 10 -1 q23 -10 27 -13 q12 -7 6 -19 q-5 -13 -5 -24 q-1 -24 -1 -99 q0 -71 -2 -110 q-1 -32 -23 -45 q-33 -20 -40 1 q-2 7 -37 21 q-11 5 -10 10 q1 5 12 5 q42 -1 42 10 q5 105 5 208 l-69 -2 q0 -200 -2 -314 q-2 -72 -19 -121 q-13 -34 -21 1 q-11 47 -11 116 q2 165 0 316 l-59 -3 l0 -3 q2 -121 0 -211 q0 -28 -14 -45 q-16 -19 -27 -1 q-10 16 -10 40 q4 123 1 225 q-2 19 -6 35 q-5 15 10 12 q18 -4 26 -7 l1 0 q26 2 78 4 l0 19 q0 23 -3 83 l0 3 l-64 -2 q-18 -1 -27 15 q-14 27 7 28 q142 8 152 9 q21 1 61 5 q18 3 27 -18 q11 -29 -11 -30 q-64 -4 -95 -5 q7 -5 7 -25 l0 -80 l48 2 ZM785 763 q7 6 17 1 q14 -6 29 -19 q11 -11 5 -27 q-10 -29 -11 -88 q-10 -267 12 -393 q21 -119 80 -169 q9 -8 13 3 q16 40 29 65 q6 11 11 9 q5 -2 3 -15 q-17 -75 -16 -114 q3 -39 -28 -34 q-25 5 -50 28 q-71 67 -95 204 q-26 151 -15 490 q-238 -7 -359 -14 q-1 -28 -1 -92 l0 -130 q-2 -188 -29 -283 q-29 -102 -109 -188 q-11 -12 -18 -8 q-7 4 1 18 q97 175 98 463 q1 137 -6 258 q-1 15 2 18 q3 3 14 1 q9 -2 28 -9 l358 14 q21 1 35 10 l2 1 Z" /><glyph glyph-name="" unicode="&#x4f6c;" d="M247 491 q14 -16 18 -37 q5 -23 5 -49 q3 -168 -2 -362 q-1 -56 -24 -86 q-17 -25 -30 4 q-8 22 -7 66 q9 182 5 382 q0 22 -3 43 q-59 -69 -144 -140 q-11 -9 -17 -4 q-6 6 4 18 q199 260 259 385 q15 29 26 69 q6 18 20 12 q23 -11 41 -25 q12 -11 3 -27 q-74 -142 -156 -246 l2 -3 ZM734 472 q108 4 155 11 q27 5 41 -25 q20 -41 -12 -39 q-86 4 -248 -2 q-70 -73 -134 -124 q-1 -13 -1 -39 q-2 -54 -2 -90 q120 61 186 118 q29 25 40 38 q12 13 22 6 q17 -11 30 -30 q10 -16 -5 -26 q-152 -99 -274 -129 q1 -10 1 -31 l1 -32 q1 -41 53 -45 q96 -8 195 1 q35 4 39 24 q13 88 12 84 q3 14 10 14 q6 -1 7 -17 q5 -85 20 -98 q26 -21 4 -41 q-22 -21 -78 -25 q-101 -9 -216 -1 q-57 4 -82 29 q-24 23 -26 74 q-1 35 0 87 l1 80 q-74 -54 -170 -104 q-26 -13 -30 -6 q-4 7 18 23 q94 70 180 146 l-1 16 q0 16 16 14 q10 -2 15 -4 q50 47 87 85 q-33 -1 -117 -5 l-135 -6 q-19 -1 -30 21 q-14 30 4 30 q113 4 211 9 q0 92 1 133 l-43 -1 q-29 0 -43 -1 q-24 -1 -34 18 q-9 18 -8 24 q1 6 16 7 l112 6 l0 89 q0 29 -5 67 q-1 19 14 15 q27 -4 48 -15 q12 -5 9 -23 q-3 -22 -3 -52 l-2 -78 l36 2 q51 4 79 7 q21 1 31 -21 q8 -20 5 -27 q-2 -6 -17 -8 q-44 -3 -135 -7 q-2 -82 -2 -133 l58 3 q11 12 33 38 q97 116 159 219 q10 18 26 9 q19 -11 32 -24 q12 -13 0 -30 q-112 -148 -167 -209 l13 1 Z" /><glyph glyph-name="" unicode="&#x4f73;" d="M437 579 q-25 0 -36 18 q-10 19 -8 25 q1 6 17 7 q52 3 161 7 l0 105 q-2 46 -5 69 q-2 19 14 15 q25 -4 48 -14 q11 -6 10 -24 q-3 -22 -3 -54 l-2 -94 l148 10 q22 3 32 -21 q14 -33 -13 -34 q-116 -6 -169 -8 l-1 -131 l46 2 q32 2 42 2 q98 4 139 11 q25 4 38 -25 q19 -39 -12 -37 q-94 3 -514 -15 q-19 0 -28 21 q-13 29 3 29 q124 6 226 9 l0 132 l-133 -5 ZM245 510 q14 -15 18 -36 q5 -22 6 -49 q3 -186 -3 -385 q-1 -55 -26 -84 q-19 -26 -31 4 q-7 22 -6 65 q9 201 5 404 q0 24 -3 43 q-55 -61 -137 -128 q-11 -9 -17 -4 q-7 5 3 18 q193 250 252 366 q14 27 26 66 q7 18 21 11 q25 -11 43 -27 q12 -11 3 -27 q-81 -142 -157 -234 l3 -3 ZM687 264 q70 4 104 7 q23 1 32 -22 q15 -34 -13 -35 q-58 -3 -179 -7 l-3 -147 l54 2 q37 2 49 2 q110 4 156 11 q27 5 42 -26 q20 -43 -14 -41 q-97 5 -581 -13 q-20 0 -30 22 q-13 31 4 32 l261 9 q0 59 2 147 l-150 -5 q-26 -1 -37 18 q-11 19 -9 25 q2 6 19 7 q-10 -1 177 9 l0 53 q0 21 -4 65 q-2 18 13 16 q32 -7 48 -15 q11 -6 9 -23 q-3 -22 -3 -51 l-1 -43 l54 3 Z" /><glyph glyph-name="" unicode="&#x4f7f;" d="M255 468 q4 -16 6 -50 q3 -170 -2 -379 q-1 -55 -23 -85 q-20 -26 -32 3 q-9 23 -8 67 q9 205 4 400 q-2 30 -4 45 q-62 -74 -140 -142 q-11 -9 -17 -4 q-7 6 2 18 q188 269 235 366 q12 26 24 67 q6 18 21 12 q29 -12 44 -26 q13 -10 4 -27 q-74 -137 -141 -224 q2 -1 4 -3 l4 -4 q15 -13 19 -34 ZM572 370 q5 48 6 105 l0 21 l-132 -7 l0 -7 q4 -58 5 -116 l121 4 ZM772 377 q1 49 5 126 q-47 -1 -135 -5 l0 -25 q-2 -55 -6 -101 l136 5 ZM755 553 q22 1 34 8 q1 1 3 1 l3 1 q7 2 16 -1 q21 -8 31 -15 q11 -9 5 -25 q-5 -18 -6 -32 q-1 -6 -8 -123 q2 -2 4 -9 q8 -20 5 -25 q-3 -6 -19 -6 q15 0 -194 -6 q-18 -107 -63 -178 q97 -63 206 -93 q35 -10 87 -21 q56 -11 81 -18 q25 -6 25 -11 q0 -5 -24 -14 q-11 -5 -26 -15 q-16 -12 -24 -16 q-19 -10 -50 -2 q-177 43 -310 142 q-73 -84 -224 -145 q-22 -9 -27 -3 q-6 6 14 18 q137 82 195 164 q-40 35 -85 83 q-27 29 -60 50 q-9 6 -13 25 q-4 33 16 23 q41 -20 85 -60 q39 -36 87 -73 q31 61 46 142 l-113 -3 q-1 -13 -20 -20 q-29 -11 -32 -2 q-5 8 -6 26 q-10 165 -11 174 q-1 19 -7 34 q-5 11 -3 14 q2 3 15 2 q20 -2 32 -7 q110 6 159 8 l0 89 q-62 -4 -183 -7 q-18 0 -27 21 q-12 28 3 30 q94 2 206 8 q-1 44 -5 117 q-1 17 2 22 q4 3 16 0 q24 -6 42 -16 q13 -7 12 -32 q-2 -52 -2 -88 l55 3 q92 5 126 12 q22 4 35 -24 q17 -38 -12 -38 q-54 1 -204 -6 l0 -88 l112 5 Z" /><glyph glyph-name="" unicode="&#x4f8b;" d="M235 488 q5 -25 5 -50 q3 -185 -3 -383 q-1 -57 -22 -86 q-19 -27 -30 4 q-10 25 -7 66 q9 210 4 404 q0 26 -3 45 q-51 -64 -121 -128 q-10 -9 -16 -4 q-6 5 2 17 q166 251 207 354 q10 25 20 67 q4 18 19 12 q26 -9 43 -23 q12 -10 5 -26 q-63 -136 -127 -226 l7 -7 q13 -15 17 -36 ZM553 458 q-71 -1 -131 -6 q-28 -54 -57 -91 l5 0 q64 -6 117 -60 q5 -4 12 -17 q34 76 54 174 ZM488 647 q9 -10 4 -25 q-27 -78 -45 -118 q31 2 89 4 q18 1 29 9 q4 4 11 4 q5 0 11 -3 q23 -10 35 -19 q14 -9 6 -27 q-13 -24 -24 -69 q-37 -141 -101 -228 q-70 -94 -196 -157 q-19 -10 -23 -4 q-4 6 12 20 q122 98 181 206 q-14 -2 -26 15 q-26 33 -88 90 q-5 5 -6 7 q-27 -33 -61 -61 q-13 -11 -18 -6 q-5 5 5 20 q106 162 149 342 l-75 -1 q-15 -1 -22 22 q-10 30 4 30 q166 6 201 8 q57 3 81 9 q20 5 29 -26 q13 -38 -12 -36 l-152 -4 l2 -2 ZM735 515 q-3 -235 -4 -268 q0 -34 -16 -56 q-17 -23 -30 0 q-14 24 -13 51 q8 168 5 283 q0 24 -6 45 q-4 16 13 14 q22 -5 36 -12 q14 -6 15 -22 l0 -35 ZM874 787 q12 -8 9 -29 q-5 -32 -5 -67 q-2 -85 -2 -302 q-1 -235 -3 -348 q-1 -50 -29 -73 q-35 -29 -46 1 q-4 11 -95 45 q-12 4 -11 10 q1 7 14 7 q103 -2 103 11 q11 355 6 684 q0 37 -6 68 q-2 13 2 16 q4 3 17 -1 q24 -8 46 -22 Z" /><glyph glyph-name="" unicode="&#x4f9b;" d="M232 498 q13 -13 19 -35 q5 -23 5 -49 q4 -206 -2 -382 q-1 -53 -26 -84 q-19 -26 -31 4 q-7 22 -6 65 q9 199 5 400 q-2 31 -4 47 q-56 -68 -137 -139 q-10 -9 -16 -4 q-7 6 2 18 q195 278 241 375 q13 26 25 68 q4 19 20 12 q25 -9 43 -25 q13 -10 4 -27 q-72 -139 -149 -238 l7 -6 ZM520 216 q27 -17 40 -31 q13 -13 1 -27 q-146 -156 -243 -206 q-10 -5 -14 1 q-5 6 4 15 q137 153 171 205 q10 15 20 36 q7 16 21 7 ZM679 217 q109 -53 192 -178 q32 -47 4 -77 q-25 -27 -52 20 q-37 66 -158 218 q-12 16 -8 21 q5 4 22 -4 ZM525 521 q0 -56 2 -204 q90 3 150 6 l5 204 l-157 -6 ZM755 327 q123 6 162 13 q29 5 44 -27 q21 -44 -13 -42 q-119 6 -611 -18 q-20 -1 -32 21 q-15 32 4 33 l161 7 l-3 205 l-65 -3 q-28 -1 -39 18 q-11 19 -10 25 q2 6 20 7 l93 5 q-2 77 -4 114 q-2 43 -7 81 q-1 13 1 16 q2 2 13 0 q24 -4 43 -14 q12 -6 12 -27 l0 -66 q0 -64 1 -101 l159 7 l3 148 q2 44 -3 87 q-2 21 16 17 q28 -8 47 -18 q12 -6 10 -27 q-4 -30 -6 -70 q-3 -57 -6 -134 l89 6 q24 1 34 -21 q15 -35 -14 -36 l-112 -4 q-6 -173 -6 -203 l19 1 Z" /><glyph glyph-name="" unicode="&#x4f9d;" d="M592 680 q-23 44 -80 113 q-17 23 11 18 q74 -13 123 -82 q24 -34 -1 -61 q-32 -30 -53 12 ZM247 463 q3 -16 5 -50 q3 -155 -2 -362 q-1 -58 -22 -85 q-19 -27 -33 2 q-11 25 -10 68 q9 208 3 385 q0 27 -4 44 q-58 -67 -129 -128 q-11 -9 -17 -3 q-7 5 2 17 q193 273 236 363 q14 27 25 67 q4 18 20 11 q23 -8 44 -25 q13 -12 4 -28 q-78 -143 -152 -235 l10 -8 q16 -13 20 -33 ZM439 340 q-69 -70 -149 -116 q-16 -10 -21 -4 q-5 7 10 22 q169 176 264 348 q-65 -4 -189 -7 q-19 0 -29 21 q-14 30 3 30 q227 7 375 17 q107 8 144 15 q24 5 37 -25 q18 -39 -12 -39 q-72 0 -267 -10 l6 -9 q8 -13 -1 -27 l-35 -50 q37 -83 83 -149 q67 59 104 108 q14 18 24 39 q8 16 22 11 q23 -11 40 -26 q13 -13 -1 -27 q-101 -96 -173 -129 q64 -88 140 -151 q25 -21 68 -46 q54 -33 70 -44 q14 -10 14 -14 q0 -5 -15 -8 q-14 -3 -32 -13 q-20 -11 -30 -14 q-21 -5 -38 10 q-208 165 -298 423 q-45 -59 -74 -93 l15 -5 q11 -4 11 -20 q0 -141 -7 -281 q93 48 119 60 q26 11 31 4 q4 -8 -17 -30 q-30 -30 -79 -65 q-59 -43 -75 -56 q-12 -11 -30 -29 q-12 -13 -25 -3 q-21 21 -35 42 q-6 13 -1 18 q2 4 6 5 q45 20 46 48 q8 135 2 259 l-1 10 Z" /><glyph glyph-name="" unicode="&#x4fa7;" d="M385 640 q2 -162 -2 -337 q0 -42 -15 -68 q-20 -28 -32 -1 q-11 24 -10 58 q7 211 3 361 q-2 33 -8 53 q-5 18 13 14 q22 -6 32 -12 l182 9 q18 0 31 8 l2 1 q6 4 15 0 q19 -7 32 -17 q12 -11 4 -29 q-9 -25 -9 -48 q-2 -57 -1 -158 l1 -177 q-1 -38 -20 -57 q-10 -11 -20 -10 q-10 1 -14 13 q-4 14 -3 57 q2 64 2 175 q0 124 1 188 q-110 -2 -184 -7 l0 -16 ZM240 493 q4 -21 4 -50 q3 -187 -1 -380 q-1 -57 -20 -85 q-18 -26 -31 2 q-10 25 -9 68 q8 193 3 404 q0 23 -3 41 q-55 -73 -129 -145 q-10 -9 -16 -4 q-6 5 2 17 q176 278 211 361 q12 30 21 68 q4 17 19 12 q24 -9 41 -23 q13 -10 4 -26 q-63 -132 -124 -219 l10 -8 q15 -12 18 -33 ZM488 199 q83 -20 145 -98 q26 -32 5 -57 q-24 -28 -48 9 q-29 45 -111 129 q-5 5 -7 9 q-44 -114 -179 -193 q-15 -9 -20 -4 q-6 5 7 16 q88 80 124 157 q39 85 45 224 q4 95 -2 192 q-1 22 16 18 q20 -5 37 -14 q14 -7 11 -26 q-2 -22 -2 -73 l-3 -99 q-4 -114 -31 -189 q7 0 13 -1 ZM703 236 q-12 19 -12 51 q6 171 3 301 l-4 46 q-3 17 12 14 q20 -3 39 -12 q13 -6 11 -22 l-1 -17 q0 -11 -1 -18 q-1 -41 -1 -132 l0 -159 q0 -32 -15 -51 q-18 -25 -31 -1 ZM880 776 q12 -8 9 -28 q-5 -30 -5 -65 q-2 -78 -2 -299 q0 -225 -3 -344 q-1 -50 -28 -71 q-35 -30 -45 0 q-4 10 -98 44 q-11 4 -10 10 q0 7 13 7 q106 -3 106 11 q9 349 6 676 q0 35 -6 66 q-4 20 18 14 q24 -6 45 -21 Z" /><glyph glyph-name="" unicode="&#x4fbf;" d="M258 497 q4 -21 4 -51 q3 -177 -3 -381 q-1 -57 -21 -88 q-19 -28 -32 2 q-11 24 -10 70 q10 203 5 405 q0 14 -2 38 q-59 -75 -141 -148 q-10 -9 -16 -4 q-6 6 3 18 q176 254 224 361 q14 32 23 68 q5 17 20 11 q23 -9 42 -24 q12 -10 4 -27 q-62 -122 -125 -210 q3 -2 7 -6 q14 -12 18 -34 ZM580 426 q-21 0 -63 -2 l-64 -2 l3 -88 l60 2 q40 2 58 2 q4 40 6 88 ZM581 473 q1 30 1 84 q-52 -2 -135 -8 q1 -5 1 -15 q2 -30 3 -66 q47 1 130 5 ZM690 477 q27 2 84 4 l2 44 q2 30 2 40 q-94 -4 -134 -5 q0 -54 -1 -85 l47 2 ZM770 346 q0 21 2 87 q-20 0 -64 -2 l-66 -2 l0 -5 q-2 -44 -6 -83 l134 5 ZM754 616 q20 1 35 8 q1 1 3 1 q1 1 2 1 q8 5 18 0 q14 -6 31 -16 q14 -8 6 -23 q-4 -8 -6 -27 l-9 -231 q0 -41 -35 -53 q-22 -8 -25 4 l-3 16 q-43 -1 -142 -5 q-16 -93 -57 -163 q93 -57 197 -83 q38 -10 89 -19 l84 -17 q25 -6 25 -11 q0 -5 -24 -14 q-11 -4 -25 -15 q-16 -12 -23 -15 q-20 -9 -49 -2 q-175 39 -309 129 q-70 -81 -216 -139 q-22 -8 -27 -2 q-4 6 15 17 q130 79 186 156 q-58 45 -119 111 q-29 32 -62 52 q-9 6 -13 24 q-6 32 15 22 q44 -21 87 -61 q68 -63 121 -101 q30 55 43 129 q-37 -2 -113 -4 q-3 -8 -17 -16 q-25 -13 -30 -3 q-6 14 -6 30 q-14 265 -13 254 q-3 25 -8 41 q-4 12 -2 14 q2 3 14 2 q12 -1 30 -7 l81 4 q51 2 78 4 q0 35 -4 97 l0 2 l-155 -7 q-16 -1 -26 20 q-11 28 3 30 l288 15 q85 6 111 13 q22 4 34 -24 q16 -37 -11 -37 q-47 0 -185 -7 q12 -6 11 -29 q-2 -42 -2 -70 l109 5 Z" /><glyph glyph-name="" unicode="&#x4fc4;" d="M794 602 q-20 33 -74 96 q-17 20 8 15 q63 -8 108 -67 q23 -29 3 -52 q-25 -27 -45 8 ZM231 509 q15 -13 19 -32 q4 -20 4 -47 q5 -163 -2 -374 q-1 -50 -22 -78 q-20 -26 -31 2 q-8 23 -7 62 q9 211 4 394 q0 22 -3 38 q-57 -59 -129 -117 q-10 -8 -16 -3 q-6 5 3 17 q194 251 243 342 q16 31 25 61 q6 17 20 10 q28 -13 41 -26 q12 -11 3 -27 q-83 -135 -156 -219 l4 -3 ZM707 506 q117 9 152 16 q24 4 38 -23 q18 -37 -11 -37 q-74 0 -190 -6 q12 -88 32 -165 q38 43 62 76 q18 25 26 41 q8 13 20 5 q22 -16 32 -29 q10 -11 -1 -25 q-73 -81 -121 -126 q46 -136 128 -210 q22 -21 32 -3 l30 54 q8 12 13 9 q5 -4 1 -19 q-21 -68 -18 -103 q3 -40 -36 -29 q-31 10 -62 43 q-83 86 -133 221 q-71 -55 -149 -87 q-11 -5 -15 1 q-4 6 7 14 q87 69 140 122 q-29 99 -43 207 l-136 -8 l0 -131 q44 21 94 47 q16 8 21 2 q4 -6 -7 -17 q-44 -44 -108 -85 l-3 -217 q-1 -44 -27 -66 q-33 -26 -43 1 q-4 12 -73 39 q-11 5 -10 11 q0 6 13 5 q81 -2 81 11 q2 60 4 182 q-74 -43 -92 -55 q-17 -10 -28 -1 q-18 16 -30 36 q-11 18 7 21 q22 4 34 9 q51 20 110 49 l1 156 l-119 -6 q-19 0 -28 19 q-15 27 2 29 l145 7 l-1 78 q0 25 -2 37 q-36 -16 -88 -29 q-12 -2 -15 4 q-3 7 7 13 q104 61 147 103 q20 18 30 34 q10 13 22 7 q19 -12 33 -29 q12 -13 -4 -25 q-58 -39 -92 -58 q5 -2 15 -8 q10 -6 9 -25 q-1 -7 -4 -53 l-1 -46 q28 1 68 4 q52 3 62 3 q-8 81 -11 156 q-3 84 -13 153 q-4 25 13 20 q28 -7 43 -17 q16 -7 15 -26 q-4 -51 -1 -125 q3 -91 10 -157 l16 1 Z" /><glyph glyph-name="" unicode="&#x4fd7;" d="M804 610 q-37 50 -141 150 q-12 12 -9 17 q3 5 18 1 q96 -25 173 -112 q32 -35 10 -65 q-23 -29 -51 9 ZM353 537 q-10 -5 -14 0 q-4 6 4 15 q117 135 145 182 q10 18 16 33 q7 15 20 6 q24 -14 38 -28 q13 -13 0 -26 q-124 -140 -209 -182 ZM234 517 q15 -14 19 -34 q4 -20 4 -49 q2 -174 -3 -376 q-1 -54 -22 -85 q-18 -27 -32 3 q-11 25 -10 67 q11 196 6 399 q0 11 -2 31 q-62 -71 -143 -140 q-11 -9 -17 -4 q-6 5 3 18 q197 264 252 376 q13 26 25 68 q5 17 21 11 q27 -13 41 -25 q13 -10 4 -27 q-74 -138 -148 -231 l2 -2 ZM494 226 q4 -84 5 -172 l221 7 q5 113 9 183 q-130 -3 -236 -9 l1 -9 ZM500 -20 q0 -17 -20 -27 q-26 -12 -30 -2 q-5 11 -6 30 q-10 247 -11 260 q-2 24 -7 42 q-4 12 -2 14 q2 3 14 1 q23 -3 40 -12 l230 10 q18 1 32 8 q4 2 6 2 q8 3 17 0 q19 -8 29 -15 q12 -8 5 -26 q-6 -17 -7 -35 q-7 -67 -12 -171 q5 -3 9 -18 q8 -21 5 -27 q-3 -6 -19 -6 q-42 0 -134 -3 l-139 -4 l0 -21 ZM957 309 q24 -12 2 -20 q-13 -5 -28 -15 q-17 -12 -25 -16 q-17 -8 -33 4 q-164 104 -263 248 q-23 -34 -47 -64 q-119 -153 -263 -226 q-18 -10 -23 -3 q-4 6 10 19 q146 127 224 240 q63 90 91 154 q7 17 24 10 q24 -11 36 -21 q14 -11 3 -29 l-36 -52 q97 -108 213 -176 q20 -12 56 -27 q45 -19 59 -26 Z" /><glyph glyph-name="" unicode="&#x4fdd;" d="M243 521 q14 -15 16 -35 q5 -23 5 -49 q2 -209 -4 -395 q-1 -56 -23 -85 q-19 -26 -30 3 q-9 24 -6 67 q10 227 5 415 q0 26 -1 38 q-64 -76 -143 -145 q-11 -9 -17 -4 q-6 5 3 18 q189 266 239 372 q13 26 25 68 q4 18 20 12 q28 -13 43 -25 q12 -11 4 -28 q-70 -132 -139 -224 l3 -3 ZM475 705 q3 -75 5 -154 l221 7 q17 0 26 1 l6 163 q-142 -2 -259 -9 l1 -8 ZM628 386 l90 5 q116 6 152 13 q25 4 40 -25 q18 -38 -13 -38 q-92 1 -248 -6 q90 -116 194 -181 q19 -12 55 -28 l57 -27 q24 -12 2 -20 q-13 -5 -30 -16 q-18 -12 -27 -16 q-17 -8 -33 4 q-155 108 -240 258 q0 -193 -1 -299 q-1 -46 -18 -72 q-21 -36 -36 -1 q-12 28 -10 71 q4 144 6 277 q-139 -183 -275 -241 q-15 -7 -19 0 q-4 6 10 18 q150 126 234 268 l-182 -8 q-18 -1 -28 20 q-14 28 3 30 l257 11 l-1 47 q-2 42 -5 65 l-1 5 q-52 -2 -80 -2 q0 -17 -19 -25 q-27 -12 -31 -3 q-5 15 -5 28 l-5 115 q-3 76 -7 106 q-4 29 -8 38 q-4 11 -2 14 q2 2 14 1 q23 -4 33 -8 q39 2 261 10 q19 1 33 10 q6 3 11 3 q3 0 11 -2 q19 -6 30 -14 q11 -10 5 -26 q-3 -8 -7 -35 q-6 -67 -9 -171 l0 -1 q8 -21 5 -27 q-3 -6 -19 -6 q-110 -2 -163 -4 q4 -1 10 -5 q13 -7 12 -28 q-1 -9 -1 -25 l-2 -57 Z" /><glyph glyph-name="" unicode="&#x4fde;" d="M435 277 l-85 -2 q-54 -2 -88 -2 l0 -76 l172 5 l1 75 ZM435 402 l-173 -6 l0 -76 q37 2 125 4 l25 1 q15 0 23 1 l0 76 ZM237 445 q37 2 180 7 q16 0 30 7 q4 2 7 2 q3 2 12 0 q23 -11 29 -16 q13 -9 7 -24 q-7 -15 -7 -34 q-2 -45 -2 -170 q0 -126 -3 -191 q-1 -41 -27 -56 q-33 -22 -43 1 q-2 6 -63 29 q-11 5 -10 10 q0 6 13 6 q69 -2 69 11 q2 41 4 127 q-27 0 -85 -2 l-87 -3 q0 -35 -2 -115 q0 -46 -17 -70 q-20 -31 -33 -1 q-10 25 -9 59 q8 189 3 364 q0 27 -8 54 q-6 20 13 14 q6 -1 27 -9 l2 0 ZM371 533 q-22 0 -30 17 q-9 17 -8 23 q2 6 16 7 q38 2 100 4 l98 4 q48 2 73 4 q19 1 28 -21 q12 -32 -13 -32 l-264 -6 ZM629 166 q0 -29 -15 -47 q-17 -18 -29 0 q-14 20 -13 43 q5 128 2 212 q0 18 -5 36 q-5 16 11 13 q16 -3 37 -10 q14 -7 14 -19 l-2 -228 ZM771 484 q12 -6 9 -24 q-5 -23 -5 -47 q-2 -53 -2 -183 l-2 -210 q0 -45 -28 -67 q-34 -26 -44 1 q-5 12 -87 41 q-12 4 -11 10 q1 6 14 6 q94 -2 95 11 q7 237 4 417 q0 29 -4 49 q-4 18 17 12 q23 -5 44 -16 ZM947 538 q27 -9 5 -21 q-13 -7 -27 -21 q-17 -15 -24 -20 q-16 -11 -38 -2 q-222 97 -362 257 q-50 -54 -91 -91 q-167 -146 -337 -208 q-22 -8 -25 0 q-4 8 16 19 q183 113 300 229 q68 68 125 150 q13 16 27 6 q17 -11 32 -27 q13 -14 -3 -30 l-24 -25 q154 -122 285 -174 q26 -10 68 -21 l73 -21 Z" /><glyph glyph-name="" unicode="&#x4fe1;" d="M628 691 q-23 40 -81 105 q-19 20 9 17 q71 -7 120 -72 q25 -33 3 -57 q-13 -14 -27 -12 q-14 2 -24 19 ZM264 486 q3 -17 5 -52 q3 -158 -2 -389 q-1 -58 -22 -88 q-19 -30 -33 1 q-13 28 -10 72 q9 228 3 414 q-2 31 -5 47 q-57 -74 -138 -152 q-10 -10 -16 -5 q-7 5 1 18 q191 302 224 372 q14 32 23 68 q5 19 21 13 q31 -13 44 -25 q14 -11 5 -27 q-66 -128 -134 -223 q10 -6 14 -10 q16 -13 20 -34 ZM483 179 q4 -65 5 -125 l262 8 q4 95 7 136 q-186 -6 -275 -11 l1 -8 ZM489 -13 q0 -15 -19 -25 q-28 -12 -31 -2 q-5 10 -6 27 l-5 106 q-4 70 -7 99 q-3 23 -8 36 q-4 12 -2 14 q2 3 14 2 q20 -2 32 -7 q139 7 280 12 q19 1 33 9 q6 3 10 3 q4 0 12 -2 q21 -9 30 -15 q12 -9 5 -26 q-6 -15 -7 -31 q-4 -29 -10 -135 l4 -10 q7 -21 4 -27 q-2 -6 -18 -6 q-47 0 -152 -3 l-159 -4 l0 -15 ZM804 393 q22 3 33 -21 q14 -34 -13 -35 l-193 -7 q-117 -4 -184 -7 q-26 -1 -37 18 q-10 19 -8 25 q2 6 18 7 q57 4 144 8 l141 7 q36 1 99 5 ZM461 460 q-25 0 -34 18 q-11 18 -9 24 q1 6 17 7 l127 5 q77 3 124 6 l92 6 q21 3 31 -20 q14 -33 -13 -34 q-77 -5 -335 -12 ZM941 647 q20 -39 -12 -39 q-39 1 -576 -21 q-20 0 -29 20 q-16 30 2 30 q249 10 419 20 q124 8 157 14 q25 4 39 -24 Z" /><glyph glyph-name="" unicode="&#x4fee;" d="M238 477 q4 -30 4 -48 q2 -195 -2 -360 q-2 -54 -19 -81 q-17 -26 -31 1 q-11 24 -10 66 q9 207 3 383 q-2 27 -4 41 q-55 -61 -125 -119 q-11 -8 -16 -3 q-6 5 3 17 q178 241 227 343 q9 20 23 63 q6 18 20 11 q27 -12 41 -25 q12 -11 3 -27 q-79 -140 -146 -224 l10 -6 q15 -12 19 -32 ZM372 196 q-1 -38 -16 -59 q-18 -26 -32 -1 q-11 23 -10 54 q8 180 5 334 q0 23 -5 50 q-4 18 12 14 q20 -4 36 -13 q13 -6 14 -23 l-4 -356 ZM841 211 q12 -25 15 -43 q3 -15 -12 -26 q-246 -180 -480 -202 q-22 -2 -24 6 q-2 8 21 15 q281 86 457 251 q15 14 23 -1 ZM423 111 q-17 -2 -19 5 q-2 7 16 14 q211 82 326 188 q13 12 20 -1 q11 -18 16 -40 q3 -14 -11 -23 q-189 -124 -348 -143 ZM453 262 q-15 -2 -17 5 q-2 6 12 13 q154 73 230 145 q12 11 19 -1 q11 -20 15 -39 q3 -14 -9 -21 q-144 -88 -250 -102 ZM558 675 q-11 -17 -22 -31 q43 -46 88 -82 q54 56 97 120 q-128 -4 -159 -7 l-4 0 ZM952 421 q28 -8 5 -19 q-12 -6 -25 -18 q-15 -15 -22 -19 q-15 -9 -35 -2 q-143 50 -241 132 q-96 -79 -231 -126 q-19 -7 -22 0 q-3 7 14 18 q113 67 199 145 q-37 37 -75 90 q-41 -52 -94 -91 q-9 -6 -14 -1 q-5 4 2 14 q109 163 132 226 q5 12 12 44 q4 17 18 11 q27 -13 39 -22 q11 -10 4 -25 l-28 -51 l137 5 q13 1 26 6 q8 9 23 2 q17 -10 33 -26 q14 -14 1 -29 q-13 -13 -43 -50 q-49 -64 -96 -108 q65 -44 139 -69 q27 -10 70 -20 q55 -12 72 -17 Z" /><glyph glyph-name="" unicode="&#x4ffa;" d="M236 477 q3 -16 5 -49 q3 -152 -2 -354 q-1 -54 -21 -82 q-18 -26 -31 2 q-12 24 -11 66 q9 195 4 377 q0 16 -4 40 q-53 -60 -126 -118 q-11 -8 -16 -3 q-6 5 3 17 q171 221 228 346 q8 18 23 64 q4 18 20 11 q23 -9 41 -25 q12 -11 3 -27 q-72 -137 -143 -227 q4 -2 7 -5 q16 -11 20 -33 ZM692 442 q14 0 29 5 q7 5 18 2 l12 -5 q-79 79 -132 175 l-89 -4 q-58 -115 -128 -186 l132 6 q0 48 -4 83 q-1 20 16 16 q26 -8 40 -17 q14 -8 10 -26 q-4 -31 -5 -53 l101 4 ZM635 198 q36 3 68 3 q0 18 2 74 q-18 0 -58 -2 l-60 -2 l0 -74 l48 1 ZM532 195 l0 74 q-49 -1 -102 -3 q2 -50 2 -75 l100 4 ZM428 312 q54 2 105 3 q1 25 1 72 l-55 -2 q-38 -2 -53 -2 l2 -71 ZM709 394 l-120 -4 l-1 -73 l118 5 l3 72 ZM361 609 q-17 0 -26 21 q-12 28 3 30 l148 5 q42 94 55 155 q5 18 23 12 q20 -6 38 -17 q14 -11 6 -30 q-6 -12 -25 -56 q-15 -36 -28 -62 q66 3 109 6 q95 6 126 13 q22 4 35 -25 q16 -37 -13 -37 q-71 0 -154 -4 q86 -101 178 -162 q19 -13 53 -29 q40 -19 56 -28 q24 -12 1 -20 q-13 -4 -30 -15 q-17 -12 -27 -16 q-16 -8 -33 5 q-43 32 -81 66 q0 -3 -2 -7 q-4 -7 -6 -23 q-5 -95 -7 -212 q-1 -35 -31 -47 q-18 -7 -23 4 q-2 8 -2 17 q-78 -2 -116 -4 q0 -40 1 -60 q1 -65 57 -71 q81 -6 157 2 q34 4 38 29 l5 41 q3 25 6 40 q4 17 10 16 q6 0 7 -18 q2 -83 19 -98 q25 -24 5 -42 q-22 -21 -76 -25 q-82 -9 -178 -1 q-103 8 -106 125 q-1 20 -1 60 l-100 -3 q0 -16 -18 -24 q-25 -12 -30 -3 q-4 11 -5 28 q-11 244 -10 237 l-2 15 q-36 -31 -88 -62 q-19 -11 -24 -5 q-5 6 10 21 q128 125 196 261 l-100 -3 Z" /><glyph glyph-name="" unicode="&#x5012;" d="M230 469 q6 -28 6 -50 q4 -168 -1 -370 q-3 -60 -26 -88 q-19 -26 -29 6 q-7 21 -6 66 q8 169 4 387 q-2 43 -5 63 q-49 -64 -115 -128 q-10 -9 -16 -4 q-7 5 1 17 q164 264 201 354 q10 25 20 67 q4 18 19 13 q24 -9 43 -23 q13 -10 4 -26 q-62 -135 -130 -233 q11 -10 12 -13 q12 -15 18 -38 ZM526 302 q28 2 74 8 q20 1 30 -20 q13 -31 -11 -32 q-74 -6 -110 -8 q-2 -72 -2 -120 q60 15 146 39 q18 5 21 -2 q4 -7 -10 -15 q-21 -12 -335 -130 q-19 -8 -30 3 q-13 13 -27 39 q-9 20 10 20 q19 0 39 4 q40 7 129 28 q0 91 1 130 q-68 -4 -95 -5 q-22 -1 -31 16 q-10 17 -8 23 q1 6 15 7 q59 6 119 9 l0 61 q-2 41 -5 61 l0 6 q-44 -8 -76 -19 q-20 -7 -35 -17 q-12 -8 -21 3 q-11 15 -20 42 q-1 4 -1 10 q0 5 6 8 q28 12 46 38 q38 54 76 124 q14 36 15 40 l-89 -3 q-15 0 -23 21 q-11 29 4 29 q138 6 219 12 q60 4 88 11 q19 5 30 -24 q14 -36 -12 -36 q-38 0 -168 -7 q2 -1 5 -5 q3 -3 4 -5 q9 -12 0 -27 q-52 -87 -105 -155 q77 13 179 26 l-39 79 q-13 27 13 13 q66 -40 101 -127 q15 -38 -9 -55 q-29 -21 -40 20 q-8 26 -13 39 q-40 -14 -109 -29 q14 -4 32 -11 q11 -5 10 -22 q-3 -21 -3 -48 l-1 -48 l16 1 ZM733 237 q-16 -22 -29 -1 q-14 22 -13 49 q6 156 2 260 q0 22 -6 41 q-6 17 12 14 q24 -6 36 -11 q14 -6 14 -21 q1 -12 1 -32 q-1 -35 -1 -111 l-1 -135 q0 -34 -15 -53 ZM889 776 q12 -7 9 -28 q-5 -34 -7 -67 q-2 -85 -2 -308 q0 -237 -2 -353 q-1 -48 -28 -72 q-35 -28 -46 1 q-4 11 -97 44 q-12 4 -11 10 q1 7 14 7 q106 -3 106 11 q9 358 6 695 q-2 40 -7 68 q-4 20 19 14 q27 -9 46 -22 Z" /><glyph glyph-name="" unicode="&#x5019;" d="M437 548 q-18 0 -26 20 q-12 28 3 30 q193 5 284 10 q4 38 14 99 l-206 -9 q-14 0 -24 26 q-7 20 -6 25 q1 5 14 4 q103 1 212 7 q14 0 24 7 q7 7 22 2 q21 -8 31 -15 q14 -9 3 -25 q-7 -15 -10 -28 q-8 -32 -16 -90 q83 5 109 10 q23 4 35 -24 q16 -37 -13 -37 l-450 -12 ZM245 483 q3 -15 5 -48 q3 -182 -3 -382 q-1 -54 -23 -83 q-20 -24 -31 3 q-7 23 -6 64 q9 213 4 402 q0 17 -2 43 q-55 -67 -131 -135 q-11 -9 -17 -4 q-6 5 3 17 q179 257 227 365 q14 32 23 68 q4 18 20 11 q27 -10 42 -24 q13 -10 4 -27 q-66 -131 -138 -229 l6 -6 q13 -15 17 -35 ZM356 178 q-18 -23 -30 -1 q-12 25 -11 51 q7 166 4 298 q-2 26 -7 45 q-4 17 13 14 q22 -6 32 -10 q15 -7 16 -23 q2 -26 2 -36 q2 -111 -3 -278 q-1 -38 -16 -60 ZM668 397 q14 -9 10 -26 l-14 -86 q57 2 83 4 q101 5 130 11 q24 3 36 -25 q16 -38 -13 -38 q-80 3 -217 -3 q67 -109 159 -170 q20 -14 54 -30 q44 -20 57 -27 q23 -13 0 -20 q-14 -4 -31 -14 q-19 -12 -28 -15 q-18 -6 -32 6 q-147 102 -212 264 q-56 -193 -288 -272 q-18 -7 -21 0 q-4 8 14 18 q183 105 231 257 l-158 -6 q-18 0 -27 21 q-13 30 4 30 l194 7 l1 5 q8 40 10 108 l-82 -2 q-39 -54 -92 -91 q-9 -6 -13 -1 q-5 5 1 15 q76 119 94 177 q4 14 8 37 q3 17 18 11 q32 -15 40 -22 q13 -9 5 -25 l-15 -26 q-10 -19 -14 -25 l162 9 q51 4 78 7 q21 3 30 -20 q8 -19 5 -26 q-2 -6 -17 -7 l-152 -9 l2 -1 Z" /><glyph glyph-name="" unicode="&#x501f;" d="M238 515 q16 -13 20 -34 q3 -17 5 -51 q4 -192 -2 -373 q-1 -58 -22 -87 q-19 -28 -33 2 q-11 27 -10 70 q10 186 4 396 l-3 40 q-61 -69 -147 -140 q-11 -9 -17 -4 q-6 6 4 18 q190 248 250 366 q14 27 26 66 q5 17 20 11 q25 -11 42 -26 q12 -10 3 -27 q-75 -135 -146 -222 l6 -5 ZM730 59 l0 104 l-253 -7 l0 -106 q108 3 183 6 l70 3 ZM732 309 q-143 -3 -257 -9 q1 -8 1 -25 l1 -73 q75 1 180 5 l74 3 l1 99 ZM475 -18 q0 -17 -21 -28 q-27 -12 -31 -2 q-4 13 -4 34 q-3 296 -4 308 q-4 36 -7 47 q-3 13 -1 15 q2 3 14 1 q13 -2 28 -8 l263 10 q18 1 32 8 q7 6 19 1 q14 -4 31 -15 q14 -9 6 -23 q-5 -11 -5 -29 q-5 -151 -2 -281 q0 -44 -33 -59 q-21 -10 -24 3 q-4 17 -6 44 l-125 -4 q-83 -3 -129 -4 l-1 -18 ZM541 601 q0 -35 2 -123 l123 5 l3 122 l-128 -4 ZM739 487 q125 6 162 13 q26 4 41 -25 q19 -39 -13 -39 q-75 2 -603 -18 q-18 -1 -29 20 q-14 28 3 30 l186 7 l-1 64 q0 40 -1 60 l-76 -3 q-25 -1 -36 17 q-11 18 -9 24 q2 5 19 6 l101 5 q0 26 -2 66 q-1 30 -6 60 q-2 17 13 15 q27 -5 44 -13 q10 -5 9 -22 l-1 -48 l1 -55 l129 6 q1 36 1 97 q0 32 -3 66 q-2 18 14 15 q24 -6 46 -15 q10 -5 9 -23 q-4 -30 -4 -52 l-3 -85 l96 6 q23 1 32 -20 q15 -33 -13 -34 l-117 -5 q-2 -39 -4 -121 l15 1 Z" /><glyph glyph-name="" unicode="&#x5026;" d="M674 616 q-9 -5 -13 1 q-4 5 3 13 q70 93 82 114 q3 5 11 23 q6 14 19 6 q22 -13 36 -27 q13 -13 1 -25 q-92 -84 -139 -105 ZM458 626 q-17 31 -69 95 q-14 18 9 15 q64 -10 105 -67 q21 -30 0 -51 q-26 -28 -45 8 ZM231 512 q14 -11 17 -33 q4 -21 4 -50 q0 -199 -4 -380 q-1 -57 -21 -86 q-19 -27 -32 2 q-13 27 -10 68 q11 220 6 406 q0 12 -2 34 q-54 -63 -134 -131 q-11 -9 -17 -4 q-6 5 3 17 q187 254 239 369 q10 20 24 67 q4 18 20 12 q23 -9 42 -24 q12 -10 4 -27 q-73 -142 -145 -235 l6 -5 ZM690 469 q104 6 138 13 q25 4 39 -24 q19 -39 -12 -37 q-67 1 -171 -3 q81 -79 166 -124 q19 -9 53 -21 q38 -13 54 -20 q25 -10 2 -20 q-13 -5 -27 -17 q-17 -13 -25 -17 q-17 -8 -32 2 q-149 87 -230 216 l-114 -6 q-26 -48 -64 -92 q14 -3 23 -8 l152 7 q18 1 29 9 q6 2 9 2 q3 1 11 -1 q20 -8 30 -15 q12 -7 5 -18 q-5 -12 -6 -20 q-1 -8 -4 -57 q-3 -39 -6 -64 q-4 -36 -29 -47 q-34 -16 -41 4 q-2 8 -67 28 q-11 4 -10 9 q1 6 13 5 q74 -4 75 6 q4 32 10 109 l-156 -6 l0 -18 q-4 -108 -1 -177 q1 -40 52 -44 q104 -7 193 1 q34 4 38 22 l10 63 q4 14 10 14 q6 -1 7 -16 q5 -65 17 -76 q24 -19 4 -38 q-20 -19 -73 -23 q-100 -9 -212 -1 q-101 8 -104 97 q-1 35 0 95 l1 111 l-1 24 q-61 -63 -157 -119 q-20 -12 -25 -6 q-5 6 13 21 q119 99 185 215 l-121 -7 q-18 -1 -27 20 q-14 27 3 29 q94 6 172 9 q14 31 32 82 q-41 -1 -119 -5 q-24 -1 -34 17 q-10 17 -9 23 q2 5 17 7 q110 6 160 8 q13 47 21 92 q12 59 14 131 q0 23 19 18 q24 -7 40 -17 q14 -9 10 -29 q-12 -68 -20 -108 q-11 -54 -19 -83 l175 10 q21 3 30 -19 q14 -32 -12 -33 q10 1 -207 -9 q-14 -46 -31 -81 l134 7 Z" /><glyph glyph-name="" unicode="&#x503c;" d="M234 514 q15 -13 19 -35 q3 -17 5 -52 q3 -166 -2 -388 q-1 -59 -21 -88 q-18 -29 -32 2 q-11 27 -10 70 q10 193 4 413 q0 17 -4 41 q-57 -68 -143 -146 q-10 -10 -16 -5 q-7 6 2 18 q206 288 256 389 q15 32 26 70 q6 18 20 12 q29 -13 42 -25 q12 -10 4 -27 q-78 -144 -157 -244 l7 -5 ZM740 135 l-264 -7 q0 -55 -1 -80 q161 5 265 9 l0 78 ZM744 502 q-230 -7 -271 -9 q1 -7 1 -20 l1 -52 q104 2 190 6 q54 2 76 2 l1 0 l2 73 ZM477 177 l263 9 l1 72 l-264 -7 l0 -74 ZM742 378 l-266 -7 l1 -71 l264 9 l1 69 ZM724 554 q19 1 33 7 q4 2 6 2 q6 3 17 -1 q25 -9 38 -18 q14 -11 6 -32 q-10 -29 -11 -60 q-6 -92 -12 -392 q88 5 109 9 q30 4 45 -28 q19 -43 -14 -41 q-116 5 -628 -13 q-21 0 -31 22 q-15 32 4 33 l130 4 l0 5 q0 326 -5 424 q-4 46 -7 60 q-4 13 -1 16 q2 2 15 0 q17 -3 26 -8 l102 5 q13 55 20 95 l-170 -5 q-18 -1 -27 20 q-12 30 4 30 l202 7 q3 22 7 62 q2 34 1 51 q-1 20 17 16 q29 -6 46 -15 q15 -7 10 -24 l-22 -88 l80 4 q102 5 130 11 q24 4 37 -25 q17 -39 -13 -37 q-78 1 -248 -5 q-17 -53 -42 -96 l146 5 Z" /><glyph glyph-name="" unicode="&#x503e;" d="M211 514 q15 -14 19 -34 q3 -18 5 -51 q4 -180 -1 -371 q-1 -56 -22 -87 q-19 -28 -33 2 q-13 27 -10 70 q8 191 3 395 q0 22 -3 38 q-49 -56 -120 -116 q-11 -9 -17 -4 q-6 5 3 18 q183 258 228 350 q13 28 24 64 q4 19 20 12 q27 -11 44 -27 q13 -11 3 -28 q-73 -132 -149 -226 l6 -5 ZM490 516 q18 1 26 -20 q11 -31 -11 -32 l-107 -5 q-2 -111 -7 -215 q43 25 105 57 q24 12 29 5 q5 -7 -15 -28 q-26 -27 -71 -62 q-53 -39 -69 -54 l-27 -27 q-11 -13 -23 -4 q-16 14 -34 38 q-8 13 2 19 l4 3 q41 21 42 53 q9 178 3 353 q-1 27 -6 50 q-4 20 16 18 q21 -1 41 -9 q11 -5 11 -22 l0 -125 l91 7 ZM743 418 q-2 -16 -5 -55 l-5 -68 q-15 -137 -79 -215 q-64 -79 -202 -131 q-18 -7 -22 0 q-4 6 12 16 q113 67 165 140 q54 75 67 193 q6 57 4 143 q0 22 18 17 q20 -5 36 -15 q14 -6 11 -25 ZM720 137 q98 -30 181 -123 q32 -36 10 -63 q-21 -28 -50 10 q-39 52 -150 159 q-12 12 -9 17 q3 5 18 0 ZM673 690 q-49 -4 -141 -7 q-15 0 -24 20 q-11 27 4 29 q202 9 268 13 q83 7 105 11 q22 5 32 -23 q15 -35 -12 -35 q-47 1 -189 -6 l16 -7 q14 -7 5 -22 q-49 -84 -63 -100 q75 3 127 6 q14 0 31 7 q4 4 11 4 q4 0 7 -3 q19 -7 30 -15 q11 -10 5 -28 q-7 -18 -9 -42 q-1 -44 0 -128 l1 -144 q0 -33 -20 -52 q-25 -23 -34 2 q-4 15 -4 53 q2 52 1 141 q0 103 1 153 q-148 -6 -220 -11 l0 -11 q0 -164 -4 -272 q-1 -38 -16 -60 q-20 -24 -32 0 q-10 21 -9 51 q8 156 5 293 q-2 26 -7 45 q-5 17 12 13 l24 -7 l62 3 q19 46 33 97 q2 10 4 30 l0 2 Z" /><glyph glyph-name="" unicode="&#x5047;" d="M834 765 q20 -9 28 -15 q11 -8 4 -24 q-4 -15 -7 -31 q-2 -17 -11 -131 q3 -3 8 -16 q7 -20 4 -26 q-2 -6 -17 -6 q-32 0 -98 -3 l-100 -3 q-21 0 -26 19 q-6 20 -4 26 q2 5 15 6 q61 1 142 5 l18 1 q6 93 10 139 q-100 -6 -136 -7 q-12 0 -21 25 q-7 19 -6 24 q1 5 12 4 q43 0 145 5 q13 2 16 4 q5 5 11 5 q3 2 8 0 l5 -1 ZM222 527 q14 -12 18 -34 q4 -32 4 -50 q1 -146 -4 -379 q-1 -57 -22 -86 q-17 -26 -31 3 q-10 23 -9 68 q11 197 6 402 q0 12 -2 34 q-48 -65 -121 -136 q-9 -9 -16 -4 q-6 5 2 17 q172 277 201 348 q9 22 20 65 q4 18 19 12 q20 -6 41 -21 q13 -10 5 -26 q-56 -118 -117 -208 l6 -5 ZM524 572 l2 67 q2 45 2 64 q-47 0 -119 -4 l0 -131 l115 4 ZM408 247 l113 6 q16 0 23 1 q15 2 20 -1 q5 -4 11 -19 q7 -20 5 -26 q-2 -6 -16 -7 q-50 -1 -148 -5 l-8 0 l-1 -116 q0 -65 -16 -98 q-10 -20 -20 -20 q-11 -1 -17 19 q-10 38 -9 87 q9 343 4 592 q-1 44 -9 82 q-5 23 15 18 q18 -4 31 -11 l123 5 q16 1 28 8 q5 3 9 3 q8 2 15 -1 q17 -5 27 -13 q11 -8 6 -24 q-4 -11 -6 -31 q-3 -24 -7 -127 q4 -5 6 -14 q6 -19 4 -24 q-2 -6 -15 -7 q-27 0 -83 -2 q-56 -2 -84 -2 l0 -108 l128 7 q15 1 19 -2 q5 -3 11 -19 q7 -20 5 -26 q-3 -6 -16 -6 l-68 -2 q-45 -2 -66 -2 l-13 0 l-1 -115 ZM959 2 q16 -12 15 -16 q-1 -4 -20 -6 q-9 -1 -24 -6 q-17 -5 -25 -6 q-21 -4 -38 10 q-81 60 -138 135 q-76 -85 -211 -141 q-20 -8 -24 -1 q-3 6 14 17 q124 82 190 170 q-32 52 -54 109 q-15 38 -25 52 q-5 11 -4 25 q3 25 17 14 q23 -20 47 -70 q19 -39 50 -84 q44 76 74 176 l-168 -9 q-12 0 -21 23 q-7 19 -6 24 q1 4 12 4 q74 0 174 6 q13 1 23 9 q5 5 11 3 q5 0 11 -3 q21 -10 33 -19 q13 -10 4 -26 q-16 -29 -27 -63 q-36 -103 -84 -171 q45 -49 94 -87 q19 -15 52 -36 q35 -23 48 -33 Z" /><glyph glyph-name="" unicode="&#x504f;" d="M597 713 q-13 32 -56 99 q-14 20 10 15 q64 -15 99 -73 q19 -33 -6 -54 q-32 -27 -47 13 ZM254 479 q5 -25 5 -49 q3 -174 -4 -394 q-1 -56 -24 -86 q-20 -25 -30 5 q-8 19 -6 65 q9 218 6 413 q-2 44 -5 66 q-67 -78 -150 -145 q-11 -8 -17 -3 q-6 5 4 17 q190 252 241 357 q15 29 24 64 q5 17 20 11 q26 -12 41 -24 q12 -11 3 -27 q-70 -130 -141 -219 q9 -7 16 -16 q13 -15 17 -35 ZM842 358 l-110 -4 l4 -2 q10 -3 10 -21 l0 -39 q0 -36 -1 -55 l50 2 q34 2 47 2 l0 117 ZM696 235 l0 60 l-3 58 l-93 -4 q7 -5 9 -17 l0 -29 q0 -46 1 -72 l86 4 ZM473 342 l0 -115 l87 3 q0 55 -1 81 q-1 18 -6 36 l-80 -5 ZM754 538 q1 41 5 107 q-158 -3 -287 -9 q-2 -14 -3 -42 l-6 -65 q161 4 234 7 l57 2 ZM448 391 q154 8 370 16 q21 1 36 10 q4 2 6 2 q7 2 12 -1 q12 -4 29 -15 q15 -9 7 -24 q-6 -16 -6 -32 q-1 -36 -1 -154 q0 -112 -3 -174 q-1 -38 -26 -55 q-35 -21 -43 1 q-3 7 -59 29 q-12 5 -11 10 q1 6 14 6 q64 -2 64 11 q4 102 5 170 l-97 -3 q0 -56 -1 -85 q-3 -49 -19 -76 q-13 -22 -20 0 q-10 29 -10 73 l0 86 l-85 -3 l0 -108 q-1 -30 -14 -45 q-15 -21 -27 -1 q-11 17 -10 41 q1 40 1 112 l-87 -3 q-1 -24 -1 -72 l-1 -79 q-1 -38 -15 -58 q-18 -26 -31 -1 q-11 22 -10 51 q6 162 3 281 q-39 -105 -131 -191 q-13 -11 -19 -7 q-7 4 2 18 q113 168 135 430 q5 60 3 130 q-1 22 16 18 q22 -6 38 -15 q183 6 274 10 q19 0 32 8 q4 2 7 2 q6 3 17 0 q17 -5 32 -14 q14 -9 5 -26 q-6 -13 -8 -30 l-8 -101 q3 -4 6 -14 q7 -20 4 -25 q-2 -6 -18 -6 l-347 -9 q-6 -47 -15 -88 l5 0 Z" /><glyph glyph-name="" unicode="&#x505a;" d="M209 505 q14 -13 17 -34 q4 -20 4 -49 q0 -196 -4 -372 q-1 -55 -22 -86 q-18 -27 -32 2 q-10 24 -9 68 q11 197 6 396 q0 12 -2 32 q-52 -65 -123 -130 q-10 -9 -16 -4 q-6 5 2 17 q169 249 215 364 q10 22 21 69 q4 18 20 12 q19 -7 42 -24 q12 -10 4 -27 q-67 -142 -129 -229 l6 -5 ZM490 145 l7 155 q-89 -4 -135 -7 l4 -153 q33 2 106 4 l18 1 ZM510 360 q9 5 20 1 q17 -6 28 -14 q11 -9 5 -24 q-3 -10 -7 -34 q-4 -52 -9 -147 q2 -3 7 -16 q7 -20 4 -26 q-2 -6 -17 -7 q-30 0 -175 -5 l0 -12 q0 -16 -19 -24 q-25 -12 -29 -3 q-5 10 -5 28 q-1 14 -4 115 q-2 75 -5 106 q-1 20 -7 37 q-4 11 -2 14 q2 2 14 1 q16 -1 28 -6 l65 3 q2 116 2 163 l-108 -5 q-14 0 -21 21 q-9 29 4 29 l126 7 q2 98 2 131 q0 24 -4 76 q-2 20 14 16 q29 -7 46 -16 q11 -5 9 -25 q-2 -18 -4 -60 l-4 -119 l8 0 q63 5 77 9 q20 5 30 -24 q11 -36 -12 -36 q-36 1 -105 -2 l-3 -162 l20 1 q17 0 30 8 l1 1 ZM632 477 q32 -124 85 -222 q43 109 61 264 q-37 -3 -113 -7 q-7 0 -12 3 q-10 -21 -21 -38 ZM833 519 q9 -9 5 -30 q-30 -183 -85 -293 q32 -48 79 -98 q23 -24 66 -54 q48 -35 65 -50 q21 -18 -4 -21 q-12 -1 -31 -9 q-20 -8 -31 -10 q-20 -4 -36 14 q-86 77 -141 169 q-77 -118 -220 -189 q-21 -10 -26 -4 q-5 7 15 22 q133 101 200 227 q-54 108 -80 246 q-14 -21 -44 -59 q-8 -10 -15 -6 q-6 5 0 18 q96 220 117 326 q6 33 8 68 q1 19 17 15 q30 -9 42 -17 q11 -8 7 -25 q-35 -125 -66 -197 q119 8 140 10 q55 6 71 12 q25 9 39 -19 q19 -38 -7 -38 q-28 0 -88 -5 l3 -3 Z" /><glyph glyph-name="" unicode="&#x505c;" d="M404 667 q-17 0 -25 19 q-13 28 3 28 l216 9 l-6 11 q-11 25 -52 89 q-12 18 10 15 q60 -9 93 -63 q18 -29 -2 -50 l68 4 q91 6 125 12 q22 4 34 -23 q16 -35 -11 -35 q-25 1 -453 -16 ZM496 503 q101 2 186 6 l46 2 l5 76 q-141 -3 -240 -10 l3 -74 ZM793 605 q-1 -2 -6 -26 q-3 -26 -6 -72 q4 -5 6 -14 q6 -18 4 -23 q-3 -6 -17 -6 l-278 -8 q-2 -12 -18 -17 q-24 -9 -27 -2 q-4 9 -5 22 l-7 126 q-1 14 -6 28 q-4 10 -2 13 q1 2 12 1 q19 -2 28 -5 l245 11 q16 0 29 7 q4 2 11 2 q3 0 9 -2 q12 -5 24 -13 q10 -9 4 -22 ZM250 491 q5 -23 5 -49 q5 -190 -1 -376 q-1 -55 -26 -84 q-19 -26 -31 4 q-8 22 -7 65 q9 206 4 394 q0 18 -4 44 q-55 -66 -134 -136 q-10 -9 -16 -4 q-7 5 2 17 q195 286 231 360 q15 29 24 66 q5 17 20 11 q23 -8 43 -24 q13 -12 4 -28 q-72 -132 -140 -220 q2 -1 6 -5 q15 -15 20 -35 ZM772 291 q20 3 29 -19 q12 -30 -12 -31 q-48 -3 -142 -7 q5 -5 3 -14 q-2 -22 -2 -31 l-1 -88 q0 -63 -1 -101 q-1 -43 -27 -60 q-36 -23 -46 0 q-3 7 -95 36 q-12 4 -11 10 q1 7 14 7 q101 -2 102 10 q2 136 2 206 q0 15 -1 23 q-43 -2 -133 -4 q-23 0 -31 17 q-9 17 -8 22 q2 5 16 6 l251 12 l93 6 ZM399 346 q-6 -37 -27 -84 q-23 -50 -53 -17 q-16 17 -4 41 q31 54 57 130 q10 26 18 2 q2 -5 7 -23 l424 19 q22 1 37 9 q9 6 17 2 q1 0 8 -5 q24 -18 35 -35 q16 -21 -2 -30 q-18 -7 -26 -15 q-17 -13 -57 -59 q-22 -14 -27 -10 q-5 3 3 28 q11 36 26 65 q-238 -7 -432 -18 l-4 0 Z" /><glyph glyph-name="" unicode="&#x5065;" d="M690 467 l87 4 l1 34 q0 23 1 34 q-45 -2 -89 -3 l0 -69 ZM691 582 l89 3 q2 35 3 66 q-32 0 -92 -2 l0 -67 ZM689 151 q0 -57 -15 -88 l-5 -9 q49 -10 96 -14 q31 -3 88 -7 q52 -4 83 -8 q47 -6 2 -24 q4 1 -38 -32 q-14 -10 -43 -8 q-316 27 -459 170 q-47 -86 -136 -147 q-15 -11 -19 -5 q-5 5 7 19 q73 86 112 174 q-13 15 -37 49 q-19 25 -36 34 q-13 8 -15 28 q0 29 22 20 q24 -10 54 -46 q10 -13 30 -37 q23 68 36 151 q-14 0 -110 -6 q-12 -2 -14 7 q-5 7 -1 15 q18 38 54 111 q35 70 51 104 q-90 -8 -98 -8 q-11 0 -20 23 l-4 12 q-39 -68 -71 -114 l5 -4 q14 -14 17 -34 q4 -30 4 -48 q0 -205 -4 -376 q-1 -53 -20 -83 q-16 -24 -29 3 q-9 22 -8 65 q11 212 6 398 q0 13 -2 37 q-48 -62 -116 -127 q-10 -10 -16 -5 q-6 5 2 18 q167 258 207 353 q9 22 20 67 q4 18 19 12 q24 -9 40 -22 q11 -10 4 -26 q-25 -52 -49 -98 l1 0 q64 2 111 6 q14 2 20 8 q3 3 8 3 q6 2 13 -2 q17 -8 30 -19 q12 -10 4 -23 q-57 -106 -121 -202 l50 3 q13 0 26 7 l1 0 q5 7 18 2 q21 -8 32 -15 q14 -9 6 -24 q-8 -19 -17 -63 q-17 -87 -44 -148 q93 -87 224 -118 l-1 2 q-14 38 -13 81 l1 44 l-128 -5 q-16 0 -23 21 q-11 27 4 29 l148 5 l2 65 l-94 -3 q-20 -1 -30 16 q-8 17 -7 22 q2 6 15 7 l117 6 l0 68 l-100 -3 q-21 0 -26 17 q-6 19 -4 24 q2 5 16 5 q78 2 115 4 l0 69 l-153 -6 q-16 -1 -24 18 q-10 27 4 27 l173 7 l0 67 l-42 -2 q-28 -2 -41 -2 q-14 -1 -24 21 q-7 19 -6 23 q1 4 14 4 l98 5 l0 25 q0 42 -8 79 q-6 21 14 16 q21 -6 39 -18 q12 -10 12 -32 q0 -36 -1 -60 l0 -8 l72 3 q16 0 31 6 q7 5 19 2 q16 -5 30 -14 q13 -7 5 -25 q-6 -14 -8 -33 q-2 -16 -4 -48 q38 3 58 6 q21 4 33 -22 q15 -35 -12 -33 q-36 1 -82 0 l-3 -72 q2 -2 7 -15 q7 -18 4 -23 q-3 -6 -17 -6 q-20 0 -66 -2 l-69 -2 l-1 -67 l45 2 q52 2 79 4 q20 1 28 -19 q13 -31 -12 -31 q-94 -4 -140 -5 l0 -65 q28 1 58 3 q68 3 101 8 q22 4 33 -24 q14 -37 -13 -35 q-38 2 -179 -2 l0 -38 Z" /><glyph glyph-name="" unicode="&#x5076;" d="M245 459 q3 -16 5 -49 q3 -157 -2 -367 q-1 -55 -21 -84 q-18 -26 -32 3 q-12 26 -9 67 q8 188 3 389 q-2 33 -5 49 q-54 -60 -133 -126 q-10 -9 -16 -4 q-6 6 3 18 q191 254 242 357 q16 30 26 64 q5 17 20 11 q25 -11 41 -26 q12 -11 3 -27 q-85 -147 -156 -232 q8 -6 12 -10 q15 -12 19 -33 ZM580 470 l0 98 l-119 -3 l1 -99 l118 4 ZM460 611 l61 2 q40 2 58 2 l0 17 q0 27 -4 81 q-43 -1 -118 -5 q1 -7 1 -21 l2 -76 ZM764 622 l4 97 q-88 -2 -133 -4 q2 -8 2 -18 q2 -27 0 -78 l0 -2 l127 5 ZM676 473 q45 3 82 3 l3 0 q0 23 2 99 q-19 0 -62 -2 l-65 -2 l-2 -99 l42 1 ZM871 362 q14 -5 30 -15 q14 -8 8 -25 q-7 -14 -7 -31 q-2 -37 -3 -138 q0 -103 -3 -156 q-1 -41 -28 -57 q-36 -22 -46 1 q-2 5 -84 32 q-12 4 -11 10 q1 7 14 6 q90 -3 91 10 q7 132 7 303 q-67 -3 -208 -7 l0 -124 l86 23 l-22 48 q-6 11 -2 14 q3 3 13 -2 q62 -35 92 -113 q13 -35 -10 -51 q-28 -20 -38 19 q-7 26 -23 64 q-44 -30 -116 -55 q-86 -30 -109 -42 q-17 -8 -28 2 q-14 14 -26 38 q-9 18 8 18 l32 3 q32 6 91 20 l0 136 l-88 -4 q-54 -2 -84 -4 l0 -13 q2 -150 0 -266 q-2 -41 -17 -60 q-19 -26 -33 -1 q-12 23 -11 52 q6 159 1 287 q-2 28 -8 45 q-4 18 13 14 q17 -3 31 -9 q59 4 196 10 l0 77 l-119 -3 q-3 -10 -18 -18 q-26 -12 -30 -2 q-4 11 -5 31 q-6 254 -8 275 q-1 25 -7 43 q-4 12 -2 15 q2 2 14 0 q14 -1 25 -6 l316 13 q22 1 33 7 q1 1 3 1 l3 1 q6 2 16 -1 q11 -4 30 -15 q13 -8 6 -23 q-4 -8 -6 -26 q-6 -90 -8 -252 q0 -41 -33 -53 q-21 -10 -24 4 l-3 15 q-88 -2 -129 -4 l-1 -77 l181 7 q23 1 38 9 q9 4 17 1 l3 -1 Z" /><glyph glyph-name="" unicode="&#x5077;" d="M241 472 q3 -18 5 -50 q3 -158 -2 -364 q-1 -57 -22 -84 q-18 -27 -32 2 q-11 25 -10 67 q9 201 4 387 q-2 29 -5 43 q-53 -56 -120 -111 q-10 -8 -16 -3 q-6 5 3 17 q193 255 246 358 q15 27 26 64 q5 17 20 10 q23 -9 41 -25 q12 -11 3 -27 q-82 -145 -169 -246 q4 -2 7 -5 q16 -13 21 -33 ZM547 203 l0 80 l-116 -3 l0 -81 l116 4 ZM546 412 q-79 -2 -116 -4 l1 -81 l96 3 q13 0 20 1 l-1 81 ZM602 453 q13 -9 7 -23 q-5 -12 -7 -34 q-1 -45 0 -178 q1 -130 -1 -199 q-1 -37 -25 -53 q-32 -22 -40 0 q-3 6 -57 27 q-11 5 -10 10 q1 5 13 5 q61 -1 62 12 l3 136 l-58 -2 q-39 -2 -58 -2 l0 -122 q0 -41 -14 -65 q-19 -28 -31 -1 q-10 25 -9 57 q5 228 -1 375 q-2 30 -7 53 q-4 19 12 15 q16 -3 28 -10 q25 2 63 3 q46 2 57 3 q14 0 27 7 q3 2 9 2 q7 0 10 -2 q13 -5 27 -14 ZM676 589 q19 3 27 -19 q13 -32 -11 -33 q-129 -4 -186 -7 q-21 -1 -29 17 q-14 29 7 30 l192 12 ZM704 148 q-16 -18 -29 -1 q-13 18 -13 40 q4 112 0 194 q0 17 -6 33 q-4 15 11 12 q21 -3 37 -9 q13 -6 13 -18 q0 -16 -1 -25 l1 -183 q0 -27 -13 -43 ZM831 483 q12 -7 9 -23 q-5 -23 -5 -47 q-2 -54 -2 -187 l-2 -213 q-2 -44 -27 -64 q-33 -25 -43 1 q-4 12 -72 38 q-11 5 -10 10 q0 6 13 6 q80 -2 80 11 q7 190 5 424 q0 29 -5 48 q-2 11 1 13 q3 2 16 -1 q23 -5 42 -16 ZM958 549 q25 -11 3 -21 q-13 -5 -27 -18 q-17 -14 -25 -18 q-18 -9 -35 1 q-170 97 -281 235 q-22 -33 -54 -72 q-116 -146 -251 -215 q-18 -10 -22 -3 q-4 6 10 19 q142 128 212 229 q62 90 86 145 q7 16 24 10 q21 -9 37 -22 q14 -12 2 -28 q-15 -20 -25 -35 q116 -105 225 -160 q22 -11 58 -24 q48 -17 63 -23 Z" /><glyph glyph-name="" unicode="&#x5085;" d="M760 779 q-18 17 6 15 q62 -1 110 -51 q24 -23 8 -47 q-19 -29 -43 2 q-21 27 -81 81 ZM780 517 l0 56 l-76 -2 q-51 -2 -72 -2 l-1 -58 l149 6 ZM779 418 l1 55 q-100 -2 -150 -4 l-1 -57 l150 6 ZM571 410 l2 57 q-42 -2 -130 -4 l1 -57 l127 4 ZM442 552 l0 -47 l67 2 q45 2 66 2 l1 58 l-135 -6 l1 -9 ZM444 327 q0 -32 -15 -51 q-17 -23 -31 -1 q-12 21 -11 45 q3 132 -2 241 q-2 21 -7 39 q-4 16 12 14 l31 -8 l156 6 l1 60 q-70 -1 -138 -3 q-22 -1 -31 16 q-9 17 -8 22 q2 6 16 7 l160 6 l0 41 q0 35 -7 60 q-5 21 14 15 q23 -5 40 -15 q13 -8 13 -27 q-1 -16 -1 -45 l-1 -27 l131 8 q21 1 29 -19 q14 -31 -11 -32 l-150 -6 l-1 -59 l125 5 q19 0 32 8 q5 3 10 3 q3 0 9 -2 q16 -4 32 -15 q12 -9 5 -26 q-6 -14 -8 -36 q-1 -34 0 -96 l0 -107 q0 -30 -21 -45 q-26 -21 -35 1 q-5 12 -4 47 l1 23 q-44 -1 -150 -5 q0 -45 -16 -72 q-18 -30 -31 0 q-14 32 -13 67 l0 3 q-20 0 -62 -2 l-63 -2 l0 -36 ZM247 516 q14 -15 18 -36 q5 -21 6 -48 q3 -188 -3 -383 q-3 -55 -26 -84 q-20 -25 -30 5 q-7 21 -6 64 q9 198 5 400 q0 19 -2 43 q-62 -69 -135 -130 q-11 -9 -17 -3 q-6 5 3 17 q183 245 233 352 q12 26 24 65 q4 17 20 11 q27 -13 41 -25 q13 -10 4 -27 q-65 -122 -138 -218 l3 -3 ZM584 51 q-19 -31 -46 1 q-26 33 -90 84 q-21 16 5 16 q68 0 121 -52 q28 -25 10 -49 ZM754 243 q120 8 163 15 q24 4 38 -25 q19 -38 -12 -38 q-90 0 -190 -4 q-1 -31 -1 -98 l-1 -105 q0 -42 -26 -61 q-35 -25 -45 0 q-3 9 -96 38 q-12 4 -11 10 q0 6 13 6 q104 -2 104 9 q3 99 3 199 q-148 -6 -358 -12 q-18 -1 -29 20 q-14 29 3 29 q213 6 384 14 l0 30 q0 22 -4 39 q-3 16 17 11 q22 -4 43 -14 q12 -6 9 -22 q-4 -15 -4 -36 l0 -5 Z" /><glyph glyph-name="" unicode="&#x50ac;" d="M391 622 q-3 5 3 11 q9 8 9 21 l-3 79 l-3 15 q-6 13 13 12 q25 -2 37 -6 q12 -3 12 -12 q5 -39 3 -105 q115 5 134 5 l1 79 q1 43 0 64 q-2 30 -4 46 q-3 16 12 13 q26 -4 45 -12 q10 -5 8 -20 q-2 -20 -2 -34 q-3 -105 -3 -134 l145 4 q1 47 5 96 q0 21 -1 32 q-1 11 3 13 q3 2 16 -2 q22 -5 36 -15 q11 -7 7 -21 l-4 -22 q-2 -17 -3 -59 l-4 -68 q-3 -22 -32 -31 q-20 -5 -24 6 q-2 6 -2 19 l-135 -3 q-105 -2 -191 -5 q-24 -2 -41 -9 q-25 -9 -36 38 l-1 5 ZM249 471 q6 -28 6 -50 q5 -181 -2 -367 q-1 -59 -26 -88 q-19 -24 -30 5 q-6 18 -5 66 q8 191 4 385 q-2 45 -6 67 q-56 -64 -131 -122 q-11 -8 -16 -3 q-6 5 3 17 q174 230 227 343 q15 31 23 64 q5 17 21 11 q27 -12 42 -26 q12 -12 3 -28 q-72 -134 -144 -222 q8 -6 12 -13 q13 -14 19 -39 ZM641 347 q0 20 -4 64 l-137 -5 q-16 0 -24 20 l-4 11 q-34 -42 -51 -60 q3 -2 8 -7 q13 -14 18 -33 q5 -20 5 -41 q3 -110 0 -228 l186 7 l1 85 q-40 -1 -108 -5 q-20 -1 -30 16 q-8 16 -7 22 q2 5 15 6 q88 6 131 8 q1 28 1 78 l-109 -4 q-20 -1 -30 16 q-14 26 8 27 q88 6 131 8 l0 15 ZM697 163 q-1 -14 -1 -42 l-1 -43 q40 1 80 3 q94 5 124 10 q25 4 38 -24 q17 -39 -13 -37 q-79 3 -457 -13 q-11 0 -17 6 l0 -8 q-1 -47 -24 -73 q-19 -19 -28 5 q-9 20 -6 55 q6 156 3 295 q0 31 -4 50 q-46 -45 -105 -83 q-10 -7 -15 -2 q-5 6 3 16 q149 171 192 248 q11 20 20 44 q6 15 18 8 q20 -10 35 -25 q11 -10 2 -24 q-19 -27 -55 -75 q-11 -1 173 7 q-4 4 -7 10 q-20 38 -57 88 q-15 19 8 15 q57 -7 96 -60 q20 -30 -1 -51 l-1 -1 l48 3 q83 7 104 11 q20 4 31 -23 q15 -34 -11 -34 q-32 1 -175 -5 q10 -5 9 -24 l-2 -56 l116 7 q20 1 28 -18 q13 -30 -12 -30 l-133 -5 l-2 -78 l118 7 q19 3 28 -18 q12 -30 -12 -31 l-135 -5 Z" /><glyph glyph-name="" unicode="&#x50bb;" d="M688 396 q-13 7 -11 13 q2 5 16 3 q85 -5 172 -70 q33 -25 18 -54 q-15 -29 -47 1 q-43 39 -148 107 ZM487 478 q-10 -4 -13 2 q-4 5 5 12 q43 33 99 82 q-72 44 -88 53 q-15 8 -13 13 q1 5 18 3 q60 -10 117 -38 q31 31 45 46 q14 17 21 27 q8 11 17 4 q20 -17 26 -26 q10 -12 -2 -21 l-63 -53 q30 -17 53 -32 q37 -25 24 -52 q-11 -27 -45 0 q-33 26 -73 52 q-68 -49 -128 -72 ZM779 481 q-1 35 2 208 q-224 -5 -334 -12 q1 -7 1 -21 q4 -94 2 -186 q108 3 234 8 l95 3 ZM793 745 q8 3 18 0 q11 -4 29 -13 q13 -8 6 -22 q-4 -11 -4 -25 q-3 -139 -2 -215 q2 -37 -31 -50 q-21 -8 -24 3 q-2 6 -2 11 q-54 -1 -162 -5 q-117 -4 -172 -5 q-3 -12 -19 -19 q-25 -12 -30 -2 q-4 12 -5 29 q-3 194 -6 239 q-1 22 -7 40 q-3 11 -1 14 q2 2 14 1 q14 -2 19 -4 l87 4 q27 51 38 82 q5 14 6 27 q3 15 17 11 q30 -8 45 -18 q14 -9 3 -23 q-47 -59 -70 -77 l112 4 q68 2 106 4 q18 0 32 7 l3 2 ZM502 415 q11 11 18 1 q15 -20 20 -38 q4 -14 -7 -21 q-112 -81 -200 -100 q-12 -3 -15 3 q-3 7 9 14 q122 81 175 141 ZM248 468 q5 -22 6 -49 q4 -207 -2 -377 q-1 -53 -25 -83 q-19 -23 -30 4 q-9 23 -6 64 q8 177 4 395 q-2 33 -7 54 q-52 -64 -130 -139 q-10 -9 -16 -4 q-6 5 2 17 q196 296 233 373 q13 26 25 68 q4 17 19 11 q22 -8 42 -24 q13 -10 4 -27 q-76 -140 -150 -239 l11 -9 q15 -15 20 -35 ZM520 220 q42 -46 90 -85 q50 51 88 116 l-157 -7 l-21 -24 ZM584 295 l116 5 q17 2 28 9 q10 5 16 0 l6 -3 q18 -11 32 -26 q12 -13 -1 -28 q-19 -19 -39 -47 q-39 -57 -86 -104 q66 -43 138 -66 q29 -9 77 -19 q61 -12 78 -16 q28 -7 6 -20 q-12 -6 -26 -20 q-15 -15 -23 -20 q-15 -10 -36 -3 q-154 47 -253 130 q-106 -86 -279 -126 q-22 -5 -24 3 q-2 8 18 16 q155 63 245 143 q-37 37 -78 95 q-72 -72 -157 -118 q-11 -5 -15 0 q-4 6 5 15 q146 144 203 235 q9 13 22 42 q6 15 19 6 q21 -13 33 -27 q10 -11 0 -24 l-25 -32 Z" /><glyph glyph-name="" unicode="&#x50cf;" d="M225 512 q15 -12 19 -32 q4 -21 4 -49 q3 -174 -1 -365 q-1 -55 -21 -83 q-18 -29 -32 1 q-11 27 -10 68 q9 212 3 389 q0 15 -4 37 q-60 -68 -126 -123 q-11 -8 -17 -3 q-6 5 3 17 q194 271 233 348 q13 23 25 62 q5 17 20 11 q27 -13 41 -25 q12 -10 3 -27 q-78 -135 -148 -221 l8 -5 ZM547 481 q35 46 63 98 q-115 -4 -170 -8 l0 -2 q3 -78 3 -92 l104 4 ZM498 693 q-35 -43 -65 -72 q58 3 175 7 l44 71 l-154 -6 ZM778 489 l5 95 l-128 -3 q4 -5 9 -15 q6 -12 -4 -26 q-10 -16 -40 -57 l158 6 ZM579 420 q69 -54 82 -118 q75 51 120 90 q13 11 20 21 q10 11 20 1 q16 -15 26 -33 q8 -15 -5 -22 q-75 -43 -116 -62 q60 -98 142 -165 q15 -13 44 -29 q33 -20 46 -29 q20 -14 -1 -19 q-13 -3 -30 -12 q-18 -9 -28 -12 q-18 -4 -29 8 q-116 107 -172 247 q-12 -5 -33 -10 q20 -140 -1 -277 q-7 -45 -33 -66 q-34 -28 -46 3 q-3 10 -103 44 q-16 4 -14 12 q1 8 16 7 q81 -7 97 -6 q17 1 18 11 q14 86 12 170 q-147 -126 -302 -152 q-17 -3 -19 4 q-3 7 14 14 q191 83 304 215 l-3 29 q-2 16 -4 24 q-151 -121 -286 -147 q-15 -3 -18 4 q-2 7 13 14 q167 80 266 190 l2 2 q-4 8 -18 32 l-4 6 q-94 -96 -229 -129 q-18 -5 -21 2 q-3 7 15 17 q113 60 184 133 l-63 -2 q-4 -7 -17 -13 q-26 -9 -30 -2 q-4 9 -5 23 l-4 72 q-2 47 -4 67 q-34 -26 -68 -45 q-11 -6 -15 -1 q-5 5 4 15 q142 156 187 242 q14 25 19 44 q6 16 20 8 q22 -11 37 -26 q12 -11 2 -26 q-11 -15 -31 -45 l114 5 q18 2 28 7 l3 1 q9 4 20 -2 q11 -8 28 -27 q10 -12 -1 -24 q-36 -42 -71 -73 l103 4 q19 1 34 8 q3 2 9 2 q4 1 12 -1 q14 -5 29 -13 q13 -7 6 -21 q-3 -5 -5 -19 q0 -9 -3 -59 l-4 -64 q0 -30 -33 -40 q-21 -5 -24 4 q2 -6 -2 10 l-200 -7 l-8 -9 l7 -5 Z" /><glyph glyph-name="" unicode="&#x513f;" d="M299 461 q5 141 -3 255 q-1 16 3 20 q4 4 16 1 q27 -7 42 -16 q14 -7 13 -31 q-2 -29 -3 -97 q-1 -86 -3 -134 q-7 -195 -72 -300 q-65 -105 -220 -176 q-20 -10 -26 -4 q-5 6 12 18 q129 92 180 186 q55 102 61 278 ZM553 637 q-2 86 -6 128 q-1 26 20 19 q27 -8 45 -21 q16 -10 12 -32 q-5 -37 -7 -95 q-7 -297 -2 -459 q3 -89 69 -96 q82 -6 154 3 q38 5 42 35 l13 94 q4 18 11 17 q7 -1 8 -20 q5 -97 23 -115 q29 -28 5 -50 q-25 -22 -84 -28 q-83 -10 -180 -1 q-120 10 -124 159 q-3 91 -1 244 q3 169 2 218 Z" /><glyph glyph-name="" unicode="&#x5143;" d="M303 687 q-26 0 -36 19 q-11 19 -9 25 q2 5 19 6 l299 12 q72 4 108 8 q23 1 33 -22 q14 -34 -13 -35 q-158 -9 -401 -13 ZM353 462 l-183 -5 q-20 0 -31 21 q-15 31 3 31 q305 8 473 18 q132 8 176 15 q26 4 41 -26 q21 -41 -13 -41 q-87 1 -245 -5 q4 -1 10 -4 q7 -3 10 -5 q12 -7 11 -25 l-3 -58 q-5 -167 -1 -248 q1 -56 58 -60 q97 -8 188 2 q37 4 41 28 l13 102 q3 15 10 15 q7 0 8 -18 q4 -103 21 -118 q27 -23 5 -45 q-23 -21 -83 -27 q-100 -9 -210 0 q-60 4 -86 32 q-27 28 -29 87 q-1 52 0 134 l2 119 q0 42 -3 81 l0 6 l-131 -4 l7 -4 q14 -8 10 -27 q-3 -14 -8 -46 q-5 -32 -9 -50 q-29 -142 -101 -226 q-76 -87 -227 -144 q-20 -8 -23 0 q-4 7 15 18 q226 136 272 359 q10 50 12 117 l0 1 Z" /><glyph glyph-name="" unicode="&#x5145;" d="M481 699 q-22 48 -73 115 q-15 23 11 18 q70 -14 117 -84 q24 -37 -2 -61 q-32 -30 -53 12 ZM154 605 q-21 -1 -32 21 q-15 31 3 31 q364 12 506 19 q141 6 182 13 q29 5 45 -26 q21 -41 -13 -41 q-112 3 -385 -6 q5 -6 13 -18 q9 -16 -6 -31 q-97 -101 -169 -160 q150 16 370 31 q-26 37 -82 104 q-12 14 -7 19 q4 4 20 -3 q103 -45 175 -159 q28 -44 2 -70 q-27 -29 -51 18 q-22 40 -35 60 q-63 -11 -125 -21 q22 -6 33 -12 q14 -8 10 -23 q-3 -15 -5 -50 q-4 -130 -1 -211 q1 -48 55 -52 q97 -8 190 2 q36 3 39 25 q12 92 13 95 q3 15 10 15 q7 -1 8 -18 q5 -96 20 -109 q25 -24 4 -43 q-21 -21 -79 -27 q-93 -8 -212 0 q-58 4 -84 30 q-25 26 -27 81 q-2 43 0 113 l1 102 q0 37 -3 70 l0 8 l-139 -19 l14 -7 q14 -9 9 -26 q-4 -13 -8 -39 l-9 -43 q-30 -120 -105 -188 q-78 -73 -229 -110 q-20 -5 -22 4 q-2 8 17 17 q229 103 274 286 q10 40 12 99 q-35 -5 -80 -14 q-32 -6 -53 -17 q-14 -7 -22 5 q-13 20 -20 47 q-3 8 1 13 q3 3 7 4 q35 12 64 39 q73 70 132 140 q15 18 28 41 l-254 -9 Z" /><glyph glyph-name="" unicode="&#x5148;" d="M600 371 q13 -6 10 -23 q1 9 -2 -49 q-4 -130 -1 -211 q1 -46 52 -50 q88 -7 177 1 q34 4 37 24 l12 87 q3 15 10 15 q6 -1 7 -17 q5 -89 19 -101 q26 -22 5 -41 q-20 -20 -76 -26 q-96 -8 -198 0 q-55 5 -80 29 q-24 25 -26 77 q-1 44 0 114 l2 102 l-3 68 l-109 -4 q11 -8 7 -24 l-10 -35 q-6 -24 -10 -36 q-38 -119 -109 -187 q-78 -75 -219 -117 q-20 -5 -22 3 q-2 7 17 17 q215 109 271 294 q12 41 15 83 q-188 -5 -233 -7 q-21 -1 -32 20 q-15 30 3 30 q215 6 361 12 q2 110 2 154 l-174 -6 q-47 -73 -107 -121 q-9 -7 -14 -2 q-6 4 1 15 q90 158 109 220 q7 25 10 45 q1 17 19 12 q27 -10 43 -22 q13 -10 5 -26 q-16 -33 -36 -70 q12 1 145 7 q2 88 2 118 q0 42 -4 75 q-1 19 15 16 q29 -7 47 -16 q13 -5 10 -25 q-2 -17 -4 -59 l-4 -106 q27 1 55 3 q96 8 122 16 q28 9 46 -21 q26 -44 -6 -44 q-54 1 -219 -6 q-2 -49 -4 -154 l53 2 q35 2 48 2 q146 6 189 13 q29 4 44 -25 q21 -40 -12 -40 q-93 3 -257 -2 l1 -1 Z" /><glyph glyph-name="" unicode="&#x5149;" d="M589 501 q-10 -5 -14 1 q-5 5 3 14 q116 144 137 179 q10 14 17 33 q6 16 21 7 q33 -22 40 -30 q13 -13 1 -27 q-129 -138 -205 -177 ZM328 514 q-30 52 -118 159 q-10 13 -7 18 q3 5 18 0 q87 -30 155 -123 q28 -39 4 -67 q-27 -30 -52 13 ZM356 391 q-15 0 -98 -3 q-65 -3 -109 -4 q-21 -1 -32 20 q-14 29 3 30 q194 6 338 12 l1 160 q2 89 1 128 q0 30 -5 70 q-2 20 15 16 q29 -6 49 -15 q11 -6 10 -24 q-4 -32 -4 -56 q-5 -183 -6 -277 l107 5 q138 8 185 15 q27 4 42 -25 q20 -41 -12 -39 q-94 1 -271 -5 l12 -6 q14 -7 11 -24 q1 12 -2 -53 q-4 -138 -1 -225 q1 -50 57 -54 q91 -7 187 1 q37 4 39 27 l6 60 q3 37 8 59 q3 15 10 15 q7 -1 8 -18 q4 -117 21 -134 q25 -23 4 -44 q-20 -20 -81 -26 q-98 -9 -209 -1 q-59 4 -85 31 q-26 27 -28 83 q-2 48 -1 121 l2 108 q0 38 -3 74 l0 4 l-125 -5 q6 -2 16 -8 q13 -8 9 -27 q-3 -11 -8 -38 q-5 -27 -9 -41 q-32 -128 -102 -202 q-75 -80 -219 -127 q-19 -7 -22 1 q-4 8 15 18 q215 120 263 318 q9 38 13 101 l0 4 Z" /><glyph glyph-name="" unicode="&#x514b;" d="M667 342 l9 142 q-224 -5 -377 -13 l5 -141 l363 12 ZM692 545 q9 4 19 0 q19 -6 29 -15 q11 -9 5 -25 q-6 -16 -7 -33 q-6 -41 -11 -136 l5 -13 q8 -19 5 -25 q-3 -5 -20 -5 q-98 -2 -146 -4 q6 -1 13 -5 q12 -6 10 -21 q1 10 -2 -39 q-3 -113 -1 -154 q3 -37 53 -41 q111 -7 198 2 q35 3 38 21 q2 10 6 44 q3 28 7 43 q3 14 10 14 q6 -1 7 -17 q6 -86 20 -99 q25 -22 4 -41 q-22 -21 -78 -25 q-102 -9 -219 -1 q-57 4 -82 28 q-25 22 -27 71 q-1 33 0 83 l1 75 q0 20 -2 56 l0 5 l-115 -4 l10 -6 q13 -8 7 -24 l-10 -30 q-6 -19 -10 -29 q-41 -104 -110 -163 q-76 -64 -211 -96 q-19 -5 -21 3 q-2 8 17 17 q204 90 261 251 q12 31 17 76 l-58 -2 q0 -15 -19 -23 q-26 -12 -31 -2 q-5 12 -5 26 q-11 199 -10 193 q-1 20 -7 35 q-4 11 -2 14 q2 2 14 1 q18 -2 27 -5 q57 3 174 7 q2 72 2 102 l-242 -7 q-19 0 -28 21 q-14 28 3 30 q-18 0 269 7 l1 78 q0 31 -3 62 q-2 19 15 15 q34 -8 50 -15 q12 -5 9 -22 q-2 -15 -4 -49 l-3 -66 q61 2 90 4 q116 5 158 12 q25 4 38 -25 q19 -38 -12 -38 q-90 1 -276 -5 q-2 -33 -4 -101 l145 5 q22 1 36 9 l3 1 Z" /><glyph glyph-name="" unicode="&#x514d;" d="M277 488 q2 -82 2 -147 q56 1 154 5 q2 5 4 16 l4 16 q13 54 17 130 l0 1 l-182 -9 l1 -12 ZM363 669 q-54 -69 -112 -119 q160 8 243 11 l82 118 q-136 -5 -209 -10 l-4 0 ZM711 356 q1 63 5 162 q-134 -4 -205 -7 l9 -5 q13 -9 9 -29 q-4 -16 -11 -52 q-6 -36 -11 -55 l-6 -21 l210 7 ZM688 569 q23 1 38 10 q6 3 12 3 q3 0 13 -2 q20 -5 34 -14 q14 -10 6 -28 q-7 -17 -8 -36 q-3 -27 -9 -148 q4 -3 11 -19 q8 -22 5 -28 q-3 -6 -23 -6 q-118 -1 -283 -8 q-88 -249 -398 -348 q-25 -8 -28 0 q-3 8 21 20 q256 128 335 326 l-135 -3 l0 -3 q0 -17 -22 -25 q-29 -12 -33 -2 q-5 10 -5 29 q-6 200 -8 216 l-1 13 q-39 -29 -88 -58 q-11 -7 -16 -1 q-5 6 5 16 q178 181 247 302 q15 24 25 52 q7 16 21 8 q25 -13 39 -28 q12 -12 1 -27 q-37 -52 -40 -57 l172 8 q19 1 32 9 l5 2 q8 4 20 -4 q15 -10 32 -29 q11 -14 -1 -27 q-69 -81 -111 -118 l135 5 ZM944 32 q24 -21 3 -41 q-23 -20 -84 -26 q-125 -9 -257 0 q-62 4 -88 28 q-26 22 -28 70 q-1 30 0 74 l1 68 q0 28 -3 53 q-1 15 16 13 q26 -4 44 -12 q14 -6 10 -21 q-2 -10 -4 -36 q-3 -102 -1 -138 q1 -36 59 -41 q121 -8 237 2 q40 3 43 22 q14 98 13 94 q4 14 11 13 q6 -1 7 -16 q6 -93 21 -106 Z" /><glyph glyph-name="" unicode="&#x515a;" d="M318 637 q-19 30 -87 110 q-20 21 8 16 q71 -11 125 -78 q26 -32 3 -57 q-26 -29 -49 9 ZM777 618 q25 0 45 10 q12 6 20 1 q3 -1 9 -5 q17 -11 36 -34 q16 -21 -2 -30 q-16 -9 -28 -19 q-23 -20 -74 -83 q-41 -29 -23 17 q12 32 40 90 q-395 -13 -599 -23 q-10 0 -14 1 q1 -53 -26 -123 q-22 -60 -55 -30 q-20 20 -8 48 q37 87 57 166 q8 30 19 3 q2 -3 4 -13 l273 12 q-1 36 0 96 l0 77 q0 17 -4 53 q-3 16 13 14 q28 -5 49 -13 q11 -6 9 -21 l-3 -40 q-3 -129 -3 -164 l70 3 q-9 3 0 15 q84 115 95 138 q8 15 12 27 q6 16 20 7 q26 -15 38 -27 q13 -13 2 -26 q-99 -105 -157 -133 l-2 -1 l187 7 ZM624 305 q1 47 5 127 q-173 -3 -292 -10 l4 -125 l283 8 ZM684 286 q7 -20 4 -25 q-2 -6 -18 -6 q-36 0 -112 -2 q17 -4 26 -9 q13 -5 10 -20 q-4 -20 -4 -35 q-4 -72 -1 -136 q1 -33 49 -36 q97 -7 197 1 q35 3 37 20 q8 74 12 89 q3 14 10 14 q6 0 7 -16 q5 -89 18 -101 q25 -21 5 -39 q-21 -20 -76 -24 q-101 -9 -216 -1 q-101 7 -104 92 q-1 30 0 74 l1 66 q0 27 -3 51 q0 7 1 9 l-115 -3 q11 -4 23 -11 q12 -7 7 -22 l-10 -29 q-7 -23 -10 -30 q-39 -95 -114 -146 q-80 -55 -222 -75 q-20 -3 -22 5 q-2 8 19 15 q224 71 277 214 q9 27 17 73 l1 5 l-37 -1 q-3 -13 -19 -18 q-25 -10 -29 -2 q-5 9 -5 25 l-4 92 q-2 62 -4 86 q-3 20 -7 33 q-4 11 -2 14 q2 2 13 1 q19 -2 31 -7 l295 11 q18 0 33 8 q5 3 9 3 q3 0 11 -2 q17 -6 28 -14 q10 -8 5 -24 q-5 -15 -6 -31 q-4 -38 -8 -130 l2 -6 Z" /><glyph glyph-name="" unicode="&#x515c;" d="M761 397 q1 95 7 255 l-103 -7 q-12 0 -20 24 q-7 19 -5 24 q1 5 11 4 q29 0 106 5 q12 0 21 6 q6 5 12 2 q3 1 10 -1 q24 -9 31 -15 q11 -8 5 -26 q-4 -12 -8 -40 q-4 -46 -12 -236 q4 -5 6 -14 q7 -19 5 -25 q-2 -6 -16 -7 q-31 0 -80 -2 q-62 -2 -78 -2 q-20 0 -25 18 q-6 21 -4 27 q1 5 14 6 l123 4 ZM419 544 q50 0 93 3 q15 0 41 2 q0 41 2 97 q-74 -1 -137 -6 l1 -96 ZM418 401 q52 0 97 3 l36 1 q0 60 1 97 l-133 -3 q0 -67 -1 -98 ZM417 353 q-1 -18 -19 -27 q-24 -12 -29 -1 q-4 12 -4 30 q-4 287 -3 279 q-2 29 -6 43 q-3 12 -1 15 q2 2 13 0 q6 -1 21 -5 l38 2 q23 55 34 105 q3 9 5 30 q1 13 14 12 q25 -3 44 -13 q14 -6 5 -21 q-44 -85 -70 -111 l80 3 q14 0 27 7 l1 1 q8 5 17 0 q14 -5 29 -14 q13 -7 6 -22 q-5 -9 -5 -25 q-4 -190 -3 -252 q0 -39 -31 -52 q-20 -9 -23 3 l-3 17 q-43 -2 -137 -4 ZM131 327 q-5 8 -2 12 q0 5 6 8 q29 13 30 34 q5 117 1 206 q0 12 -4 34 q-4 16 15 15 q6 0 20 -2 q50 38 74 67 q12 16 18 28 q7 13 19 8 q24 -13 35 -24 q12 -12 -2 -23 q-67 -53 -115 -72 q1 -2 1 -7 q0 -105 -6 -224 l97 46 q22 10 27 3 q4 -7 -15 -25 q-23 -23 -62 -50 q-47 -32 -60 -43 q-5 -4 -25 -24 q-11 -12 -22 -3 q-13 12 -30 36 ZM415 282 q13 -8 8 -24 l-19 -66 q-35 -105 -106 -164 q-76 -63 -214 -93 q-20 -5 -21 4 q-2 8 17 15 q212 88 263 249 q9 31 15 83 q1 17 18 13 q16 -5 39 -17 ZM935 40 q24 -22 4 -40 q-21 -19 -77 -25 q-106 -8 -219 0 q-103 7 -106 97 q-1 32 0 88 l1 79 q0 30 -3 57 q-1 16 16 14 q22 -3 41 -13 q14 -6 10 -21 q-4 -22 -4 -41 q-4 -85 -1 -161 q1 -39 52 -43 q98 -7 200 1 q36 4 38 23 l5 44 q4 30 7 47 q4 14 10 13 q6 -1 7 -16 q5 -90 19 -103 Z" /><glyph glyph-name="" unicode="&#x5165;" d="M445 572 l-30 68 q-26 63 -63 67 q-17 3 -22 25 q-4 27 21 26 q65 -6 106 -96 q126 -277 323 -458 q34 -32 84 -72 q57 -45 78 -63 q19 -17 18 -21 q-2 -4 -24 -5 q-12 -1 -27 -5 l-28 -8 q-22 -4 -43 16 q-228 204 -354 445 q-164 -333 -407 -463 q-20 -12 -25 -5 q-5 7 15 24 q252 214 376 522 l2 3 Z" /><glyph glyph-name="" unicode="&#x5168;" d="M569 290 q67 4 103 7 q22 1 31 -21 q15 -32 -12 -33 q10 1 -171 -9 q-2 -100 -2 -166 l107 5 q125 6 174 14 q29 4 44 -27 q21 -42 -13 -40 q-106 4 -659 -19 q-21 0 -32 21 q-15 31 3 31 l316 12 l0 167 l-73 -2 q-49 -2 -72 -2 q-25 0 -35 18 q-10 18 -8 24 q1 5 17 6 l86 4 q56 2 85 4 q0 51 -1 73 q-2 46 -5 69 l0 1 q-63 -1 -123 -3 q-23 -1 -33 18 q-10 17 -8 23 q1 6 16 7 l130 6 q83 3 126 6 q49 2 93 6 q21 1 31 -21 q14 -33 -13 -34 q-52 -3 -161 -7 l3 -1 q11 -5 10 -24 q-2 -30 -2 -55 l0 -61 l48 3 ZM955 439 q16 -7 17 -11 q0 -4 -13 -10 q-12 -6 -27 -17 q-17 -14 -24 -18 q-19 -9 -38 2 q-227 120 -377 308 q-41 -52 -79 -94 q-159 -174 -334 -261 q-22 -10 -26 -3 q-4 7 14 21 q178 136 296 277 q78 94 126 177 q10 17 25 9 q22 -12 33 -23 q14 -13 1 -30 l-18 -23 q-12 -16 -19 -24 q154 -149 301 -222 l142 -58 Z" /><glyph glyph-name="" unicode="&#x516b;" d="M292 477 q10 31 21 89 q4 19 20 14 q28 -10 43 -21 q13 -9 7 -28 q-120 -340 -332 -539 q-11 -11 -18 -5 q-7 5 3 19 q190 272 256 471 ZM444 731 q-1 28 20 23 q51 -14 81 -97 q101 -286 268 -481 q28 -33 75 -79 q46 -45 67 -70 q16 -19 14 -24 q-1 -4 -23 -3 q-11 0 -27 -4 q-21 -5 -29 -6 q-23 -2 -42 20 q-238 269 -348 626 q-16 53 -40 65 q-16 8 -16 30 Z" /><glyph glyph-name="" unicode="&#x516c;" d="M414 653 q-141 -246 -325 -378 q-11 -8 -16 -2 q-5 5 4 17 q187 214 252 344 q11 22 24 61 q6 18 20 10 q24 -12 38 -26 q12 -11 3 -26 ZM214 83 q45 16 80 65 q65 94 139 226 q17 35 33 80 q6 22 23 11 q22 -13 38 -34 q10 -15 -1 -33 q-107 -179 -200 -299 q141 19 316 36 l-71 118 q-10 18 -6 22 q5 4 21 -7 q105 -69 172 -206 q26 -51 -6 -77 q-27 -21 -49 29 q-15 37 -42 87 q-79 -18 -198 -39 q-118 -21 -162 -31 q-28 -7 -51 -19 q-15 -8 -23 4 q-13 20 -22 49 q-5 14 8 18 l1 0 ZM942 361 q17 -13 16 -17 q-2 -4 -23 -7 q-12 -2 -30 -9 q-19 -7 -30 -9 q-21 -5 -40 13 q-191 183 -274 360 q-15 33 -35 51 q-11 11 -8 33 q4 31 23 17 q32 -23 61 -72 q91 -159 219 -267 q27 -23 64 -51 l57 -42 Z" /><glyph glyph-name="" unicode="&#x516d;" d="M496 591 q-26 53 -117 175 q-10 14 -6 19 q4 4 19 -2 q93 -37 157 -141 q27 -42 -1 -70 q-30 -28 -52 19 ZM812 11 q-73 124 -228 303 q-18 20 -12 25 q5 5 27 -7 q138 -75 258 -250 q40 -58 12 -95 q-23 -32 -57 24 ZM280 209 q60 84 78 124 q7 17 24 10 q21 -9 38 -23 q15 -12 1 -29 q-10 -12 -39 -50 q-27 -36 -51 -63 q-115 -133 -207 -189 q-16 -10 -20 -4 q-4 6 8 20 q124 142 168 204 ZM663 507 q157 9 210 18 q30 5 47 -27 q24 -44 -13 -44 q-53 1 -793 -26 q-23 0 -35 22 q-16 31 2 32 q408 15 582 25 Z" /><glyph glyph-name="" unicode="&#x5171;" d="M388 213 q19 -14 36 -35 q10 -14 -3 -26 q-175 -160 -283 -205 q-11 -5 -14 2 q-4 6 6 15 q132 115 210 207 q17 21 26 37 q10 15 22 5 ZM589 207 q119 -39 229 -159 q40 -42 17 -79 q-22 -33 -58 12 q-65 81 -199 207 q-15 14 -12 20 q4 5 23 -1 ZM389 524 q0 -135 2 -214 l195 8 l7 213 q-67 -3 -204 -7 ZM675 322 q182 10 217 16 q21 4 30 -1 q10 -5 22 -26 q23 -46 -13 -44 q-143 5 -842 -24 q-23 -1 -35 21 q-18 32 2 33 l278 11 l-3 215 l-106 -3 q-29 -1 -41 18 q-11 18 -9 24 q2 5 21 6 l134 6 l-3 103 q-2 43 -7 81 q-1 13 1 15 q2 2 13 0 q30 -8 40 -13 q12 -7 13 -27 q2 -32 2 -67 l0 -90 q195 8 206 9 l3 141 q0 45 -3 88 q-2 22 16 17 q28 -6 47 -18 q11 -6 9 -27 q-5 -53 -6 -71 l-6 -128 l113 7 q25 1 36 -22 q16 -34 -15 -34 l-137 -5 l-7 -212 l30 1 Z" /><glyph glyph-name="" unicode="&#x5173;" d="M368 631 q-18 34 -97 140 q-9 12 -5 16 q3 5 16 0 q77 -24 135 -107 q25 -37 0 -62 q-28 -29 -49 13 ZM495 365 q28 2 137 7 q146 8 193 15 q30 5 45 -25 q22 -42 -12 -41 q-105 2 -334 -7 q112 -160 264 -246 q27 -15 78 -34 q61 -23 82 -33 q29 -12 3 -22 q-14 -5 -32 -18 q-20 -14 -29 -18 q-19 -8 -40 4 q-249 126 -367 366 q-36 -140 -128 -225 q-93 -87 -268 -139 q-25 -7 -28 1 q-4 8 20 19 q274 130 335 341 l-289 -13 q-21 -1 -32 20 q-16 30 2 31 l332 14 l3 16 q11 66 11 157 l0 4 l-199 -6 q-28 0 -39 18 q-11 19 -9 25 q2 5 20 6 l154 7 q92 3 149 7 q102 176 109 192 q7 16 13 39 q4 18 21 11 q28 -13 44 -26 q14 -12 3 -26 q-92 -137 -152 -188 l36 2 q90 6 135 11 q24 3 35 -21 q9 -19 6 -26 q-3 -7 -19 -9 q-85 -6 -256 -14 l10 -6 q14 -8 11 -29 q-4 -19 -8 -62 q-5 -47 -9 -71 l-1 -8 Z" /><glyph glyph-name="" unicode="&#x5174;" d="M473 548 q-18 72 -79 201 q-7 16 -2 19 q4 4 18 -5 q87 -58 125 -173 q16 -50 -15 -71 q-35 -23 -47 29 ZM288 480 q-24 59 -103 179 q-19 30 14 16 q87 -41 145 -145 q24 -45 -5 -70 q-31 -27 -51 20 ZM382 289 q23 -14 41 -32 q12 -15 -1 -28 q-165 -190 -292 -253 q-11 -5 -16 1 q-5 5 5 15 q150 150 216 247 q14 20 25 44 q9 16 22 6 ZM567 281 q128 -65 235 -218 q37 -51 9 -84 q-23 -28 -54 22 q-58 97 -204 263 q-15 18 -11 22 q5 5 25 -5 ZM657 424 q169 12 205 19 q29 4 46 -26 q22 -42 -13 -42 l-773 -30 q-22 0 -34 21 q-9 18 -9 25 q1 5 12 6 q196 7 491 23 q117 222 136 273 q7 18 16 59 q3 18 20 13 q28 -10 46 -23 q14 -10 6 -28 q-94 -191 -183 -292 l34 2 Z" /><glyph glyph-name="" unicode="&#x5176;" d="M396 158 q24 -19 33 -34 q10 -13 -3 -25 q-172 -142 -268 -176 q-12 -4 -15 2 q-3 6 7 14 q118 94 200 183 q12 12 26 32 q9 14 20 4 ZM570 146 q112 -31 214 -133 q38 -38 16 -70 q-19 -32 -54 8 q-50 60 -186 177 q-14 13 -11 18 q3 5 21 0 ZM366 230 l245 9 l0 95 l-246 -7 l1 -97 ZM365 515 l188 6 q42 2 59 2 l0 95 q-168 -6 -246 -8 l-1 -95 ZM365 373 q74 1 177 5 l70 3 l0 94 l-247 -7 l0 -95 ZM674 620 q-4 -210 -4 -379 q162 8 213 15 q32 5 48 -26 q21 -42 -12 -41 q-114 4 -823 -21 q-23 -1 -34 20 q-17 30 3 31 l246 9 l-4 381 l-100 -2 q-28 0 -39 18 q-11 17 -9 22 q2 5 21 6 l126 4 l0 16 q-2 51 -7 91 q-1 14 1 17 q3 3 14 0 q27 -7 42 -16 q12 -7 11 -27 l-1 -79 q94 3 246 11 l-1 43 q0 49 -6 100 q-2 14 1 18 q3 3 16 0 q26 -6 47 -18 q12 -6 11 -30 q-2 -24 -4 -81 l-1 -29 l117 6 q23 3 34 -20 q15 -32 -14 -33 l-138 -6 Z" /><glyph glyph-name="" unicode="&#x5177;" d="M383 165 q24 -19 35 -35 q11 -15 -4 -25 q-171 -133 -274 -167 q-11 -4 -15 3 q-3 6 7 14 q124 93 204 174 q16 18 26 32 q10 14 21 4 ZM798 34 q43 -38 22 -74 q-19 -36 -58 6 q-74 76 -201 171 q-16 12 -13 17 q3 6 22 2 q115 -22 228 -122 ZM655 335 l-155 -4 q-105 -4 -162 -5 q0 -58 -1 -83 q0 -4 -1 -7 l319 12 l0 87 ZM657 732 q-218 -6 -323 -11 q1 -7 1 -21 l2 -62 q105 3 232 8 l87 3 l1 83 ZM655 600 q-267 -8 -317 -9 l1 -85 l119 4 q70 2 109 4 l88 3 l0 83 ZM655 384 l0 83 l-154 -4 q-100 -3 -162 -4 l0 -85 q157 4 232 7 l84 3 ZM671 797 q9 5 21 1 q28 -12 37 -19 q13 -10 6 -31 q-7 -26 -9 -63 q-4 -73 -9 -434 q121 6 163 12 q21 3 30 -1 q9 -5 20 -25 q22 -44 -12 -43 q-159 7 -823 -20 q-22 -1 -34 20 q-16 31 3 32 l215 8 l0 14 q-3 369 -7 456 q-3 41 -8 64 q-3 14 -1 17 q2 2 16 0 q16 -2 32 -12 q68 4 168 7 q141 5 154 6 q23 1 37 10 l1 1 Z" /><glyph glyph-name="" unicode="&#x5179;" d="M370 656 q-17 35 -82 121 q-16 22 11 16 q75 -17 122 -90 q24 -35 -1 -60 q-30 -28 -50 13 ZM652 623 q165 10 206 17 q28 5 43 -25 q24 -42 -12 -40 q-81 0 -234 -5 q21 -12 32 -26 q11 -12 1 -28 q-50 -98 -112 -192 q93 10 139 13 l15 24 q24 44 36 79 q8 20 22 10 q19 -12 34 -32 q10 -13 -2 -31 q-111 -171 -223 -307 q34 5 170 21 l-31 81 q-6 15 -2 18 q5 3 16 -6 q72 -58 106 -166 q14 -43 -14 -61 q-31 -19 -41 27 q-9 37 -22 75 q-48 -16 -121 -32 q-74 -15 -100 -24 q-18 -6 -38 -17 q-16 -7 -24 5 q-14 22 -21 47 q-2 5 0 12 q1 5 8 8 q53 15 90 63 q47 60 116 165 q-24 -7 -77 -17 q-44 -8 -66 -16 q-11 -3 -32 -15 q-14 -8 -22 4 q-11 16 -20 44 q-3 9 1 13 q2 5 7 6 q38 16 57 46 q37 61 74 143 q12 28 18 59 l1 6 l-299 -11 q11 -8 22 -20 q11 -13 1 -29 q-53 -98 -121 -196 q54 5 132 10 l21 35 q22 39 38 83 q7 21 22 10 q20 -14 33 -31 q10 -13 -1 -32 q-120 -189 -231 -327 q62 9 145 19 l-26 90 q-4 14 0 17 q4 3 15 -6 q63 -52 86 -151 q10 -43 -18 -59 q-33 -16 -40 28 l-8 44 q-40 -14 -106 -30 q-65 -15 -90 -24 q-16 -5 -37 -18 q-15 -8 -24 4 q-15 24 -23 50 q-3 14 6 17 l4 2 q54 17 91 67 q53 69 117 170 q-23 -6 -73 -16 q-42 -8 -62 -15 q-15 -5 -32 -14 q-16 -9 -23 5 q-14 20 -20 46 q-4 16 10 18 l1 0 q32 13 54 44 q37 57 82 148 q13 29 20 60 l-177 -6 q-22 0 -33 20 q-16 30 3 30 q186 5 444 16 q75 129 88 164 q7 19 10 36 q3 18 20 11 q27 -11 44 -24 q14 -12 4 -26 q-76 -116 -123 -159 l76 4 Z" /><glyph glyph-name="" unicode="&#x517b;" d="M414 296 q14 -7 10 -23 q-2 -11 -5 -38 q-2 -29 -5 -45 q-14 -102 -64 -161 q-51 -60 -158 -98 q-15 -5 -18 1 q-3 6 10 15 q148 98 169 249 q5 38 5 100 q0 19 17 15 q24 -7 39 -15 ZM627 129 q0 -68 -2 -111 q-1 -54 -23 -91 q-16 -27 -25 1 q-12 35 -12 86 q1 72 1 222 q0 28 -2 62 q-2 14 1 16 q2 2 18 -1 q20 -3 34 -10 q13 -5 12 -24 l-2 -150 ZM503 632 q11 -10 4 -30 l-15 -40 l91 5 q75 4 115 7 q22 1 31 -20 q14 -32 -12 -33 l-246 -10 q-24 -50 -37 -72 l200 10 q142 8 189 15 q29 5 44 -23 q22 -39 -11 -39 q-108 2 -252 -4 q101 -93 208 -133 q23 -9 63 -18 q48 -11 66 -17 q28 -7 4 -20 q-13 -7 -27 -20 q-15 -14 -23 -19 q-14 -10 -34 -2 q-189 73 -297 227 q-127 -5 -160 -7 q-110 -162 -320 -236 q-15 -5 -19 2 q-3 7 12 16 q169 97 253 214 l-193 -9 q-20 -1 -31 18 q-15 29 2 29 l255 12 q21 36 37 74 l-112 -4 q-26 0 -36 17 q-10 17 -8 23 q2 6 18 7 q51 3 158 7 l5 14 q10 32 17 61 l-205 -8 q-17 -1 -27 19 q-14 27 2 29 q106 3 184 6 q-7 7 -11 15 q-19 36 -68 99 q-15 20 9 15 q64 -11 105 -70 q21 -30 0 -53 q-3 -3 -5 -4 q45 1 111 5 l58 120 q5 12 7 26 q4 17 20 10 q24 -10 43 -24 q14 -12 4 -25 q-64 -80 -96 -105 l20 1 q109 8 145 15 q22 4 36 -23 q16 -37 -12 -37 q-55 0 -264 -9 l5 -4 Z" /><glyph glyph-name="" unicode="&#x517c;" d="M531 302 l0 82 l-100 -3 l-2 -83 l102 4 ZM431 428 l100 4 l0 78 l-99 -4 l-1 -78 ZM420 636 q13 -9 13 -32 l0 -47 l97 3 l0 1 q-1 39 -6 76 l0 3 l-105 -3 l1 -1 ZM587 513 l-1 -79 l110 5 l3 78 l-112 -4 ZM694 389 q-49 0 -108 -3 l0 -82 l106 3 l2 82 ZM750 306 q5 -3 11 -18 q7 -20 4 -25 q-3 -5 -21 -6 q-42 0 -138 -2 q115 -99 222 -147 l124 -44 q27 -10 4 -20 q-13 -7 -28 -19 q-17 -14 -25 -19 q-17 -9 -35 1 q-175 89 -282 220 l0 -212 q-1 -51 -16 -80 q-21 -40 -34 -1 q-12 34 -9 78 q3 122 3 240 l-101 -3 q0 -32 -2 -107 l-2 -110 q-1 -56 -17 -86 q-9 -17 -18 -17 q-10 0 -15 17 q-10 32 -7 76 l5 155 q-153 -145 -295 -188 q-17 -5 -20 2 q-3 7 13 17 q177 112 279 239 l-125 -3 q-25 0 -31 18 q-7 20 -4 24 q2 5 19 5 l166 5 l1 83 l-242 -9 q-21 -1 -32 19 q-15 28 3 28 l272 9 l0 78 l-123 -5 q-16 -1 -28 24 q-10 20 -8 25 q1 5 16 5 q45 0 143 2 l0 7 q-2 43 -7 73 q-68 -2 -145 -3 q-19 0 -28 20 q-14 27 3 29 q123 2 182 4 q-5 5 -8 12 q-19 35 -68 97 q-15 20 9 15 q63 -10 104 -69 q21 -31 0 -52 l-2 -2 q79 2 117 4 q56 104 61 118 q4 10 8 29 q4 15 18 9 q27 -12 40 -23 q13 -11 3 -24 q-57 -78 -88 -107 l28 1 q117 6 153 13 q23 4 37 -24 q18 -37 -13 -37 q-47 1 -209 -3 l6 -4 q12 -7 11 -30 q-1 -8 -1 -23 l-1 -23 l47 2 q32 2 44 2 q19 1 30 8 q5 3 8 3 q6 2 16 -1 q17 -5 32 -15 q11 -8 5 -26 q-4 -11 -8 -39 q-2 -19 -4 -53 q84 5 117 9 q30 4 44 -24 q20 -39 -11 -38 q-92 2 -153 1 l-4 -85 Z" /><glyph glyph-name="" unicode="&#x5185;" d="M732 652 q29 1 44 12 q9 4 16 3 q3 0 7 -2 q21 -10 32 -18 q16 -12 8 -30 q-8 -21 -9 -48 q-1 -67 1 -258 q2 -191 0 -293 q-1 -50 -31 -71 q-35 -27 -46 0 q-3 6 -105 41 q-12 5 -11 11 q1 7 15 7 q73 -2 95 1 q15 3 16 12 q6 273 1 580 l-244 -9 q-11 -93 -32 -158 q109 -33 205 -139 q35 -40 14 -70 q-20 -31 -53 10 q-54 70 -173 177 q-51 -134 -197 -229 q-16 -10 -22 -5 q-7 5 7 18 q161 159 187 394 q-198 -10 -226 -12 q1 -12 1 -38 q3 -129 -1 -456 q-2 -64 -18 -94 q-10 -18 -20 -18 q-11 -1 -17 17 q-11 32 -10 78 q11 280 2 491 q-2 42 -10 71 q-5 22 15 17 q21 -4 38 -16 q123 7 251 12 l0 1 q6 90 1 178 q0 24 18 20 q25 -7 41 -16 q13 -7 12 -28 q1 10 -9 -152 l207 9 Z" /><glyph glyph-name="" unicode="&#x518c;" d="M741 461 q1 96 -1 267 q-53 -1 -128 -5 q-1 -27 0 -102 q0 -86 -1 -144 l0 -23 l130 7 ZM401 444 q1 88 1 255 q-77 -2 -114 -4 q-1 -25 -1 -90 q0 -76 -1 -124 l-1 -42 l116 5 ZM554 478 q1 174 -6 283 q-2 24 16 20 q15 -4 27 -9 l134 6 q17 1 29 10 l5 2 q7 3 14 0 q14 -7 29 -17 q15 -11 8 -29 q-9 -22 -9 -50 q-2 -66 -2 -229 q64 5 92 9 q30 5 46 -25 q21 -41 -12 -41 q-38 1 -126 1 q2 -216 -2 -364 q-1 -48 -28 -68 q-33 -26 -44 0 q-4 9 -79 40 q-11 5 -10 10 q1 6 14 6 q84 -3 85 13 q4 167 6 361 q-90 -2 -132 -4 q-6 -165 -40 -259 q-35 -97 -121 -181 q-13 -13 -19 -8 q-6 4 2 18 q112 174 121 428 l-93 -4 q0 -206 -3 -305 q-1 -45 -29 -65 q-32 -24 -43 1 q-4 8 -80 38 q-11 5 -10 10 q1 6 14 6 q86 -3 86 12 q6 184 7 300 l-119 -5 q-9 -149 -47 -239 q-39 -91 -127 -170 q-13 -12 -19 -8 q-7 4 3 18 q119 167 133 396 l-113 -5 q-22 -1 -33 20 q-17 29 2 30 l147 6 l1 46 q2 131 -5 257 q-1 24 16 19 q19 -4 37 -13 l1 0 q72 2 107 4 q18 1 29 10 q5 3 8 3 q7 2 12 -1 q16 -7 29 -17 q15 -11 7 -28 q-8 -20 -8 -46 l-3 -224 l95 4 l0 27 Z" /><glyph glyph-name="" unicode="&#x518d;" d="M699 272 l0 112 q-85 -1 -177 -6 q-1 -36 -1 -114 q33 2 154 7 l24 1 ZM464 262 l0 114 q-27 0 -85 -2 l-86 -2 q2 -54 0 -117 l171 7 ZM293 420 l171 6 l1 114 q-91 -4 -174 -9 l2 -111 ZM698 434 l-1 113 q-66 -1 -173 -5 l-2 -114 l176 6 ZM713 611 q5 4 16 0 q19 -8 30 -17 q16 -10 8 -28 q-7 -16 -8 -44 q-1 -43 1 -246 q108 7 135 11 q30 5 47 -25 q23 -43 -12 -41 q-75 1 -169 0 q0 -175 -1 -209 q-1 -46 -29 -66 q-34 -25 -44 1 q-3 7 -76 35 q-11 5 -10 11 q1 6 14 6 q79 -2 81 13 l3 207 q-138 -4 -406 -15 q0 -99 -1 -151 q0 -58 -16 -89 q-10 -17 -20 -17 q-10 -1 -16 16 q-11 28 -9 74 q3 84 3 165 l-143 -5 q-23 0 -34 20 q-16 30 3 30 l175 6 q0 161 -4 254 q-2 40 -10 68 q-6 22 14 16 q6 -1 27 -9 l203 9 l-1 40 q0 34 -5 79 q-125 -5 -244 -6 q-28 0 -39 18 q-11 18 -9 24 q2 5 21 5 q299 10 443 17 l154 9 q24 1 34 -21 q9 -19 6 -25 q-3 -7 -20 -8 q-199 -8 -290 -11 l1 -1 q12 -5 11 -26 l-2 -92 l147 6 q23 1 38 10 l3 2 Z" /><glyph glyph-name="" unicode="&#x5192;" d="M682 57 q-1 22 -1 77 l-183 -6 q-119 -4 -195 -5 q0 -54 -1 -79 l380 13 ZM684 384 q-256 -7 -383 -14 q1 -11 1 -34 l1 -44 l380 13 l1 79 ZM303 169 q152 3 275 9 l103 3 l1 76 q-55 -1 -184 -5 q-126 -5 -195 -6 l0 -77 ZM301 -9 q-2 -20 -22 -30 q-27 -15 -32 -2 q-5 14 -5 37 q0 294 -4 361 q-2 36 -6 53 q-4 14 -2 16 q3 3 16 1 q13 -3 24 -7 q170 7 389 15 q21 1 37 8 l5 2 q6 2 16 -1 q19 -8 32 -17 q14 -8 7 -25 q-5 -10 -7 -33 q-5 -163 -1 -340 q0 -50 -34 -68 q-21 -11 -26 3 q-3 11 -5 41 q-63 -1 -185 -5 q-136 -5 -197 -6 l0 -3 ZM297 517 q-6 20 -4 24 q2 5 17 6 q115 3 254 8 l88 3 q17 1 22 -2 q5 -3 10 -17 q6 -19 4 -24 q-3 -6 -18 -6 l-346 -9 q-22 0 -27 17 ZM637 671 q23 0 30 -19 q6 -17 4 -23 q-3 -5 -17 -5 l-152 -4 q-100 -3 -162 -4 q-20 0 -26 16 q-5 19 -3 24 q2 5 15 5 l311 10 ZM214 769 l516 20 q23 0 42 10 q8 5 14 3 q3 0 5 -1 q21 -8 33 -17 q12 -9 5 -26 q-7 -16 -9 -35 q-2 -30 -2 -90 l-2 -101 q-1 -29 -23 -45 q-29 -21 -37 3 q-4 13 -2 46 q2 37 3 98 l3 104 q-394 -12 -529 -20 q4 -109 2 -197 q0 -34 -16 -51 q-20 -23 -33 -2 q-13 18 -13 45 q4 110 -1 215 q-2 23 -8 38 q-6 17 12 13 q24 -4 37 -9 l3 -1 Z" /><glyph glyph-name="" unicode="&#x5199;" d="M631 146 q-40 1 -496 -17 q-19 0 -28 21 q-15 30 3 32 q244 8 360 16 q104 6 136 13 q25 4 39 -26 q18 -39 -14 -39 ZM379 489 l-19 -128 q105 6 358 14 q22 0 43 9 q8 2 11 2 q6 0 12 -3 q22 -11 36 -22 q13 -13 4 -26 q-6 -10 -11 -33 q-5 -29 -21 -136 q-14 -97 -24 -154 q-10 -50 -41 -65 q-40 -18 -48 7 q-3 8 -100 45 q-12 5 -11 11 q2 6 16 5 q111 -10 114 2 q24 124 45 301 q-220 -6 -433 -17 q-22 -2 -18 16 q0 6 1 10 q23 149 31 234 q5 55 4 83 q0 12 3 15 q4 3 18 0 q24 -5 39 -14 q14 -9 10 -25 l-13 -81 l126 7 q80 3 122 6 q65 4 99 7 q23 1 33 -21 q14 -34 -13 -35 q-155 -9 -368 -14 l-5 0 ZM855 730 q20 -21 1 -33 q-18 -10 -29 -21 q-26 -26 -66 -84 q-23 -18 -29 -14 q-6 3 1 31 q8 31 32 93 q-291 -10 -507 -21 l-10 0 q-3 -50 -34 -118 q-29 -60 -59 -28 q-21 23 -6 51 q43 82 71 166 q5 13 11 13 q6 0 9 -12 q2 -6 4 -18 q133 6 501 21 q25 1 42 9 q10 4 18 1 q6 -2 9 -4 q29 -18 41 -32 Z" /><glyph glyph-name="" unicode="&#x51a0;" d="M755 490 q74 5 96 11 q21 5 32 -25 q14 -38 -12 -38 q-48 0 -120 -3 q0 -195 -2 -293 q0 -46 -28 -67 q-34 -27 -44 0 q-5 12 -87 41 q-12 4 -11 10 q1 7 14 6 q94 -2 95 11 q3 91 5 290 q-86 -4 -160 -5 q-16 0 -24 22 q-10 29 4 31 q105 3 180 6 l-1 78 q0 28 -4 49 q-2 11 1 13 q3 2 16 -1 q20 -6 29 -10 q-3 7 5 30 q5 16 28 67 q-361 -9 -526 -17 q-11 0 -15 1 q-3 -49 -33 -116 q-27 -62 -59 -31 q-23 23 -8 51 q45 87 71 171 q4 15 10 15 q6 0 10 -13 l6 -22 q75 3 521 18 q27 1 45 9 q6 2 8 2 q9 6 23 -5 q25 -17 41 -40 q19 -25 -2 -34 q-18 -8 -29 -15 q-26 -18 -61 -61 q-17 -11 -27 -13 l7 -4 q12 -6 9 -24 q-5 -23 -5 -47 l-1 -48 l3 0 ZM642 245 q-26 -27 -46 8 q-11 19 -75 96 q-17 18 8 15 q66 -8 112 -67 q23 -29 1 -52 ZM456 592 q20 3 29 -21 q12 -32 -12 -33 q-73 -4 -218 -6 q-22 0 -30 18 q-9 18 -8 24 q2 6 15 7 l82 4 q52 1 79 3 q44 2 63 4 ZM155 371 q-15 -1 -23 21 q-11 29 4 29 q42 2 142 5 q74 2 108 4 q70 5 98 9 q21 5 32 -24 q14 -38 -13 -36 q-25 1 -96 -1 q-2 0 14 -6 q12 -7 11 -23 l-3 -50 q-3 -161 -1 -203 q3 -56 81 -61 q154 -11 298 2 q51 5 55 29 l7 46 q3 29 8 45 q4 15 10 15 q6 -1 7 -17 q5 -92 23 -108 q27 -22 1 -42 q-26 -21 -96 -27 q-150 -12 -318 -1 q-72 5 -104 33 q-31 27 -33 85 q-2 44 -1 108 l2 99 q0 37 -3 70 l0 5 l-76 -2 l3 -2 q13 -7 10 -24 q-2 -11 -5 -39 q-3 -29 -6 -44 q-18 -116 -63 -185 q-48 -72 -148 -125 q-14 -8 -18 -2 q-5 6 7 16 q137 120 163 301 q6 39 6 101 l0 1 l-83 -2 Z" /><glyph glyph-name="" unicode="&#x51ac;" d="M615 30 q59 -27 48 -69 q-9 -34 -64 -4 q-138 73 -303 139 q-23 10 -22 16 q2 7 26 5 q139 -6 315 -87 ZM566 170 q-58 45 -173 105 q-15 7 -13 13 q1 6 17 6 q93 1 195 -62 q42 -26 27 -58 q-13 -35 -53 -4 ZM362 626 q72 -80 140 -134 q79 73 143 167 q-159 -3 -263 -10 l-20 -23 ZM938 296 q19 -5 20 -10 q2 -5 -13 -12 q-13 -6 -29 -19 q-17 -15 -26 -20 q-20 -11 -44 -2 q-199 68 -338 184 q-163 -126 -422 -191 q-30 -7 -32 2 q-3 8 24 19 q242 94 384 212 q-59 56 -121 142 q-71 -78 -166 -134 q-11 -7 -16 -1 q-6 6 4 16 q165 179 224 293 q15 30 22 54 q6 17 21 9 q27 -15 42 -28 q11 -11 2 -28 l-49 -74 l224 8 q19 1 36 11 q6 5 13 3 q6 0 14 -5 q17 -11 34 -31 q14 -17 0 -30 q-25 -22 -54 -60 q-69 -88 -139 -150 q89 -63 190 -102 q36 -13 96 -29 l99 -27 Z" /><glyph glyph-name="" unicode="&#x51b0;" d="M186 541 q-27 40 -98 111 q-20 20 8 17 q75 -10 133 -76 q28 -31 7 -58 q-25 -31 -50 6 ZM238 432 q10 15 17 12 q7 -4 2 -20 q-22 -74 -141 -282 q-10 -18 -27 -11 q-25 9 -44 23 q-17 14 -2 24 q18 12 28 23 q28 32 76 101 q71 103 91 130 ZM425 553 q8 6 19 1 q20 -8 36 -19 q14 -10 6 -27 q-11 -23 -28 -71 q-82 -258 -277 -388 q-18 -12 -23 -6 q-4 5 10 21 q174 188 239 426 l-120 -11 q-12 -1 -22 24 q-7 21 -6 26 q0 4 11 4 q69 3 130 10 q13 0 22 8 l3 2 ZM571 554 q32 -70 59 -113 q99 109 129 154 q11 16 17 32 q7 15 21 6 q23 -14 38 -30 q13 -13 1 -26 q-117 -120 -192 -160 q75 -116 172 -197 q25 -21 68 -46 q55 -33 70 -43 q23 -17 -1 -22 q-13 -3 -32 -13 q-20 -11 -30 -14 q-19 -6 -38 9 q-192 152 -284 382 q0 -295 -3 -440 q-1 -49 -28 -71 q-35 -30 -45 0 q-4 11 -90 44 q-11 5 -10 11 q0 6 13 6 q98 -2 98 11 q9 362 6 702 q0 36 -6 69 q-4 20 18 14 q28 -9 45 -21 q12 -8 9 -29 q-5 -47 -5 -68 q-1 -22 -1 -68 l-1 -75 l2 -4 Z" /><glyph glyph-name="" unicode="&#x51b2;" d="M217 546 q-35 54 -112 129 q-10 10 -7 15 q2 5 16 3 q85 -14 150 -93 q29 -35 6 -63 q-26 -31 -53 9 ZM273 436 q11 15 18 12 q6 -4 1 -21 q-33 -100 -160 -316 q-11 -18 -28 -10 q-25 11 -43 25 q-15 15 -2 25 q19 13 30 26 l184 259 ZM745 348 q24 2 35 2 q1 81 7 215 l-168 -6 q0 -141 -1 -217 l127 6 ZM557 340 q0 147 -1 217 l-155 -7 l0 -14 q5 -140 5 -202 l151 6 ZM620 612 l139 5 q23 1 38 9 q6 3 11 3 q4 0 12 -2 q18 -5 33 -15 q13 -9 6 -27 q-6 -17 -9 -39 q-2 -25 -11 -199 q3 -2 10 -18 q8 -21 5 -27 q-3 -6 -21 -6 q-66 -1 -215 -7 q-1 -28 -1 -84 l-1 -87 q0 -104 -23 -179 q-15 -49 -24 1 q-13 71 -13 172 q1 58 1 175 q-48 -2 -146 -4 l-5 0 l0 -9 q0 -18 -20 -28 q-27 -12 -31 -2 q-5 11 -6 32 q-6 238 -9 277 q-3 27 -8 44 q-4 12 -2 14 q2 3 15 2 q24 -5 38 -12 l87 4 q57 2 86 4 l-1 83 q0 48 -5 125 q-2 18 1 20 q2 3 20 -1 q25 -5 41 -15 q15 -7 12 -33 q-4 -54 -4 -97 l0 -79 Z" /><glyph glyph-name="" unicode="&#x51b3;" d="M101 663 q-11 10 -8 15 q3 5 18 3 q88 -14 155 -94 q30 -36 8 -64 q-25 -33 -53 8 q-37 54 -120 132 ZM276 402 q12 16 19 12 q6 -4 0 -21 q-31 -91 -164 -305 q-11 -18 -28 -10 q-25 11 -44 26 q-17 16 -2 25 q15 10 31 26 l188 247 ZM566 517 q-5 -91 -16 -159 q99 5 154 10 q6 140 10 205 l-146 -9 l-2 -47 ZM728 638 q8 6 21 2 q23 -9 31 -16 q12 -8 5 -27 q-7 -17 -8 -38 q-7 -58 -14 -187 q84 6 118 12 q26 6 41 -24 q20 -39 -12 -39 q-89 1 -329 -12 q93 -148 225 -236 q25 -17 67 -37 q54 -26 69 -34 q27 -14 1 -21 q-13 -4 -32 -15 q-19 -12 -29 -16 q-19 -8 -38 6 q-202 133 -298 351 l-7 -1 q-59 -239 -316 -365 q-22 -11 -28 -5 q-5 5 14 19 q212 151 263 348 l-153 -8 q-19 -1 -30 20 q-15 29 3 30 l192 10 q14 74 18 164 l1 40 l-111 -7 q-16 -1 -28 26 q-9 22 -8 27 q2 5 16 5 q40 1 133 5 q1 93 -4 193 q-1 17 3 22 q4 3 16 0 q27 -7 42 -16 q13 -8 12 -33 q-3 -48 -5 -163 l125 8 q19 1 30 10 l4 2 Z" /><glyph glyph-name="" unicode="&#x51b5;" d="M123 679 q-26 22 9 19 q85 -8 161 -84 q34 -34 11 -65 q-24 -34 -56 6 q-35 45 -125 124 ZM304 447 q13 15 20 10 q7 -5 0 -21 q-33 -81 -179 -286 q-13 -18 -29 -9 q-23 12 -42 29 q-17 16 -1 25 q25 17 32 23 q16 15 199 229 ZM445 668 q5 -143 6 -194 q118 3 208 6 q32 2 48 2 q5 111 12 210 q-166 -3 -275 -10 l1 -14 ZM451 417 q0 -19 -21 -27 q-28 -14 -33 -3 q-5 11 -6 32 q-9 236 -12 264 q-3 27 -8 44 q-4 12 -2 15 q2 2 15 1 q16 -1 33 -8 l281 11 q20 0 35 7 q6 2 9 2 q8 0 13 -2 q21 -8 33 -17 q13 -9 6 -28 q-7 -15 -10 -39 q-5 -42 -15 -194 q3 -5 6 -13 q8 -21 5 -27 q-3 -6 -20 -7 q-37 0 -115 -2 q9 -2 20 -9 q13 -6 10 -23 q1 10 -2 -52 q-4 -136 -1 -224 q1 -45 44 -48 q68 -6 140 1 q29 3 32 24 l5 48 q3 30 6 47 q3 15 10 15 q7 -1 8 -18 q5 -96 19 -109 q25 -24 6 -43 q-20 -20 -71 -26 q-69 -7 -163 0 q-52 5 -75 29 q-23 25 -24 79 q-2 48 -1 120 l2 108 q0 38 -3 72 l0 8 l-98 -3 l19 -9 q14 -9 10 -27 q-3 -12 -8 -40 q-5 -28 -9 -43 q-28 -124 -95 -197 q-71 -77 -209 -125 q-19 -6 -22 1 q-4 8 14 18 q206 119 248 311 q9 45 11 103 q0 5 1 7 l-18 0 l0 -4 Z" /><glyph glyph-name="" unicode="&#x51b7;" d="M202 562 q-25 43 -109 136 q-10 11 -7 16 q3 4 17 0 q88 -21 146 -102 q26 -37 3 -62 q-27 -31 -50 12 ZM283 505 q10 18 18 14 q7 -4 2 -22 q-55 -181 -189 -427 q-11 -19 -27 -13 q-27 11 -42 22 q-17 13 -4 24 q16 14 30 34 q53 77 212 368 ZM768 354 q16 -11 30 -28 q11 -13 0 -27 q-117 -143 -200 -219 q33 -27 63 -57 q39 -40 19 -73 q-18 -33 -53 9 q-75 84 -201 194 q-16 13 -12 18 q3 5 21 0 q65 -20 133 -68 q133 178 142 191 l-332 -23 q-16 -1 -28 25 q-9 21 -8 26 q2 6 16 5 q140 5 357 21 q18 1 29 8 q6 5 13 3 q7 -2 11 -5 ZM634 388 q-27 -27 -49 11 q-20 35 -88 117 q-8 10 -5 15 q3 5 15 2 q76 -17 126 -87 q24 -33 1 -58 ZM958 452 q14 -8 15 -12 q0 -4 -13 -9 q-13 -5 -29 -16 q-18 -13 -27 -17 q-19 -8 -36 4 q-182 128 -288 285 l-40 -64 q-126 -192 -250 -289 q-18 -14 -23 -9 q-6 6 8 23 q122 149 211 301 q66 112 90 173 q7 18 23 11 q17 -7 35 -18 q14 -13 4 -29 l-39 -67 q113 -125 236 -203 q22 -14 59 -32 q50 -24 64 -32 Z" /><glyph glyph-name="" unicode="&#x51bb;" d="M104 682 q-26 22 9 19 q88 -11 163 -88 q32 -34 11 -63 q-24 -34 -54 6 q-39 50 -129 126 ZM286 418 q11 16 18 12 q7 -4 2 -21 q-33 -95 -168 -316 q-12 -18 -28 -11 q-25 11 -44 26 q-17 14 -2 25 q16 11 30 26 q21 22 192 259 ZM482 244 q12 12 17 9 q6 -3 2 -17 q-26 -94 -142 -183 q-57 -45 -70 -4 q-9 31 19 52 q109 78 174 143 ZM692 389 q99 3 133 7 q24 3 37 -27 q16 -38 -14 -38 q-41 2 -196 0 q-1 -51 -1 -159 l-1 -167 q-2 -49 -30 -71 q-36 -28 -46 1 q-4 11 -102 44 q-12 4 -10 11 q1 7 14 6 q109 -2 109 11 q4 155 6 322 q-117 -2 -174 -4 q-21 0 -45 -9 q-24 -8 -40 43 q-3 10 1 14 q2 5 6 6 q30 12 52 54 q55 108 85 175 l-111 -4 q-17 -1 -28 21 q-13 29 3 31 l160 6 q23 52 29 68 q16 42 24 87 q4 20 21 15 q26 -6 41 -14 q16 -9 7 -29 q-23 -57 -51 -124 q-8 0 134 7 q112 7 137 12 q26 4 39 -25 q18 -41 -13 -39 q-103 1 -321 -9 q-59 -127 -114 -231 l158 6 l-1 91 q0 33 -5 54 q-2 11 1 14 q3 2 17 -1 q22 -5 47 -18 q12 -7 9 -26 q-5 -25 -5 -52 q-1 -10 -1 -29 l-1 -31 l40 1 ZM911 124 q32 -38 9 -69 q-25 -29 -54 12 q-39 56 -149 164 q-12 13 -8 18 q3 5 19 0 q100 -27 183 -125 Z" /><glyph glyph-name="" unicode="&#x51c0;" d="M213 552 q-32 49 -119 131 q-24 24 10 19 q91 -13 157 -92 q32 -36 8 -66 q-27 -32 -56 8 ZM250 427 q11 16 18 13 q8 -3 3 -21 q-18 -71 -137 -301 q-10 -20 -28 -12 q-30 12 -47 26 q-18 14 -3 25 q17 13 29 27 q3 3 165 243 ZM731 364 l-153 -5 l0 -103 l148 6 l5 102 ZM733 416 l5 95 q-96 -3 -160 -6 q2 -4 2 -15 q-1 -15 -1 -50 l0 -30 l154 6 ZM364 547 q94 6 189 9 l74 113 q-65 -1 -155 -7 l-9 0 q-49 -67 -103 -115 l4 0 ZM713 562 q21 1 36 10 q6 5 13 3 q3 0 11 -2 q22 -8 34 -16 q13 -9 5 -29 q-7 -16 -10 -41 l-6 -67 q69 5 99 9 q26 5 40 -25 q19 -40 -12 -38 q-58 1 -131 0 l-6 -109 q2 -2 7 -15 q8 -20 5 -26 q-3 -6 -21 -6 q-96 -2 -199 -6 l-3 -198 q-1 -48 -29 -70 q-34 -27 -46 0 q-4 11 -101 43 q-12 4 -11 11 q1 7 14 6 q110 -1 110 11 q2 63 4 195 q-26 0 -78 -2 l-79 -2 q-24 0 -31 19 q-7 21 -4 26 q2 5 19 6 q119 4 173 5 l1 103 q-70 -3 -207 -7 q-21 0 -30 20 q-15 30 3 30 q50 1 123 4 q94 3 111 3 l0 61 q0 23 -1 35 q-86 -4 -134 -7 q-17 -1 -27 23 l-5 11 q-2 6 -3 7 q-16 -14 -37 -29 q-10 -8 -15 -2 q-5 5 3 16 q127 183 158 256 q10 21 16 49 q6 18 21 11 q27 -12 43 -26 q13 -10 4 -27 l-41 -69 q77 3 130 6 q17 1 29 8 q11 8 25 -2 q17 -13 32 -31 q10 -13 -1 -27 q-68 -80 -104 -112 l103 4 Z" /><glyph glyph-name="" unicode="&#x51c6;" d="M670 645 q-19 36 -75 107 q-17 22 9 17 q70 -13 115 -77 q24 -33 0 -57 q-29 -30 -49 10 ZM205 547 q-28 43 -106 119 q-21 21 9 18 q82 -12 144 -84 q29 -35 6 -61 q-26 -32 -53 8 ZM251 372 q11 15 18 12 q7 -4 2 -20 q-21 -79 -131 -285 q-10 -18 -27 -12 q-25 11 -44 26 q-18 14 -3 25 q15 9 27 24 q-9 -10 158 230 ZM782 107 q101 5 132 10 q25 4 39 -25 q17 -40 -13 -38 q-103 4 -488 -13 q-17 -1 -27 20 l-2 4 l0 -21 q-1 -67 -23 -99 q-18 -30 -32 3 q-11 25 -10 78 q10 211 5 430 q-2 39 -5 58 q-54 -60 -114 -112 q-10 -8 -16 -3 q-6 5 2 17 q190 273 221 337 q14 28 23 62 q6 17 20 11 q25 -12 42 -25 q12 -11 3 -27 q-72 -127 -146 -220 l9 -9 q14 -17 18 -40 q5 -28 5 -57 q3 -134 -1 -357 q1 1 4 1 q120 6 213 9 l0 125 l-129 -5 q-24 -1 -33 16 q-9 17 -7 22 q1 6 16 7 q100 6 153 8 l1 112 q-48 -1 -130 -5 q-22 -1 -33 16 q-9 17 -7 23 q1 6 16 7 q100 6 154 8 l-1 37 q-2 48 -4 76 l-157 -6 q-17 0 -26 21 q-11 28 4 30 q190 6 291 12 q87 5 113 11 q22 4 34 -25 q17 -38 -12 -36 q-61 1 -183 -5 q5 -5 4 -21 l-1 -91 l142 8 q20 1 29 -19 q14 -32 -12 -32 l-161 -6 l-2 -112 l52 3 q32 1 94 5 q20 1 29 -19 q15 -32 -12 -32 l-164 -6 l-1 -125 l84 4 Z" /><glyph glyph-name="" unicode="&#x51cf;" d="M792 681 q-16 24 -72 84 q-16 18 8 16 q64 -4 108 -55 q23 -29 2 -52 q-25 -29 -46 7 ZM184 493 q-19 36 -91 119 q-20 23 10 16 q78 -17 129 -88 q24 -34 0 -58 q-26 -28 -48 11 ZM231 396 q11 14 17 10 q7 -3 2 -18 q-16 -55 -126 -246 q-9 -18 -26 -10 q-25 12 -42 26 q-17 14 -2 24 q19 12 27 21 q25 25 68 83 q57 79 82 110 ZM434 188 l92 5 l2 63 q2 42 2 60 q-54 0 -99 -3 l3 -125 ZM434 130 q-2 -15 -17 -21 q-23 -11 -26 -2 q-4 9 -5 24 q-7 198 -6 185 q-1 17 -6 33 q-4 10 -2 13 q1 2 12 1 q14 -1 26 -6 q22 2 54 3 q44 3 51 3 q14 0 25 7 q6 3 10 2 q6 0 9 -1 q18 -8 23 -12 q10 -8 5 -22 q-5 -16 -6 -28 q-3 -34 -5 -120 l5 -13 q6 -17 4 -23 q-2 -5 -14 -5 l-69 -2 q-47 -3 -68 -3 l0 -13 ZM411 433 q-19 -1 -26 15 q-14 28 6 29 q-7 -1 114 6 l49 5 q19 1 26 -19 q11 -29 -10 -30 q-53 -4 -159 -6 ZM673 627 q119 8 124 9 q23 1 33 -21 q9 -19 6 -26 q-3 -6 -19 -8 q-116 -6 -168 -8 q23 -160 64 -276 q39 76 71 182 q5 20 20 10 q25 -19 33 -31 q8 -11 2 -28 q-51 -126 -99 -203 q55 -122 136 -194 q23 -18 32 1 l33 58 q8 13 13 9 q5 -3 1 -18 q-20 -71 -17 -108 q6 -43 -34 -33 q-32 10 -68 43 q-79 76 -132 189 q-80 -105 -195 -168 q-18 -10 -22 -4 q-5 6 11 21 q115 105 179 211 q-56 140 -84 337 l-237 -8 l-4 -156 q-7 -169 -48 -261 q-43 -95 -150 -170 q-14 -10 -20 -6 q-6 5 5 18 q79 91 111 176 q35 93 40 245 q3 101 -2 204 q-1 23 17 19 q23 -7 40 -15 q3 -1 7 -5 l234 11 l-3 23 q-9 82 -26 151 q-5 25 13 21 q25 -5 44 -15 q16 -9 16 -26 q0 -37 9 -123 l3 -29 l31 2 Z" /><glyph glyph-name="" unicode="&#x51d1;" d="M207 558 q-26 42 -105 122 q-10 10 -7 15 q3 4 16 2 q79 -14 141 -87 q28 -34 5 -60 q-24 -29 -50 8 ZM247 433 q10 15 17 12 q7 -4 2 -20 q-22 -78 -135 -286 q-10 -18 -27 -11 q-28 13 -42 25 q-17 14 -3 24 q19 15 28 24 q26 30 72 100 q62 95 88 132 ZM579 296 q12 -7 8 -23 q-3 -12 -6 -35 l-7 -38 l126 8 q36 2 55 4 q22 3 31 -18 q14 -31 -12 -32 q-69 -5 -212 -11 q-4 -12 -14 -34 q109 -21 219 -112 q39 -31 22 -63 q-15 -31 -52 4 q-67 64 -198 153 q-63 -118 -253 -164 q-18 -5 -21 3 q-2 8 15 16 q171 76 217 195 l-135 -5 q-24 0 -33 16 q-10 17 -8 22 q1 6 17 7 q116 6 173 8 l1 5 q8 34 10 90 q-43 -7 -93 -7 q-11 0 -13 7 q-1 7 10 10 q124 36 160 54 q25 12 38 23 q12 9 22 2 q18 -12 31 -30 q12 -15 -7 -21 q-49 -17 -101 -29 l10 -5 ZM655 719 q76 4 112 8 q21 1 31 -20 q12 -30 -13 -31 q-101 -6 -202 -9 l-19 -70 l35 2 q23 2 34 2 q31 1 91 5 q19 1 28 -18 q11 -29 -12 -30 q-62 -3 -191 -7 q-9 -29 -28 -72 l165 8 q115 6 150 13 q24 4 37 -23 q18 -36 -11 -36 q-75 1 -191 -3 q92 -89 180 -133 q19 -10 51 -21 q39 -15 53 -21 q25 -10 3 -19 q-12 -5 -27 -17 q-15 -12 -24 -16 q-14 -8 -31 2 q-155 92 -242 223 l-137 -5 q-83 -150 -258 -250 q-21 -12 -26 -6 q-5 6 14 21 q131 106 202 232 l-119 -5 q-17 -1 -27 19 q-13 27 3 28 q98 3 169 6 q17 38 30 73 l-85 -3 q-20 -1 -29 15 q-9 16 -8 22 q2 5 16 6 l121 6 q13 40 19 70 q-49 -2 -151 -4 q-23 -1 -33 16 q-9 17 -7 23 q1 5 16 6 q123 4 186 7 q9 53 11 109 q1 23 19 18 q22 -6 39 -18 q14 -8 10 -29 l-15 -77 l61 3 Z" /><glyph glyph-name="" unicode="&#x51dd;" d="M291 750 q0 33 -2 49 q-1 15 14 12 q19 -2 39 -10 q12 -6 9 -20 q-2 -8 -4 -34 l-1 -64 q63 35 91 60 q18 16 26 28 q10 14 22 7 q17 -9 34 -28 q12 -14 -5 -24 q-93 -57 -168 -71 l0 -46 q1 -27 29 -30 q56 -3 102 1 q19 1 22 16 l8 51 q3 13 9 13 q6 -1 7 -15 q5 -52 14 -60 q23 -19 6 -36 q-15 -18 -55 -22 q-58 -5 -121 0 q-75 6 -76 81 q-1 28 0 75 l0 67 ZM184 554 q-25 44 -101 127 q-19 24 10 17 q82 -19 138 -95 q25 -35 2 -60 q-28 -28 -49 11 ZM219 447 q9 16 16 13 q7 -3 4 -19 q-21 -101 -115 -320 q-9 -18 -25 -12 q-29 10 -44 22 q-17 12 -4 23 q20 20 25 27 q24 34 64 115 q53 105 79 151 ZM422 269 q64 5 84 10 q20 5 30 -22 q12 -35 -11 -35 q-35 1 -117 -4 l-9 -39 q60 -10 98 -64 q20 -29 -1 -50 q-26 -24 -44 10 q-8 16 -60 83 q-47 -129 -207 -199 q-15 -7 -19 -1 q-4 6 9 16 q141 103 173 241 l-119 -7 q-15 -1 -22 20 q-10 26 3 28 l146 9 l1 4 q6 43 6 111 l0 3 l-40 -2 q-30 -49 -72 -83 q-8 -7 -13 -3 q-5 5 0 15 q51 107 60 154 q4 20 5 35 q1 16 18 11 q23 -7 40 -19 q14 -9 6 -24 l-18 -37 q48 3 82 6 q37 4 52 9 q24 8 36 -17 q18 -37 -8 -37 q-31 -1 -101 -6 l7 -3 q13 -7 10 -24 q2 10 -10 -89 l5 0 ZM745 295 l63 5 q28 3 44 8 q24 8 36 -17 q18 -38 -8 -38 q-15 0 -56 -3 q-48 -3 -80 -4 l-3 -184 q35 -18 70 -26 q30 -7 74 -12 l73 -10 q29 -3 6 -17 q-11 -6 -25 -19 l-22 -19 q-14 -9 -32 -5 q-201 31 -291 199 q-47 -121 -137 -207 q-10 -10 -15 -5 q-5 5 2 18 q106 179 128 319 q6 30 6 67 q0 19 17 13 q26 -9 38 -17 q11 -7 8 -24 q-19 -81 -35 -129 q37 -55 82 -91 l2 274 q0 37 -4 66 l0 6 l-123 -10 q-15 0 -25 24 q-8 19 -7 24 q1 5 14 5 q86 4 199 13 q-7 3 -15 11 q-34 37 -114 94 q-22 16 5 16 q46 0 88 -22 q65 96 76 114 l-98 -8 q-58 -5 -90 -7 q-14 -1 -24 25 q-8 20 -7 25 q1 5 13 5 q91 3 211 13 q14 1 24 8 q8 5 16 2 l8 -4 q16 -10 29 -25 q11 -12 1 -24 q-73 -93 -128 -144 q14 -10 21 -16 q30 -25 15 -51 q-3 -5 -9 -11 l60 5 q18 3 26 8 l8 4 q8 0 15 -4 q20 -11 37 -26 q20 -18 2 -28 q-18 -11 -25 -19 q-19 -20 -57 -73 q-37 -33 -25 14 q7 27 25 75 q-18 -1 -56 -5 l-57 -5 q9 -3 20 -8 q10 -5 9 -23 l-3 -120 Z" /><glyph glyph-name="" unicode="&#x51e0;" d="M328 716 l209 9 q21 1 36 10 q5 3 9 3 q7 3 16 -2 q19 -9 32 -21 q13 -11 7 -30 q-11 -35 -14 -82 q-10 -196 -5 -436 q1 -50 16 -69 q13 -17 48 -19 q95 -4 157 4 q29 4 33 35 l6 45 q3 31 6 49 q3 18 11 17 q8 0 9 -20 q5 -91 23 -112 q24 -27 7 -49 q-21 -27 -75 -33 q-93 -9 -191 -1 q-60 4 -86 36 q-27 35 -28 114 q-3 224 10 503 q-128 -3 -226 -9 l-1 -88 q0 -63 -2 -115 q-6 -193 -62 -296 q-55 -104 -194 -180 q-18 -10 -23 -4 q-6 5 9 18 q110 95 153 187 q47 101 52 276 q3 128 -4 256 q-1 26 18 21 q26 -7 43 -16 l1 -1 Z" /></font>
</defs>
</svg>
