<?xml version="1.0" standalone="no"?>
<!DOCTYPE svg PUBLIC "-//W3C//DTD SVG 20010904//EN"
 "http://www.w3.org/TR/2001/REC-SVG-20010904/DTD/svg10.dtd">
<svg version="1.0" xmlns="http://www.w3.org/2000/svg"
 width="128.000000pt" height="128.000000pt" viewBox="128 128 256.000000 256.000000"
 preserveAspectRatio="xMidYMid meet">
<metadata>
Created by potrace 1.14, written by Peter Selinger 2001-2017
</metadata>
<g transform="translate(128.000000,384.000000) scale(0.050000,-0.050000)"
fill="#bdddf4" stroke="none">
<path d="M2056 4953 c-2 -2 -23 -6 -47 -8 -24 -2 -46 -4 -49 -6 -3 -1 -9 -1
-13 0 -5 1 -27 -4 -50 -10 -23 -7 -49 -13 -57 -14 -35 -4 -176 -50 -182 -59
-4 -6 -8 -8 -8 -4 0 4 -20 -1 -45 -12 -25 -11 -45 -16 -45 -12 0 4 -4 2 -8 -3
-4 -6 -44 -29 -89 -52 -71 -36 -188 -106 -203 -123 -3 -3 -23 -18 -45 -35 -72
-53 -164 -141 -235 -225 -25 -29 -50 -58 -55 -64 -24 -27 -125 -183 -125 -194
0 -6 -4 -12 -10 -12 -5 0 -10 -6 -10 -14 0 -8 -7 -22 -16 -30 -8 -9 -13 -16
-9 -16 3 0 0 -10 -7 -22 -7 -13 -13 -25 -14 -28 0 -3 -8 -22 -17 -42 -10 -21
-17 -44 -17 -53 0 -8 -5 -15 -11 -15 -5 0 -8 -4 -4 -9 3 -5 1 -12 -5 -16 -5
-3 -10 -14 -10 -24 0 -21 -18 -39 -46 -44 -17 -4 -28 -7 -74 -25 -8 -3 -18 -6
-21 -6 -10 -2 -123 -61 -136 -71 -7 -5 -19 -16 -27 -22 -8 -7 -18 -13 -22 -13
-4 0 -17 -11 -30 -26 -13 -14 -24 -22 -24 -19 0 3 -21 -18 -47 -47 -27 -28
-56 -59 -65 -69 -9 -9 -14 -20 -11 -23 3 -3 -2 -8 -11 -12 -9 -3 -16 -12 -16
-20 0 -8 -4 -14 -10 -14 -5 0 -10 -9 -10 -20 0 -11 -4 -20 -9 -20 -7 0 -42
-68 -45 -90 -1 -3 -4 -9 -8 -15 -9 -15 -38 -115 -46 -160 -9 -50 -8 -257 1
-306 3 -20 11 -49 17 -65 6 -16 11 -30 10 -32 -3 -7 43 -117 51 -123 6 -3 11
-12 13 -20 4 -22 59 -110 89 -141 9 -10 17 -22 17 -28 0 -5 4 -10 9 -10 5 0
29 -20 53 -44 93 -94 272 -189 400 -211 39 -7 42 -10 44 -38 15 -153 49 -268
121 -407 43 -83 86 -147 107 -162 6 -4 7 -8 2 -8 -21 0 171 -175 246 -224 131
-85 281 -145 408 -162 19 -3 41 -10 49 -17 12 -9 13 -9 7 1 -5 9 -1 11 16 8
13 -3 23 -5 23 -6 0 -1 35 -2 78 -3 42 -1 77 1 77 4 0 4 12 7 28 6 41 0 99 9
172 27 66 17 80 22 185 72 33 15 62 28 65 29 12 1 137 91 157 112 12 13 24 23
27 23 3 0 21 16 41 35 l35 36 45 -46 c25 -25 49 -45 53 -45 5 0 21 -14 37 -30
16 -17 33 -30 38 -30 4 0 23 -11 40 -24 32 -24 156 -87 199 -101 13 -4 28 -9
33 -11 70 -24 147 -40 235 -49 30 -3 67 -7 83 -9 15 -2 30 1 33 5 3 5 13 5 23
-1 10 -5 20 -7 23 -5 4 5 46 11 124 20 23 3 72 14 110 26 38 12 74 22 79 23
29 6 161 77 236 128 80 54 203 171 239 228 8 13 22 31 30 40 30 33 110 188
110 213 0 9 5 19 10 22 6 4 8 11 5 16 -4 5 -1 9 6 9 7 0 10 2 7 6 -3 3 1 26 9
52 8 26 16 58 19 72 10 61 13 75 14 75 5 0 6 261 1 270 -3 6 -7 21 -8 35 -1
14 -4 34 -6 45 -3 11 -8 31 -11 45 -3 14 -3 30 1 35 11 14 72 45 89 45 8 0 14
4 14 9 0 5 14 14 30 21 17 7 30 15 30 19 0 4 15 15 33 26 43 25 177 159 212
213 15 23 32 42 36 42 5 0 9 6 9 14 0 7 9 25 20 39 12 15 21 29 21 31 0 8 28
78 39 97 8 16 29 85 37 124 8 35 11 50 13 50 5 0 13 104 13 180 0 119 -14 240
-34 276 -4 9 -5 19 -2 23 3 3 1 6 -6 6 -7 0 -9 4 -6 10 3 5 -3 30 -15 54 -11
25 -20 50 -20 55 0 6 -5 11 -12 11 -6 0 -9 3 -5 6 3 3 -3 20 -12 37 -48 85
-57 97 -63 97 -5 0 -8 4 -8 10 0 29 -156 182 -250 246 -83 57 -233 128 -244
116 -3 -3 -6 -1 -6 4 0 5 -12 11 -27 12 -15 1 -29 5 -32 10 -3 4 -17 8 -31 9
-68 4 -90 8 -90 13 0 8 -227 6 -236 -2 -4 -4 -13 -3 -21 3 -8 8 -13 8 -13 1 0
-6 -11 -9 -25 -7 -14 1 -25 -1 -25 -6 0 -4 -8 -7 -17 -7 -26 1 -128 -30 -187
-58 -64 -30 -68 -30 -88 4 -23 37 -202 221 -263 268 -27 21 -52 41 -55 44 -27
31 -234 148 -336 193 -59 25 -184 67 -184 61 0 -3 -9 0 -21 6 -21 12 -26 13
-119 30 -30 6 -66 13 -80 16 -29 6 -378 13 -384 7z"/>
<path d="M508 1134 c-2 -1 -19 -6 -38 -9 -59 -10 -167 -70 -204 -113 -6 -7
-20 -23 -31 -35 -11 -12 -19 -25 -18 -29 2 -5 -2 -8 -7 -8 -6 0 -10 -7 -10
-15 0 -8 -4 -15 -10 -15 -5 0 -9 -3 -8 -7 0 -5 -2 -17 -6 -28 -4 -11 -13 -33
-19 -48 -13 -36 -17 -187 -5 -187 5 0 6 -4 3 -10 -8 -13 35 -130 47 -130 5 0
7 -4 4 -9 -6 -8 94 -121 107 -121 4 0 17 -8 27 -18 51 -47 212 -77 319 -59 92
16 240 122 273 197 7 17 16 30 19 30 11 0 42 124 43 175 1 28 -2 68 -7 90 -4
22 -9 47 -11 55 -7 39 -62 126 -110 174 -45 45 -125 95 -161 100 -5 1 -16 5
-22 9 -7 5 -17 5 -23 2 -5 -3 -10 -2 -10 2 0 8 -135 15 -142 7z"/>
</g>
</svg>
