<?xml version="1.0" standalone="no"?><!DOCTYPE svg PUBLIC "-//W3C//DTD SVG 1.1//EN" "http://www.w3.org/Graphics/SVG/1.1/DTD/svg11.dtd" ><svg xmlns="http://www.w3.org/2000/svg"><metadata></metadata><defs><font id="仓耳今楷（晨风补齐）:Version 1.00" horiz-adv-x="1024"><font-face font-family="仓耳今楷（晨风补齐）" font-weight="400" font-stretch="normal" units-per-em="1024" panose-1="0 0 5 0 0 0 0 0 0 0" ascent="1069" descent="-290" x-height="0" bbox="-28 -241 1033 878" underline-thickness="50" underline-position="-75" unicode-range="U+0020-ff1f" /><missing-glyph horiz-adv-x="260"  /><glyph glyph-name="exclam" unicode="!" d="M214 748 q29 3 53 -7 q31 -13 28 -51 l-26 -424 q-1 -21 -15 -26 q-10 -4 -28 -7 q-21 -1 -22 28 q-21 371 -25 435 q-4 49 35 52 ZM236 16 q-26 0 -43 19 q-18 17 -18 43 q0 25 18 43 q17 17 43 17 q25 0 43 -17 q18 -18 18 -43 q0 -26 -18 -43 q-18 -19 -43 -19 Z" /><glyph glyph-name="quotedbl" unicode="&quot;" d="M338 740 q18 0 17 -20 q-15 -209 -14 -203 q-1 -23 -16 -23 q-18 0 -21 23 l-15 203 q-1 20 18 20 l31 0 ZM195 736 q18 0 17 -20 q-15 -209 -14 -203 q-1 -24 -18 -24 q-16 0 -19 24 q-3 32 -8 108 l-8 95 q-1 20 18 20 l32 0 Z" /><glyph glyph-name="quotesingle" unicode="&#39;" d="M233 724 q20 0 19 -21 l-14 -202 q-4 -24 -18 -24 q-18 0 -19 24 q-11 104 -16 202 q-1 21 18 21 l30 0 Z" /><glyph glyph-name="parenleft" unicode="(" d="M396 820 q31 28 53 8 q21 -19 -3 -44 q-162 -162 -159 -424 q3 -254 164 -420 q20 -21 0 -41 q-20 -20 -49 6 q-189 176 -189 455 q0 299 183 460 Z" /><glyph glyph-name="parenright" unicode=")" d="M55 -55 q163 151 163 419 q0 269 -159 424 q-24 25 -2 43 q22 20 53 -8 q182 -163 182 -459 q0 -285 -190 -456 q-28 -27 -48 -5 q-20 21 1 42 Z" /><glyph glyph-name="asterisk" unicode="*" d="M473 373 q23 -12 7 -38 q-15 -27 -39 -10 q-18 14 -80 57 l-94 68 q4 -36 12 -114 l9 -105 q2 -23 -29 -25 q-31 0 -29 28 q3 25 10 100 q7 85 10 115 l-180 -119 q-20 -15 -35 13 q-8 13 -3 25 q4 10 14 13 q23 8 91 39 q76 33 107 45 q-37 14 -107 43 l-97 41 q-23 8 -9 37 q12 28 38 12 l178 -115 q-8 70 -23 208 q-3 24 29 26 q31 2 29 -28 q-3 -23 -8 -95 q-5 -81 -8 -113 q31 22 94 62 l87 55 q22 13 36 -13 q7 -13 2 -24 q-4 -11 -13 -14 l-90 -37 q-71 -30 -108 -44 l199 -93 Z" /><glyph glyph-name="plus" unicode="+" d="M459 392 q12 0 17 -13 q4 -10 6 -29 q0 -13 -18 -13 q-102 0 -180 1 l0 -188 q0 -14 -14 -18 q-8 -3 -30 -5 q-15 -2 -15 15 q0 114 1 196 q-83 -1 -178 -1 q-12 0 -18 13 q-4 6 -6 28 q-1 14 15 14 l187 0 l0 200 q0 17 16 15 q17 0 29 -5 q14 -4 14 -16 q0 -108 -1 -194 l175 0 Z" /><glyph glyph-name="comma" unicode="," d="M239 61 q-8 -175 -173 -239 q-27 -11 -31 3 q-3 13 25 30 q96 52 112 144 l-2 0 q-29 0 -48 23 q-20 21 -20 52 q0 31 20 53 q19 23 48 23 q17 0 33 -10 l0 1 q22 -12 29 -37 q7 -13 7 -30 l0 -13 Z" /><glyph glyph-name="hyphen" unicode="-" d="M308 399 q14 0 17 -19 q5 -18 5 -33 q1 -18 -15 -18 l-269 0 q-11 0 -15 14 q-4 15 -6 37 q-2 19 14 19 l269 0 Z" /><glyph glyph-name="period" unicode="." d="M167 -2 q-29 0 -48 22 q-20 22 -20 54 q0 31 20 53 q19 23 48 23 q29 0 48 -23 q19 -22 19 -53 q0 -32 -19 -54 q-19 -22 -48 -22 Z" /><glyph glyph-name="slash" unicode="/" d="M51 -20 q22 47 173 369 l178 380 q10 19 26 20 q22 3 41 2 q20 -2 9 -27 l-357 -748 q-7 -13 -25 -16 q-16 -2 -35 -1 q-19 2 -10 21 Z" /><glyph glyph-name="zero" unicode="0" d="M30 368 q0 161 67 256 q64 89 162 89 q99 0 163 -89 q66 -95 66 -256 q0 -155 -66 -251 q-66 -93 -163 -93 q-97 0 -162 92 q-67 97 -67 252 ZM95 369 q0 -136 48 -213 q45 -74 116 -74 q71 0 116 74 q47 78 47 213 q0 134 -47 214 q-45 74 -116 74 q-71 0 -116 -74 q-48 -80 -48 -214 Z" /><glyph glyph-name="one" unicode="1" d="M243 698 q0 21 20 21 q24 0 36 -6 q17 -5 18 -35 q0 -420 -4 -631 q0 -27 -21 -32 q-18 -4 -38 -1 q-15 3 -15 31 q5 270 4 570 q-19 -6 -44 -14 q-26 -8 -50 -11 l-8 0 q-8 0 -16 2 q-8 2 -14 6 q-6 4 -10 8 q-4 4 -4 8 q0 4 2 8 q2 4 10 8 q36 7 68 22.5 q32 15.5 46 25.5 q14 10 20 20 Z" /><glyph glyph-name="two" unicode="2" d="M26 537 q33 101 117 148 q78 45 163 22 q118 -32 134 -138 q17 -107 -83 -217 q-42 -47 -124 -131 q-75 -78 -102 -109 q-20 -24 12 -22 q171 3 312 7 q26 0 32 -13 q7 -13 9 -30 q4 -22 -25 -22 q-173 0 -373 -5 q-47 -1 -59 27 q-12 29 18 65 q43 51 132 144 q92 96 125 136 q68 79 57 153 q-12 72 -84 91 q-60 16 -114 -15 q-56 -35 -83 -112 q-10 -28 -30 -28 q-20 0 -32 16 q-8 13 -2 33 Z" /><glyph glyph-name="three" unicode="3" d="M63 613 q71 89 177 101 q101 11 160 -52 q62 -67 38 -150 q-24 -85 -122 -114 q103 -19 147 -99 q42 -77 1 -161 q-57 -114 -199 -112 q-143 1 -224 125 q-15 22 -1 30 q14 8 31 -9 q81 -84 184 -86 q100 -1 140 74 q40 72 -10 136 q-54 71 -181 65 q-26 -1 -32 15 q-7 14 0 27 q9 13 34 17 q118 13 159 78 q37 59 -14 117 q-39 44 -108 35 q-74 -10 -122 -73 q-16 -21 -38 -21 q-14 0 -26 15 q-10 21 6 42 Z" /><glyph glyph-name="four" unicode="4" d="M105 262 q63 1 227 1 q3 184 3 358 q-166 -213 -242 -330 q-18 -29 12 -29 ZM475 263 q22 -1 27 -14 q3 -11 5 -28 q3 -21 -19 -21 l-92 1 l-3 -141 q-1 -27 -19 -32 q-15 -3 -33 -1 q-14 3 -14 29 l2 73 q2 49 2 72 q-144 2 -251 0 q-53 -1 -67 24 q-13 26 18 72 q119 175 303 402 q17 20 45 17 q3 -1 4 -4 q2 0 3 -1 q14 -6 14 -39 q0 -258 -3 -409 l78 0 Z" /><glyph glyph-name="five" unicode="5" d="M112 703 q84 0 319 5 q20 0 25 -13 q7 -16 8 -29 q4 -20 -17 -21 l-283 1 q-29 0 -30 -21 l-16 -172 q-3 -29 25 -18 q65 28 126 27 q100 -2 155 -62 q56 -60 54 -166 q-1 -95 -65 -154 q-64 -58 -159 -58 q-74 0 -132 45 q-56 42 -86 113 q-8 23 3 28 q12 6 23 -13 q70 -113 185 -113 q68 0 114 41 q48 42 49 111 q5 157 -142 167 q-70 7 -131 -28 q-43 -25 -66 -9 q-25 15 -20 66 q18 171 23 247 q1 26 38 26 Z" /><glyph glyph-name="six" unicode="6" d="M131 407 q51 66 156 63 q83 -2 135 -59 q55 -60 55 -159 q0 -105 -59 -167 q-60 -63 -160 -63 q-96 0 -157 69 q-61 70 -62 179 q-3 369 320 441 q29 6 34 -8 q5 -13 -21 -23 q-214 -84 -247 -272 q-1 -2 1 -4 q2 -1 5 3 ZM114 251 q-1 -73 43 -123 q43 -49 104 -49 q65 0 107 47 q42 48 42 123 q0 73 -42 122 q-41 48 -103 48 q-63 0 -106 -45 q-44 -48 -45 -123 Z" /><glyph glyph-name="seven" unicode="7" d="M34 698 q177 -2 405 0 q36 0 45 -23 q11 -26 -17 -58 q-71 -85 -109 -177 q-69 -169 -106 -398 q-5 -30 -26 -27 q-23 2 -35 14 q-13 11 -8 39 q45 223 118 393 q37 84 89 156 q14 20 -8 20 l-325 -3 q-21 0 -27 13 q-10 18 -12 35 q-3 16 16 16 Z" /><glyph glyph-name="eight" unicode="8" d="M457 544 q2 -122 -115 -156 q145 -36 145 -176 q0 -87 -60 -138 q-62 -54 -171 -54 q-103 0 -167 55 q-62 53 -62 136 q0 132 134 175 q-50 14 -80 57 q-31 43 -30 100 q1 70 53 116 q56 51 148 51 q96 0 152 -51 q52 -46 53 -115 ZM250 653 q-59 0 -96 -30 q-38 -32 -39 -81 q-2 -115 153 -127 q126 28 124 127 q0 49 -39 80 q-40 31 -103 31 ZM95 214 q0 -58 47 -95 q46 -37 118 -37 q73 0 118 38 q44 37 44 93 q0 63 -47 101 q-50 39 -143 40 q-137 -30 -137 -140 Z" /><glyph glyph-name="nine" unicode="9" d="M40 482 q0 104 60 166 q61 63 158 63 q94 0 153 -69 q58 -69 58 -179 q0 -171 -82 -285 q-81 -112 -230 -155 q-27 -9 -33 6 q-6 13 19 25 q200 97 234 258 q1 3 -1 4 q-2 1 -5 -2 q-45 -53 -144 -50 q-79 2 -131 59 q-56 60 -56 159 ZM110 482 q0 -72 40 -118 q38 -47 99 -47 q65 0 106 49 q40 47 40 119 q0 75 -40 122 q-39 46 -99 46 q-63 0 -104 -48 q-42 -48 -42 -123 Z" /><glyph glyph-name="colon" unicode=":" d="M243 3 q-29 0 -48 23 q-21 21 -21 53 q0 32 21 53 q19 23 48 23 q27 0 48 -23 q19 -21 19 -53 q0 -32 -19 -53 q-21 -23 -48 -23 ZM243 338 q-29 0 -48 22 q-21 22 -21 54 q0 31 21 53 q19 22 48 22 q27 0 48 -22 q19 -22 19 -53 q0 -32 -19 -54 q-21 -22 -48 -22 Z" /><glyph glyph-name="semicolon" unicode=";" d="M260 332 q-29 0 -48 22 q-19 22 -19 54 q0 31 19 53 q19 22 48 22 q28 0 48 -22 q20 -22 20 -53 q0 -32 -20 -54 q-20 -22 -48 -22 ZM296 164 q20 -14 28 -40 q3 -10 3 -23 l0 -20 q-6 -174 -173 -234 q-27 -10 -31 3 q-3 14 25 29 q97 50 113 146 l-2 0 q-29 0 -48 22 q-21 22 -21 53 q0 32 21 54 q19 22 48 22 q22 0 37 -12 Z" /><glyph glyph-name="equal" unicode="=" d="M449 304 q19 0 24 -14 q6 -16 7 -33 q2 -18 -21 -18 l-392 0 q-18 0 -25 15 q-7 13 -8 31 q-2 19 18 19 l397 0 ZM449 514 q19 0 24 -15 q6 -16 7 -33 q2 -19 -21 -19 l-392 0 q-18 0 -25 16 q-7 13 -8 31 q-2 20 18 20 l397 0 Z" /><glyph glyph-name="question" unicode="?" d="M250 637 q-121 -2 -132 -138 q-1 -24 -24 -22 q-18 3 -31 11 q-10 9 -9 25 q7 92 63 142 q52 46 136 48 q86 2 137 -44 q49 -43 51 -114 q3 -69 -84 -155 q-86 -86 -83 -148 q2 -16 -14 -24 q-13 -6 -31 -6 q-20 0 -22 27 q-8 72 73 161 q82 93 82 137 q-2 100 -112 100 ZM240 1 q-26 0 -43 18 q-19 18 -19 43 q0 26 19 43 q17 19 43 19 q25 0 43 -19 q18 -17 18 -43 q0 -25 -18 -43 q-18 -18 -43 -18 Z" /><glyph glyph-name="A" unicode="A" d="M183 322 q120 -3 227 0 q-58 166 -101 272 q-7 19 -16 -1 q-44 -103 -110 -271 ZM163 266 q-24 -61 -76 -208 q-8 -22 -26 -23 q-18 -3 -37 3 q-22 6 -12 30 q144 366 245 591 q16 37 46 37 q27 0 41 -36 q117 -268 229 -585 q13 -33 -8 -37 q-21 -5 -46 -2 q-18 3 -25 23 q-39 129 -65 206 q-43 1 -141 1 l-125 0 Z" /><glyph glyph-name="B" unicode="B" d="M295 93 q138 24 138 139 q0 49 -39 84 q-41 39 -103 40 q-42 1 -148 -1 q-1 -136 -5 -264 q84 -9 157 2 ZM145 630 q0 -132 -1 -216 q83 0 142 3 q116 4 116 105 q0 44 -32 76 q-34 31 -91 38 q-66 7 -134 -3 l0 -3 ZM65 616 q-17 -5 -27 6 q-13 13 -16 29 q-4 16 15 21 q160 33 267 17 q79 -12 126 -57 q45 -43 45 -98 q0 -111 -98 -137 q-11 -4 -1 -6 q55 -13 93 -58 q40 -48 40 -112 q0 -75 -55 -126 q-58 -53 -153 -61 q-146 -15 -271 38 q-23 10 -18 25 q4 16 28 11 l32 -8 q8 314 7 520 l-14 -4 Z" /><glyph glyph-name="C" unicode="C" d="M519 494 q-16 6 -29 34 q-46 107 -178 107 q-92 0 -147 -73 q-56 -73 -56 -191 q0 -131 50 -202 q52 -74 152 -74 q165 0 221 166 q10 27 24 23 q15 -3 11 -30 q-17 -107 -84 -165 q-67 -58 -173 -58 q-137 0 -209 90 q-70 88 -70 252 q0 137 73 227 q79 96 210 96 q167 0 237 -140 q14 -29 4 -49 q-10 -22 -36 -13 Z" /><glyph glyph-name="D" unicode="D" d="M282 96 q95 5 146 78 q47 68 47 180 q0 267 -201 277 q-43 2 -102 -5 q-3 -378 -10 -530 q45 -4 120 0 ZM89 608 q-22 -6 -33 2 q-15 13 -18 31 q-1 21 27 29 q102 26 218 21 q134 -5 203 -94 q68 -85 68 -242 q0 -143 -69 -230 q-71 -90 -199 -92 q-146 -3 -255 53 q-23 11 -16 25 q8 12 28 6 q14 -4 47 -12 q8 245 10 506 l-11 -3 Z" /><glyph glyph-name="E" unicode="E" d="M72 641 q-7 14 -11 34 q-3 15 17 15 q221 -2 406 2 q27 0 32 -11 q7 -16 11 -37 q3 -17 -22 -16 q-156 0 -361 2 l-5 -215 q149 -3 314 -1 q21 0 27 -12 q8 -14 10 -32 q4 -17 -20 -17 q-211 2 -333 5 q-6 -192 -9 -260 l361 4 q26 1 33 -11 q8 -15 13 -38 q3 -17 -24 -17 l-420 1 q-33 -1 -33 34 q15 398 15 568 l-1 2 Z" /><glyph glyph-name="F" unicode="F" d="M78 639 q-8 16 -12 34 q-4 16 17 16 q246 0 379 3 q21 1 28 -12 q8 -11 13 -37 q3 -18 -23 -17 q-231 0 -324 1 l-5 -231 q229 0 270 1 q21 0 28 -12 q8 -15 10 -37 q2 -17 -20 -17 q-229 4 -291 4 q-3 -170 -8 -274 q0 -16 -19 -22 q-26 -5 -38 -5 q-18 -1 -18 21 q12 313 14 582 l-1 2 Z" /><glyph glyph-name="G" unicode="G" d="M300 340 q-19 0 -30 29 q-11 31 15 31 q196 0 281 -1 q35 0 36 -37 q5 -160 -63 -245 q-69 -86 -202 -86 q-139 0 -223 95 q-79 89 -79 229 q0 159 84 251 q80 89 209 90 q179 0 245 -146 q12 -24 6 -43 q-11 -30 -44 -18 q-18 6 -26 30 q-41 115 -178 115 q-103 -1 -161 -73 q-59 -73 -59 -204 q0 -118 65 -191 q63 -69 160 -69 q91 0 143 57 q55 58 57 170 q0 15 -16 16 l-220 0 Z" /><glyph glyph-name="H" unicode="H" d="M462 356 q-102 2 -315 2 q3 -188 0 -300 q-2 -15 -16 -19 q-13 -5 -36 -7 q-19 -3 -19 20 q2 292 -2 588 q-1 32 1 39 q3 11 16 10 q23 -2 38 -6 q16 -5 16 -25 l2 -241 q48 1 165 1 l150 0 q-1 91 -1 256 q0 24 18 22 q25 -2 39 -6 q16 -5 16 -24 q1 -92 1 -292 l1 -313 q0 -12 -17 -18 q-19 -6 -37 -7 q-18 -1 -18 21 l-2 299 Z" /><glyph glyph-name="I" unicode="I" d="M240 625 q-2 -298 -8 -526 q46 0 99 2 q21 0 26 -12 q5 -16 10 -39 q2 -17 -21 -17 q-157 2 -281 0 q-16 0 -21 13 q-4 15 -6 34 q-1 16 13 16 q18 1 53 1 l56 1 q7 262 5 527 l-89 1 q-16 0 -20 12 q-4 12 -7 35 q-1 14 12 14 q206 0 262 2 q19 1 25 -11 q7 -19 9 -39 q2 -15 -26 -15 l-91 1 Z" /><glyph glyph-name="J" unicode="J" d="M90 625 q-17 0 -21 12 q-8 17 -9 35 q-1 16 13 16 q156 -2 259 2 q19 0 23 -10 q10 -20 12 -40 q2 -15 -20 -15 l-95 0 q4 -209 2 -308 q-2 -127 -52 -194 q-51 -70 -169 -96 q-24 -7 -27 6 q-3 11 16 20 q86 39 121 101 q35 59 37 167 q4 189 0 304 l-90 0 Z" /><glyph glyph-name="K" unicode="K" d="M579 68 q20 -28 -6 -32 q-13 -3 -41 -3 q-21 -1 -36 20 q-68 107 -214 345 q-80 -70 -126 -109 l0 -233 q0 -15 -18 -20 q-12 -3 -38 -5 q-18 0 -17 19 q1 126 -4 623 q0 21 16 19 q20 -1 41 -7 q17 -4 17 -17 q2 -181 2 -311 q174 167 314 316 q15 17 34 18 q27 2 55 -2 q11 -2 13 -10 q1 -8 -7 -16 q-147 -143 -242 -228 q84 -118 257 -367 Z" /><glyph glyph-name="L" unicode="L" d="M478 89 q9 -16 11 -35 q5 -19 -21 -19 q-180 1 -370 0 q-35 0 -33 36 q8 284 10 602 q0 22 18 20 q20 -1 40 -7 q17 -4 15 -22 l-11 -570 q279 5 309 6 q25 1 32 -11 Z" /><glyph glyph-name="M" unicode="M" d="M28 60 q35 240 118 603 q8 29 28 28 q42 -4 57 -46 q62 -167 142 -430 q1 -4 3 -4 q1 1 2 5 q92 302 141 434 q16 41 58 41 q23 2 29 -32 q93 -441 118 -601 q5 -27 -14 -27 q-7 -1 -34 2 q-20 3 -23 27 q-22 200 -87 517 q-1 7 -5 7 q-3 -1 -5 -6 q-63 -169 -149 -460 q-9 -25 -32 -25 q-24 0 -31 25 q-92 290 -150 450 q-3 7 -6 7 q-2 0 -3 -6 q-66 -343 -87 -514 q-3 -21 -21 -24 l-37 0 q-15 1 -12 29 Z" /><glyph glyph-name="N" unicode="N" d="M71 685 q54 0 70 -26 q50 -81 154 -267 q93 -169 142 -245 q5 -8 9 -7 q5 1 5 12 q2 189 -4 506 q-1 23 21 29 q25 6 37 6 q18 0 18 -15 l-1 -618 q0 -29 -29 -29 q-60 0 -80 34 q-59 96 -151 263 q-95 171 -140 246 q-11 20 -11 -3 q-2 -111 0 -514 q0 -15 -18 -23 q-12 -4 -41 -4 q-19 0 -19 17 l7 612 q0 26 31 26 Z" /><glyph glyph-name="O" unicode="O" d="M31 361 q0 143 74 236 q80 97 210 97 q131 0 209 -97 q74 -93 74 -236 q0 -143 -74 -235 q-78 -97 -209 -97 q-131 0 -210 97 q-74 93 -74 235 ZM104 360 q0 -117 54 -191 q56 -79 156 -79 q100 0 156 79 q52 74 52 191 q0 118 -52 192 q-56 80 -156 80 q-99 0 -156 -80 q-54 -74 -54 -192 Z" /><glyph glyph-name="P" unicode="P" d="M311 259 q73 0 117 50 q45 51 45 138 q0 75 -47 131 q-48 56 -115 56 q-97 0 -164 -62 q0 -153 -1 -236 q59 -77 165 -77 ZM147 644 q65 51 164 51 q98 0 165 -74 q66 -73 66 -174 q0 -117 -65 -183 q-62 -64 -166 -64 q-107 0 -165 61 l-3 -201 q0 -16 -17 -22 q-15 -5 -36 -5 q-17 -1 -17 22 q6 418 3 608 q-1 28 16 26 q26 -2 39 -6 q16 -6 16 -25 l0 -14 Z" /><glyph glyph-name="Q" unicode="Q" d="M317 88 q42 0 81 16 q-19 33 -32 71 q-11 28 13 37 q32 13 39 -11 q13 -40 28 -67 q97 77 97 225 q0 114 -63 192 q-64 79 -163 79 q-96 0 -156 -79 q-58 -76 -58 -192 q0 -115 58 -191 q60 -80 156 -80 ZM617 20 q34 -4 32 -19 q-1 -16 -31 -16 q-112 0 -180 67 q-56 -25 -117 -25 q-128 0 -209 97 q-80 94 -80 235 q0 141 80 236 q82 97 209 97 q128 0 214 -97 q85 -96 85 -236 q0 -182 -133 -279 q54 -52 130 -60 Z" /><glyph glyph-name="R" unicode="R" d="M145 377 q74 -27 163 -25 q73 2 112 42 q38 38 38 103 q0 60 -45 98 q-45 38 -117 38 q-85 0 -151 -44 l0 -212 ZM144 654 q71 40 172 40 q93 0 156 -55 q64 -55 64 -141 q0 -80 -44 -133 q-46 -54 -121 -67 q67 -111 152 -237 q19 -26 -9 -29 q-12 -2 -38 -2 q-27 0 -39 20 q-104 187 -133 244 q-89 2 -160 33 q0 -112 -2 -268 q0 -15 -15 -20 q-19 -6 -38 -7 q-18 -2 -17 18 q5 258 1 620 q0 21 17 21 q15 -1 39 -8 q15 -7 15 -21 l0 -8 Z" /><glyph glyph-name="S" unicode="S" d="M474 604 q-7 -17 -23 -22 q-18 -5 -37 11 q-56 46 -143 46 q-80 0 -123 -30 q-37 -25 -37 -64 q0 -41 21 -66 q21 -23 78 -48 q19 -8 71 -27 q50 -17 71 -26 q132 -60 132 -176 q0 -172 -220 -172 q-134 0 -218 86 q-13 14 -6 26 q8 15 31 21 q11 3 26 -11 q63 -58 167 -58 q149 0 149 108 q0 73 -92 113 q-26 12 -67 28 l-68 26 q-81 32 -113 74 q-32 40 -32 103 q0 62 57 106 q64 48 173 48 q119 0 193 -64 q17 -16 10 -32 Z" /><glyph glyph-name="T" unicode="T" d="M45 633 q-22 0 -28 11 q-7 14 -10 34 q-3 15 17 15 q363 0 422 1 q25 1 33 -10 q11 -18 14 -38 q3 -16 -24 -16 l-185 1 q0 -317 -3 -574 q0 -12 -18 -18 q-19 -6 -38 -7 q-17 -2 -16 19 q7 353 1 581 l-165 1 Z" /><glyph glyph-name="U" unicode="U" d="M471 123 q-63 -90 -176 -90 q-228 0 -233 234 q-4 217 1 408 q0 20 20 20 q21 0 41 -8 q16 -6 14 -31 q-7 -271 -5 -388 q3 -173 168 -173 q115 0 169 113 q-2 286 1 461 q2 16 17 21 q16 4 42 6 q17 2 16 -20 q-3 -277 0 -613 q0 -20 -18 -20 q-23 2 -39 6 q-17 6 -17 21 l-1 53 Z" /><glyph glyph-name="V" unicode="V" d="M27 691 q62 -3 71 -35 q74 -260 184 -534 q6 -11 10 0 q117 319 173 543 q7 32 75 33 q21 1 13 -26 q-80 -277 -202 -575 q-25 -63 -61 -65 q-40 0 -68 62 q-111 260 -212 569 q-10 28 17 28 Z" /><glyph glyph-name="W" unicode="W" d="M32 667 q-3 29 13 30 q33 0 37 -1 q21 -1 24 -26 q26 -218 87 -515 q1 -7 3 -7 q3 -1 5 7 q46 132 145 453 q8 28 31 28 q25 0 33 -26 q72 -263 146 -469 q2 -5 5 -6 q4 -1 5 6 q68 343 91 526 q2 25 24 28 l33 3 q20 -1 15 -29 q-27 -159 -117 -594 q-9 -40 -35 -40 q-47 0 -64 51 q-63 176 -133 427 q-1 4 -2 5 q-2 0 -3 -4 q-81 -280 -134 -431 q-15 -44 -60 -47 q-22 -3 -30 30 q-89 393 -119 601 Z" /><glyph glyph-name="X" unicode="X" d="M552 74 q20 -26 -2 -31 q-13 -4 -36 -5 q-27 -3 -38 13 q-73 105 -189 261 q-148 -199 -191 -261 q-11 -15 -38 -13 q-19 1 -35 4 q-22 5 -5 29 q52 70 225 299 q-142 189 -212 297 q-15 20 7 26 q27 5 38 4 q17 0 27 -13 q72 -112 182 -258 q111 148 186 257 q11 15 30 15 q19 -1 38 -5 q21 -5 6 -25 q-94 -137 -216 -299 l108 -144 q71 -92 115 -151 Z" /><glyph glyph-name="Y" unicode="Y" d="M26 696 q20 2 43 0 q16 -3 22 -16 q63 -122 195 -330 q4 -6 7 0 q117 195 180 329 q9 19 28 20 q29 2 46 1 q19 -1 9 -20 q-94 -169 -229 -378 q-6 -9 -6 -28 l3 -212 q0 -18 -12 -24 q-16 -8 -41 -6 q-17 2 -17 24 l1 216 q0 16 -9 30 q-149 222 -233 374 q-11 18 13 20 Z" /><glyph glyph-name="Z" unicode="Z" d="M451 692 q29 0 29 -36 q-1 -17 -24 -53 q-62 -97 -170 -244 q-144 -193 -174 -237 q-13 -18 5 -18 q69 1 166 5 l178 4 q20 1 28 -14 q10 -18 13 -34 q4 -22 -16 -22 l-441 -4 q-33 0 -34 32 q-2 19 30 64 q42 62 175 242 q109 146 162 231 q5 9 5 13 q-1 2 -11 2 l-300 -7 q-25 0 -33 15 q-6 12 -12 33 q-7 23 17 23 l407 5 Z" /><glyph glyph-name="grave" unicode="`" d="M204 829 q17 0 23 -9 q19 -28 111 -166 q11 -14 -8 -14 q-17 0 -23 7 l-149 163 q-7 7 -4 13 q3 6 13 6 l37 0 Z" /><glyph glyph-name="a" unicode="a" d="M471 453 q-39 -281 26 -397 q13 -23 4 -31 q-9 -10 -32 6 q-32 21 -55 68 q-55 -70 -165 -72 q-103 -1 -164 65 q-60 66 -60 173 q0 100 66 163 q65 61 158 61 q95 0 148 -53 q5 37 21 41 q21 3 41 0 q16 -3 12 -24 ZM96 265 q-1 -80 46 -127 q45 -47 119 -45 q78 2 123 47 q13 14 12 51 q-6 75 -3 145 q1 26 -14 44 q-44 48 -118 46 q-72 0 -118 -43 q-47 -45 -47 -118 Z" /><glyph glyph-name="b" unicode="b" d="M144 143 q57 -53 144 -53 q68 0 112 47 q44 47 45 122 q1 70 -44 117 q-45 46 -111 48 q-86 2 -145 -59 q-17 -18 -18 -57 l0 -111 q1 -37 17 -54 ZM57 680 q0 23 17 23 q17 0 38 -4 q17 -4 17 -22 l0 -253 q67 63 175 63 q90 -2 150 -63 q61 -64 61 -165 q0 -103 -61 -170 q-62 -64 -154 -64 q-103 0 -173 63 l0 -40 q0 -15 -16 -19 q-18 -5 -36 -5 q-18 -1 -18 20 l0 636 Z" /><glyph glyph-name="c" unicode="c" d="M439 345 q-14 -15 -33 -14 q-20 1 -28 23 q-11 30 -46 50 q-36 21 -79 21 q-66 0 -113 -47 q-48 -48 -48 -115 q0 -78 46 -128 q46 -50 118 -50 q58 0 108 33 q48 32 64 80 q5 15 15 13 q11 -3 9 -18 q-9 -73 -63 -120 q-54 -48 -133 -48 q-100 0 -165 66 q-65 68 -65 171 q0 97 64 162 q65 63 162 63 q139 -2 189 -105 q11 -23 -2 -37 Z" /><glyph glyph-name="d" unicode="d" d="M257 425 q-71 -1 -116 -50 q-45 -48 -44 -122 q1 -73 45 -118 q44 -45 113 -45 q86 0 143 54 q18 18 18 54 q2 51 0 110 q-1 39 -19 57 q-55 60 -140 60 ZM416 88 q-72 -63 -173 -63 q-93 0 -154 61 q-61 64 -61 167 q0 104 64 171 q63 62 155 63 q108 1 168 -62 q0 180 1 252 q0 18 17 21 q20 4 38 5 q16 0 16 -23 q-1 -190 -1 -634 q0 -20 -18 -20 q-17 0 -36 5 q-16 4 -16 18 l0 39 Z" /><glyph glyph-name="e" unicode="e" d="M439 240 q-61 -2 -330 -2 q-11 0 -11 -13 q5 -59 50 -99 q47 -42 117 -42 q114 0 167 89 q7 13 18 9 q10 -4 6 -21 q-17 -62 -70 -99 q-53 -36 -121 -36 q-110 0 -173 63 q-62 65 -62 177 q0 98 63 160 q64 63 162 63 q92 0 147 -56 q58 -59 60 -165 q1 -27 -23 -28 ZM254 432 q-63 0 -106 -38 q-39 -36 -49 -91 q-1 -13 9 -13 q70 -1 274 2 q11 0 9 15 q-16 125 -137 125 Z" /><glyph glyph-name="f" unicode="f" d="M217 468 l137 1 q19 1 24 -11 q3 -9 8 -38 q2 -19 -20 -17 l-150 1 q-4 -222 -3 -336 q0 -26 -15 -34 q-20 -9 -39 -9 q-17 2 -16 23 l7 358 l-118 1 q-18 0 -22 12 q-7 17 -8 36 q-1 14 12 14 l137 -1 l1 57 q2 95 42 134 q44 43 150 43 q24 0 29 -16 q8 -24 3 -38 q-4 -13 -38 -12 q-68 3 -93 -23 q-25 -22 -27 -84 l-1 -61 Z" /><glyph glyph-name="g" unicode="g" d="M439 489 q20 1 20 -19 l0 -470 q0 -231 -195 -231 q-168 0 -228 163 q-9 27 5 35 q14 8 26 -14 q64 -123 182 -123 q142 0 142 170 q1 15 1 82 q-50 -52 -152 -52 q-90 0 -151 63 q-62 66 -62 168 q0 101 60 166 q59 62 153 66 q93 1 150 -46 q1 30 14 34 q13 4 35 8 ZM95 261 q0 -75 45 -121 q43 -46 112 -46 q83 0 121 42 q17 21 17 53 q-3 58 -3 150 q0 35 -14 49 q-41 44 -122 41 q-70 -2 -113 -48 q-43 -47 -43 -120 Z" /><glyph glyph-name="h" unicode="h" d="M292 485 q67 0 105 -34 q40 -36 41 -102 q6 -225 7 -296 q0 -28 -16 -28 q-17 -1 -35 3 q-16 4 -16 28 q1 88 -4 276 q-3 93 -100 93 q-77 0 -132 -65 q-24 -27 -24 -85 l0 -229 q0 -13 -16 -18 q-13 -4 -31 -6 q-19 -2 -19 20 q0 442 1 637 q0 20 15 20 q17 0 35 -5 q16 -4 16 -23 l-1 -267 q64 81 174 81 Z" /><glyph glyph-name="i" unicode="i" d="M108 614 q-18 0 -31 13 q-12 12 -12 29 q0 19 12 31 q13 12 31 12 q17 0 30 -12 q13 -12 13 -31 q0 -17 -13 -29 q-13 -13 -30 -13 ZM84 493 q22 -3 41 -8 q14 -5 14 -24 q1 -105 1 -402 q0 -22 -18 -27 q-12 -5 -36 -5 q-18 2 -17 23 q1 130 1 419 q0 24 14 24 Z" /><glyph glyph-name="j" unicode="j" d="M129 489 q29 -3 44 -7 q12 -4 12 -19 q0 -181 -9 -414 q-4 -120 -43 -183 q-39 -64 -126 -97 q-23 -10 -30 2 q-5 11 17 27 q108 84 114 256 q7 234 7 413 q0 22 14 22 ZM146 613 q-17 0 -30 13 q-13 12 -13 29 q0 19 13 31 q13 12 30 12 q18 0 31 -12 q12 -12 12 -31 q0 -17 -12 -29 q-13 -13 -31 -13 Z" /><glyph glyph-name="k" unicode="k" d="M126 61 q0 -16 -14 -22 q-21 -6 -38 -6 q-18 -1 -18 25 q-2 478 -2 616 q0 24 17 24 q21 0 40 -5 q15 -4 15 -24 l0 -378 l123 105 q80 68 117 101 q20 17 38 19 q30 3 60 3 q16 -1 19 -11 q2 -10 -12 -22 q-88 -69 -186 -143 q30 -42 103 -136 q67 -87 106 -140 q19 -28 -9 -31 q-23 -2 -44 0 q-24 1 -35 19 l-164 256 l-116 -87 l0 -163 Z" /><glyph glyph-name="l" unicode="l" d="M80 699 q33 -4 43 -7 q16 -5 16 -25 l0 -616 q0 -14 -17 -20 q-20 -7 -40 -7 q-19 -1 -19 22 q-1 238 -1 631 q0 24 18 22 Z" /><glyph glyph-name="m" unicode="m" d="M506 487 q143 6 144 -141 q1 -124 1 -302 q0 -16 -19 -18 q-19 -2 -39 4 q-13 6 -13 26 l1 132 q1 98 0 153 q0 88 -83 86 q-55 -1 -92 -49 q-22 -26 -23 -78 q-1 -39 -1 -241 q0 -16 -18 -18 q-22 -2 -36 4 q-14 6 -14 27 q3 132 3 262 q-2 88 -71 93 q-64 4 -103 -44 q-18 -26 -18 -67 l1 -259 q0 -22 -18 -26 q-17 -4 -38 -4 q-18 1 -17 24 q1 130 1 414 q0 23 18 23 q19 0 38 -6 q15 -5 14 -50 q53 58 132 55 q90 -5 114 -76 q48 73 136 76 Z" /><glyph glyph-name="n" unicode="n" d="M117 50 q0 -15 -15 -19 q-13 -4 -33 -6 q-17 0 -17 20 q0 233 1 421 q0 20 15 20 q19 -1 35 -5 q16 -4 16 -21 l0 -18 q0 -14 -1 -22 q65 68 165 68 q150 0 153 -133 q5 -191 5 -300 q1 -28 -15 -29 q-19 0 -36 4 q-16 4 -16 28 q1 96 -3 282 q-1 39 -31 63 q-30 25 -75 25 q-75 0 -128 -59 q-19 -23 -20 -72 l0 -247 Z" /><glyph glyph-name="o" unicode="o" d="M25 256 q0 96 67 164 q67 67 162 67 q94 0 162 -67 q66 -68 66 -164 q0 -95 -66 -163 q-68 -68 -162 -68 q-95 0 -162 68 q-67 68 -67 163 ZM91 257 q0 -73 47 -124 q46 -51 115 -51 q69 0 115 51 q47 51 47 124 q0 73 -47 124 q-46 50 -115 50 q-69 0 -115 -50 q-47 -51 -47 -124 Z" /><glyph glyph-name="p" unicode="p" d="M293 90 q67 2 109 49 q41 46 41 119 q-1 75 -43 120 q-42 46 -110 46 q-85 0 -143 -55 q-17 -18 -17 -54 q-2 -53 0 -116 q1 -38 17 -56 q56 -56 146 -53 ZM130 425 q73 64 172 64 q92 0 154 -63 q62 -65 62 -168 q0 -103 -61 -168 q-59 -61 -151 -63 q-109 -2 -175 56 q1 -80 1 -290 q0 -18 -17 -22 q-23 -4 -38 -4 q-17 0 -17 23 q-1 190 -1 678 q0 21 19 21 q18 -1 36 -6 q16 -3 16 -18 l0 -40 Z" /><glyph glyph-name="q" unicode="q" d="M396 373 q-55 53 -134 53 q-71 0 -118 -43 q-49 -46 -49 -118 q0 -75 44 -125 q45 -51 112 -51 q95 0 145 56 q17 18 18 57 q2 64 0 119 q0 35 -18 52 ZM414 466 q0 14 16 19 q23 4 36 5 q18 0 18 -21 q0 -487 -1 -680 q0 -23 -16 -22 q-15 0 -38 4 q-17 3 -17 21 q0 213 1 293 q-62 -60 -175 -60 q-93 0 -152 65 q-60 68 -60 173 q0 103 66 166 q64 60 158 60 q99 0 164 -61 l0 38 Z" /><glyph glyph-name="r" unicode="r" d="M284 486 q31 16 38 -10 q4 -22 2 -41 q-1 -18 -24 -25 q-72 -24 -129 -78 q-38 -36 -39 -104 q-1 -52 -1 -175 q-1 -20 -18 -25 q-19 -5 -36 -3 q-19 0 -19 21 q4 241 2 424 q-1 22 16 22 q20 0 39 -7 q14 -6 15 -23 l1 -97 q57 73 153 121 Z" /><glyph glyph-name="s" unicode="s" d="M401 429 q-5 -16 -22 -22 q-15 -7 -33 3 q-57 27 -138 27 q-49 0 -80 -16 q-30 -15 -30 -37 q0 -48 69 -75 q20 -8 61 -20 l66 -21 q114 -39 114 -122 q0 -120 -184 -120 q-115 0 -187 71 q-19 19 -8 31 q8 11 27 -1 q69 -47 165 -47 q115 0 115 62 q0 43 -70 70 q-22 9 -63 20 q-49 15 -61 19 q-113 41 -113 132 q0 47 52 78 q51 31 131 31 q107 0 177 -39 q17 -11 12 -24 Z" /><glyph glyph-name="t" unicode="t" d="M28 404 q-16 0 -20 12 q-5 15 -6 35 q-3 14 11 14 q87 0 129 1 q1 62 6 218 q0 17 21 16 q19 0 36 -8 q11 -4 10 -28 l-5 -198 q71 0 144 2 q19 0 23 -11 q6 -14 8 -38 q2 -16 -18 -16 l-158 1 q-2 -122 -2 -191 q-1 -76 15 -104 q14 -27 48 -27 q51 0 91 39 q15 14 22 2 q8 -13 -4 -33 q-40 -65 -115 -66 q-70 -2 -96 33 q-28 39 -29 152 q0 131 1 195 l-112 0 Z" /><glyph glyph-name="u" unicode="u" d="M213 27 q-147 0 -154 129 q-6 168 -6 301 q0 27 16 28 q14 1 33 -4 q17 -3 17 -27 q-1 -93 7 -284 q3 -82 104 -82 q63 0 109 51 q26 30 26 83 q1 66 1 240 q0 13 15 19 q18 5 38 7 q17 0 17 -21 q1 -121 -1 -416 q0 -24 -16 -22 q-26 2 -39 6 q-16 4 -16 18 q0 27 1 37 q-66 -63 -152 -63 Z" /><glyph glyph-name="v" unicode="v" d="M27 486 q21 0 38 -3 q14 -3 20 -21 q49 -139 142 -345 q9 -18 15 0 q97 239 131 344 q7 20 19 22 q19 3 39 3 q22 0 12 -23 q-47 -131 -164 -404 q-17 -35 -43 -35 q-27 0 -46 35 q-111 232 -179 404 q-9 23 16 23 Z" /><glyph glyph-name="w" unicode="w" d="M31 487 q16 1 38 -3 q16 -3 20 -23 q29 -127 90 -332 q3 -11 9 -11 q6 0 9 10 q27 80 98 311 q10 34 37 34 q24 0 34 -34 q43 -151 91 -310 q3 -9 8 -9 q5 -1 8 9 q82 274 95 329 q4 20 24 25 q16 4 42 4 q15 0 11 -16 q-78 -249 -131 -396 q-17 -48 -47 -48 q-35 0 -50 48 q-36 110 -81 282 q-5 16 -10 0 q-43 -147 -89 -277 q-20 -52 -55 -52 q-28 0 -47 55 q-77 233 -118 388 q-5 16 14 16 Z" /><glyph glyph-name="x" unicode="x" d="M432 59 q20 -23 -7 -26 l-41 -4 q-22 0 -32 15 q-76 98 -129 163 q-85 -105 -129 -161 q-14 -17 -33 -17 q-23 0 -38 3 q-27 5 -8 27 q-7 -9 167 198 q-132 165 -165 209 q-13 18 7 20 q26 2 39 2 q15 0 26 -14 q40 -53 136 -167 q82 99 135 168 q10 12 25 13 q27 0 40 -2 q18 -2 6 -20 q-47 -62 -165 -207 l166 -200 Z" /><glyph glyph-name="y" unicode="y" d="M205 27 q-115 241 -191 436 q-8 21 8 22 q29 4 46 0 q20 -3 26 -22 q46 -134 147 -368 q90 203 148 360 q9 27 29 31 q25 6 43 2 q20 -3 10 -28 q-100 -241 -215 -479 q-55 -116 -104 -161 q-44 -40 -116 -51 q-29 -5 -30 9 q-2 13 26 24 q92 38 169 203 l7 15 l-3 7 Z" /><glyph glyph-name="z" unicode="z" d="M362 484 q27 0 27 -19 q0 -33 -27 -66 q-52 -64 -135 -154 q-92 -102 -125 -141 q-15 -16 6 -16 l249 3 q23 1 30 -17 q6 -23 7 -33 q2 -15 -21 -15 l-328 3 q-32 0 -32 22 q-3 40 19 66 q30 39 124 143 q86 95 131 156 q8 10 -4 10 q-102 -3 -225 -3 q-20 0 -24 13 q-5 14 -10 30 q-5 19 15 19 l323 -1 Z" /><glyph glyph-name="asciitilde" unicode="~" d="M313 403 q53 -44 89 -44 q33 0 85 103 q5 10 18 7 q11 -2 27 -13 q9 -5 4 -17 q-77 -142 -132 -142 q-49 0 -119 55 q-67 54 -91 54 q-39 0 -96 -96 q-5 -8 -18 -6 q-20 5 -29 14 q-7 10 -2 18 q79 132 144 132 q40 0 120 -65 Z" /><glyph glyph-name="periodcentered" unicode="·" d="M250 293 q-30 0 -52 23 q-22 24 -22 58 q0 33 22 56 q22 24 52 24 q30 0 53 -24 q21 -23 21 -56 q0 -34 -21 -58 q-23 -23 -53 -23 Z" /><glyph glyph-name="emdash" unicode="&#x2014;" d="M985 391 q14 0 20 -18 q5 -19 5 -32 q0 -13 -16 -13 l-965 1 q-11 0 -17 14 q-4 11 -6 32 q0 16 17 16 l962 0 Z" /><glyph glyph-name="quoteleft" unicode="&#x2018;" d="M289 616 q26 0 45 -18 q18 -18 18 -45 q0 -26 -18 -45 q-19 -19 -45 -19 q-26 0 -44 19 q-26 26 -23 77 q11 118 143 169 q33 12 39 1 q6 -11 -23 -26 q-75 -37 -93 -113 l1 0 Z" /><glyph glyph-name="quoteright" unicode="&#x2019;" d="M225 635 q-25 0 -44 18 q-18 19 -18 45 q0 27 18 45 q19 19 44 19 q25 0 43 -17 q19 -17 21 -42 q3 -20 2 -41 q-9 -108 -130 -164 q-31 -13 -36 -1 q-6 10 18 25 q72 44 85 113 l-3 0 Z" /><glyph glyph-name="quotedblleft" unicode="&#x201c;" d="M287 598 q25 0 44 -18 q18 -19 18 -45 q0 -26 -18 -45 q-18 -18 -44 -18 q-37 0 -56 31 q-15 26 -12 63 q11 121 142 169 q34 13 40 2 q6 -11 -23 -25 q-75 -38 -93 -114 l2 0 ZM488 598 q27 0 46 -18 q18 -19 18 -45 q0 -27 -18 -45 q-19 -18 -46 -18 q-36 0 -54 32 q-15 26 -12 62 q11 121 142 169 q34 13 40 2 q5 -11 -23 -25 q-75 -38 -94 -114 l1 0 Z" /><glyph glyph-name="quotedblright" unicode="&#x201d;" d="M226 625 q-26 0 -45 18 q-18 19 -18 44 q0 27 18 45 q19 19 45 19 q26 0 44 -18 q19 -17 20 -43 q3 -15 1 -39 q-7 -110 -130 -164 q-30 -13 -36 -2 q-5 11 18 26 q73 46 86 114 l-3 0 ZM427 625 q-27 0 -45 18 q-18 19 -18 44 q0 27 18 45 q18 19 45 19 q25 0 43 -17 q18 -16 20 -41 q4 -20 3 -42 q-10 -110 -131 -164 q-30 -13 -35 -2 q-6 11 18 26 q72 46 85 114 l-3 0 Z" /><glyph glyph-name="uni3002" unicode="&#x3002;" d="M189 118 q0 53 38 90 q36 38 90 38 q53 0 90 -38 q38 -37 38 -90 q0 -53 -38 -90 q-37 -37 -90 -37 q-54 0 -90 37 q-38 37 -38 90 ZM233 120 q0 -36 23 -60 q25 -24 60 -24 q36 0 59 24 q24 24 24 60 q0 36 -24 59 q-23 24 -59 24 q-35 0 -60 -24 q-23 -23 -23 -59 Z" /><glyph glyph-name="uni4E00" unicode="&#x4e00;" d="M917 467 q30 4 41 -12 q12 -18 18 -38 q7 -26 -22 -24 q-156 10 -871 5 q-19 0 -28 9 q-9 14 -15 32 q-5 15 11 15 q802 5 866 13 Z" /><glyph glyph-name="uni4E07" unicode="&#x4e07;" d="M393 675 l-264 1 q-20 0 -26 8 q-9 12 -15 30 q-5 17 11 17 q698 -3 803 12 q28 3 37 -11 q11 -20 18 -36 q3 -16 -1 -20 q-5 -6 -22 -5 q-100 5 -489 5 l10 -6 q14 -7 11 -31 q-4 -23 -10 -66 l-10 -70 l-5 -20 q201 2 282 2 q24 0 39 10 q6 5 14 3 q6 3 15 -2 q20 -13 33 -25 q14 -12 5 -27 q-9 -15 -14 -40 q-10 -50 -36 -195 q-24 -141 -40 -216 q-11 -53 -45 -69 q-38 -20 -46 7 q-2 8 -120 52 q-11 5 -10 11 q2 5 16 4 q134 -14 137 0 q37 168 76 430 q-190 3 -317 -1 q-39 -175 -119 -286 q-84 -118 -240 -206 q-23 -13 -28 -7 q-5 6 15 22 q262 207 322 557 q13 80 13 162 l0 6 Z" /><glyph glyph-name="uni4E09" unicode="&#x4e09;" d="M784 720 q21 4 30 -10 q12 -18 15 -35 q5 -24 -20 -23 q-70 3 -235 3 q-229 -1 -378 1 q-16 0 -22 8 q-8 12 -14 31 q-4 15 11 15 q513 -5 613 10 ZM745 421 q26 0 35 -23 q8 -22 4 -29 q-3 -7 -20 -7 q-263 -2 -503 0 q-29 0 -40 20 q-10 20 -8 26 q2 6 20 6 q451 5 512 7 ZM894 93 q30 4 41 -13 q12 -19 17 -38 q7 -26 -22 -24 q-184 15 -827 6 q-20 0 -27 9 q-8 12 -15 32 q-5 15 11 16 q790 7 822 12 Z" /><glyph glyph-name="uni4E0A" unicode="&#x4e0a;" d="M979 13 q7 -28 -21 -25 q-171 13 -871 7 q-21 0 -28 9 q-9 16 -15 31 q-5 17 11 17 l197 1 q119 0 176 1 q0 126 2 357 q2 202 1 284 q0 52 -7 124 q-2 17 2 21 q4 4 17 0 q25 -7 51 -21 q12 -8 10 -35 q-5 -69 -5 -102 q0 -22 -2 -91 l-2 -101 q289 8 323 18 q25 8 34 -5 q12 -18 18 -38 q9 -25 -16 -24 q-29 1 -360 -5 l-5 -382 q361 2 431 9 q31 4 42 -12 q12 -20 17 -38 Z" /><glyph glyph-name="uni4E0B" unicode="&#x4e0b;" d="M586 505 q136 -36 258 -161 q45 -48 24 -84 q-23 -38 -64 9 q-91 108 -229 216 q-19 14 -15 20 q4 5 26 0 ZM440 693 q-196 0 -319 1 q-21 0 -28 9 q-7 10 -14 31 q-5 16 10 16 q675 -5 804 12 q26 4 37 -11 q12 -21 16 -37 q8 -26 -21 -25 q-89 4 -434 4 l10 -6 q13 -10 12 -34 q-1 -12 -1 -33 l-1 -34 q-2 -79 -5 -255 l-5 -314 q-1 -62 -19 -92 q-11 -21 -22 -21 q-10 -1 -17 20 q-12 38 -9 89 q14 337 12 587 q0 42 -5 87 l-1 6 Z" /><glyph glyph-name="uni4E0D" unicode="&#x4e0d;" d="M471 460 q-165 -192 -398 -297 q-16 -7 -20 0 q-5 7 10 18 q237 161 383 357 q-6 8 -11 13 q-16 18 -12 25 q3 6 25 -1 q13 -3 20 -7 l37 55 q20 33 37 64 q-222 0 -373 1 q-18 0 -25 8 q-8 12 -13 30 q-5 16 10 16 q597 -5 718 11 q25 4 34 -11 q11 -16 16 -35 q5 -25 -21 -24 q-94 6 -297 4 l14 -15 q10 -13 0 -30 q-38 -58 -86 -121 l6 -17 q8 -24 9 -59 q4 -202 -3 -424 q-3 -64 -28 -95 q-21 -26 -32 6 q-8 22 -5 73 q10 231 5 441 l0 14 ZM918 257 q51 -45 30 -85 q-15 -33 -59 11 q-134 131 -285 244 q-20 16 -16 22 q3 6 26 -2 q142 -46 304 -190 Z" /><glyph glyph-name="uni4E0E" unicode="&#x4e0e;" d="M687 188 q5 -25 -20 -24 q-39 2 -591 4 q-16 0 -22 9 q-8 12 -13 30 q-4 16 10 16 q504 -2 590 10 q24 3 32 -11 q11 -18 14 -34 ZM323 692 q413 2 524 7 q27 1 36 -24 q8 -21 4 -28 q-3 -8 -21 -8 q-335 -4 -540 0 l-8 0 q-12 -136 -19 -203 q128 4 441 6 q27 0 49 8 q6 2 9 2 q7 0 13 -3 q21 -10 36 -24 q14 -11 6 -26 q-7 -13 -12 -39 l-22 -172 q-14 -122 -25 -196 q-7 -50 -41 -68 q-40 -21 -48 6 q-2 7 -100 46 q-12 5 -11 11 q1 5 15 4 q111 -8 114 5 q26 170 47 387 q-300 0 -510 -6 q-29 -5 -26 24 q30 282 26 419 q0 13 4 16 q4 4 19 1 q22 -5 38 -14 q15 -7 12 -28 q-4 -30 -9 -90 l-1 -13 Z" /><glyph glyph-name="uni4E14" unicode="&#x4e14;" d="M313 37 q363 2 403 3 q-2 111 -2 184 q-61 1 -192 1 q-136 -1 -204 1 q-2 -126 -4 -181 l-1 -8 ZM713 519 l0 181 q-277 0 -395 -3 l0 -2 q2 -99 2 -178 q82 -1 207 1 l186 1 ZM713 462 q-65 2 -191 1 q-142 0 -202 1 q0 -124 -1 -186 q75 -1 209 1 l185 0 l0 183 ZM252 54 q5 440 -1 611 q-4 59 -8 80 q-2 16 0 19 q3 3 16 -1 q16 -3 27 -10 q274 4 398 5 q26 0 41 9 q11 8 26 1 q27 -10 39 -20 q12 -11 6 -35 q-8 -32 -10 -81 q-5 -108 -7 -591 q99 2 139 7 q34 4 44 -14 q12 -17 17 -38 q10 -25 -21 -23 q-190 15 -881 7 q-20 -1 -27 7 q-11 19 -16 32 q-6 15 11 16 l107 1 q66 0 100 1 l0 17 Z" /><glyph glyph-name="uni4E16" unicode="&#x4e16;" d="M668 239 q2 168 2 237 q-109 0 -172 -1 q-2 -167 -4 -237 q67 -1 174 1 ZM436 529 q0 152 -2 204 q-1 40 -7 68 q-3 14 0 17 q2 3 15 1 q24 -7 40 -21 q14 -10 14 -41 q2 -60 2 -228 l91 1 q55 0 82 1 q1 74 1 195 q0 47 -5 101 q-3 24 17 19 q30 -8 50 -19 q14 -7 12 -30 q-4 -33 -7 -82 l-4 -183 q138 1 195 8 q29 4 39 -11 q12 -17 18 -36 q7 -27 -22 -25 q-71 4 -231 7 q-2 -78 -4 -241 q3 -3 8 -19 q8 -20 5 -26 q-4 -7 -19 -6 q-42 1 -116 1 l-117 0 q-5 -16 -21 -27 q-25 -17 -31 -2 q-4 14 -4 47 l1 273 l-163 0 q-3 -231 -11 -438 q584 5 621 7 q22 1 32 -11 q9 -15 13 -32 q4 -20 -22 -19 q-173 4 -631 1 q-29 0 -57 -8 q-17 -5 -29 9 q-11 14 -15 33 q-3 17 8 18 q18 15 19 56 q7 164 5 383 l-122 0 q-21 0 -28 9 q-10 13 -14 29 q-6 16 10 16 l153 0 l-3 116 q-4 54 -8 75 q-2 15 1 18 q3 3 17 2 q25 -3 44 -13 q13 -6 14 -27 q3 -111 3 -171 l163 1 Z" /><glyph glyph-name="uni4E1A" unicode="&#x4e1a;" d="M688 238 q-9 -8 -15 -3 q-7 5 0 17 q146 276 153 291 q7 21 15 57 q4 19 20 13 q28 -9 47 -24 q15 -10 7 -27 q-114 -215 -227 -324 ZM231 282 q-32 88 -145 288 q-11 20 -5 24 q5 4 24 -10 q109 -85 183 -251 q27 -58 -7 -86 q-30 -22 -50 35 ZM974 9 q7 -27 -23 -26 q-97 6 -868 6 q-21 0 -28 9 q-8 11 -15 31 q-5 16 11 16 l320 0 l-3 349 q-1 188 -3 275 q-1 55 -8 120 q-3 16 1 20 q3 4 16 1 q26 -7 49 -20 q12 -7 11 -33 q-4 -37 -4 -98 q-2 -237 0 -614 l142 2 l4 358 q3 199 3 285 q0 63 -6 126 q-2 17 2 20 q3 4 17 0 q26 -7 49 -21 q14 -8 11 -35 q-6 -56 -6 -103 q-9 -285 -13 -629 q227 3 285 11 q28 4 39 -12 q12 -20 17 -38 Z" /><glyph glyph-name="uni4E1C" unicode="&#x4e1c;" d="M347 228 q16 13 22 9 q6 -4 -2 -19 q-59 -124 -205 -216 q-77 -46 -82 -1 q-3 37 34 59 q131 82 233 168 ZM871 310 q-67 3 -294 5 q0 -219 -3 -330 q-2 -50 -30 -72 q-38 -30 -48 0 q-4 12 -121 46 q-12 5 -11 12 q1 7 14 7 q128 -3 130 9 q6 163 6 328 l-247 0 q-28 0 -54 -8 q-17 -4 -28 10 q-10 14 -15 34 q-3 10 2 15 q2 4 6 5 q29 11 57 53 q56 85 125 201 l-237 0 q-19 0 -24 9 q-11 14 -15 29 q-5 15 10 15 q108 -1 296 -1 l32 60 q22 41 35 89 q5 20 23 15 q26 -8 41 -17 q17 -8 7 -30 q-52 -95 -64 -117 q359 2 436 12 q26 4 35 -11 q11 -15 16 -34 q8 -26 -20 -23 q-130 7 -497 5 q-66 -117 -161 -257 l241 1 l0 119 q-2 39 -6 56 q-2 11 1 15 q4 2 19 -1 q27 -8 47 -20 q13 -8 9 -27 q-5 -37 -5 -54 q-1 -14 -1 -42 l-1 -46 q209 2 266 8 q26 2 35 -13 q9 -15 14 -34 q4 -21 -21 -21 ZM932 69 q40 -41 16 -76 q-22 -30 -57 12 q-68 82 -204 199 q-15 14 -11 20 q3 5 23 0 q120 -37 233 -155 Z" /><glyph glyph-name="uni4E22" unicode="&#x4e22;" d="M538 341 q301 2 371 12 q29 4 40 -13 q13 -21 18 -36 q7 -27 -23 -26 q-114 7 -455 7 q9 -11 14 -20 q9 -17 -8 -32 q-108 -116 -216 -205 q239 17 459 25 q-29 41 -115 150 q-13 19 -9 23 q5 5 25 -5 q123 -68 219 -215 q34 -53 4 -84 q-26 -29 -54 23 q-20 36 -43 71 q-108 -16 -278 -33 q-156 -15 -218 -26 q-29 -3 -65 -16 q-17 -6 -24 6 q-15 25 -22 54 q-3 7 0 12 q0 6 9 8 q42 14 73 44 q88 81 161 170 q25 31 35 50 q-97 -1 -339 -1 q-21 0 -28 9 q-10 16 -15 31 q-5 15 11 15 l409 1 l2 155 l-282 -3 q-31 0 -44 20 q-12 20 -10 26 q3 5 24 6 l313 6 l0 77 q0 29 -3 56 q-140 -14 -277 -8 q-27 2 -27 10 q0 10 29 13 q235 23 423 65 q101 23 165 50 q18 7 27 -5 q12 -15 23 -41 q8 -19 -17 -24 q-18 -3 -78 -17 q-57 -12 -99 -19 q-79 -12 -97 -14 q4 -6 3 -20 l-5 -122 l272 6 q28 2 38 -23 q16 -36 -18 -36 q-100 0 -294 -2 l-4 -155 Z" /><glyph glyph-name="uni4E24" unicode="&#x4e24;" d="M601 546 q3 60 -1 150 l0 3 l-185 0 l4 -2 q13 -7 12 -28 q2 14 -10 -124 l180 1 ZM361 699 l-224 0 q-19 0 -26 9 q-7 9 -14 30 q-5 15 11 15 q670 -2 770 12 q27 4 37 -11 q13 -21 17 -36 q6 -25 -22 -24 q-87 5 -251 5 q15 -6 12 -29 q-2 -17 -7 -124 l131 0 q29 0 50 8 l1 0 q9 10 19 5 q15 -7 32 -18 q14 -11 7 -29 q-8 -19 -8 -43 q-2 -55 -2 -226 q-1 -166 -4 -257 q-1 -46 -31 -65 q-36 -24 -45 1 q-2 4 -117 40 q-12 4 -11 10 q1 7 15 6 q123 -4 123 10 q10 261 7 501 l-171 1 q-8 -112 -24 -182 q81 -34 141 -121 q25 -38 1 -62 q-26 -25 -48 15 q-21 38 -100 141 q-42 -151 -161 -258 q-13 -12 -21 -7 q-7 4 3 18 q126 181 147 456 l-182 -1 q-10 -89 -28 -162 q74 -17 129 -86 q26 -31 5 -55 q-24 -28 -47 8 q-19 29 -93 112 q-42 -135 -156 -237 q-13 -12 -20 -8 q-6 5 4 19 q118 169 143 409 l-75 -1 q-48 0 -71 -1 l-11 0 q1 -11 1 -36 q3 -157 -5 -450 q-2 -57 -18 -88 q-24 -39 -37 -1 q-10 32 -9 74 q12 276 7 482 q0 37 -8 70 q-6 22 14 16 q13 -4 30 -11 l187 1 l0 1 q5 59 3 148 l0 6 Z" /><glyph glyph-name="uni4E25" unicode="&#x4e25;" d="M463 719 q12 -5 9 -22 q-2 -27 -2 -46 q-2 -117 -2 -226 q93 0 133 1 l2 128 q1 71 0 104 q-3 39 -5 60 q-1 4 -1 9 l-156 0 q8 -2 22 -8 ZM409 425 q-3 255 -2 233 q0 19 -4 60 q-1 4 -1 9 l-206 4 q-31 1 -43 20 q-11 19 -9 25 q3 5 24 5 q427 -3 711 8 q28 0 37 -24 q9 -20 5 -27 q-3 -6 -22 -7 l-265 -4 q15 -4 25 -9 q12 -4 9 -21 l-3 -46 l-4 -225 q204 3 260 11 q24 4 34 -12 q11 -15 16 -34 q5 -25 -21 -24 l-717 4 q-2 -66 -4 -94 q-9 -145 -45 -224 q-38 -85 -131 -154 q-15 -10 -21 -5 q-6 4 4 17 q114 148 125 368 q4 70 0 144 q-1 24 18 20 q24 -6 43 -16 l4 -2 l183 0 ZM273 510 q-23 39 -104 130 q-21 25 11 18 q83 -20 140 -96 q27 -35 4 -62 q-27 -30 -51 10 ZM837 668 q26 -12 43 -29 q14 -13 2 -26 q-93 -106 -162 -142 q-9 -5 -13 0 q-5 6 2 16 q88 127 96 144 q4 7 12 28 q5 16 20 9 Z" /><glyph glyph-name="uni4E2A" unicode="&#x4e2a;" d="M532 554 q14 -7 12 -29 q-4 -43 -4 -74 q-1 -48 -2 -194 q-1 -128 -3 -212 q-2 -85 -25 -139 q-16 -38 -25 1 q-13 47 -13 134 q1 140 1 412 q0 46 -4 97 q-1 17 1 19 q3 2 21 -1 q27 -6 41 -14 ZM983 431 q16 -9 17 -13 q1 -5 -14 -11 q-14 -5 -31 -17 q-21 -15 -28 -19 q-22 -9 -41 4 q-224 149 -364 353 q-43 -53 -101 -111 q-180 -180 -355 -267 q-24 -12 -28 -4 q-4 7 15 22 q190 148 317 289 q84 94 140 180 q13 17 29 8 q22 -13 34 -26 q14 -15 -1 -32 q-11 -11 -29 -34 q148 -162 298 -252 l142 -70 Z" /><glyph glyph-name="uni4E2D" unicode="&#x4e2d;" d="M531 319 q100 1 275 1 q-2 137 0 262 q-141 2 -273 0 q0 -75 -2 -263 ZM213 318 q170 0 251 1 l0 263 q-132 0 -251 -3 q3 -116 0 -261 ZM820 647 q7 5 20 2 q28 -11 37 -17 q14 -10 6 -28 q-6 -20 -8 -47 q-3 -46 -7 -244 l7 -17 q8 -22 4 -27 q-3 -6 -25 -6 q-68 2 -324 2 q0 -51 -2 -161 q-1 -109 -28 -194 q-16 -51 -26 1 q-14 82 -12 187 l1 167 q-139 -2 -252 1 l-1 -19 q0 -19 -23 -29 q-27 -14 -33 -3 q-4 12 -4 36 l0 168 q0 112 -2 156 q-4 39 -7 50 q-3 13 -1 16 q2 3 15 0 q17 -3 31 -9 l139 2 q94 2 139 2 l-1 63 q-1 67 -6 136 q-2 18 2 21 q3 3 21 -2 q26 -6 44 -16 q15 -8 13 -36 l-3 -105 l0 -61 q168 2 239 2 q25 0 46 9 l1 0 Z" /><glyph glyph-name="uni4E3A" unicode="&#x4e3a;" d="M333 632 q-25 42 -98 120 q-19 23 11 17 q78 -11 136 -85 q27 -34 4 -62 q-30 -31 -53 10 ZM541 496 q-19 -86 -45 -152 q6 3 15 0 q88 -16 171 -99 q33 -33 12 -62 q-22 -32 -53 6 q-45 54 -138 137 q-8 6 -10 11 q-105 -266 -403 -415 q-29 -15 -34 -9 q-4 8 22 25 q308 217 391 556 l-281 -10 q-23 0 -39 29 q-13 24 -11 30 q2 6 23 5 q104 0 321 4 q8 40 11 67 q16 101 16 213 q0 17 4 21 q4 5 18 0 q26 -8 45 -19 q16 -8 12 -34 q-5 -24 -12 -88 q-7 -61 -12 -96 q-6 -41 -10 -62 q126 3 243 9 q25 1 41 8 q12 6 20 1 l3 -1 q1 0 2 -1 q18 -9 36 -25 q14 -12 5 -29 q-9 -16 -14 -45 q-9 -52 -28 -213 q-19 -154 -33 -239 q-10 -54 -44 -74 q-40 -21 -48 6 q-3 12 -91 48 q-11 6 -10 12 q2 6 15 5 q103 -9 107 6 q31 191 63 483 l-280 -9 Z" /><glyph glyph-name="uni4E3B" unicode="&#x4e3b;" d="M505 688 q-23 54 -86 147 q-18 27 13 16 q82 -27 131 -114 q22 -41 -5 -66 q-15 -13 -29 -8 q-15 4 -24 25 ZM540 376 q101 1 269 5 q26 0 35 -24 q10 -21 6 -28 q-4 -7 -22 -7 l-289 -1 q-2 -197 -4 -279 q306 2 360 9 q31 4 42 -13 q14 -23 17 -38 q5 -24 -23 -22 q-182 13 -826 5 q-20 0 -27 8 q-11 16 -15 32 q-5 16 10 16 q301 2 400 2 q0 114 2 280 q-158 0 -234 1 q-30 0 -43 20 q-11 21 -8 26 q2 5 23 6 q90 0 262 2 l0 107 q0 48 -6 95 l0 2 q-172 0 -282 2 q-18 0 -24 9 q-10 16 -14 30 q-3 15 10 15 q556 -6 678 13 q22 3 31 -12 q11 -17 16 -34 q5 -25 -21 -24 q-82 3 -332 1 l5 -2 q15 -7 11 -29 q-4 -39 -5 -77 l-2 -96 Z" /><glyph glyph-name="uni4E43" unicode="&#x4e43;" d="M713 751 q8 6 20 2 q23 -8 40 -20 q17 -12 10 -29 q-69 -191 -106 -269 q53 1 144 1 q14 0 29 6 q9 10 23 3 q19 -9 36 -25 q15 -13 5 -27 q-9 -16 -13 -38 q-5 -32 -22 -162 q-16 -114 -29 -182 q-10 -54 -45 -72 q-40 -20 -48 7 q-3 10 -135 52 q-14 4 -12 12 q1 6 16 5 q150 -14 153 1 q30 157 52 366 q-130 0 -195 -3 q-13 0 -15 11 q-5 8 -2 16 q50 159 76 274 l-252 -6 q9 -8 5 -28 q-3 -21 -8 -68 l-9 -75 q-32 -216 -106 -341 q-81 -134 -248 -228 q-22 -12 -27 -6 q-6 6 12 21 q247 209 297 557 q11 71 11 165 l-195 -5 q-20 -1 -36 30 q-11 23 -9 29 q1 7 20 6 q282 -3 520 9 q25 1 40 10 l3 1 Z" /><glyph glyph-name="uni4E45" unicode="&#x4e45;" d="M686 655 q20 -9 38 -26 q14 -14 3 -33 q-26 -37 -46 -86 q-46 -107 -91 -179 q90 -179 235 -275 q28 -19 78 -41 q61 -28 80 -38 q28 -14 0 -22 q-14 -4 -34 -15 q-19 -12 -31 -15 q-21 -8 -40 7 q-221 127 -312 363 q-164 -243 -485 -364 q-31 -11 -34 -3 q-3 8 24 22 q221 120 349 263 q131 146 217 373 q-171 2 -272 -2 q-87 -146 -226 -265 q-11 -9 -17 -4 q-6 6 4 18 q184 255 241 409 q10 31 20 78 q4 19 21 13 q24 -9 45 -24 q14 -11 6 -29 q-35 -85 -62 -138 q162 3 230 3 q20 1 33 8 q8 7 16 6 l4 -1 q2 0 3 -1 l3 -2 Z" /><glyph glyph-name="uni4E48" unicode="&#x4e48;" d="M541 780 q-186 -281 -426 -445 q-13 -9 -18 -3 q-6 6 5 19 q238 249 338 409 q17 25 36 69 q7 17 22 9 q22 -12 42 -30 q12 -13 1 -28 ZM905 50 q34 -61 1 -94 q-28 -26 -54 31 q-23 49 -54 104 q-104 -21 -272 -48 q-154 -24 -217 -37 q-40 -10 -66 -23 q-18 -7 -26 5 q-14 21 -27 56 q-3 14 4 18 q3 3 9 4 q56 16 116 82 q178 192 325 397 q43 63 73 121 q12 27 31 10 q17 -14 35 -40 q13 -19 -7 -43 q-221 -292 -440 -511 q159 21 438 46 q-37 61 -108 166 q-13 22 -8 27 q5 4 26 -9 q124 -85 221 -262 Z" /><glyph glyph-name="uni4E49" unicode="&#x4e49;" d="M498 626 q-27 65 -117 189 q-11 14 -6 19 q4 4 21 -3 q101 -41 161 -152 q27 -48 -4 -74 q-33 -30 -55 21 ZM968 -14 q26 -13 25 -19 q-1 -7 -29 -10 q-13 -1 -31 -8 l-30 -11 q-22 -6 -54 10 q-207 111 -337 238 q-171 -174 -440 -262 q-36 -12 -39 -3 q-3 8 28 23 q253 126 404 290 q-126 138 -219 346 q-23 52 -43 71 q-13 14 -12 33 q5 34 26 18 q37 -27 73 -97 q98 -194 220 -319 q61 74 107 155 q108 188 158 329 q9 23 31 13 q24 -11 40 -27 q13 -13 3 -35 q-118 -232 -169 -316 q-54 -90 -120 -167 q85 -77 209 -148 q42 -24 106 -56 q65 -33 93 -48 Z" /><glyph glyph-name="uni4E4B" unicode="&#x4e4b;" d="M502 679 q-23 55 -93 148 q-19 26 13 18 q88 -25 140 -113 q24 -42 -3 -69 q-35 -31 -57 16 ZM972 18 q26 -2 27 -9 q0 -9 -25 -17 q-18 -6 -37 -21 q-26 -21 -34 -26 q-20 -12 -54 -8 q-375 48 -563 168 q-50 33 -87 30 q-37 -3 -112 -45 q-26 -15 -45 13 q-17 29 16 42 q109 48 170 37 q238 148 512 367 l-556 -33 q-23 -2 -38 28 q-12 25 -11 31 q2 6 22 5 q317 8 613 30 q28 1 42 10 q4 3 8 3 q16 8 28 -6 q17 -22 26 -41 q9 -20 -10 -32 q-427 -294 -584 -380 q15 -6 31 -15 q155 -86 403 -116 q41 -4 124 -7 q85 -3 134 -8 Z" /><glyph glyph-name="uni4E4E" unicode="&#x4e4e;" d="M800 645 q7 15 21 6 q23 -16 39 -35 q13 -14 -1 -27 q-138 -143 -224 -181 q-11 -5 -14 1 q-5 5 4 15 q110 114 155 186 q9 11 20 35 ZM189 596 q-12 12 -9 17 q3 5 19 1 q92 -27 168 -119 q29 -38 8 -67 q-25 -30 -52 11 q-39 58 -134 157 ZM984 316 q7 -27 -21 -25 q-125 9 -399 9 q0 -203 -3 -304 q-3 -53 -31 -75 q-37 -31 -49 0 q-4 11 -134 49 q-12 4 -11 11 q1 7 14 6 q144 -3 144 11 q3 93 7 302 l-408 -3 q-20 0 -29 10 q-9 14 -15 31 q-5 16 11 16 q334 2 441 2 q2 153 0 288 q-2 43 -4 58 q-146 -20 -280 -13 q-27 2 -27 10 q0 9 27 12 q219 28 392 70 q93 22 157 50 q16 7 27 -4 q11 -12 24 -41 q8 -21 -18 -27 q-12 -2 -72 -16 q-53 -12 -95 -20 q-28 -5 -81 -13 l9 -6 q13 -8 10 -30 q-4 -37 -4 -64 q-2 -72 -2 -253 q297 2 361 9 q31 4 42 -12 q13 -20 17 -38 Z" /><glyph glyph-name="uni4E4F" unicode="&#x4e4f;" d="M159 650 q-29 0 -29 9 q0 8 29 12 q255 37 446 89 q101 29 171 64 q18 8 28 -4 q13 -17 25 -41 q8 -20 -17 -26 q-22 -5 -82 -22 q-60 -19 -102 -28 q-254 -54 -469 -53 ZM430 644 q80 -20 132 -97 q24 -35 -1 -59 q-28 -26 -50 13 q-19 38 -92 127 q-9 10 -5 16 q3 4 16 0 ZM979 7 q26 -1 27 -10 q0 -7 -24 -15 q-19 -6 -39 -23 q-27 -23 -32 -26 q-22 -13 -53 -10 q-371 30 -561 135 q-50 28 -87 24 q-38 -5 -116 -50 q-25 -15 -45 12 q-17 29 14 42 q114 53 178 43 q236 125 487 291 l-556 -22 q-20 -1 -36 26 q-11 23 -9 28 q1 6 21 5 q315 3 617 19 q27 3 38 8 q6 3 12 3 q13 2 22 -9 q11 -16 23 -41 q9 -19 -11 -30 q-376 -214 -551 -295 l22 -9 q158 -74 399 -90 q41 -3 125 -3 q84 1 135 -3 Z" /><glyph glyph-name="uni4E50" unicode="&#x4e50;" d="M317 274 q14 14 22 10 q8 -4 0 -20 q-58 -130 -183 -221 q-73 -51 -84 -6 q-9 35 28 61 q133 95 217 176 ZM490 414 q0 112 -1 164 q0 34 -6 64 q-2 13 1 16 q4 3 18 -1 q28 -6 51 -22 q14 -8 10 -28 q-4 -24 -6 -64 q-2 -76 -2 -128 q269 3 313 7 q24 1 34 -12 q8 -12 13 -32 q4 -21 -21 -20 q-128 3 -339 2 q0 -279 -4 -373 q-1 -52 -30 -76 q-38 -30 -50 0 q-5 12 -121 49 q-13 5 -12 12 q1 7 15 7 q128 -3 130 10 q5 160 7 371 l-248 -3 q-26 0 -57 -9 q-19 -5 -30 11 q-9 13 -14 32 q-5 14 3 17 l3 3 q17 11 26 45 q22 101 36 209 q5 42 2 67 q-1 19 18 16 q29 -5 46 -12 q10 -4 11 -14 q232 31 367 72 q46 13 80 30 q18 8 29 -1 q24 -20 36 -38 q15 -23 -12 -29 q-287 -69 -504 -62 q-23 -152 -55 -283 l263 3 ZM912 102 q40 -42 17 -76 q-9 -15 -24 -13 q-17 2 -32 23 q-78 99 -203 201 q-15 13 -12 19 q3 6 22 0 q125 -34 232 -154 Z" /><glyph glyph-name="uni4E5F" unicode="&#x4e5f;" d="M304 431 q-4 -196 0 -299 q6 -124 138 -136 q196 -18 373 5 q46 7 63 17 q16 9 20 32 q14 111 18 129 q4 18 11 18 q8 -1 9 -20 q5 -128 27 -153 q28 -31 -1 -53 q-36 -29 -130 -38 q-188 -19 -395 -2 q-98 7 -146 54 q-47 48 -52 143 q-4 87 0 283 q-86 -26 -133 -39 q-24 -6 -39 20 q-14 23 -13 29 q1 6 19 10 q70 17 167 45 l0 67 q-2 74 -7 128 q-3 27 21 19 q28 -8 49 -22 q14 -10 11 -33 q-6 -31 -8 -93 l-1 -48 l195 55 q3 127 3 177 q0 66 -4 106 q-2 17 3 19 q3 3 19 -1 q16 -3 38 -13 q14 -8 14 -33 q0 -27 -2 -83 l-3 -151 q96 27 183 55 q26 8 42 23 q6 6 13 9 q9 5 18 -1 q22 -9 35 -22 q13 -11 5 -25 q-8 -15 -11 -34 q-6 -38 -21 -152 q-15 -110 -24 -171 q-7 -48 -39 -64 q-39 -19 -47 6 q-2 9 -88 43 q-13 5 -11 11 q1 5 15 4 q100 -7 101 5 q21 125 43 318 q-37 -10 -104 -31 l-111 -34 q-1 -104 -6 -224 q-3 -91 -28 -152 q-17 -42 -26 1 q-14 54 -12 146 q0 33 2 103 l2 106 l-195 -59 Z" /><glyph glyph-name="uni4E60" unicode="&#x4e60;" d="M686 407 q21 13 28 4 q6 -8 -13 -23 q-169 -140 -524 -331 q-23 -12 -37 -2 q-18 12 -37 40 q-14 19 9 24 q32 8 56 20 q204 88 518 268 ZM471 400 q-87 87 -220 186 q-17 12 -14 19 q4 6 22 1 q116 -27 245 -137 q43 -36 25 -74 q-17 -34 -58 5 ZM825 752 q17 -13 7 -35 q-10 -23 -13 -57 q-6 -80 -16 -310 q-13 -231 -21 -355 q-4 -58 -39 -83 q-37 -25 -49 3 q-5 12 -137 59 q-13 5 -11 11 q1 6 16 5 q97 -6 126 -4 q21 2 21 12 q27 378 39 708 q-277 -3 -526 -8 q-20 0 -36 30 q-11 24 -9 30 q1 6 21 5 q270 -5 530 3 q26 0 38 7 q1 1 2 1 l2 1 q8 5 19 0 q21 -11 36 -23 Z" /><glyph glyph-name="uni4E61" unicode="&#x4e61;" d="M652 280 q-69 -12 -202 -34 q-112 -17 -166 -28 q-30 -8 -55 -19 q-15 -8 -24 5 q-13 21 -22 50 q-3 13 5 18 q2 2 9 4 q56 16 111 63 q83 68 172 153 q-41 -8 -118 -20 q-68 -10 -99 -17 q-26 -5 -45 -16 q-16 -8 -25 6 q-13 20 -20 52 q-1 9 0 13 q1 4 8 8 q34 17 66 55 q74 82 147 187 q22 33 39 71 q8 20 24 9 q21 -14 38 -38 q12 -17 -4 -35 q-111 -144 -210 -242 q129 12 251 18 l72 72 q41 44 70 89 q15 21 30 6 q21 -21 30 -41 q10 -18 -9 -37 q-194 -190 -397 -343 q148 19 362 35 q49 58 111 156 q13 19 31 7 q19 -13 36 -34 q12 -15 -4 -33 q-16 -18 -78 -94 q-53 -65 -102 -115 q-229 -225 -547 -308 q-32 -8 -34 0 q-3 9 27 22 q313 134 501 333 l21 22 Z" /><glyph glyph-name="uni4E66" unicode="&#x4e66;" d="M459 367 l120 2 q81 2 111 2 q2 113 6 215 l-234 -5 l-3 -214 ZM787 374 q26 0 43 9 q4 2 6 2 q5 3 15 -1 q14 -6 35 -20 q12 -10 5 -25 q-7 -10 -10 -30 q-4 -28 -15 -125 q-11 -89 -19 -141 q-7 -47 -37 -61 q-40 -17 -48 6 q-2 8 -88 41 q-12 5 -11 10 q2 6 15 5 q100 -7 101 6 q17 110 33 269 q-267 -4 -353 -6 q0 -45 -2 -143 l-2 -145 q-1 -69 -19 -108 q-12 -23 -22 -23 q-11 0 -16 22 q-10 44 -7 102 q6 190 8 294 l-281 -6 q-22 -1 -38 27 q-13 23 -11 28 q2 6 23 5 q147 -2 308 0 l3 214 l-178 -3 q-18 0 -30 26 q-9 20 -7 25 q1 5 16 4 l199 0 l0 107 q-2 59 -7 99 q-2 16 1 21 q3 3 15 -1 q27 -9 42 -21 q13 -9 13 -38 l-3 -78 l-1 -88 q147 2 209 4 q20 0 33 7 q4 2 6 2 q7 4 18 1 q24 -10 31 -16 q13 -8 6 -26 q-4 -11 -8 -38 q-4 -39 -10 -194 l39 1 ZM903 700 q34 -32 17 -63 q-18 -33 -53 2 q-54 60 -147 127 q-13 11 -10 16 q1 5 16 3 q90 -8 177 -85 Z" /><glyph glyph-name="uni4E71" unicode="&#x4e71;" d="M451 237 q-145 2 -240 -1 q2 -95 -3 -203 q50 -1 127 0 l114 1 q0 139 2 203 ZM363 516 q148 1 199 8 q19 4 28 -10 q9 -17 12 -31 q4 -22 -18 -21 q-72 4 -223 2 l-4 -173 l70 0 q19 0 33 8 q5 4 9 4 q7 2 15 -2 q22 -6 33 -15 q11 -8 6 -26 q-6 -20 -7 -39 q-4 -54 -6 -194 q1 -1 5 -14 q6 -20 3 -26 q-2 -5 -18 -5 q-46 1 -144 1 l-150 0 l-1 -17 q-2 -18 -21 -26 q-27 -12 -30 -2 q-4 13 -4 32 q3 235 2 268 q-2 29 -7 44 q-3 11 -1 14 q2 2 15 0 q12 -1 26 -7 l58 1 q37 0 55 1 l3 173 l-223 0 q-14 1 -20 8 q-9 13 -12 29 q-4 15 9 15 q93 -2 247 -2 l0 103 q0 37 -3 72 q-91 -15 -173 -14 q-19 1 -19 9 q-2 8 18 12 q165 35 254 67 q64 23 103 47 q16 10 26 -3 q14 -16 24 -38 q9 -18 -14 -24 q-12 -3 -49 -15 q-37 -12 -66 -19 q-20 -5 -59 -13 q10 -3 16 -7 q13 -6 10 -25 q-4 -33 -4 -58 l-3 -92 ZM982 35 q30 -27 6 -49 q-22 -18 -75 -26 q-66 -7 -143 0 q-57 6 -84 42 q-28 37 -30 118 q-2 107 0 294 q2 199 1 260 q0 66 -5 143 q-2 25 19 19 q28 -11 43 -20 q16 -13 12 -34 q-7 -54 -7 -108 q-9 -316 -1 -551 q1 -54 16 -76 q14 -21 44 -24 q60 -6 118 2 q32 4 36 34 q8 87 11 101 q3 19 10 19 q8 -1 9 -21 q5 -107 20 -123 Z" /><glyph glyph-name="uni4E86" unicode="&#x4e86;" d="M896 716 q9 -16 -8 -27 q-247 -179 -352 -235 q15 -32 22 -74 q34 -195 4 -391 q-9 -55 -39 -79 q-38 -32 -50 3 q-5 17 -162 59 q-17 5 -15 13 q1 8 18 6 q121 -10 150 -10 q27 1 29 13 q29 191 5 379 q-10 76 -59 159 q-41 68 19 17 q38 -32 59 -63 q138 97 263 205 q-459 -7 -606 -10 q-22 0 -38 29 q-13 24 -11 30 q2 5 23 4 q364 -3 653 5 q27 0 40 7 q4 2 7 2 q13 7 24 -6 q14 -16 24 -36 Z" /><glyph glyph-name="uni4E8B" unicode="&#x4e8b;" d="M782 218 q-74 1 -260 1 l-1 -81 q187 2 260 2 l1 78 ZM522 264 q122 0 260 2 l1 74 l-261 1 l0 -77 ZM464 584 l-192 -3 q2 -39 0 -82 l192 0 l0 85 ZM522 499 q81 1 224 1 q0 57 1 84 l-225 0 l0 -85 ZM522 391 q80 1 229 1 q22 0 41 6 q6 2 9 2 q7 2 16 -1 q21 -5 36 -15 q15 -9 7 -29 q-7 -20 -8 -40 l-3 -47 q48 1 82 5 q28 2 36 -9 q12 -19 16 -32 q7 -22 -19 -21 q-38 2 -117 4 q-1 -12 -1 -37 l-1 -42 q5 -3 10 -19 q7 -20 4 -25 q-4 -7 -24 -6 q-131 4 -314 1 l-3 -114 q-1 -50 -27 -73 q-37 -31 -46 0 q-4 13 -78 44 q-11 5 -10 12 q0 7 13 6 q86 -2 86 12 l3 113 q-187 0 -284 1 q-27 0 -33 20 q-8 20 -5 25 q4 5 23 5 q156 -2 300 0 l1 80 l-385 -2 q-19 0 -25 8 q-8 9 -13 25 q-5 14 10 14 q294 0 414 1 l1 76 q-96 0 -262 -2 q-20 -1 -30 22 q-10 21 -8 25 q2 4 20 4 q190 2 280 2 l1 62 q-130 0 -197 1 q-2 -7 -20 -13 q-30 -9 -34 -1 q-4 8 -4 23 q-4 132 -3 126 q0 14 -5 31 q-4 11 -2 14 q2 2 15 1 q17 -1 29 -6 q114 2 221 3 l0 65 q-231 -2 -340 -2 q-31 0 -42 19 q-11 18 -9 22 q3 5 23 5 q131 1 367 5 l0 20 q0 34 -7 75 q-2 13 1 17 q4 3 18 -2 q26 -7 47 -23 q14 -8 10 -31 l-6 -55 l370 9 q27 1 36 -20 q9 -19 6 -26 q-3 -6 -21 -7 q-269 -4 -394 -5 l-1 -65 l200 1 q24 0 38 7 q1 1 3 1 q1 2 2 2 q7 2 16 -2 q23 -7 32 -13 q15 -8 7 -25 q-4 -12 -6 -31 q-2 -27 -4 -87 l2 -5 q6 -19 3 -24 q-3 -5 -20 -5 q-42 1 -273 1 l0 -62 Z" /><glyph glyph-name="uni4E8C" unicode="&#x4e8c;" d="M753 668 q26 1 36 -23 q15 -35 -15 -35 q-215 -10 -505 -5 q-29 0 -40 19 q-10 20 -8 26 q2 6 20 6 q390 4 512 12 ZM913 128 q33 5 42 -11 q12 -19 18 -38 q6 -24 -21 -22 q-211 22 -852 7 q-19 0 -26 8 q-8 10 -15 31 q-5 15 11 15 q190 3 556 4 q241 1 287 6 Z" /><glyph glyph-name="uni4E8E" unicode="&#x4e8e;" d="M460 713 q-125 0 -245 3 q-30 1 -42 22 q-11 20 -8 25 q2 5 22 5 q402 -2 615 8 q27 1 36 -24 q10 -20 6 -28 q-3 -7 -22 -8 q-160 -3 -312 -3 q3 -1 8 -4 q6 -3 8 -5 q12 -8 9 -30 q-3 -28 -5 -65 q-2 -105 -2 -177 q301 2 362 10 q29 4 40 -13 q12 -20 16 -37 q7 -28 -22 -25 q-131 10 -396 8 q0 -293 -3 -390 q-3 -52 -31 -75 q-35 -30 -48 0 q-4 12 -105 47 q-12 6 -11 12 q1 7 14 7 q115 -2 115 10 q5 165 7 389 q-85 0 -368 -2 q-20 0 -27 9 q-11 15 -15 32 q-5 15 10 15 l401 2 q0 146 -1 213 q-2 47 -6 67 l0 2 Z" /><glyph glyph-name="uni4E8F" unicode="&#x4e8f;" d="M279 691 q-28 0 -40 19 q-11 21 -9 26 q2 6 22 6 q70 2 257 4 q157 2 244 5 q25 1 35 -23 q8 -21 4 -28 q-3 -7 -20 -7 q-340 -2 -493 -2 ZM962 476 q7 -26 -21 -25 q-84 5 -576 5 l12 -8 q14 -9 6 -25 q-3 -6 -9 -21 l-9 -26 q-15 -48 -35 -100 q127 2 351 2 q22 0 42 10 q6 5 13 3 q7 0 11 -2 q20 -9 36 -22 q12 -11 4 -24 q-7 -10 -10 -30 q-4 -22 -16 -116 q-12 -82 -21 -130 q-8 -46 -40 -61 q-41 -18 -47 8 q-2 7 -115 43 q-12 5 -11 11 q2 6 15 5 q127 -11 130 1 q19 94 36 249 q-263 2 -441 -3 q-20 0 -15 16 l2 10 q55 150 64 210 l-215 0 q-20 0 -27 9 q-10 16 -14 30 q-6 15 10 15 q716 -3 837 13 q27 4 36 -12 q13 -19 17 -35 Z" /><glyph glyph-name="uni4E91" unicode="&#x4e91;" d="M292 685 q-27 2 -38 21 q-11 20 -8 26 q2 6 21 6 q374 2 474 7 q25 1 34 -24 q14 -34 -16 -36 q-243 -3 -467 0 ZM955 434 q7 -27 -23 -26 q-135 8 -426 6 l8 -9 q12 -16 -2 -37 q-128 -179 -242 -305 q209 22 445 40 q-33 61 -112 187 q-14 22 -7 27 q6 4 25 -11 q126 -99 214 -278 q32 -62 -4 -92 q-27 -22 -50 36 q-14 35 -44 92 q-104 -20 -263 -42 q-153 -23 -210 -34 q-45 -10 -67 -20 q-16 -6 -25 6 q-16 22 -25 55 q-3 13 4 18 q2 2 6 4 q39 16 78 64 q102 125 172 235 q17 25 35 64 l-335 -1 q-21 0 -28 9 q-10 16 -14 31 q-6 16 10 16 q747 3 823 14 q28 4 40 -13 q14 -24 17 -36 Z" /><glyph glyph-name="uni4E92" unicode="&#x4e92;" d="M329 261 q102 2 223 3 q103 1 128 2 l27 211 q-207 2 -327 -2 q-31 -135 -51 -214 ZM408 682 q14 -6 10 -27 l-26 -124 q207 2 295 2 q23 0 38 11 q7 6 17 2 q6 0 10 -3 q18 -8 36 -21 q13 -13 3 -34 q-14 -26 -20 -60 q-6 -35 -52 -373 q148 3 184 8 q30 4 40 -12 q13 -20 18 -38 q7 -28 -22 -25 q-167 14 -816 6 q-20 0 -27 10 q-11 14 -15 31 q-5 16 11 16 l564 4 l17 150 q-179 2 -343 -1 q-23 0 -44 -7 q-16 -5 -27 9 q-10 16 -13 35 q-2 13 3 16 l3 4 q14 10 25 48 q36 139 64 303 q6 36 5 66 l0 6 q-117 0 -185 1 q-18 0 -25 10 q-8 11 -13 28 q-5 16 10 15 q609 -5 733 11 q21 4 31 -10 q12 -17 16 -34 q5 -24 -21 -24 q-73 3 -488 3 l4 -2 Z" /><glyph glyph-name="uni4E94" unicode="&#x4e94;" d="M483 402 q-14 -83 -56 -344 l151 1 q85 0 126 1 q13 237 20 345 l-241 -3 ZM446 571 q8 57 11 101 q-164 0 -268 1 q-18 0 -23 9 q-11 16 -15 30 q-3 15 10 15 q584 -5 699 13 q23 3 33 -12 q13 -22 15 -34 q5 -25 -20 -24 q-67 2 -373 2 q3 -2 7 -6 q10 -7 5 -31 l-8 -38 q-6 -28 -9 -47 l-18 -93 q31 0 212 3 q25 1 33 6 q7 4 12 2 q4 0 11 -2 q23 -8 35 -17 q13 -9 5 -30 q-7 -20 -10 -50 q-6 -53 -25 -308 q109 2 150 6 q31 4 41 -11 q13 -20 18 -37 q7 -27 -22 -24 q-186 15 -850 6 q-20 0 -27 9 q-9 14 -15 30 q-5 16 11 16 q213 2 295 2 q34 230 53 342 l-186 -3 q-18 0 -33 28 q-10 22 -8 27 q2 6 20 5 q67 -1 216 -1 l18 115 Z" /><glyph glyph-name="uni4E95" unicode="&#x4e95;" d="M645 346 l0 214 l-240 0 q0 -51 -1 -79 q-2 -81 -7 -137 l248 2 ZM707 346 q160 2 207 7 q31 2 41 -12 q11 -18 18 -35 q7 -25 -22 -23 q-111 7 -244 8 q0 -59 -2 -194 q-2 -105 -24 -186 q-16 -51 -25 1 q-12 69 -12 179 l1 201 q-159 0 -255 -1 q-36 -246 -239 -382 q-17 -12 -23 -7 q-7 5 7 20 q161 161 190 369 q-105 -2 -225 -3 q-19 0 -27 8 q-9 14 -13 30 q-5 14 10 15 q189 2 263 2 q5 57 7 140 l1 78 l-134 0 q-32 1 -44 21 q-12 21 -10 26 q2 5 24 5 l163 1 q0 78 -6 190 q-1 18 3 22 q3 3 15 1 q27 -6 43 -17 q14 -8 13 -34 q-2 -29 -2 -162 l121 1 q79 0 118 1 l0 80 q-1 68 -5 130 q-2 17 1 20 q3 3 19 -1 q25 -6 39 -14 q14 -8 13 -36 q-2 -55 -2 -102 l-1 -76 l140 3 q27 1 37 -24 q15 -35 -18 -35 l-159 -1 l-2 -214 Z" /><glyph glyph-name="uni4E9A" unicode="&#x4e9a;" d="M242 270 q-24 77 -114 243 q-9 19 -4 23 q5 3 20 -8 q97 -76 153 -214 q19 -52 -10 -74 q-28 -21 -45 30 ZM576 56 l0 297 q1 164 0 234 q-2 62 -7 108 q-99 0 -148 1 l3 -2 q12 -7 11 -32 q-4 -47 -4 -88 q-3 -198 -3 -518 l148 0 ZM355 696 q-58 0 -173 2 q-33 0 -45 21 q-12 20 -9 25 q2 5 24 5 q409 -2 718 8 q28 1 39 -23 q9 -22 5 -29 q-4 -7 -23 -7 q-170 -2 -252 -2 q11 -6 9 -31 q-4 -49 -4 -88 q-5 -339 -6 -520 q230 2 275 7 q32 4 42 -12 q12 -20 18 -38 q7 -28 -22 -25 q-184 17 -849 7 q-20 0 -26 9 q-12 15 -16 31 q-6 17 10 17 q213 2 295 2 l-1 296 q0 158 -1 234 q-1 48 -8 108 l0 3 ZM849 553 q28 -10 46 -24 q13 -10 5 -27 q-107 -183 -206 -261 q-9 -7 -14 -2 q-6 4 1 16 q123 210 134 240 q8 22 13 47 q3 19 21 11 Z" /><glyph glyph-name="uni4E9B" unicode="&#x4e9b;" d="M392 564 q-1 -29 -1 -87 l-1 -95 l132 39 q21 6 25 -2 q4 -9 -12 -18 q-113 -63 -416 -165 q-23 -7 -35 5 q-15 13 -31 43 q-10 21 12 22 q25 0 47 5 l48 11 l-1 167 q0 90 -1 135 q-2 47 -5 71 q-2 19 13 15 q22 -4 45 -14 q12 -5 9 -25 q-2 -31 -2 -55 q-2 -146 -2 -281 q61 16 116 31 l0 362 q0 34 -5 78 q-2 21 14 17 q31 -7 47 -16 q11 -5 10 -25 q-2 -19 -4 -63 l-1 -105 l54 4 q36 1 54 3 q18 1 26 -21 q13 -32 -12 -32 q-37 -2 -119 -4 l-4 0 ZM302 156 q-27 0 -38 20 q-9 18 -7 24 q2 6 19 6 q85 2 234 3 l223 3 q24 1 32 -22 q14 -34 -15 -34 l-448 0 ZM890 24 q13 -22 17 -38 q6 -26 -22 -22 q-141 10 -730 5 q-19 0 -25 8 q-10 15 -14 31 q-5 16 10 16 q682 5 727 11 q28 4 37 -11 ZM962 365 q27 -25 5 -45 q-22 -22 -81 -28 q-91 -9 -196 -1 q-59 5 -86 36 q-26 30 -27 94 q-3 63 0 166 q2 114 2 148 q-2 63 -5 94 q-2 20 18 16 q20 -5 44 -17 q14 -9 10 -27 q-4 -31 -6 -68 q-3 -160 -3 -188 q120 78 193 157 q26 30 37 47 q11 15 23 9 q19 -8 37 -25 q13 -16 -3 -29 q-155 -138 -287 -183 q0 -66 1 -98 q3 -65 60 -69 q85 -7 172 1 q36 4 40 30 l13 73 q4 17 11 17 q6 0 7 -19 q2 -76 21 -91 Z" /><glyph glyph-name="uni4EA4" unicode="&#x4ea4;" d="M507 703 q-21 48 -81 137 q-18 26 13 18 q81 -24 127 -105 q25 -40 -4 -66 q-35 -31 -55 16 ZM128 629 q-10 16 -14 31 q-5 15 10 15 q660 0 740 10 q26 5 35 -11 q11 -15 17 -35 q6 -26 -21 -23 q-84 5 -742 5 q-18 -1 -25 8 ZM600 585 q119 -14 237 -111 q44 -37 27 -74 q-18 -39 -60 2 q-90 88 -212 163 q-17 10 -14 16 q3 6 22 4 ZM127 346 q-11 -5 -15 3 q-3 6 7 14 q129 96 213 194 q17 20 26 35 q11 16 23 5 q25 -19 36 -35 q11 -16 -3 -27 q-167 -151 -287 -189 ZM960 -50 q25 -10 24 -15 q-1 -4 -26 -12 q-13 -3 -29 -13 q-20 -10 -28 -13 q-19 -8 -54 2 q-210 70 -350 209 q-171 -145 -422 -202 q-30 -6 -32 2 q-3 8 25 20 q233 92 384 227 q-55 63 -103 140 q-25 41 -51 65 q-8 7 -10 26 q-3 35 17 23 q39 -27 78 -79 q58 -79 112 -133 q10 8 26 28 q71 76 147 203 q11 19 29 7 q23 -14 36 -32 q12 -13 -3 -33 q-14 -16 -67 -86 q-45 -59 -89 -104 l-30 -30 q102 -89 224 -136 q38 -15 99 -33 q64 -21 93 -31 Z" /><glyph glyph-name="uni4EA7" unicode="&#x4ea7;" d="M730 644 q24 -11 45 -26 q16 -12 4 -27 q-84 -120 -132 -160 q219 3 273 11 q22 2 31 -11 q13 -18 16 -33 q5 -25 -21 -24 q-79 3 -263 3 q-257 -1 -425 1 l-11 0 l-3 -106 q-7 -138 -44 -215 q-38 -78 -132 -142 q-14 -9 -20 -4 q-5 4 5 17 q119 137 129 346 q3 75 -2 155 q-1 23 18 19 q20 -4 39 -14 l5 -3 l168 -2 q-6 7 -11 19 q-19 45 -93 157 q-8 13 -4 17 q3 4 17 -2 q84 -33 136 -126 q20 -38 -4 -65 q111 0 159 2 q83 149 90 166 l11 36 q2 8 4 11 q-354 0 -519 1 q-31 0 -44 20 q-12 19 -10 25 q3 4 25 5 q130 0 374 2 q-8 5 -14 18 q-16 38 -72 120 q-17 26 11 16 q74 -18 118 -91 q21 -36 -5 -60 l-5 -3 q116 1 313 5 q27 0 38 -23 q8 -20 5 -27 q-4 -7 -23 -7 l-177 -1 Z" /><glyph glyph-name="uni4EA9" unicode="&#x4ea9;" d="M531 61 q89 1 243 1 q-1 48 -1 175 q-76 1 -239 1 l-3 -177 ZM479 238 q-147 0 -221 1 q-2 -151 -3 -179 q151 0 223 1 l1 177 ZM480 398 q0 30 -3 61 q-81 0 -220 -2 q2 -98 1 -168 l222 0 l0 109 ZM773 291 q0 119 1 168 l-237 1 l0 -11 q1 -22 0 -63 l-2 -96 l238 1 ZM252 -11 q0 -20 -23 -34 q-28 -15 -33 -2 q-4 14 -4 42 q3 373 0 448 q-2 42 -6 62 q-3 15 -1 17 q3 3 16 1 q19 -5 30 -12 q266 3 508 3 q26 0 44 10 q5 3 9 3 q6 2 17 -1 q12 -5 35 -20 q15 -9 7 -27 q-8 -16 -8 -39 q-4 -170 0 -405 q1 -57 -35 -78 q-24 -13 -27 3 q-4 20 -6 47 q-72 1 -253 0 q-172 -1 -269 1 l-1 -19 ZM550 673 q286 2 369 11 q28 5 37 -11 q13 -17 17 -36 q9 -25 -21 -24 q-65 3 -849 5 q-20 0 -27 9 q-10 13 -14 30 q-5 15 10 15 l444 0 q-8 8 -15 24 q-19 55 -70 139 q-17 29 14 17 q79 -27 120 -110 q21 -43 -10 -66 l-5 -3 Z" /><glyph glyph-name="uni4EAB" unicode="&#x4eab;" d="M482 746 q-14 32 -57 95 q-13 20 10 17 q65 -10 103 -67 q15 -24 4 -47 q113 1 308 5 q26 0 36 -22 q9 -19 5 -26 q-3 -7 -22 -7 q-482 -2 -705 0 q-30 0 -41 19 q-11 19 -9 24 q3 5 23 5 q119 0 346 2 l-1 2 ZM277 478 q90 -1 251 1 l219 0 l0 92 q-295 2 -470 -2 q2 -43 0 -91 ZM723 623 q21 0 38 4 q4 1 12 1 q2 0 4 -1 q3 0 4 -1 q20 -6 30 -13 q11 -7 6 -24 q-3 -10 -5 -29 q-1 -8 -3 -90 q1 -1 5 -12 q6 -19 3 -24 q-3 -6 -20 -6 q-79 1 -252 1 q-178 -1 -271 2 q-4 -9 -20 -14 q-29 -11 -32 -2 q-4 9 -5 25 l-1 71 q0 48 -1 67 q-1 15 -6 32 q-4 11 -2 13 q2 3 15 1 q20 -2 27 -5 l474 4 ZM824 372 q2 -1 4 -5 q12 -17 19 -38 q5 -18 -12 -25 q-237 -94 -295 -110 l9 -17 q316 2 382 9 q27 4 37 -10 q11 -16 16 -34 q7 -24 -19 -23 q-145 8 -405 7 q13 -90 -1 -164 q-9 -42 -35 -61 q-38 -30 -49 3 q-3 9 -106 39 q-16 4 -15 12 q2 9 17 8 q82 -6 100 -5 q16 1 18 10 q14 73 7 158 q-89 0 -406 -2 q-18 0 -26 9 q-8 13 -14 28 q-5 15 11 15 l426 0 q-5 17 -23 50 q-15 26 -10 31 q5 5 30 -12 q17 -11 32 -24 l4 2 q130 59 201 97 q-370 -10 -541 -13 q-19 0 -33 25 q-11 21 -10 27 q2 5 21 4 q295 -1 611 8 q24 1 34 5 q14 6 21 -4 Z" /><glyph glyph-name="uni4EAE" unicode="&#x4eae;" d="M105 695 q-8 11 -13 28 q-5 15 10 15 q226 -2 397 0 q-2 2 -4 6 q-10 23 -64 99 q-16 20 11 17 q75 -10 113 -71 q17 -27 0 -51 q265 2 332 10 q26 3 34 -10 q10 -17 15 -33 q8 -24 -19 -23 q-73 5 -787 5 q-18 0 -25 8 ZM709 576 q-325 0 -406 -2 q0 -48 -3 -97 q85 -1 217 1 l191 1 q0 66 1 97 ZM242 408 q-4 9 -4 26 q0 171 1 151 q0 19 -4 32 q-4 11 -2 14 q2 2 15 1 q15 -2 35 -10 q212 3 401 3 q20 0 35 7 q8 3 14 1 q3 1 10 -1 q21 -6 31 -13 q12 -8 7 -26 q-5 -17 -5 -29 l-3 -92 q3 -4 6 -14 q6 -19 3 -24 q-3 -6 -21 -6 q-69 1 -223 1 q-160 -1 -242 2 q-1 -16 -22 -22 q-29 -9 -32 -1 ZM151 200 q-28 -58 -58 -21 q-19 22 -4 47 q38 67 67 149 q10 31 20 1 q5 -12 6 -24 q201 3 637 5 q29 0 46 8 q1 1 2 1 l2 1 q10 7 26 -4 q24 -19 37 -37 q17 -22 -2 -32 q-22 -12 -28 -17 q-23 -20 -62 -72 q-21 -14 -27 -10 q-6 3 2 29 q3 11 28 79 q-339 3 -651 -3 l-8 0 q-6 -43 -33 -100 ZM970 -17 q22 -18 7 -36 q-20 -20 -70 -23 q-91 -7 -197 -1 q-52 3 -74 22 q-20 20 -22 65 q-1 45 1 144 q-168 0 -240 -2 q-1 -13 -5 -42 q-34 -186 -288 -218 q-17 -2 -19 6 q-1 8 16 14 q111 37 162 83 q51 47 65 123 q6 35 6 95 q0 18 17 14 q23 -4 42 -15 l8 -6 l110 1 q69 0 101 1 q19 0 34 7 q4 3 11 3 q6 0 8 -2 l29 -12 q13 -6 7 -20 q-4 -9 -6 -32 q-3 -83 1 -141 q1 -18 12 -25 q10 -6 40 -7 q92 -4 167 1 q27 2 31 16 l11 42 q6 13 11 13 q6 -1 8 -16 q5 -40 16 -52 Z" /><glyph glyph-name="uni4EBA" unicode="&#x4eba;" d="M469 487 q-147 -346 -388 -524 q-26 -20 -32 -15 q-6 6 16 30 q225 245 339 532 q78 192 101 291 q5 22 25 15 q24 -9 43 -23 q15 -10 8 -31 q-32 -83 -70 -176 q3 -3 11 -22 q107 -256 296 -432 q27 -26 78 -60 q60 -40 80 -56 q15 -11 14 -16 q0 -5 -16 -7 q-13 -3 -33 -12 q-21 -9 -32 -12 q-23 -5 -43 12 q-258 222 -371 565 l-26 -59 Z" /><glyph glyph-name="uni4EBF" unicode="&#x4ebf;" d="M247 470 q18 -11 19 -29 q2 -17 2 -49 q-2 -199 -8 -378 q0 -54 -18 -83 q-20 -32 -36 -1 q-16 30 -13 70 q14 230 8 408 l-3 35 q-57 -63 -148 -140 q-12 -10 -18 -5 q-6 7 3 20 q216 282 282 412 q16 31 30 72 q5 20 21 13 q26 -12 46 -28 q12 -11 3 -29 q-88 -164 -186 -278 l16 -10 ZM979 44 q26 -35 2 -55 q-29 -25 -95 -30 q-202 -14 -375 3 q-90 9 -110 64 q-21 53 23 138 q127 242 354 497 q-231 -6 -340 -8 q-19 0 -32 29 q-10 24 -8 30 q2 6 18 5 q196 -2 377 4 q20 1 33 7 q10 6 16 2 q5 0 10 -6 q23 -18 33 -32 q17 -21 -2 -35 q-35 -25 -71 -63 q-196 -199 -324 -442 q-64 -118 41 -127 q155 -14 339 1 q48 4 52 48 q8 96 14 131 q3 19 11 19 q7 -1 8 -22 q7 -133 26 -158 Z" /><glyph glyph-name="uni4EC0" unicode="&#x4ec0;" d="M251 512 q17 -11 19 -31 q2 -18 2 -53 q-2 -214 -8 -400 q-2 -58 -19 -88 q-21 -34 -36 -1 q-16 32 -13 75 q15 234 9 432 q0 14 -1 21 q-57 -64 -145 -142 q-12 -9 -18 -4 q-7 6 3 18 q220 298 278 406 q14 29 28 72 q7 18 22 11 q21 -8 43 -26 q12 -12 3 -28 q-84 -150 -172 -258 l5 -4 ZM990 469 q6 -24 -20 -23 q-94 7 -278 5 l-6 -352 q-2 -109 -25 -191 q-17 -50 -26 1 q-14 73 -12 184 q2 239 2 358 l-277 -1 q-17 0 -23 9 q-9 15 -15 32 q-4 15 11 15 l304 1 l0 192 q-1 64 -5 134 q-2 18 1 20 q2 3 21 -1 q25 -5 45 -16 q16 -8 13 -35 q-6 -51 -6 -102 q0 -60 -2 -191 q202 2 249 10 q25 4 34 -12 q12 -18 15 -37 Z" /><glyph glyph-name="uni4EC1" unicode="&#x4ec1;" d="M484 595 q-27 0 -37 20 q-11 20 -9 25 q3 7 20 8 q344 5 398 8 q24 1 34 -24 q13 -35 -15 -35 q-170 -4 -391 -2 ZM266 449 q5 -15 7 -52 q5 -194 -4 -380 q-3 -61 -27 -91 q-21 -26 -33 5 q-8 23 -5 68 q9 207 6 400 q-2 42 -4 63 q-62 -72 -146 -144 q-13 -9 -19 -4 q-6 6 4 18 q196 266 261 409 q11 21 27 77 q4 20 21 12 q31 -13 46 -28 q13 -10 4 -28 q-79 -162 -166 -273 l11 -11 q13 -19 17 -41 ZM1000 108 q5 -25 -22 -24 q-116 8 -632 4 q-18 0 -23 10 q-9 11 -15 31 q-4 16 11 16 q571 3 630 11 q25 4 35 -11 q12 -19 16 -37 Z" /><glyph glyph-name="uni4ECA" unicode="&#x4eca;" d="M807 315 q13 -14 21 -33 q6 -15 -9 -22 q-20 -12 -31 -26 q-176 -216 -240 -310 q-18 -27 -43 7 q-14 19 12 54 q54 78 210 272 q-128 -2 -494 -10 q-21 -1 -35 29 q-11 23 -9 29 q1 5 20 4 q271 -2 532 6 q23 1 37 7 q5 3 9 3 q10 3 20 -10 ZM563 371 q-28 -28 -51 12 q-22 39 -107 145 q-10 12 -6 16 q3 5 16 1 q85 -27 146 -112 q26 -35 2 -62 ZM986 435 q28 -14 4 -23 q-15 -5 -31 -18 q-20 -16 -29 -20 q-19 -9 -42 3 q-235 150 -379 359 q-46 -58 -95 -106 q-176 -176 -358 -263 q-23 -10 -27 -3 q-4 7 15 21 q192 142 320 282 q81 89 139 180 q11 18 27 8 q21 -13 34 -25 q13 -13 -1 -30 l-32 -38 q157 -171 306 -258 q27 -15 72 -35 l77 -34 Z" /><glyph glyph-name="uni4ECB" unicode="&#x4ecb;" d="M390 504 q16 -7 13 -28 q-4 -21 -5 -66 l-5 -84 q-14 -165 -73 -257 q-61 -94 -199 -162 q-18 -9 -24 -3 q-6 6 10 18 q108 85 155 171 q51 92 63 236 q6 79 2 173 q0 25 19 20 q24 -6 44 -18 ZM680 531 q13 -6 14 -31 q2 -35 0 -76 q-1 -34 -2 -178 q-1 -121 -3 -206 q-3 -82 -26 -137 q-16 -38 -27 1 q-12 54 -11 132 l2 393 q0 62 -3 97 q-2 15 1 18 q3 3 19 -1 q22 -5 36 -12 ZM536 783 q142 -164 301 -245 q27 -14 73 -32 l79 -29 q30 -12 4 -22 q-14 -6 -31 -19 q-20 -16 -29 -21 q-18 -9 -41 2 q-243 126 -376 339 q-58 -76 -98 -120 q-159 -172 -349 -252 q-23 -9 -27 -1 q-4 8 15 21 q195 130 311 268 q71 85 125 177 q8 19 25 10 q23 -13 34 -24 q13 -13 1 -31 l-17 -21 Z" /><glyph glyph-name="uni4ECE" unicode="&#x4ece;" d="M459 276 q-27 51 -118 158 q-69 -285 -268 -446 q-24 -18 -30 -12 q-7 6 12 30 q181 224 236 524 q33 180 33 270 q0 15 4 18 q4 3 19 0 q25 -5 48 -17 q16 -8 12 -33 q-9 -35 -22 -107 q-17 -101 -25 -142 l-13 -60 q96 -36 161 -135 q27 -40 0 -64 q-27 -26 -49 16 ZM684 494 q61 -232 189 -402 q20 -27 57 -61 q45 -42 58 -56 q12 -12 12 -17 q-1 -4 -17 -5 q-13 -1 -32 -7 q-21 -8 -31 -9 q-23 -3 -36 16 q-154 197 -215 472 q-82 -324 -320 -494 q-27 -20 -33 -14 q-7 7 17 31 q223 241 287 574 q37 192 39 303 q1 15 4 18 q4 3 19 0 q29 -7 47 -18 q16 -9 10 -33 q-10 -41 -23 -122 l-32 -176 Z" /><glyph glyph-name="uni4ED6" unicode="&#x4ed6;" d="M226 490 q17 -11 18 -31 q2 -17 2 -51 q-2 -202 -7 -388 q-2 -56 -20 -86 q-18 -32 -35 -1 q-16 31 -14 73 q16 232 10 419 l-1 20 q-57 -68 -127 -133 q-11 -9 -17 -4 q-7 5 2 18 q200 295 247 396 q13 27 26 74 q6 19 20 12 q30 -13 44 -25 q12 -11 3 -28 q-77 -151 -160 -261 l9 -4 ZM459 441 q-3 -169 2 -307 q3 -112 113 -122 q154 -14 288 4 q62 9 67 41 q14 88 17 95 q4 18 11 17 q6 -1 7 -20 q5 -95 27 -116 q29 -26 1 -50 q-33 -25 -113 -33 q-152 -14 -312 -1 q-162 13 -169 183 q-3 101 1 287 l-75 -24 q-23 -6 -38 18 q-14 24 -13 29 q1 6 17 10 l110 33 q0 56 -1 83 q-2 87 -6 127 q-3 26 19 19 q28 -8 46 -21 q15 -10 11 -31 q-5 -35 -7 -95 l-1 -63 l156 50 q2 127 2 176 q0 64 -3 104 q-1 16 2 18 q2 3 18 -1 q21 -4 37 -13 q13 -7 12 -31 q0 -11 -3 -81 l-3 -151 q101 34 140 48 q21 8 35 24 q9 10 17 10 q8 2 14 -2 q16 -7 34 -21 q14 -11 6 -24 q-8 -18 -10 -34 q-4 -32 -16 -141 q-11 -103 -19 -161 q-7 -48 -37 -63 q-40 -18 -46 5 q-3 11 -71 39 q-12 6 -10 11 q1 6 15 5 q79 -5 80 7 q20 131 33 295 l-166 -57 l-6 -243 q-3 -91 -27 -150 q-15 -41 -24 1 q-11 57 -9 145 l4 225 l-157 -53 Z" /><glyph glyph-name="uni4EE3" unicode="&#x4ee3;" d="M668 750 q-26 23 7 18 q83 -7 156 -76 q31 -31 12 -59 q-23 -33 -53 3 q-35 43 -122 114 ZM275 475 q5 -26 5 -53 q4 -200 -4 -387 q-4 -61 -26 -91 q-22 -28 -33 4 q-9 25 -8 71 q12 208 7 408 q-2 39 -4 58 q-67 -79 -148 -147 q-12 -9 -18 -4 q-7 6 3 19 q184 246 240 383 q13 30 22 71 q6 20 22 13 q24 -10 45 -26 q13 -10 4 -29 q-67 -142 -139 -239 q5 -4 13 -13 q14 -16 19 -38 ZM946 75 q8 15 15 11 q5 -4 1 -20 q-23 -83 -17 -121 q6 -44 -37 -36 q-35 7 -75 38 q-189 134 -257 467 l-212 -46 q-16 -4 -23 3 q-11 15 -16 28 q-7 15 6 17 l234 51 q-16 85 -25 197 q-8 95 -23 163 q-6 26 12 22 q30 -7 49 -17 q17 -8 17 -28 q-2 -41 5 -133 q8 -107 23 -191 q222 51 266 68 q20 8 32 -4 q13 -19 18 -32 q10 -22 -12 -25 q-88 -13 -294 -61 q65 -312 240 -425 q26 -17 36 5 l37 69 Z" /><glyph glyph-name="uni4EE4" unicode="&#x4ee4;" d="M817 350 q18 -17 31 -39 q11 -18 -6 -32 q-193 -178 -286 -244 q33 -19 67 -43 q61 -40 46 -85 q-13 -39 -67 2 q-160 123 -320 210 q-24 13 -21 19 q3 7 28 2 q113 -19 226 -81 q132 125 226 231 q-108 -2 -280 -7 l-255 -8 q-21 0 -35 29 q-13 23 -11 28 q2 6 22 5 q321 0 569 11 q25 1 37 7 q6 2 9 2 q12 2 20 -7 ZM578 393 q-27 -32 -54 10 q-34 54 -116 143 q-10 11 -7 17 q3 5 17 2 q86 -21 154 -106 q29 -38 6 -66 ZM987 442 q16 -7 17 -11 q1 -6 -13 -12 q-15 -6 -33 -18 q-19 -15 -29 -19 q-20 -10 -42 3 q-236 139 -375 350 q-50 -66 -100 -120 q-172 -192 -361 -283 q-23 -11 -28 -4 q-4 8 15 23 q196 149 320 301 q80 95 137 193 q10 20 28 10 q23 -14 35 -25 q14 -14 1 -32 l-25 -33 q143 -165 297 -253 q28 -15 75 -35 q61 -26 81 -35 Z" /><glyph glyph-name="uni4EE5" unicode="&#x4ee5;" d="M508 475 q-42 86 -150 218 q-13 15 -8 20 q4 4 21 -4 q113 -55 186 -179 q29 -48 2 -76 q-28 -29 -51 21 ZM135 96 q13 15 15 46 q13 244 4 498 q-2 41 -7 69 q-4 23 18 21 q26 -4 43 -12 q12 -6 12 -27 q3 -276 -8 -533 q138 116 217 177 q22 19 28 12 q7 -7 -13 -32 q9 11 -229 -251 q-19 -19 -36 -42 q-12 -15 -26 -7 q-23 13 -44 36 q-12 13 -1 22 l27 23 ZM950 33 q40 -49 18 -83 q-20 -35 -57 15 q-88 117 -217 234 q-118 -169 -370 -271 q-30 -13 -34 -5 q-6 7 23 23 q206 118 308 262 q105 145 136 361 q16 99 16 221 q0 17 4 20 q3 5 16 0 q26 -7 43 -18 q15 -8 12 -32 q-5 -26 -11 -92 q-7 -65 -12 -102 q-31 -208 -117 -344 q129 -53 242 -189 Z" /><glyph glyph-name="uni4EEC" unicode="&#x4eec;" d="M232 546 q14 -10 17 -32 q2 -37 1 -56 q-1 -164 -8 -444 q-2 -61 -19 -94 q-19 -36 -34 0 q-16 33 -13 77 q17 259 11 480 q0 12 -2 32 q-58 -68 -129 -131 q-11 -9 -17 -4 q-6 5 2 18 q199 289 236 364 q12 24 25 68 q6 17 21 11 q27 -12 43 -27 q12 -11 3 -27 q-77 -136 -149 -228 l12 -7 ZM439 570 q2 -21 2 -59 q3 -157 -2 -483 q-2 -61 -18 -93 q-19 -37 -34 -1 q-13 37 -12 77 q11 303 4 516 q-1 40 -9 72 q-3 14 0 17 q2 3 14 1 q21 -4 37 -14 q16 -11 18 -33 ZM426 775 q78 -15 136 -91 q27 -35 5 -60 q-27 -32 -51 9 q-25 43 -99 124 q-22 23 9 18 ZM926 743 q16 -12 8 -32 q-9 -21 -10 -54 q-2 -82 -2 -310 q1 -233 -2 -352 q-1 -50 -32 -72 q-34 -27 -46 0 q-3 7 -98 45 q-13 5 -11 10 q1 6 16 6 q68 -2 88 1 q15 2 15 12 q10 328 7 701 q-163 -4 -228 -4 q-14 -1 -25 27 q-8 22 -6 28 q1 5 15 4 q117 -2 232 2 q19 0 27 6 q9 5 15 2 l3 -1 q1 0 2 -1 q13 -6 32 -18 Z" /><glyph glyph-name="uni4EF6" unicode="&#x4ef6;" d="M245 555 q16 -10 17 -32 q2 -37 1 -57 q-1 -167 -8 -451 q-2 -61 -18 -94 q-20 -36 -35 -1 q-16 34 -12 79 q16 263 10 486 l0 12 q-60 -78 -136 -151 q-10 -11 -17 -6 q-7 6 2 19 q188 293 231 389 q10 24 23 73 q4 18 20 13 q28 -12 44 -25 q13 -11 4 -27 q-67 -137 -128 -226 l2 -1 ZM698 324 q199 2 249 8 q26 4 35 -11 q11 -17 16 -37 q5 -24 -22 -23 q-97 7 -279 7 q-1 -83 -3 -172 q-2 -111 -26 -191 q-16 -53 -26 1 q-13 75 -11 184 l2 178 q-66 0 -289 -2 q-16 -1 -23 8 q-10 11 -15 32 q-4 16 10 16 q242 2 317 2 l1 117 q0 76 1 113 q-100 0 -149 1 q-12 0 -17 1 q-49 -86 -119 -153 q-9 -8 -15 -4 q-6 5 1 17 q106 207 126 271 q7 23 11 54 q3 18 20 13 q25 -9 45 -21 q13 -11 6 -27 q-33 -70 -47 -98 l138 1 l0 87 q-1 70 -5 134 q-2 18 1 21 q3 2 20 -2 q24 -4 41 -15 q16 -8 15 -36 q-3 -43 -3 -105 l-1 -83 q123 2 184 5 q24 0 34 -24 q14 -36 -16 -36 q-68 -1 -203 -1 l-4 -230 Z" /><glyph glyph-name="uni4EF7" unicode="&#x4ef7;" d="M252 486 q5 -26 5 -55 q6 -213 -3 -411 q-3 -65 -26 -95 q-20 -25 -31 6 q-8 19 -6 70 q10 197 6 432 q-2 39 -4 60 q-61 -73 -142 -146 q-11 -10 -17 -5 q-7 6 2 19 q200 287 249 390 q12 26 26 71 q5 18 20 12 q26 -9 44 -26 q12 -10 4 -27 q-71 -140 -152 -246 l6 -8 q13 -17 19 -41 ZM529 492 q15 -7 12 -27 l-3 -66 q-1 -53 -3 -87 q-9 -155 -56 -242 q-49 -88 -162 -156 q-16 -9 -21 -4 q-6 6 6 18 q86 82 123 163 q39 85 47 223 q5 75 0 175 q-1 23 18 18 q22 -5 39 -15 ZM781 240 q-1 -116 -4 -200 q-1 -76 -25 -132 q-16 -37 -26 1 q-12 51 -11 126 q2 254 2 382 q0 58 -3 92 q-1 16 2 19 q2 2 19 -1 q17 -4 33 -13 q14 -6 15 -29 l-2 -245 ZM657 767 q86 -142 212 -238 q21 -17 59 -37 q47 -25 63 -35 q23 -14 0 -20 q-14 -4 -31 -14 q-19 -11 -29 -14 q-18 -6 -36 7 q-175 136 -259 319 q-19 -33 -61 -93 q-125 -173 -260 -264 q-20 -13 -24 -7 q-5 6 9 23 q141 153 219 277 q70 112 92 167 q7 17 24 11 q24 -10 38 -20 q16 -12 4 -30 l-20 -32 Z" /><glyph glyph-name="uni4EFB" unicode="&#x4efb;" d="M241 517 q17 -12 18 -32 q2 -19 2 -54 q-6 -322 -9 -412 q-2 -59 -19 -90 q-19 -34 -36 -1 q-16 29 -14 76 q19 248 12 445 l0 11 q-60 -68 -134 -137 q-12 -10 -18 -5 q-7 5 2 18 q205 291 259 404 q10 20 27 73 q4 19 20 13 q26 -10 43 -26 q14 -10 4 -27 q-75 -148 -157 -256 ZM676 411 q213 2 274 9 q23 4 33 -10 q11 -19 15 -35 q5 -24 -21 -23 q-79 4 -302 4 q-4 -177 -5 -317 q78 1 225 1 q26 0 35 -23 q14 -35 -16 -35 q-238 5 -520 0 q-29 0 -42 20 q-11 20 -8 26 q2 5 22 6 q80 3 242 5 q2 95 5 317 l-270 0 q-16 0 -22 8 q-9 12 -14 31 q-4 15 11 15 q210 0 296 1 q1 55 1 152 q0 48 -6 106 l0 1 q-111 -18 -219 -17 q-23 0 -23 9 q0 9 23 13 q180 33 329 78 q79 25 138 55 q18 9 28 -4 q16 -20 24 -42 q10 -20 -17 -25 q-5 -1 -62 -19 q-46 -14 -86 -22 q-69 -15 -86 -18 l17 -9 q12 -7 10 -31 q-4 -33 -6 -87 l-3 -140 Z" /><glyph glyph-name="uni4EFD" unicode="&#x4efd;" d="M259 487 q5 -26 6 -56 q4 -220 -4 -405 q-1 -60 -26 -94 q-20 -27 -33 5 q-9 25 -6 72 q11 220 6 425 q-2 46 -7 65 q-52 -63 -129 -138 q-11 -10 -17 -5 q-7 5 1 18 q203 310 235 378 q11 21 24 69 q6 18 21 12 q23 -9 43 -25 q13 -10 4 -27 q-74 -141 -152 -243 q4 -3 13 -11 q16 -18 21 -40 ZM577 735 q-101 -239 -257 -361 q-12 -8 -17 -3 q-6 5 3 18 q145 193 188 321 q9 24 15 63 q4 18 20 12 q27 -10 42 -23 q14 -10 6 -27 ZM439 384 q-16 0 -27 28 q-10 23 -9 28 q3 5 17 4 q164 -2 329 4 q18 0 29 7 q3 2 10 2 q6 1 13 -2 q17 -7 36 -21 q14 -11 6 -26 q-8 -19 -9 -38 l-10 -176 q-7 -125 -13 -200 q-5 -48 -35 -65 q-38 -23 -47 3 q-3 7 -98 41 q-12 5 -11 10 q1 6 15 5 q107 -5 108 9 q15 176 22 395 l-160 -3 l4 -4 q15 -9 11 -27 l-17 -81 q-30 -139 -85 -219 q-59 -88 -180 -153 q-17 -8 -23 -2 q-4 6 11 19 q169 141 212 362 q9 43 11 101 l0 1 l-110 -2 ZM994 444 q16 -13 14 -18 q-1 -4 -21 -6 q-12 -1 -29 -6 q-20 -7 -28 -9 q-21 -2 -36 14 q-154 160 -210 331 q-9 31 -25 50 q-8 10 -2 31 q10 27 24 12 q24 -22 44 -69 q66 -148 169 -244 q19 -18 53 -46 l47 -40 Z" /><glyph glyph-name="uni4EFF" unicode="&#x4eff;" d="M648 688 q-23 51 -94 142 q-9 11 -5 16 q3 4 16 0 q84 -25 137 -109 q24 -40 -2 -65 q-31 -28 -52 16 ZM243 531 q17 -18 21 -42 q5 -22 5 -60 q3 -162 -3 -409 q-3 -67 -24 -100 q-20 -29 -34 5 q-12 28 -9 79 q11 221 6 434 q0 28 -5 54 q-58 -63 -138 -128 q-12 -9 -18 -3 q-6 5 4 17 q65 82 130 172 q-6 16 8 14 q77 108 119 192 q11 21 27 70 q6 18 21 11 q26 -11 44 -28 q14 -11 5 -29 q-83 -148 -163 -245 l4 -4 ZM592 404 l101 1 q63 0 94 1 q20 0 35 8 l6 2 q8 3 15 -1 q21 -9 35 -21 q14 -12 6 -26 q-9 -16 -10 -35 q-6 -39 -16 -158 q-11 -115 -19 -179 q-7 -48 -39 -64 q-38 -20 -46 5 q-3 7 -107 43 q-12 4 -11 10 q2 6 15 5 q118 -8 119 5 q20 150 34 347 q-133 2 -221 -1 q-52 -284 -262 -431 q-18 -12 -24 -7 q-6 6 8 21 q185 192 223 510 q9 64 9 127 l-177 0 q-18 0 -23 8 q-8 12 -13 31 q-4 15 10 15 q557 2 620 10 q24 4 34 -11 q12 -17 15 -35 q5 -23 -21 -22 q-74 5 -371 5 l-19 -163 Z" /><glyph glyph-name="uni4F0A" unicode="&#x4f0a;" d="M227 519 q17 -12 18 -32 q2 -19 2 -53 q0 -130 -7 -407 q-2 -60 -19 -89 q-20 -33 -36 0 q-15 31 -14 75 q16 240 10 439 q0 17 -1 26 q-60 -71 -130 -136 q-12 -10 -18 -5 q-7 6 2 20 q199 293 246 396 q13 27 26 74 q6 18 21 12 q24 -8 45 -26 q13 -12 4 -28 q-77 -152 -160 -261 q5 -1 11 -5 ZM796 334 l1 163 l-210 0 q-7 -90 -21 -164 l230 1 ZM801 711 l-121 -2 q-81 -2 -115 -2 q11 -4 23 -11 q16 -7 12 -32 q-2 -18 -9 -113 q94 0 207 2 l3 158 ZM429 705 q-16 0 -28 27 q-8 21 -7 26 q2 5 16 4 q174 -3 372 3 q19 0 29 7 q7 2 9 2 q6 2 17 -1 q23 -8 37 -18 q13 -8 5 -32 q-9 -26 -10 -54 l-6 -114 q69 4 93 8 q21 4 31 -11 q10 -15 15 -34 q5 -25 -21 -24 l-120 3 q-2 -116 -5 -169 q4 -4 9 -17 q7 -24 4 -29 q-4 -6 -24 -6 q-91 2 -291 2 q-53 -223 -227 -366 q-16 -13 -22 -9 q-8 5 6 21 q131 156 178 353 q-88 0 -132 1 q-27 1 -33 21 q-7 23 -4 28 q2 6 21 6 q81 -1 159 0 q14 74 22 164 q-111 0 -174 1 q-18 0 -23 8 q-8 13 -13 31 q-5 15 9 15 q74 -1 205 -1 q4 77 3 141 q0 11 1 14 l-101 -1 Z" /><glyph glyph-name="uni4F17" unicode="&#x4f17;" d="M120 401 q-22 -7 -25 0 q-4 8 15 18 q190 112 281 247 q62 91 94 175 q7 19 25 10 q22 -9 38 -22 q13 -13 2 -32 q6 9 -42 -70 q128 -142 271 -197 q29 -11 80 -23 q63 -14 82 -20 q31 -9 5 -22 q-13 -7 -28 -21 q-18 -17 -26 -22 q-16 -10 -39 -2 q-238 86 -364 277 q-15 -25 -43 -64 q-126 -170 -326 -232 ZM454 128 q-34 42 -127 128 q-76 -189 -267 -301 q-15 -8 -19 -2 q-5 6 8 19 q205 185 251 413 q8 37 10 84 q1 19 20 14 q28 -11 40 -21 q13 -8 8 -28 q-18 -87 -43 -157 q86 -19 159 -96 q30 -31 10 -60 q-23 -29 -50 7 ZM986 -12 q24 -14 -1 -19 q-14 -3 -31 -14 q-20 -11 -30 -14 q-20 -5 -35 8 q-162 121 -231 309 q-70 -207 -274 -321 q-15 -8 -20 -2 q-4 6 10 19 q213 187 251 439 q5 28 7 91 q0 20 19 13 q26 -8 40 -18 q13 -9 10 -30 q-10 -71 -29 -141 q74 -156 192 -248 q22 -17 60 -37 q47 -25 62 -35 Z" /><glyph glyph-name="uni4F18" unicode="&#x4f18;" d="M777 636 q-25 42 -95 123 q-9 10 -6 15 q3 4 16 1 q75 -18 130 -92 q24 -34 2 -57 q-26 -29 -47 10 ZM238 506 q15 -10 18 -30 q2 -34 1 -53 q-2 -198 -7 -392 q-1 -56 -19 -88 q-20 -32 -36 0 q-15 29 -13 74 q16 232 10 425 l-1 20 q-66 -78 -139 -143 q-12 -9 -18 -4 q-6 5 3 18 q203 289 254 398 q17 33 27 72 q5 18 20 12 q24 -10 43 -25 q14 -11 4 -28 q-82 -155 -155 -251 l8 -5 ZM588 553 q256 0 324 10 q22 4 31 -11 q11 -15 16 -34 q4 -26 -22 -23 q-99 5 -353 3 q-18 -215 -80 -344 q-64 -133 -206 -237 q-19 -13 -25 -9 q-6 5 9 22 q206 217 236 568 l-182 0 q-15 0 -22 8 q-8 13 -14 31 q-4 15 11 15 l212 0 l1 16 q6 107 2 256 q-1 17 3 21 q3 3 15 0 q30 -8 43 -16 q15 -7 12 -35 q-3 -29 -5 -100 q-2 -81 -5 -128 l-1 -13 ZM966 17 q27 -26 6 -44 q-21 -20 -74 -26 q-77 -8 -161 0 q-55 4 -77 31 q-25 28 -26 87 q-2 56 0 151 q2 106 2 137 q-2 57 -4 85 q-1 20 17 16 q22 -5 44 -16 q14 -10 11 -26 q-5 -28 -6 -62 q-5 -191 -2 -283 q3 -56 48 -60 q81 -6 140 2 q31 3 33 27 l5 47 q3 31 7 50 q2 16 9 15 q8 0 9 -19 q3 -96 19 -112 Z" /><glyph glyph-name="uni4F19" unicode="&#x4f19;" d="M738 358 q-9 -7 -14 -2 q-6 5 1 16 q114 182 128 215 q2 4 15 42 q4 19 20 10 q26 -11 44 -27 q14 -13 3 -27 q-122 -173 -197 -227 ZM350 588 q-9 17 -4 21 q4 4 20 -5 q91 -56 148 -178 q24 -48 -8 -70 q-30 -24 -48 24 q-23 62 -108 208 ZM234 501 q13 -18 17 -40 q3 -16 5 -53 q4 -207 -4 -397 q-3 -63 -27 -95 q-20 -27 -32 6 q-11 28 -7 71 q11 192 7 420 q0 18 -2 44 q-57 -64 -131 -132 q-12 -10 -18 -5 q-7 6 2 19 q195 277 255 409 q17 36 27 76 q5 19 21 13 q29 -12 46 -27 q14 -11 4 -28 q-80 -167 -167 -277 l4 -4 ZM984 -44 q22 -18 -4 -21 q-13 -1 -32 -9 q-21 -9 -32 -11 q-21 -4 -37 15 q-171 166 -240 410 q-60 -282 -329 -427 q-22 -12 -28 -6 q-6 5 13 21 q153 120 219 254 q69 137 82 362 q8 146 1 276 q-1 18 3 22 q4 3 19 0 q25 -7 45 -17 q15 -9 12 -35 q-3 -32 -5 -109 q-2 -88 -5 -139 q-5 -77 -14 -133 q68 -208 206 -351 q23 -24 63 -53 q49 -36 63 -49 Z" /><glyph glyph-name="uni4F1A" unicode="&#x4f1a;" d="M150 258 q-19 0 -25 10 q-9 11 -14 31 q-5 16 10 16 q677 5 726 11 q28 4 38 -11 q13 -20 16 -37 q5 -26 -21 -25 q-108 9 -399 9 q4 -4 7 -9 q4 -6 6 -8 q10 -15 -5 -32 q-96 -103 -192 -184 q184 16 397 27 q-32 42 -102 122 q-14 16 -9 21 q5 4 24 -4 q130 -57 214 -190 q33 -53 4 -84 q-28 -30 -57 22 q-23 44 -48 78 q-103 -16 -249 -34 q-148 -17 -197 -24 q-32 -6 -58 -17 q-15 -8 -23 5 q-14 20 -22 50 q-5 16 9 18 q40 12 70 42 q83 78 146 154 q19 25 31 46 l-277 -3 ZM321 432 q-26 -1 -37 19 q-10 19 -8 26 q2 6 19 7 q47 2 200 6 q120 4 189 7 q24 1 33 -22 q14 -35 -14 -36 l-382 -7 ZM979 480 q28 -13 4 -23 q-14 -6 -30 -19 q-19 -16 -27 -20 q-20 -10 -41 2 q-229 132 -375 325 q-51 -62 -97 -106 q-176 -167 -347 -240 q-23 -10 -27 -2 q-4 7 15 20 q183 127 310 262 q74 81 133 169 q11 18 27 7 q23 -14 34 -27 q14 -15 -2 -31 l-25 -29 q155 -149 303 -227 l145 -61 Z" /><glyph glyph-name="uni4F1F" unicode="&#x4f1f;" d="M615 319 q156 2 218 4 q24 0 36 6 q6 3 13 3 q5 1 13 -2 q21 -10 34 -20 q13 -11 5 -23 q-6 -9 -9 -25 q-6 -29 -16 -96 q-11 -72 -17 -106 q-8 -45 -38 -56 q-41 -17 -47 7 q-1 7 -73 37 q-12 5 -10 11 q1 5 14 4 q82 -7 85 3 q14 69 32 199 l-241 -4 l-3 -159 q-3 -115 -27 -191 q-17 -51 -26 1 q-13 75 -11 184 l3 164 l-191 -4 q-20 -1 -34 29 q-12 24 -10 29 q2 6 21 5 q67 -1 214 -1 l1 132 l-134 0 q-27 0 -37 19 q-10 20 -8 25 q2 6 19 6 l161 3 l1 123 l-176 0 q-15 0 -20 8 q-9 14 -12 30 q-1 2 -1 6 q-52 -83 -109 -151 l5 -3 q16 -11 17 -31 q2 -19 2 -53 q-2 -221 -7 -416 q-2 -57 -19 -88 q-19 -34 -34 -1 q-16 31 -14 74 q17 243 11 448 q0 8 -3 22 q-51 -56 -123 -119 q-12 -10 -18 -4 q-6 5 3 18 q199 267 254 378 q16 31 27 68 q4 18 20 12 q30 -14 43 -26 q13 -11 3 -28 q-18 -35 -53 -92 l204 0 l0 24 q0 78 -5 134 q-1 18 2 20 q2 4 20 -1 q25 -6 45 -16 q16 -9 13 -36 q-5 -49 -5 -103 l0 -22 q193 2 248 10 q20 4 28 -11 q11 -15 14 -32 q4 -23 -19 -22 q-52 3 -273 3 l-2 -123 l210 3 q23 1 32 -22 q13 -34 -15 -34 l-228 0 l-3 -131 Z" /><glyph glyph-name="uni4F20" unicode="&#x4f20;" d="M240 488 q16 -10 17 -30 q2 -17 2 -50 l-8 -383 q-2 -54 -18 -85 q-19 -30 -35 0 q-16 28 -14 72 q18 229 12 413 l-1 13 q-59 -69 -131 -138 q-12 -10 -18 -5 q-7 5 3 19 q214 307 271 431 q16 34 27 78 q5 19 21 13 q29 -12 44 -26 q14 -9 4 -27 q-82 -168 -179 -294 l3 -1 ZM585 494 q291 2 357 11 q23 2 32 -11 q10 -15 15 -35 q4 -24 -20 -23 q-78 4 -400 4 l-37 -128 q93 3 252 3 q22 0 36 6 q12 8 25 0 q20 -14 33 -30 q13 -13 1 -27 q-103 -136 -195 -226 q35 -22 73 -53 q49 -38 35 -77 q-14 -34 -59 6 q-145 125 -290 212 q-21 14 -18 20 q3 5 27 0 q98 -24 197 -85 l136 193 q-146 1 -294 -3 q-6 0 -8 1 l-2 0 q-28 -2 -19 30 q19 64 46 158 l-173 0 q-17 0 -23 8 q-9 12 -14 31 q-4 15 10 15 l216 0 l35 129 q-90 0 -134 1 q-28 1 -37 21 q-10 18 -8 24 q2 6 19 6 l174 1 q21 79 34 158 q3 15 7 17 q5 2 19 -4 q18 -7 34 -21 q12 -11 6 -31 l-37 -119 q162 2 240 5 q23 1 32 -22 q8 -21 4 -28 q-3 -6 -19 -6 q-92 -2 -271 -2 l-37 -129 Z" /><glyph glyph-name="uni4F2A" unicode="&#x4f2a;" d="M380 747 q-17 22 10 17 q77 -16 128 -88 q26 -34 2 -59 q-27 -30 -50 10 q-24 46 -90 120 ZM258 535 q16 -10 19 -33 q2 -36 1 -56 q-4 -223 -9 -434 q-3 -64 -21 -96 q-18 -33 -36 0 q-15 32 -12 80 q19 270 12 469 q0 11 -2 31 q-61 -82 -152 -168 q-12 -10 -19 -5 q-7 5 2 19 q189 282 243 408 q14 36 23 77 q6 19 22 13 q28 -10 46 -24 q14 -12 5 -29 q-65 -143 -135 -244 l13 -8 ZM371 503 q-21 0 -35 29 q-11 23 -9 29 q2 6 20 5 q71 -1 227 -1 l5 54 q9 106 7 219 q-1 18 3 23 q3 4 16 0 q29 -8 47 -18 q15 -7 12 -36 q-3 -29 -7 -88 l-9 -103 q-1 -18 -5 -50 q150 2 211 4 q23 1 36 7 q4 2 6 2 q8 3 17 -1 q21 -10 35 -24 q16 -12 7 -29 q-10 -21 -13 -46 q-5 -47 -19 -225 q-13 -160 -25 -254 q-6 -54 -40 -73 q-38 -24 -48 4 q-3 9 -100 49 q-12 4 -11 10 q2 6 16 5 q74 -5 94 -3 q17 2 18 12 q27 223 45 508 l-235 -4 q-11 -88 -33 -175 q7 0 11 -1 q83 -21 147 -102 q28 -36 4 -62 q-26 -29 -51 11 q-23 34 -111 136 l-4 4 q-67 -256 -275 -415 q-20 -15 -26 -10 q-7 4 9 21 q209 230 259 592 l-196 -4 Z" /><glyph glyph-name="uni4F30" unicode="&#x4f30;" d="M239 535 q13 -18 19 -44 q4 -23 6 -57 q5 -210 -4 -440 q-3 -67 -27 -100 q-20 -27 -33 6 q-8 26 -5 76 q10 210 6 460 q0 34 -4 56 q-63 -75 -136 -140 q-12 -10 -18 -4 q-6 5 3 18 q93 135 135 201 q0 3 3 4 q68 105 103 179 q13 27 25 72 q7 18 22 12 q28 -11 45 -28 q13 -10 3 -28 q-79 -146 -147 -238 l4 -5 ZM796 294 q-196 2 -328 -1 q2 -118 -3 -259 q71 -1 175 0 l156 1 q-2 136 0 259 ZM670 614 q208 2 259 8 q24 4 34 -11 q12 -19 15 -36 q5 -25 -21 -24 q-107 8 -288 6 l-5 -208 l109 0 q21 0 36 7 l2 1 q7 4 21 1 q22 -6 35 -16 q14 -8 7 -28 q-6 -17 -8 -44 l-8 -246 q1 -1 5 -12 q8 -22 4 -27 q-4 -6 -21 -6 q-59 1 -186 1 q-131 -1 -197 1 l-2 -33 q0 -19 -23 -29 q-29 -15 -32 -3 q-5 15 -4 37 q3 305 2 336 q-2 34 -7 51 q-3 14 -1 17 q3 2 17 0 q17 -3 31 -10 q53 1 157 1 q2 151 2 209 q-58 0 -247 -2 q-15 0 -22 9 q-10 17 -13 32 q-5 16 9 16 l146 1 q86 0 128 1 q1 50 1 135 q-2 58 -5 87 q-2 14 1 17 q3 3 16 0 q29 -6 49 -16 q12 -6 11 -29 q-2 -19 -4 -69 l-3 -125 Z" /><glyph glyph-name="uni4F34" unicode="&#x4f34;" d="M722 539 q-9 -5 -14 0 q-4 5 3 14 q114 161 120 170 q7 14 13 33 q5 16 20 8 q29 -15 41 -27 q16 -13 2 -26 q-110 -128 -185 -172 ZM498 565 q-25 48 -113 155 q-10 14 -6 18 q3 4 17 -1 q90 -33 152 -124 q26 -38 0 -64 q-28 -26 -50 16 ZM238 500 q16 -10 17 -30 q2 -32 1 -49 q-2 -203 -7 -396 q-2 -55 -19 -82 q-17 -31 -32 0 q-16 30 -13 69 q16 228 11 426 l-3 33 q-60 -74 -129 -139 q-11 -10 -17 -5 q-7 5 2 19 q186 279 232 389 q10 23 23 72 q4 19 20 13 q26 -10 44 -24 q13 -10 4 -28 q-72 -153 -151 -260 q6 -2 17 -8 ZM670 262 q226 2 270 7 q27 4 36 -12 q12 -18 15 -35 q6 -25 -20 -22 q-98 8 -302 8 l-1 -104 q-2 -109 -26 -189 q-16 -50 -25 1 q-14 68 -14 182 l1 109 q-120 0 -278 -3 q-18 0 -24 8 q-7 12 -13 31 q-4 15 10 15 l305 4 l0 157 l-211 0 q-26 0 -38 20 q-10 18 -8 24 q2 5 21 6 q119 2 236 3 q0 156 -1 226 q0 48 -5 132 q-2 18 1 20 q2 3 21 -1 q24 -6 43 -15 q15 -8 13 -36 q-3 -43 -3 -102 q-1 -37 -1 -110 l-1 -112 q148 2 219 5 q24 0 34 -23 q14 -35 -16 -35 l-119 -1 q-79 0 -118 -1 l-1 -157 Z" /><glyph glyph-name="uni4F3C" unicode="&#x4f3c;" d="M626 584 q-38 62 -143 178 q-13 14 -9 19 q4 5 20 -1 q105 -37 179 -140 q32 -41 6 -70 q-26 -30 -53 14 ZM224 532 q15 -10 18 -32 q2 -18 2 -54 q-2 -217 -7 -412 q-2 -58 -20 -90 q-20 -34 -35 0 q-17 32 -14 75 q16 249 10 445 q0 8 -3 23 q-56 -68 -124 -130 q-11 -9 -17 -4 q-7 5 1 17 q187 276 231 371 q14 29 23 67 q5 19 21 13 q23 -10 43 -25 q13 -10 4 -28 q-68 -132 -142 -231 l9 -5 ZM613 300 q-35 -46 -91 -102 q-79 -78 -88 -88 q-15 -15 -30 -38 q-11 -15 -26 -7 q-18 11 -44 37 q-5 5 -5 10 q-6 9 7 16 q33 20 34 56 q11 199 3 394 q-1 32 -6 58 q-4 23 16 21 q24 -1 44 -10 q12 -6 13 -26 q1 -223 -9 -424 q132 101 164 125 q25 17 31 10 q6 -7 -13 -32 ZM975 34 q30 -50 2 -80 q-25 -25 -52 25 q-40 76 -164 251 q-88 -179 -266 -301 q-23 -16 -29 -10 q-6 5 14 23 q256 249 320 685 q12 83 14 180 q0 18 5 22 q3 3 16 0 q29 -9 45 -19 q15 -9 11 -34 l-20 -151 q-36 -230 -99 -372 q113 -70 203 -219 Z" /><glyph glyph-name="uni4F46" unicode="&#x4f46;" d="M828 695 q-239 2 -338 0 q2 -105 2 -190 q63 -1 178 1 l156 0 l1 100 q0 61 1 89 ZM827 250 q-1 50 -1 204 q-53 1 -164 1 q-114 -1 -171 0 q0 -111 -3 -206 l181 1 q104 1 156 0 l2 0 ZM427 678 q-2 44 -6 64 q-3 14 -1 16 q2 3 15 0 q17 -3 30 -11 q119 2 337 2 q22 0 37 9 q4 2 6 2 q5 3 14 -1 q19 -8 33 -18 q12 -8 6 -26 q-7 -15 -7 -37 q-5 -209 -1 -434 q1 -53 -33 -74 q-21 -13 -24 3 q-2 9 -4 23 q-54 1 -168 1 q-116 -1 -175 0 q0 -21 -22 -35 q-27 -16 -31 -2 q-5 17 -5 43 q3 391 -1 475 ZM257 495 q4 -21 4 -56 q2 -231 -5 -430 q-3 -63 -24 -98 q-21 -30 -34 4 q-11 27 -9 76 q13 230 8 457 q0 17 -2 48 q-56 -68 -140 -140 q-12 -9 -18 -4 q-6 5 3 18 q187 261 239 383 q15 36 23 72 q4 18 22 12 q24 -9 45 -26 q13 -10 5 -28 q-71 -146 -143 -242 q6 -4 8 -7 q14 -14 18 -39 ZM994 0 q5 -24 -21 -21 q-140 12 -624 4 q-16 0 -22 8 q-10 16 -13 32 q-5 16 10 16 q598 8 619 11 q27 3 35 -13 q12 -18 16 -37 Z" /><glyph glyph-name="uni4F4D" unicode="&#x4f4d;" d="M638 658 q-22 58 -83 160 q-8 13 -4 17 q4 4 17 -2 q80 -35 125 -129 q22 -43 -6 -65 q-32 -26 -49 19 ZM357 588 q-11 20 -8 26 q2 5 22 6 q387 0 530 6 q26 1 35 -23 q8 -21 5 -28 q-3 -7 -20 -7 q-301 -5 -524 -1 q-29 1 -40 21 ZM407 471 q-10 23 -3 27 q6 3 21 -14 q96 -111 151 -292 q17 -63 -19 -82 q-29 -15 -41 43 q-18 79 -109 318 ZM228 511 q14 -17 20 -42 q6 -22 6 -55 q6 -190 -3 -409 q-3 -64 -28 -96 q-21 -25 -31 6 q-9 24 -6 72 q10 203 6 427 q-2 38 -5 58 q-55 -61 -123 -120 q-12 -10 -18 -4 q-7 6 3 18 q81 113 123 175 q0 4 5 6 q90 132 131 217 q17 34 27 73 q6 18 21 12 q28 -11 45 -27 q14 -11 5 -29 q-87 -165 -182 -277 l4 -5 ZM994 23 q6 -25 -20 -24 q-118 9 -645 6 q-17 0 -23 8 q-8 12 -13 30 q-5 16 10 16 l334 1 q133 322 145 364 q10 31 16 79 q3 20 19 16 q28 -9 45 -20 q14 -8 7 -27 q-85 -241 -199 -412 q228 3 275 9 q25 2 35 -11 q11 -20 14 -35 Z" /><glyph glyph-name="uni4F4E" unicode="&#x4f4e;" d="M332 806 q13 -10 6 -27 q-65 -146 -129 -241 l12 -15 q12 -19 18 -43 q5 -26 5 -56 q6 -193 -3 -420 q-3 -66 -27 -97 q-20 -26 -30 6 q-9 24 -6 72 q10 210 6 440 q-2 47 -5 70 q-55 -76 -124 -146 q-10 -11 -17 -7 q-6 6 2 19 q171 287 208 382 q12 30 21 73 q4 19 20 13 q29 -11 43 -23 ZM592 92 q80 -24 134 -101 q25 -33 0 -57 q-26 -27 -47 13 q-16 28 -97 129 q-8 10 -5 16 q3 4 15 0 ZM452 457 q151 2 202 2 q-5 31 -9 94 q-5 81 -14 138 q-4 16 -2 10 q-84 -14 -177 -18 q1 -116 0 -226 ZM971 64 q7 11 12 8 q6 -3 2 -18 q-17 -66 -14 -100 q4 -42 -37 -33 q-28 6 -64 35 q-165 136 -210 451 q-49 0 -209 -2 q-1 -130 -10 -347 q60 39 134 84 q23 14 28 7 q7 -7 -13 -29 q-31 -35 -81 -77 q-63 -53 -78 -66 q-10 -10 -28 -31 q-12 -14 -24 -5 q-18 13 -36 36 q-6 6 -4 12 q-3 8 8 15 q33 22 34 66 q13 297 4 563 q0 29 -6 76 q-2 13 1 17 q3 4 17 2 q24 -3 42 -11 q7 -3 9 -7 q180 34 296 80 q32 12 66 31 q16 8 27 0 q21 -17 36 -36 q13 -20 -10 -27 q-108 -32 -201 -51 q15 -5 27 -11 q18 -9 17 -28 q-3 -39 0 -108 q4 -67 7 -101 q155 2 179 5 q24 3 31 -10 q12 -18 13 -34 q4 -21 -19 -20 q-69 7 -198 7 q42 -292 191 -398 q22 -16 31 1 q16 31 30 54 Z" /><glyph glyph-name="uni4F4F" unicode="&#x4f4f;" d="M611 674 q-30 63 -91 146 q-21 26 12 17 q81 -24 134 -110 q24 -42 -1 -67 q-15 -14 -29 -10 q-15 4 -25 24 ZM248 528 q15 -10 18 -32 q2 -19 2 -55 q-2 -227 -7 -424 q-2 -61 -19 -92 q-21 -35 -36 -1 q-16 33 -13 77 q15 255 9 458 q0 9 -2 26 q-67 -67 -142 -125 q-12 -9 -18 -3 q-6 6 4 18 q221 279 282 381 q16 28 30 67 q7 17 22 10 q27 -11 44 -29 q12 -11 3 -28 q-96 -152 -181 -245 l4 -3 ZM658 367 q125 2 186 4 q24 0 33 -23 q14 -36 -16 -36 l-204 -1 l-3 -273 q226 2 269 7 q26 5 36 -11 q12 -17 15 -37 q5 -23 -21 -22 q-127 10 -611 5 q-17 0 -23 7 q-9 12 -14 32 q-4 16 11 16 q204 2 274 2 q0 112 2 274 l-159 1 q-27 0 -38 20 q-10 21 -8 26 q2 6 20 7 l93 1 q61 0 92 1 l0 104 q0 49 -6 95 l-1 8 q-121 0 -195 1 q-15 0 -20 8 q-10 13 -13 31 q-5 15 9 15 q448 -5 538 10 q20 2 29 -11 q11 -16 14 -34 q5 -23 -20 -22 q-49 2 -290 2 l17 -7 q12 -6 11 -30 q-3 -20 -5 -76 l-2 -94 Z" /><glyph glyph-name="uni4F53" unicode="&#x4f53;" d="M215 535 q17 -10 18 -31 q2 -18 2 -53 l-8 -416 q-2 -57 -20 -89 q-18 -32 -35 0 q-15 32 -12 75 q17 251 11 447 l-1 20 q-51 -57 -115 -113 q-11 -9 -17 -4 q-6 6 2 19 q183 258 229 357 q13 28 22 65 q5 18 21 12 q27 -11 43 -25 q13 -9 4 -26 q-73 -142 -147 -236 l3 -2 ZM638 616 q208 3 251 9 q23 2 32 -11 q11 -20 14 -35 q6 -24 -20 -23 q-81 6 -248 6 q75 -179 209 -315 q20 -21 58 -48 q45 -33 61 -46 q12 -11 12 -15 q0 -4 -14 -6 q-15 -3 -33 -12 q-21 -9 -31 -11 q-21 -4 -37 12 q-179 184 -255 433 q-4 -197 -5 -355 q48 0 136 2 q22 1 30 -22 q13 -34 -14 -34 l-152 0 l0 -124 q0 -67 -18 -108 q-12 -24 -20 -24 q-8 0 -16 23 q-19 47 -16 107 l4 126 l-109 0 q-24 0 -34 19 q-8 19 -7 25 q2 6 17 7 q91 2 135 2 q4 221 5 322 q-142 -282 -302 -408 q-16 -12 -22 -6 q-5 5 9 23 q168 220 255 432 l-178 0 q-16 0 -21 8 q-11 13 -14 30 q-4 16 10 16 l264 1 l0 111 q0 54 -11 105 q-6 28 18 20 q28 -8 52 -26 q15 -11 12 -39 q-2 -31 -4 -79 l-3 -92 Z" /><glyph glyph-name="uni4F55" unicode="&#x4f55;" d="M620 225 q-2 134 0 258 q-88 2 -162 0 q1 -78 -3 -259 l165 1 ZM631 545 q9 6 22 2 q18 -5 31 -14 q12 -9 6 -27 q-6 -19 -7 -42 q-3 -47 -5 -243 q4 -3 8 -18 q6 -20 4 -26 q-3 -7 -18 -7 q-39 1 -109 1 l-110 0 l-1 -20 q0 -18 -21 -28 q-27 -12 -30 -2 q-4 14 -4 35 q3 277 1 326 q0 23 -6 49 q-3 12 -1 15 q2 2 15 0 q21 -5 34 -12 q56 1 157 1 q18 0 31 8 l3 2 ZM358 737 q510 -2 596 10 q21 4 31 -11 q12 -19 15 -34 q5 -25 -21 -24 q-52 3 -116 3 l2 0 q13 -8 10 -28 q-4 -25 -6 -65 q-2 -64 -1 -283 q0 -208 -5 -325 q-1 -52 -29 -75 q-38 -31 -48 0 q-5 12 -106 47 q-12 4 -11 12 q1 7 14 7 q114 -3 114 11 q10 316 7 640 q-2 42 -5 60 l-421 0 q-16 0 -22 9 q-6 7 -12 23 q-54 -90 -103 -153 l1 -2 q12 -18 17 -43 q3 -17 5 -57 q5 -228 -4 -432 q-3 -67 -27 -99 q-22 -28 -33 6 q-7 21 -6 75 q11 204 7 454 q0 17 -2 47 q-64 -72 -143 -139 q-12 -9 -18 -3 q-6 5 3 17 q190 263 241 365 q13 25 25 67 q6 18 22 12 q28 -11 45 -28 q13 -10 4 -28 l-20 -36 Z" /><glyph glyph-name="uni4F59" unicode="&#x4f59;" d="M330 204 q12 12 18 8 q7 -3 1 -17 q-34 -104 -157 -193 q-64 -44 -73 -2 q-8 33 23 54 q114 80 188 150 ZM834 71 q39 -35 18 -69 q-19 -31 -54 7 q-65 69 -187 170 q-15 11 -12 17 q2 5 20 1 q106 -27 215 -126 ZM316 477 q-25 0 -35 19 l-6 15 q-98 -73 -212 -119 q-23 -10 -27 -1 q-4 7 16 21 q190 130 310 261 q70 77 131 170 q12 18 28 8 q22 -13 35 -27 q15 -15 -1 -33 q-6 -6 -16 -18 q146 -152 296 -231 q25 -13 69 -31 q61 -22 76 -29 q29 -12 4 -22 q-14 -6 -29 -18 q-19 -16 -26 -20 q-18 -9 -40 2 q-230 129 -372 322 q-58 -70 -103 -114 q-67 -64 -118 -104 l198 3 q128 0 190 2 q22 1 31 -23 q13 -33 -15 -33 l-199 0 q8 -3 25 -12 q12 -6 9 -25 q-4 -29 -4 -49 q-1 -13 -1 -38 l-1 -41 q240 3 297 11 q22 4 31 -10 q13 -17 16 -34 q5 -24 -21 -23 q-99 6 -323 4 q0 -188 -3 -282 q-2 -50 -30 -72 q-37 -28 -48 0 q-4 11 -104 45 q-12 4 -11 12 q1 7 14 6 q112 -2 113 11 q4 134 6 280 q-189 0 -312 1 q-19 0 -24 8 q-8 10 -13 28 q-5 16 9 16 q128 -1 340 -1 q0 72 -1 106 q0 31 -4 52 q-1 2 -1 7 l-144 0 Z" /><glyph glyph-name="uni4F5B" unicode="&#x4f5b;" d="M245 488 q5 -23 7 -56 q4 -189 -3 -415 q-3 -65 -29 -97 q-20 -26 -31 7 q-9 23 -6 71 q11 233 6 435 q-2 44 -6 65 q-57 -65 -123 -122 q-12 -8 -18 -3 q-6 5 3 18 q182 261 227 358 q12 27 22 67 q6 18 22 11 q24 -9 45 -26 q11 -10 4 -28 q-74 -141 -148 -234 q6 -6 8 -9 q14 -17 20 -42 ZM567 444 q-2 -84 -7 -140 q40 1 119 1 l0 139 l-112 0 ZM499 304 q5 55 7 140 q-68 0 -101 1 l-4 -76 q-3 -42 -5 -68 l103 3 ZM567 632 q3 -58 0 -135 l112 1 l0 136 l-112 -2 ZM745 635 l-1 -137 l104 1 q0 50 2 138 l-105 -2 ZM742 305 l119 0 q25 0 45 6 q9 2 12 1 q3 1 11 -1 q20 -7 34 -18 q11 -9 5 -20 q-5 -11 -6 -24 l-7 -77 q-5 -56 -9 -87 q-6 -41 -32 -52 q-38 -17 -45 4 q-4 8 -72 32 q-12 5 -11 10 q1 6 14 5 q79 -4 80 7 q8 66 15 159 l-154 1 l-3 -146 q-2 -107 -25 -185 q-15 -53 -24 1 q-14 76 -12 178 l1 152 q-42 -1 -125 -1 q-33 -211 -206 -336 q-16 -12 -22 -7 q-6 5 7 20 q134 148 161 322 q-40 0 -130 -2 l-1 0 q-27 -4 -25 18 q13 159 6 232 q-1 16 18 14 q16 -3 35 -11 l6 -3 l104 0 l-1 134 l-103 -2 q-19 0 -31 27 q-10 21 -8 26 q2 7 18 6 q39 -1 122 -1 q-1 48 -5 122 q-1 18 2 22 q3 3 15 1 q27 -7 41 -16 q14 -8 12 -34 q-1 -28 -1 -95 q76 0 112 1 l0 15 q0 65 -4 131 q-1 18 1 20 q2 2 19 -2 q26 -5 44 -15 q15 -8 13 -34 q-4 -41 -6 -101 l0 -13 q33 0 85 2 q19 0 31 5 l2 1 q8 4 18 1 q17 -6 28 -15 q11 -7 6 -23 q-6 -19 -7 -33 q-3 -38 -5 -133 q3 -3 9 -18 q7 -22 4 -27 q-3 -6 -23 -6 q-96 2 -150 2 l-2 -140 Z" /><glyph glyph-name="uni4F5C" unicode="&#x4f5c;" d="M239 536 q17 -10 18 -32 q2 -18 2 -55 l-8 -416 q-2 -60 -20 -92 q-20 -34 -36 0 q-15 31 -12 78 q17 251 11 449 q0 9 -2 25 q-62 -73 -140 -139 q-12 -10 -18 -4 q-6 6 3 19 q186 265 234 371 q14 32 23 68 q5 20 23 13 q25 -10 47 -27 q13 -11 4 -30 q-73 -138 -137 -223 l8 -5 ZM522 617 q-85 -120 -199 -217 q-11 -9 -17 -4 q-7 5 2 18 q184 274 224 358 q10 20 23 66 q5 20 22 12 q26 -9 48 -26 q13 -12 4 -30 q-35 -67 -77 -131 q311 1 364 16 q25 8 35 -6 q10 -14 19 -38 q8 -25 -16 -25 q-40 2 -145 0 l-216 -1 q4 -6 3 -24 q0 -56 -1 -85 l-1 -56 q236 6 260 14 q24 7 32 -5 q11 -15 16 -37 q9 -24 -16 -23 q22 -1 -290 -3 l-3 0 q-2 -89 -3 -180 q279 6 296 12 q25 7 33 -7 q10 -14 17 -36 q6 -25 -17 -24 q-61 3 -328 1 l-2 0 l-3 -99 q-3 -92 -27 -154 q-17 -41 -26 1 q-12 53 -12 148 q5 379 5 453 q0 68 -3 108 l-1 4 Z" /><glyph glyph-name="uni4F60" unicode="&#x4f60;" d="M229 541 q17 -11 18 -33 q2 -19 2 -56 q-2 -226 -7 -427 q-2 -61 -19 -94 q-21 -35 -36 -1 q-17 34 -14 79 q18 257 10 462 q0 21 -1 30 q-57 -62 -128 -122 q-12 -9 -18 -3 q-6 5 3 18 q191 266 240 364 q16 32 26 68 q7 18 22 11 q28 -12 44 -28 q13 -12 3 -28 q-83 -146 -155 -234 l10 -6 ZM493 370 q10 15 16 13 q6 -2 4 -17 q-16 -109 -126 -232 q-53 -61 -71 -24 q-15 33 12 60 q106 115 165 200 ZM673 514 q12 -7 9 -26 q-4 -19 -6 -52 q-1 -48 -1 -205 q0 -149 -3 -236 q-3 -51 -32 -73 q-37 -30 -49 0 q-5 11 -120 48 q-12 4 -11 10 q1 7 14 6 q128 -2 129 11 q9 209 7 468 q-2 39 -7 56 q-2 11 1 14 q5 2 19 -1 q25 -6 50 -20 ZM796 480 q18 47 60 131 q-242 2 -342 -1 q-68 -111 -171 -202 q-10 -9 -16 -4 q-6 6 2 18 q146 234 184 336 q12 32 19 66 q3 20 20 13 q30 -12 48 -26 q15 -11 5 -28 q-32 -71 -57 -115 l154 1 q94 0 140 1 q24 0 40 10 q7 7 14 4 q10 -2 15 -5 q24 -14 43 -30 q19 -20 1 -32 q-16 -10 -32 -27 q-17 -19 -105 -125 q-17 -17 -24 -12 q-7 4 2 27 ZM958 182 q31 -50 2 -80 q-28 -28 -54 22 q-38 71 -155 226 q-12 15 -7 20 q4 4 21 -4 q113 -56 193 -184 Z" /><glyph glyph-name="uni4F6C" unicode="&#x4f6c;" d="M226 507 q13 -18 17 -40 q4 -20 4 -53 q5 -184 -4 -405 q-1 -62 -25 -94 q-20 -26 -31 6 q-9 20 -7 70 q11 214 7 427 q0 28 -3 50 q-63 -67 -132 -122 q-12 -9 -18 -4 q-6 6 4 18 q198 253 263 391 q15 30 26 72 q5 17 22 11 q27 -13 41 -26 q13 -11 4 -28 q-82 -162 -172 -269 l4 -4 ZM734 478 q157 2 193 6 q24 4 33 -10 q12 -17 15 -34 q6 -25 -20 -22 q-82 6 -271 6 q-77 -81 -162 -146 q0 -17 -1 -27 q-3 -61 -3 -104 q151 66 236 130 q26 18 48 40 q14 14 25 6 q16 -14 28 -34 q11 -17 -6 -27 q-187 -109 -332 -137 q0 -29 3 -83 q1 -50 61 -54 q123 -8 220 2 q40 4 44 26 l12 89 q4 15 11 14 q6 -1 7 -17 q5 -90 21 -104 q26 -22 4 -42 q-24 -21 -85 -25 q-112 -10 -240 -1 q-62 4 -89 30 q-27 26 -29 81 q-2 40 -1 99 l2 92 q-81 -56 -176 -105 q-28 -13 -32 -6 q-5 7 20 25 q108 77 187 144 l-1 36 q-1 18 15 14 q12 -2 32 -10 q60 53 98 94 q-44 -1 -135 -1 l-157 -1 q-17 0 -22 7 q-10 16 -13 30 q-4 16 9 16 l245 1 l1 163 q-70 0 -105 1 q-24 1 -32 21 q-10 18 -8 24 q1 7 17 7 l128 1 l0 74 q0 23 -4 70 q-2 21 14 16 q33 -7 49 -15 q11 -5 10 -25 q-2 -16 -4 -55 l-1 -65 q97 2 143 5 q21 1 30 -23 q12 -34 -14 -34 q-109 -2 -160 -2 l-3 -163 l61 1 l43 49 q98 115 173 240 q11 20 27 10 q18 -11 33 -26 q12 -14 0 -31 q-137 -181 -182 -231 l-10 -10 Z" /><glyph glyph-name="uni4F73" unicode="&#x4f73;" d="M437 612 q-27 0 -38 19 q-11 20 -9 26 q3 6 21 7 l198 3 q1 34 1 94 q-2 47 -5 72 q-3 19 15 15 q26 -5 48 -15 q11 -5 10 -25 q-2 -15 -4 -56 l-2 -85 q126 2 185 5 q24 1 33 -23 q15 -35 -15 -36 l-204 -1 l-3 -152 q208 2 249 7 q22 2 32 -11 q11 -17 14 -33 q4 -24 -21 -21 q-91 7 -570 4 q-15 0 -20 7 q-9 12 -14 30 q-4 15 11 15 l258 1 l2 153 l-172 0 ZM230 530 q14 -21 18 -42 q6 -25 6 -56 q5 -216 -3 -421 q-3 -66 -27 -98 q-22 -26 -33 7 q-8 24 -5 72 q10 239 5 442 q0 32 -3 60 q-61 -66 -135 -125 q-13 -8 -18 -3 q-7 6 3 18 q191 248 251 371 q17 33 27 69 q7 18 22 11 q25 -11 44 -29 q15 -11 3 -28 q-81 -145 -160 -242 l5 -6 ZM668 18 q222 2 274 8 q27 3 35 -12 q13 -19 16 -36 q5 -26 -21 -23 q-121 11 -634 5 q-16 0 -22 9 q-10 15 -15 30 q-4 17 11 17 l294 1 q0 71 2 176 q-67 -1 -196 -1 q-29 0 -40 19 q-10 21 -8 26 q2 6 20 7 l224 4 l0 52 q0 38 -5 70 q-2 21 15 16 q27 -6 49 -15 q12 -6 10 -24 q-2 -17 -4 -56 l-1 -42 l195 6 q25 1 34 -23 q15 -35 -15 -36 l-215 -2 l-3 -176 Z" /><glyph glyph-name="uni4F7F" unicode="&#x4f7f;" d="M227 537 q15 -11 18 -33 q2 -38 1 -56 q-4 -222 -9 -427 q-2 -62 -19 -95 q-20 -33 -36 0 q-17 31 -14 80 q20 249 13 461 l-1 19 q-60 -67 -133 -133 q-11 -10 -17 -4 q-7 6 2 18 q216 316 251 386 q14 27 27 69 q5 18 20 12 q27 -9 46 -26 q14 -11 4 -28 q-77 -143 -156 -241 l3 -2 ZM605 496 q-65 0 -173 -2 q2 -79 -1 -151 l161 0 q10 68 13 150 l0 3 ZM670 491 q-3 -93 -12 -147 l170 0 q0 56 2 152 l-160 1 l0 -6 ZM894 322 q8 -21 5 -26 q-4 -6 -22 -5 q-36 1 -228 1 q-26 -116 -78 -192 q101 -69 219 -102 q36 -9 94 -21 q59 -12 88 -21 q27 -6 27 -11 q-1 -5 -26 -15 q-12 -4 -27 -16 q-18 -11 -26 -15 q-20 -9 -53 -2 q-192 47 -334 155 q-79 -87 -234 -154 q-23 -10 -29 -4 q-5 6 16 19 q137 84 205 172 q-55 49 -98 97 q-31 33 -63 54 q-11 6 -13 26 q-6 33 15 23 q43 -19 90 -64 q52 -49 101 -87 q42 69 59 158 q-77 -1 -155 0 q-4 -11 -21 -18 q-30 -11 -34 -1 q-4 11 -4 27 l0 105 q0 69 -2 96 q-2 25 -6 38 q-3 12 -1 14 q2 3 15 1 q25 -3 36 -9 l99 1 q65 0 97 1 q1 41 1 113 q-96 -1 -227 0 q-13 0 -20 8 q-6 9 -12 30 q-4 15 10 15 q93 -1 248 -1 q-1 46 -5 123 q-1 18 2 23 q4 3 17 0 q27 -8 44 -17 q14 -9 11 -35 q-2 -55 -2 -93 q170 2 222 9 q21 3 29 -10 q10 -14 14 -33 q5 -22 -19 -21 q-44 2 -246 2 q0 -72 -1 -113 l130 1 q23 0 37 6 q4 2 7 2 q8 4 19 0 q20 -6 32 -14 q12 -8 7 -26 q-4 -13 -7 -35 q-3 -44 -5 -152 l2 -7 Z" /><glyph glyph-name="uni4F9B" unicode="&#x4f9b;" d="M254 460 q5 -23 6 -54 q5 -193 -4 -409 q-3 -64 -27 -96 q-10 -12 -19 -10 q-8 2 -13 16 q-9 25 -6 73 q10 197 6 428 q-2 45 -4 69 q-62 -77 -137 -150 q-11 -10 -17 -5 q-7 5 1 18 q192 299 235 397 q9 22 23 73 q4 20 21 14 q24 -8 46 -25 q14 -11 5 -29 q-72 -149 -147 -252 l14 -16 q13 -18 17 -42 ZM588 167 q14 -13 1 -27 q-146 -167 -258 -228 q-11 -5 -15 0 q-5 5 4 16 q149 172 182 224 q14 23 22 40 q7 16 22 7 q23 -12 42 -32 ZM719 192 q110 -55 197 -187 q32 -50 5 -81 q-28 -29 -55 20 q-47 83 -161 231 q-13 16 -8 21 q4 4 22 -4 ZM546 538 l-1 -241 l183 1 l3 240 l-185 0 ZM793 538 q0 -29 -2 -114 l-2 -125 q125 2 164 8 q25 4 35 -12 q12 -18 16 -37 q4 -24 -22 -23 q-113 8 -622 5 q-17 0 -23 8 q-9 15 -14 32 q-4 16 10 16 l155 1 q-1 87 -1 241 l-78 0 q-30 0 -41 21 q-11 20 -8 25 q2 6 21 6 l106 2 q0 95 -1 134 q-2 52 -8 92 q-2 14 1 17 q4 3 15 0 q24 -4 47 -16 q12 -8 10 -28 q-3 -31 -3 -74 l-1 -125 l185 3 l1 149 q-2 63 -6 94 q-2 24 17 18 q27 -6 49 -18 q12 -7 10 -29 q-4 -36 -5 -75 l-3 -139 l105 2 q26 0 35 -23 q8 -22 4 -29 q-3 -7 -20 -7 l-126 0 Z" /><glyph glyph-name="uni4F9D" unicode="&#x4f9d;" d="M603 541 q32 -112 76 -197 q81 69 121 120 q14 18 27 42 q9 18 23 12 q25 -12 41 -28 q14 -13 -1 -29 q-116 -109 -198 -143 q57 -103 138 -179 q25 -25 72 -56 q57 -36 75 -52 q13 -11 12 -15 q0 -4 -15 -6 q-13 -2 -33 -12 q-21 -10 -33 -12 q-20 -5 -39 12 q-222 189 -289 507 q-48 -69 -86 -117 q2 0 6 -3 l6 -2 q11 -5 11 -21 q0 -177 -8 -334 q55 28 130 62 q27 12 32 4 q5 -9 -19 -31 q-30 -31 -82 -66 q-64 -43 -78 -55 q-7 -5 -31 -30 q-13 -13 -26 -2 q-18 16 -37 45 q-3 5 -3 10 q-1 6 3 9 q2 2 7 4 l11 5 q32 17 33 44 q8 158 2 302 l0 8 q-78 -83 -159 -134 q-16 -11 -22 -4 q-6 6 10 23 q181 204 284 398 q-129 0 -207 1 q-16 0 -21 8 q-8 10 -13 29 l-1 4 q-54 -89 -103 -153 l12 -6 q18 -11 19 -31 q2 -18 2 -52 q-2 -208 -7 -394 q-2 -57 -20 -87 q-19 -32 -35 0 q-15 30 -14 73 q16 234 9 426 q0 10 -2 28 q-53 -62 -119 -123 q-12 -10 -18 -5 q-6 5 2 19 q194 289 234 378 q11 21 24 69 q4 20 21 13 q26 -10 46 -26 q13 -10 4 -29 q-25 -47 -49 -89 l5 0 q110 -1 291 -1 q-10 7 -14 21 q-16 43 -65 125 q-15 24 13 16 q72 -21 112 -95 q20 -40 -7 -63 l-6 -4 q208 3 257 11 q21 4 30 -11 q10 -15 14 -33 q4 -22 -20 -21 q-74 4 -310 2 l5 -7 q8 -15 -1 -29 l-29 -43 Z" /><glyph glyph-name="uni4FBF" unicode="&#x4fbf;" d="M235 556 q14 -15 18 -42 q3 -27 3 -59 q0 -192 -6 -407 q-1 -70 -21 -105 q-19 -32 -36 3 q-14 30 -11 83 q15 220 8 439 l-1 30 q-63 -74 -140 -139 q-12 -9 -18 -3 q-6 5 3 17 q103 140 143 201 q-4 17 9 14 q53 80 90 156 q12 26 24 68 q7 19 21 12 q26 -13 43 -26 q12 -11 3 -28 q-70 -129 -132 -214 ZM599 308 q8 45 11 106 q-71 -2 -143 0 l-1 -54 q0 -36 -1 -52 l134 0 ZM466 569 q1 -31 1 -106 l144 0 q1 39 1 108 l-74 -1 q-47 0 -71 -1 l-1 0 ZM677 571 q0 -68 -2 -107 l140 0 q0 44 2 106 l-140 1 ZM815 310 l0 104 l-141 0 q-3 -61 -10 -105 l151 1 ZM788 624 q22 0 36 6 q6 2 9 2 q8 2 16 -1 q21 -8 32 -15 q15 -9 7 -25 q-5 -11 -5 -29 q-4 -110 -2 -265 q2 -45 -34 -60 q-22 -9 -26 4 l-3 15 l-163 0 q-22 -95 -69 -161 q98 -62 208 -86 q39 -10 91 -18 q68 -11 87 -15 q25 -5 26 -10 q0 -6 -24 -16 q-11 -4 -25 -15 q-17 -12 -24 -15 q-18 -10 -49 -4 q-192 40 -328 134 q-81 -84 -238 -140 q-24 -9 -29 -3 q-5 7 16 19 q142 76 207 156 q-54 43 -109 104 q-31 33 -65 53 q-11 7 -14 25 q-6 32 15 22 q47 -22 89 -62 q66 -61 117 -97 q35 59 52 129 q-85 0 -127 1 q-4 -12 -20 -21 q-29 -12 -32 -1 q-5 13 -5 34 l0 300 q-1 22 -6 47 q-3 12 -1 15 q2 2 14 0 q20 -3 32 -10 l87 1 q53 0 80 1 q-2 64 -4 96 l0 4 q-84 -1 -194 0 q-14 0 -19 9 q-5 7 -13 29 q-2 15 10 15 q419 -2 495 9 q19 4 28 -10 q10 -17 13 -33 q4 -23 -19 -22 q-46 3 -237 3 q10 -9 9 -29 q-2 -43 -2 -71 l110 1 Z" /><glyph glyph-name="uni4FC4" unicode="&#x4fc4;" d="M847 620 q-19 41 -75 123 q-14 22 12 14 q68 -21 112 -94 q21 -33 -3 -56 q-28 -26 -46 13 ZM218 525 q17 -11 18 -31 q2 -18 2 -53 q0 -131 -7 -415 q-2 -58 -19 -88 q-18 -33 -33 0 q-15 31 -14 74 q16 249 9 446 q0 8 -2 23 q-55 -59 -119 -113 q-12 -8 -18 -3 q-6 5 3 17 q205 276 250 361 q15 27 27 63 q5 18 20 12 q29 -14 42 -27 q13 -11 3 -28 q-89 -146 -166 -235 l4 -3 ZM515 527 l151 0 q-5 75 -5 143 q-2 102 -10 164 q-2 26 14 20 q24 -6 45 -18 q16 -9 14 -28 q-5 -51 -5 -134 q0 -85 4 -146 q145 1 198 8 q21 4 30 -9 q11 -18 14 -33 q6 -23 -18 -22 q-82 5 -220 5 q10 -123 36 -223 q47 55 79 104 q20 30 27 47 q7 15 20 5 q19 -11 33 -30 q9 -11 -2 -25 q-76 -102 -139 -159 q46 -136 129 -210 q24 -21 34 -3 q6 7 16 28 l17 29 q8 13 14 10 q4 -5 0 -19 q-22 -73 -19 -108 q1 -39 -37 -30 q-33 9 -65 42 q-86 85 -136 222 q-76 -56 -166 -88 q-14 -5 -17 2 q-4 7 8 15 q87 56 158 121 q-35 118 -48 270 l-154 0 l0 -151 l94 48 q16 8 21 1 q5 -6 -7 -17 q-43 -42 -109 -85 q0 -153 -4 -267 q-1 -47 -26 -68 q-35 -28 -44 0 q-5 13 -77 42 q-11 4 -10 9 q1 6 13 6 q84 -2 84 12 l6 230 q-127 -75 -123 -72 q-17 -11 -30 -1 q-16 15 -29 37 q-12 18 6 22 q19 3 37 10 q53 20 140 63 l1 180 q-46 1 -148 1 q-16 0 -22 7 q-8 14 -12 28 q-4 15 9 15 l173 0 l-1 91 q0 29 -4 50 q-46 -18 -101 -29 q-13 -2 -16 5 q-2 7 9 13 q118 61 176 110 q20 18 35 36 q12 14 23 6 q20 -12 34 -30 q11 -15 -5 -26 q-70 -45 -119 -69 l21 -12 q12 -6 11 -26 q-5 -33 -5 -60 l-1 -59 Z" /><glyph glyph-name="uni4FD7" unicode="&#x4fd7;" d="M866 615 q-43 61 -156 180 q-13 13 -9 18 q3 5 19 -1 q101 -34 189 -140 q32 -40 9 -69 q-24 -31 -52 12 ZM351 539 q-11 -5 -15 0 q-4 5 4 15 q130 151 164 210 q9 18 19 39 q6 17 20 7 q25 -13 41 -29 q11 -13 1 -28 q-135 -163 -234 -214 ZM235 520 q13 -17 19 -41 q4 -18 6 -57 q4 -220 -4 -410 q-3 -64 -26 -96 q-21 -24 -33 7 q-9 23 -6 71 q11 225 6 432 q0 20 -4 51 q-53 -65 -138 -140 q-12 -9 -18 -4 q-7 6 3 19 q87 122 135 193 q0 6 6 7 q73 114 112 203 q12 31 25 75 q4 19 20 12 q27 -9 46 -25 q13 -12 4 -29 q-74 -157 -156 -264 l3 -4 ZM786 234 q-172 2 -287 -1 q0 -122 -4 -221 q61 -1 153 0 l138 1 q-2 114 0 221 ZM429 294 q-57 -46 -127 -81 q-19 -10 -23 -3 q-4 8 11 22 q156 132 239 255 q64 95 95 164 q8 18 26 11 q21 -9 37 -23 q15 -12 2 -30 l-29 -45 q90 -129 210 -200 q22 -13 61 -31 q49 -21 64 -28 q24 -13 1 -21 q-14 -4 -31 -14 q-19 -13 -28 -16 q-18 -7 -35 6 q-175 105 -262 274 q-24 -37 -57 -79 q-73 -94 -143 -152 l5 -2 q22 -3 42 -15 q194 2 275 2 q19 0 35 6 l4 1 q7 3 17 0 q19 -5 32 -14 q11 -7 6 -26 q-6 -20 -7 -40 q-3 -60 -5 -209 q4 -5 7 -17 q7 -20 4 -26 q-3 -7 -20 -6 q-53 1 -168 1 q-116 -1 -175 0 l-1 -23 q0 -18 -22 -27 q-28 -13 -31 -2 q-5 10 -5 34 l4 299 q-3 32 -6 47 l-2 8 Z" /><glyph glyph-name="uni4FDD" unicode="&#x4fdd;" d="M253 496 q4 -20 4 -49 q2 -247 -6 -440 q-3 -55 -25 -85 q-22 -27 -32 4 q-7 25 -6 65 q13 228 9 461 q-2 48 -3 52 q-60 -66 -141 -133 q-12 -9 -18 -4 q-6 5 3 18 q194 260 244 365 q16 32 25 67 q5 18 21 12 q27 -11 45 -27 q13 -11 4 -28 q-79 -144 -152 -234 q4 -3 11 -10 q13 -11 17 -34 ZM485 537 q65 -1 165 0 l145 1 q-2 95 0 183 q-186 2 -309 -1 q2 -98 -1 -183 ZM858 514 q8 -21 5 -27 q-4 -6 -21 -6 q-34 1 -213 1 q11 -3 22 -10 q12 -7 11 -28 q-2 -35 -2 -49 q-1 -15 -1 -44 q207 2 248 7 q22 4 31 -10 q12 -19 15 -34 q4 -25 -20 -22 q-93 6 -241 6 q82 -112 183 -183 q19 -14 52 -31 q43 -22 55 -29 q24 -15 0 -22 q-13 -4 -30 -14 q-20 -12 -28 -15 q-18 -7 -33 6 q-157 127 -233 282 q-1 -46 -1 -145 l-1 -159 q-1 -43 -19 -71 q-22 -35 -37 -1 q-14 32 -11 72 q4 189 5 263 q-162 -184 -298 -241 q-16 -8 -20 0 q-4 6 11 18 q162 132 256 269 l-203 -1 q-15 0 -20 8 q-8 12 -13 29 q-5 16 10 16 l278 1 l-1 56 q-2 41 -5 65 l-1 11 q-71 0 -105 1 l-2 0 q-6 -8 -20 -15 q-30 -11 -34 -1 q-4 12 -4 30 q-4 240 -3 231 q-2 27 -6 41 q-3 13 -1 15 q2 3 15 1 q25 -4 40 -12 q160 3 304 3 q20 0 31 6 q9 11 25 6 q20 -6 32 -14 q13 -9 7 -27 q-4 -14 -7 -39 q-2 -21 -4 -186 l2 -8 Z" /><glyph glyph-name="uni4FDE" unicode="&#x4fde;" d="M219 166 l124 1 q72 1 108 0 q1 16 1 46 l1 47 l-115 0 q-73 0 -118 1 l-1 -95 ZM222 309 l123 1 q72 1 108 0 l0 92 q-165 2 -231 0 l0 -93 ZM215 -2 q-2 -50 -18 -75 q-21 -32 -34 0 q-11 23 -9 62 q10 206 7 406 q0 30 -8 58 q-5 21 14 15 q8 -2 30 -11 l122 1 q76 0 112 1 q20 0 33 7 q4 2 10 2 q4 0 10 -2 q19 -9 29 -16 q15 -10 8 -26 q-6 -13 -8 -36 q-1 -44 -2 -188 q0 -135 -3 -211 q-1 -41 -27 -58 q-35 -22 -44 1 q-2 6 -74 31 q-12 6 -11 12 q1 6 14 5 q80 -2 80 10 q2 43 4 131 q-37 1 -114 1 q-78 -1 -118 0 l-3 -120 ZM676 132 q0 -32 -15 -51 q-18 -21 -31 -1 q-13 23 -12 47 q6 130 4 242 q-1 21 -6 40 q-5 16 12 13 q21 -3 36 -11 q13 -5 15 -19 l-3 -260 ZM843 483 q12 -7 8 -25 q-3 -24 -5 -50 q-1 -46 -2 -199 q0 -143 -3 -226 q-2 -47 -29 -68 q-34 -26 -45 1 q-4 12 -91 42 q-11 5 -10 11 q0 7 13 6 q100 -2 100 10 q8 198 6 451 q0 24 -5 52 q-5 17 18 12 q22 -4 45 -17 ZM338 543 q-23 0 -34 19 l-6 12 q-113 -76 -239 -119 q-23 -8 -26 0 q-4 8 16 20 q188 109 319 227 q59 53 135 146 q13 17 28 6 q19 -14 32 -29 q11 -16 -6 -31 q-6 -5 -17 -16 q155 -122 291 -173 q26 -11 69 -21 q58 -14 74 -19 q28 -10 5 -22 q-12 -7 -27 -21 q-16 -16 -24 -21 q-17 -12 -38 -2 q-230 96 -372 257 q-66 -66 -105 -97 q-44 -35 -89 -68 q65 2 181 3 l172 3 q22 0 30 -21 q13 -34 -14 -33 l-355 0 Z" /><glyph glyph-name="uni4FE1" unicode="&#x4fe1;" d="M635 720 q-17 41 -71 114 q-15 21 12 16 q70 -14 114 -84 q22 -35 -4 -59 q-33 -29 -51 13 ZM453 34 q71 -1 180 0 l161 1 q0 57 2 153 q-217 2 -343 -2 l0 -152 ZM450 -47 q0 -17 -22 -25 q-29 -13 -32 -2 q-4 9 -4 30 q-4 244 -3 236 q-2 28 -6 42 q-3 11 -1 14 q2 2 15 1 q22 -3 34 -10 l338 3 q20 0 37 7 q4 2 6 2 q6 3 17 0 q19 -5 31 -14 q13 -8 7 -26 q-4 -13 -6 -34 q-3 -29 -5 -150 q-1 4 5 -14 q7 -21 4 -27 q-3 -5 -21 -5 q-68 1 -192 1 l-201 0 l-1 -29 ZM420 343 q-28 0 -39 21 q-11 19 -8 26 q2 6 20 6 l234 3 q149 1 222 3 q24 1 33 -24 q14 -36 -16 -35 l-446 0 ZM418 492 q-27 0 -37 19 q-10 20 -8 25 q2 6 19 6 q352 2 447 7 q23 0 33 -23 q13 -34 -16 -34 q-228 -3 -438 0 ZM989 660 q5 -24 -19 -23 q-42 2 -635 4 q-15 0 -23 9 q-7 11 -10 20 q-44 -77 -83 -130 l10 -6 q18 -10 19 -32 q2 -19 2 -56 q-1 -148 -8 -429 q-2 -61 -20 -93 q-19 -34 -36 -1 q-16 33 -13 78 q19 254 10 464 q0 18 -1 26 q-57 -72 -120 -134 q-11 -9 -17 -4 q-7 5 1 18 q193 317 217 370 q9 23 23 69 q4 19 20 13 q30 -11 45 -25 q15 -10 5 -28 q-7 -15 -40 -76 q549 0 627 10 q23 4 32 -10 q11 -19 14 -34 Z" /><glyph glyph-name="uni4FEE" unicode="&#x4fee;" d="M205 511 q17 -10 18 -29 q2 -34 1 -50 q-1 -147 -9 -400 q-2 -56 -17 -84 q-18 -32 -34 -1 q-14 28 -12 72 q16 223 11 429 q0 8 -2 22 q-49 -54 -109 -109 q-11 -9 -17 -4 q-7 5 2 17 q199 291 237 366 q12 26 24 66 q5 18 21 12 q25 -13 43 -26 q12 -11 3 -28 q-86 -151 -166 -250 l6 -3 ZM368 124 q0 -45 -16 -71 q-20 -34 -33 -1 q-11 25 -9 65 q10 246 7 440 q0 29 -5 62 q-4 20 13 15 q18 -4 37 -14 q13 -9 13 -29 l-7 -467 ZM924 188 q10 -30 11 -45 q1 -16 -14 -27 q-292 -187 -575 -201 q-23 -1 -24 9 q-2 8 24 14 q330 73 554 253 q18 13 24 -3 ZM408 91 q-20 -3 -22 6 q-2 8 19 14 q248 73 398 187 q15 11 21 -3 q10 -23 12 -42 q1 -15 -13 -23 q-229 -126 -415 -139 ZM460 262 q-15 -1 -16 6 q-2 7 13 12 q175 66 257 128 q13 11 20 -2 q9 -24 11 -42 q3 -14 -11 -21 q-155 -74 -274 -81 ZM557 670 q52 -66 105 -113 q63 60 122 132 q-181 0 -212 -1 l-3 0 l-12 -18 ZM985 414 q29 -8 6 -19 q-13 -5 -27 -19 q-15 -14 -24 -18 q-14 -8 -34 -1 q-143 48 -238 131 q-110 -83 -269 -137 q-22 -8 -25 1 q-3 7 16 18 q142 77 237 158 q-48 50 -86 118 q-51 -67 -113 -113 q-9 -7 -14 -2 q-5 5 2 15 q116 172 140 244 q8 21 14 48 q3 17 18 11 q26 -10 39 -22 q13 -9 5 -26 q-32 -61 -33 -62 l101 1 q62 0 93 1 q13 0 29 5 q10 10 24 0 q17 -10 33 -29 q14 -15 -1 -29 q-19 -18 -49 -52 q-62 -68 -120 -116 q56 -39 126 -66 q27 -9 75 -20 q54 -14 75 -20 Z" /><glyph glyph-name="uni4FFA" unicode="&#x4ffa;" d="M621 178 l154 1 l-1 91 q-49 1 -153 1 l0 -93 ZM564 178 l0 92 q-91 0 -137 1 q0 -64 -1 -93 l138 0 ZM554 638 q-66 -114 -136 -182 l148 1 q0 35 -4 92 q-3 23 17 17 q21 -5 41 -18 q13 -9 11 -27 q-4 -26 -6 -63 l129 0 q14 0 32 5 q-72 83 -114 187 l-112 0 l-6 -12 ZM565 318 q1 32 1 91 q-50 0 -140 -2 q1 -26 1 -89 l138 0 ZM775 408 q-53 1 -151 1 q-1 -14 -1 -44 l-1 -47 q55 1 152 1 l1 89 ZM335 704 q66 -1 182 -1 q42 83 60 142 q5 19 24 13 q24 -10 38 -20 q15 -11 5 -30 l-54 -105 q245 2 305 10 q21 3 29 -10 q10 -14 14 -33 q4 -22 -19 -22 q-60 3 -212 3 q71 -110 170 -185 q18 -14 51 -31 q42 -22 54 -30 q23 -14 0 -21 q-13 -4 -31 -14 q-19 -11 -28 -14 q-18 -5 -33 7 q-19 15 -54 48 l0 -7 q-2 -107 0 -245 q0 -37 -31 -51 q-18 -9 -24 3 q-3 15 -3 18 q-75 3 -156 0 q0 -41 1 -60 q3 -74 64 -80 q89 -8 173 2 q38 5 42 31 l13 82 q3 16 10 16 q6 -1 7 -19 q2 -82 19 -100 q28 -22 6 -42 q-24 -20 -81 -26 q-90 -9 -195 -1 q-113 10 -116 135 q-1 20 -1 62 q-90 0 -135 1 l-5 0 l0 -5 q-2 -17 -21 -25 q-27 -13 -30 -2 q-4 9 -4 31 q-4 285 -3 276 l0 6 q-42 -32 -87 -58 q-20 -12 -25 -5 q-5 7 10 21 q144 134 225 281 l-129 1 q-15 0 -22 8 q-6 9 -12 30 q-59 -103 -124 -184 l9 -5 q18 -10 19 -30 q2 -17 2 -50 q0 -165 -7 -386 q-2 -56 -18 -83 q-19 -31 -35 0 q-15 32 -12 70 q13 242 7 416 q0 17 -1 25 q-40 -44 -106 -103 q-12 -9 -18 -4 q-6 5 3 18 q184 260 232 364 q11 26 23 67 q4 19 21 12 q23 -10 42 -26 q13 -10 4 -27 l-32 -59 Z" /><glyph glyph-name="uni5012" unicode="&#x5012;" d="M306 727 q-2 16 8 16 q297 -2 348 8 q16 4 23 -10 q9 -15 11 -31 q3 -21 -17 -21 q-24 1 -191 1 q2 -1 4 -6 q3 -3 4 -5 q10 -11 -1 -27 q-63 -100 -123 -172 q129 14 218 20 q-9 24 -45 104 q-7 14 -2 17 q3 3 16 -5 q76 -60 113 -167 q13 -43 -13 -60 q-30 -19 -40 25 q-6 27 -15 52 q-53 -13 -136 -25 q-81 -13 -111 -21 q-17 -4 -39 -15 q-13 -8 -22 4 q-12 18 -19 43 q-3 7 1 12 q0 4 6 7 q27 12 48 40 q44 61 87 135 q15 31 19 44 q-67 0 -106 1 q-12 0 -17 7 q-7 13 -9 29 ZM215 481 q6 -23 7 -56 q5 -198 -4 -417 q-2 -62 -26 -95 q-21 -25 -32 7 q-8 23 -5 70 q10 237 5 437 q0 48 -8 76 q-48 -60 -104 -115 q-10 -11 -17 -6 q-6 6 1 19 q164 266 199 354 q11 33 18 68 q4 18 21 13 q27 -10 44 -23 q12 -10 5 -27 q-71 -152 -140 -248 q10 -7 17 -15 q14 -20 19 -42 ZM511 79 q116 26 166 38 q19 4 23 -4 q3 -7 -11 -15 q-41 -22 -361 -121 q-20 -7 -31 5 q-13 13 -26 40 q-8 20 11 19 q26 0 41 3 q64 11 129 23 l1 158 l-109 1 q-23 0 -31 18 q-8 18 -7 24 q2 6 16 7 l67 1 q44 0 65 1 l0 74 q0 21 -4 66 q-2 20 13 16 q26 -5 47 -15 q13 -5 10 -23 l-6 -118 q55 2 105 3 q20 1 29 -22 q11 -32 -14 -32 l-121 -1 l-2 -146 ZM764 198 q-17 -23 -30 -1 q-14 26 -13 54 q7 165 4 298 q0 25 -6 46 q-6 19 13 15 q24 -6 36 -13 q15 -6 15 -22 l-3 -319 q0 -35 -16 -58 ZM928 817 q12 -9 8 -30 q-6 -41 -6 -73 q-3 -87 -2 -344 q0 -256 -4 -390 q-1 -50 -29 -73 q-35 -30 -46 0 q-4 12 -94 45 q-11 5 -10 12 q0 6 13 6 q103 -2 103 11 q12 384 7 770 q0 40 -6 74 q-6 21 18 15 q29 -9 48 -23 Z" /><glyph glyph-name="uni5019" unicode="&#x5019;" d="M777 790 q8 7 23 2 q19 -5 33 -14 q14 -9 4 -27 q-7 -11 -10 -30 q-9 -41 -19 -112 q75 1 115 7 q18 2 28 -11 q10 -17 13 -32 q4 -23 -20 -22 q-56 2 -186 2 q-188 -1 -297 0 q-14 0 -19 9 q-8 10 -13 29 q-4 15 10 15 q228 0 309 1 q8 69 15 121 q-182 -4 -255 -4 q-14 -1 -24 27 q-9 22 -7 27 q1 5 15 4 q121 -3 258 1 q18 1 27 7 ZM214 537 q13 -17 17 -41 q4 -20 4 -55 q4 -225 -4 -428 q-3 -67 -26 -98 q-19 -29 -32 6 q-8 24 -7 73 q12 229 7 452 q0 36 -2 52 q-45 -54 -116 -117 q-11 -9 -17 -4 q-7 5 2 19 q179 260 225 363 q13 26 23 68 q4 19 21 12 q26 -9 46 -26 q13 -10 4 -27 q-73 -145 -150 -243 l5 -6 ZM357 107 q-21 -28 -32 0 q-14 30 -11 62 q11 204 8 378 q0 30 -6 58 q-5 18 13 14 q19 -4 35 -12 q15 -8 16 -27 q2 -31 1 -45 q0 -160 -7 -353 q-2 -50 -17 -75 ZM699 248 q188 2 234 8 q22 4 30 -10 q10 -15 13 -33 q4 -22 -19 -21 q-81 4 -232 4 q59 -118 154 -183 q19 -15 56 -31 q42 -18 58 -28 q24 -13 -1 -19 q-14 -4 -31 -14 q-19 -12 -29 -15 q-17 -5 -33 7 q-153 101 -206 283 l-9 0 q-63 -202 -315 -285 q-21 -7 -24 1 q-4 9 16 19 q197 107 255 264 l-176 0 q-15 0 -20 8 q-9 12 -12 30 q-4 14 9 14 l214 0 l5 25 q8 44 10 119 l-81 0 q-12 0 -16 1 q-48 -70 -114 -108 q-9 -5 -13 0 q-5 4 2 14 q82 118 102 180 q7 27 9 38 q3 17 19 10 q27 -13 42 -25 q14 -11 4 -26 l-18 -32 q213 2 282 6 q22 1 30 -23 q7 -19 4 -26 q-2 -6 -17 -7 q-117 -2 -171 -2 q12 -11 8 -27 q-3 -14 -8 -47 l-11 -69 Z" /><glyph glyph-name="uni501F" unicode="&#x501f;" d="M186 480 q-57 -60 -132 -121 q-12 -8 -18 -3 q-6 5 4 17 q203 264 260 373 q19 38 27 66 q6 18 20 11 q26 -12 43 -27 q13 -11 4 -28 q-83 -144 -161 -235 q16 -10 17 -32 q2 -18 2 -55 q-2 -223 -7 -417 q-2 -59 -19 -91 q-20 -33 -36 -1 q-15 34 -14 78 q16 247 10 449 l0 16 ZM775 12 q-1 35 -1 124 l-151 0 q-100 0 -160 1 q0 -67 -3 -127 l315 2 ZM775 300 q-217 0 -311 -2 l0 -115 l166 1 q96 1 144 0 q1 42 1 116 ZM458 -56 q-2 -18 -21 -29 q-29 -14 -32 -2 q-4 12 -4 36 q3 291 1 343 q-2 34 -6 51 q-4 13 -1 16 q2 2 15 0 q17 -3 31 -10 q164 3 311 3 q22 1 35 7 q6 2 8 2 q4 1 12 -1 q15 -6 32 -17 q14 -8 6 -23 q-5 -11 -5 -31 q-3 -185 0 -307 q1 -46 -33 -63 q-21 -11 -24 3 q-3 10 -5 37 q-51 1 -156 1 q-109 -1 -163 0 l-1 -16 ZM698 495 l2 72 q2 48 2 65 l-154 0 l0 -138 l150 1 ZM762 632 l-5 -137 q130 2 170 7 q25 4 34 -10 q11 -17 14 -34 q5 -23 -19 -22 q-116 8 -636 5 q-17 -1 -22 7 q-8 12 -13 30 q-4 15 10 15 l196 1 l-1 139 l-92 0 q-27 0 -37 19 q-10 18 -7 24 q2 5 19 5 l116 1 q0 49 -1 70 q0 28 -5 64 q-2 17 13 15 q23 -4 45 -14 q11 -6 10 -23 q-3 -21 -3 -49 l0 -62 l156 1 q2 62 2 85 q0 33 -3 67 q-1 19 14 15 q26 -4 47 -15 q10 -5 9 -24 q-4 -26 -5 -52 l-4 -75 q43 0 123 3 q24 1 33 -22 q13 -33 -16 -33 l-142 -1 Z" /><glyph glyph-name="uni5026" unicode="&#x5026;" d="M726 620 q-9 -5 -13 0 q-4 5 2 14 q87 126 92 135 l10 27 q6 15 20 8 q29 -15 40 -24 q13 -14 2 -26 q-91 -100 -153 -134 ZM469 654 q-19 41 -81 121 q-15 22 12 15 q73 -22 118 -93 q22 -36 -3 -57 q-27 -24 -46 14 ZM224 519 q12 -16 16 -40 q3 -17 5 -54 q3 -197 -5 -411 q-1 -63 -25 -94 q-20 -27 -31 5 q-9 23 -8 71 q12 196 8 433 q0 19 -2 52 q-57 -69 -129 -132 q-11 -10 -17 -5 q-7 6 2 18 q185 263 239 389 q12 29 22 74 q6 18 21 12 q30 -13 43 -26 q13 -9 5 -27 q-73 -153 -151 -258 l7 -7 ZM608 553 q-23 -62 -40 -98 q285 2 326 7 q24 3 32 -10 q10 -16 13 -32 q6 -22 -19 -21 q-75 6 -184 6 q75 -83 154 -122 q20 -9 51 -20 q41 -14 54 -19 q25 -10 2 -20 q-13 -5 -28 -18 q-16 -12 -26 -16 q-15 -8 -30 2 q-145 84 -215 213 l-159 0 q-36 -55 -78 -97 q12 -4 19 -8 l105 1 q67 0 99 2 q15 0 30 6 q1 1 3 1 l3 1 q6 3 15 0 q18 -7 30 -16 q13 -7 6 -19 q-6 -9 -6 -21 q-2 -16 -5 -59 q-2 -43 -5 -67 q-4 -35 -30 -49 q-34 -16 -43 5 q-2 6 -95 31 q-11 3 -10 9 q0 7 13 5 q104 -5 105 5 q6 52 9 115 q-178 0 -210 -1 q-1 -6 -1 -20 q-3 -139 -1 -192 q3 -46 64 -51 q133 -7 240 2 q42 4 45 24 l6 36 q3 23 6 34 q4 15 11 15 q5 -1 6 -18 q5 -70 19 -83 q26 -20 3 -39 q-23 -18 -83 -24 q-115 -10 -259 0 q-112 7 -115 103 q-3 41 -2 103 l3 118 l-1 25 q-63 -55 -154 -104 q-23 -12 -28 -6 q-4 7 16 22 q129 95 201 210 l-133 -1 q-14 0 -20 7 q-7 12 -13 29 q-2 14 11 14 l96 1 q59 0 89 1 q22 40 42 98 l-145 0 q-26 0 -36 19 q-10 18 -8 24 q2 6 19 6 q125 2 186 2 q14 47 22 91 q12 60 15 140 q0 24 19 17 q23 -7 39 -17 q14 -8 10 -29 q-4 -19 -10 -57 l-11 -59 q-11 -56 -19 -85 l245 3 q23 1 31 -22 q15 -34 -14 -33 l-277 0 Z" /><glyph glyph-name="uni503C" unicode="&#x503c;" d="M774 105 l-160 0 q-104 -1 -168 1 q-1 -50 -3 -95 l184 1 q100 0 146 1 l1 92 ZM781 513 q-210 3 -332 -2 l1 -84 q70 -1 176 0 l153 1 l2 85 ZM447 156 q62 -1 175 1 l152 0 l1 86 q-51 1 -159 1 q-111 -1 -167 0 l-2 -88 ZM778 375 q-52 1 -160 1 q-112 -1 -168 0 l-1 -82 l175 1 q101 1 151 0 l1 0 l2 80 ZM180 472 q-59 -69 -126 -134 q-11 -10 -17 -5 q-7 6 2 19 q210 319 248 398 q12 24 26 72 q6 18 20 12 q28 -10 43 -25 q13 -10 4 -27 q-23 -46 -29 -56 l223 0 l5 53 q2 25 0 51 q0 19 17 16 q29 -6 48 -15 q15 -7 10 -25 l-20 -80 q212 2 260 10 q21 2 30 -12 q11 -18 14 -32 q4 -23 -19 -22 q-60 4 -298 4 q-20 -65 -45 -107 q125 0 181 1 q17 0 36 6 q1 1 3 1 l3 1 q9 2 18 -2 q22 -6 39 -20 q15 -10 7 -32 q-10 -25 -13 -66 q-6 -95 -13 -441 q76 2 98 5 q27 4 37 -12 q13 -23 15 -36 q6 -25 -21 -24 q-126 11 -665 6 q-17 -1 -24 9 q-10 15 -15 30 q-3 16 12 17 l109 1 q5 360 1 478 q-1 37 -7 65 q-3 14 0 17 q2 3 15 1 q17 -4 23 -8 q3 1 12 1 q40 1 119 1 q15 80 20 108 q-58 -1 -196 -1 q-15 0 -21 8 q-5 8 -11 24 q-55 -99 -117 -179 l4 -2 q16 -12 17 -32 q2 -18 2 -53 q-1 -154 -8 -413 q-2 -60 -19 -90 q-19 -33 -34 0 q-16 32 -13 75 q17 254 11 446 l-1 15 Z" /><glyph glyph-name="uni503E" unicode="&#x503e;" d="M207 539 q18 -11 19 -33 q2 -18 2 -55 q-4 -228 -10 -430 q-2 -61 -19 -93 q-19 -34 -36 -1 q-16 33 -13 79 q18 257 11 463 q0 15 -1 22 q-49 -55 -106 -106 q-11 -9 -17 -4 q-7 5 2 18 q185 273 228 364 q11 24 24 69 q6 18 22 11 q29 -13 44 -26 q13 -13 4 -29 q-85 -155 -158 -246 l4 -3 ZM395 451 q-1 -107 -9 -271 q75 38 112 55 q25 11 29 3 q5 -7 -17 -28 q-27 -28 -73 -60 q-58 -40 -72 -51 q-6 -5 -29 -28 q-12 -13 -23 -3 q-20 15 -34 40 q-9 14 4 20 l11 6 q33 19 34 56 q11 233 4 439 q-1 33 -6 62 q-2 13 1 17 q3 3 15 2 q24 -2 41 -10 q13 -5 13 -26 l0 -172 l97 3 q18 1 26 -21 q11 -33 -13 -33 l-111 0 ZM733 107 q102 -31 197 -131 q34 -37 12 -68 q-21 -29 -51 11 q-41 53 -168 172 q-8 7 -10 13 q-69 -126 -269 -195 q-21 -7 -25 0 q-4 7 15 18 q132 69 192 147 q62 81 78 208 q7 61 5 156 q-1 22 18 17 q17 -4 37 -15 q15 -8 11 -27 q-2 -17 -5 -60 q-3 -47 -6 -74 q-11 -101 -48 -170 q7 2 17 -2 ZM715 712 q-101 0 -165 1 q-13 0 -17 7 q-8 13 -11 29 q-3 15 9 15 q333 -2 389 9 q16 3 24 -11 q9 -12 12 -30 q3 -21 -18 -21 q-48 2 -177 2 l13 -6 q15 -7 6 -23 q-54 -90 -68 -105 q47 1 132 1 q23 1 34 7 q8 6 18 1 q20 -7 33 -17 q12 -11 4 -30 q-9 -23 -9 -46 q-2 -50 -1 -145 q1 -108 0 -163 q0 -38 -21 -58 q-11 -11 -20 -10 q-10 1 -14 14 q-4 12 -3 57 q2 61 2 162 q-1 122 0 174 q-149 2 -248 -1 l0 -17 q2 -137 -4 -316 q-1 -44 -18 -66 q-18 -28 -31 -1 q-11 24 -10 57 q9 181 5 341 q-2 29 -7 50 q-7 18 13 14 q13 -3 27 -10 q14 1 41 1 l40 1 q24 55 34 100 q3 11 5 31 l1 2 Z" /><glyph glyph-name="uni5047" unicode="&#x5047;" d="M673 498 q-21 0 -27 20 q-5 21 -3 27 q2 5 17 5 q71 -1 185 1 l3 165 q-112 -4 -155 -4 q-13 0 -22 26 q-7 20 -5 25 q1 5 12 4 q63 -1 164 1 q6 0 14 2 q10 12 25 7 q17 -5 30 -15 q11 -7 6 -24 q-5 -18 -6 -35 l-7 -156 q6 -3 10 -18 q6 -21 4 -27 q-3 -6 -18 -5 l-112 0 q-73 0 -115 1 ZM325 795 q14 -9 6 -27 q-62 -135 -127 -230 q6 -6 8 -10 q13 -21 18 -43 q5 -24 6 -56 q5 -215 -3 -413 q-3 -65 -28 -96 q-19 -25 -31 7 q-6 18 -5 70 q9 224 6 434 q-2 41 -4 62 q-53 -70 -117 -132 q-10 -9 -17 -4 q-6 5 2 17 q169 278 203 363 q10 25 20 68 q5 19 20 13 q24 -8 43 -23 ZM408 559 l140 0 q-2 109 -1 159 q-75 1 -136 0 q-2 -39 -2 -60 l-1 -99 ZM570 198 q15 1 20 -2 q5 -4 10 -19 q8 -21 4 -27 q-2 -6 -16 -6 q-59 0 -180 -2 l-4 0 l-1 -112 q0 -62 -17 -99 q-10 -22 -21 -22 q-11 0 -18 21 q-9 39 -8 93 q10 410 7 650 q-2 51 -7 89 q-2 16 1 20 q3 3 16 0 q20 -6 33 -13 q50 1 138 1 q17 0 29 9 q6 2 10 2 q4 1 13 -1 q12 -3 30 -13 q11 -8 6 -24 q-3 -12 -5 -34 q-1 -12 -4 -159 q3 -3 5 -12 q6 -20 4 -26 q-3 -6 -18 -6 q-34 1 -94 1 l-96 0 l-1 -127 q108 2 153 4 q17 0 21 -3 q5 -3 10 -19 q7 -20 4 -27 q-2 -6 -16 -6 l-172 -1 l-1 -133 l165 3 ZM988 -55 q15 -13 14 -16 q-1 -4 -20 -5 q-10 -1 -25 -5 q-18 -5 -26 -6 q-20 -3 -37 12 q-76 63 -124 134 q-92 -95 -250 -152 q-22 -7 -25 0 q-3 6 15 18 q148 84 229 182 q-38 69 -58 143 q-10 41 -18 61 q-4 9 -1 25 q5 27 17 13 q19 -22 40 -79 q21 -58 56 -114 q55 82 91 204 q-154 -4 -211 -4 q-14 -1 -23 24 q-7 20 -5 24 q1 5 12 4 q107 -1 215 2 q15 0 26 8 q7 6 15 1 q2 0 8 -2 q17 -7 34 -20 q16 -12 4 -29 q-19 -37 -30 -68 q-43 -119 -100 -193 q32 -42 79 -82 q18 -15 51 -41 q32 -25 47 -39 Z" /><glyph glyph-name="uni505A" unicode="&#x505a;" d="M219 468 q3 -15 5 -53 q5 -206 -3 -403 q-3 -63 -28 -95 q-20 -25 -30 7 q-7 19 -6 69 q11 197 7 424 l-1 30 q0 18 -2 28 q-54 -70 -124 -135 q-12 -10 -18 -5 q-6 5 3 19 q169 252 219 387 q10 25 21 75 q3 20 19 13 q25 -9 43 -24 q14 -9 6 -27 q-67 -159 -135 -257 l7 -11 q11 -16 17 -42 ZM525 112 q0 72 2 193 q-82 2 -152 0 q3 -100 -1 -193 l151 0 ZM509 360 q17 0 29 5 q10 8 22 3 q21 -6 32 -13 q12 -9 5 -27 q-4 -13 -6 -38 q-5 -76 -7 -187 q2 -8 4 -13 q7 -21 5 -27 q-3 -7 -19 -6 l-100 0 q-65 0 -102 1 l-1 -19 q-2 -17 -21 -25 q-26 -13 -31 -2 q-4 12 -4 30 q3 225 1 265 q-2 27 -6 42 q-3 12 -1 15 q2 2 14 0 q15 -1 25 -6 l76 1 l3 192 l-113 0 q-12 0 -16 8 q-5 11 -10 29 q-1 16 10 16 l129 1 q1 54 1 145 q0 28 -4 83 q-2 21 14 17 q29 -6 47 -16 q11 -6 10 -27 q-4 -35 -5 -67 l-3 -134 q74 2 93 5 q17 4 24 -9 q7 -16 9 -32 q1 -22 -17 -21 q-30 2 -110 2 l-4 -191 l27 0 ZM679 507 q26 -163 85 -285 q57 132 76 320 q-75 -2 -131 -2 q-5 0 -11 2 l-19 -35 ZM897 543 q8 -10 5 -32 q-32 -221 -104 -353 q27 -45 62 -88 q23 -29 66 -64 q53 -42 67 -57 q11 -12 10 -16 q-1 -4 -16 -5 q-13 0 -33 -6 q-21 -9 -33 -10 q-21 -2 -38 19 q-73 74 -124 165 q-88 -121 -238 -191 q-23 -11 -28 -4 q-4 7 18 23 q144 101 219 230 q-59 131 -79 309 q-23 -35 -48 -65 q-8 -12 -16 -6 q-7 4 0 17 q105 235 129 350 q7 36 9 74 q1 18 18 14 q23 -5 42 -17 q12 -7 8 -26 q-36 -131 -72 -214 q197 5 228 14 q21 7 29 -5 q10 -14 16 -33 q6 -24 -16 -23 q-32 1 -81 0 Z" /><glyph glyph-name="uni505C" unicode="&#x505c;" d="M221 514 q17 -9 20 -30 q1 -19 1 -53 q-2 -209 -7 -400 q-2 -59 -20 -88 q-19 -34 -36 0 q-14 31 -13 74 q15 238 9 432 l0 16 q-53 -59 -118 -118 q-11 -10 -17 -5 q-7 7 2 19 q206 297 247 378 q12 25 26 68 q6 19 20 12 q24 -10 43 -25 q13 -10 4 -28 l-15 -27 l225 0 l0 1 q-14 34 -54 97 q-13 22 11 16 q66 -12 99 -70 q15 -22 3 -43 q181 0 230 7 q20 2 29 -9 q10 -17 13 -32 q4 -23 -20 -22 q-32 3 -517 5 q-14 0 -19 7 q-6 8 -11 24 q-66 -113 -138 -203 l3 -3 ZM632 485 q101 1 153 0 q-1 48 0 92 q-204 2 -325 -2 q2 -42 0 -91 l172 1 ZM439 622 q113 2 322 2 q21 1 32 7 q7 3 13 1 l4 -1 q2 0 3 -1 q16 -4 26 -11 q11 -7 6 -23 q-4 -12 -4 -27 q-1 -7 -3 -98 l2 -6 q6 -19 4 -24 q-3 -5 -18 -5 q-57 1 -180 1 q-125 -1 -189 1 q-1 -10 -17 -16 q-26 -9 -29 -1 q-4 10 -4 23 q0 123 -1 139 q-1 15 -6 30 q-3 11 -1 13 q2 2 13 1 q9 -1 23 -5 l4 0 ZM381 316 q-5 -38 -30 -89 q-23 -54 -54 -20 q-16 21 -4 44 q36 66 62 140 q4 12 10 13 q5 0 8 -11 q4 -12 7 -27 q252 3 480 3 q23 0 40 9 q7 4 15 1 q4 0 12 -6 q24 -19 35 -38 q14 -21 -3 -30 q-18 -7 -29 -15 q-25 -17 -63 -60 q-11 -6 -15 -7 l1 -3 q11 -32 -14 -32 l-95 -1 q-63 0 -95 -1 q6 -3 4 -17 q-3 -22 -3 -31 l-1 -84 q0 -59 -1 -96 q-2 -43 -28 -62 q-37 -25 -47 1 q-3 7 -90 36 q-13 4 -12 10 q1 7 15 6 q97 -1 97 10 q3 99 3 199 l-3 28 l-158 1 q-24 1 -33 18 q-9 18 -7 24 q2 5 18 5 q339 2 420 6 q11 0 15 -1 l4 11 q11 28 32 68 q-310 2 -491 -2 l-2 0 Z" /><glyph glyph-name="uni5076" unicode="&#x5076;" d="M211 492 q18 -10 19 -31 q2 -17 2 -51 q-7 -373 -8 -397 q-2 -58 -19 -85 q-19 -33 -35 -1 q-15 31 -12 72 q15 234 9 428 q0 18 -1 26 q-58 -67 -117 -122 q-11 -9 -17 -4 q-7 6 2 19 q205 308 240 377 q12 26 25 69 q5 18 21 12 q30 -13 43 -25 q12 -12 3 -28 q-81 -149 -164 -254 l9 -5 ZM440 572 q0 -43 -2 -115 l147 0 l1 114 q-94 0 -142 1 l-4 0 ZM586 633 q0 46 -3 95 l-74 -1 q-47 0 -70 -1 q2 -64 1 -108 q99 0 146 1 l0 14 ZM796 619 l1 108 q-53 1 -154 1 q5 -7 5 -23 q0 -49 -1 -86 l149 0 ZM642 458 l155 0 q-1 30 -1 112 q-48 1 -150 1 l-4 -113 ZM894 324 q22 -8 32 -15 q14 -9 7 -25 q-6 -15 -6 -31 q-1 -34 -2 -133 q-1 -97 -3 -149 q-1 -40 -29 -58 q-37 -21 -47 1 q-2 5 -91 33 q-12 4 -11 10 q1 8 14 7 q96 -4 98 9 q7 135 7 290 q-78 1 -224 1 l-3 -142 l103 25 l-32 61 q-6 12 -2 16 q3 3 14 -3 q65 -36 101 -119 q15 -37 -10 -53 q-27 -20 -39 18 q-8 26 -23 58 q-53 -32 -134 -57 q-104 -32 -126 -42 q-18 -8 -29 2 q-15 16 -26 40 q-10 18 9 18 q22 0 35 2 q37 7 104 21 l2 155 q-70 0 -188 -2 l0 -14 q0 -167 -4 -273 q-1 -41 -19 -63 q-20 -26 -35 -1 q-11 24 -10 56 q8 177 5 295 q0 21 -7 48 q-4 18 13 14 q13 -2 33 -10 q143 2 212 2 l1 92 q-98 0 -147 1 l-2 0 q-2 -15 -21 -24 q-27 -12 -30 -2 q-4 11 -4 33 q0 290 -1 308 q-2 31 -6 46 q-3 13 -1 16 q2 2 14 0 q15 -1 30 -8 q250 2 357 2 q18 0 34 6 q6 2 10 2 q8 0 12 -2 q6 -2 31 -14 q14 -9 7 -24 q-6 -13 -6 -29 q-2 -53 -2 -277 q1 -40 -31 -56 q-22 -10 -26 4 l-3 17 q-50 1 -158 1 l-1 -92 q69 1 197 1 q22 0 39 7 q11 5 17 0 l1 0 Z" /><glyph glyph-name="uni5085" unicode="&#x5085;" d="M650 562 l-1 -70 l181 0 q0 45 1 70 l-181 0 ZM829 375 q1 24 1 72 q-57 1 -181 1 l-1 -74 q64 1 172 1 l9 0 ZM591 447 q-108 0 -162 1 q-1 -12 -1 -36 l-1 -38 l161 0 l3 73 ZM429 491 l163 0 l1 71 l-83 -1 q-53 0 -80 -1 l-1 -69 ZM595 677 q-156 0 -232 1 q-25 0 -35 20 l-6 10 q-55 -104 -109 -179 q4 -4 8 -10 q12 -18 19 -43 q6 -23 6 -56 q6 -195 -3 -421 q-3 -65 -27 -96 q-19 -26 -32 6 q-7 25 -4 73 q9 208 5 439 q-2 43 -4 65 q-50 -62 -111 -121 q-11 -9 -17 -4 q-7 5 1 17 q176 280 213 369 q10 23 22 70 q3 18 19 13 q27 -10 43 -24 q14 -10 5 -27 q-8 -19 -25 -54 l264 0 l0 45 q0 38 -7 64 q-5 22 14 16 q29 -8 41 -16 q13 -7 13 -28 q-1 -9 -1 -24 l-2 -56 q59 0 165 2 q0 2 -2 4 l-2 2 q-27 30 -82 77 q-16 15 5 17 q62 0 111 -47 q26 -24 10 -47 l-3 -4 l68 2 q23 1 32 -21 q7 -18 4 -26 q-3 -6 -18 -6 q-197 -2 -289 -2 l-1 -69 q53 1 156 1 q18 0 34 7 q1 1 4 2 l3 1 q5 1 13 -1 q19 -6 33 -16 q12 -10 5 -27 q-8 -20 -8 -39 q-2 -37 -1 -107 q1 -79 0 -119 q0 -31 -22 -48 q-27 -23 -37 3 q-4 13 -3 48 l1 17 q-87 2 -181 0 q-1 -35 -16 -61 q-18 -33 -32 -1 q-14 32 -14 62 q-99 0 -149 1 q-8 0 -11 1 l-1 -34 q-1 -33 -17 -53 q-19 -22 -31 0 q-12 20 -10 48 q7 158 6 269 q0 18 -5 42 q-7 17 12 13 q24 -6 36 -11 q120 2 178 2 l1 69 ZM581 55 q29 -27 13 -54 q-18 -30 -47 1 q-41 45 -122 102 q-24 17 6 17 q78 -3 150 -66 ZM815 194 q92 3 122 7 q23 3 32 -10 q11 -19 14 -32 q5 -22 -19 -21 q-51 2 -150 4 q0 -117 -1 -176 q-2 -44 -29 -64 q-35 -24 -45 1 q-3 7 -106 38 q-13 3 -12 10 q2 6 15 6 q113 -3 113 10 q5 76 5 175 l-437 -1 q-17 0 -22 8 q-6 9 -12 28 q-4 14 9 14 q349 0 462 2 l0 32 q0 12 -5 39 q-4 14 18 11 q22 -5 43 -14 q12 -7 9 -22 q-4 -25 -4 -36 l0 -9 Z" /><glyph glyph-name="uni50BB" unicode="&#x50bb;" d="M692 372 q-17 7 -15 12 q1 7 19 6 q100 -5 216 -69 q41 -24 29 -56 q-11 -31 -51 -3 q-76 52 -198 110 ZM712 701 q-156 0 -291 -3 q3 -86 -1 -228 q78 -1 218 1 l190 0 q-1 69 1 229 l-103 1 l1 -1 q13 -11 26 -29 q9 -12 -3 -21 l-76 -58 l72 -43 q40 -25 27 -56 q-9 -27 -47 2 q-55 40 -96 67 q-80 -56 -163 -84 q-11 -3 -14 3 q-3 6 7 13 q67 44 129 93 q-14 9 -100 60 q-18 9 -16 14 q2 6 21 2 q64 -13 132 -45 q30 24 55 49 q15 13 28 30 l3 4 ZM226 513 q17 -10 18 -29 q2 -19 2 -52 q-2 -207 -7 -397 q-2 -54 -19 -85 q-19 -30 -34 -1 q-15 31 -14 73 q16 233 10 427 q0 11 -1 17 q-54 -70 -128 -148 q-11 -10 -17 -5 q-7 5 1 18 q205 329 236 396 q10 22 24 74 q4 19 20 12 q25 -10 41 -23 q12 -9 4 -27 l-7 -14 q2 2 14 1 q19 -4 24 -6 l118 1 q25 47 33 73 q3 9 7 27 q3 15 18 13 q28 -8 47 -20 q15 -9 3 -23 q-41 -53 -61 -69 q85 1 247 1 q19 0 34 8 q2 1 5 1 q5 4 16 0 q16 -5 31 -13 q14 -8 6 -24 q-3 -8 -5 -25 q-3 -123 -1 -229 q0 -39 -33 -52 q-21 -8 -24 3 l-2 6 q-41 1 -264 1 l0 -1 q13 -25 16 -40 q3 -14 -9 -21 q-150 -93 -253 -113 q-14 -3 -17 4 q-2 8 12 15 q154 83 231 155 l1 0 q-87 0 -130 1 l-2 0 q-5 -11 -19 -17 q-27 -11 -31 -1 q-4 12 -4 31 q0 236 -1 257 q-2 27 -5 42 q-3 11 -2 13 q-63 -125 -137 -230 l8 -5 ZM502 189 q57 -64 118 -105 q73 51 137 120 q-132 2 -238 -1 l-2 0 l-15 -14 ZM567 252 q72 2 201 2 q18 0 32 6 q1 1 3 1 q1 1 2 1 q9 1 19 -6 q11 -8 29 -30 q13 -17 -2 -29 q-25 -17 -51 -42 q-66 -61 -129 -103 q58 -32 130 -51 q34 -9 87 -15 q74 -9 89 -12 q34 -6 7 -21 q-12 -7 -26 -22 q-16 -17 -25 -23 q-14 -10 -38 -6 q-165 35 -277 117 q-132 -74 -311 -111 q-25 -5 -27 3 q-2 9 21 17 q164 58 275 127 q-52 48 -95 114 q-81 -72 -164 -108 q-10 -5 -15 1 q-3 6 7 14 q130 116 195 201 q13 17 23 35 q8 13 19 5 q19 -13 33 -30 q10 -12 -2 -24 l-10 -11 Z" /><glyph glyph-name="uni50CF" unicode="&#x50cf;" d="M218 523 q16 -11 19 -31 q1 -20 1 -54 q0 -177 -6 -420 q-2 -60 -20 -89 q-19 -34 -34 -1 q-15 31 -13 76 q15 250 9 451 l-1 19 q-44 -52 -113 -114 q-11 -9 -17 -3 q-7 5 2 17 q199 288 237 365 q13 24 25 66 q4 18 21 12 q25 -10 42 -25 q13 -10 4 -28 q-82 -145 -158 -239 l2 -2 ZM576 467 q40 47 73 106 q-137 0 -199 -2 q0 -70 -1 -104 l127 0 ZM700 705 q-104 2 -187 0 q-41 -47 -78 -83 l214 1 l51 82 ZM695 573 q8 -10 11 -19 q5 -11 -6 -26 q-16 -22 -47 -61 q72 1 196 1 q-1 28 -1 105 l-153 0 ZM692 256 q86 44 164 97 q22 17 27 22 q11 11 21 0 q18 -21 25 -38 q8 -15 -7 -22 q-128 -59 -179 -74 q63 -102 147 -163 q16 -12 46 -26 q36 -19 49 -27 q21 -14 0 -20 q-13 -5 -30 -14 q-19 -10 -28 -13 q-17 -7 -30 5 q-129 108 -183 251 l-19 -3 q15 -138 -5 -264 q-7 -50 -33 -71 q-36 -30 -49 4 q-3 9 -107 45 q-16 5 -15 13 q1 9 17 7 q84 -7 101 -6 q18 1 19 12 q12 83 12 168 q-158 -128 -327 -152 q-18 -2 -20 5 q-2 7 16 15 q208 80 329 217 q-2 32 -4 48 l-2 13 q-165 -130 -325 -156 q-16 -3 -18 5 q-3 7 14 14 q197 84 308 205 l3 3 q-1 4 -16 42 l-1 3 q-112 -107 -266 -139 q-19 -5 -22 4 q-3 7 16 16 q134 65 211 137 l-84 1 q-4 -10 -20 -15 q-27 -9 -32 -1 q-4 9 -4 24 l0 79 q0 53 -2 75 q-41 -33 -83 -59 q-10 -6 -15 -1 q-5 6 4 16 q176 208 211 263 q12 21 24 46 q6 17 20 7 q27 -15 40 -28 q12 -13 0 -27 l-34 -42 q97 0 142 1 q18 0 30 6 q1 1 3 1 l3 1 q9 1 19 -5 q14 -10 31 -28 q10 -15 -2 -27 q-48 -53 -80 -82 l119 0 q20 0 37 7 l2 1 q7 4 19 1 q13 -4 28 -11 q16 -7 9 -22 q-3 -7 -3 -20 l0 -130 q0 -32 -32 -42 q-22 -8 -25 3 q-2 4 -2 8 q-38 1 -244 1 l5 -5 q62 -59 74 -136 l3 -23 Z" /><glyph glyph-name="uni513F" unicode="&#x513f;" d="M313 470 q5 154 -4 295 q-1 18 3 22 q4 3 17 0 q21 -4 44 -17 q14 -7 13 -32 q-2 -33 -2 -113 q-1 -97 -3 -157 q-7 -218 -74 -334 q-65 -116 -228 -197 q-21 -10 -27 -4 q-5 6 12 19 q136 103 188 207 q56 113 61 311 ZM610 658 q0 74 -6 142 q-1 28 21 21 q30 -12 47 -23 q16 -11 12 -35 q-7 -51 -8 -106 q-7 -320 -1 -527 q3 -97 66 -103 q68 -6 133 2 q35 5 39 37 q15 101 14 98 q3 19 10 19 q7 -1 8 -21 q6 -104 24 -122 q29 -29 6 -52 q-23 -20 -81 -28 q-80 -9 -162 -1 q-61 7 -90 45 q-31 39 -33 122 q-2 103 0 282 q2 190 1 250 Z" /><glyph glyph-name="uni5145" unicode="&#x5145;" d="M544 688 q282 3 347 11 q27 4 37 -11 q13 -23 16 -36 q8 -27 -21 -24 q-126 7 -468 5 q13 -15 20 -27 q10 -18 -6 -32 q-107 -110 -197 -179 q233 18 461 28 q-47 64 -102 130 q-13 17 -8 21 q5 5 22 -4 q122 -62 202 -195 q31 -50 4 -78 q-27 -27 -53 21 q-21 39 -41 71 q-79 -12 -145 -19 q14 -3 24 -9 q15 -8 10 -24 q-3 -15 -5 -52 q-4 -133 -2 -222 q3 -49 56 -53 q103 -8 183 2 q35 3 39 25 q14 107 12 97 q3 15 10 14 q7 0 8 -18 q6 -97 21 -110 q26 -25 4 -44 q-22 -21 -79 -27 q-99 -8 -206 0 q-59 4 -85 31 q-25 26 -27 82 q-1 44 1 120 l1 106 q0 39 -3 73 l0 5 l-168 -17 l16 -9 q13 -9 9 -26 q-4 -15 -8 -42 l-9 -46 q-30 -125 -111 -195 q-85 -74 -246 -107 q-22 -5 -24 4 q-2 8 20 16 q250 100 294 291 q11 45 13 107 l0 1 q-41 -4 -106 -14 q-35 -5 -62 -16 q-15 -7 -23 5 q-13 22 -20 49 q-1 8 2 13 q4 4 8 5 q36 13 68 41 q83 75 150 153 q22 25 37 54 q-86 -1 -297 -1 q-20 0 -27 9 q-8 12 -14 30 q-5 16 11 16 q300 0 418 1 q-6 7 -11 17 q-22 45 -80 128 q-18 25 12 17 q76 -19 124 -97 q24 -38 -3 -62 l-3 -3 Z" /><glyph glyph-name="uni5148" unicode="&#x5148;" d="M562 656 q186 5 232 16 q26 7 36 -6 q13 -16 22 -39 q8 -25 -16 -24 q-97 3 -276 0 l-5 -199 q279 2 340 9 q26 4 36 -10 q13 -19 17 -35 q7 -25 -22 -24 q-84 6 -295 8 q10 -6 6 -21 q-2 -9 -4 -53 q-4 -140 -1 -229 q1 -49 53 -53 q85 -7 172 1 q34 4 36 26 l6 44 q3 28 6 44 q3 15 10 15 q6 -1 7 -17 q5 -91 20 -103 q26 -22 6 -42 q-23 -22 -77 -26 q-91 -9 -194 -1 q-104 8 -107 110 q-1 48 0 123 l2 111 q0 37 -3 71 l-137 -1 q5 -7 2 -21 q-3 -12 -8 -41 q-6 -29 -10 -45 q-30 -128 -103 -203 q-77 -78 -225 -126 q-20 -6 -23 2 q-3 8 16 18 q225 119 272 318 q10 47 12 98 l-246 -1 q-18 0 -25 8 q-8 11 -15 30 q-3 14 12 14 l402 1 l2 104 q2 71 2 96 q-62 -1 -209 -1 l-4 0 q-53 -90 -120 -150 q-8 -8 -14 -4 q-6 4 0 16 q106 201 123 257 q4 13 11 53 q3 18 20 13 q27 -10 45 -23 q12 -10 5 -26 q-25 -53 -42 -85 q141 2 186 2 q2 76 2 102 q0 43 -4 79 q-2 22 16 16 q28 -6 48 -15 q12 -6 10 -27 q-4 -31 -5 -62 l-3 -92 Z" /><glyph glyph-name="uni5149" unicode="&#x5149;" d="M640 494 q-9 -5 -15 0 q-4 5 4 15 q141 193 151 211 q11 21 18 39 q6 17 21 8 q28 -15 43 -28 q14 -14 2 -28 q-129 -160 -224 -217 ZM326 525 q-36 66 -149 206 q-12 15 -8 19 q4 5 20 -2 q106 -49 187 -167 q30 -43 4 -74 q-27 -28 -54 18 ZM361 390 l-241 0 q-19 0 -26 8 q-8 11 -14 29 q-5 15 10 15 l394 0 q4 254 4 318 q-2 50 -5 76 q-2 19 16 16 q21 -4 49 -15 q11 -6 9 -26 q-2 -18 -4 -60 q-3 -115 -6 -308 q278 2 349 10 q25 4 35 -10 q11 -18 16 -35 q7 -25 -20 -24 q-112 8 -320 6 q10 -5 15 -8 q13 -7 12 -24 l-3 -57 q-4 -125 -1 -240 q3 -52 54 -56 q88 -7 174 2 q34 4 38 27 l13 128 q3 17 10 17 q8 -1 9 -19 q4 -127 21 -144 q26 -25 5 -45 q-22 -21 -81 -27 q-92 -9 -196 -1 q-59 4 -84 32 q-26 26 -28 84 q-1 51 0 130 l2 116 q0 41 -3 78 l0 7 l-160 0 l18 -10 q14 -10 9 -28 q-3 -12 -9 -40 q-5 -28 -10 -43 q-35 -139 -107 -218 q-78 -86 -227 -140 q-21 -8 -24 0 q-4 9 15 20 q225 130 277 346 q10 40 14 105 l1 8 Z" /><glyph glyph-name="uni514B" unicode="&#x514b;" d="M271 317 q96 -1 244 1 l215 1 q-1 60 1 170 q-289 2 -459 -2 q2 -89 -1 -170 ZM616 266 q13 -5 10 -22 q-1 -7 -1 -20 l-1 -22 q-2 -102 0 -165 q1 -39 52 -43 q108 -7 198 1 q35 4 38 23 q12 89 13 93 q3 14 10 14 q6 0 7 -16 q7 -93 21 -107 q24 -21 5 -40 q-25 -22 -80 -26 q-103 -9 -218 -1 q-58 4 -84 29 q-25 23 -27 72 l0 170 q0 40 -2 60 l-145 0 l10 -6 q15 -10 8 -26 q-4 -9 -11 -32 l-11 -31 q-45 -112 -121 -175 q-84 -67 -232 -101 q-22 -5 -24 3 q-2 9 18 17 q230 96 292 269 q12 31 19 82 l-91 1 l0 -2 q-1 -17 -22 -25 q-29 -11 -33 -2 q-4 12 -4 30 q0 208 -1 225 q-2 27 -6 40 q-3 12 -1 14 q2 3 14 1 q16 -1 31 -8 l108 1 q69 0 104 1 l1 57 q0 36 1 55 l-332 0 q-18 0 -24 8 q-9 13 -14 30 q-5 14 11 14 l360 0 l0 74 q0 33 -4 62 q-1 19 15 16 q26 -5 52 -15 q11 -5 10 -23 q-4 -29 -4 -48 l-2 -65 q267 2 335 10 q24 4 34 -11 q12 -16 16 -34 q7 -24 -21 -23 q-123 7 -366 5 l-3 -112 l180 1 q21 0 40 7 l2 1 q7 4 19 1 q22 -6 32 -14 q12 -10 6 -27 q-4 -13 -6 -36 q-3 -34 -5 -171 l2 -8 q6 -20 3 -26 q-3 -5 -22 -5 q-51 1 -159 1 Z" /><glyph glyph-name="uni514D" unicode="&#x514d;" d="M489 498 q-155 -2 -229 -4 q1 -53 -1 -182 l203 0 q4 12 10 37 q13 55 17 145 l0 4 ZM361 684 q-70 -78 -138 -134 l12 -4 q202 4 301 5 l47 68 q28 39 44 63 q-176 0 -251 -3 q-10 0 -15 5 ZM553 492 q15 -9 10 -30 q-5 -18 -11 -58 q-7 -42 -12 -64 l-7 -27 l261 1 q0 67 2 186 l-255 -1 l12 -7 ZM764 553 q26 0 43 10 q6 2 8 2 q7 2 16 -1 q20 -5 34 -15 q15 -8 8 -27 q-8 -19 -9 -39 q-4 -49 -6 -177 l6 -17 q9 -22 6 -28 q-5 -7 -26 -7 q-69 2 -329 2 q-96 -257 -447 -344 q-29 -7 -31 2 q-3 9 25 20 q297 124 381 322 q-124 0 -186 1 l-1 -14 q-1 -17 -23 -27 q-32 -12 -35 -2 q-5 14 -5 32 l0 250 l-3 29 q-39 -28 -98 -63 q-11 -7 -16 -1 q-5 7 5 18 q197 193 280 316 q18 28 29 53 q9 16 23 7 q23 -14 39 -30 q12 -14 1 -29 l-50 -62 l222 3 q18 0 34 8 q4 2 7 2 q11 2 19 -5 q21 -16 32 -31 q11 -14 -1 -28 q-77 -90 -121 -131 l169 1 ZM967 0 q24 -21 4 -41 q-25 -21 -82 -25 q-114 -9 -240 -1 q-60 4 -87 27 q-24 23 -26 70 q-1 28 0 76 l1 70 q0 19 -2 52 q-2 16 15 13 q27 -4 45 -12 q14 -5 10 -21 q-2 -10 -4 -37 q-3 -103 -1 -140 q1 -35 56 -39 q107 -8 219 1 q38 4 40 22 q14 98 13 95 q4 14 10 13 q7 -1 8 -16 q7 -96 21 -107 Z" /><glyph glyph-name="uni515C" unicode="&#x515c;" d="M819 356 q-4 171 0 327 q-36 -2 -121 -4 q-13 0 -21 27 q-6 19 -5 25 q1 5 12 4 q45 -1 121 1 q13 0 23 6 q8 6 14 1 q2 0 8 -2 q24 -6 34 -16 q13 -8 6 -27 q-5 -17 -7 -46 q-3 -41 -7 -302 q3 -4 6 -16 q6 -20 4 -26 q-3 -7 -17 -5 l-96 0 q-60 0 -95 1 q-20 0 -25 19 q-5 21 -3 28 q2 5 15 5 l154 0 ZM207 663 q0 -168 -7 -289 q68 30 114 48 q22 9 26 2 q4 -7 -16 -24 q-28 -24 -73 -51 q-53 -33 -69 -45 q-7 -5 -28 -24 q-11 -11 -22 -1 q-13 13 -27 37 q-5 11 2 17 l4 2 q31 16 32 40 q6 126 1 259 q0 17 -4 41 q-4 18 15 17 q20 -2 31 -4 q60 37 88 68 q13 13 22 29 q9 13 21 7 q18 -8 35 -27 q12 -12 -3 -23 q-88 -61 -142 -76 l0 -3 ZM426 265 q15 -9 9 -25 q-5 -10 -12 -32 q-7 -21 -11 -31 q-46 -112 -124 -173 q-86 -69 -234 -101 q-23 -5 -25 3 q-2 9 20 18 q234 93 297 266 q13 31 20 81 q3 17 19 13 q24 -8 41 -19 ZM415 501 l-3 -120 q32 -1 92 0 l82 0 l0 119 q-138 0 -166 1 l-5 0 ZM587 656 q-93 2 -172 0 q1 -31 1 -109 l170 1 l1 108 ZM602 713 q6 2 16 -1 q12 -4 31 -14 q14 -8 7 -24 q-5 -11 -5 -28 q-3 -149 -1 -277 q1 -41 -32 -57 q-21 -9 -26 3 l-3 17 l-179 0 q-1 -14 -21 -25 q-27 -13 -30 -1 q-4 13 -4 33 q3 267 1 314 q-2 31 -6 47 q-2 12 0 15 q2 2 14 0 q19 -3 31 -10 l47 1 q28 70 38 105 q2 9 4 31 q1 13 15 12 q27 -3 46 -13 q14 -7 5 -22 q-54 -94 -74 -113 q64 0 95 1 q17 0 28 5 l3 1 ZM965 10 q25 -22 4 -41 q-20 -21 -76 -25 q-99 -9 -211 -1 q-56 4 -81 28 q-23 22 -25 71 q-1 33 0 91 l1 79 q0 32 -3 60 q-1 16 16 14 q31 -7 43 -13 q15 -6 10 -23 q-4 -22 -4 -41 q-4 -88 -1 -166 q1 -38 51 -42 q93 -7 190 1 q34 3 37 23 l5 51 q3 33 7 52 q3 15 10 15 q7 0 8 -17 q6 -104 19 -116 Z" /><glyph glyph-name="uni5165" unicode="&#x5165;" d="M478 579 q-23 57 -36 98 q-24 73 -63 81 q-18 4 -21 29 q-3 28 22 24 q69 -8 107 -112 q123 -326 319 -542 q33 -37 84 -85 q55 -52 77 -76 q17 -18 16 -22 q-2 -4 -24 -4 q-12 1 -28 -3 q-21 -7 -29 -8 q-23 -4 -44 20 q-221 234 -343 509 q-181 -374 -454 -538 q-23 -12 -27 -6 q-5 7 15 26 q281 251 426 604 l3 5 Z" /><glyph glyph-name="uni5168" unicode="&#x5168;" d="M238 487 q-84 -63 -175 -108 q-23 -10 -27 -3 q-4 7 14 22 q186 142 307 273 q78 85 136 173 q11 18 26 8 q22 -13 34 -25 q14 -15 -1 -31 l-24 -28 q162 -159 316 -236 q26 -13 70 -30 q59 -22 73 -28 q29 -12 6 -22 q-14 -5 -28 -17 q-18 -14 -25 -18 q-17 -10 -39 1 q-238 127 -393 327 q-66 -76 -102 -111 q-77 -74 -137 -124 l231 3 q139 1 220 5 q24 0 32 -23 q14 -35 -14 -35 l-214 0 l2 -1 q13 -5 10 -25 q-2 -19 -4 -64 l-2 -84 q137 2 204 5 q25 1 34 -22 q8 -21 5 -28 q-4 -6 -20 -7 q-76 -1 -223 -1 l-3 -203 q264 2 312 7 q27 4 37 -11 q13 -22 15 -36 q6 -24 -20 -21 q-148 13 -721 5 q-19 0 -25 8 q-7 10 -13 30 q-5 15 10 16 l182 1 q109 0 161 1 q0 80 2 203 q-141 0 -210 1 q-26 0 -38 20 q-10 19 -8 25 q2 5 21 5 l235 1 l0 93 q-2 53 -6 80 l0 2 l-182 0 q-27 0 -38 20 l-3 7 Z" /><glyph glyph-name="uni516B" unicode="&#x516b;" d="M325 508 q13 43 20 97 q5 20 22 15 q29 -10 44 -22 q13 -9 7 -29 q-115 -375 -364 -584 q-13 -10 -20 -5 q-6 6 5 19 q216 274 286 509 ZM472 759 q-1 30 21 23 q50 -15 80 -103 q99 -313 266 -525 q28 -35 74 -85 q45 -48 65 -75 q16 -18 15 -23 q-2 -4 -24 -2 q-11 1 -28 -3 q-20 -6 -28 -7 q-24 -1 -42 22 q-237 290 -344 677 q-17 57 -40 70 q-15 10 -15 31 Z" /><glyph glyph-name="uni516C" unicode="&#x516c;" d="M424 730 q-148 -269 -343 -411 q-12 -9 -17 -3 q-6 5 4 17 q196 224 268 372 q13 27 25 68 q6 17 21 10 q23 -11 40 -27 q11 -11 2 -26 ZM193 56 q43 17 80 68 q77 107 161 252 q23 44 38 88 q8 23 25 12 q24 -18 37 -36 q12 -15 -1 -35 q-118 -194 -229 -337 q182 22 401 37 q-14 24 -92 148 q-12 20 -7 24 q5 4 23 -8 q121 -85 201 -244 q30 -58 -4 -86 q-28 -24 -51 32 q-14 31 -49 98 q-96 -17 -245 -39 q-141 -20 -198 -31 q-31 -6 -59 -18 q-15 -6 -24 4 q-15 24 -22 51 q-5 17 11 19 l4 1 ZM980 368 q17 -14 15 -18 q-1 -4 -23 -7 q-12 -2 -30 -9 q-21 -8 -31 -10 q-20 -4 -40 14 q-193 189 -273 384 q-14 33 -32 55 q-11 11 -7 32 q7 31 24 17 q30 -24 57 -76 q91 -173 220 -287 q24 -20 63 -50 q38 -30 57 -45 Z" /><glyph glyph-name="uni5171" unicode="&#x5171;" d="M373 213 q21 -13 41 -32 q12 -14 0 -28 q-163 -186 -284 -252 q-11 -6 -15 0 q-5 5 4 15 q162 178 208 246 q12 19 24 43 q8 17 22 8 ZM639 194 q129 -48 247 -181 q42 -46 16 -83 q-21 -36 -59 13 q-74 94 -216 232 q-17 16 -12 21 q4 6 24 -2 ZM384 299 l136 1 q80 0 119 1 l5 247 l-260 0 l0 -249 ZM706 548 q-4 -141 -5 -247 q185 4 228 10 q31 5 41 -12 q14 -21 18 -37 q7 -27 -22 -26 q-148 9 -880 6 q-21 0 -27 9 q-11 13 -17 31 q-5 16 11 16 l274 1 l-1 130 q0 81 -1 120 l-132 0 q-31 1 -42 21 q-12 19 -10 24 q4 5 24 5 l159 1 q0 51 -2 128 q0 39 -5 93 q-2 14 1 16 q2 3 14 -1 q29 -8 39 -13 q12 -8 13 -30 q1 -18 1 -77 l-1 -116 l131 2 q87 0 130 1 l1 141 q0 42 -5 95 q-1 13 2 17 q3 4 16 2 q27 -9 48 -19 q11 -8 9 -30 q-4 -36 -5 -76 l-3 -129 l140 3 q27 1 37 -23 q14 -35 -18 -35 l-161 -1 Z" /><glyph glyph-name="uni5173" unicode="&#x5173;" d="M376 661 q-24 49 -103 159 q-9 13 -5 17 q3 4 17 -2 q84 -33 141 -126 q25 -40 -1 -63 q-27 -29 -49 15 ZM474 561 q-89 0 -259 2 q-29 0 -40 19 q-11 20 -8 25 q2 6 21 6 q255 0 378 2 q112 173 119 188 q8 18 15 40 q6 17 21 9 q28 -13 44 -28 q14 -12 3 -28 q-100 -132 -160 -180 q71 1 199 7 q26 1 36 -23 q8 -20 5 -27 q-4 -6 -21 -7 q-102 -3 -301 -5 q3 -1 10 -6 q13 -7 10 -28 q-3 -20 -8 -70 q-5 -50 -11 -80 l-6 -34 q301 3 363 10 q26 4 37 -11 q13 -22 16 -34 q5 -25 -20 -24 q-109 7 -368 7 q95 -181 259 -261 q32 -15 86 -32 q71 -22 88 -28 q29 -12 3 -22 q-14 -6 -33 -18 q-19 -16 -28 -20 q-18 -7 -41 2 q-276 108 -370 379 l-5 -1 q-42 -142 -144 -231 q-104 -89 -290 -142 q-28 -8 -31 0 q-3 9 24 21 q301 133 372 352 l-320 -1 q-20 0 -25 8 q-10 16 -14 30 q-5 15 10 15 l364 0 q6 27 8 40 q12 72 12 173 l0 6 Z" /><glyph glyph-name="uni5174" unicode="&#x5174;" d="M485 552 q-20 94 -87 247 q-8 19 -3 23 q5 3 20 -10 q96 -77 134 -219 q15 -57 -18 -76 q-36 -22 -46 35 ZM262 494 q-26 63 -119 213 q-10 16 -6 20 q5 5 20 -4 q98 -54 162 -178 q26 -50 -6 -76 q-31 -27 -51 25 ZM358 300 q30 -18 44 -32 q12 -14 1 -29 q-162 -217 -319 -304 q-12 -6 -17 0 q-5 6 5 16 q175 187 238 289 q20 39 25 51 q8 18 23 9 ZM587 281 q138 -88 252 -270 q37 -58 7 -90 q-23 -26 -52 27 q-61 113 -223 317 q-15 20 -10 25 q5 4 26 -9 ZM949 371 q4 -15 0 -19 q-4 -6 -22 -5 q-85 4 -806 4 q-19 0 -25 9 q-10 15 -15 30 q-5 15 11 15 q392 0 528 2 q147 265 159 295 q11 30 18 60 q3 19 21 14 q32 -15 47 -26 q14 -10 5 -28 q-110 -206 -213 -314 q193 3 238 9 q28 4 37 -11 q13 -18 17 -35 Z" /><glyph glyph-name="uni5176" unicode="&#x5176;" d="M392 148 q20 -16 35 -37 q10 -14 -4 -27 q-187 -150 -302 -191 q-12 -4 -16 3 q-3 6 8 14 q142 110 227 199 q18 17 30 35 q10 14 22 4 ZM812 -12 q43 -39 21 -75 q-21 -32 -59 9 q-71 76 -212 184 q-16 13 -12 18 q3 6 23 1 q124 -31 239 -137 ZM337 214 q150 0 332 2 l2 110 q-51 1 -162 1 q-114 -1 -171 0 l-1 -113 ZM675 642 l-335 0 l-1 -109 q63 -1 178 1 l156 0 l2 108 ZM338 374 q72 -1 178 0 l155 1 l2 108 l-163 0 q-107 0 -171 1 l-1 -110 ZM740 644 q-5 -209 -8 -426 q143 1 199 8 q30 4 40 -13 q13 -21 17 -36 q7 -26 -21 -24 q-157 11 -882 6 q-21 0 -28 9 q-10 14 -14 30 q-6 15 10 15 l227 1 l0 232 q0 138 -1 198 l-110 1 q-30 0 -41 19 q-10 18 -8 24 q3 5 22 5 l136 0 l0 27 q-2 57 -8 104 q-1 14 1 17 q4 3 16 0 q24 -6 43 -17 q12 -7 12 -30 q-2 -45 -2 -85 l0 -16 q171 0 335 3 l0 35 q0 54 -6 107 q-1 15 2 20 q3 3 16 0 q30 -9 48 -20 q14 -6 12 -32 q-4 -47 -4 -87 l-1 -22 l105 3 q25 1 36 -22 q8 -19 4 -26 q-3 -6 -21 -7 l-126 -1 Z" /><glyph glyph-name="uni5177" unicode="&#x5177;" d="M365 144 q24 -20 36 -36 q11 -14 -3 -26 q-173 -147 -288 -189 q-11 -4 -16 3 q-3 6 8 14 q143 117 214 195 q16 16 26 34 q11 15 23 5 ZM878 -6 q46 -38 27 -78 q-18 -34 -61 7 q-94 90 -234 184 q-19 13 -16 18 q2 7 24 2 q129 -24 260 -133 ZM716 296 q-62 1 -197 1 q-138 -1 -209 0 q0 -32 -3 -86 q0 -5 -1 -8 l228 1 q125 0 183 1 l-1 91 ZM715 725 q-254 2 -404 -2 q1 -14 1 -43 l1 -50 q84 -1 213 1 l189 1 l0 93 ZM311 347 q77 -1 216 1 l189 0 l-1 91 q-61 1 -195 1 q-137 -1 -207 0 l-2 -93 ZM715 580 q-61 1 -195 1 q-137 -1 -207 1 l0 -93 q86 -1 213 0 l189 1 l0 90 ZM248 218 q3 379 -2 486 q-2 45 -6 69 q-3 14 -1 16 q3 3 16 1 q18 -5 30 -12 q51 1 404 4 q22 0 37 8 q8 8 26 3 q27 -11 37 -19 q13 -13 7 -33 q-7 -28 -9 -69 q-4 -77 -6 -466 q109 2 152 6 q32 4 42 -11 q12 -18 19 -37 q7 -25 -22 -24 q-199 16 -893 7 q-21 0 -28 8 q-9 14 -15 31 q-5 15 11 15 l104 1 q64 0 97 1 l0 15 Z" /><glyph glyph-name="uni5179" unicode="&#x5179;" d="M364 689 q-22 46 -83 131 q-16 23 12 17 q74 -21 124 -99 q24 -38 -1 -63 q-30 -28 -52 14 ZM295 596 l-193 0 q-20 1 -27 10 q-8 11 -13 28 q-5 16 10 16 q289 -2 489 0 q77 119 91 157 q7 21 10 36 q4 19 21 10 q28 -12 45 -25 q13 -12 3 -27 q-73 -107 -125 -151 q235 3 294 11 q24 4 35 -10 q13 -23 16 -35 q7 -25 -21 -24 q-91 4 -235 4 q18 -13 28 -24 q10 -13 0 -30 q-64 -111 -132 -205 q68 7 175 15 q22 38 35 75 q9 21 24 10 q20 -15 33 -33 q10 -14 -2 -33 q-122 -184 -246 -328 l200 21 q-18 48 -38 97 q-7 17 -2 21 q5 3 17 -7 q76 -65 115 -188 q15 -47 -15 -64 q-29 -18 -40 28 q-12 45 -26 84 q-58 -19 -139 -36 q-90 -17 -115 -24 q-24 -7 -43 -17 q-16 -7 -24 6 q-13 21 -21 48 q-3 9 2 14 q4 4 7 5 q59 17 100 67 q76 94 154 216 q-37 -10 -101 -22 q-60 -10 -85 -18 q-17 -5 -36 -14 q-14 -9 -23 5 q-12 18 -19 45 q-3 12 4 15 l5 3 q44 16 66 48 q43 65 89 155 q15 35 21 62 l1 3 l-343 0 q17 -11 30 -27 q10 -16 -1 -31 q-70 -114 -143 -210 q81 8 158 12 l16 25 q23 41 43 90 q7 22 22 9 q20 -13 34 -32 q10 -15 -2 -33 q-138 -211 -262 -360 q116 15 173 20 q-14 49 -37 119 q-11 37 16 13 q73 -67 103 -189 q12 -48 -20 -65 q-33 -18 -42 32 q-2 12 -11 53 q-51 -17 -127 -33 q-80 -15 -105 -23 q-17 -6 -41 -19 q-17 -8 -25 5 q-14 23 -23 50 q-5 16 9 18 q2 2 4 2 q62 17 104 71 q66 85 145 206 q-34 -9 -92 -19 q-54 -10 -76 -17 q-17 -6 -35 -15 q-17 -9 -24 5 q-14 25 -20 48 q-1 3 -1 7 q0 3 1 4 q1 6 10 7 q44 14 67 48 q51 72 99 161 q13 26 25 63 l2 5 Z" /><glyph glyph-name="uni517B" unicode="&#x517b;" d="M409 295 q14 -8 10 -24 q-3 -13 -6 -38 l-8 -42 q-21 -112 -78 -177 q-61 -68 -181 -111 q-16 -6 -19 1 q-4 6 11 17 q172 108 204 277 q7 37 9 98 q0 20 18 15 q19 -4 40 -16 ZM427 568 l10 28 q8 23 19 60 q-162 0 -265 1 q-16 0 -21 8 q-8 11 -13 28 q-3 14 10 14 q79 -1 219 -1 q-8 6 -12 16 q-19 37 -69 108 q-15 22 10 15 q64 -14 107 -79 q21 -34 -1 -55 q-4 -4 -6 -5 q109 0 156 1 q51 93 58 115 q5 12 8 26 q3 18 19 11 q30 -13 44 -26 q15 -12 5 -26 q-55 -68 -94 -100 q165 3 213 10 q22 3 30 -10 q11 -18 14 -32 q5 -22 -19 -21 q-80 4 -329 2 q10 -10 3 -29 q-9 -25 -23 -58 q128 0 276 5 q25 1 34 -22 q13 -33 -15 -33 q-214 -2 -318 -1 q-22 -50 -49 -90 q385 3 445 9 q28 2 37 -11 q12 -16 16 -33 q7 -25 -20 -22 q-103 7 -281 7 q100 -105 210 -144 q23 -8 65 -18 q50 -11 69 -16 q28 -7 4 -20 q-12 -7 -27 -21 q-16 -15 -24 -20 q-16 -10 -35 -1 q-137 50 -223 139 l-5 -287 q-3 -59 -23 -94 q-16 -28 -26 1 q-12 33 -12 90 l1 240 q0 29 -2 64 q-2 15 1 17 q2 2 18 -1 q11 -1 27 -8 q-28 32 -57 79 l-192 0 q-114 -152 -327 -222 q-17 -5 -21 2 q-3 7 13 17 q168 89 259 202 l-200 -1 q-18 -1 -24 7 q-8 11 -13 29 q-5 14 10 14 q95 1 264 1 q29 44 49 91 q-104 0 -155 1 q-27 0 -38 19 q-9 18 -7 24 q2 5 20 5 l203 1 Z" /><glyph glyph-name="uni517C" unicode="&#x517c;" d="M565 267 l1 97 l-127 0 l-1 -98 l127 1 ZM440 412 l126 0 l0 94 l-125 -2 l-1 -92 ZM432 651 q12 -12 12 -33 q-1 -11 -1 -31 l-1 -31 q83 0 123 1 l0 11 q-2 53 -5 82 l0 1 l-128 0 ZM624 507 q-1 -29 -1 -94 q58 0 136 2 l2 95 l-137 -3 ZM759 364 l-136 0 l-1 -97 q48 1 136 1 l1 96 ZM820 264 q6 -4 10 -19 q7 -20 4 -25 q-4 -7 -25 -6 q-104 2 -161 2 q101 -102 214 -159 q21 -12 59 -25 q46 -16 63 -23 q25 -12 3 -22 q-14 -5 -30 -17 q-19 -14 -27 -18 q-16 -8 -35 2 q-170 93 -273 238 l0 -203 q0 -50 -16 -83 q-11 -19 -20 -19 q-10 0 -16 18 q-12 34 -10 83 q2 75 4 228 l-127 -1 q-2 -147 -4 -216 q-1 -57 -18 -92 q-10 -19 -20 -19 q-11 0 -16 19 q-10 33 -8 82 l6 165 q-169 -162 -329 -207 q-19 -5 -22 2 q-3 7 14 18 q191 110 302 248 q-102 0 -154 1 q-27 0 -33 20 q-7 20 -4 25 q2 5 22 5 q106 -2 207 0 q0 34 2 98 q-78 -1 -263 -1 q-17 0 -24 8 q-11 17 -14 27 q-4 14 11 14 l290 0 l0 91 l-168 -2 q-18 -1 -31 26 q-10 20 -8 25 q2 5 18 4 q60 -1 189 -1 l0 17 q0 42 -6 79 q-115 0 -183 1 q-17 0 -23 7 q-9 14 -12 29 q-5 14 9 14 l211 -1 l-3 6 q-16 32 -80 114 q-8 10 -5 14 q3 4 16 1 q70 -16 117 -85 q18 -27 3 -50 l146 1 q49 84 61 114 q5 12 10 29 q4 17 19 9 q25 -12 40 -24 q12 -10 3 -25 q-56 -73 -85 -102 q155 2 205 9 q21 3 31 -10 q11 -19 14 -32 q5 -23 -20 -22 q-87 4 -235 4 l2 -2 q12 -8 11 -31 q-3 -32 -3 -60 q45 0 115 2 q20 0 34 7 q3 2 9 2 q3 1 11 -1 q26 -9 34 -17 q13 -8 6 -26 q-6 -21 -7 -43 q-2 -34 -3 -66 q51 1 85 5 q26 2 35 -10 q10 -14 15 -32 q7 -22 -18 -21 q-38 2 -119 4 l-2 -99 Z" /><glyph glyph-name="uni5185" unicode="&#x5185;" d="M898 610 q-8 -21 -8 -49 q-2 -73 0 -266 q2 -201 0 -302 q-2 -51 -32 -72 q-36 -27 -47 0 q-3 6 -112 43 q-12 4 -11 11 q1 7 16 6 q79 -1 100 1 q16 2 17 11 q6 283 1 599 l-278 0 q-13 -110 -37 -185 q131 -54 234 -176 q38 -46 18 -78 q-21 -32 -55 12 q-81 105 -206 217 q-59 -157 -225 -263 q-18 -11 -24 -6 q-5 5 9 20 q192 181 221 459 q-183 -2 -272 -4 q0 -31 1 -49 q0 -206 -6 -504 q-1 -65 -20 -100 q-10 -20 -21 -21 q-11 0 -18 20 q-10 33 -8 83 q14 306 8 544 q-2 45 -10 77 q-6 24 16 18 q20 -5 32 -14 q99 3 303 5 q7 100 3 194 q-1 15 4 20 q3 3 15 1 q19 -6 41 -17 q13 -7 12 -30 q-3 -25 -5 -75 l-6 -93 q83 1 236 1 q26 0 48 11 q10 5 17 2 q2 0 8 -2 q21 -9 33 -18 q15 -13 8 -31 Z" /><glyph glyph-name="uni518D" unicode="&#x518d;" d="M533 215 q97 0 218 3 q0 92 -1 137 q-68 1 -215 1 l-2 -141 ZM475 356 q-102 -1 -208 0 l-2 -142 l209 1 l1 141 ZM267 520 l0 -113 l209 0 l0 138 q-110 0 -211 -3 l2 -22 ZM750 408 l-1 70 q0 45 -1 67 q-109 1 -210 0 l-2 -137 l214 0 ZM765 611 q6 3 16 0 q14 -6 30 -18 q17 -11 10 -29 q-9 -20 -10 -45 q-1 -81 3 -300 q84 1 121 6 q30 4 40 -11 q14 -25 18 -35 q7 -25 -22 -24 q-70 5 -156 6 q2 -91 0 -179 q-1 -47 -29 -68 q-35 -25 -46 0 q-2 6 -80 37 q-13 5 -12 11 q1 6 16 6 q85 -1 85 14 q2 115 2 180 q-114 2 -487 0 l-2 -152 q-2 -65 -18 -96 q-10 -18 -20 -18 q-11 0 -17 17 q-11 36 -8 79 q4 115 5 170 l-126 -1 q-21 0 -28 8 q-7 12 -14 29 q-5 15 11 15 l158 1 q3 155 -1 300 q-1 42 -9 74 q-6 23 14 18 q19 -6 29 -12 l9 0 q193 3 229 3 l0 31 q0 38 -5 86 l0 3 q-98 0 -284 2 q-31 1 -43 22 q-12 18 -9 23 q4 5 24 5 q444 0 692 9 q27 0 37 -24 q8 -19 4 -27 q-3 -7 -21 -7 l-342 -3 l4 -2 q11 -6 10 -27 q-2 -22 -4 -70 l0 -20 l180 1 q25 0 42 10 l4 2 Z" /><glyph glyph-name="uni5192" unicode="&#x5192;" d="M273 9 q93 -1 258 1 l223 0 q-1 23 -1 83 q-73 1 -230 1 q-163 -1 -247 1 q-1 -44 -3 -86 ZM754 355 q-297 0 -476 -5 q2 -23 2 -78 q90 -1 253 1 l220 0 l1 82 ZM753 223 q-72 1 -230 1 q-162 -1 -245 1 q0 -56 -1 -83 q92 -1 255 1 l221 0 l0 80 ZM271 -45 q0 -20 -22 -31 q-29 -15 -33 -2 q-4 12 -4 40 q3 330 1 376 q-2 38 -6 57 q-3 13 0 16 q2 2 15 0 q17 -3 29 -9 q239 4 471 6 q22 0 40 7 q8 2 11 2 q8 0 13 -2 q10 -3 34 -16 q13 -10 6 -27 q-6 -11 -6 -34 q-4 -123 1 -338 q1 -50 -35 -68 q-22 -11 -25 4 q-2 5 -4 21 q-74 1 -235 1 q-166 -1 -251 1 l0 -4 ZM276 517 q-5 20 -3 24 q2 5 19 5 q81 -1 226 1 l196 0 q18 0 23 -3 q5 -3 9 -17 q8 -20 5 -26 q-4 -5 -21 -5 q-64 1 -205 1 q-145 -1 -219 1 q-23 0 -30 19 ZM316 619 q-21 0 -26 17 q-5 19 -3 24 q2 4 17 4 q78 -1 217 1 l187 0 q24 0 30 -19 q5 -18 3 -23 q-3 -5 -18 -5 q-62 1 -197 1 q-138 -1 -210 0 ZM897 755 q-8 -18 -8 -37 q-1 -34 0 -95 l0 -107 q-2 -31 -23 -48 q-28 -20 -39 3 q-4 14 -3 49 q2 39 2 103 q0 77 1 112 q-363 0 -621 -8 q0 -123 -3 -202 q-1 -35 -18 -54 q-21 -21 -35 0 q-13 20 -11 47 q7 122 4 224 q-2 22 -7 39 q-6 17 13 14 q27 -6 38 -11 q5 -1 8 -4 q164 3 594 8 q28 0 47 9 q8 4 13 3 q6 0 9 -1 q21 -7 34 -16 q12 -9 5 -28 Z" /><glyph glyph-name="uni5199" unicode="&#x5199;" d="M693 134 q7 -24 -20 -23 q-66 4 -558 4 q-15 0 -22 8 q-8 13 -13 31 q-2 15 10 15 q487 0 558 10 q22 4 31 -11 q11 -16 14 -34 ZM352 502 l-20 -151 q234 4 433 3 q27 0 47 6 q9 2 14 1 q7 0 11 -2 q23 -15 36 -25 q13 -12 4 -26 q-8 -14 -13 -34 l-23 -140 q-17 -102 -28 -158 q-10 -51 -44 -67 q-42 -18 -48 8 q-2 8 -114 49 q-12 5 -10 11 q1 6 16 5 q125 -13 129 0 q25 121 52 312 q-260 3 -514 -3 q-20 0 -18 15 q-1 5 0 12 q35 245 34 338 q0 13 4 15 q4 4 19 0 q24 -5 40 -14 q15 -9 11 -27 l-11 -76 q322 2 433 8 q24 1 34 -24 q14 -36 -16 -36 q-237 -3 -456 0 l-2 0 ZM888 745 q18 -22 1 -34 q-21 -11 -32 -23 q-27 -29 -83 -100 q-44 -38 -26 17 q11 35 45 111 q-398 2 -561 -1 l-10 0 q-7 -60 -41 -127 q-31 -63 -61 -34 q-24 24 -7 56 q58 107 86 185 q5 15 12 15 q7 0 9 -14 l3 -24 q286 3 548 3 q26 0 46 7 q9 3 14 2 q6 0 14 -5 q24 -14 43 -34 Z" /><glyph glyph-name="uni51A0" unicode="&#x51a0;" d="M180 766 q186 3 625 6 q29 0 49 8 q6 2 8 2 q10 6 25 -2 q29 -18 45 -36 q21 -23 1 -34 q-25 -14 -28 -17 q-23 -20 -59 -63 q-28 -20 -35 -17 q-6 3 1 34 q5 22 25 65 q-373 2 -634 -4 q-14 0 -20 3 q-3 -51 -29 -118 q-28 -67 -60 -37 q-24 24 -11 54 q46 104 68 184 q4 15 10 15 q5 0 10 -12 q4 -10 8 -31 l1 0 ZM606 86 q-11 5 -10 11 q0 7 13 6 q112 -2 113 11 q4 156 6 326 q-120 0 -203 1 q-13 0 -17 8 q-8 11 -11 31 q-3 16 9 15 q162 0 222 1 l0 90 q-2 38 -5 53 q-4 19 17 14 q24 -6 47 -19 q11 -8 9 -25 q-4 -20 -6 -52 l-1 -60 q68 1 107 7 q16 4 25 -10 q8 -13 12 -33 q3 -22 -18 -22 q-37 2 -126 2 q-3 -300 -5 -329 q-2 -50 -28 -71 q-35 -27 -46 1 q-4 12 -104 44 ZM663 227 q-26 -26 -47 12 q-15 28 -86 119 q-18 22 10 15 q73 -18 124 -90 q23 -34 -1 -56 ZM495 572 q7 -21 4 -28 q-2 -6 -18 -6 q-131 -4 -270 -1 q-25 1 -33 19 q-8 20 -7 26 q2 6 17 6 q224 2 277 6 q22 1 30 -22 ZM416 354 q11 -7 10 -24 q-2 -17 -2 -53 q-5 -147 -2 -212 q2 -33 20 -48 q20 -16 68 -20 q172 -11 325 3 q55 6 59 31 q2 10 7 49 q4 31 9 48 q5 16 11 16 q6 0 7 -18 q5 -98 23 -114 q28 -24 1 -43 q-27 -22 -102 -29 q-162 -12 -345 -1 q-76 5 -110 35 q-33 28 -35 89 q-3 46 -1 114 l2 103 q0 40 -4 75 l0 3 l-86 -1 q14 -7 11 -25 l-11 -91 q-16 -122 -61 -194 q-48 -75 -148 -132 q-15 -7 -20 -2 q-4 6 7 17 q139 127 162 316 q5 42 5 109 l0 2 q-27 1 -89 1 q-13 0 -17 7 q-7 11 -12 30 q-2 15 10 15 q332 0 379 8 q18 3 25 -10 q8 -14 10 -32 q4 -21 -17 -20 q-57 2 -97 2 l8 -4 Z" /><glyph glyph-name="uni51AC" unicode="&#x51ac;" d="M680 7 q75 -26 70 -73 q-3 -36 -71 -7 q-263 107 -414 154 q-29 10 -28 17 q0 7 29 5 q163 -6 414 -96 ZM634 135 q-110 67 -236 119 q-18 8 -17 14 q1 6 20 6 q110 0 251 -72 q48 -24 39 -61 q-9 -36 -57 -6 ZM371 650 q83 -94 169 -158 q97 78 176 174 q-235 2 -333 -1 l-12 -15 ZM972 304 q19 -6 20 -11 q2 -5 -13 -12 q-14 -6 -30 -19 q-20 -17 -27 -21 q-20 -11 -45 -2 q-194 67 -335 177 q-187 -123 -465 -188 q-32 -7 -34 2 q-3 8 27 19 q264 94 424 209 q-79 72 -146 165 q-89 -103 -209 -174 q-12 -7 -16 -1 q-5 6 5 16 q152 164 209 250 q0 6 5 7 q28 44 35 58 q15 27 25 56 q8 16 23 9 q23 -12 42 -29 q13 -14 2 -29 q-29 -43 -43 -63 q106 1 297 1 q24 0 39 10 q9 4 15 2 q5 0 14 -5 q16 -12 34 -34 q15 -20 -2 -32 q-31 -26 -61 -57 q-83 -89 -168 -155 q82 -54 173 -89 q38 -15 100 -32 q89 -23 105 -28 Z" /><glyph glyph-name="uni51B0" unicode="&#x51b0;" d="M77 687 q-21 20 8 18 q76 -5 143 -71 q32 -31 10 -58 q-23 -33 -51 3 q-29 36 -110 108 ZM252 460 q12 16 19 12 q7 -4 2 -21 q-25 -79 -157 -304 q-11 -19 -29 -13 q-25 9 -45 23 q-18 12 -2 24 q17 11 30 25 q23 26 182 254 ZM504 565 q-11 -27 -28 -84 q-91 -317 -311 -487 q-19 -14 -24 -9 q-6 5 10 24 q204 238 274 538 l-135 -6 q-12 -1 -21 26 q-7 20 -6 26 q1 5 12 4 q73 0 139 6 q13 0 24 7 l6 3 q7 3 17 -1 q25 -9 37 -20 q14 -10 6 -27 ZM606 611 q22 -82 56 -164 q116 116 163 177 l21 34 q7 15 22 6 q21 -14 38 -33 q13 -14 -1 -26 q-141 -139 -232 -182 q64 -140 165 -244 q26 -27 73 -61 q55 -40 74 -56 q13 -12 12 -17 q0 -5 -17 -6 q-13 -1 -32 -9 q-22 -9 -33 -11 q-22 -4 -40 14 q-195 180 -272 454 q0 -404 -4 -503 q-3 -51 -29 -74 q-36 -30 -46 0 q-4 12 -108 47 q-11 5 -10 11 q0 7 13 7 q116 -2 116 10 q12 384 7 768 q0 40 -6 75 q-4 22 18 14 q24 -7 48 -22 q12 -10 9 -31 q-4 -25 -6 -73 q-1 -15 -1 -47 l-1 -50 l3 -8 Z" /><glyph glyph-name="uni51B2" unicode="&#x51b2;" d="M94 697 q-11 10 -8 15 q3 5 18 3 q92 -16 161 -100 q32 -38 10 -66 q-26 -33 -55 8 q-37 55 -126 140 ZM272 419 q11 16 18 12 q7 -5 2 -21 q-42 -124 -169 -335 q-11 -18 -29 -11 q-23 11 -42 27 q-16 14 -2 24 q21 15 30 27 l192 277 ZM640 294 q65 1 179 1 q0 151 3 284 l-178 0 q-2 -189 -4 -285 ZM579 294 l0 284 q-62 0 -168 -2 q3 -126 0 -282 l168 0 ZM644 631 q54 1 152 1 q20 0 38 7 q8 2 11 2 q4 0 12 -2 q20 -5 35 -15 q12 -10 6 -30 q-7 -20 -8 -45 q-5 -73 -9 -260 q2 -2 7 -16 q7 -22 4 -28 q-3 -6 -22 -5 q-36 1 -231 1 l-2 -138 q-2 -109 -24 -186 q-16 -50 -25 2 q-13 72 -11 178 l1 144 q-79 -2 -160 0 q-6 0 -8 1 l-1 -16 q-2 -20 -22 -30 q-28 -13 -32 -1 q-5 13 -5 36 q0 323 -1 343 q-1 30 -7 51 q-3 13 -1 15 q2 4 16 1 q22 -4 36 -13 l186 3 l0 71 q0 66 -4 130 q-2 18 1 20 q2 3 19 -1 q21 -4 43 -15 q14 -8 12 -34 q-5 -48 -5 -102 l-1 -69 Z" /><glyph glyph-name="uni51B3" unicode="&#x51b3;" d="M87 699 q-12 10 -9 15 q3 5 19 3 q100 -17 177 -104 q33 -38 11 -68 q-24 -35 -55 7 q-46 63 -143 147 ZM273 389 q12 16 19 12 q6 -4 1 -22 q-30 -90 -169 -315 q-11 -20 -29 -11 q-25 11 -45 27 q-16 16 -2 25 q17 11 31 27 q22 22 194 257 ZM620 591 l-3 -89 q-3 -86 -16 -159 q85 0 192 3 q0 131 3 248 l-176 -3 ZM590 290 q-34 -142 -119 -233 q-83 -90 -236 -156 q-26 -10 -31 -4 q-5 5 16 19 q248 155 303 374 l-199 0 q-17 0 -23 8 q-8 11 -13 29 q-4 15 10 15 l237 0 q13 80 16 162 q2 62 2 85 l-167 -3 q-17 0 -29 28 q-11 21 -9 27 q2 7 18 6 q59 -1 188 -1 q0 90 -5 182 q-1 17 3 22 q4 3 17 0 q25 -6 44 -16 q14 -9 11 -35 q-1 -15 -3 -152 l147 3 q21 1 34 9 q3 2 9 4 q7 3 18 0 q20 -6 32 -14 q13 -10 7 -28 q-8 -18 -9 -42 q-4 -49 -8 -232 q62 3 91 6 q23 4 32 -11 q12 -16 15 -33 q6 -24 -20 -23 q-82 4 -320 4 q79 -168 209 -269 q24 -19 67 -40 q52 -26 70 -37 q23 -16 -2 -21 q-13 -4 -32 -16 q-20 -12 -32 -15 q-18 -5 -37 9 q-206 148 -275 389 l-27 0 Z" /><glyph glyph-name="uni51B5" unicode="&#x51b5;" d="M98 696 q-13 10 -11 16 q3 5 20 3 q98 -12 193 -101 q37 -36 16 -70 q-23 -37 -58 5 q-54 62 -160 147 ZM307 423 q13 16 20 12 q7 -6 1 -22 q-40 -96 -197 -313 q-13 -20 -30 -10 q-26 13 -43 28 q-17 17 -2 26 q18 10 34 25 q34 33 217 254 ZM793 460 q0 94 2 256 q-205 2 -340 -1 q3 -113 0 -257 l338 2 ZM453 397 q-1 -20 -24 -30 q-30 -13 -35 -2 q-4 11 -4 36 q-4 321 -3 310 q-2 34 -6 50 q-4 14 -2 17 q3 2 16 0 q19 -4 28 -8 l180 2 q113 0 166 1 q23 0 37 5 q6 2 9 2 q7 2 16 -1 q25 -10 35 -17 q14 -9 6 -28 q-7 -21 -8 -45 q-4 -51 -8 -241 l4 -11 q7 -23 4 -29 q-3 -6 -21 -5 q-47 1 -147 1 q11 -4 16 -7 q14 -7 11 -25 q-2 -18 -2 -57 q-5 -172 -2 -256 q3 -50 46 -54 q78 -6 138 1 q31 4 33 27 l5 55 q3 34 6 55 q3 16 10 16 q8 -1 9 -18 q5 -113 20 -127 q25 -24 6 -44 q-20 -21 -73 -27 q-69 -7 -161 0 q-53 4 -78 31 q-24 26 -26 83 q-1 53 0 138 l2 122 q0 41 -3 81 l0 6 l-113 -1 l10 -5 q13 -9 9 -29 q-3 -13 -8 -45 q-5 -33 -9 -49 q-32 -142 -108 -225 q-80 -87 -235 -143 q-21 -7 -25 1 q-3 8 17 19 q235 134 284 355 q11 49 13 117 l0 4 l-35 1 l0 -7 Z" /><glyph glyph-name="uni51BB" unicode="&#x51bb;" d="M66 695 q-13 10 -10 15 q3 5 19 3 q100 -13 185 -95 q36 -35 15 -67 q-23 -33 -56 6 q-45 53 -153 138 ZM270 381 q11 17 18 14 q7 -4 2 -22 q-30 -94 -171 -334 q-11 -18 -29 -11 q-27 12 -45 26 q-17 15 -3 25 q18 12 31 28 q35 40 197 274 ZM495 230 q13 12 19 9 q7 -3 1 -17 q-36 -104 -169 -200 q-64 -47 -74 -7 q-10 34 21 56 q129 89 202 159 ZM508 682 q15 30 25 56 q18 49 25 89 q5 20 23 16 q34 -11 42 -15 q15 -10 7 -30 q-36 -83 -51 -116 q275 2 332 10 q22 4 32 -12 q12 -17 15 -34 q5 -24 -21 -23 q-75 5 -384 5 q-59 -128 -131 -257 l188 1 l-1 113 q0 35 -6 57 q-2 11 2 14 q3 3 17 -1 q24 -6 48 -19 q13 -8 9 -27 q-5 -25 -5 -54 q-1 -13 -1 -40 l-1 -43 q178 2 206 4 q21 1 31 -13 q7 -14 12 -33 q3 -21 -22 -20 q-53 3 -227 5 q0 -227 -3 -339 q-2 -51 -31 -74 q-37 -30 -47 0 q-5 12 -104 46 q-13 4 -12 11 q2 8 15 7 q112 -2 112 11 q6 145 8 338 l-202 0 q-25 0 -49 -7 q-18 -7 -28 10 q-9 17 -12 34 q-2 10 0 13 q2 6 7 9 q33 12 56 55 q53 97 101 198 l-158 0 q-17 0 -23 8 q-8 13 -13 31 q-4 15 10 15 l209 1 ZM960 97 q35 -40 9 -73 q-23 -30 -55 13 q-45 64 -163 179 q-13 14 -10 19 q3 5 20 0 q107 -32 199 -138 Z" /><glyph glyph-name="uni51C6" unicode="&#x51c6;" d="M695 691 q-25 39 -92 113 q-20 22 9 19 q76 -12 132 -79 q29 -34 6 -62 q-29 -33 -55 9 ZM202 579 q-37 55 -120 135 q-10 11 -7 17 q3 5 17 2 q88 -15 157 -98 q29 -35 8 -64 q-27 -34 -55 8 ZM240 368 q10 16 17 13 q8 -3 4 -20 q-19 -87 -125 -319 q-10 -19 -27 -13 q-30 10 -48 24 q-17 13 -4 24 q18 16 28 28 q26 35 70 114 q62 111 85 149 ZM379 556 q14 -10 17 -32 q2 -38 1 -57 l-8 -417 q1 1 6 1 l131 1 q78 0 115 1 l2 160 l-178 0 q-25 0 -34 18 q-8 17 -6 23 q1 6 17 6 q102 3 202 3 l1 133 l-180 -2 q-24 -1 -34 17 q-9 16 -7 23 q2 5 18 6 q139 4 204 5 l0 50 q0 29 -4 86 l-202 0 q-13 0 -18 8 q-6 8 -9 19 q-25 -33 -38 -49 l4 -3 ZM701 53 q200 2 241 6 q23 4 32 -10 q10 -16 13 -34 q4 -24 -19 -21 q-119 10 -550 4 q-14 -1 -21 8 q-6 8 -9 18 q-1 -59 -19 -94 q-19 -34 -34 0 q-16 30 -13 80 q20 258 12 476 q0 16 -1 24 q-59 -64 -126 -121 q-10 -10 -17 -4 q-6 6 4 18 q200 278 242 359 q15 26 27 65 q6 17 20 11 q29 -13 42 -27 q13 -11 3 -27 q-49 -82 -97 -151 q410 0 473 9 q20 4 28 -10 q10 -15 13 -33 q3 -22 -19 -21 q-83 4 -215 3 q3 -6 3 -21 l-4 -114 q120 2 181 4 q21 1 31 -21 q12 -31 -15 -31 q-67 0 -198 -2 l-3 -132 q65 0 186 2 q21 0 31 -21 q11 -32 -15 -32 l-204 0 l-3 -160 Z" /><glyph glyph-name="uni51CF" unicode="&#x51cf;" d="M824 711 q-18 33 -64 96 q-15 19 9 16 q63 -11 103 -69 q20 -31 -2 -53 q-28 -28 -46 10 ZM181 489 q-26 47 -103 137 q-21 26 10 16 q85 -23 142 -103 q25 -37 2 -62 q-28 -28 -51 12 ZM121 111 q-9 -18 -27 -11 q-25 12 -43 26 q-17 16 -3 24 q21 15 28 22 q25 27 68 92 q55 82 83 117 q11 16 17 12 q7 -3 2 -20 q-16 -60 -125 -262 ZM416 463 q-21 0 -28 18 q-8 17 -6 23 q1 6 14 6 q150 2 192 6 q19 1 27 -21 q11 -31 -13 -31 q-64 -3 -186 -1 ZM555 332 q-89 0 -105 -1 q2 -93 1 -154 l103 0 q-1 54 1 155 ZM431 379 q21 1 57 1 l49 0 q15 0 26 6 q5 3 8 3 q5 2 12 -1 q11 -4 24 -13 q11 -7 6 -21 q-6 -19 -6 -32 q-3 -44 -5 -153 l4 -11 q10 -30 -12 -29 q-23 1 -73 0 l-72 0 l-1 -23 q0 -14 -18 -24 q-23 -11 -26 -1 q-4 12 -4 27 q0 191 -2 227 q0 18 -6 38 q-3 10 -1 13 q1 3 13 0 q11 -1 25 -7 l2 0 ZM694 663 q127 2 190 4 q26 1 35 -22 q14 -34 -17 -34 q-139 -2 -204 -2 q14 -205 56 -347 q48 95 81 219 q5 22 21 11 q26 -17 34 -32 q9 -12 2 -29 q-53 -156 -110 -248 q48 -123 128 -195 q23 -19 34 -2 q19 36 33 59 q8 13 13 10 q6 -4 0 -20 q-21 -70 -18 -110 q3 -41 -37 -30 q-33 10 -67 45 q-73 75 -124 185 q-93 -126 -243 -200 q-21 -12 -25 -4 q-5 7 15 22 q145 118 226 251 q-59 165 -78 415 q-99 -1 -286 1 q-1 -23 -1 -89 q0 -69 -2 -118 q-6 -197 -54 -302 q-48 -107 -171 -189 q-16 -11 -22 -6 q-7 5 7 19 q95 99 132 196 q40 105 44 284 q3 127 -4 256 q-1 26 18 20 q21 -4 41 -15 q4 -2 8 -6 l145 1 q94 0 141 1 l0 8 q-5 97 -17 165 q-4 26 14 21 q19 -5 46 -17 q15 -8 14 -28 q-2 -46 1 -135 l1 -13 Z" /><glyph glyph-name="uni51E0" unicode="&#x51e0;" d="M964 63 q24 -27 8 -50 q-22 -30 -76 -33 q-92 -10 -179 -2 q-61 4 -86 37 q-28 35 -29 119 q-4 228 8 554 q-223 0 -262 -1 q-1 -27 -1 -104 q0 -81 -2 -139 q-5 -213 -63 -327 q-59 -115 -204 -196 q-20 -11 -26 -6 q-6 6 9 19 q119 103 164 206 q49 110 53 306 q5 156 -5 292 q-2 26 19 21 q23 -5 38 -13 q90 2 253 2 q19 0 38 10 q7 3 12 3 q3 0 13 -4 q20 -10 32 -21 q13 -12 7 -32 q-10 -34 -13 -88 q-12 -196 -4 -478 q1 -54 16 -73 q13 -18 47 -21 q93 -4 145 4 q28 4 32 37 q7 76 11 103 q4 18 12 18 q8 -1 9 -21 q5 -101 24 -122 Z" /><glyph glyph-name="uni51E1" unicode="&#x51e1;" d="M346 754 l253 4 q23 0 38 9 q11 7 19 1 l6 -2 q18 -10 32 -22 q14 -11 8 -32 q-12 -37 -13 -92 q-8 -217 2 -501 q1 -54 17 -75 q12 -17 45 -19 q81 -4 135 3 q26 5 31 39 q8 89 11 105 q3 20 11 19 q8 0 9 -22 q3 -102 24 -125 q25 -27 8 -52 q-21 -26 -74 -33 q-77 -9 -170 -2 q-59 6 -84 38 q-26 36 -28 121 q-7 254 1 582 q-194 0 -274 -3 q-1 -25 -1 -85 q0 -69 -1 -110 l5 -1 q106 -24 197 -121 q35 -35 13 -63 q-19 -32 -51 8 q-49 59 -164 156 l-1 -28 q-5 -219 -66 -336 q-62 -117 -214 -201 q-20 -10 -26 -5 q-6 5 10 20 q124 103 172 209 q53 114 57 315 q4 160 -5 298 q-1 17 3 23 q4 3 16 0 q28 -8 45 -17 l4 -3 Z" /><glyph glyph-name="uni51ED" unicode="&#x51ed;" d="M212 554 q-69 -71 -161 -133 q-13 -8 -17 -2 q-6 5 4 18 q198 222 270 341 q17 29 29 59 q7 17 22 9 q24 -14 40 -29 q11 -13 1 -29 q-87 -123 -149 -193 l5 -2 q18 -8 19 -20 q2 -10 2 -31 q0 -117 -4 -189 q-2 -37 -19 -54 q-18 -21 -33 0 q-17 21 -14 47 q8 105 5 206 l0 2 ZM350 248 q86 2 241 2 q19 0 34 8 q5 4 10 4 q3 1 11 -1 q18 -5 31 -13 q14 -7 7 -21 q-4 -12 -6 -34 q-3 -92 1 -156 q1 -20 11 -26 q9 -7 35 -9 q80 -4 146 2 q24 2 28 17 q10 38 12 43 q5 12 10 12 q6 0 8 -15 q5 -41 18 -53 q19 -20 7 -37 q-19 -22 -69 -26 q-87 -5 -175 0 q-50 2 -71 23 q-21 20 -22 67 q-2 85 1 161 q-159 2 -262 -1 l-5 -58 q-12 -100 -69 -154 q-59 -55 -184 -79 q-17 -3 -19 5 q-3 7 14 15 q98 42 140 89 q45 48 54 129 q5 41 3 106 q0 20 18 16 q21 -4 41 -15 l1 -1 ZM638 583 q217 2 279 9 q22 3 31 -10 q9 -14 14 -32 q4 -22 -20 -21 q-90 5 -305 3 l-3 -141 l191 0 q22 0 30 -22 q14 -34 -15 -33 q-235 5 -448 0 q-26 0 -36 19 q-11 18 -9 24 q3 5 20 6 q69 3 206 5 q1 50 1 142 l-246 0 q-16 0 -21 8 q-10 11 -13 28 q-4 15 9 15 l271 0 l0 70 q0 29 -3 60 q-90 -12 -183 -9 q-20 1 -21 9 q0 9 21 12 q178 31 280 60 q77 21 119 44 q14 7 24 -4 q14 -16 24 -39 q9 -21 -15 -26 q-12 -2 -55 -12 q-42 -10 -73 -16 q-48 -9 -70 -12 q3 -2 9 -4 q11 -5 11 -23 q-2 -27 -2 -49 l-2 -61 Z" /><glyph glyph-name="uni51FA" unicode="&#x51fa;" d="M790 456 l4 229 q1 15 -1 47 q-2 13 2 15 q3 3 17 -1 q27 -8 40 -18 q12 -7 8 -26 l-4 -33 l-6 -249 q-1 -28 -33 -41 q-21 -8 -25 6 q-3 10 -3 19 l-248 4 q-4 -215 -5 -369 l281 2 l1 113 q0 69 1 97 q0 33 -2 50 q-1 14 2 17 q5 3 19 -1 q26 -7 42 -18 q13 -9 9 -28 l-4 -36 l-6 -282 q-1 -30 -34 -45 q-23 -10 -27 6 q-4 15 -3 37 l1 33 q-224 4 -592 -2 q-34 0 -58 -7 q-16 -5 -29 8 q-9 12 -14 32 q-3 10 0 14 l2 3 q8 10 8 33 q0 135 -4 197 q-2 19 -5 31 q-5 18 14 17 q18 -1 40 -9 q13 -3 14 -16 q7 -89 3 -251 l280 4 q0 147 2 370 l-207 0 q-24 0 -52 -8 q-15 -4 -25 8 q-8 11 -13 30 q-3 11 4 14 q0 4 3 7 q7 9 7 33 q0 139 -6 203 q-2 21 -6 32 q-5 18 16 17 q20 -2 40 -7 q12 -4 13 -17 q8 -99 3 -266 l121 1 q70 0 103 1 l0 245 q0 55 -7 130 q-2 17 2 21 q4 4 19 0 q22 -6 49 -21 q13 -8 11 -36 q-4 -41 -6 -106 l-5 -233 l249 0 Z" /><glyph glyph-name="uni51FB" unicode="&#x51fb;" d="M543 665 q112 1 305 5 q25 1 36 -22 q14 -35 -17 -35 l-325 -1 l-3 -174 q312 2 376 9 q30 5 41 -11 q13 -20 18 -38 q7 -27 -22 -25 q-130 9 -414 9 q0 -44 -3 -171 l-2 -188 l241 3 q2 168 3 209 q0 16 -2 49 q-2 14 2 16 q3 3 19 -2 q20 -4 43 -16 q14 -9 10 -29 q-2 -13 -4 -34 l-6 -261 q-1 -29 -35 -44 q-24 -10 -28 7 q-4 14 -3 35 l0 14 q-210 2 -507 -2 q-32 -2 -53 -10 q-17 -5 -29 11 q-10 14 -13 30 q-1 5 -1 10 q0 6 4 9 q16 10 16 33 q5 117 -1 187 q-2 20 -5 32 q-4 17 17 16 q26 -4 41 -8 q13 -4 14 -17 q5 -75 -1 -242 l218 4 l3 358 q-88 0 -383 -2 q-20 -1 -28 9 q-7 9 -15 31 q-5 16 11 17 l222 1 q131 0 193 1 q1 62 1 174 l-266 1 q-31 0 -42 20 q-11 20 -9 25 q3 5 23 5 q102 0 294 2 l0 37 q-2 73 -7 130 q-2 17 2 21 q3 5 17 0 q24 -7 48 -21 q14 -8 12 -36 q-4 -52 -5 -108 l-1 -23 Z" /><glyph glyph-name="uni51FD" unicode="&#x51fd;" d="M558 369 q117 -21 228 -123 q39 -36 22 -68 q-20 -33 -56 5 q-76 80 -196 164 q3 -94 -12 -192 q-7 -47 -33 -71 q-35 -28 -46 4 q-3 11 -104 46 q-16 5 -14 13 q1 8 16 6 q79 -7 97 -6 q17 1 19 11 q15 107 12 210 q-10 -11 -232 -191 q-16 -12 -27 -2 q-18 13 -31 32 q-11 18 4 22 q19 6 34 14 q68 35 251 158 q-1 27 -5 76 q-6 58 -55 133 q-20 29 -15 35 q5 5 34 -18 q28 -21 52 -49 q111 67 220 144 q-329 -8 -482 -11 q-19 0 -33 28 q-11 20 -9 26 q2 5 20 4 q263 -2 535 7 q23 1 36 7 q10 7 18 0 q7 -1 11 -7 q9 -12 20 -36 q8 -18 -9 -27 q-256 -142 -306 -164 q17 -30 21 -67 q7 -46 12 -113 l3 0 ZM375 419 q-40 45 -132 118 q-11 9 -9 14 q2 5 16 3 q78 -9 160 -83 q31 -27 14 -55 q-19 -32 -49 3 ZM765 582 q21 -19 31 -34 q12 -15 -3 -24 q-136 -100 -203 -120 q-10 -4 -13 2 q-3 6 6 13 q93 79 142 134 q11 14 19 25 q7 14 21 4 ZM832 -14 q-263 4 -624 -1 q-27 0 -58 -8 q-18 -4 -29 9 q-9 10 -14 30 q-4 13 4 16 q12 13 14 46 q5 195 -6 349 q-1 24 -6 54 q-3 14 0 18 q2 4 16 3 q25 -4 40 -9 q13 -5 13 -23 q9 -158 2 -435 q444 6 649 6 q2 83 5 397 q0 30 -3 67 q-1 15 3 18 q3 2 18 -2 q23 -7 44 -20 q13 -9 9 -35 q-2 -18 -4 -49 q-4 -89 -9 -436 q0 -37 -33 -56 q-22 -12 -28 8 q-3 13 -3 46 l0 7 Z" /><glyph glyph-name="uni5200" unicode="&#x5200;" d="M211 635 q-22 0 -38 30 q-12 24 -10 30 q2 6 23 5 q339 -2 587 8 q27 1 41 10 q12 6 19 2 q2 0 8 -2 q20 -9 36 -22 q15 -13 7 -32 q-10 -20 -13 -51 q-5 -56 -20 -258 q-13 -185 -24 -293 q-6 -60 -40 -80 q-37 -23 -49 3 q-5 12 -143 57 q-13 6 -11 12 q1 7 15 6 q103 -8 134 -6 q21 2 22 11 q29 285 45 584 l-301 -7 l16 -9 q16 -9 12 -31 q-4 -20 -12 -61 q-7 -43 -11 -61 q-43 -204 -129 -324 q-92 -131 -273 -219 q-24 -11 -29 -5 q-5 7 18 22 q277 199 345 531 q12 61 16 148 l1 8 l-242 -6 Z" /><glyph glyph-name="uni5206" unicode="&#x5206;" d="M418 736 q-165 -248 -363 -371 q-13 -7 -17 -1 q-5 6 5 16 q205 198 289 342 q16 29 29 58 q6 15 20 8 q24 -13 36 -27 q11 -11 1 -25 ZM245 401 q-17 0 -30 26 q-9 22 -7 27 q1 6 16 5 q170 -2 416 4 q23 1 32 7 q6 4 11 4 q6 1 15 -3 q18 -10 33 -21 q14 -10 5 -26 q-7 -14 -10 -39 q-4 -39 -16 -187 q-10 -133 -20 -211 q-7 -49 -37 -64 q-36 -22 -46 4 q-2 5 -110 44 q-12 4 -11 9 q2 6 15 5 q122 -6 123 6 q21 160 37 419 l-110 -2 q-73 -2 -107 -2 l8 -5 q15 -10 10 -29 l-10 -41 q-6 -27 -10 -41 q-40 -147 -111 -232 q-78 -93 -225 -156 q-21 -8 -25 -1 q-4 8 15 21 q220 143 279 376 q12 45 15 106 l-145 -3 ZM981 425 q19 -12 18 -17 q-1 -4 -24 -7 q-13 -2 -31 -10 q-20 -10 -29 -12 q-23 -5 -42 12 q-209 166 -311 360 q-17 33 -37 48 q-13 10 -10 33 q3 32 23 19 q33 -19 64 -69 q110 -168 249 -272 q31 -22 70 -47 l60 -38 Z" /><glyph glyph-name="uni5207" unicode="&#x5207;" d="M458 245 q-41 -46 -106 -99 q-92 -75 -102 -84 q-11 -11 -34 -36 q-12 -15 -25 -6 q-22 14 -41 40 q-5 5 -5 11 q-3 9 10 16 q48 28 51 78 q7 145 7 322 q-20 -1 -67 -5 l-78 -6 q-15 -1 -19 6 q-8 15 -11 30 q-4 16 7 17 l168 13 q0 93 -3 179 q-1 44 -7 77 q-2 14 1 19 q3 4 17 2 q24 -3 47 -13 q14 -7 14 -29 q1 -117 0 -229 q125 13 149 20 q20 5 27 -8 q10 -20 12 -32 q4 -23 -15 -24 q-32 -1 -174 -11 q-3 -178 -10 -334 q89 59 171 110 q24 15 30 8 q6 -7 -14 -32 ZM470 664 q-18 0 -32 29 q-10 22 -8 28 q2 6 19 5 q194 -2 386 7 q19 0 33 7 q6 3 12 3 q6 2 13 -2 q15 -6 35 -22 q15 -11 7 -30 q-9 -19 -12 -52 q-5 -71 -15 -281 q-9 -206 -18 -317 q-4 -55 -37 -76 q-37 -24 -48 3 q-4 10 -125 51 q-13 5 -11 11 q1 6 15 5 q89 -6 116 -3 q19 2 20 11 q22 263 35 634 l-197 -6 l8 -4 q14 -9 11 -32 q-3 -22 -7 -79 q-4 -60 -8 -95 q-24 -212 -106 -336 q-83 -127 -262 -214 q-23 -11 -28 -4 q-5 6 16 21 q147 105 219 226 q72 123 92 310 q10 86 8 200 l0 6 l-131 -4 Z" /><glyph glyph-name="uni520E" unicode="&#x520e;" d="M571 645 q9 3 18 -1 q19 -11 35 -23 q14 -12 6 -30 q-11 -18 -14 -46 q-5 -48 -20 -246 q-14 -175 -27 -276 q-5 -51 -38 -73 q-37 -22 -47 4 q-3 9 -103 48 q-12 6 -11 12 q2 5 16 4 q75 -5 97 -3 q17 2 18 11 q27 234 48 553 l-79 1 q4 -4 5 -6 q9 -10 5 -32 q-48 -232 -128 -365 q-88 -146 -248 -231 q-21 -11 -26 -5 q-5 6 15 24 q263 218 325 615 l-86 -1 l2 -2 q8 -10 3 -28 q-102 -276 -266 -378 q-16 -9 -21 -4 q-5 6 9 21 q157 170 215 390 l-75 -1 q-50 -87 -126 -165 q-10 -10 -16 -5 q-7 4 0 17 q125 226 157 334 q7 24 13 68 q3 18 20 13 q27 -10 43 -20 q13 -10 6 -28 q-40 -103 -67 -157 l3 0 q178 3 297 2 q23 0 39 8 l3 1 ZM757 226 q0 -44 -18 -72 q-18 -31 -32 -1 q-17 30 -15 69 q9 227 8 388 q-2 42 -7 60 q-5 21 15 17 q26 -8 42 -16 q14 -9 14 -27 q-1 -17 -1 -46 q-6 -194 -6 -372 ZM924 808 q12 -7 9 -30 q-4 -25 -6 -72 q-2 -75 -1 -330 q0 -240 -4 -377 q-4 -52 -30 -73 q-38 -31 -47 0 q-4 11 -95 46 q-12 5 -11 11 q0 6 14 6 q102 -2 103 11 q10 368 7 743 q-2 45 -7 74 q-4 23 19 15 q27 -8 49 -24 Z" /><glyph glyph-name="uni5212" unicode="&#x5212;" d="M343 758 q-22 20 7 18 q78 -4 144 -69 q30 -31 9 -59 q-24 -33 -51 5 q-23 27 -109 105 ZM220 543 q-3 40 -7 117 q-5 98 -15 161 q-5 26 13 22 q27 -6 49 -18 q18 -9 17 -29 q-5 -54 -1 -130 q1 -60 6 -116 q220 25 266 38 q20 5 29 -7 q10 -13 15 -31 q7 -22 -14 -23 q-57 -3 -291 -29 q15 -140 49 -244 q76 80 161 198 q13 17 23 4 q19 -24 24 -39 q5 -13 -6 -27 q-113 -132 -179 -196 q54 -123 143 -187 q25 -20 36 1 l34 62 q9 13 14 9 q5 -3 1 -19 q-20 -78 -16 -114 q5 -44 -37 -34 q-35 8 -73 38 q-93 75 -151 200 q-113 -100 -242 -157 q-21 -9 -25 -2 q-3 7 17 23 q121 85 229 190 q-43 116 -64 287 l-141 -15 q-15 -1 -20 6 q-7 7 -15 27 q-5 14 7 17 l164 17 ZM724 447 q-3 -113 -6 -192 q-1 -46 -19 -72 q-19 -29 -33 0 q-15 32 -12 65 q13 215 13 367 q0 35 -5 56 q-6 21 13 16 q22 -5 40 -14 q15 -8 15 -27 q0 -28 -1 -44 l-5 -155 ZM914 832 q14 -8 11 -32 q-7 -36 -7 -75 q-4 -88 -2 -346 q0 -259 -5 -395 q-1 -51 -30 -77 q-37 -30 -48 0 q-5 13 -107 48 q-12 5 -11 13 q1 7 14 6 q116 -2 116 11 q12 390 7 779 q0 35 -7 76 q-3 13 1 18 q4 3 18 -2 q28 -9 50 -24 Z" /><glyph glyph-name="uni5217" unicode="&#x5217;" d="M256 469 q-69 -123 -179 -205 q-17 -12 -22 -7 q-5 7 8 24 q158 204 216 428 q-93 0 -149 1 q-13 0 -19 8 q-8 12 -11 31 q-2 15 9 15 q375 0 433 10 q19 3 26 -11 q10 -16 12 -33 q5 -23 -18 -22 q-57 2 -221 2 l2 -3 q10 -12 4 -29 q-32 -86 -59 -147 l153 1 q22 0 36 10 q5 3 9 3 q9 2 17 -2 q23 -11 36 -21 q15 -12 6 -30 q-17 -31 -31 -79 q-55 -183 -146 -292 q-101 -120 -282 -196 q-25 -11 -29 -3 q-3 6 18 20 q176 110 268 244 q-15 0 -30 19 q-30 40 -126 128 q-10 10 -7 16 q2 5 16 2 q88 -18 159 -95 q10 -12 14 -26 q58 101 93 240 q-123 2 -204 -1 l-2 0 ZM699 607 q2 -17 2 -46 q0 -159 -7 -354 q-2 -49 -19 -74 q-20 -29 -33 0 q-13 28 -12 62 q12 218 9 379 q-2 33 -7 56 q-4 21 14 16 q25 -7 36 -13 q16 -7 17 -26 ZM894 819 q12 -9 9 -30 q-4 -27 -6 -73 q-2 -84 -2 -339 q1 -252 -3 -386 q-3 -51 -30 -74 q-36 -30 -46 2 q-4 10 -108 46 q-11 4 -10 10 q0 7 14 7 q115 -2 115 10 q13 381 7 761 q0 39 -6 74 q-4 22 19 14 q19 -5 47 -22 Z" /><glyph glyph-name="uni521A" unicode="&#x521a;" d="M430 177 q-35 74 -74 142 q-66 -117 -164 -221 q-10 -12 -16 -7 q-7 5 2 19 q98 159 148 261 q-37 62 -126 206 q-17 26 -11 31 q6 4 26 -17 q72 -71 137 -163 q29 67 46 128 q12 42 17 86 q3 19 18 14 q28 -10 37 -18 q11 -8 7 -25 q-41 -134 -91 -236 q49 -78 85 -148 q33 -63 3 -88 q-19 -20 -44 36 ZM145 758 q185 3 352 3 q22 1 40 9 q4 4 12 4 q3 0 9 -2 q16 -8 30 -18 q16 -11 8 -30 q-9 -22 -9 -52 q-2 -81 -2 -320 q0 -235 -4 -359 q-1 -49 -29 -69 q-34 -27 -45 0 q-3 8 -87 42 q-12 5 -10 10 q1 6 15 6 q60 -2 79 1 q13 2 13 11 q10 329 7 709 q-228 2 -360 -2 l-2 0 q1 -19 1 -59 q0 -174 -9 -603 q-2 -72 -19 -109 q-10 -22 -21 -22 q-12 0 -17 21 q-9 34 -7 92 q16 395 11 643 q-2 52 -10 88 q-5 26 17 18 q17 -5 29 -12 l8 0 ZM757 632 q1 -16 1 -45 q-2 -150 -9 -355 q-4 -50 -20 -73 q-19 -29 -32 0 q-13 30 -10 62 q12 211 10 379 q0 28 -5 57 q-5 19 14 14 q19 -4 34 -12 q16 -9 17 -27 ZM919 803 q12 -8 9 -30 q-5 -23 -7 -73 q-4 -84 -2 -334 q0 -249 -5 -380 q-1 -50 -29 -74 q-37 -31 -47 0 q-4 15 -78 46 q-11 6 -10 12 q0 7 13 6 q86 -2 86 11 q12 410 7 751 q0 41 -7 73 q-2 14 2 17 q3 3 17 -1 q27 -6 51 -24 Z" /><glyph glyph-name="uni521B" unicode="&#x521b;" d="M235 474 q137 2 190 2 q20 0 33 9 q8 6 14 3 l7 -2 q13 -3 32 -16 q12 -8 6 -20 q-5 -13 -6 -26 q-2 -25 -6 -96 q-3 -70 -6 -106 q-4 -40 -30 -54 q-37 -19 -44 3 q-2 8 -63 31 q-13 4 -12 9 q1 7 15 5 q69 -3 70 9 q9 98 12 198 q-124 2 -207 -1 l0 -17 q0 -12 -1 -20 q-5 -204 -2 -304 q3 -63 62 -68 q95 -8 185 2 q38 4 42 27 l13 64 q4 16 10 15 q6 0 7 -18 q1 -64 20 -79 q24 -22 4 -42 q-22 -18 -81 -25 q-95 -9 -207 -1 q-110 9 -113 123 q-2 61 0 162 q2 113 2 147 l-3 97 q-51 -48 -112 -86 q-18 -11 -23 -5 q-5 6 9 21 q137 145 211 261 q67 104 90 160 q8 17 25 10 q22 -8 38 -20 q16 -13 3 -30 q-11 -15 -63 -96 q102 -26 220 -125 q40 -34 22 -67 q-16 -31 -53 5 q-80 80 -202 168 q-8 -13 -24 -34 q-70 -94 -130 -153 l5 -1 q18 -5 38 -16 l3 -3 ZM711 639 q14 -7 14 -23 l-4 -334 q0 -39 -16 -62 q-18 -27 -32 -1 q-14 26 -13 57 q8 191 5 313 q-2 28 -7 48 q-5 19 13 15 q26 -6 40 -13 ZM908 827 q14 -9 11 -31 q-5 -24 -8 -74 q-3 -85 -2 -337 q0 -251 -4 -384 q-1 -52 -29 -75 q-37 -30 -48 0 q-6 15 -91 47 q-11 5 -10 11 q0 6 13 6 q99 -2 99 12 q12 378 7 758 q0 40 -6 75 q-2 13 1 16 q4 3 18 -1 q29 -9 49 -23 Z" /><glyph glyph-name="uni521D" unicode="&#x521d;" d="M279 691 q-22 39 -97 121 q-21 24 10 17 q82 -21 133 -93 q25 -32 1 -58 q-25 -25 -47 13 ZM226 321 q-77 -78 -181 -136 q-19 -10 -23 -4 q-4 7 12 20 q111 99 177 184 q-2 4 -5 8 q-3 5 -5 7 q-21 34 15 20 l14 -7 q57 82 99 175 l-230 -8 q-14 0 -25 27 q-8 21 -6 26 q1 5 15 4 q131 0 241 5 q19 2 27 8 q9 4 14 1 q2 0 8 -2 q17 -8 35 -22 q14 -12 3 -29 q-15 -22 -36 -62 q-52 -100 -104 -164 q4 -8 5 -12 q2 -4 4 -17 q19 -5 53 -19 q63 80 81 115 q8 16 11 23 q6 15 19 6 q23 -14 35 -26 q12 -13 1 -25 q-81 -81 -124 -105 q44 -23 88 -64 q33 -29 15 -56 q-15 -28 -46 4 q-37 39 -130 115 q4 -135 -2 -319 q-3 -51 -26 -78 q-18 -20 -29 6 q-7 16 -5 61 q9 155 5 332 l0 8 ZM633 671 l-131 -3 q-17 0 -28 28 q-10 22 -7 27 q1 5 16 4 q178 -2 360 5 q21 1 32 10 q6 3 12 3 q7 2 14 -2 q21 -11 35 -23 q16 -12 7 -31 q-11 -21 -14 -53 q-5 -64 -18 -290 q-11 -210 -23 -329 q-6 -55 -37 -77 q-38 -25 -49 3 q-3 9 -124 52 q-12 5 -11 12 q1 6 17 5 q88 -6 114 -4 q20 2 21 12 q25 287 44 656 l-180 -4 l8 -4 q14 -9 11 -30 q-3 -22 -7 -68 l-8 -78 q-26 -205 -90 -325 q-69 -129 -213 -225 q-20 -13 -25 -7 q-6 5 10 20 q214 201 256 540 q10 90 8 170 l0 6 Z" /><glyph glyph-name="uni5220" unicode="&#x5220;" d="M473 448 q45 0 103 2 q-2 195 -4 286 q-54 2 -99 0 l0 -288 ZM287 447 q0 103 -2 279 l-87 0 q-1 -30 0 -106 l0 -173 l89 0 ZM417 481 q0 158 -7 289 q-1 17 2 20 q3 3 13 1 l22 -6 q40 1 109 1 q16 0 28 8 q5 4 11 2 q6 0 9 -1 q17 -8 29 -17 q15 -11 7 -29 q-8 -22 -8 -50 q-2 -70 0 -246 q11 0 23 2 q21 4 29 -9 q11 -17 14 -31 q5 -21 -18 -20 q-31 2 -48 2 q4 -228 1 -385 q-1 -44 -27 -66 q-32 -26 -44 0 q-4 9 -64 37 q-11 5 -10 10 q1 5 14 5 q46 -1 59 3 q11 3 11 12 q4 159 4 385 q-32 1 -104 1 q-6 -318 -105 -473 q-8 -14 -16 -11 q-7 5 -2 20 q63 188 67 464 l-73 -1 q2 -248 -1 -368 q-1 -45 -26 -65 q-34 -26 -44 0 q-4 10 -69 36 q-11 6 -9 12 q1 5 14 4 q73 -2 74 14 q3 115 5 367 l-90 0 q-8 -304 -128 -457 q-11 -13 -18 -9 q-6 4 0 18 q84 183 89 448 l-65 0 q-15 0 -21 8 q-6 8 -12 27 q-4 14 9 14 l90 0 l0 23 q1 170 -7 297 q-2 24 16 20 q14 -3 26 -9 q34 1 92 1 q17 0 29 9 q7 5 13 2 q4 0 7 -1 q11 -5 29 -17 q15 -11 7 -28 q-8 -22 -9 -49 q-1 -36 -1 -248 l74 0 l0 34 ZM770 214 q-17 -25 -30 0 q-12 27 -11 57 q8 186 5 342 q-2 27 -7 50 q-4 17 13 13 q23 -5 34 -11 q15 -7 15 -25 q1 -18 0 -38 q0 -131 -3 -323 q-2 -41 -16 -65 ZM925 822 q12 -9 9 -29 q-5 -37 -7 -72 q-2 -81 -2 -344 q0 -252 -4 -388 q-1 -48 -27 -69 q-35 -29 -45 1 q-4 13 -77 42 q-11 5 -10 11 q0 6 13 6 q85 -2 85 10 q13 380 7 767 q0 39 -6 73 q-4 20 19 13 q23 -7 45 -21 Z" /><glyph glyph-name="uni5229" unicode="&#x5229;" d="M386 522 q119 2 169 2 q18 1 24 -3 q5 -3 10 -19 q7 -18 4 -24 q-3 -7 -19 -8 l-189 -3 l-3 -106 q93 -23 178 -105 q33 -32 16 -63 q-21 -32 -51 6 q-49 55 -143 131 q-2 -51 -4 -148 l-4 -156 q-3 -69 -20 -104 q-11 -21 -23 -21 q-11 -1 -16 20 q-10 39 -7 91 q7 149 13 357 q-132 -199 -269 -288 q-16 -11 -21 -5 q-5 7 8 23 q168 194 256 366 q-30 0 -93 -2 l-93 -2 q-27 -1 -38 22 q-12 25 -10 29 q2 6 25 6 q87 0 237 2 l0 89 q-1 43 -6 76 q-91 -21 -186 -25 q-19 -1 -20 8 q-1 8 18 13 q161 44 255 81 q67 28 110 57 q14 9 26 -3 q15 -16 26 -38 q9 -20 -13 -26 q-12 -3 -52 -18 q-39 -16 -70 -24 l-46 -12 l7 -5 q14 -12 15 -37 l-1 -134 ZM715 233 q-2 -45 -17 -67 q-21 -30 -34 -1 q-12 25 -10 61 q9 202 6 353 q-2 30 -7 53 q-4 20 14 16 q19 -4 38 -15 q14 -7 14 -25 q1 -21 0 -42 l-4 -333 ZM907 811 q13 -9 10 -31 q-4 -27 -6 -74 q-2 -79 -2 -335 q0 -247 -4 -383 q-1 -52 -30 -76 q-37 -30 -48 0 q-4 12 -107 48 q-12 5 -11 12 q1 7 14 6 q114 -2 116 11 q11 391 6 756 q0 40 -6 75 q-4 21 20 15 q22 -7 48 -24 Z" /><glyph glyph-name="uni522B" unicode="&#x522b;" d="M198 540 q55 -1 139 0 l124 1 q-2 99 0 190 q-156 2 -261 -1 q2 -80 -2 -190 ZM347 338 q55 0 133 2 q22 1 31 7 q2 2 5 2 q8 5 18 0 q22 -12 37 -23 q13 -11 5 -26 q-7 -15 -10 -32 q-4 -32 -15 -132 q-10 -97 -18 -151 q-7 -48 -39 -63 q-41 -21 -48 5 q-2 7 -101 43 q-13 5 -11 11 q1 5 16 4 q109 -6 112 5 q15 101 33 295 l-159 -3 q-29 -138 -92 -225 q-65 -90 -191 -159 q-19 -10 -24 -4 q-5 6 10 19 q182 151 229 368 l-172 -3 q-18 0 -31 28 q-10 22 -8 27 q2 6 18 5 q64 -1 203 -1 l2 13 q9 57 9 134 l0 1 q-62 0 -94 1 q-5 -12 -21 -20 q-27 -10 -32 -1 q-4 13 -4 30 l0 238 q-2 27 -6 42 q-4 11 -2 14 q3 2 16 1 q19 -3 29 -8 l265 3 q18 0 34 7 q7 3 12 2 q5 0 8 -1 q22 -6 34 -15 q11 -9 6 -27 q-6 -18 -7 -39 q-2 -30 -4 -185 l3 -9 q7 -22 4 -28 q-3 -6 -21 -6 q-51 1 -159 1 l1 0 q15 -9 11 -30 q-3 -16 -7 -52 q-4 -38 -7 -59 l-1 -6 ZM715 653 q1 -18 1 -48 q-2 -194 -7 -375 q-2 -52 -18 -79 q-20 -31 -34 0 q-15 33 -11 68 q11 239 8 400 q0 34 -7 59 q-5 21 14 16 q22 -5 38 -14 q15 -8 16 -27 ZM909 810 q12 -9 9 -30 q-4 -27 -6 -75 q-2 -84 -2 -338 q1 -252 -3 -387 q-3 -54 -31 -77 q-36 -32 -48 0 q-4 11 -107 48 q-12 4 -11 12 q1 7 14 7 q114 -3 116 11 q10 378 7 763 q-2 45 -7 75 q-4 23 20 15 q28 -9 49 -24 Z" /><glyph glyph-name="uni5230" unicode="&#x5230;" d="M365 276 q51 1 142 5 q22 1 32 -20 q13 -33 -15 -34 l-160 -3 l-4 -142 q142 24 221 38 q21 4 24 -5 q3 -9 -15 -16 q-169 -64 -488 -125 q-22 -4 -32 8 q-14 18 -23 46 q-6 21 14 20 q30 -3 50 0 q96 10 189 25 l3 151 l-180 -2 q-25 -1 -35 17 q-9 18 -7 25 q1 5 17 6 q141 4 205 5 q1 29 1 78 q0 38 -4 67 l-1 6 q-92 -16 -128 -25 q-19 -4 -46 -18 q-13 -7 -22 5 q-13 23 -19 45 q-1 2 -1 6 q-3 10 7 14 q36 14 62 47 q54 76 102 157 q11 21 21 49 q-111 0 -179 1 q-14 0 -19 8 q-7 10 -11 29 q-5 15 9 15 q402 -5 486 9 q19 4 27 -10 q11 -17 12 -32 q4 -22 -18 -22 q-44 2 -250 2 q12 -16 8 -10 q10 -14 0 -32 q-82 -122 -146 -201 q148 22 280 35 q-10 22 -64 126 q-10 16 -4 21 q5 4 19 -7 q93 -68 142 -193 q19 -49 -11 -70 q-30 -20 -45 28 l-23 62 q-51 -13 -159 -33 q20 -6 31 -12 q12 -5 11 -23 q-2 -17 -4 -54 l-2 -67 ZM700 175 q-19 -29 -31 -2 q-15 28 -12 60 q11 188 9 355 q-1 29 -7 53 q-5 20 14 16 q18 -4 34 -12 q16 -8 17 -26 q1 -15 1 -43 q0 -136 -6 -332 q-1 -45 -19 -69 ZM897 812 q12 -8 9 -29 q-5 -48 -5 -69 q-2 -84 -2 -336 q0 -248 -4 -381 q-1 -49 -28 -71 q-33 -28 -45 1 q-3 8 -124 45 q-11 4 -10 10 q0 6 13 5 q133 -2 133 11 q12 376 7 751 q0 37 -6 71 q-3 20 18 14 q25 -8 44 -22 Z" /><glyph glyph-name="uni5236" unicode="&#x5236;" d="M385 489 q107 2 209 3 q24 0 35 -24 q14 -35 -17 -35 q-77 1 -228 1 l-2 -103 l116 1 q19 0 36 7 l2 1 q2 1 7 1 l8 -1 q17 -6 33 -14 q13 -9 7 -23 q-5 -14 -5 -26 q-1 -26 -1 -90 q0 -69 -1 -104 q-1 -39 -27 -53 q-39 -22 -48 1 q-2 4 -67 27 q-12 4 -11 10 q1 6 14 6 q72 -1 72 10 q3 60 3 192 l-139 0 q-2 -170 -2 -262 q0 -66 -19 -106 q-18 -42 -32 -1 q-17 48 -14 101 q3 83 7 268 q-50 0 -134 -2 q-3 -170 -6 -224 q-1 -35 -17 -53 q-20 -22 -33 0 q-11 20 -10 47 q7 143 6 242 q0 18 -5 40 q-4 17 13 14 q25 -6 36 -11 l77 1 q50 0 74 1 l2 103 l-224 0 q-28 -1 -40 20 q-11 20 -9 26 q2 5 22 6 l252 3 l2 122 l-115 0 q-15 0 -20 2 q-40 -64 -94 -105 q-8 -6 -13 -2 q-5 5 0 16 q75 142 86 180 q6 21 7 37 q3 18 19 11 q24 -8 45 -22 q13 -10 5 -25 l-24 -41 l52 1 q34 0 52 1 l0 55 q0 58 -10 101 q-5 26 17 19 q26 -7 46 -24 q13 -12 12 -38 l-4 -113 q94 2 181 3 q22 1 31 -22 q13 -35 -15 -34 l-198 0 l-2 -122 ZM734 597 q-4 -136 -6 -358 q-1 -44 -17 -70 q-18 -27 -32 0 q-16 31 -13 65 q11 229 8 376 q0 30 -7 56 q-5 21 14 16 q26 -7 40 -15 q14 -8 13 -26 l0 -44 ZM902 818 q13 -10 9 -31 q-5 -48 -5 -72 q-2 -85 -2 -341 q0 -253 -4 -386 q-1 -49 -29 -72 q-37 -30 -46 0 q-4 14 -77 44 q-12 5 -11 12 q1 6 14 6 q85 -2 85 11 q13 379 8 763 q0 39 -7 73 q-4 21 20 15 q25 -8 45 -22 Z" /><glyph glyph-name="uni5237" unicode="&#x5237;" d="M514 721 q-178 2 -294 -1 q-1 -15 -2 -61 q-1 -44 -3 -72 q63 -1 157 0 l141 1 q-1 46 1 133 ZM545 782 q17 -3 31 -13 q13 -9 6 -25 q-4 -12 -6 -33 q-3 -37 -5 -128 q3 -3 8 -16 q6 -21 3 -27 q-3 -5 -19 -5 q-55 1 -171 1 q-119 -1 -179 0 q-13 -190 -45 -297 q-36 -121 -121 -221 q-12 -13 -19 -10 q-8 4 0 18 q110 212 125 557 q4 95 -1 183 q0 25 18 20 q22 -5 39 -14 q201 2 284 2 q15 0 31 6 q4 4 13 4 l8 -2 ZM517 378 q18 0 32 7 l9 4 q4 1 12 -1 q18 -8 31 -15 q14 -8 7 -22 q-5 -16 -5 -28 q-1 -31 0 -110 q0 -84 -1 -125 q-1 -35 -27 -52 q-36 -22 -45 1 q-3 7 -56 26 q-12 5 -11 11 q0 6 14 5 q61 -1 61 12 q4 94 2 235 l-104 1 q-4 -178 -5 -335 q-2 -51 -19 -79 q-17 -32 -33 -1 q-16 37 -13 74 q7 184 9 341 l-49 -1 q-31 0 -46 -1 l0 -6 q0 -146 -4 -241 q-1 -37 -17 -55 q-19 -24 -32 -1 q-10 20 -9 48 q8 157 5 260 q0 18 -7 41 q-7 18 12 13 q13 -3 25 -8 l122 1 l-1 55 q0 37 -7 66 q-5 22 15 16 q20 -4 42 -16 q15 -9 14 -30 l-1 -91 l80 1 ZM748 218 q0 -46 -17 -74 q-18 -30 -32 0 q-14 28 -12 66 q11 233 8 392 q-2 40 -7 59 q-4 19 14 15 q24 -7 39 -14 q14 -8 14 -28 l-7 -416 ZM925 818 q13 -9 9 -31 q-5 -48 -5 -73 q-2 -81 -2 -343 q0 -252 -4 -390 q-1 -50 -29 -73 q-36 -28 -46 0 q-4 12 -94 45 q-11 5 -10 12 q0 7 13 6 q103 -2 103 11 q12 384 7 769 q0 40 -6 75 q-4 22 18 14 q27 -8 46 -22 Z" /><glyph glyph-name="uni523A" unicode="&#x523a;" d="M489 540 q22 1 35 7 q6 3 13 1 q3 0 5 -1 q21 -7 33 -14 q13 -7 7 -23 q-5 -12 -5 -22 l-3 -168 q-1 -37 -27 -51 q-40 -24 -48 1 q-3 7 -59 25 q-13 5 -12 12 q0 6 14 6 q63 -2 65 9 q4 102 3 164 q-45 1 -132 1 q-2 -163 -1 -255 q96 -21 205 -108 q38 -29 23 -63 q-16 -32 -53 3 q-60 56 -175 141 q0 -127 1 -191 q0 -62 -17 -100 q-10 -22 -18 -22 q-7 0 -15 21 q-16 45 -15 101 l2 111 q2 74 2 111 q-129 -165 -267 -232 q-17 -9 -21 -3 q-5 7 10 20 q180 160 277 335 l2 4 l1 127 q-49 0 -135 -2 q0 -121 -3 -199 q-1 -32 -18 -49 q-19 -21 -33 0 q-12 19 -11 44 q7 122 4 218 q0 19 -6 37 q-4 17 12 13 q23 -3 38 -10 l2 -1 l76 1 q50 0 75 1 l0 110 q-50 -1 -174 -1 q-12 0 -18 8 q-6 10 -10 30 q-2 15 9 15 l192 1 l0 22 q0 57 -9 101 q-6 26 16 19 q27 -9 48 -25 q14 -12 11 -37 q-3 -38 -3 -75 l0 -5 q111 2 145 7 q19 2 26 -10 q8 -13 12 -33 q3 -21 -19 -20 q-44 3 -165 3 q-2 -70 -2 -110 l110 0 ZM736 585 q-4 -147 -5 -318 q-1 -42 -18 -66 q-16 -25 -32 0 q-14 27 -12 61 q9 182 7 334 q-2 31 -7 53 q-4 19 13 15 q24 -5 40 -13 q15 -9 15 -26 q0 -25 -1 -40 ZM901 826 q11 -9 10 -31 l-4 -73 q-1 -71 -1 -347 q0 -250 -5 -393 q-1 -51 -29 -75 q-37 -29 -46 1 q-5 13 -91 45 q-12 5 -11 12 q0 7 14 7 q99 -2 99 10 q10 383 7 777 q0 36 -5 75 q-4 22 19 14 q20 -7 43 -22 Z" /><glyph glyph-name="uni523B" unicode="&#x523b;" d="M351 701 q-21 41 -78 117 q-17 21 10 16 q74 -16 118 -87 q22 -34 -1 -57 q-30 -29 -49 11 ZM109 625 q-13 0 -19 7 q-9 13 -12 29 q-3 14 9 14 q423 2 474 8 q19 5 28 -9 q9 -17 12 -32 q5 -21 -18 -20 q-67 4 -265 4 q14 -11 23 -23 q12 -15 -1 -29 q-60 -90 -116 -157 q87 5 170 6 q45 59 73 115 q8 16 25 7 q19 -9 33 -24 q13 -13 0 -29 q-13 -14 -50 -64 q-32 -43 -63 -75 q-136 -145 -316 -201 q-21 -6 -24 1 q-3 7 14 18 q174 97 277 214 q-33 -7 -89 -15 q-52 -8 -75 -13 q-11 -2 -36 -13 q-16 -6 -23 7 q-12 20 -18 47 q-3 14 11 16 l5 0 q26 11 44 36 q41 53 80 122 q16 28 22 53 l-175 0 ZM427 134 q-153 -146 -367 -198 q-25 -7 -28 2 q-3 8 20 18 q229 101 361 254 q65 75 120 178 q10 18 27 7 q20 -11 35 -28 q13 -13 -2 -31 q-11 -13 -56 -74 q-37 -52 -74 -92 l-20 -20 q86 -21 152 -101 q29 -34 7 -64 q-26 -29 -52 10 q-29 45 -123 139 ZM739 579 q-5 -156 -5 -363 q0 -45 -18 -71 q-17 -31 -33 -1 q-16 33 -14 70 q10 229 7 377 q0 32 -6 60 q-5 20 13 16 q30 -7 44 -16 q15 -9 14 -27 q-1 -8 -1 -21 l-1 -24 ZM915 816 q12 -9 9 -32 q-5 -48 -5 -74 q-3 -90 -3 -339 q1 -257 -3 -389 q-1 -52 -31 -76 q-36 -30 -48 0 q-4 13 -107 48 q-12 5 -11 13 q1 7 14 6 q116 -2 116 11 q12 421 7 765 q0 40 -6 75 q-2 13 1 16 q4 3 18 -1 q28 -9 49 -23 Z" /><glyph glyph-name="uni524D" unicode="&#x524d;" d="M206 215 l114 1 q66 2 100 0 q0 77 1 115 l-104 0 q-68 0 -109 1 l-2 -117 ZM209 380 l114 1 q66 1 98 0 q0 73 -1 108 q-147 0 -210 -2 l-1 -107 ZM483 535 q16 -11 9 -29 q-8 -17 -9 -41 q-1 -52 -1 -218 q1 -157 -2 -246 q-1 -44 -29 -62 q-36 -24 -45 1 q-2 4 -78 35 q-12 5 -11 10 q1 6 14 5 q84 -2 84 12 q2 54 4 164 q-39 1 -107 1 l-107 0 q-2 -110 -4 -162 q-2 -56 -19 -83 q-23 -36 -34 0 q-12 28 -9 71 q14 287 11 475 q0 40 -8 69 q-4 22 15 16 q14 -3 32 -13 l209 3 q17 0 32 7 q6 2 9 2 q6 2 14 -1 q9 -3 30 -16 ZM657 477 q12 -7 10 -22 q-2 -24 -2 -34 q-2 -38 -2 -118 q-1 -108 -2 -145 q-1 -31 -17 -50 q-19 -23 -34 0 q-13 20 -11 51 q6 164 5 273 q0 20 -3 45 q-3 16 14 14 q24 -5 42 -14 ZM847 582 q12 -8 8 -27 q-3 -24 -5 -57 q-2 -59 -2 -244 q0 -180 -3 -277 q-1 -49 -29 -71 q-36 -27 -46 1 q-3 12 -92 43 q-11 4 -10 10 q0 8 13 7 q100 -2 100 11 q10 232 8 551 q-2 42 -7 59 q-2 11 1 15 q4 2 18 -1 q22 -7 46 -20 ZM396 673 q141 0 201 1 q56 82 81 135 q6 16 11 31 q4 16 20 9 q29 -13 43 -24 q13 -13 2 -25 q-74 -93 -115 -126 q232 3 293 10 q30 4 38 -11 q12 -17 17 -35 q8 -25 -20 -23 q-121 7 -883 5 q-21 0 -28 8 q-10 19 -14 29 q-5 15 11 15 l306 1 q-6 6 -11 17 q-15 38 -78 137 q-15 25 13 15 q75 -27 120 -109 q20 -39 -7 -60 Z" /><glyph glyph-name="uni5254" unicode="&#x5254;" d="M357 516 q89 1 134 0 l-1 89 q-44 1 -140 1 q-96 0 -145 1 l-1 -47 q0 -30 -1 -46 l154 2 ZM491 744 q-172 2 -287 -1 l1 -88 q61 -1 153 0 l132 1 q1 31 1 88 ZM556 390 q8 6 20 1 q17 -8 35 -21 q14 -11 6 -26 q-8 -15 -10 -32 l-13 -147 q-9 -104 -16 -165 q-4 -46 -36 -61 q-38 -19 -46 4 q-2 7 -80 39 q-12 4 -11 10 q2 5 15 4 q87 -5 90 9 q15 119 29 321 l-67 1 q3 -3 5 -7 q7 -12 -1 -29 q-62 -149 -135 -227 q-83 -90 -214 -130 q-19 -6 -22 1 q-4 7 14 18 q220 132 297 374 q-58 0 -87 -1 l3 -5 q7 -12 -2 -25 q-117 -160 -242 -205 q-15 -6 -18 1 q-4 6 9 16 q127 99 191 218 l-66 -2 q-75 -64 -154 -96 q-11 -5 -14 1 q-4 6 5 14 q121 111 173 183 q12 15 21 33 l2 3 l-36 0 q0 -17 -22 -25 q-27 -13 -31 -2 q-4 13 -4 31 l0 144 q0 95 -2 133 q-1 21 -7 44 q-4 12 -2 15 q2 2 16 0 q13 -1 25 -6 q207 2 294 2 q20 0 35 8 l2 1 q8 5 19 0 q8 -2 31 -14 q15 -9 8 -25 q-5 -10 -5 -27 q-3 -145 0 -243 q0 -42 -33 -57 q-23 -8 -27 3 q-2 5 -4 17 l-234 0 q23 -17 31 -28 q11 -14 -1 -26 l-27 -27 q92 2 253 2 q21 0 38 7 l2 1 ZM754 609 q-4 -133 -6 -354 q-1 -47 -18 -72 q-19 -29 -32 0 q-17 30 -15 67 q11 225 7 371 q0 31 -6 58 q-5 21 15 16 q21 -4 41 -15 q15 -8 14 -26 l0 -45 ZM924 824 q13 -9 9 -32 q-5 -48 -5 -73 q-2 -80 -2 -336 q0 -246 -4 -384 q-1 -52 -30 -75 q-38 -32 -48 0 q-4 11 -107 48 q-13 4 -11 10 q1 7 15 7 q114 -3 114 11 q13 379 7 757 q0 40 -6 75 q-2 13 1 16 q4 3 19 -1 q22 -7 48 -23 Z" /><glyph glyph-name="uni5267" unicode="&#x5267;" d="M534 186 q-165 0 -235 -3 q0 -50 -2 -153 q50 -1 124 0 l112 1 q0 106 1 155 ZM527 718 q-201 2 -319 -2 l-3 -122 q68 -1 169 0 l151 1 q0 45 2 123 ZM443 405 q137 2 167 6 q18 3 25 -10 q11 -17 12 -31 q4 -20 -18 -19 q-64 4 -187 4 l-2 -118 l74 1 q19 0 29 5 q9 9 23 4 q19 -6 29 -13 q12 -7 6 -25 q-5 -13 -7 -34 q-3 -45 -5 -154 l4 -12 q6 -21 3 -26 q-2 -6 -18 -5 l-138 0 q-91 0 -145 1 l-1 -11 q-1 -18 -21 -26 q-27 -11 -30 -1 q-4 9 -4 30 l0 224 q-2 26 -5 39 q-3 12 -1 14 q2 3 14 1 q25 -5 40 -14 l1 -1 l92 2 l0 118 l-161 -1 q-14 0 -18 7 q-3 4 -7 14 q-24 -253 -143 -404 q-12 -14 -19 -11 q-8 5 -1 19 q101 214 112 573 q3 120 -2 214 q-1 17 2 21 q3 3 14 0 q22 -4 40 -14 l3 -3 l301 4 q21 0 36 9 q5 3 8 3 q7 2 15 -1 q23 -6 33 -14 q14 -8 6 -26 q-6 -16 -7 -33 q-4 -52 -6 -124 l5 -14 q7 -21 4 -27 q-3 -6 -20 -6 q-56 1 -179 1 q-126 -1 -190 1 l-2 0 q-4 -93 -8 -139 l3 0 q69 1 181 1 l0 61 q0 32 -4 60 q-3 18 14 15 q23 -4 48 -14 q10 -5 9 -22 q-3 -21 -3 -47 l-1 -52 ZM754 610 q-2 -198 -7 -381 q-2 -49 -17 -75 q-20 -30 -32 0 q-14 30 -12 66 q11 219 8 403 q0 33 -6 58 q-5 21 14 16 q22 -5 36 -14 q15 -7 16 -27 l0 -46 ZM925 821 q13 -10 10 -32 q-4 -25 -6 -74 q-2 -80 -2 -340 q0 -251 -4 -388 q-1 -51 -30 -75 q-36 -30 -47 1 q-4 14 -78 45 q-11 6 -10 13 q0 6 14 6 q86 -2 86 11 q12 381 7 766 q0 40 -6 75 q-5 23 19 15 q29 -9 47 -23 Z" /><glyph glyph-name="uni5269" unicode="&#x5269;" d="M224 294 q-21 -12 -61 -28 q-40 -16 -57 -27 q-13 -9 -22 1 q-14 14 -22 32 q-8 16 6 17 q7 0 23 2 q49 10 134 36 l0 77 q-34 -1 -106 -5 q-18 -1 -26 18 q-8 21 -6 26 q2 5 18 4 l120 0 l-1 25 q0 20 -7 36 q-4 17 12 14 q26 -6 36 -12 q13 -5 13 -18 q-1 -10 -1 -27 q-1 -56 -1 -209 q0 -27 -13 -44 q-15 -18 -28 -1 q-14 21 -13 42 l2 41 ZM395 705 q14 -9 14 -36 q-1 -11 -1 -30 l-1 -33 q181 2 226 8 q19 2 27 -9 q10 -16 13 -31 q4 -22 -18 -21 q-65 4 -248 4 q0 -36 -5 -330 q102 -24 215 -113 q39 -30 23 -62 q-14 -29 -51 4 q-69 62 -188 146 l-3 -181 q-1 -65 -17 -98 q-19 -39 -33 -1 q-14 43 -11 87 q4 123 5 183 q-140 -145 -287 -196 q-17 -5 -21 1 q-3 8 13 18 q191 124 298 274 q3 153 3 268 q-66 -1 -233 -1 q-13 0 -19 8 q-6 7 -13 27 q-3 15 9 15 l256 0 l0 16 q-2 44 -7 75 q-82 -15 -167 -16 q-20 0 -20 9 q0 8 19 12 q169 36 258 65 q69 24 108 48 q14 7 23 -3 q16 -16 23 -34 q8 -18 -12 -23 l-52 -15 q-36 -13 -67 -20 l-31 -7 q-20 -4 -31 -7 l3 -1 ZM668 283 q21 -18 6 -35 q-14 -16 -49 -20 q-42 -3 -89 0 q-67 5 -68 79 q-1 30 0 84 l0 75 q0 35 -2 52 q-1 14 14 13 q18 -3 35 -10 q14 -7 10 -21 q-2 -9 -5 -36 l-1 -66 q40 26 68 54 q12 12 23 28 q7 11 18 6 q18 -12 29 -25 q9 -11 -3 -20 q-85 -60 -135 -76 q0 -39 1 -57 q0 -29 23 -30 q38 -3 72 0 q17 1 18 16 l7 65 q3 13 9 13 q6 -1 7 -15 q3 -67 12 -74 ZM775 237 q0 -39 -16 -65 q-17 -26 -30 -1 q-15 29 -12 60 q9 192 7 347 q-2 36 -6 51 q-5 20 12 16 q24 -6 37 -14 q15 -6 15 -24 l-7 -370 ZM926 816 q12 -10 9 -30 q-4 -27 -6 -73 q-2 -80 -2 -340 q0 -250 -4 -387 q-1 -49 -28 -72 q-37 -28 -46 0 q-4 12 -94 45 q-12 5 -11 12 q1 6 14 6 q102 -2 102 10 q13 419 8 763 q0 39 -7 74 q-2 13 1 16 q5 2 18 -2 q27 -8 46 -22 Z" /><glyph glyph-name="uni526F" unicode="&#x526f;" d="M112 723 q-7 12 -11 30 q-4 15 9 15 q410 2 453 9 q18 4 28 -11 q9 -17 12 -31 q3 -23 -19 -22 q-48 3 -453 3 q-13 0 -19 7 ZM214 486 q57 -1 143 0 l128 1 q0 37 2 104 q-164 2 -272 -1 q1 -33 -1 -104 ZM501 646 q7 4 18 1 q19 -8 28 -14 q10 -7 5 -23 q-3 -11 -5 -30 q-2 -31 -4 -102 l4 -13 q6 -20 3 -25 q-2 -6 -19 -6 q-50 1 -156 1 q-109 -1 -164 0 q-3 -12 -20 -17 q-26 -9 -29 -1 q-4 9 -4 24 q0 178 1 158 q-2 21 -6 33 q-4 10 -2 14 q2 2 15 0 q16 -1 29 -9 q193 2 272 2 q13 0 31 6 l3 1 ZM532 33 q-1 31 -1 116 q-51 1 -158 1 q-1 -18 -1 -56 l-1 -61 l161 0 ZM319 149 q-103 0 -156 1 l-3 -118 l159 0 l0 117 ZM164 198 q105 0 155 1 l0 77 q0 21 -1 33 l-79 -1 q-50 0 -75 -1 l0 -109 ZM374 199 q57 1 157 1 l1 108 l-156 1 l-2 -110 ZM545 367 q7 6 19 1 q9 -3 32 -14 q14 -10 6 -25 q-5 -10 -5 -29 q-3 -150 -1 -279 q0 -43 -32 -58 q-20 -10 -26 3 l-3 15 q-58 1 -184 1 q-129 -1 -194 0 l0 -4 q-3 -19 -23 -29 q-27 -12 -32 -1 q-4 15 -3 34 q3 290 2 318 q-2 33 -6 49 q-3 13 -1 16 q2 2 15 0 q19 -4 27 -8 q196 3 370 3 q19 0 36 6 l3 1 ZM721 164 q-18 -27 -31 0 q-15 32 -12 64 q10 234 7 386 q0 32 -6 57 q-5 20 13 16 q29 -10 39 -16 q13 -8 12 -25 q0 -27 -1 -43 q-4 -143 -6 -371 q0 -41 -15 -68 ZM910 815 q13 -9 9 -31 q-5 -48 -5 -73 q-2 -79 -2 -332 q0 -244 -4 -381 q-1 -52 -30 -75 q-36 -30 -48 0 q-4 12 -26 19 l-98 30 q-12 4 -11 10 q1 7 14 6 q133 -2 133 11 q12 378 7 750 q0 40 -6 74 q-5 23 19 15 q27 -8 48 -23 Z" /><glyph glyph-name="uni529B" unicode="&#x529b;" d="M196 537 q-23 0 -38 30 q-13 24 -10 30 q2 7 21 6 q184 0 279 1 q10 111 7 224 q0 18 4 22 q4 4 18 0 q22 -6 45 -18 q16 -8 12 -35 q-3 -31 -8 -88 l-8 -104 q145 2 244 6 q28 0 39 7 q6 2 9 2 q6 3 15 -2 q22 -10 36 -24 q16 -12 6 -29 q-10 -20 -13 -47 q-6 -56 -19 -234 q-13 -169 -24 -265 q-7 -56 -42 -76 q-39 -23 -49 4 q-3 9 -140 53 q-14 6 -12 12 q1 6 16 5 q152 -10 154 5 q23 178 46 529 l-272 -6 q-32 -241 -130 -386 q-100 -148 -306 -250 q-27 -13 -32 -7 q-5 7 19 24 q174 121 261 263 q88 142 116 354 l-244 -6 Z" /><glyph glyph-name="uni529D" unicode="&#x529d;" d="M400 158 q-27 40 -86 115 q-88 -150 -248 -258 q-23 -16 -28 -9 q-5 5 13 24 q147 148 219 296 q-53 60 -156 174 q-20 22 -14 27 q5 4 28 -10 q86 -55 167 -134 q46 113 75 262 l-258 -9 q-16 0 -26 28 q-8 23 -7 28 q1 5 15 4 q142 0 260 5 q18 1 27 8 q5 3 8 3 q9 3 18 -1 q25 -11 40 -21 q14 -12 6 -30 q-16 -34 -29 -93 q-33 -134 -80 -235 q50 -55 91 -110 q41 -54 17 -89 q-19 -25 -52 25 ZM514 553 q-17 0 -29 30 q-10 23 -8 29 q2 5 18 4 l147 0 q6 117 1 214 q-1 17 3 21 q4 4 18 0 q27 -7 43 -16 q14 -9 11 -35 q-2 -27 -4 -84 q-3 -71 -5 -100 l140 3 q18 0 30 6 q7 4 13 2 l9 -3 q18 -8 35 -21 q15 -13 6 -30 q-9 -21 -12 -47 q-5 -60 -19 -249 q-13 -180 -23 -281 q-6 -54 -38 -73 q-38 -24 -47 3 q-3 8 -118 51 q-12 4 -11 10 q1 5 15 4 q85 -6 110 -4 q18 2 19 11 q27 249 44 562 l-157 -3 q-20 -249 -99 -396 q-79 -150 -258 -258 q-22 -13 -28 -8 q-6 5 13 21 q150 126 218 271 q70 144 87 368 l-124 -2 Z" /><glyph glyph-name="uni529E" unicode="&#x529e;" d="M169 213 q-56 -54 -73 -12 q-14 32 14 59 q92 87 164 179 q10 14 17 12 q6 -3 4 -18 q-17 -114 -126 -220 ZM213 561 q-20 -1 -34 29 q-12 24 -10 30 q2 6 21 5 q75 -1 236 -1 q3 109 0 195 q-1 18 3 22 q5 3 18 0 q26 -7 45 -17 q15 -9 12 -35 q-1 -9 -8 -164 q103 0 180 3 q25 0 38 8 q6 5 13 3 q7 2 14 -2 q19 -9 36 -22 q15 -15 6 -31 q-8 -18 -11 -49 q-6 -59 -17 -249 q-11 -181 -20 -284 q-4 -55 -39 -76 q-38 -24 -49 4 q-5 10 -127 52 q-13 4 -12 10 q1 7 17 6 q91 -6 117 -4 q20 2 21 12 q20 219 38 562 l-209 -3 l-1 -17 q-17 -250 -103 -393 q-89 -145 -285 -244 q-25 -12 -30 -6 q-6 5 16 21 q166 119 240 258 q77 140 93 366 l1 14 l-210 -3 ZM964 281 q32 -44 4 -74 q-29 -32 -55 17 q-37 66 -135 189 q-13 15 -9 21 q5 4 21 -2 q97 -38 174 -151 Z" /><glyph glyph-name="uni529F" unicode="&#x529f;" d="M425 223 q21 7 25 -1 q4 -9 -10 -19 q-36 -24 -344 -155 q-22 -10 -33 2 q-17 17 -30 44 q-9 22 10 23 q28 2 43 6 q59 15 129 34 l6 390 q0 47 -4 85 l-133 0 q-12 0 -16 8 q-6 11 -10 31 q-2 16 9 17 q295 0 337 8 q17 3 24 -12 q9 -14 11 -32 q3 -22 -18 -22 q-38 2 -138 2 q10 -7 9 -26 q-3 -56 -3 -71 l-10 -359 q80 23 146 47 ZM936 594 q16 -12 7 -30 q-10 -21 -13 -47 q-6 -58 -17 -234 q-11 -171 -22 -265 q-6 -54 -41 -76 q-39 -23 -48 4 q-3 8 -131 51 q-13 5 -11 12 q1 7 15 6 q95 -6 122 -4 q21 1 23 10 q22 200 40 529 l-179 -7 q-21 -243 -101 -386 q-82 -148 -259 -253 q-23 -13 -29 -8 q-6 5 14 23 q145 122 215 263 q69 141 90 358 l-135 -5 q-20 0 -32 30 q-11 23 -9 29 q2 6 18 5 q52 0 163 3 q7 96 3 219 q-1 18 3 22 q4 3 18 0 q26 -7 46 -17 q15 -9 12 -36 q-2 -22 -11 -187 l153 6 q21 1 33 7 q5 4 12 4 q9 2 16 -2 q21 -10 35 -24 Z" /><glyph glyph-name="uni52A0" unicode="&#x52a0;" d="M115 565 q-19 0 -31 29 q-9 25 -7 30 q1 6 17 5 l155 0 q5 89 1 198 q-1 17 3 22 q4 3 16 0 q30 -7 46 -16 q16 -8 13 -36 q-3 -30 -9 -167 q48 0 111 2 q22 1 31 5 l5 2 q9 7 18 1 q20 -10 37 -23 q16 -12 8 -31 q-10 -17 -13 -48 q-4 -55 -13 -246 q-8 -179 -16 -280 q-5 -54 -38 -75 q-38 -25 -48 3 q-5 9 -96 47 q-12 5 -11 11 q2 7 16 6 q104 -6 105 11 q21 248 31 557 l-131 -3 q-17 -247 -66 -385 q-55 -154 -182 -271 q-16 -14 -23 -10 q-7 4 4 21 q172 239 198 644 l-131 -3 ZM659 109 q73 -1 190 1 q-3 227 1 502 q-114 2 -187 -1 q5 -211 -4 -502 ZM657 48 q-3 -25 -24 -39 q-29 -19 -34 -2 q-5 18 -4 49 q5 406 0 538 q-2 48 -6 72 q-3 15 -1 18 q3 4 16 0 q21 -4 36 -15 l97 1 q61 0 90 1 q19 0 34 9 q4 2 6 2 q7 3 19 0 q23 -8 38 -19 q13 -10 6 -33 q-8 -26 -9 -66 q-4 -72 -10 -462 l6 -16 q7 -21 4 -27 q-3 -6 -19 -5 q-40 1 -122 1 q-83 -1 -123 0 l0 -7 Z" /><glyph glyph-name="uni52A1" unicode="&#x52a1;" d="M440 275 q12 43 16 115 q1 24 21 17 q25 -8 43 -21 q15 -10 11 -29 q-5 -16 -10 -42 q-7 -35 -10 -46 q116 0 202 3 q24 1 37 8 q5 3 10 3 q7 3 16 -2 q21 -10 36 -24 q14 -11 3 -25 q-6 -10 -11 -29 q-6 -27 -22 -108 q-15 -78 -25 -120 q-11 -47 -44 -61 q-43 -17 -49 10 q-1 8 -100 46 q-12 5 -10 10 q1 5 16 4 q113 -12 116 -1 q23 94 46 231 l-239 -4 q-81 -225 -380 -306 q-24 -6 -26 3 q-3 9 20 20 q241 108 312 282 l-214 -3 q-21 0 -35 29 q-11 23 -10 29 q2 6 20 5 q81 -1 258 -1 l2 7 ZM370 677 q78 -91 151 -147 q88 65 157 153 q-183 2 -302 -1 l-5 0 l-2 -3 l1 -2 ZM971 368 q34 -7 8 -20 q-12 -7 -28 -21 q-16 -16 -24 -21 q-15 -11 -43 -6 q-218 51 -358 159 q-177 -107 -455 -150 q-31 -5 -33 4 q-2 9 28 17 q266 75 412 170 q-70 67 -127 154 q-81 -114 -190 -198 q-10 -8 -15 -3 q-7 5 2 17 q163 226 204 313 q10 17 21 57 q6 19 21 11 q27 -12 44 -26 q13 -10 4 -28 l-34 -57 q198 2 279 2 q23 0 39 8 q6 3 12 3 q9 -2 14 -6 q19 -15 34 -33 q14 -18 -2 -32 q-29 -21 -56 -51 q-71 -82 -152 -139 q87 -54 186 -83 q40 -11 103 -23 l106 -18 Z" /><glyph glyph-name="uni52A8" unicode="&#x52a8;" d="M166 670 q-25 0 -33 21 q-9 19 -7 25 q1 6 17 7 q28 1 138 2 q82 1 131 3 q20 2 30 -22 q11 -36 -15 -36 l-261 0 ZM82 436 q-27 -1 -36 20 q-11 25 -9 30 q1 5 24 5 q56 0 412 6 q19 0 24 -3 q5 -3 10 -18 q7 -20 4 -26 q-3 -6 -18 -6 q-35 0 -111 -2 l-113 -2 q11 -8 15 -14 q12 -12 3 -29 q-65 -135 -126 -235 q91 19 243 44 q-7 15 -65 136 q-8 17 -3 21 q4 3 18 -7 q91 -68 137 -193 q17 -48 -16 -67 q-30 -20 -44 30 q-8 29 -13 43 q-55 -18 -146 -41 q-89 -21 -124 -33 q-16 -5 -43 -21 q-15 -10 -24 2 q-14 21 -24 48 q-2 8 0 12 q0 5 6 8 q34 17 55 55 q49 88 87 177 q14 38 18 63 l-141 -3 ZM717 522 q-20 -225 -86 -359 q-69 -139 -217 -246 q-20 -13 -26 -9 q-6 5 9 22 q220 222 253 591 q-98 -2 -138 -2 q-17 0 -30 28 q-9 24 -7 29 q1 5 18 4 l162 0 q8 118 3 244 q-1 17 3 21 q4 4 16 1 q25 -6 43 -17 q15 -7 12 -34 q-3 -28 -5 -95 q-3 -77 -6 -119 q46 0 112 2 q20 0 32 8 q11 7 19 2 l7 -3 q25 -13 35 -22 q13 -13 6 -29 q-9 -16 -12 -44 q-6 -52 -20 -227 q-12 -164 -23 -256 q-6 -54 -40 -72 q-38 -23 -47 4 q-3 8 -130 49 q-13 5 -12 12 q1 6 16 5 q143 -10 144 5 q22 172 44 510 l-135 -3 Z" /></font>
</defs>
</svg>
