<?xml version="1.0" standalone="no"?><!DOCTYPE svg PUBLIC "-//W3C//DTD SVG 1.1//EN" "http://www.w3.org/Graphics/SVG/1.1/DTD/svg11.dtd" ><svg xmlns="http://www.w3.org/2000/svg"><metadata></metadata><defs><font id="fonteditor" horiz-adv-x="1024"><font-face font-family="NÓ3NÊiw" font-weight="400" font-stretch="normal" units-per-em="1024" panose-1="0 0 5 0 0 0 0 0 0 0" ascent="1069" descent="-290" x-height="0" bbox="-28 -241 1033 878" underline-thickness="50" underline-position="-75" unicode-range="U+0021-ff1f" /><missing-glyph horiz-adv-x="260"  /><glyph glyph-name="exclam" unicode="!" d="M214 748 Q243 751 267 741 Q298 728 295 690 L269 266 Q268 245 254 240 Q244 236 226 233 Q205 232 204 261 Q183 632 179 696 Q175 745 214 748 ZM236 16 Q210 16 193 35 Q175 52 175 78 Q175 103 193 121 Q210 138 236 138 Q261 138 279 121 Q297 103 297 78 Q297 52 279 35 Q261 16 236 16 Z" /><glyph glyph-name="quotedbl" unicode="&quot;" d="M338 740 Q356 740 355 720 Q340 511 341 517 Q340 494 325 494 Q307 494 304 517 L289 720 Q288 740 307 740 L338 740 ZM195 736 Q213 736 212 716 Q197 507 198 513 Q197 489 180 489 Q164 489 161 513 Q158 545 153 621 L145 716 Q144 736 163 736 L195 736 Z" /><glyph glyph-name="quotesingle" unicode="&#39;" d="M233 724 Q253 724 252 703 L238 501 Q234 477 220 477 Q202 477 201 501 Q190 605 185 703 Q184 724 203 724 L233 724 Z" /><glyph glyph-name="parenleft" unicode="(" d="M396 820 Q427 848 449 828 Q470 809 446 784 Q284 622 287 360 Q290 106 451 -60 Q471 -81 451 -101 Q431 -121 402 -95 Q213 81 213 360 Q213 659 396 820 Z" /><glyph glyph-name="parenright" unicode=")" d="M55 -55 Q218 96 218 364 Q218 633 59 788 Q35 813 57 831 Q79 851 110 823 Q292 660 292 364 Q292 79 102 -92 Q74 -119 54 -97 Q34 -76 55 -55 Z" /><glyph glyph-name="asterisk" unicode="*" d="M473 373 Q496 361 480 335 Q465 308 441 325 Q423 339 361 382 L267 450 Q271 414 279 336 L288 231 Q290 208 259 206 Q228 206 230 234 Q233 259 240 334 Q247 419 250 449 L70 330 Q50 315 35 343 Q27 356 32 368 Q36 378 46 381 Q69 389 137 420 Q213 453 244 465 Q207 479 137 508 L40 549 Q17 557 31 586 Q43 614 69 598 L247 483 Q239 553 224 691 Q221 715 253 717 Q284 719 282 689 Q279 666 274 594 Q269 513 266 481 Q297 503 360 543 L447 598 Q469 611 483 585 Q490 572 485 561 Q481 550 472 547 L382 510 Q311 480 274 466 L473 373 Z" /><glyph glyph-name="plus" unicode="+" d="M459 392 Q471 392 476 379 Q480 369 482 350 Q482 337 464 337 Q362 337 284 338 L284 150 Q284 136 270 132 Q262 129 240 127 Q225 125 225 142 Q225 256 226 338 Q143 337 48 337 Q36 337 30 350 Q26 356 24 378 Q23 392 39 392 L226 392 L226 592 Q226 609 242 607 Q259 607 271 602 Q285 598 285 586 Q285 478 284 392 L459 392 Z" /><glyph glyph-name="comma" unicode="," d="M239 61 Q231 -114 66 -178 Q39 -189 35 -175 Q32 -162 60 -145 Q156 -93 172 -1 L170 -1 Q141 -1 122 22 Q102 43 102 74 Q102 105 122 127 Q141 150 170 150 Q187 150 203 141 Q225 129 232 104 Q239 91 239 74 L239 61 Z" /><glyph glyph-name="hyphen" unicode="-" d="M308 399 Q322 399 325 380 Q330 362 330 347 Q331 329 315 329 L46 329 Q35 329 31 343 Q27 358 25 380 Q23 399 39 399 L308 399 Z" /><glyph glyph-name="period" unicode="." d="M167 -2 Q138 -2 119 20 Q99 42 99 74 Q99 105 119 127 Q138 150 167 150 Q196 150 215 127 Q234 105 234 74 Q234 42 215 20 Q196 -2 167 -2 Z" /><glyph glyph-name="slash" unicode="/" d="M51 -20 Q73 27 224 349 L402 729 Q412 748 428 749 Q450 752 469 751 Q489 749 478 724 L121 -24 Q114 -37 96 -40 Q80 -42 61 -41 Q42 -39 51 -20 Z" /><glyph glyph-name="zero" unicode="0" d="M30 368 Q30 529 97 624 Q161 713 259 713 Q358 713 422 624 Q488 529 488 368 Q488 213 422 117 Q356 24 259 24 Q162 24 97 116 Q30 213 30 368 ZM95 369 Q95 233 143 156 Q188 82 259 82 Q330 82 375 156 Q422 234 422 369 Q422 503 375 583 Q330 657 259 657 Q188 657 143 583 Q95 503 95 369 Z" /><glyph glyph-name="one" unicode="1" d="M243 698 Q243 719 263 719 Q287 719 299 713 Q316 708 317 678 Q317 258 313 47 Q313 20 292 15 Q274 11 254 14 Q239 17 239 45 Q244 315 243 615 Q224 609 199 601 Q173 593 149 590 L141 590 Q133 590 125 592 Q117 594 111 598 Q105 602 101 606 Q97 610 97 614 Q97 618 99 622 Q101 626 109 630 Q145 637 177 652.5 Q209 668 223 678 Q237 688 243 698 Z" /><glyph glyph-name="two" unicode="2" d="M26 537 Q59 638 143 685 Q221 730 306 707 Q424 675 440 569 Q457 462 357 352 Q315 305 233 221 Q158 143 131 112 Q111 88 143 90 Q314 93 455 97 Q481 97 487 84 Q494 71 496 54 Q500 32 471 32 Q298 32 98 27 Q51 26 39 54 Q27 83 57 119 Q100 170 189 263 Q281 359 314 399 Q382 478 371 552 Q359 624 287 643 Q227 659 173 628 Q117 593 90 516 Q80 488 60 488 Q40 488 28 504 Q20 517 26 537 Z" /><glyph glyph-name="three" unicode="3" d="M63 613 Q134 702 240 714 Q341 725 400 662 Q462 595 438 512 Q414 427 316 398 Q419 379 463 299 Q505 222 464 138 Q407 24 265 26 Q122 27 41 151 Q26 173 40 181 Q54 189 71 172 Q152 88 255 86 Q355 85 395 160 Q435 232 385 296 Q331 367 204 361 Q178 360 172 376 Q165 390 172 403 Q181 416 206 420 Q324 433 365 498 Q402 557 351 615 Q312 659 243 650 Q169 640 121 577 Q105 556 83 556 Q69 556 57 571 Q47 592 63 613 Z" /><glyph glyph-name="four" unicode="4" d="M105 262 Q168 263 332 263 Q335 447 335 621 Q169 408 93 291 Q75 262 105 262 ZM475 263 Q497 262 502 249 Q505 238 507 221 Q510 200 488 200 L396 201 L393 60 Q392 33 374 28 Q359 25 341 27 Q327 30 327 56 L329 129 Q331 178 331 201 Q187 203 80 201 Q27 200 13 225 Q0 251 31 297 Q150 472 334 699 Q351 719 379 716 Q382 715 383 712 Q385 712 386 711 Q400 705 400 672 Q400 414 397 263 L475 263 Z" /><glyph glyph-name="five" unicode="5" d="M112 703 Q196 703 431 708 Q451 708 456 695 Q463 679 464 666 Q468 646 447 645 L164 646 Q135 646 134 625 L118 453 Q115 424 143 435 Q208 463 269 462 Q369 460 424 400 Q480 340 478 234 Q477 139 413 80 Q349 22 254 22 Q180 22 122 67 Q66 109 36 180 Q28 203 39 208 Q51 214 62 195 Q132 82 247 82 Q315 82 361 123 Q409 165 410 234 Q415 391 268 401 Q198 408 137 373 Q94 348 71 364 Q46 379 51 430 Q69 601 74 677 Q75 703 112 703 Z" /><glyph glyph-name="six" unicode="6" d="M131 407 Q182 473 287 470 Q370 468 422 411 Q477 351 477 252 Q477 147 418 85 Q358 22 258 22 Q162 22 101 91 Q40 161 39 270 Q36 639 359 711 Q388 717 393 703 Q398 690 372 680 Q158 596 125 408 Q124 406 126 404 Q128 403 131 407 ZM114 251 Q113 178 157 128 Q200 79 261 79 Q326 79 368 126 Q410 174 410 249 Q410 322 368 371 Q327 419 265 419 Q202 419 159 374 Q115 326 114 251 Z" /><glyph glyph-name="seven" unicode="7" d="M34 698 Q211 696 439 698 Q475 698 484 675 Q495 649 467 617 Q396 532 358 440 Q289 271 252 42 Q247 12 226 15 Q203 17 191 29 Q178 40 183 68 Q228 291 301 461 Q338 545 390 617 Q404 637 382 637 L57 634 Q36 634 30 647 Q20 665 18 682 Q15 698 34 698 Z" /><glyph glyph-name="eight" unicode="8" d="M457 544 Q459 422 342 388 Q487 352 487 212 Q487 125 427 74 Q365 20 256 20 Q153 20 89 75 Q27 128 27 211 Q27 343 161 386 Q111 400 81 443 Q50 486 51 543 Q52 613 104 659 Q160 710 252 710 Q348 710 404 659 Q456 613 457 544 ZM250 653 Q191 653 154 623 Q116 591 115 542 Q113 427 268 415 Q394 443 392 542 Q392 591 353 622 Q313 653 250 653 ZM95 214 Q95 156 142 119 Q188 82 260 82 Q333 82 378 120 Q422 157 422 213 Q422 276 375 314 Q325 353 232 354 Q95 324 95 214 Z" /><glyph glyph-name="nine" unicode="9" d="M40 482 Q40 586 100 648 Q161 711 258 711 Q352 711 411 642 Q469 573 469 463 Q469 292 387 178 Q306 66 157 23 Q130 14 124 29 Q118 42 143 54 Q343 151 377 312 Q378 315 376 316 Q374 317 371 314 Q326 261 227 264 Q148 266 96 323 Q40 383 40 482 ZM110 482 Q110 410 150 364 Q188 317 249 317 Q314 317 355 366 Q395 413 395 485 Q395 560 355 607 Q316 653 256 653 Q193 653 152 605 Q110 557 110 482 Z" /><glyph glyph-name="colon" unicode=":" d="M243 3 Q214 3 195 26 Q174 47 174 79 Q174 111 195 132 Q214 155 243 155 Q270 155 291 132 Q310 111 310 79 Q310 47 291 26 Q270 3 243 3 ZM243 338 Q214 338 195 360 Q174 382 174 414 Q174 445 195 467 Q214 489 243 489 Q270 489 291 467 Q310 445 310 414 Q310 382 291 360 Q270 338 243 338 Z" /><glyph glyph-name="semicolon" unicode=";" d="M260 332 Q231 332 212 354 Q193 376 193 408 Q193 439 212 461 Q231 483 260 483 Q288 483 308 461 Q328 439 328 408 Q328 376 308 354 Q288 332 260 332 ZM296 164 Q316 150 324 124 Q327 114 327 101 L327 81 Q321 -93 154 -153 Q127 -163 123 -150 Q120 -136 148 -121 Q245 -71 261 25 L259 25 Q230 25 211 47 Q190 69 190 100 Q190 132 211 154 Q230 176 259 176 Q281 176 296 164 Z" /><glyph glyph-name="equal" unicode="=" d="M449 304 Q468 304 473 290 Q479 274 480 257 Q482 239 459 239 L67 239 Q49 239 42 254 Q35 267 34 285 Q32 304 52 304 L449 304 ZM449 514 Q468 514 473 499 Q479 483 480 466 Q482 447 459 447 L67 447 Q49 447 42 463 Q35 476 34 494 Q32 514 52 514 L449 514 Z" /><glyph glyph-name="question" unicode="?" d="M250 637 Q129 635 118 499 Q117 475 94 477 Q76 480 63 488 Q53 497 54 513 Q61 605 117 655 Q169 701 253 703 Q339 705 390 659 Q439 616 441 545 Q444 476 357 390 Q271 304 274 242 Q276 226 260 218 Q247 212 229 212 Q209 212 207 239 Q199 311 280 400 Q362 493 362 537 Q360 637 250 637 ZM240 1 Q214 1 197 19 Q178 37 178 62 Q178 88 197 105 Q214 124 240 124 Q265 124 283 105 Q301 88 301 62 Q301 37 283 19 Q265 1 240 1 Z" /><glyph glyph-name="A" unicode="a" d="M183 322 Q303 319 410 322 Q352 488 309 594 Q302 613 293 593 Q249 490 183 322 ZM163 266 Q139 205 87 58 Q79 36 61 35 Q43 32 24 38 Q2 44 12 68 Q156 434 257 659 Q273 696 303 696 Q330 696 344 660 Q461 392 573 75 Q586 42 565 38 Q544 33 519 36 Q501 39 494 59 Q455 188 429 265 Q386 266 288 266 L163 266 Z" /><glyph glyph-name="B" unicode="b" d="M295 93 Q433 117 433 232 Q433 281 394 316 Q353 355 291 356 Q249 357 143 355 Q142 219 138 91 Q222 82 295 93 ZM145 630 Q145 498 144 414 Q227 414 286 417 Q402 421 402 522 Q402 566 370 598 Q336 629 279 636 Q213 643 145 633 L145 630 ZM65 616 Q48 611 38 622 Q25 635 22 651 Q18 667 37 672 Q197 705 304 689 Q383 677 430 632 Q475 589 475 534 Q475 423 377 397 Q366 393 376 391 Q431 378 469 333 Q509 285 509 221 Q509 146 454 95 Q396 42 301 34 Q155 19 30 72 Q7 82 12 97 Q16 113 40 108 L72 100 Q80 414 79 620 L65 616 Z" /><glyph glyph-name="C" unicode="c" d="M519 494 Q503 500 490 528 Q444 635 312 635 Q220 635 165 562 Q109 489 109 371 Q109 240 159 169 Q211 95 311 95 Q476 95 532 261 Q542 288 556 284 Q571 281 567 254 Q550 147 483 89 Q416 31 310 31 Q173 31 101 121 Q31 209 31 373 Q31 510 104 600 Q183 696 314 696 Q481 696 551 556 Q565 527 555 507 Q545 485 519 494 Z" /><glyph glyph-name="D" unicode="d" d="M282 96 Q377 101 428 174 Q475 242 475 354 Q475 621 274 631 Q231 633 172 626 Q169 248 162 96 Q207 92 282 96 ZM89 608 Q67 602 56 610 Q41 623 38 641 Q37 662 65 670 Q167 696 283 691 Q417 686 486 597 Q554 512 554 355 Q554 212 485 125 Q414 35 286 33 Q140 30 31 86 Q8 97 15 111 Q23 123 43 117 Q57 113 90 105 Q98 350 100 611 L89 608 Z" /><glyph glyph-name="E" unicode="e" d="M72 641 Q65 655 61 675 Q58 690 78 690 Q299 688 484 692 Q511 692 516 681 Q523 665 527 644 Q530 627 505 628 Q349 628 144 630 L139 415 Q288 412 453 414 Q474 414 480 402 Q488 388 490 370 Q494 353 470 353 Q259 355 137 358 Q131 166 128 98 L489 102 Q515 103 522 91 Q530 76 535 53 Q538 36 511 36 L91 37 Q58 36 58 71 Q73 469 73 639 L72 641 Z" /><glyph glyph-name="F" unicode="f" d="M78 639 Q70 655 66 673 Q62 689 83 689 Q329 689 462 692 Q483 693 490 680 Q498 669 503 643 Q506 625 480 626 Q249 626 156 627 L151 396 Q380 396 421 397 Q442 397 449 385 Q457 370 459 348 Q461 331 439 331 Q210 335 148 335 Q145 165 140 61 Q140 45 121 39 Q95 34 83 34 Q65 33 65 55 Q77 368 79 637 L78 639 Z" /><glyph glyph-name="G" unicode="g" d="M300 340 Q281 340 270 369 Q259 400 285 400 Q481 400 566 399 Q601 399 602 362 Q607 202 539 117 Q470 31 337 31 Q198 31 114 126 Q35 215 35 355 Q35 514 119 606 Q199 695 328 696 Q507 696 573 550 Q585 526 579 507 Q568 477 535 489 Q517 495 509 519 Q468 634 331 634 Q228 633 170 561 Q111 488 111 357 Q111 239 176 166 Q239 97 336 97 Q427 97 479 154 Q534 212 536 324 Q536 339 520 340 L300 340 Z" /><glyph glyph-name="H" unicode="h" d="M462 356 Q360 358 147 358 Q150 170 147 58 Q145 43 131 39 Q118 34 95 32 Q76 29 76 52 Q78 344 74 640 Q73 672 75 679 Q78 690 91 689 Q114 687 129 683 Q145 678 145 658 L147 417 Q195 418 312 418 L462 418 Q461 509 461 674 Q461 698 479 696 Q504 694 518 690 Q534 685 534 666 Q535 574 535 374 L536 61 Q536 49 519 43 Q500 37 482 36 Q464 35 464 57 L462 356 Z" /><glyph glyph-name="I" unicode="i" d="M240 625 Q238 327 232 99 Q278 99 331 101 Q352 101 357 89 Q362 73 367 50 Q369 33 346 33 Q189 35 65 33 Q49 33 44 46 Q40 61 38 80 Q37 96 51 96 Q69 97 104 97 L160 98 Q167 360 165 625 L76 626 Q60 626 56 638 Q52 650 49 673 Q48 687 61 687 Q267 687 323 689 Q342 690 348 678 Q355 659 357 639 Q359 624 331 624 L240 625 Z" /><glyph glyph-name="J" unicode="j" d="M90 625 Q73 625 69 637 Q61 654 60 672 Q59 688 73 688 Q229 686 332 690 Q351 690 355 680 Q365 660 367 640 Q369 625 347 625 L252 625 Q256 416 254 317 Q252 190 202 123 Q151 53 33 27 Q9 20 6 33 Q3 44 22 53 Q108 92 143 154 Q178 213 180 321 Q184 510 180 625 L90 625 Z" /><glyph glyph-name="K" unicode="k" d="M579 68 Q599 40 573 36 Q560 33 532 33 Q511 32 496 53 Q428 160 282 398 Q202 328 156 289 L156 56 Q156 41 138 36 Q126 33 100 31 Q82 31 83 50 Q84 176 79 673 Q79 694 95 692 Q115 691 136 685 Q153 681 153 668 Q155 487 155 357 Q329 524 469 673 Q484 690 503 691 Q530 693 558 689 Q569 687 571 679 Q572 671 564 663 Q417 520 322 435 Q406 317 579 68 Z" /><glyph glyph-name="L" unicode="l" d="M478 89 Q487 73 489 54 Q494 35 468 35 Q288 36 98 35 Q63 35 65 71 Q73 355 75 673 Q75 695 93 693 Q113 692 133 686 Q150 682 148 664 L137 94 Q416 99 446 100 Q471 101 478 89 Z" /><glyph glyph-name="M" unicode="m" d="M28 60 Q63 300 146 663 Q154 692 174 691 Q216 687 231 645 Q293 478 373 215 Q374 211 376 211 Q377 212 378 216 Q470 518 519 650 Q535 691 577 691 Q600 693 606 659 Q699 218 724 58 Q729 31 710 31 Q703 30 676 33 Q656 36 653 60 Q631 260 566 577 Q565 584 561 584 Q558 583 556 578 Q493 409 407 118 Q398 93 375 93 Q351 93 344 118 Q252 408 194 568 Q191 575 188 575 Q186 575 185 569 Q119 226 98 55 Q95 34 77 31 L40 31 Q25 32 28 60 Z" /><glyph glyph-name="N" unicode="n" d="M71 685 Q125 685 141 659 Q191 578 295 392 Q388 223 437 147 Q442 139 446 140 Q451 141 451 152 Q453 341 447 658 Q446 681 468 687 Q493 693 505 693 Q523 693 523 678 L522 60 Q522 31 493 31 Q433 31 413 65 Q354 161 262 328 Q167 499 122 574 Q111 594 111 571 Q109 460 111 57 Q111 42 93 34 Q81 30 52 30 Q33 30 33 47 L40 659 Q40 685 71 685 Z" /><glyph glyph-name="O" unicode="o" d="M31 361 Q31 504 105 597 Q185 694 315 694 Q446 694 524 597 Q598 504 598 361 Q598 218 524 126 Q446 29 315 29 Q184 29 105 126 Q31 219 31 361 ZM104 360 Q104 243 158 169 Q214 90 314 90 Q414 90 470 169 Q522 243 522 360 Q522 478 470 552 Q414 632 314 632 Q215 632 158 552 Q104 478 104 360 Z" /><glyph glyph-name="P" unicode="p" d="M311 259 Q384 259 428 309 Q473 360 473 447 Q473 522 426 578 Q378 634 311 634 Q214 634 147 572 Q147 419 146 336 Q205 259 311 259 ZM147 644 Q212 695 311 695 Q409 695 476 621 Q542 548 542 447 Q542 330 477 264 Q415 200 311 200 Q204 200 146 261 L143 60 Q143 44 126 38 Q111 33 90 33 Q73 32 73 55 Q79 473 76 663 Q75 691 92 689 Q118 687 131 683 Q147 677 147 658 L147 644 Z" /><glyph glyph-name="Q" unicode="q" d="M317 88 Q359 88 398 104 Q379 137 366 175 Q355 203 379 212 Q411 225 418 201 Q431 161 446 134 Q543 211 543 359 Q543 473 480 551 Q416 630 317 630 Q221 630 161 551 Q103 475 103 359 Q103 244 161 168 Q221 88 317 88 ZM617 20 Q651 16 649 1 Q648 -15 618 -15 Q506 -15 438 52 Q382 27 321 27 Q193 27 112 124 Q32 218 32 359 Q32 500 112 595 Q194 692 321 692 Q449 692 535 595 Q620 499 620 359 Q620 177 487 80 Q541 28 617 20 Z" /><glyph glyph-name="R" unicode="r" d="M145 377 Q219 350 308 352 Q381 354 420 394 Q458 432 458 497 Q458 557 413 595 Q368 633 296 633 Q211 633 145 589 L145 377 ZM144 654 Q215 694 316 694 Q409 694 472 639 Q536 584 536 498 Q536 418 492 365 Q446 311 371 298 Q438 187 523 61 Q542 35 514 32 Q502 30 476 30 Q449 30 437 50 Q333 237 304 294 Q215 296 144 327 Q144 215 142 59 Q142 44 127 39 Q108 33 89 32 Q71 30 72 50 Q77 308 73 670 Q73 691 90 691 Q105 690 129 683 Q144 676 144 662 L144 654 Z" /><glyph glyph-name="S" unicode="s" d="M474 604 Q467 587 451 582 Q433 577 414 593 Q358 639 271 639 Q191 639 148 609 Q111 584 111 545 Q111 504 132 479 Q153 456 210 431 Q229 423 281 404 Q331 387 352 378 Q484 318 484 202 Q484 30 264 30 Q130 30 46 116 Q33 130 40 142 Q48 157 71 163 Q82 166 97 152 Q160 94 264 94 Q413 94 413 202 Q413 275 321 315 Q295 327 254 343 L186 369 Q105 401 73 443 Q41 483 41 546 Q41 608 98 652 Q162 700 271 700 Q390 700 464 636 Q481 620 474 604 Z" /><glyph glyph-name="T" unicode="t" d="M45 633 Q23 633 17 644 Q10 658 7 678 Q4 693 24 693 Q387 693 446 694 Q471 695 479 684 Q490 666 493 646 Q496 630 469 630 L284 631 Q284 314 281 57 Q281 45 263 39 Q244 33 225 32 Q208 30 209 51 Q216 404 210 632 L45 633 Z" /><glyph glyph-name="U" unicode="u" d="M471 123 Q408 33 295 33 Q67 33 62 267 Q58 484 63 675 Q63 695 83 695 Q104 695 124 687 Q140 681 138 656 Q131 385 133 268 Q136 95 301 95 Q416 95 470 208 Q468 494 471 669 Q473 685 488 690 Q504 694 530 696 Q547 698 546 676 Q543 399 546 63 Q546 43 528 43 Q505 45 489 49 Q472 55 472 70 L471 123 Z" /><glyph glyph-name="V" unicode="v" d="M27 691 Q89 688 98 656 Q172 396 282 122 Q288 111 292 122 Q409 441 465 665 Q472 697 540 698 Q561 699 553 672 Q473 395 351 97 Q326 34 290 32 Q250 32 222 94 Q111 354 10 663 Q0 691 27 691 Z" /><glyph glyph-name="W" unicode="w" d="M32 667 Q29 696 45 697 Q78 697 82 696 Q103 695 106 670 Q132 452 193 155 Q194 148 196 148 Q199 147 201 155 Q247 287 346 608 Q354 636 377 636 Q402 636 410 610 Q482 347 556 141 Q558 136 561 135 Q565 134 566 141 Q634 484 657 667 Q659 692 681 695 L714 698 Q734 697 729 669 Q702 510 612 75 Q603 35 577 35 Q530 35 513 86 Q450 262 380 513 Q379 517 378 518 Q376 518 375 514 Q294 234 241 83 Q226 39 181 36 Q159 33 151 66 Q62 459 32 667 Z" /><glyph glyph-name="X" unicode="x" d="M552 74 Q572 48 550 43 Q537 39 514 38 Q487 35 476 51 Q403 156 287 312 Q139 113 96 51 Q85 36 58 38 Q39 39 23 42 Q1 47 18 71 Q70 141 243 370 Q101 559 31 667 Q16 687 38 693 Q65 698 76 697 Q93 697 103 684 Q175 572 285 426 Q396 574 471 683 Q482 698 501 698 Q520 697 539 693 Q560 688 545 668 Q451 531 329 369 L437 225 Q508 133 552 74 Z" /><glyph glyph-name="Y" unicode="y" d="M26 696 Q46 698 69 696 Q85 693 91 680 Q154 558 286 350 Q290 344 293 350 Q410 545 473 679 Q482 698 501 699 Q530 701 547 700 Q566 699 556 680 Q462 511 327 302 Q321 293 321 274 L324 62 Q324 44 312 38 Q296 30 271 32 Q254 34 254 56 L255 272 Q255 288 246 302 Q97 524 13 676 Q2 694 26 696 Z" /><glyph glyph-name="Z" unicode="z" d="M451 692 Q480 692 480 656 Q479 639 456 603 Q394 506 286 359 Q142 166 112 122 Q99 104 117 104 Q186 105 283 109 L461 113 Q481 114 489 99 Q499 81 502 65 Q506 43 486 43 L45 39 Q12 39 11 71 Q9 90 41 135 Q83 197 216 377 Q325 523 378 608 Q383 617 383 621 Q382 623 372 623 L72 616 Q47 616 39 631 Q33 643 27 664 Q20 687 44 687 L451 692 Z" /><glyph glyph-name="grave" unicode="`" d="M204 829 Q221 829 227 820 Q246 792 338 654 Q349 640 330 640 Q313 640 307 647 L158 810 Q151 817 154 823 Q157 829 167 829 L204 829 Z" /><glyph glyph-name="a" unicode="a" d="M471 453 Q432 172 497 56 Q510 33 501 25 Q492 15 469 31 Q437 52 414 99 Q359 29 249 27 Q146 26 85 92 Q25 158 25 265 Q25 365 91 428 Q156 489 249 489 Q344 489 397 436 Q402 473 418 477 Q439 480 459 477 Q475 474 471 453 ZM96 265 Q95 185 142 138 Q187 91 261 93 Q339 95 384 140 Q397 154 396 191 Q390 266 393 336 Q394 362 379 380 Q335 428 261 426 Q189 426 143 383 Q96 338 96 265 Z" /><glyph glyph-name="b" unicode="b" d="M144 143 Q201 90 288 90 Q356 90 400 137 Q444 184 445 259 Q446 329 401 376 Q356 422 290 424 Q204 426 145 365 Q128 347 127 308 L127 197 Q128 160 144 143 ZM57 680 Q57 703 74 703 Q91 703 112 699 Q129 695 129 677 L129 424 Q196 487 304 487 Q394 485 454 424 Q515 360 515 259 Q515 156 454 89 Q392 25 300 25 Q197 25 127 88 L127 48 Q127 33 111 29 Q93 24 75 24 Q57 23 57 44 L57 680 Z" /><glyph glyph-name="c" unicode="c" d="M439 345 Q425 330 406 331 Q386 332 378 354 Q367 384 332 404 Q296 425 253 425 Q187 425 140 378 Q92 330 92 263 Q92 185 138 135 Q184 85 256 85 Q314 85 364 118 Q412 150 428 198 Q433 213 443 211 Q454 208 452 193 Q443 120 389 73 Q335 25 256 25 Q156 25 91 91 Q26 159 26 262 Q26 359 90 424 Q155 487 252 487 Q391 485 441 382 Q452 359 439 345 Z" /><glyph glyph-name="d" unicode="d" d="M257 425 Q186 424 141 375 Q96 327 97 253 Q98 180 142 135 Q186 90 255 90 Q341 90 398 144 Q416 162 416 198 Q418 249 416 308 Q415 347 397 365 Q342 425 257 425 ZM416 88 Q344 25 243 25 Q150 25 89 86 Q28 150 28 253 Q28 357 92 424 Q155 486 247 487 Q355 488 415 425 Q415 605 416 677 Q416 695 433 698 Q453 702 471 703 Q487 703 487 680 Q486 490 486 46 Q486 26 468 26 Q451 26 432 31 Q416 35 416 49 L416 88 Z" /><glyph glyph-name="e" unicode="e" d="M439 240 Q378 238 109 238 Q98 238 98 225 Q103 166 148 126 Q195 84 265 84 Q379 84 432 173 Q439 186 450 182 Q460 178 456 161 Q439 99 386 62 Q333 26 265 26 Q155 26 92 89 Q30 154 30 266 Q30 364 93 426 Q157 489 255 489 Q347 489 402 433 Q460 374 462 268 Q463 241 439 240 ZM254 432 Q191 432 148 394 Q109 358 99 303 Q98 290 108 290 Q178 289 382 292 Q393 292 391 307 Q375 432 254 432 Z" /><glyph glyph-name="f" unicode="f" d="M217 468 L354 469 Q373 470 378 458 Q381 449 386 420 Q388 401 366 403 L216 404 Q212 182 213 68 Q213 42 198 34 Q178 25 159 25 Q142 27 143 48 L150 406 L32 407 Q14 407 10 419 Q3 436 2 455 Q1 469 14 469 L151 468 L152 525 Q154 620 194 659 Q238 702 344 702 Q368 702 373 686 Q381 662 376 648 Q372 635 338 636 Q270 639 245 613 Q220 591 218 529 L217 468 Z" /><glyph glyph-name="g" unicode="g" d="M439 489 Q459 490 459 470 L459 0 Q459 -231 264 -231 Q96 -231 36 -68 Q27 -41 41 -33 Q55 -25 67 -47 Q131 -170 249 -170 Q391 -170 391 0 Q392 15 392 82 Q342 30 240 30 Q150 30 89 93 Q27 159 27 261 Q27 362 87 427 Q146 489 240 493 Q333 494 390 447 Q391 477 404 481 Q417 485 439 489 ZM95 261 Q95 186 140 140 Q183 94 252 94 Q335 94 373 136 Q390 157 390 189 Q387 247 387 339 Q387 374 373 388 Q332 432 251 429 Q181 427 138 381 Q95 334 95 261 Z" /><glyph glyph-name="h" unicode="h" d="M292 485 Q359 485 397 451 Q437 415 438 349 Q444 124 445 53 Q445 25 429 25 Q412 24 394 28 Q378 32 378 56 Q379 144 374 332 Q371 425 274 425 Q197 425 142 360 Q118 333 118 275 L118 46 Q118 33 102 28 Q89 24 71 22 Q52 20 52 42 Q52 484 53 679 Q53 699 68 699 Q85 699 103 694 Q119 690 119 671 L118 404 Q182 485 292 485 Z" /><glyph glyph-name="i" unicode="i" d="M108 614 Q90 614 77 627 Q65 639 65 656 Q65 675 77 687 Q90 699 108 699 Q125 699 138 687 Q151 675 151 656 Q151 639 138 627 Q125 614 108 614 ZM84 493 Q106 490 125 485 Q139 480 139 461 Q140 356 140 59 Q140 37 122 32 Q110 27 86 27 Q68 29 69 50 Q70 180 70 469 Q70 493 84 493 Z" /><glyph glyph-name="j" unicode="j" d="M129 489 Q158 486 173 482 Q185 478 185 463 Q185 282 176 49 Q172 -71 133 -134 Q94 -198 7 -231 Q-16 -241 -23 -229 Q-28 -218 -6 -202 Q102 -118 108 54 Q115 288 115 467 Q115 489 129 489 ZM146 613 Q129 613 116 626 Q103 638 103 655 Q103 674 116 686 Q129 698 146 698 Q164 698 177 686 Q189 674 189 655 Q189 638 177 626 Q164 613 146 613 Z" /><glyph glyph-name="k" unicode="k" d="M126 61 Q126 45 112 39 Q91 33 74 33 Q56 32 56 58 Q54 536 54 674 Q54 698 71 698 Q92 698 111 693 Q126 689 126 669 L126 291 L249 396 Q329 464 366 497 Q386 514 404 516 Q434 519 464 519 Q480 518 483 508 Q485 498 471 486 Q383 417 285 343 Q315 301 388 207 Q455 120 494 67 Q513 39 485 36 Q462 34 441 36 Q417 37 406 55 L242 311 L126 224 L126 61 Z" /><glyph glyph-name="l" unicode="l" d="M80 699 Q113 695 123 692 Q139 687 139 667 L139 51 Q139 37 122 31 Q102 24 82 24 Q63 23 63 46 Q62 284 62 677 Q62 701 80 699 Z" /><glyph glyph-name="m" unicode="m" d="M506 487 Q649 493 650 346 Q651 222 651 44 Q651 28 632 26 Q613 24 593 30 Q580 36 580 56 L581 188 Q582 286 581 341 Q581 429 498 427 Q443 426 406 378 Q384 352 383 300 Q382 261 382 59 Q382 43 364 41 Q342 39 328 45 Q314 51 314 72 Q317 204 317 334 Q315 422 246 427 Q182 431 143 383 Q125 357 125 316 L126 57 Q126 35 108 31 Q91 27 70 27 Q52 28 53 51 Q54 181 54 465 Q54 488 72 488 Q91 488 110 482 Q125 477 124 432 Q177 490 256 487 Q346 482 370 411 Q418 484 506 487 Z" /><glyph glyph-name="n" unicode="n" d="M117 50 Q117 35 102 31 Q89 27 69 25 Q52 25 52 45 Q52 278 53 466 Q53 486 68 486 Q87 485 103 481 Q119 477 119 460 L119 442 Q119 428 118 420 Q183 488 283 488 Q433 488 436 355 Q441 164 441 55 Q442 27 426 26 Q407 26 390 30 Q374 34 374 58 Q375 154 371 340 Q370 379 340 403 Q310 428 265 428 Q190 428 137 369 Q118 346 117 297 L117 50 Z" /><glyph glyph-name="o" unicode="o" d="M25 256 Q25 352 92 420 Q159 487 254 487 Q348 487 416 420 Q482 352 482 256 Q482 161 416 93 Q348 25 254 25 Q159 25 92 93 Q25 161 25 256 ZM91 257 Q91 184 138 133 Q184 82 253 82 Q322 82 368 133 Q415 184 415 257 Q415 330 368 381 Q322 431 253 431 Q184 431 138 381 Q91 330 91 257 Z" /><glyph glyph-name="p" unicode="p" d="M293 90 Q360 92 402 139 Q443 185 443 258 Q442 333 400 378 Q358 424 290 424 Q205 424 147 369 Q130 351 130 315 Q128 262 130 199 Q131 161 147 143 Q203 87 293 90 ZM130 425 Q203 489 302 489 Q394 489 456 426 Q518 361 518 258 Q518 155 457 90 Q398 29 306 27 Q197 25 131 83 Q132 3 132 -207 Q132 -225 115 -229 Q92 -233 77 -233 Q60 -233 60 -210 Q59 -20 59 468 Q59 489 78 489 Q96 488 114 483 Q130 480 130 465 L130 425 Z" /><glyph glyph-name="q" unicode="q" d="M396 373 Q341 426 262 426 Q191 426 144 383 Q95 337 95 265 Q95 190 139 140 Q184 89 251 89 Q346 89 396 145 Q413 163 414 202 Q416 266 414 321 Q414 356 396 373 ZM414 466 Q414 480 430 485 Q453 489 466 490 Q484 490 484 469 Q484 -18 483 -211 Q483 -234 467 -233 Q452 -233 429 -229 Q412 -226 412 -208 Q412 5 413 85 Q351 25 238 25 Q145 25 86 90 Q26 158 26 263 Q26 366 92 429 Q156 489 250 489 Q349 489 414 428 L414 466 Z" /><glyph glyph-name="r" unicode="r" d="M284 486 Q315 502 322 476 Q326 454 324 435 Q323 417 300 410 Q228 386 171 332 Q133 296 132 228 Q131 176 131 53 Q130 33 113 28 Q94 23 77 25 Q58 25 58 46 Q62 287 60 470 Q59 492 76 492 Q96 492 115 485 Q129 479 130 462 L131 365 Q188 438 284 486 Z" /><glyph glyph-name="s" unicode="s" d="M401 429 Q396 413 379 407 Q364 400 346 410 Q289 437 208 437 Q159 437 128 421 Q98 406 98 384 Q98 336 167 309 Q187 301 228 289 L294 268 Q408 229 408 146 Q408 26 224 26 Q109 26 37 97 Q18 116 29 128 Q37 139 56 127 Q125 80 221 80 Q336 80 336 142 Q336 185 266 212 Q244 221 203 232 Q154 247 142 251 Q29 292 29 383 Q29 430 81 461 Q132 492 212 492 Q319 492 389 453 Q406 442 401 429 Z" /><glyph glyph-name="t" unicode="t" d="M28 404 Q12 404 8 416 Q3 431 2 451 Q-1 465 13 465 Q100 465 142 466 Q143 528 148 684 Q148 701 169 700 Q188 700 205 692 Q216 688 215 664 L210 466 Q281 466 354 468 Q373 468 377 457 Q383 443 385 419 Q387 403 367 403 L209 404 Q207 282 207 213 Q206 137 222 109 Q236 82 270 82 Q321 82 361 121 Q376 135 383 123 Q391 110 379 90 Q339 25 264 24 Q194 22 168 57 Q140 96 139 209 Q139 340 140 404 L28 404 Z" /><glyph glyph-name="u" unicode="u" d="M213 27 Q66 27 59 156 Q53 324 53 457 Q53 484 69 485 Q83 486 102 481 Q119 478 119 454 Q118 361 126 170 Q129 88 230 88 Q293 88 339 139 Q365 169 365 222 Q366 288 366 462 Q366 475 381 481 Q399 486 419 488 Q436 488 436 467 Q437 346 435 51 Q435 27 419 29 Q393 31 380 35 Q364 39 364 53 Q364 80 365 90 Q299 27 213 27 Z" /><glyph glyph-name="v" unicode="v" d="M27 486 Q48 486 65 483 Q79 480 85 462 Q134 323 227 117 Q236 99 242 117 Q339 356 373 461 Q380 481 392 483 Q411 486 431 486 Q453 486 443 463 Q396 332 279 59 Q262 24 236 24 Q209 24 190 59 Q79 291 11 463 Q2 486 27 486 Z" /><glyph glyph-name="w" unicode="w" d="M31 487 Q47 488 69 484 Q85 481 89 461 Q118 334 179 129 Q182 118 188 118 Q194 118 197 128 Q224 208 295 439 Q305 473 332 473 Q356 473 366 439 Q409 288 457 129 Q460 120 465 120 Q470 119 473 129 Q555 403 568 458 Q572 478 592 483 Q608 487 634 487 Q649 487 645 471 Q567 222 514 75 Q497 27 467 27 Q432 27 417 75 Q381 185 336 357 Q331 373 326 357 Q283 210 237 80 Q217 28 182 28 Q154 28 135 83 Q58 316 17 471 Q12 487 31 487 Z" /><glyph glyph-name="x" unicode="x" d="M432 59 Q452 36 425 33 L384 29 Q362 29 352 44 Q276 142 223 207 Q138 102 94 46 Q80 29 61 29 Q38 29 23 32 Q-4 37 15 59 Q8 50 182 257 Q50 422 17 466 Q4 484 24 486 Q50 488 63 488 Q78 488 89 474 Q129 421 225 307 Q307 406 360 475 Q370 487 385 488 Q412 488 425 486 Q443 484 431 466 Q384 404 266 259 L432 59 Z" /><glyph glyph-name="y" unicode="y" d="M205 27 Q90 268 14 463 Q6 484 22 485 Q51 489 68 485 Q88 482 94 463 Q140 329 241 95 Q331 298 389 455 Q398 482 418 486 Q443 492 461 488 Q481 485 471 460 Q371 219 256 -19 Q201 -135 152 -180 Q108 -220 36 -231 Q7 -236 6 -222 Q4 -209 32 -198 Q124 -160 201 5 L208 20 L205 27 Z" /><glyph glyph-name="z" unicode="z" d="M362 484 Q389 484 389 465 Q389 432 362 399 Q310 335 227 245 Q135 143 102 104 Q87 88 108 88 L357 91 Q380 92 387 74 Q393 51 394 41 Q396 26 373 26 L45 29 Q13 29 13 51 Q10 91 32 117 Q62 156 156 260 Q242 355 287 416 Q295 426 283 426 Q181 423 58 423 Q38 423 34 436 Q29 450 24 466 Q19 485 39 485 L362 484 Z" /><glyph glyph-name="asciitilde" unicode="~" d="M313 403 Q366 359 402 359 Q435 359 487 462 Q492 472 505 469 Q516 467 532 456 Q541 451 536 439 Q459 297 404 297 Q355 297 285 352 Q218 406 194 406 Q155 406 98 310 Q93 302 80 304 Q60 309 51 318 Q44 328 49 336 Q128 468 193 468 Q233 468 313 403 Z" /><glyph glyph-name="periodcentered" unicode="·" d="M250 293 Q220 293 198 316 Q176 340 176 374 Q176 407 198 430 Q220 454 250 454 Q280 454 303 430 Q324 407 324 374 Q324 340 303 316 Q280 293 250 293 Z" /><glyph glyph-name="emdash" unicode="&#x2014;" d="M985 391 Q999 391 1005 373 Q1010 354 1010 341 Q1010 328 994 328 L29 329 Q18 329 12 343 Q8 354 6 375 Q6 391 23 391 L985 391 Z" /><glyph glyph-name="quoteleft" unicode="&#x2018;" d="M289 616 Q315 616 334 598 Q352 580 352 553 Q352 527 334 508 Q315 489 289 489 Q263 489 245 508 Q219 534 222 585 Q233 703 365 754 Q398 766 404 755 Q410 744 381 729 Q306 692 289 616 Z" /><glyph glyph-name="quoteright" unicode="&#x2019;" d="M225 635 Q200 635 181 653 Q163 672 163 698 Q163 725 181 743 Q200 762 225 762 Q250 762 268 745 Q287 728 289 703 Q292 683 291 662 Q282 554 161 498 Q130 485 125 497 Q119 507 143 522 Q215 566 228 635 L225 635 Z" /><glyph glyph-name="quotedblleft" unicode="&#x201c;" d="M287 598 Q312 598 331 580 Q349 561 349 535 Q349 509 331 490 Q313 472 287 472 Q250 472 231 503 Q216 529 219 566 Q230 687 361 735 Q395 748 401 737 Q407 726 378 712 Q303 674 285 598 L287 598 ZM488 598 Q515 598 534 580 Q552 561 552 535 Q552 508 534 490 Q515 472 488 472 Q452 472 434 504 Q419 530 422 566 Q433 687 564 735 Q598 748 604 737 Q609 726 581 712 Q506 674 488 598 Z" /><glyph glyph-name="quotedblright" unicode="&#x201d;" d="M226 625 Q200 625 181 643 Q163 662 163 687 Q163 714 181 732 Q200 751 226 751 Q252 751 270 733 Q289 716 290 690 Q293 675 291 651 Q284 541 161 487 Q131 474 125 485 Q120 496 143 511 Q216 557 229 625 L226 625 ZM427 625 Q400 625 382 643 Q364 662 364 687 Q364 714 382 732 Q400 751 427 751 Q452 751 470 734 Q488 718 490 693 Q494 673 493 651 Q483 541 362 487 Q332 474 327 485 Q321 496 345 511 Q417 557 430 625 L427 625 Z" /><glyph glyph-name="uni3002" unicode="&#x3002;" d="M189 118 Q189 171 227 208 Q263 246 317 246 Q370 246 407 208 Q445 171 445 118 Q445 65 407 28 Q370 -9 317 -9 Q263 -9 227 28 Q189 65 189 118 ZM233 120 Q233 84 256 60 Q281 36 316 36 Q352 36 375 60 Q399 84 399 120 Q399 156 375 179 Q352 203 316 203 Q281 203 256 179 Q233 156 233 120 Z" /><glyph glyph-name="uni4E00" unicode="&#x4e00;" d="M917 467 Q947 471 958 455 Q970 437 976 417 Q983 391 954 393 Q798 403 83 398 Q64 398 55 407 Q46 421 40 439 Q35 454 51 454 Q853 459 917 467 Z" /><glyph glyph-name="uni4E07" unicode="&#x4e07;" d="M393 675 L129 676 Q109 676 103 684 Q94 696 88 714 Q83 731 99 731 Q797 728 902 743 Q930 746 939 732 Q950 712 957 696 Q960 680 956 676 Q951 670 934 671 Q834 676 445 676 L455 670 Q469 663 466 639 Q462 616 456 573 L446 503 L441 483 Q642 485 723 485 Q747 485 762 495 Q768 500 776 498 Q782 501 791 496 Q811 483 824 471 Q838 459 829 444 Q820 429 815 404 Q805 354 779 209 Q755 68 739 -7 Q728 -60 694 -76 Q656 -96 648 -69 Q646 -61 528 -17 Q517 -12 518 -6 Q520 -1 534 -2 Q668 -16 671 -2 Q708 166 747 428 Q557 431 430 427 Q391 252 311 141 Q227 23 71 -65 Q48 -78 43 -72 Q38 -66 58 -50 Q320 157 380 507 Q393 587 393 669 L393 675 Z" /><glyph glyph-name="uni4E0A" unicode="&#x4e0a;" d="M979 13 Q986 -15 958 -12 Q787 1 87 -5 Q66 -5 59 4 Q50 20 44 35 Q39 52 55 52 L252 53 Q371 53 428 54 Q428 180 430 411 Q432 613 431 695 Q431 747 424 819 Q422 836 426 840 Q430 844 443 840 Q468 833 494 819 Q506 811 504 784 Q499 715 499 682 Q499 660 497 591 L495 490 Q784 498 818 508 Q843 516 852 503 Q864 485 870 465 Q879 440 854 441 Q825 442 494 436 L489 54 Q850 56 920 63 Q951 67 962 51 Q974 31 979 13 Z" /><glyph glyph-name="uni4E0B" unicode="&#x4e0b;" d="M586 505 Q722 469 844 344 Q889 296 868 260 Q845 222 804 269 Q713 377 575 485 Q556 499 560 505 Q564 510 586 505 ZM440 693 Q244 693 121 694 Q100 694 93 703 Q86 713 79 734 Q74 750 89 750 Q764 745 893 762 Q919 766 930 751 Q942 730 946 714 Q954 688 925 689 Q836 693 491 693 L501 687 Q514 677 513 653 Q512 641 512 620 L511 586 Q509 507 506 331 L501 17 Q500 -45 482 -75 Q471 -96 460 -96 Q450 -97 443 -76 Q431 -38 434 13 Q448 350 446 600 Q446 642 441 687 L440 693 Z" /><glyph glyph-name="uni4E0D" unicode="&#x4e0d;" d="M471 460 Q306 268 73 163 Q57 156 53 163 Q48 170 63 181 Q300 342 446 538 Q440 546 435 551 Q419 569 423 576 Q426 582 448 575 Q461 572 468 568 L505 623 Q525 656 542 687 Q320 687 169 688 Q151 688 144 696 Q136 708 131 726 Q126 742 141 742 Q738 737 859 753 Q884 757 893 742 Q904 726 909 707 Q914 682 888 683 Q794 689 591 687 L605 672 Q615 659 605 642 Q567 584 519 521 L525 504 Q533 480 534 445 Q538 243 531 21 Q528 -43 503 -74 Q482 -100 471 -68 Q463 -46 466 5 Q476 236 471 446 L471 460 ZM918 257 Q969 212 948 172 Q933 139 889 183 Q755 314 604 427 Q584 443 588 449 Q591 455 614 447 Q756 401 918 257 Z" /><glyph glyph-name="uni4E0E" unicode="&#x4e0e;" d="M687 188 Q692 163 667 164 Q628 166 76 168 Q60 168 54 177 Q46 189 41 207 Q37 223 51 223 Q555 221 641 233 Q665 236 673 222 Q684 204 687 188 ZM323 692 Q736 694 847 699 Q874 700 883 675 Q891 654 887 647 Q884 639 866 639 Q531 635 326 639 L318 639 Q306 503 299 436 Q427 440 740 442 Q767 442 789 450 Q795 452 798 452 Q805 452 811 449 Q832 439 847 425 Q861 414 853 399 Q846 386 841 360 L819 188 Q805 66 794 -8 Q787 -58 753 -76 Q713 -97 705 -70 Q703 -63 605 -24 Q593 -19 594 -13 Q595 -8 609 -9 Q720 -17 723 -4 Q749 166 770 383 Q470 383 260 377 Q231 372 234 401 Q264 683 260 820 Q260 833 264 836 Q268 840 283 837 Q305 832 321 823 Q336 816 333 795 Q329 765 324 705 L323 692 Z" /><glyph glyph-name="uni4E14" unicode="&#x4e14;" d="M313 37 Q676 39 716 40 Q714 151 714 224 Q653 225 522 225 Q386 224 318 226 Q316 100 314 45 L313 37 ZM713 519 L713 700 Q436 700 318 697 L318 695 Q320 596 320 517 Q402 516 527 518 L713 519 ZM713 462 Q648 464 522 463 Q380 463 320 464 Q320 340 319 278 Q394 277 528 279 L713 279 L713 462 ZM252 54 Q257 494 251 665 Q247 724 243 745 Q241 761 243 764 Q246 767 259 763 Q275 760 286 753 Q560 757 684 758 Q710 758 725 767 Q736 775 751 768 Q778 758 790 748 Q802 737 796 713 Q788 681 786 632 Q781 524 779 41 Q878 43 918 48 Q952 52 962 34 Q974 17 979 -4 Q989 -29 958 -27 Q768 -12 77 -20 Q57 -21 50 -13 Q39 6 34 19 Q28 34 45 35 L152 36 Q218 36 252 37 L252 54 Z" /><glyph glyph-name="uni4E16" unicode="&#x4e16;" d="M668 239 Q670 407 670 476 Q561 476 498 475 Q496 308 494 238 Q561 237 668 239 ZM436 529 Q436 681 434 733 Q433 773 427 801 Q424 815 427 818 Q429 821 442 819 Q466 812 482 798 Q496 788 496 757 Q498 697 498 529 L589 530 Q644 530 671 531 Q672 605 672 726 Q672 773 667 827 Q664 851 684 846 Q714 838 734 827 Q748 820 746 797 Q742 764 739 715 L735 532 Q873 533 930 540 Q959 544 969 529 Q981 512 987 493 Q994 466 965 468 Q894 472 734 475 Q732 397 730 234 Q733 231 738 215 Q746 195 743 189 Q739 182 724 183 Q682 184 608 184 L491 184 Q486 168 470 157 Q445 140 439 155 Q435 169 435 202 L436 475 L273 475 Q270 244 262 37 Q846 42 883 44 Q905 45 915 33 Q924 18 928 1 Q932 -19 906 -18 Q733 -14 275 -17 Q246 -17 218 -25 Q201 -30 189 -16 Q178 -2 174 17 Q171 34 182 35 Q200 50 201 91 Q208 255 206 474 L84 474 Q63 474 56 483 Q46 496 42 512 Q36 528 52 528 L205 528 L202 644 Q198 698 194 719 Q192 734 195 737 Q198 740 212 739 Q237 736 256 726 Q269 720 270 699 Q273 588 273 528 L436 529 Z" /><glyph glyph-name="uni4E1C" unicode="&#x4e1c;" d="M347 228 Q363 241 369 237 Q375 233 367 218 Q308 94 162 2 Q85 -44 80 1 Q77 38 114 60 Q245 142 347 228 ZM871 310 Q804 313 577 315 Q577 96 574 -15 Q572 -65 544 -87 Q506 -117 496 -87 Q492 -75 375 -41 Q363 -36 364 -29 Q365 -22 378 -22 Q506 -25 508 -13 Q514 150 514 315 L267 315 Q239 315 213 307 Q196 303 185 317 Q175 331 170 351 Q167 361 172 366 Q174 370 178 371 Q207 382 235 424 Q291 509 360 625 L123 625 Q104 625 99 634 Q88 648 84 663 Q79 678 94 678 Q202 677 390 677 L422 737 Q444 778 457 826 Q462 846 480 841 Q506 833 521 824 Q538 816 528 794 Q476 699 464 677 Q823 679 900 689 Q926 693 935 678 Q946 663 951 644 Q959 618 931 621 Q801 628 434 626 Q368 509 273 369 L514 370 L514 489 Q512 528 508 545 Q506 556 509 560 Q513 562 528 559 Q555 551 575 539 Q588 531 584 512 Q579 475 579 458 Q578 444 578 416 L577 370 Q786 372 843 378 Q869 380 878 365 Q887 350 892 331 Q896 310 871 310 ZM932 69 Q972 28 948 -7 Q926 -37 891 5 Q823 87 687 204 Q672 218 676 224 Q679 229 699 224 Q819 187 932 69 Z" /><glyph glyph-name="uni4E22" unicode="&#x4e22;" d="M538 341 Q839 343 909 353 Q938 357 949 340 Q962 319 967 304 Q974 277 944 278 Q830 285 489 285 Q498 274 503 265 Q512 248 495 233 Q387 117 279 28 Q518 45 738 53 Q709 94 623 203 Q610 222 614 226 Q619 231 639 221 Q762 153 858 6 Q892 -47 862 -78 Q836 -107 808 -55 Q788 -19 765 16 Q657 0 487 -17 Q331 -32 269 -43 Q240 -46 204 -59 Q187 -65 180 -53 Q165 -28 158 1 Q155 8 158 13 Q158 19 167 21 Q209 35 240 65 Q328 146 401 235 Q426 266 436 285 Q339 284 97 284 Q76 284 69 293 Q59 309 54 324 Q49 339 65 339 L474 340 L476 495 L194 492 Q163 492 150 512 Q138 532 140 538 Q143 543 164 544 L477 550 L477 627 Q477 656 474 683 Q334 669 197 675 Q170 677 170 685 Q170 695 199 698 Q434 721 622 763 Q723 786 787 813 Q805 820 814 808 Q826 793 837 767 Q845 748 820 743 Q802 740 742 726 Q685 714 643 707 Q564 695 546 693 Q550 687 549 673 L544 551 L816 557 Q844 559 854 534 Q870 498 836 498 Q736 498 542 496 L538 341 Z" /><glyph glyph-name="uni4E24" unicode="&#x4e24;" d="M601 546 Q604 606 600 696 L600 699 L415 699 L419 697 Q432 690 431 669 Q433 683 421 545 L601 546 ZM361 699 L137 699 Q118 699 111 708 Q104 717 97 738 Q92 753 108 753 Q778 751 878 765 Q905 769 915 754 Q928 733 932 718 Q938 693 910 694 Q823 699 659 699 Q674 693 671 670 Q669 653 664 546 L795 546 Q824 546 846 554 Q855 564 865 559 Q880 552 897 541 Q911 530 904 512 Q896 493 896 469 Q894 414 894 243 Q893 77 890 -14 Q889 -60 859 -79 Q823 -103 814 -78 Q812 -74 697 -38 Q685 -34 686 -28 Q687 -21 701 -22 Q824 -26 824 -12 Q834 249 831 489 L660 490 Q652 378 636 308 Q717 274 777 187 Q802 149 778 125 Q752 100 730 140 Q709 178 630 281 Q588 130 469 23 Q456 11 448 16 Q441 20 451 34 Q577 215 598 490 L416 489 Q406 400 388 327 Q462 310 517 241 Q543 210 522 186 Q498 158 475 194 Q456 223 382 306 Q340 171 226 69 Q213 57 206 61 Q200 66 210 80 Q328 249 353 489 L278 488 Q230 488 207 487 L196 487 Q197 476 197 451 Q200 294 192 1 Q190 -56 174 -87 Q150 -126 137 -88 Q127 -56 128 -14 Q140 262 135 468 Q135 505 127 538 Q121 560 141 554 Q154 550 171 543 L358 545 Q363 604 361 693 L361 699 Z" /><glyph glyph-name="uni4E25" unicode="&#x4e25;" d="M463 719 Q475 714 472 697 Q470 670 470 651 Q468 534 468 425 Q561 425 601 426 L603 554 Q604 625 603 658 Q600 697 598 718 Q597 722 597 727 L441 727 Q449 725 463 719 ZM409 425 Q406 680 407 658 Q407 677 403 718 Q402 722 402 727 L196 731 Q165 732 153 751 Q142 770 144 776 Q147 781 168 781 Q595 778 879 789 Q907 789 916 765 Q925 745 921 738 Q918 732 899 731 L634 727 Q649 723 659 718 Q671 714 668 697 L665 651 L661 426 Q865 429 921 437 Q945 441 955 425 Q966 410 971 391 Q976 366 950 367 L233 371 Q231 305 229 277 Q220 132 184 53 Q146 -32 53 -101 Q38 -111 32 -106 Q26 -102 36 -89 Q150 59 161 279 Q165 349 161 423 Q160 447 179 443 Q203 437 222 427 L226 425 L409 425 ZM273 510 Q250 549 169 640 Q148 665 180 658 Q263 638 320 562 Q347 527 324 500 Q297 470 273 510 ZM837 668 Q863 656 880 639 Q894 626 882 613 Q789 507 720 471 Q711 466 707 471 Q702 477 709 487 Q797 614 805 631 Q809 638 817 659 Q822 675 837 668 Z" /><glyph glyph-name="uni4E2A" unicode="&#x4e2a;" d="M532 554 Q546 547 544 525 Q540 482 540 451 Q539 403 538 257 Q537 129 535 45 Q533 -40 510 -94 Q494 -132 485 -93 Q472 -46 472 41 Q473 181 473 453 Q473 499 469 550 Q468 567 470 569 Q473 571 491 568 Q518 562 532 554 ZM983 431 Q999 422 1000 418 Q1001 413 986 407 Q972 402 955 390 Q934 375 927 371 Q905 362 886 375 Q662 524 522 728 Q479 675 421 617 Q241 437 66 350 Q42 338 38 346 Q34 353 53 368 Q243 516 370 657 Q454 751 510 837 Q523 854 539 845 Q561 832 573 819 Q587 804 572 787 Q561 776 543 753 Q691 591 841 501 L983 431 Z" /><glyph glyph-name="uni4E2D" unicode="&#x4e2d;" d="M531 319 Q631 320 806 320 Q804 457 806 582 Q665 584 533 582 Q533 507 531 319 ZM213 318 Q383 318 464 319 L464 582 Q332 582 213 579 Q216 463 213 318 ZM820 647 Q827 652 840 649 Q868 638 877 632 Q891 622 883 604 Q877 584 875 557 Q872 511 868 313 L875 296 Q883 274 879 269 Q876 263 854 263 Q786 265 530 265 Q530 214 528 104 Q527 -5 500 -90 Q484 -141 474 -89 Q460 -7 462 98 L463 265 Q324 263 211 266 L210 247 Q210 228 187 218 Q160 204 154 215 Q150 227 150 251 L150 419 Q150 531 148 575 Q144 614 141 625 Q138 638 140 641 Q142 644 155 641 Q172 638 186 632 L325 634 Q419 636 464 636 L463 699 Q462 766 457 835 Q455 853 459 856 Q462 859 480 854 Q506 848 524 838 Q539 830 537 802 L534 697 L534 636 Q702 638 773 638 Q798 638 820 647 Z" /><glyph glyph-name="uni4E3A" unicode="&#x4e3a;" d="M333 632 Q308 674 235 752 Q216 775 246 769 Q324 758 382 684 Q409 650 386 622 Q356 591 333 632 ZM541 496 Q522 410 496 344 Q502 347 511 344 Q599 328 682 245 Q715 212 694 183 Q672 151 641 189 Q596 243 503 326 Q495 332 493 337 Q388 71 90 -78 Q61 -93 56 -87 Q52 -79 78 -62 Q386 155 469 494 L188 484 Q165 484 149 513 Q136 537 138 543 Q140 549 161 548 Q265 548 482 552 Q490 592 493 619 Q509 720 509 832 Q509 849 513 853 Q517 858 531 853 Q557 845 576 834 Q592 826 588 800 Q583 776 576 712 Q569 651 564 616 Q558 575 554 554 Q680 557 797 563 Q822 564 838 571 Q850 577 858 572 L861 571 Q862 571 863 570 Q881 561 899 545 Q913 533 904 516 Q895 500 890 471 Q881 419 862 258 Q843 104 829 19 Q819 -35 785 -55 Q745 -76 737 -49 Q734 -37 646 -1 Q635 5 636 11 Q638 17 651 16 Q754 7 758 22 Q789 213 821 505 L541 496 Z" /><glyph glyph-name="uni4E3B" unicode="&#x4e3b;" d="M505 688 Q482 742 419 835 Q401 862 432 851 Q514 824 563 737 Q585 696 558 671 Q543 658 529 663 Q514 667 505 688 ZM540 376 Q641 377 809 381 Q835 381 844 357 Q854 336 850 329 Q846 322 828 322 L539 321 Q537 124 535 42 Q841 44 895 51 Q926 55 937 38 Q951 15 954 0 Q959 -24 931 -22 Q749 -9 105 -17 Q85 -17 78 -9 Q67 7 63 23 Q58 39 73 39 Q374 41 473 41 Q473 155 475 321 Q317 321 241 322 Q211 322 198 342 Q187 363 190 368 Q192 373 213 374 Q303 374 475 376 L475 483 Q475 531 469 578 L469 580 Q297 580 187 582 Q169 582 163 591 Q153 607 149 621 Q146 636 159 636 Q715 630 837 649 Q859 652 868 637 Q879 620 884 603 Q889 578 863 579 Q781 582 531 580 L536 578 Q551 571 547 549 Q543 510 542 472 L540 376 Z" /><glyph glyph-name="uni4E48" unicode="&#x4e48;" d="M541 780 Q355 499 115 335 Q102 326 97 332 Q91 338 102 351 Q340 600 440 760 Q457 785 476 829 Q483 846 498 838 Q520 826 540 808 Q552 795 541 780 ZM905 50 Q939 -11 906 -44 Q878 -70 852 -13 Q829 36 798 91 Q694 70 526 43 Q372 19 309 6 Q269 -4 243 -17 Q225 -24 217 -12 Q203 9 190 44 Q187 58 194 62 Q197 65 203 66 Q259 82 319 148 Q497 340 644 545 Q687 608 717 666 Q729 693 748 676 Q765 662 783 636 Q796 617 776 593 Q555 301 336 82 Q495 103 774 128 Q737 189 666 294 Q653 316 658 321 Q663 325 684 312 Q808 227 905 50 Z" /><glyph glyph-name="uni4E49" unicode="&#x4e49;" d="M498 626 Q471 691 381 815 Q370 829 375 834 Q379 838 396 831 Q497 790 557 679 Q584 631 553 605 Q520 575 498 626 ZM968 -14 Q994 -27 993 -33 Q992 -40 964 -43 Q951 -44 933 -51 L903 -62 Q881 -68 849 -52 Q642 59 512 186 Q341 12 72 -76 Q36 -88 33 -79 Q30 -71 61 -56 Q314 70 465 234 Q339 372 246 580 Q223 632 203 651 Q190 665 191 684 Q196 718 217 702 Q254 675 290 605 Q388 411 510 286 Q571 360 617 441 Q725 629 775 770 Q784 793 806 783 Q830 772 846 756 Q859 743 849 721 Q731 489 680 405 Q626 315 560 238 Q645 161 769 90 Q811 66 875 34 Q940 1 968 -14 Z" /><glyph glyph-name="uni4E4B" unicode="&#x4e4b;" d="M502 679 Q479 734 409 827 Q390 853 422 845 Q510 820 562 732 Q586 690 559 663 Q524 632 502 679 ZM972 18 Q998 16 999 9 Q999 0 974 -8 Q956 -14 937 -29 Q911 -50 903 -55 Q883 -67 849 -63 Q474 -15 286 105 Q236 138 199 135 Q162 132 87 90 Q61 75 42 103 Q25 132 58 145 Q167 193 228 182 Q466 330 740 549 L184 516 Q161 514 146 544 Q134 569 135 575 Q137 581 157 580 Q474 588 770 610 Q798 611 812 620 Q816 623 820 623 Q836 631 848 617 Q865 595 874 576 Q883 556 864 544 Q437 250 280 164 Q295 158 311 149 Q466 63 714 33 Q755 29 838 26 Q923 23 972 18 Z" /><glyph glyph-name="uni4E4E" unicode="&#x4e4e;" d="M800 645 Q807 660 821 651 Q844 635 860 616 Q873 602 859 589 Q721 446 635 408 Q624 403 621 409 Q616 414 625 424 Q735 538 780 610 Q789 621 800 645 ZM189 596 Q177 608 180 613 Q183 618 199 614 Q291 587 367 495 Q396 457 375 428 Q350 398 323 439 Q284 497 189 596 ZM984 316 Q991 289 963 291 Q838 300 564 300 Q564 97 561 -4 Q558 -57 530 -79 Q493 -110 481 -79 Q477 -68 347 -30 Q335 -26 336 -19 Q337 -12 350 -13 Q494 -16 494 -2 Q497 91 501 300 L93 297 Q73 297 64 307 Q55 321 49 338 Q44 354 60 354 Q394 356 501 356 Q503 509 501 644 Q499 687 497 702 Q351 682 217 689 Q190 691 190 699 Q190 708 217 711 Q436 739 609 781 Q702 803 766 831 Q782 838 793 827 Q804 815 817 786 Q825 765 799 759 Q787 757 727 743 Q674 731 632 723 Q604 718 551 710 L560 704 Q573 696 570 674 Q566 637 566 610 Q564 538 564 357 Q861 359 925 366 Q956 370 967 354 Q980 334 984 316 Z" /><glyph glyph-name="uni4E50" unicode="&#x4e50;" d="M317 274 Q331 288 339 284 Q347 280 339 264 Q281 134 156 43 Q83 -8 72 37 Q63 72 100 98 Q233 193 317 274 ZM490 414 Q490 526 489 578 Q489 612 483 642 Q481 655 484 658 Q488 661 502 657 Q530 651 553 635 Q567 627 563 607 Q559 583 557 543 Q555 467 555 415 Q824 418 868 422 Q892 423 902 410 Q910 398 915 378 Q919 357 894 358 Q766 361 555 360 Q555 81 551 -13 Q550 -65 521 -89 Q483 -119 471 -89 Q466 -77 350 -40 Q337 -35 338 -28 Q339 -21 353 -21 Q481 -24 483 -11 Q488 149 490 360 L242 357 Q216 357 185 348 Q166 343 155 359 Q146 372 141 391 Q136 405 144 408 L147 411 Q164 422 173 456 Q195 557 209 665 Q214 707 211 732 Q210 751 229 748 Q258 743 275 736 Q285 732 286 722 Q518 753 653 794 Q699 807 733 824 Q751 832 762 823 Q786 803 798 785 Q813 762 786 756 Q499 687 282 694 Q259 542 227 411 L490 414 ZM912 102 Q952 60 929 26 Q920 11 905 13 Q888 15 873 36 Q795 135 670 237 Q655 250 658 256 Q661 262 680 256 Q805 222 912 102 Z" /><glyph glyph-name="uni4E5F" unicode="&#x4e5f;" d="M304 431 Q300 235 304 132 Q310 8 442 -4 Q638 -22 815 1 Q861 8 878 18 Q894 27 898 50 Q912 161 916 179 Q920 197 927 197 Q935 196 936 177 Q941 49 963 24 Q991 -7 962 -29 Q926 -58 832 -67 Q644 -86 437 -69 Q339 -62 291 -15 Q244 33 239 128 Q235 215 239 411 Q153 385 106 372 Q82 366 67 392 Q53 415 54 421 Q55 427 73 431 Q143 448 240 476 L240 543 Q238 617 233 671 Q230 698 254 690 Q282 682 303 668 Q317 658 314 635 Q308 604 306 542 L305 494 L500 549 Q503 676 503 726 Q503 792 499 832 Q497 849 502 851 Q505 854 521 850 Q537 847 559 837 Q573 829 573 804 Q573 777 571 721 L568 570 Q664 597 751 625 Q777 633 793 648 Q799 654 806 657 Q815 662 824 656 Q846 647 859 634 Q872 623 864 609 Q856 594 853 575 Q847 537 832 423 Q817 313 808 252 Q801 204 769 188 Q730 169 722 194 Q720 203 634 237 Q621 242 623 248 Q624 253 638 252 Q738 245 739 257 Q760 382 782 575 Q745 565 678 544 L567 510 Q566 406 561 286 Q558 195 533 134 Q516 92 507 135 Q493 189 495 281 Q495 314 497 384 L499 490 L304 431 Z" /><glyph glyph-name="uni4E60" unicode="&#x4e60;" d="M686 407 Q707 420 714 411 Q720 403 701 388 Q532 248 177 57 Q154 45 140 55 Q122 67 103 95 Q89 114 112 119 Q144 127 168 139 Q372 227 686 407 ZM471 400 Q384 487 251 586 Q234 598 237 605 Q241 611 259 606 Q375 579 504 469 Q547 433 529 395 Q512 361 471 400 ZM825 752 Q842 739 832 717 Q822 694 819 660 Q813 580 803 350 Q790 119 782 -5 Q778 -63 743 -88 Q706 -113 694 -85 Q689 -73 557 -26 Q544 -21 546 -15 Q547 -9 562 -10 Q659 -16 688 -14 Q709 -12 709 -2 Q736 376 748 706 Q471 703 222 698 Q202 698 186 728 Q175 752 177 758 Q178 764 198 763 Q468 758 728 766 Q754 766 766 773 Q767 774 768 774 L770 775 Q778 780 789 775 Q810 764 825 752 Z" /><glyph glyph-name="uni4E61" unicode="&#x4e61;" d="M652 280 Q583 268 450 246 Q338 229 284 218 Q254 210 229 199 Q214 191 205 204 Q192 225 183 254 Q180 267 188 272 Q190 274 197 276 Q253 292 308 339 Q391 407 480 492 Q439 484 362 472 Q294 462 263 455 Q237 450 218 439 Q202 431 193 445 Q180 465 173 497 Q172 506 173 510 Q174 514 181 518 Q215 535 247 573 Q321 655 394 760 Q416 793 433 831 Q441 851 457 840 Q478 826 495 802 Q507 785 491 767 Q380 623 281 525 Q410 537 532 543 L604 615 Q645 659 674 704 Q689 725 704 710 Q725 689 734 669 Q744 651 725 632 Q531 442 328 289 Q476 308 690 324 Q739 382 801 480 Q814 499 832 487 Q851 474 868 453 Q880 438 864 420 Q848 402 786 326 Q733 261 684 211 Q455 -14 137 -97 Q105 -105 103 -97 Q100 -88 130 -75 Q443 59 631 258 L652 280 Z" /><glyph glyph-name="uni4E71" unicode="&#x4e71;" d="M451 237 Q306 239 211 236 Q213 141 208 33 Q258 32 335 33 L449 34 Q449 173 451 237 ZM363 516 Q511 517 562 524 Q581 528 590 514 Q599 497 602 483 Q606 461 584 462 Q512 466 361 464 L357 291 L427 291 Q446 291 460 299 Q465 303 469 303 Q476 305 484 301 Q506 295 517 286 Q528 278 523 260 Q517 240 516 221 Q512 167 510 27 Q511 26 515 13 Q521 -7 518 -13 Q516 -18 500 -18 Q454 -17 356 -17 L206 -17 L205 -34 Q203 -52 184 -60 Q157 -72 154 -62 Q150 -49 150 -30 Q153 205 152 238 Q150 267 145 282 Q142 293 144 296 Q146 298 159 296 Q171 295 185 289 L243 290 Q280 290 298 291 L301 464 L78 464 Q64 465 58 472 Q49 485 46 501 Q42 516 55 516 Q148 514 302 514 L302 617 Q302 654 299 689 Q208 674 126 675 Q107 676 107 684 Q105 692 125 696 Q290 731 379 763 Q443 786 482 810 Q498 820 508 807 Q522 791 532 769 Q541 751 518 745 Q506 742 469 730 Q432 718 403 711 Q383 706 344 698 Q354 695 360 691 Q373 685 370 666 Q366 633 366 608 L363 516 ZM982 35 Q1012 8 988 -14 Q966 -32 913 -40 Q847 -47 770 -40 Q713 -34 686 2 Q658 39 656 120 Q654 227 656 414 Q658 613 657 674 Q657 740 652 817 Q650 842 671 836 Q699 825 714 816 Q730 803 726 782 Q719 728 719 674 Q710 358 718 123 Q719 69 734 47 Q748 26 778 23 Q838 17 896 25 Q928 29 932 59 Q940 146 943 160 Q946 179 953 179 Q961 178 962 158 Q967 51 982 35 Z" /><glyph glyph-name="uni4E86" unicode="&#x4e86;" d="M896 716 Q905 700 888 689 Q641 510 536 454 Q551 422 558 380 Q592 185 562 -11 Q553 -66 523 -90 Q485 -122 473 -87 Q468 -70 311 -28 Q294 -23 296 -15 Q297 -7 314 -9 Q435 -19 464 -19 Q491 -18 493 -6 Q522 185 498 373 Q488 449 439 532 Q398 600 458 549 Q496 517 517 486 Q655 583 780 691 Q321 684 174 681 Q152 681 136 710 Q123 734 125 740 Q127 745 148 744 Q512 741 801 749 Q828 749 841 756 Q845 758 848 758 Q861 765 872 752 Q886 736 896 716 Z" /><glyph glyph-name="uni4E8B" unicode="&#x4e8b;" d="M782 218 Q708 219 522 219 L521 138 Q708 140 781 140 L782 218 ZM522 264 Q644 264 782 266 L783 340 L522 341 L522 264 ZM464 584 L272 581 Q274 542 272 499 L464 499 L464 584 ZM522 499 Q603 500 746 500 Q746 557 747 584 L522 584 L522 499 ZM522 391 Q602 392 751 392 Q773 392 792 398 Q798 400 801 400 Q808 402 817 399 Q838 394 853 384 Q868 375 860 355 Q853 335 852 315 L849 268 Q897 269 931 273 Q959 275 967 264 Q979 245 983 232 Q990 210 964 211 Q926 213 847 215 Q846 203 846 178 L845 136 Q850 133 855 117 Q862 97 859 92 Q855 85 835 86 Q704 90 521 87 L518 -27 Q517 -77 491 -100 Q454 -131 445 -100 Q441 -87 367 -56 Q356 -51 357 -44 Q357 -37 370 -38 Q456 -40 456 -26 L459 87 Q272 87 175 88 Q148 88 142 108 Q134 128 137 133 Q141 138 160 138 Q316 136 460 138 L461 218 L76 216 Q57 216 51 224 Q43 233 38 249 Q33 263 48 263 Q342 263 462 264 L463 340 Q367 340 201 338 Q181 337 171 360 Q161 381 163 385 Q165 389 183 389 Q373 391 463 391 L464 453 Q334 453 267 454 Q265 447 247 441 Q217 432 213 440 Q209 448 209 463 Q205 595 206 589 Q206 603 201 620 Q197 631 199 634 Q201 636 214 635 Q231 634 243 629 Q357 631 464 632 L464 697 Q233 695 124 695 Q93 695 82 714 Q71 732 73 736 Q76 741 96 741 Q227 742 463 746 L463 766 Q463 800 456 841 Q454 854 457 858 Q461 861 475 856 Q501 849 522 833 Q536 825 532 802 L526 747 L896 756 Q923 757 932 736 Q941 717 938 710 Q935 704 917 703 Q648 699 523 698 L522 633 L722 634 Q746 634 760 641 Q761 642 763 642 Q764 644 765 644 Q772 646 781 642 Q804 635 813 629 Q828 621 820 604 Q816 592 814 573 Q812 546 810 486 L812 481 Q818 462 815 457 Q812 452 795 452 Q753 453 522 453 L522 391 Z" /><glyph glyph-name="uni4E8C" unicode="&#x4e8c;" d="M753 668 Q779 669 789 645 Q804 610 774 610 Q559 600 269 605 Q240 605 229 624 Q219 644 221 650 Q223 656 241 656 Q631 660 753 668 ZM913 128 Q946 133 955 117 Q967 98 973 79 Q979 55 952 57 Q741 79 100 64 Q81 64 74 72 Q66 82 59 103 Q54 118 70 118 Q260 121 626 122 Q867 123 913 128 Z" /><glyph glyph-name="uni4E8E" unicode="&#x4e8e;" d="M460 713 Q335 713 215 716 Q185 717 173 738 Q162 758 165 763 Q167 768 187 768 Q589 766 802 776 Q829 777 838 752 Q848 732 844 724 Q841 717 822 716 Q662 713 510 713 Q513 712 518 709 Q524 706 526 704 Q538 696 535 674 Q532 646 530 609 Q528 504 528 432 Q829 434 890 442 Q919 446 930 429 Q942 409 946 392 Q953 364 924 367 Q793 377 528 375 Q528 82 525 -15 Q522 -67 494 -90 Q459 -120 446 -90 Q442 -78 341 -43 Q329 -37 330 -31 Q331 -24 344 -24 Q459 -26 459 -14 Q464 151 466 375 Q381 375 98 373 Q78 373 71 382 Q60 397 56 414 Q51 429 66 429 L467 431 Q467 577 466 644 Q464 691 460 711 L460 713 Z" /><glyph glyph-name="uni4E91" unicode="&#x4e91;" d="M292 685 Q265 687 254 706 Q243 726 246 732 Q248 738 267 738 Q641 740 741 745 Q766 746 775 721 Q789 687 759 685 Q516 682 292 685 ZM955 434 Q962 407 932 408 Q797 416 506 414 L514 405 Q526 389 512 368 Q384 189 270 63 Q479 85 715 103 Q682 164 603 290 Q589 312 596 317 Q602 321 621 306 Q747 207 835 28 Q867 -34 831 -64 Q804 -86 781 -28 Q767 7 737 64 Q633 44 474 22 Q321 -1 264 -12 Q219 -22 197 -32 Q181 -38 172 -26 Q156 -4 147 29 Q144 42 151 47 Q153 49 157 51 Q196 67 235 115 Q337 240 407 350 Q424 375 442 414 L107 413 Q86 413 79 422 Q69 438 65 453 Q59 469 75 469 Q822 472 898 483 Q926 487 938 470 Q952 446 955 434 Z" /><glyph glyph-name="uni4E95" unicode="&#x4e95;" d="M645 346 L645 560 L405 560 Q405 509 404 481 Q402 400 397 344 L645 346 ZM707 346 Q867 348 914 353 Q945 355 955 341 Q966 323 973 306 Q980 281 951 283 Q840 290 707 291 Q707 232 705 97 Q703 -8 681 -89 Q665 -140 656 -88 Q644 -19 644 91 L645 292 Q486 292 390 291 Q354 45 151 -91 Q134 -103 128 -98 Q121 -93 135 -78 Q296 83 325 291 Q220 289 100 288 Q81 288 73 296 Q64 310 60 326 Q55 340 70 341 Q259 343 333 343 Q338 400 340 483 L341 561 L207 561 Q175 562 163 582 Q151 603 153 608 Q155 613 177 613 L340 614 Q340 692 334 804 Q333 822 337 826 Q340 829 352 827 Q379 821 395 810 Q409 802 408 776 Q406 747 406 614 L527 615 Q606 615 645 616 L645 696 Q644 764 640 826 Q638 843 641 846 Q644 849 660 845 Q685 839 699 831 Q713 823 712 795 Q710 740 710 693 L709 617 L849 620 Q876 621 886 596 Q901 561 868 561 L709 560 L707 346 Z" /><glyph glyph-name="uni4E9B" unicode="&#x4e9b;" d="M392 564 Q391 535 391 477 L390 382 L522 421 Q543 427 547 419 Q551 410 535 401 Q422 338 119 236 Q96 229 84 241 Q69 254 53 284 Q43 305 65 306 Q90 306 112 311 L160 322 L159 489 Q159 579 158 624 Q156 671 153 695 Q151 714 166 710 Q188 706 211 696 Q223 691 220 671 Q218 640 218 616 Q216 470 216 335 Q277 351 332 366 L332 728 Q332 762 327 806 Q325 827 341 823 Q372 816 388 807 Q399 802 398 782 Q396 763 394 719 L393 614 L447 618 Q483 619 501 621 Q519 622 527 600 Q540 568 515 568 Q478 566 396 564 L392 564 ZM302 156 Q275 156 264 176 Q255 194 257 200 Q259 206 276 206 Q361 208 510 209 L733 212 Q757 213 765 190 Q779 156 750 156 L302 156 ZM890 24 Q903 2 907 -14 Q913 -40 885 -36 Q744 -26 155 -31 Q136 -31 130 -23 Q120 -8 116 8 Q111 24 126 24 Q808 29 853 35 Q881 39 890 24 ZM962 365 Q989 340 967 320 Q945 298 886 292 Q795 283 690 291 Q631 296 604 327 Q578 357 577 421 Q574 484 577 587 Q579 701 579 735 Q577 798 574 829 Q572 849 592 845 Q612 840 636 828 Q650 819 646 801 Q642 770 640 733 Q637 573 637 545 Q757 623 830 702 Q856 732 867 749 Q878 764 890 758 Q909 750 927 733 Q940 717 924 704 Q769 566 637 521 Q637 455 638 423 Q641 358 698 354 Q783 347 870 355 Q906 359 910 385 L923 458 Q927 475 934 475 Q940 475 941 456 Q943 380 962 365 Z" /><glyph glyph-name="uni4EA4" unicode="&#x4ea4;" d="M507 703 Q486 751 426 840 Q408 866 439 858 Q520 834 566 753 Q591 713 562 687 Q527 656 507 703 ZM128 629 Q118 645 114 660 Q109 675 124 675 Q784 675 864 685 Q890 690 899 674 Q910 659 916 639 Q922 613 895 616 Q811 621 153 621 Q135 620 128 629 ZM600 585 Q719 571 837 474 Q881 437 864 400 Q846 361 804 402 Q714 490 592 565 Q575 575 578 581 Q581 587 600 585 ZM127 346 Q116 341 112 349 Q109 355 119 363 Q248 459 332 557 Q349 577 358 592 Q369 608 381 597 Q406 578 417 562 Q428 546 414 535 Q247 384 127 346 ZM960 -50 Q985 -60 984 -65 Q983 -69 958 -77 Q945 -80 929 -90 Q909 -100 901 -103 Q882 -111 847 -101 Q637 -31 497 108 Q326 -37 75 -94 Q45 -100 43 -92 Q40 -84 68 -72 Q301 20 452 155 Q397 218 349 295 Q324 336 298 360 Q290 367 288 386 Q285 421 305 409 Q344 382 383 330 Q441 251 495 197 Q505 205 521 225 Q592 301 668 428 Q679 447 697 435 Q720 421 733 403 Q745 390 730 370 Q716 354 663 284 Q618 225 574 180 L544 150 Q646 61 768 14 Q806 -1 867 -19 Q931 -40 960 -50 Z" /><glyph glyph-name="uni4EA7" unicode="&#x4ea7;" d="M730 644 Q754 633 775 618 Q791 606 779 591 Q695 471 647 431 Q866 434 920 442 Q942 444 951 431 Q964 413 967 398 Q972 373 946 374 Q867 377 683 377 Q426 376 258 378 L247 378 L244 272 Q237 134 200 57 Q162 -21 68 -85 Q54 -94 48 -89 Q43 -85 53 -72 Q172 65 182 274 Q185 349 180 429 Q179 452 198 448 Q218 444 237 434 L242 431 L410 429 Q404 436 399 448 Q380 493 306 605 Q298 618 302 622 Q305 626 319 620 Q403 587 455 494 Q475 456 451 429 Q562 429 610 431 Q693 580 700 597 L711 633 Q713 641 715 644 Q361 644 196 645 Q165 645 152 665 Q140 684 142 690 Q145 694 167 695 Q297 695 541 697 Q533 702 527 715 Q511 753 455 835 Q438 861 466 851 Q540 833 584 760 Q605 724 579 700 L574 697 Q690 698 887 702 Q914 702 925 679 Q933 659 930 652 Q926 645 907 645 L730 644 Z" /><glyph glyph-name="uni4EAB" unicode="&#x4eab;" d="M482 746 Q468 778 425 841 Q412 861 435 858 Q500 848 538 791 Q553 767 542 744 Q655 745 850 749 Q876 749 886 727 Q895 708 891 701 Q888 694 869 694 Q387 692 164 694 Q134 694 123 713 Q112 732 114 737 Q117 742 137 742 Q256 742 483 744 L482 746 ZM277 478 Q367 477 528 479 L747 479 L747 571 Q452 573 277 569 Q279 526 277 478 ZM723 623 Q744 623 761 627 Q765 628 773 628 Q775 628 777 627 Q780 627 781 626 Q801 620 811 613 Q822 606 817 589 Q814 579 812 560 Q811 552 809 470 Q810 469 814 458 Q820 439 817 434 Q814 428 797 428 Q718 429 545 429 Q367 428 274 431 Q270 422 254 417 Q225 406 222 415 Q218 424 217 440 L216 511 Q216 559 215 578 Q214 593 209 610 Q205 621 207 623 Q209 626 222 624 Q242 622 249 619 L723 623 ZM824 372 Q826 371 828 367 Q840 350 847 329 Q852 311 835 304 Q598 210 540 194 L549 177 Q865 179 931 186 Q958 190 968 176 Q979 160 984 142 Q991 118 965 119 Q820 127 560 126 Q573 36 559 -38 Q550 -80 524 -99 Q486 -129 475 -96 Q472 -87 369 -57 Q353 -53 354 -45 Q356 -36 371 -37 Q453 -43 471 -42 Q487 -41 489 -32 Q503 41 496 126 Q407 126 90 124 Q72 124 64 133 Q56 146 50 161 Q45 176 61 176 L487 176 Q482 193 464 226 Q449 252 454 257 Q459 262 484 245 Q501 234 516 221 L520 223 Q650 282 721 320 Q351 310 180 307 Q161 307 147 332 Q136 353 137 359 Q139 364 158 363 Q453 362 769 371 Q793 372 803 376 Q817 382 824 372 Z" /><glyph glyph-name="uni4EAE" unicode="&#x4eae;" d="M105 695 Q97 706 92 723 Q87 738 102 738 Q328 736 499 738 Q497 740 495 744 Q485 767 431 843 Q415 863 442 860 Q517 850 555 789 Q572 762 555 738 Q820 740 887 748 Q913 751 921 738 Q931 721 936 705 Q944 681 917 682 Q844 687 130 687 Q112 687 105 695 ZM709 576 Q384 576 303 574 Q303 526 300 477 Q385 476 517 478 L708 479 Q708 545 709 576 ZM242 408 Q238 417 238 434 Q238 605 239 585 Q239 604 235 617 Q231 628 233 631 Q235 633 248 632 Q263 630 283 622 Q495 625 684 625 Q704 625 719 632 Q727 635 733 633 Q736 634 743 632 Q764 626 774 619 Q786 611 781 593 Q776 576 776 564 L773 472 Q776 468 779 458 Q785 439 782 434 Q779 428 761 428 Q692 429 538 429 Q378 428 296 431 Q295 415 274 409 Q245 400 242 408 ZM151 200 Q123 142 93 179 Q74 201 89 226 Q127 293 156 375 Q166 406 176 376 Q181 364 182 352 Q383 355 819 357 Q848 357 865 365 Q866 366 867 366 L869 367 Q879 374 895 363 Q919 344 932 326 Q949 304 930 294 Q908 282 902 277 Q879 257 840 205 Q819 191 813 195 Q807 198 815 224 Q818 235 843 303 Q504 306 192 300 L184 300 Q178 257 151 200 ZM970 -17 Q992 -35 977 -53 Q957 -73 907 -76 Q816 -83 710 -77 Q658 -74 636 -55 Q616 -35 614 10 Q613 55 615 154 Q447 154 375 152 Q374 139 370 110 Q336 -76 82 -108 Q65 -110 63 -102 Q62 -94 79 -88 Q190 -51 241 -5 Q292 42 306 118 Q312 153 312 213 Q312 231 329 227 Q352 223 371 212 L379 206 L489 207 Q558 207 590 208 Q609 208 624 215 Q628 218 635 218 Q641 218 643 216 L672 204 Q685 198 679 184 Q675 175 673 152 Q670 69 674 11 Q675 -7 686 -14 Q696 -20 726 -21 Q818 -25 893 -20 Q920 -18 924 -4 L935 38 Q941 51 946 51 Q952 50 954 35 Q959 -5 970 -17 Z" /><glyph glyph-name="uni4EBA" unicode="&#x4eba;" d="M469 487 Q322 141 81 -37 Q55 -57 49 -52 Q43 -46 65 -22 Q290 223 404 510 Q482 702 505 801 Q510 823 530 816 Q554 807 573 793 Q588 783 581 762 Q549 679 511 586 Q514 583 522 564 Q629 308 818 132 Q845 106 896 72 Q956 32 976 16 Q991 5 990 0 Q990 -5 974 -7 Q961 -10 941 -19 Q920 -28 909 -31 Q886 -36 866 -19 Q608 203 495 546 L469 487 Z" /><glyph glyph-name="uni4EC0" unicode="&#x4ec0;" d="M251 512 Q268 501 270 481 Q272 463 272 428 Q270 214 264 28 Q262 -30 245 -60 Q224 -94 209 -61 Q193 -29 196 14 Q211 248 205 446 Q205 460 204 467 Q147 403 59 325 Q47 316 41 321 Q34 327 44 339 Q264 637 322 745 Q336 774 350 817 Q357 835 372 828 Q393 820 415 802 Q427 790 418 774 Q334 624 246 516 L251 512 ZM990 469 Q996 445 970 446 Q876 453 692 451 L686 99 Q684 -10 661 -92 Q644 -142 635 -91 Q621 -18 623 93 Q625 332 625 451 L348 450 Q331 450 325 459 Q316 474 310 491 Q306 506 321 506 L625 507 L625 699 Q624 763 620 833 Q618 851 621 853 Q623 856 642 852 Q667 847 687 836 Q703 828 700 801 Q694 750 694 699 Q694 639 692 508 Q894 510 941 518 Q966 522 975 506 Q987 488 990 469 Z" /><glyph glyph-name="uni4ECA" unicode="&#x4eca;" d="M807 315 Q820 301 828 282 Q834 267 819 260 Q799 248 788 234 Q612 18 548 -76 Q530 -103 505 -69 Q491 -50 517 -15 Q571 63 727 257 Q599 255 233 247 Q212 246 198 276 Q187 299 189 305 Q190 310 209 309 Q480 307 741 315 Q764 316 778 322 Q783 325 787 325 Q797 328 807 315 ZM563 371 Q535 343 512 383 Q490 422 405 528 Q395 540 399 544 Q402 549 415 545 Q500 518 561 433 Q587 398 563 371 ZM986 435 Q1014 421 990 412 Q975 407 959 394 Q939 378 930 374 Q911 365 888 377 Q653 527 509 736 Q463 678 414 630 Q238 454 56 367 Q33 357 29 364 Q25 371 44 385 Q236 527 364 667 Q445 756 503 847 Q514 865 530 855 Q551 842 564 830 Q577 817 563 800 L531 762 Q688 591 837 504 Q864 489 909 469 L986 435 Z" /><glyph glyph-name="uni4ECB" unicode="&#x4ecb;" d="M390 504 Q406 497 403 476 Q399 455 398 410 L393 326 Q379 161 320 69 Q259 -25 121 -93 Q103 -102 97 -96 Q91 -90 107 -78 Q215 7 262 93 Q313 185 325 329 Q331 408 327 502 Q327 527 346 522 Q370 516 390 504 ZM680 531 Q693 525 694 500 Q696 465 694 424 Q693 390 692 246 Q691 125 689 40 Q686 -42 663 -97 Q647 -135 636 -96 Q624 -42 625 36 L627 429 Q627 491 624 526 Q622 541 625 544 Q628 547 644 543 Q666 538 680 531 ZM536 783 Q678 619 837 538 Q864 524 910 506 L989 477 Q1019 465 993 455 Q979 449 962 436 Q942 420 933 415 Q915 406 892 417 Q649 543 516 756 Q458 680 418 636 Q259 464 69 384 Q46 375 42 383 Q38 391 57 404 Q252 534 368 672 Q439 757 493 849 Q501 868 518 859 Q541 846 552 835 Q565 822 553 804 L536 783 Z" /><glyph glyph-name="uni4ECE" unicode="&#x4ece;" d="M459 276 Q432 327 341 434 Q272 149 73 -12 Q49 -30 43 -24 Q36 -18 55 6 Q236 230 291 530 Q324 710 324 800 Q324 815 328 818 Q332 821 347 818 Q372 813 395 801 Q411 793 407 768 Q398 733 385 661 Q368 560 360 519 L347 459 Q443 423 508 324 Q535 284 508 260 Q481 234 459 276 ZM684 494 Q745 262 873 92 Q893 65 930 31 Q975 -11 988 -25 Q1000 -37 1000 -42 Q999 -46 983 -47 Q970 -48 951 -54 Q930 -62 920 -63 Q897 -66 884 -47 Q730 150 669 425 Q587 101 349 -69 Q322 -89 316 -83 Q309 -76 333 -52 Q556 189 620 522 Q657 714 659 825 Q660 840 663 843 Q667 846 682 843 Q711 836 729 825 Q745 816 739 792 Q729 751 716 670 L684 494 Z" /><glyph glyph-name="uni4ED6" unicode="&#x4ed6;" d="M226 490 Q243 479 244 459 Q246 442 246 408 Q244 206 239 20 Q237 -36 219 -66 Q201 -98 184 -67 Q168 -36 170 6 Q186 238 180 425 L179 445 Q122 377 52 312 Q41 303 35 308 Q28 313 37 326 Q237 621 284 722 Q297 749 310 796 Q316 815 330 808 Q360 795 374 783 Q386 772 377 755 Q300 604 217 494 L226 490 ZM459 441 Q456 272 461 134 Q464 22 574 12 Q728 -2 862 16 Q924 25 929 57 Q943 145 946 152 Q950 170 957 169 Q963 168 964 149 Q969 54 991 33 Q1020 7 992 -17 Q959 -42 879 -50 Q727 -64 567 -51 Q405 -38 398 132 Q395 233 399 419 L324 395 Q301 389 286 413 Q272 437 273 442 Q274 448 290 452 L400 485 Q400 541 399 568 Q397 655 393 695 Q390 721 412 714 Q440 706 458 693 Q473 683 469 662 Q464 627 462 567 L461 504 L617 554 Q619 681 619 730 Q619 794 616 834 Q615 850 618 852 Q620 855 636 851 Q657 847 673 838 Q686 831 685 807 Q685 796 682 726 L679 575 Q780 609 819 623 Q840 631 854 647 Q863 657 871 657 Q879 659 885 655 Q901 648 919 634 Q933 623 925 610 Q917 592 915 576 Q911 544 899 435 Q888 332 880 274 Q873 226 843 211 Q803 193 797 216 Q794 227 726 255 Q714 261 716 266 Q717 272 731 271 Q810 266 811 278 Q831 409 844 573 L678 516 L672 273 Q669 182 645 123 Q630 82 621 124 Q610 181 612 269 L616 494 L459 441 Z" /><glyph glyph-name="uni4EE3" unicode="&#x4ee3;" d="M668 750 Q642 773 675 768 Q758 761 831 692 Q862 661 843 633 Q820 600 790 636 Q755 679 668 750 ZM275 475 Q280 449 280 422 Q284 222 276 35 Q272 -26 250 -56 Q228 -84 217 -52 Q208 -27 209 19 Q221 227 216 427 Q214 466 212 485 Q145 406 64 338 Q52 329 46 334 Q39 340 49 353 Q233 599 289 736 Q302 766 311 807 Q317 827 333 820 Q357 810 378 794 Q391 784 382 765 Q315 623 243 526 Q248 522 256 513 Q270 497 275 475 ZM946 75 Q954 90 961 86 Q966 82 962 66 Q939 -17 945 -55 Q951 -99 908 -91 Q873 -84 833 -53 Q644 81 576 414 L364 368 Q348 364 341 371 Q330 386 325 399 Q318 414 331 416 L565 467 Q549 552 540 664 Q532 759 517 827 Q511 853 529 849 Q559 842 578 832 Q595 824 595 804 Q593 763 600 671 Q608 564 623 480 Q845 531 889 548 Q909 556 921 544 Q934 525 939 512 Q949 490 927 487 Q839 474 633 426 Q698 114 873 1 Q899 -16 909 6 L946 75 Z" /><glyph glyph-name="uni4EE4" unicode="&#x4ee4;" d="M817 350 Q835 333 848 311 Q859 293 842 279 Q649 101 556 35 Q589 16 623 -8 Q684 -48 669 -93 Q656 -132 602 -91 Q442 32 282 119 Q258 132 261 138 Q264 145 289 140 Q402 121 515 59 Q647 184 741 290 Q633 288 461 283 L206 275 Q185 275 171 304 Q158 327 160 332 Q162 338 182 337 Q503 337 751 348 Q776 349 788 355 Q794 357 797 357 Q809 359 817 350 ZM578 393 Q551 361 524 403 Q490 457 408 546 Q398 557 401 563 Q404 568 418 565 Q504 544 572 459 Q601 421 578 393 ZM987 442 Q1003 435 1004 431 Q1005 425 991 419 Q976 413 958 401 Q939 386 929 382 Q909 372 887 385 Q651 524 512 735 Q462 669 412 615 Q240 423 51 332 Q28 321 23 328 Q19 336 38 351 Q234 500 358 652 Q438 747 495 845 Q505 865 523 855 Q546 841 558 830 Q572 816 559 798 L534 765 Q677 600 831 512 Q859 497 906 477 Q967 451 987 442 Z" /><glyph glyph-name="uni4EE5" unicode="&#x4ee5;" d="M508 475 Q466 561 358 693 Q345 708 350 713 Q354 717 371 709 Q484 654 557 530 Q586 482 559 454 Q531 425 508 475 ZM135 96 Q148 111 150 142 Q163 386 154 640 Q152 681 147 709 Q143 732 165 730 Q191 726 208 718 Q220 712 220 691 Q223 415 212 158 Q350 274 429 335 Q451 354 457 347 Q464 340 444 315 Q453 326 215 64 Q196 45 179 22 Q167 7 153 15 Q130 28 109 51 Q97 64 108 73 L135 96 ZM950 33 Q990 -16 968 -50 Q948 -85 911 -35 Q823 82 694 199 Q576 30 324 -72 Q294 -85 290 -77 Q284 -70 313 -54 Q519 64 621 208 Q726 353 757 569 Q773 668 773 790 Q773 807 777 810 Q780 815 793 810 Q819 803 836 792 Q851 784 848 760 Q843 734 837 668 Q830 603 825 566 Q794 358 708 222 Q837 169 950 33 Z" /><glyph glyph-name="uni4EEC" unicode="&#x4eec;" d="M232 546 Q246 536 249 514 Q251 477 250 458 Q249 294 242 14 Q240 -47 223 -80 Q204 -116 189 -80 Q173 -47 176 -3 Q193 256 187 477 Q187 489 185 509 Q127 441 56 378 Q45 369 39 374 Q33 379 41 392 Q240 681 277 756 Q289 780 302 824 Q308 841 323 835 Q350 823 366 808 Q378 797 369 781 Q292 645 220 553 L232 546 ZM439 570 Q441 549 441 511 Q444 354 439 28 Q437 -33 421 -65 Q402 -102 387 -66 Q374 -29 375 11 Q386 314 379 527 Q378 567 370 599 Q367 613 370 616 Q372 619 384 617 Q405 613 421 603 Q437 592 439 570 ZM426 775 Q504 760 562 684 Q589 649 567 624 Q540 592 516 633 Q491 676 417 757 Q395 780 426 775 ZM926 743 Q942 731 934 711 Q925 690 924 657 Q922 575 922 347 Q923 114 920 -5 Q919 -55 888 -77 Q854 -104 842 -77 Q839 -70 744 -32 Q731 -27 733 -22 Q734 -16 749 -16 Q817 -18 837 -15 Q852 -13 852 -3 Q862 325 859 698 Q696 694 631 694 Q617 693 606 721 Q598 743 600 749 Q601 754 615 753 Q732 751 847 755 Q866 755 874 761 Q883 766 889 763 L892 762 Q893 762 894 761 Q907 755 926 743 Z" /><glyph glyph-name="uni4EF6" unicode="&#x4ef6;" d="M245 555 Q261 545 262 523 Q264 486 263 466 Q262 299 255 15 Q253 -46 237 -79 Q217 -115 202 -80 Q186 -46 190 -1 Q206 262 200 485 L200 497 Q140 419 64 346 Q54 335 47 340 Q40 346 49 359 Q237 652 280 748 Q290 772 303 821 Q307 839 323 834 Q351 822 367 809 Q380 798 371 782 Q304 645 243 556 L245 555 ZM698 324 Q897 326 947 332 Q973 336 982 321 Q993 304 998 284 Q1003 260 976 261 Q879 268 697 268 Q696 185 694 96 Q692 -15 668 -95 Q652 -148 642 -94 Q629 -19 631 90 L633 268 Q567 268 344 266 Q328 265 321 274 Q311 285 306 306 Q302 322 316 322 Q558 324 633 324 L634 441 Q634 517 635 554 Q535 554 486 555 Q474 555 469 556 Q420 470 350 403 Q341 395 335 399 Q329 404 336 416 Q442 623 462 687 Q469 710 473 741 Q476 759 493 754 Q518 745 538 733 Q551 722 544 706 Q511 636 497 608 L635 609 L635 696 Q634 766 630 830 Q628 848 631 851 Q634 853 651 849 Q675 845 692 834 Q708 826 707 798 Q704 755 704 693 L703 610 Q826 612 887 615 Q911 615 921 591 Q935 555 905 555 Q837 554 702 554 L698 324 Z" /><glyph glyph-name="uni4EF7" unicode="&#x4ef7;" d="M252 486 Q257 460 257 431 Q263 218 254 20 Q251 -45 228 -75 Q208 -100 197 -69 Q189 -50 191 1 Q201 198 197 433 Q195 472 193 493 Q132 420 51 347 Q40 337 34 342 Q27 348 36 361 Q236 648 285 751 Q297 777 311 822 Q316 840 331 834 Q357 825 375 808 Q387 798 379 781 Q308 641 227 535 L233 527 Q246 510 252 486 ZM529 492 Q544 485 541 465 L538 399 Q537 346 535 312 Q526 157 479 70 Q430 -18 317 -86 Q301 -95 296 -90 Q290 -84 302 -72 Q388 10 425 91 Q464 176 472 314 Q477 389 472 489 Q471 512 490 507 Q512 502 529 492 ZM781 240 Q780 124 777 40 Q776 -36 752 -92 Q736 -129 726 -91 Q714 -40 715 35 Q717 289 717 417 Q717 475 714 509 Q713 525 716 528 Q718 530 735 527 Q752 523 768 514 Q782 508 783 485 L781 240 ZM657 767 Q743 625 869 529 Q890 512 928 492 Q975 467 991 457 Q1014 443 991 437 Q977 433 960 423 Q941 412 931 409 Q913 403 895 416 Q720 552 636 735 Q617 702 575 642 Q450 469 315 378 Q295 365 291 371 Q286 377 300 394 Q441 547 519 671 Q589 783 611 838 Q618 855 635 849 Q659 839 673 829 Q689 817 677 799 L657 767 Z" /><glyph glyph-name="uni4EFB" unicode="&#x4efb;" d="M241 517 Q258 505 259 485 Q261 466 261 431 Q255 109 252 19 Q250 -40 233 -71 Q214 -105 197 -72 Q181 -43 183 4 Q202 252 195 449 L195 460 Q135 392 61 323 Q49 313 43 318 Q36 323 45 336 Q250 627 304 740 Q314 760 331 813 Q335 832 351 826 Q377 816 394 800 Q408 790 398 773 Q323 625 241 517 ZM676 411 Q889 413 950 420 Q973 424 983 410 Q994 391 998 375 Q1003 351 977 352 Q898 356 675 356 Q671 179 670 39 Q748 40 895 40 Q921 40 930 17 Q944 -18 914 -18 Q676 -13 394 -18 Q365 -18 352 2 Q341 22 344 28 Q346 33 366 34 Q446 37 608 39 Q610 134 613 356 L343 356 Q327 356 321 364 Q312 376 307 395 Q303 410 318 410 Q528 410 614 411 Q615 466 615 563 Q615 611 609 670 Q498 652 390 653 Q367 653 367 662 Q367 671 390 675 Q570 708 719 753 Q798 778 857 808 Q875 817 885 804 Q901 784 909 762 Q919 742 892 737 Q887 736 830 718 Q784 704 744 696 Q675 681 658 678 L675 669 Q687 662 685 638 Q681 605 679 551 L676 411 Z" /><glyph glyph-name="uni4F17" unicode="&#x4f17;" d="M120 401 Q98 394 95 401 Q91 409 110 419 Q300 531 391 666 Q453 757 485 841 Q492 860 510 851 Q532 842 548 829 Q561 816 550 797 Q556 806 508 727 Q636 585 779 530 Q808 519 859 507 Q922 493 941 487 Q972 478 946 465 Q933 458 918 444 Q900 427 892 422 Q876 412 853 420 Q615 506 489 697 Q474 672 446 633 Q320 463 120 401 ZM454 128 Q420 170 327 256 Q251 67 60 -45 Q45 -53 41 -47 Q36 -41 49 -28 Q254 157 300 385 Q308 422 310 469 Q311 488 330 483 Q358 472 370 462 Q383 454 378 434 Q360 347 335 277 Q421 258 494 181 Q524 150 504 121 Q481 92 454 128 ZM986 -12 Q1010 -26 985 -31 Q971 -34 954 -45 Q934 -56 924 -59 Q904 -64 889 -51 Q727 70 658 258 Q588 51 384 -63 Q369 -71 364 -65 Q360 -59 374 -46 Q587 141 625 393 Q630 421 632 484 Q632 504 651 497 Q677 489 691 479 Q704 470 701 449 Q691 378 672 308 Q746 152 864 60 Q886 43 924 23 Q971 -2 986 -12 Z" /><glyph glyph-name="uni4F18" unicode="&#x4f18;" d="M777 636 Q752 678 682 759 Q673 769 676 774 Q679 778 692 775 Q767 757 822 683 Q846 649 824 626 Q798 597 777 636 ZM238 506 Q253 496 256 476 Q258 442 257 423 Q255 225 250 31 Q249 -25 231 -57 Q211 -89 195 -57 Q180 -28 182 17 Q198 249 192 442 L191 462 Q125 384 52 319 Q40 310 34 315 Q28 320 37 333 Q240 622 291 731 Q308 764 318 803 Q323 821 338 815 Q362 805 381 790 Q395 779 385 762 Q303 607 230 511 L238 506 ZM588 553 Q844 553 912 563 Q934 567 943 552 Q954 537 959 518 Q963 492 937 495 Q838 500 584 498 Q566 283 504 154 Q440 21 298 -83 Q279 -96 273 -92 Q267 -87 282 -70 Q488 147 518 498 L336 498 Q321 498 314 506 Q306 519 300 537 Q296 552 311 552 L523 552 L524 568 Q530 675 526 824 Q525 841 529 845 Q532 848 544 845 Q574 837 587 829 Q602 822 599 794 Q596 765 594 694 Q592 613 589 566 L588 553 ZM966 17 Q993 -9 972 -27 Q951 -47 898 -53 Q821 -61 737 -53 Q682 -49 660 -22 Q635 6 634 65 Q632 121 634 216 Q636 322 636 353 Q634 410 632 438 Q631 458 649 454 Q671 449 693 438 Q707 428 704 412 Q699 384 698 350 Q693 159 696 67 Q699 11 744 7 Q825 1 884 9 Q915 12 917 36 L922 83 Q925 114 929 133 Q931 149 938 148 Q946 148 947 129 Q950 33 966 17 Z" /><glyph glyph-name="uni4F19" unicode="&#x4f19;" d="M738 358 Q729 351 724 356 Q718 361 725 372 Q839 554 853 587 Q855 591 868 629 Q872 648 888 639 Q914 628 932 612 Q946 599 935 585 Q813 412 738 358 ZM350 588 Q341 605 346 609 Q350 613 366 604 Q457 548 514 426 Q538 378 506 356 Q476 332 458 380 Q435 442 350 588 ZM234 501 Q247 483 251 461 Q254 445 256 408 Q260 201 252 11 Q249 -52 225 -84 Q205 -111 193 -78 Q182 -50 186 -7 Q197 185 193 413 Q193 431 191 457 Q134 393 60 325 Q48 315 42 320 Q35 326 44 339 Q239 616 299 748 Q316 784 326 824 Q331 843 347 837 Q376 825 393 810 Q407 799 397 782 Q317 615 230 505 L234 501 ZM984 -44 Q1006 -62 980 -65 Q967 -66 948 -74 Q927 -83 916 -85 Q895 -89 879 -70 Q708 96 639 340 Q579 58 310 -87 Q288 -99 282 -93 Q276 -88 295 -72 Q448 48 514 182 Q583 319 596 544 Q604 690 597 820 Q596 838 600 842 Q604 845 619 842 Q644 835 664 825 Q679 816 676 790 Q673 758 671 681 Q669 593 666 542 Q661 465 652 409 Q720 201 858 58 Q881 34 921 5 Q970 -31 984 -44 Z" /><glyph glyph-name="uni4F1A" unicode="&#x4f1a;" d="M150 258 Q131 258 125 268 Q116 279 111 299 Q106 315 121 315 Q798 320 847 326 Q875 330 885 315 Q898 295 901 278 Q906 252 880 253 Q772 262 481 262 Q485 258 488 253 Q492 247 494 245 Q504 230 489 213 Q393 110 297 29 Q481 45 694 56 Q662 98 592 178 Q578 194 583 199 Q588 203 607 195 Q737 138 821 5 Q854 -48 825 -79 Q797 -109 768 -57 Q745 -13 720 21 Q617 5 471 -13 Q323 -30 274 -37 Q242 -43 216 -54 Q201 -62 193 -49 Q179 -29 171 1 Q166 17 180 19 Q220 31 250 61 Q333 139 396 215 Q415 240 427 261 L150 258 ZM321 432 Q295 431 284 451 Q274 470 276 477 Q278 483 295 484 Q342 486 495 490 Q615 494 684 497 Q708 498 717 475 Q731 440 703 439 L321 432 ZM979 480 Q1007 467 983 457 Q969 451 953 438 Q934 422 926 418 Q906 408 885 420 Q656 552 510 745 Q459 683 413 639 Q237 472 66 399 Q43 389 39 397 Q35 404 54 417 Q237 544 364 679 Q438 760 497 848 Q508 866 524 855 Q547 841 558 828 Q572 813 556 797 L531 768 Q686 619 834 541 L979 480 Z" /><glyph glyph-name="uni4F1F" unicode="&#x4f1f;" d="M615 319 Q771 321 833 323 Q857 323 869 329 Q875 332 882 332 Q887 333 895 330 Q916 320 929 310 Q942 299 934 287 Q928 278 925 262 Q919 233 909 166 Q898 94 892 60 Q884 15 854 4 Q813 -13 807 11 Q806 18 734 48 Q722 53 724 59 Q725 64 738 63 Q820 56 823 66 Q837 135 855 265 L614 261 L611 102 Q608 -13 584 -89 Q567 -140 558 -88 Q545 -13 547 96 L550 260 L359 256 Q339 255 325 285 Q313 309 315 314 Q317 320 336 319 Q403 318 550 318 L551 450 L417 450 Q390 450 380 469 Q370 489 372 494 Q374 500 391 500 L552 503 L553 626 L377 626 Q362 626 357 634 Q348 648 345 664 Q344 666 344 670 Q292 587 235 519 L240 516 Q256 505 257 485 Q259 466 259 432 Q257 211 252 16 Q250 -41 233 -72 Q214 -106 199 -73 Q183 -42 185 1 Q202 244 196 449 Q196 457 193 471 Q142 415 70 352 Q58 342 52 348 Q46 353 55 366 Q254 633 309 744 Q325 775 336 812 Q340 830 356 824 Q386 810 399 798 Q412 787 402 770 Q384 735 349 678 L553 678 L553 702 Q553 780 548 836 Q547 854 550 856 Q552 860 570 855 Q595 849 615 839 Q631 830 628 803 Q623 754 623 700 L623 678 Q816 680 871 688 Q891 692 899 677 Q910 662 913 645 Q917 622 894 623 Q842 626 621 626 L619 503 L829 506 Q852 507 861 484 Q874 450 846 450 L618 450 L615 319 Z" /><glyph glyph-name="uni4F20" unicode="&#x4f20;" d="M240 488 Q256 478 257 458 Q259 441 259 408 L251 25 Q249 -29 233 -60 Q214 -90 198 -60 Q182 -32 184 12 Q202 241 196 425 L195 438 Q136 369 64 300 Q52 290 46 295 Q39 300 49 314 Q263 621 320 745 Q336 779 347 823 Q352 842 368 836 Q397 824 412 810 Q426 801 416 783 Q334 615 237 489 L240 488 ZM585 494 Q876 496 942 505 Q965 507 974 494 Q984 479 989 459 Q993 435 969 436 Q891 440 569 440 L532 312 Q625 315 784 315 Q806 315 820 321 Q832 329 845 321 Q865 307 878 291 Q891 278 879 264 Q776 128 684 38 Q719 16 757 -15 Q806 -53 792 -92 Q778 -126 733 -86 Q588 39 443 126 Q422 140 425 146 Q428 151 452 146 Q550 122 649 61 L785 254 Q639 255 491 251 Q485 251 483 252 L481 252 Q453 250 462 282 Q481 346 508 440 L335 440 Q318 440 312 448 Q303 460 298 479 Q294 494 308 494 L524 494 L559 623 Q469 623 425 624 Q397 625 388 645 Q378 663 380 669 Q382 675 399 675 L573 676 Q594 755 607 834 Q610 849 614 851 Q619 853 633 847 Q651 840 667 826 Q679 815 673 795 L636 676 Q798 678 876 681 Q899 682 908 659 Q916 638 912 631 Q909 625 893 625 Q801 623 622 623 L585 494 Z" /><glyph glyph-name="uni4F30" unicode="&#x4f30;" d="M239 535 Q252 517 258 491 Q262 468 264 434 Q269 224 260 -6 Q257 -73 233 -106 Q213 -133 200 -100 Q192 -74 195 -24 Q205 186 201 436 Q201 470 197 492 Q134 417 61 352 Q49 342 43 348 Q37 353 46 366 Q139 501 181 567 Q181 570 184 571 Q252 676 287 750 Q300 777 312 822 Q319 840 334 834 Q362 823 379 806 Q392 796 382 778 Q303 632 235 540 L239 535 ZM796 294 Q600 296 468 293 Q470 175 465 34 Q536 33 640 34 L796 35 Q794 171 796 294 ZM670 614 Q878 616 929 622 Q953 626 963 611 Q975 592 978 575 Q983 550 957 551 Q850 559 669 557 L664 349 L773 349 Q794 349 809 356 L811 357 Q818 361 832 358 Q854 352 867 342 Q881 334 874 314 Q868 297 866 270 L858 24 Q859 23 863 12 Q871 -10 867 -15 Q863 -21 846 -21 Q787 -20 660 -20 Q529 -21 463 -19 L461 -52 Q461 -71 438 -81 Q409 -96 406 -84 Q401 -69 402 -47 Q405 258 404 289 Q402 323 397 340 Q394 354 396 357 Q399 359 413 357 Q430 354 444 347 Q497 348 601 348 Q603 499 603 557 Q545 557 356 555 Q341 555 334 564 Q324 581 321 596 Q316 612 330 612 L476 613 Q562 613 604 614 Q605 664 605 749 Q603 807 600 836 Q598 850 601 853 Q604 856 617 853 Q646 847 666 837 Q678 831 677 808 Q675 789 673 739 L670 614 Z" /><glyph glyph-name="uni4F46" unicode="&#x4f46;" d="M828 695 Q589 697 490 695 Q492 590 492 505 Q555 504 670 506 L826 506 L827 606 Q827 667 828 695 ZM827 250 Q826 300 826 454 Q773 455 662 455 Q548 454 491 455 Q491 344 488 249 L669 250 Q773 251 825 250 L827 250 ZM427 678 Q425 722 421 742 Q418 756 420 758 Q422 761 435 758 Q452 755 465 747 Q584 749 802 749 Q824 749 839 758 Q843 760 845 760 Q850 763 859 759 Q878 751 892 741 Q904 733 898 715 Q891 700 891 678 Q886 469 890 244 Q891 191 857 170 Q836 157 833 173 Q831 182 829 196 Q775 197 661 197 Q545 196 486 197 Q486 176 464 162 Q437 146 433 160 Q428 177 428 203 Q431 594 427 678 ZM257 495 Q261 474 261 439 Q263 208 256 9 Q253 -54 232 -89 Q211 -119 198 -85 Q187 -58 189 -9 Q202 221 197 448 Q197 465 195 496 Q139 428 55 356 Q43 347 37 352 Q31 357 40 370 Q227 631 279 753 Q294 789 302 825 Q306 843 324 837 Q348 828 369 811 Q382 801 374 783 Q303 637 231 541 Q237 537 239 534 Q253 520 257 495 ZM994 0 Q999 -24 973 -21 Q833 -9 349 -17 Q333 -17 327 -9 Q317 7 314 23 Q309 39 324 39 Q922 47 943 50 Q970 53 978 37 Q990 19 994 0 Z" /><glyph glyph-name="uni4F4D" unicode="&#x4f4d;" d="M638 658 Q616 716 555 818 Q547 831 551 835 Q555 839 568 833 Q648 798 693 704 Q715 661 687 639 Q655 613 638 658 ZM357 588 Q346 608 349 614 Q351 619 371 620 Q758 620 901 626 Q927 627 936 603 Q944 582 941 575 Q938 568 921 568 Q620 563 397 567 Q368 568 357 588 ZM407 471 Q397 494 404 498 Q410 501 425 484 Q521 373 576 192 Q593 129 557 110 Q528 95 516 153 Q498 232 407 471 ZM228 511 Q242 494 248 469 Q254 447 254 414 Q260 224 251 5 Q248 -59 223 -91 Q202 -116 192 -85 Q183 -61 186 -13 Q196 190 192 414 Q190 452 187 472 Q132 411 64 352 Q52 342 46 348 Q39 354 49 366 Q130 479 172 541 Q172 545 177 547 Q267 679 308 764 Q325 798 335 837 Q341 855 356 849 Q384 838 401 822 Q415 811 406 793 Q319 628 224 516 L228 511 ZM994 23 Q1000 -2 974 -1 Q856 8 329 5 Q312 5 306 13 Q298 25 293 43 Q288 59 303 59 L637 60 Q770 382 782 424 Q792 455 798 503 Q801 523 817 519 Q845 510 862 499 Q876 491 869 472 Q784 231 670 60 Q898 63 945 69 Q970 71 980 58 Q991 38 994 23 Z" /><glyph glyph-name="uni4F4E" unicode="&#x4f4e;" d="M332 806 Q345 796 338 779 Q273 633 209 538 L221 523 Q233 504 239 480 Q244 454 244 424 Q250 231 241 4 Q238 -62 214 -93 Q194 -119 184 -87 Q175 -63 178 -15 Q188 195 184 425 Q182 472 179 495 Q124 419 55 349 Q45 338 38 342 Q32 348 40 361 Q211 648 248 743 Q260 773 269 816 Q273 835 289 829 Q318 818 332 806 ZM592 92 Q672 68 726 -9 Q751 -42 726 -66 Q700 -93 679 -53 Q663 -25 582 76 Q574 86 577 92 Q580 96 592 92 ZM452 457 Q603 459 654 459 Q649 490 645 553 Q640 634 631 691 Q627 707 629 701 Q545 687 452 683 Q453 567 452 457 ZM971 64 Q978 75 983 72 Q989 69 985 54 Q968 -12 971 -46 Q975 -88 934 -79 Q906 -73 870 -44 Q705 92 660 407 Q611 407 451 405 Q450 275 441 58 Q501 97 575 142 Q598 156 603 149 Q610 142 590 120 Q559 85 509 43 Q446 -10 431 -23 Q421 -33 403 -54 Q391 -68 379 -59 Q361 -46 343 -23 Q337 -17 339 -11 Q336 -3 347 4 Q380 26 381 70 Q394 367 385 633 Q385 662 379 709 Q377 722 380 726 Q383 730 397 728 Q421 725 439 717 Q446 714 448 710 Q628 744 744 790 Q776 802 810 821 Q826 829 837 821 Q858 804 873 785 Q886 765 863 758 Q755 726 662 707 Q677 702 689 696 Q707 687 706 668 Q703 629 706 560 Q710 493 713 459 Q868 461 892 464 Q916 467 923 454 Q935 436 936 420 Q940 399 917 400 Q848 407 719 407 Q761 115 910 9 Q932 -7 941 10 Q957 41 971 64 Z" /><glyph glyph-name="uni4F4F" unicode="&#x4f4f;" d="M611 674 Q581 737 520 820 Q499 846 532 837 Q613 813 666 727 Q690 685 665 660 Q650 646 636 650 Q621 654 611 674 ZM248 528 Q263 518 266 496 Q268 477 268 441 Q266 214 261 17 Q259 -44 242 -75 Q221 -110 206 -76 Q190 -43 193 1 Q208 256 202 459 Q202 468 200 485 Q133 418 58 360 Q46 351 40 357 Q34 363 44 375 Q265 654 326 756 Q342 784 356 823 Q363 840 378 833 Q405 822 422 804 Q434 793 425 776 Q329 624 244 531 L248 528 ZM658 367 Q783 369 844 371 Q868 371 877 348 Q891 312 861 312 L657 311 L654 38 Q880 40 923 45 Q949 50 959 34 Q971 17 974 -3 Q979 -26 953 -25 Q826 -15 342 -20 Q325 -20 319 -13 Q310 -1 305 19 Q301 35 316 35 Q520 37 590 37 Q590 149 592 311 L433 312 Q406 312 395 332 Q385 353 387 358 Q389 364 407 365 L500 366 Q561 366 592 367 L592 471 Q592 520 586 566 L585 574 Q464 574 390 575 Q375 575 370 583 Q360 596 357 614 Q352 629 366 629 Q814 624 904 639 Q924 641 933 628 Q944 612 947 594 Q952 571 927 572 Q878 574 637 574 L654 567 Q666 561 665 537 Q662 517 660 461 L658 367 Z" /><glyph glyph-name="uni4F53" unicode="&#x4f53;" d="M215 535 Q232 525 233 504 Q235 486 235 451 L227 35 Q225 -22 207 -54 Q189 -86 172 -54 Q157 -22 160 21 Q177 272 171 468 L170 488 Q119 431 55 375 Q44 366 38 371 Q32 377 40 390 Q223 648 269 747 Q282 775 291 812 Q296 830 312 824 Q339 813 355 799 Q368 790 359 773 Q286 631 212 537 L215 535 ZM638 616 Q846 619 889 625 Q912 627 921 614 Q932 594 935 579 Q941 555 915 556 Q834 562 667 562 Q742 383 876 247 Q896 226 934 199 Q979 166 995 153 Q1007 142 1007 138 Q1007 134 993 132 Q978 129 960 120 Q939 111 929 109 Q908 105 892 121 Q713 305 637 554 Q633 357 632 199 Q680 199 768 201 Q790 202 798 179 Q811 145 784 145 L632 145 L632 21 Q632 -46 614 -87 Q602 -111 594 -111 Q586 -111 578 -88 Q559 -41 562 19 L566 145 L457 145 Q433 145 423 164 Q415 183 416 189 Q418 195 433 196 Q524 198 568 198 Q572 419 573 520 Q431 238 271 112 Q255 100 249 106 Q244 111 258 129 Q426 349 513 561 L335 561 Q319 561 314 569 Q303 582 300 599 Q296 615 310 615 L574 616 L574 727 Q574 781 563 832 Q557 860 581 852 Q609 844 633 826 Q648 815 645 787 Q643 756 641 708 L638 616 Z" /><glyph glyph-name="uni4F55" unicode="&#x4f55;" d="M620 225 Q618 359 620 483 Q532 485 458 483 Q459 405 455 224 L620 225 ZM631 545 Q640 551 653 547 Q671 542 684 533 Q696 524 690 506 Q684 487 683 464 Q680 417 678 221 Q682 218 686 203 Q692 183 690 177 Q687 170 672 170 Q633 171 563 171 L453 171 L452 151 Q452 133 431 123 Q404 111 401 121 Q397 135 397 156 Q400 433 398 482 Q398 505 392 531 Q389 543 391 546 Q393 548 406 546 Q427 541 440 534 Q496 535 597 535 Q615 535 628 543 L631 545 ZM358 737 Q868 735 954 747 Q975 751 985 736 Q997 717 1000 702 Q1005 677 979 678 Q927 681 863 681 L865 681 Q878 673 875 653 Q871 628 869 588 Q867 524 868 305 Q868 97 863 -20 Q862 -72 834 -95 Q796 -126 786 -95 Q781 -83 680 -48 Q668 -44 669 -36 Q670 -29 683 -29 Q797 -32 797 -18 Q807 298 804 622 Q802 664 799 682 L378 682 Q362 682 356 691 Q350 698 344 714 Q290 624 241 561 L242 559 Q254 541 259 516 Q262 499 264 459 Q269 231 260 27 Q257 -40 233 -72 Q211 -100 200 -66 Q193 -45 194 9 Q205 213 201 463 Q201 480 199 510 Q135 438 56 371 Q44 362 38 368 Q32 373 41 385 Q231 648 282 750 Q295 775 307 817 Q313 835 329 829 Q357 818 374 801 Q387 791 378 773 L358 737 Z" /><glyph glyph-name="uni4F5B" unicode="&#x4f5b;" d="M245 488 Q250 465 252 432 Q256 243 249 17 Q246 -48 220 -80 Q200 -106 189 -73 Q180 -50 183 -2 Q194 231 189 433 Q187 477 183 498 Q126 433 60 376 Q48 368 42 373 Q36 378 45 391 Q227 652 272 749 Q284 776 294 816 Q300 834 316 827 Q340 818 361 801 Q372 791 365 773 Q291 632 217 539 Q223 533 225 530 Q239 513 245 488 ZM567 444 Q565 360 560 304 Q600 305 679 305 L679 444 L567 444 ZM499 304 Q504 359 506 444 Q438 444 405 445 L401 369 Q398 327 396 301 L499 304 ZM567 632 Q570 574 567 497 L679 498 L679 634 L567 632 ZM745 635 L744 498 L848 499 Q848 549 850 637 L745 635 ZM742 305 L861 305 Q886 305 906 311 Q915 313 918 312 Q921 313 929 311 Q949 304 963 293 Q974 284 968 273 Q963 262 962 249 L955 172 Q950 116 946 85 Q940 44 914 33 Q876 16 869 37 Q865 45 797 69 Q785 74 786 79 Q787 85 800 84 Q879 80 880 91 Q888 157 895 250 L741 251 L738 105 Q736 -2 713 -80 Q698 -133 689 -79 Q675 -3 677 99 L678 251 Q636 250 553 250 Q520 39 347 -86 Q331 -98 325 -93 Q319 -88 332 -73 Q466 75 493 249 Q453 249 362 247 Q335 243 337 265 Q350 424 343 497 Q342 513 361 511 Q377 508 396 500 L402 497 L506 497 L505 631 L402 629 Q383 629 371 656 Q361 677 363 682 Q365 689 381 688 Q420 687 503 687 Q502 735 498 809 Q497 827 500 831 Q503 834 515 832 Q542 825 556 816 Q570 808 568 782 Q567 754 567 687 Q643 687 679 688 L679 703 Q679 768 675 834 Q674 852 676 854 Q678 856 695 852 Q721 847 739 837 Q754 829 752 803 Q748 762 746 702 L746 689 Q779 689 831 691 Q850 691 862 696 L864 697 Q872 701 882 698 Q899 692 910 683 Q921 676 916 660 Q910 641 909 627 Q906 589 904 494 Q907 491 913 476 Q920 454 917 449 Q914 443 894 443 Q798 445 744 445 L742 305 Z" /><glyph glyph-name="uni4F5C" unicode="&#x4f5c;" d="M239 536 Q256 526 257 504 Q259 486 259 449 L251 33 Q249 -27 231 -59 Q211 -93 195 -59 Q180 -28 183 19 Q200 270 194 468 Q194 477 192 493 Q130 420 52 354 Q40 344 34 350 Q28 356 37 369 Q223 634 271 740 Q285 772 294 808 Q299 828 317 821 Q342 811 364 794 Q377 783 368 764 Q295 626 231 541 L239 536 ZM522 617 Q437 497 323 400 Q312 391 306 396 Q299 401 308 414 Q492 688 532 772 Q542 792 555 838 Q560 858 577 850 Q603 841 625 824 Q638 812 629 794 Q594 727 552 663 Q863 664 916 679 Q941 687 951 673 Q961 659 970 635 Q978 610 954 610 Q914 612 809 610 L593 609 Q597 603 596 585 Q596 529 595 500 L594 444 Q830 450 854 458 Q878 465 886 453 Q897 438 902 416 Q911 392 886 393 Q908 392 596 390 L593 390 Q591 301 590 210 Q869 216 886 222 Q911 229 919 215 Q929 201 936 179 Q942 154 919 155 Q858 158 591 156 L589 156 L586 57 Q583 -35 559 -97 Q542 -138 533 -96 Q521 -43 521 52 Q526 431 526 505 Q526 573 523 613 L522 617 Z" /><glyph glyph-name="uni4F60" unicode="&#x4f60;" d="M229 541 Q246 530 247 508 Q249 489 249 452 Q247 226 242 25 Q240 -36 223 -69 Q202 -104 187 -70 Q170 -36 173 9 Q191 266 183 471 Q183 492 182 501 Q125 439 54 379 Q42 370 36 376 Q30 381 39 394 Q230 660 279 758 Q295 790 305 826 Q312 844 327 837 Q355 825 371 809 Q384 797 374 781 Q291 635 219 547 L229 541 ZM493 370 Q503 385 509 383 Q515 381 513 366 Q497 257 387 134 Q334 73 316 110 Q301 143 328 170 Q434 285 493 370 ZM673 514 Q685 507 682 488 Q678 469 676 436 Q675 388 675 231 Q675 82 672 -5 Q669 -56 640 -78 Q603 -108 591 -78 Q586 -67 471 -30 Q459 -26 460 -20 Q461 -13 474 -14 Q602 -16 603 -3 Q612 206 610 465 Q608 504 603 521 Q601 532 604 535 Q609 537 623 534 Q648 528 673 514 ZM796 480 Q814 527 856 611 Q614 613 514 610 Q446 499 343 408 Q333 399 327 404 Q321 410 329 422 Q475 656 513 758 Q525 790 532 824 Q535 844 552 837 Q582 825 600 811 Q615 800 605 783 Q573 712 548 668 L702 669 Q796 669 842 670 Q866 670 882 680 Q889 687 896 684 Q906 682 911 679 Q935 665 954 649 Q973 629 955 617 Q939 607 923 590 Q906 571 818 465 Q801 448 794 453 Q787 457 796 480 ZM958 182 Q989 132 960 102 Q932 74 906 124 Q868 195 751 350 Q739 365 744 370 Q748 374 765 366 Q878 310 958 182 Z" /><glyph glyph-name="uni4F6C" unicode="&#x4f6c;" d="M226 507 Q239 489 243 467 Q247 447 247 414 Q252 230 243 9 Q242 -53 218 -85 Q198 -111 187 -79 Q178 -59 180 -9 Q191 205 187 418 Q187 446 184 468 Q121 401 52 346 Q40 337 34 342 Q28 348 38 360 Q236 613 301 751 Q316 781 327 823 Q332 840 349 834 Q376 821 390 808 Q403 797 394 780 Q312 618 222 511 L226 507 ZM734 478 Q891 480 927 484 Q951 488 960 474 Q972 457 975 440 Q981 415 955 418 Q873 424 684 424 Q607 343 522 278 Q522 261 521 251 Q518 190 518 147 Q669 213 754 277 Q780 295 802 317 Q816 331 827 323 Q843 309 855 289 Q866 272 849 262 Q662 153 517 125 Q517 96 520 42 Q521 -8 581 -12 Q704 -20 801 -10 Q841 -6 845 16 L857 105 Q861 120 868 119 Q874 118 875 102 Q880 12 896 -2 Q922 -24 900 -44 Q876 -65 815 -69 Q703 -79 575 -70 Q513 -66 486 -40 Q459 -14 457 41 Q455 81 456 140 L458 232 Q377 176 282 127 Q254 114 250 121 Q245 128 270 146 Q378 223 457 290 L456 326 Q455 344 471 340 Q483 338 503 330 Q563 383 601 424 Q557 423 466 423 L309 422 Q292 422 287 429 Q277 445 274 459 Q270 475 283 475 L528 476 L529 639 Q459 639 424 640 Q400 641 392 661 Q382 679 384 685 Q385 692 401 692 L529 693 L529 767 Q529 790 525 837 Q523 858 539 853 Q572 846 588 838 Q599 833 598 813 Q596 797 594 758 L593 693 Q690 695 736 698 Q757 699 766 675 Q778 641 752 641 Q643 639 592 639 L589 476 L650 477 L693 526 Q791 641 866 766 Q877 786 893 776 Q911 765 926 750 Q938 736 926 719 Q789 538 744 488 L734 478 Z" /><glyph glyph-name="uni4F7F" unicode="&#x4f7f;" d="M227 537 Q242 526 245 504 Q247 466 246 448 Q242 226 237 21 Q235 -41 218 -74 Q198 -107 182 -74 Q165 -43 168 6 Q188 255 181 467 L180 486 Q120 419 47 353 Q36 343 30 349 Q23 355 32 367 Q248 683 283 753 Q297 780 310 822 Q315 840 330 834 Q357 825 376 808 Q390 797 380 780 Q303 637 224 539 L227 537 ZM605 496 Q540 496 432 494 Q434 415 431 343 L592 343 Q602 411 605 493 L605 496 ZM670 491 Q667 398 658 344 L828 344 Q828 400 830 496 L670 497 L670 491 ZM894 322 Q902 301 899 296 Q895 290 877 291 Q841 292 649 292 Q623 176 571 100 Q672 31 790 -2 Q826 -11 884 -23 Q943 -35 972 -44 Q999 -50 999 -55 Q998 -60 973 -70 Q961 -74 946 -86 Q928 -97 920 -101 Q900 -110 867 -103 Q675 -56 533 52 Q454 -35 299 -102 Q276 -112 270 -106 Q265 -100 286 -87 Q423 -3 491 85 Q436 134 393 182 Q362 215 330 236 Q319 242 317 262 Q311 295 332 285 Q375 266 422 221 Q474 172 523 134 Q565 203 582 292 Q505 291 427 292 Q423 281 406 274 Q376 263 372 273 Q368 284 368 300 L368 405 Q368 474 366 501 Q364 526 360 539 Q357 551 359 553 Q361 556 374 554 Q399 551 410 545 L509 546 Q574 546 606 547 Q607 588 607 660 Q511 659 380 660 Q367 660 360 668 Q354 677 348 698 Q344 713 358 713 Q451 712 606 712 Q605 758 601 835 Q600 853 603 858 Q607 861 620 858 Q647 850 664 841 Q678 832 675 806 Q673 751 673 713 Q843 715 895 722 Q916 725 924 712 Q934 698 938 679 Q943 657 919 658 Q875 660 673 660 Q673 588 672 547 L802 548 Q825 548 839 554 Q843 556 846 556 Q854 560 865 556 Q885 550 897 542 Q909 534 904 516 Q900 503 897 481 Q894 437 892 329 L894 322 Z" /><glyph glyph-name="uni4F9B" unicode="&#x4f9b;" d="M254 460 Q259 437 260 406 Q265 213 256 -3 Q253 -67 229 -99 Q219 -111 210 -109 Q202 -107 197 -93 Q188 -68 191 -20 Q201 177 197 408 Q195 453 193 477 Q131 400 56 327 Q45 317 39 322 Q32 327 40 340 Q232 639 275 737 Q284 759 298 810 Q302 830 319 824 Q343 816 365 799 Q379 788 370 770 Q298 621 223 518 L237 502 Q250 484 254 460 ZM588 167 Q602 154 589 140 Q443 -27 331 -88 Q320 -93 316 -88 Q311 -83 320 -72 Q469 100 502 152 Q516 175 524 192 Q531 208 546 199 Q569 187 588 167 ZM719 192 Q829 137 916 5 Q948 -45 921 -76 Q893 -105 866 -56 Q819 27 705 175 Q692 191 697 196 Q701 200 719 192 ZM546 538 L545 297 L728 298 L731 538 L546 538 ZM793 538 Q793 509 791 424 L789 299 Q914 301 953 307 Q978 311 988 295 Q1000 277 1004 258 Q1008 234 982 235 Q869 243 360 240 Q343 240 337 248 Q328 263 323 280 Q319 296 333 296 L488 297 Q487 384 487 538 L409 538 Q379 538 368 559 Q357 579 360 584 Q362 590 381 590 L487 592 Q487 687 486 726 Q484 778 478 818 Q476 832 479 835 Q483 838 494 835 Q518 831 541 819 Q553 811 551 791 Q548 760 548 717 L547 592 L732 595 L733 744 Q731 807 727 838 Q725 862 744 856 Q771 850 793 838 Q805 831 803 809 Q799 773 798 734 L795 595 L900 597 Q926 597 935 574 Q943 552 939 545 Q936 538 919 538 L793 538 Z" /><glyph glyph-name="uni4F9D" unicode="&#x4f9d;" d="M603 541 Q635 429 679 344 Q760 413 800 464 Q814 482 827 506 Q836 524 850 518 Q875 506 891 490 Q905 477 890 461 Q774 352 692 318 Q749 215 830 139 Q855 114 902 83 Q959 47 977 31 Q990 20 989 16 Q989 12 974 10 Q961 8 941 -2 Q920 -12 908 -14 Q888 -19 869 -2 Q647 187 580 505 Q532 436 494 388 Q496 388 500 385 L506 383 Q517 378 517 362 Q517 185 509 28 Q564 56 639 90 Q666 102 671 94 Q676 85 652 63 Q622 32 570 -3 Q506 -46 492 -58 Q485 -63 461 -88 Q448 -101 435 -90 Q417 -74 398 -45 Q395 -40 395 -35 Q394 -29 398 -26 Q400 -24 405 -22 L416 -17 Q448 0 449 27 Q457 185 451 329 L451 337 Q373 254 292 203 Q276 192 270 199 Q264 205 280 222 Q461 426 564 620 Q435 620 357 621 Q341 621 336 629 Q328 639 323 658 L322 662 Q268 573 219 509 L231 503 Q249 492 250 472 Q252 454 252 420 Q250 212 245 26 Q243 -31 225 -61 Q206 -93 190 -61 Q175 -31 176 12 Q192 246 185 438 Q185 448 183 466 Q130 404 64 343 Q52 333 46 338 Q40 343 48 357 Q242 646 282 735 Q293 756 306 804 Q310 824 327 817 Q353 807 373 791 Q386 781 377 762 Q352 715 328 673 L333 673 Q443 672 624 672 Q614 679 610 693 Q594 736 545 818 Q530 842 558 834 Q630 813 670 739 Q690 699 663 676 L657 672 Q865 675 914 683 Q935 687 944 672 Q954 657 958 639 Q962 617 938 618 Q864 622 628 620 L633 613 Q641 598 632 584 L603 541 Z" /><glyph glyph-name="uni4FBF" unicode="&#x4fbf;" d="M235 556 Q249 541 253 514 Q256 487 256 455 Q256 263 250 48 Q249 -22 229 -57 Q210 -89 193 -54 Q179 -24 182 29 Q197 249 190 468 L189 498 Q126 424 49 359 Q37 350 31 356 Q25 361 34 373 Q137 513 177 574 Q173 591 186 588 Q239 668 276 744 Q288 770 300 812 Q307 831 321 824 Q347 811 364 798 Q376 787 367 770 Q297 641 235 556 ZM599 308 Q607 353 610 414 Q539 412 467 414 L466 360 Q466 324 465 308 L599 308 ZM466 569 Q467 538 467 463 L611 463 Q612 502 612 571 L538 570 Q491 570 466 569 ZM677 571 Q677 503 675 464 L815 464 Q815 508 817 570 L677 571 ZM815 310 L815 414 L674 414 Q671 353 664 309 L815 310 ZM788 624 Q810 624 824 630 Q830 632 833 632 Q841 634 849 631 Q870 623 881 616 Q896 607 888 591 Q883 580 883 562 Q879 452 881 297 Q883 252 847 237 Q825 228 821 241 L818 256 L655 256 Q633 161 586 95 Q684 33 794 9 Q833 -1 885 -9 Q953 -20 972 -24 Q997 -29 998 -34 Q998 -40 974 -50 Q963 -54 949 -65 Q932 -77 925 -80 Q907 -90 876 -84 Q684 -44 548 50 Q467 -34 310 -90 Q286 -99 281 -93 Q276 -86 297 -74 Q439 2 504 82 Q450 125 395 186 Q364 219 330 239 Q319 246 316 264 Q310 296 331 286 Q378 264 420 224 Q486 163 537 127 Q572 186 589 256 Q504 256 462 257 Q458 245 442 236 Q413 224 410 235 Q405 248 405 269 L405 569 Q404 591 399 616 Q396 628 398 631 Q400 633 412 631 Q432 628 444 621 L531 622 Q584 622 611 623 Q609 687 607 719 L607 723 Q523 722 413 723 Q399 723 394 732 Q389 739 381 761 Q379 776 391 776 Q810 774 886 785 Q905 789 914 775 Q924 758 927 742 Q931 719 908 720 Q862 723 671 723 Q681 714 680 694 Q678 651 678 623 L788 624 Z" /><glyph glyph-name="uni4FD7" unicode="&#x4fd7;" d="M866 615 Q823 676 710 795 Q697 808 701 813 Q704 818 720 812 Q821 778 909 672 Q941 632 918 603 Q894 572 866 615 ZM351 539 Q340 534 336 539 Q332 544 340 554 Q470 705 504 764 Q513 782 523 803 Q529 820 543 810 Q568 797 584 781 Q595 768 585 753 Q450 590 351 539 ZM235 520 Q248 503 254 479 Q258 461 260 422 Q264 202 256 12 Q253 -52 230 -84 Q209 -108 197 -77 Q188 -54 191 -6 Q202 219 197 426 Q197 446 193 477 Q140 412 55 337 Q43 328 37 333 Q30 339 40 352 Q127 474 175 545 Q175 551 181 552 Q254 666 293 755 Q305 786 318 830 Q322 849 338 842 Q365 833 384 817 Q397 805 388 788 Q314 631 232 524 L235 520 ZM786 234 Q614 236 499 233 Q499 111 495 12 Q556 11 648 12 L786 13 Q784 127 786 234 ZM429 294 Q372 248 302 213 Q283 203 279 210 Q275 218 290 232 Q446 364 529 487 Q593 582 624 651 Q632 669 650 662 Q671 653 687 639 Q702 627 689 609 L660 564 Q750 435 870 364 Q892 351 931 333 Q980 312 995 305 Q1019 292 996 284 Q982 280 965 270 Q946 257 937 254 Q919 247 902 260 Q727 365 640 534 Q616 497 583 455 Q510 361 440 303 L445 301 Q467 298 487 286 Q681 288 762 288 Q781 288 797 294 L801 295 Q808 298 818 295 Q837 290 850 281 Q861 274 856 255 Q850 235 849 215 Q846 155 844 6 Q848 1 851 -11 Q858 -31 855 -37 Q852 -44 835 -43 Q782 -42 667 -42 Q551 -43 492 -42 L491 -65 Q491 -83 469 -92 Q441 -105 438 -94 Q433 -84 433 -60 L437 239 Q434 271 431 286 L429 294 Z" /><glyph glyph-name="uni4FDD" unicode="&#x4fdd;" d="M253 496 Q257 476 257 447 Q259 200 251 7 Q248 -48 226 -78 Q204 -105 194 -74 Q187 -49 188 -9 Q201 219 197 452 Q195 500 194 504 Q134 438 53 371 Q41 362 35 367 Q29 372 38 385 Q232 645 282 750 Q298 782 307 817 Q312 835 328 829 Q355 818 373 802 Q386 791 377 774 Q298 630 225 540 Q229 537 236 530 Q249 519 253 496 ZM485 537 Q550 536 650 537 L795 538 Q793 633 795 721 Q609 723 486 720 Q488 622 485 537 ZM858 514 Q866 493 863 487 Q859 481 842 481 Q808 482 629 482 Q640 479 651 472 Q663 465 662 444 Q660 409 660 395 Q659 380 659 351 Q866 353 907 358 Q929 362 938 348 Q950 329 953 314 Q957 289 933 292 Q840 298 692 298 Q774 186 875 115 Q894 101 927 84 Q970 62 982 55 Q1006 40 982 33 Q969 29 952 19 Q932 7 924 4 Q906 -3 891 10 Q734 137 658 292 Q657 246 657 147 L656 -12 Q655 -55 637 -83 Q615 -118 600 -84 Q586 -52 589 -12 Q593 177 594 251 Q432 67 296 10 Q280 2 276 10 Q272 16 287 28 Q449 160 543 297 L340 296 Q325 296 320 304 Q312 316 307 333 Q302 349 317 349 L595 350 L594 406 Q592 447 589 471 L588 482 Q517 482 483 483 L481 483 Q475 475 461 468 Q431 457 427 467 Q423 479 423 497 Q419 737 420 728 Q418 755 414 769 Q411 782 413 784 Q415 787 428 785 Q453 781 468 773 Q628 776 772 776 Q792 776 803 782 Q812 793 828 788 Q848 782 860 774 Q873 765 867 747 Q863 733 860 708 Q858 687 856 522 L858 514 Z" /><glyph glyph-name="uni4FE1" unicode="&#x4fe1;" d="M635 720 Q618 761 564 834 Q549 855 576 850 Q646 836 690 766 Q712 731 686 707 Q653 678 635 720 ZM453 34 Q524 33 633 34 L794 35 Q794 92 796 188 Q579 190 453 186 L453 34 ZM450 -47 Q450 -64 428 -72 Q399 -85 396 -74 Q392 -65 392 -44 Q388 200 389 192 Q387 220 383 234 Q380 245 382 248 Q384 250 397 249 Q419 246 431 239 L769 242 Q789 242 806 249 Q810 251 812 251 Q818 254 829 251 Q848 246 860 237 Q873 229 867 211 Q863 198 861 177 Q858 148 856 27 Q855 31 861 13 Q868 -8 865 -14 Q862 -19 844 -19 Q776 -18 652 -18 L451 -18 L450 -47 ZM420 343 Q392 343 381 364 Q370 383 373 390 Q375 396 393 396 L627 399 Q776 400 849 402 Q873 403 882 378 Q896 342 866 343 L420 343 ZM418 492 Q391 492 381 511 Q371 531 373 536 Q375 542 392 542 Q744 544 839 549 Q862 549 872 526 Q885 492 856 492 Q628 489 418 492 ZM989 660 Q994 636 970 637 Q928 639 335 641 Q320 641 312 650 Q305 661 302 670 Q258 593 219 540 L229 534 Q247 524 248 502 Q250 483 250 446 Q249 298 242 17 Q240 -44 222 -76 Q203 -110 186 -77 Q170 -44 173 1 Q192 255 183 465 Q183 483 182 491 Q125 419 62 357 Q51 348 45 353 Q38 358 46 371 Q239 688 263 741 Q272 764 286 810 Q290 829 306 823 Q336 812 351 798 Q366 788 356 770 Q349 755 316 694 Q865 694 943 704 Q966 708 975 694 Q986 675 989 660 Z" /><glyph glyph-name="uni4FEE" unicode="&#x4fee;" d="M205 511 Q222 501 223 482 Q225 448 224 432 Q223 285 215 32 Q213 -24 198 -52 Q180 -84 164 -53 Q150 -25 152 19 Q168 242 163 448 Q163 456 161 470 Q112 416 52 361 Q41 352 35 357 Q28 362 37 374 Q236 665 274 740 Q286 766 298 806 Q303 824 319 818 Q344 805 362 792 Q374 781 365 764 Q279 613 199 514 L205 511 ZM368 124 Q368 79 352 53 Q332 19 319 52 Q308 77 310 117 Q320 363 317 557 Q317 586 312 619 Q308 639 325 634 Q343 630 362 620 Q375 611 375 591 L368 124 ZM924 188 Q934 158 935 143 Q936 127 921 116 Q629 -71 346 -85 Q323 -86 322 -76 Q320 -68 346 -62 Q676 11 900 191 Q918 204 924 188 ZM408 91 Q388 88 386 97 Q384 105 405 111 Q653 184 803 298 Q818 309 824 295 Q834 272 836 253 Q837 238 823 230 Q594 104 408 91 ZM460 262 Q445 261 444 268 Q442 275 457 280 Q632 346 714 408 Q727 419 734 406 Q743 382 745 364 Q748 350 734 343 Q579 269 460 262 ZM557 670 Q609 604 662 557 Q725 617 784 689 Q603 689 572 688 L569 688 L557 670 ZM985 414 Q1014 406 991 395 Q978 390 964 376 Q949 362 940 358 Q926 350 906 357 Q763 405 668 488 Q558 405 399 351 Q377 343 374 352 Q371 359 390 370 Q532 447 627 528 Q579 578 541 646 Q490 579 428 533 Q419 526 414 531 Q409 536 416 546 Q532 718 556 790 Q564 811 570 838 Q573 855 588 849 Q614 839 627 827 Q640 818 632 801 Q600 740 599 739 L700 740 Q762 740 793 741 Q806 741 822 746 Q832 756 846 746 Q863 736 879 717 Q893 702 878 688 Q859 670 829 636 Q767 568 709 520 Q765 481 835 454 Q862 445 910 434 Q964 420 985 414 Z" /><glyph glyph-name="uni5012" unicode="&#x5012;" d="M306 727 Q304 743 314 743 Q611 741 662 751 Q678 755 685 741 Q694 726 696 710 Q699 689 679 689 Q655 690 488 690 Q490 689 492 684 Q495 681 496 679 Q506 668 495 652 Q432 552 372 480 Q501 494 590 500 Q581 524 545 604 Q538 618 543 621 Q546 624 559 616 Q635 556 672 449 Q685 406 659 389 Q629 370 619 414 Q613 441 604 466 Q551 453 468 441 Q387 428 357 420 Q340 416 318 405 Q305 397 296 409 Q284 427 277 452 Q274 459 278 464 Q278 468 284 471 Q311 483 332 511 Q376 572 419 646 Q434 677 438 690 Q371 690 332 691 Q320 691 315 698 Q308 711 306 727 ZM215 481 Q221 458 222 425 Q227 227 218 8 Q216 -54 192 -87 Q171 -112 160 -80 Q152 -57 155 -10 Q165 227 160 427 Q160 475 152 503 Q104 443 48 388 Q38 377 31 382 Q25 388 32 401 Q196 667 231 755 Q242 788 249 823 Q253 841 270 836 Q297 826 314 813 Q326 803 319 786 Q248 634 179 538 Q189 531 196 523 Q210 503 215 481 ZM511 79 Q627 105 677 117 Q696 121 700 113 Q703 106 689 98 Q648 76 328 -23 Q308 -30 297 -18 Q284 -5 271 22 Q263 42 282 41 Q308 41 323 44 Q387 55 452 67 L453 225 L344 226 Q321 226 313 244 Q305 262 306 268 Q308 274 322 275 L389 276 Q433 276 454 277 L454 351 Q454 372 450 417 Q448 437 463 433 Q489 428 510 418 Q523 413 520 395 L514 277 Q569 279 619 280 Q639 281 648 258 Q659 226 634 226 L513 225 L511 79 ZM764 198 Q747 175 734 197 Q720 223 721 251 Q728 416 725 549 Q725 574 719 595 Q713 614 732 610 Q756 604 768 597 Q783 591 783 575 L780 256 Q780 221 764 198 ZM928 817 Q940 808 936 787 Q930 746 930 714 Q927 627 928 370 Q928 114 924 -20 Q923 -70 895 -93 Q860 -123 849 -93 Q845 -81 755 -48 Q744 -43 745 -36 Q745 -30 758 -30 Q861 -32 861 -19 Q873 365 868 751 Q868 791 862 825 Q856 846 880 840 Q909 831 928 817 Z" /><glyph glyph-name="uni5019" unicode="&#x5019;" d="M777 790 Q785 797 800 792 Q819 787 833 778 Q847 769 837 751 Q830 740 827 721 Q818 680 808 609 Q883 610 923 616 Q941 618 951 605 Q961 588 964 573 Q968 550 944 551 Q888 553 758 553 Q570 552 461 553 Q447 553 442 562 Q434 572 429 591 Q425 606 439 606 Q667 606 748 607 Q756 676 763 728 Q581 724 508 724 Q494 723 484 751 Q475 773 477 778 Q478 783 492 782 Q613 779 750 783 Q768 784 777 790 ZM214 537 Q227 520 231 496 Q235 476 235 441 Q239 216 231 13 Q228 -54 205 -85 Q186 -114 173 -79 Q165 -55 166 -6 Q178 223 173 446 Q173 482 171 498 Q126 444 55 381 Q44 372 38 377 Q31 382 40 396 Q219 656 265 759 Q278 785 288 827 Q292 846 309 839 Q335 830 355 813 Q368 803 359 786 Q286 641 209 543 L214 537 ZM357 107 Q336 79 325 107 Q311 137 314 169 Q325 373 322 547 Q322 577 316 605 Q311 623 329 619 Q348 615 364 607 Q379 599 380 580 Q382 549 381 535 Q381 375 374 182 Q372 132 357 107 ZM699 248 Q887 250 933 256 Q955 260 963 246 Q973 231 976 213 Q980 191 957 192 Q876 196 725 196 Q784 78 879 13 Q898 -2 935 -18 Q977 -36 993 -46 Q1017 -59 992 -65 Q978 -69 961 -79 Q942 -91 932 -94 Q915 -99 899 -87 Q746 14 693 196 L684 196 Q621 -6 369 -89 Q348 -96 345 -88 Q341 -79 361 -69 Q558 38 616 195 L440 195 Q425 195 420 203 Q411 215 408 233 Q404 247 417 247 L631 247 L636 272 Q644 316 646 391 L565 391 Q553 391 549 392 Q501 322 435 284 Q426 279 422 284 Q417 288 424 298 Q506 416 526 478 Q533 505 535 516 Q538 533 554 526 Q581 513 596 501 Q610 490 600 475 L582 443 Q795 445 864 449 Q886 450 894 426 Q901 407 898 400 Q896 394 881 393 Q764 391 710 391 Q722 380 718 364 Q715 350 710 317 L699 248 Z" /><glyph glyph-name="uni501F" unicode="&#x501f;" d="M186 480 Q129 420 54 359 Q42 351 36 356 Q30 361 40 373 Q243 637 300 746 Q319 784 327 812 Q333 830 347 823 Q373 811 390 796 Q403 785 394 768 Q311 624 233 533 Q249 523 250 501 Q252 483 252 446 Q250 223 245 29 Q243 -30 226 -62 Q206 -95 190 -63 Q175 -29 176 15 Q192 262 186 464 L186 480 ZM775 12 Q774 47 774 136 L623 136 Q523 136 463 137 Q463 70 460 10 L775 12 ZM775 300 Q558 300 464 298 L464 183 L630 184 Q726 185 774 184 Q775 226 775 300 ZM458 -56 Q456 -74 437 -85 Q408 -99 405 -87 Q401 -75 401 -51 Q404 240 402 292 Q400 326 396 343 Q392 356 395 359 Q397 361 410 359 Q427 356 441 349 Q605 352 752 352 Q774 353 787 359 Q793 361 795 361 Q799 362 807 360 Q822 354 839 343 Q853 335 845 320 Q840 309 840 289 Q837 104 840 -18 Q841 -64 807 -81 Q786 -92 783 -78 Q780 -68 778 -41 Q727 -40 622 -40 Q513 -41 459 -40 L458 -56 ZM698 495 L700 567 Q702 615 702 632 L548 632 L548 494 L698 495 ZM762 632 L757 495 Q887 497 927 502 Q952 506 961 492 Q972 475 975 458 Q980 435 956 436 Q840 444 320 441 Q303 440 298 448 Q290 460 285 478 Q281 493 295 493 L491 494 L490 633 L398 633 Q371 633 361 652 Q351 670 354 676 Q356 681 373 681 L489 682 Q489 731 488 752 Q488 780 483 816 Q481 833 496 831 Q519 827 541 817 Q552 811 551 794 Q548 773 548 745 L548 683 L704 684 Q706 746 706 769 Q706 802 703 836 Q702 855 717 851 Q743 847 764 836 Q774 831 773 812 Q769 786 768 760 L764 685 Q807 685 887 688 Q911 689 920 666 Q933 633 904 633 L762 632 Z" /><glyph glyph-name="uni5026" unicode="&#x5026;" d="M726 620 Q717 615 713 620 Q709 625 715 634 Q802 760 807 769 L817 796 Q823 811 837 804 Q866 789 877 780 Q890 766 879 754 Q788 654 726 620 ZM469 654 Q450 695 388 775 Q373 797 400 790 Q473 768 518 697 Q540 661 515 640 Q488 616 469 654 ZM224 519 Q236 503 240 479 Q243 462 245 425 Q248 228 240 14 Q239 -49 215 -80 Q195 -107 184 -75 Q175 -52 176 -4 Q188 192 184 429 Q184 448 182 481 Q125 412 53 349 Q42 339 36 344 Q29 350 38 362 Q223 625 277 751 Q289 780 299 825 Q305 843 320 837 Q350 824 363 811 Q376 802 368 784 Q295 631 217 526 L224 519 ZM608 553 Q585 491 568 455 Q853 457 894 462 Q918 465 926 452 Q936 436 939 420 Q945 398 920 399 Q845 405 736 405 Q811 322 890 283 Q910 274 941 263 Q982 249 995 244 Q1020 234 997 224 Q984 219 969 206 Q953 194 943 190 Q928 182 913 192 Q768 276 698 405 L539 405 Q503 350 461 308 Q473 304 480 300 L585 301 Q652 301 684 303 Q699 303 714 309 Q715 310 717 310 L720 311 Q726 314 735 311 Q753 304 765 295 Q778 288 771 276 Q765 267 765 255 Q763 239 760 196 Q758 153 755 129 Q751 94 725 80 Q691 64 682 85 Q680 91 587 116 Q576 119 577 125 Q577 132 590 130 Q694 125 695 135 Q701 187 704 250 Q526 250 494 249 Q493 243 493 229 Q490 90 492 37 Q495 -9 556 -14 Q689 -21 796 -12 Q838 -8 841 12 L847 48 Q850 71 853 82 Q857 97 864 97 Q869 96 870 79 Q875 9 889 -4 Q915 -24 892 -43 Q869 -61 809 -67 Q694 -77 550 -67 Q438 -60 435 36 Q432 77 433 139 L436 257 L435 282 Q372 227 281 178 Q258 166 253 172 Q249 179 269 194 Q398 289 470 404 L337 403 Q323 403 317 410 Q310 422 304 439 Q302 453 315 453 L411 454 Q470 454 500 455 Q522 495 542 553 L397 553 Q371 553 361 572 Q351 590 353 596 Q355 602 372 602 Q497 604 558 604 Q572 651 580 695 Q592 755 595 835 Q595 859 614 852 Q637 845 653 835 Q667 827 663 806 Q659 787 653 749 L642 690 Q631 634 623 605 L868 608 Q891 609 899 586 Q914 552 885 553 L608 553 Z" /><glyph glyph-name="uni503C" unicode="&#x503c;" d="M774 105 L614 105 Q510 104 446 106 Q445 56 443 11 L627 12 Q727 12 773 13 L774 105 ZM781 513 Q571 516 449 511 L450 427 Q520 426 626 427 L779 428 L781 513 ZM447 156 Q509 155 622 157 L774 157 L775 243 Q724 244 616 244 Q505 243 449 244 L447 156 ZM778 375 Q726 376 618 376 Q506 375 450 376 L449 294 L624 295 Q725 296 776 295 L778 375 ZM180 472 Q121 403 54 338 Q43 328 37 333 Q30 339 39 352 Q249 671 287 750 Q299 774 313 822 Q319 840 333 834 Q361 824 376 809 Q389 799 380 782 Q357 736 351 726 L574 726 L579 779 Q581 804 579 830 Q579 849 596 846 Q625 840 644 831 Q659 824 654 806 L634 726 Q846 728 894 736 Q915 738 924 724 Q935 706 938 692 Q942 669 919 670 Q859 674 621 674 Q601 609 576 567 Q701 567 757 568 Q774 568 793 574 Q794 575 796 575 L799 576 Q808 578 817 574 Q839 568 856 554 Q871 544 863 522 Q853 497 850 456 Q844 361 837 15 Q913 17 935 20 Q962 24 972 8 Q985 -15 987 -28 Q993 -53 966 -52 Q840 -41 301 -46 Q284 -47 277 -37 Q267 -22 262 -7 Q259 9 274 10 L383 11 Q388 371 384 489 Q383 526 377 554 Q374 568 377 571 Q379 574 392 572 Q409 568 415 564 Q418 565 427 565 Q467 566 546 566 Q561 646 566 674 Q508 673 370 673 Q355 673 349 681 Q344 689 338 705 Q283 606 221 526 L225 524 Q241 512 242 492 Q244 474 244 439 Q243 285 236 26 Q234 -34 217 -64 Q198 -97 183 -64 Q167 -32 170 11 Q187 265 181 457 L180 472 Z" /><glyph glyph-name="uni503E" unicode="&#x503e;" d="M207 539 Q225 528 226 506 Q228 488 228 451 Q224 223 218 21 Q216 -40 199 -72 Q180 -106 163 -73 Q147 -40 150 6 Q168 263 161 469 Q161 484 160 491 Q111 436 54 385 Q43 376 37 381 Q30 386 39 399 Q224 672 267 763 Q278 787 291 832 Q297 850 313 843 Q342 830 357 817 Q370 804 361 788 Q276 633 203 542 L207 539 ZM395 451 Q394 344 386 180 Q461 218 498 235 Q523 246 527 238 Q532 231 510 210 Q483 182 437 150 Q379 110 365 99 Q359 94 336 71 Q324 58 313 68 Q293 83 279 108 Q270 122 283 128 L294 134 Q327 153 328 190 Q339 423 332 629 Q331 662 326 691 Q324 704 327 708 Q330 711 342 710 Q366 708 383 700 Q396 695 396 674 L396 502 L493 505 Q511 506 519 484 Q530 451 506 451 L395 451 ZM733 107 Q835 76 930 -24 Q964 -61 942 -92 Q921 -121 891 -81 Q850 -28 723 91 Q715 98 713 104 Q644 -22 444 -91 Q423 -98 419 -91 Q415 -84 434 -73 Q566 -4 626 74 Q688 155 704 282 Q711 343 709 438 Q708 460 727 455 Q744 451 764 440 Q779 432 775 413 Q773 396 770 353 Q767 306 764 279 Q753 178 716 109 Q723 111 733 107 ZM715 712 Q614 712 550 713 Q537 713 533 720 Q525 733 522 749 Q519 764 531 764 Q864 762 920 773 Q936 776 944 762 Q953 750 956 732 Q959 711 938 711 Q890 713 761 713 L774 707 Q789 700 780 684 Q726 594 712 579 Q759 580 844 580 Q867 581 878 587 Q886 593 896 588 Q916 581 929 571 Q941 560 933 541 Q924 518 924 495 Q922 445 923 350 Q924 242 923 187 Q923 149 902 129 Q891 118 882 119 Q872 120 868 133 Q864 145 865 190 Q867 251 867 352 Q866 474 867 526 Q718 528 619 525 L619 508 Q621 371 615 192 Q614 148 597 126 Q579 98 566 125 Q555 149 556 182 Q565 363 561 523 Q559 552 554 573 Q547 591 567 587 Q580 584 594 577 Q608 578 635 578 L675 579 Q699 634 709 679 Q712 690 714 710 L715 712 Z" /><glyph glyph-name="uni5047" unicode="&#x5047;" d="M673 498 Q652 498 646 518 Q641 539 643 545 Q645 550 660 550 Q731 549 845 551 L848 716 Q736 712 693 712 Q680 712 671 738 Q664 758 666 763 Q667 768 678 767 Q741 766 842 768 Q848 768 856 770 Q866 782 881 777 Q898 772 911 762 Q922 755 917 738 Q912 720 911 703 L904 547 Q910 544 914 529 Q920 508 918 502 Q915 496 900 497 L788 497 Q715 497 673 498 ZM325 795 Q339 786 331 768 Q269 633 204 538 Q210 532 212 528 Q225 507 230 485 Q235 461 236 429 Q241 214 233 16 Q230 -49 205 -80 Q186 -105 174 -73 Q168 -55 169 -3 Q178 221 175 431 Q173 472 171 493 Q118 423 54 361 Q44 352 37 357 Q31 362 39 374 Q208 652 242 737 Q252 762 262 805 Q267 824 282 818 Q306 810 325 795 ZM408 559 L548 559 Q546 668 547 718 Q472 719 411 718 Q409 679 409 658 L408 559 ZM570 198 Q585 199 590 196 Q595 192 600 177 Q608 156 604 150 Q602 144 588 144 Q529 144 408 142 L404 142 L403 30 Q403 -32 386 -69 Q376 -91 365 -91 Q354 -91 347 -70 Q338 -31 339 23 Q349 433 346 673 Q344 724 339 762 Q337 778 340 782 Q343 785 356 782 Q376 776 389 769 Q439 770 527 770 Q544 770 556 779 Q562 781 566 781 Q570 782 579 780 Q591 777 609 767 Q620 759 615 743 Q612 731 610 709 Q609 697 606 550 Q609 547 611 538 Q617 518 615 512 Q612 506 597 506 Q563 507 503 507 L407 507 L406 380 Q514 382 559 384 Q576 384 580 381 Q585 378 590 362 Q597 342 594 335 Q592 329 578 329 L406 328 L405 195 L570 198 ZM988 -55 Q1003 -68 1002 -71 Q1001 -75 982 -76 Q972 -77 957 -81 Q939 -86 931 -87 Q911 -90 894 -75 Q818 -12 770 59 Q678 -36 520 -93 Q498 -100 495 -93 Q492 -87 510 -75 Q658 9 739 107 Q701 176 681 250 Q671 291 663 311 Q659 320 662 336 Q667 363 679 349 Q698 327 719 270 Q740 212 775 156 Q830 238 866 360 Q712 356 655 356 Q641 355 632 380 Q625 400 627 404 Q628 409 639 408 Q746 407 854 410 Q869 410 880 418 Q887 424 895 419 Q897 419 903 417 Q920 410 937 397 Q953 385 941 368 Q922 331 911 300 Q868 181 811 107 Q843 65 890 25 Q908 10 941 -16 Q973 -41 988 -55 Z" /><glyph glyph-name="uni505A" unicode="&#x505a;" d="M219 468 Q222 453 224 415 Q229 209 221 12 Q218 -51 193 -83 Q173 -108 163 -76 Q156 -57 157 -7 Q168 190 164 417 L163 447 Q163 465 161 475 Q107 405 37 340 Q25 330 19 335 Q13 340 22 354 Q191 606 241 741 Q251 766 262 816 Q265 836 281 829 Q306 820 324 805 Q338 796 330 778 Q263 619 195 521 L202 510 Q213 494 219 468 ZM525 112 Q525 184 527 305 Q445 307 375 305 Q378 205 374 112 L525 112 ZM509 360 Q526 360 538 365 Q548 373 560 368 Q581 362 592 355 Q604 346 597 328 Q593 315 591 290 Q586 214 584 103 Q586 95 588 90 Q595 69 593 63 Q590 56 574 57 L474 57 Q409 57 372 58 L371 39 Q369 22 350 14 Q324 1 319 12 Q315 24 315 42 Q318 267 316 307 Q314 334 310 349 Q307 361 309 364 Q311 366 323 364 Q338 363 348 358 L424 359 L427 551 L314 551 Q302 551 298 559 Q293 570 288 588 Q287 604 298 604 L427 605 Q428 659 428 750 Q428 778 424 833 Q422 854 438 850 Q467 844 485 834 Q496 828 495 807 Q491 772 490 740 L487 606 Q561 608 580 611 Q597 615 604 602 Q611 586 613 570 Q614 548 596 549 Q566 551 486 551 L482 360 L509 360 ZM679 507 Q705 344 764 222 Q821 354 840 542 Q765 540 709 540 Q704 540 698 542 L679 507 ZM897 543 Q905 533 902 511 Q870 290 798 158 Q825 113 860 70 Q883 41 926 6 Q979 -36 993 -51 Q1004 -63 1003 -67 Q1002 -71 987 -72 Q974 -72 954 -78 Q933 -87 921 -88 Q900 -90 883 -69 Q810 5 759 96 Q671 -25 521 -95 Q498 -106 493 -99 Q489 -92 511 -76 Q655 25 730 154 Q671 285 651 463 Q628 428 603 398 Q595 386 587 392 Q580 396 587 409 Q692 644 716 759 Q723 795 725 833 Q726 851 743 847 Q766 842 785 830 Q797 823 793 804 Q757 673 721 590 Q918 595 949 604 Q970 611 978 599 Q988 585 994 566 Q1000 542 978 543 Q946 544 897 543 Z" /><glyph glyph-name="uni505C" unicode="&#x505c;" d="M221 514 Q238 505 241 484 Q242 465 242 431 Q240 222 235 31 Q233 -28 215 -57 Q196 -91 179 -57 Q165 -26 166 17 Q181 255 175 449 L175 465 Q122 406 57 347 Q46 337 40 342 Q33 349 42 361 Q248 658 289 739 Q301 764 315 807 Q321 826 335 819 Q359 809 378 794 Q391 784 382 766 L367 739 L592 740 Q578 774 538 837 Q525 859 549 853 Q615 841 648 783 Q663 761 651 740 Q832 740 881 747 Q901 749 910 738 Q920 721 923 706 Q927 683 903 684 Q871 687 386 689 Q372 689 367 696 Q361 704 356 720 Q290 607 218 517 L221 514 ZM632 485 Q733 486 785 485 Q784 533 785 577 Q581 579 460 575 Q462 533 460 484 L632 485 ZM439 622 Q552 624 761 624 Q782 625 793 631 Q800 634 806 632 L810 631 Q812 631 813 630 Q829 626 839 619 Q850 612 845 596 Q841 584 841 569 Q840 562 838 471 L840 465 Q846 446 844 441 Q841 436 826 436 Q769 437 646 437 Q521 436 457 438 Q456 428 440 422 Q414 413 411 421 Q407 431 407 444 Q407 567 406 583 Q405 598 400 613 Q397 624 399 626 Q401 628 412 627 Q421 626 435 622 L439 622 ZM381 316 Q376 278 351 227 Q328 173 297 207 Q281 228 293 251 Q329 317 355 391 Q359 403 365 404 Q370 404 373 393 Q377 381 380 366 Q632 369 860 369 Q883 369 900 378 Q907 382 915 379 Q919 379 927 373 Q951 354 962 335 Q976 314 959 305 Q941 298 930 290 Q905 273 867 230 Q856 224 852 223 L853 220 Q864 188 839 188 L744 187 Q681 187 649 186 Q655 183 653 169 Q650 147 650 138 L649 54 Q649 -5 648 -42 Q646 -85 620 -104 Q583 -129 573 -103 Q570 -96 483 -67 Q470 -63 471 -57 Q472 -50 486 -51 Q583 -52 583 -41 Q586 58 586 158 L583 186 L425 187 Q401 188 392 205 Q383 223 385 229 Q387 234 403 234 Q742 236 823 240 Q834 240 838 239 L842 250 Q853 278 874 318 Q564 320 383 316 L381 316 Z" /><glyph glyph-name="uni5076" unicode="&#x5076;" d="M211 492 Q229 482 230 461 Q232 444 232 410 Q225 37 224 13 Q222 -45 205 -72 Q186 -105 170 -73 Q155 -42 158 -1 Q173 233 167 427 Q167 445 166 453 Q108 386 49 331 Q38 322 32 327 Q25 333 34 346 Q239 654 274 723 Q286 749 299 792 Q304 810 320 804 Q350 791 363 779 Q375 767 366 751 Q285 602 202 497 L211 492 ZM440 572 Q440 529 438 457 L585 457 L586 571 Q492 571 444 572 L440 572 ZM586 633 Q586 679 583 728 L509 727 Q462 727 439 726 Q441 662 440 618 Q539 618 586 619 L586 633 ZM796 619 L797 727 Q744 728 643 728 Q648 721 648 705 Q648 656 647 619 L796 619 ZM642 458 L797 458 Q796 488 796 570 Q748 571 646 571 L642 458 ZM894 324 Q916 316 926 309 Q940 300 933 284 Q927 269 927 253 Q926 219 925 120 Q924 23 922 -29 Q921 -69 893 -87 Q856 -108 846 -86 Q844 -81 755 -53 Q743 -49 744 -43 Q745 -35 758 -36 Q854 -40 856 -27 Q863 108 863 263 Q785 264 639 264 L636 122 L739 147 L707 208 Q701 220 705 224 Q708 227 719 221 Q784 185 820 102 Q835 65 810 49 Q783 29 771 67 Q763 93 748 125 Q695 93 614 68 Q510 36 488 26 Q470 18 459 28 Q444 44 433 68 Q423 86 442 86 Q464 86 477 88 Q514 95 581 109 L583 264 Q513 264 395 262 L395 248 Q395 81 391 -25 Q390 -66 372 -88 Q352 -114 337 -89 Q326 -65 327 -33 Q335 144 332 262 Q332 283 325 310 Q321 328 338 324 Q351 322 371 314 Q514 316 583 316 L584 408 Q486 408 437 409 L435 409 Q433 394 414 385 Q387 373 384 383 Q380 394 380 416 Q380 706 379 724 Q377 755 373 770 Q370 783 372 786 Q374 788 386 786 Q401 785 416 778 Q666 780 773 780 Q791 780 807 786 Q813 788 817 788 Q825 788 829 786 Q835 784 860 772 Q874 763 867 748 Q861 735 861 719 Q859 666 859 442 Q860 402 828 386 Q806 376 802 390 L799 407 Q749 408 641 408 L640 316 Q709 317 837 317 Q859 317 876 324 Q887 329 894 324 Z" /><glyph glyph-name="uni5085" unicode="&#x5085;" d="M650 562 L649 492 L830 492 Q830 537 831 562 L650 562 ZM829 375 Q830 399 830 447 Q773 448 649 448 L648 374 Q712 375 820 375 L829 375 ZM591 447 Q483 447 429 448 Q428 436 428 412 L427 374 L588 374 L591 447 ZM429 491 L592 491 L593 562 L510 561 Q457 561 430 560 L429 491 ZM595 677 Q439 677 363 678 Q338 678 328 698 L322 708 Q267 604 213 529 Q217 525 221 519 Q233 501 240 476 Q246 453 246 420 Q252 225 243 -1 Q240 -66 216 -97 Q197 -123 184 -91 Q177 -66 180 -18 Q189 190 185 421 Q183 464 181 486 Q131 424 70 365 Q59 356 53 361 Q46 366 54 378 Q230 658 267 747 Q277 770 289 817 Q292 835 308 830 Q335 820 351 806 Q365 796 356 779 Q348 760 331 725 L595 725 L595 770 Q595 808 588 834 Q583 856 602 850 Q631 842 643 834 Q656 827 656 806 Q655 797 655 782 L653 726 Q712 726 818 728 Q818 730 816 732 L814 734 Q787 764 732 811 Q716 826 737 828 Q799 828 848 781 Q874 757 858 734 L855 730 L923 732 Q946 733 955 711 Q962 693 959 685 Q956 679 941 679 Q744 677 652 677 L651 608 Q704 609 807 609 Q825 609 841 616 Q842 617 845 618 L848 619 Q853 620 861 618 Q880 612 894 602 Q906 592 899 575 Q891 555 891 536 Q889 499 890 429 Q891 350 890 310 Q890 279 868 262 Q841 239 831 265 Q827 278 828 313 L829 330 Q742 332 648 330 Q647 295 632 269 Q614 236 600 268 Q586 300 586 330 Q487 330 437 331 Q429 331 426 332 L425 298 Q424 265 408 245 Q389 223 377 245 Q365 265 367 293 Q374 451 373 562 Q373 580 368 604 Q361 621 380 617 Q404 611 416 606 Q536 608 594 608 L595 677 ZM581 55 Q610 28 594 1 Q576 -29 547 2 Q506 47 425 104 Q401 121 431 121 Q509 118 581 55 ZM815 194 Q907 197 937 201 Q960 204 969 191 Q980 172 983 159 Q988 137 964 138 Q913 140 814 142 Q814 25 813 -34 Q811 -78 784 -98 Q749 -122 739 -97 Q736 -90 633 -59 Q620 -56 621 -49 Q623 -43 636 -43 Q749 -46 749 -33 Q754 43 754 142 L317 141 Q300 141 295 149 Q289 158 283 177 Q279 191 292 191 Q641 191 754 193 L754 225 Q754 237 749 264 Q745 278 767 275 Q789 270 810 261 Q822 254 819 239 Q815 214 815 203 L815 194 Z" /><glyph glyph-name="uni50BB" unicode="&#x50bb;" d="M692 372 Q675 379 677 384 Q678 391 696 390 Q796 385 912 321 Q953 297 941 265 Q930 234 890 262 Q814 314 692 372 ZM712 701 Q556 701 421 698 Q424 612 420 470 Q498 469 638 471 L828 471 Q827 540 829 700 L726 701 L727 700 Q740 689 753 671 Q762 659 750 650 L674 592 L746 549 Q786 524 773 493 Q764 466 726 495 Q671 535 630 562 Q550 506 467 478 Q456 475 453 481 Q450 487 460 494 Q527 538 589 587 Q575 596 489 647 Q471 656 473 661 Q475 667 494 663 Q558 650 626 618 Q656 642 681 667 Q696 680 709 697 L712 701 ZM226 513 Q243 503 244 484 Q246 465 246 432 Q244 225 239 35 Q237 -19 220 -50 Q201 -80 186 -51 Q171 -20 172 22 Q188 255 182 449 Q182 460 181 466 Q127 396 53 318 Q42 308 36 313 Q29 318 37 331 Q242 660 273 727 Q283 749 297 801 Q301 820 317 813 Q342 803 358 790 Q370 781 362 763 L355 749 Q357 751 369 750 Q388 746 393 744 L511 745 Q536 792 544 818 Q547 827 551 845 Q554 860 569 858 Q597 850 616 838 Q631 829 619 815 Q578 762 558 746 Q643 747 805 747 Q824 747 839 755 Q841 756 844 756 Q849 760 860 756 Q876 751 891 743 Q905 735 897 719 Q894 711 892 694 Q889 571 891 465 Q891 426 858 413 Q837 405 834 416 L832 422 Q791 423 568 422 Q581 397 584 382 Q587 368 575 361 Q425 268 322 248 Q308 245 305 252 Q303 260 317 267 Q471 350 549 422 Q462 422 419 423 L417 423 Q412 412 398 406 Q371 395 367 405 Q363 417 363 436 Q363 672 362 693 Q360 720 357 735 Q354 746 355 748 Q292 623 218 518 L226 513 ZM502 189 Q559 125 620 84 Q693 135 757 204 Q625 206 519 203 L517 203 L502 189 ZM567 252 Q639 254 768 254 Q786 254 800 260 Q801 261 803 261 Q804 262 805 262 Q814 263 824 256 Q835 248 853 226 Q866 209 851 197 Q826 180 800 155 Q734 94 671 52 Q729 20 801 1 Q835 -8 888 -14 Q962 -23 977 -26 Q1011 -32 984 -47 Q972 -54 958 -69 Q942 -86 933 -92 Q919 -102 895 -98 Q730 -63 618 19 Q486 -55 307 -92 Q282 -97 280 -89 Q278 -80 301 -72 Q465 -14 576 55 Q524 103 481 169 Q400 97 317 61 Q307 56 302 62 Q299 68 309 76 Q439 192 504 277 Q517 294 527 312 Q535 325 546 317 Q565 304 579 287 Q589 275 577 263 L567 252 Z" /><glyph glyph-name="uni50CF" unicode="&#x50cf;" d="M218 523 Q234 512 237 492 Q238 472 238 438 Q238 261 232 18 Q230 -42 212 -71 Q193 -105 178 -72 Q163 -41 165 4 Q180 254 174 455 L173 474 Q129 422 60 360 Q49 351 43 357 Q36 362 45 374 Q244 662 282 739 Q295 763 307 805 Q311 823 328 817 Q353 807 370 792 Q383 782 374 764 Q292 619 216 525 L218 523 ZM576 467 Q616 514 649 573 Q512 573 450 571 Q450 501 449 467 L576 467 ZM700 705 Q596 707 513 705 Q472 658 435 622 L649 623 L700 705 ZM695 573 Q703 563 706 554 Q711 543 700 528 Q684 506 653 467 Q725 468 849 468 Q848 496 848 573 L695 573 ZM692 256 Q778 300 856 353 Q878 370 883 375 Q894 386 904 375 Q922 354 929 337 Q937 322 922 315 Q794 256 743 241 Q806 139 890 78 Q906 66 936 52 Q972 33 985 25 Q1006 11 985 5 Q972 0 955 -9 Q936 -19 927 -22 Q910 -29 897 -17 Q768 91 714 234 L695 231 Q710 93 690 -33 Q683 -83 657 -104 Q621 -134 608 -100 Q605 -91 501 -55 Q485 -50 486 -42 Q487 -33 503 -35 Q587 -42 604 -41 Q622 -40 623 -29 Q635 54 635 139 Q477 11 308 -13 Q290 -15 288 -8 Q286 -1 304 7 Q512 87 633 224 Q631 256 629 272 L627 285 Q462 155 302 129 Q286 126 284 134 Q281 141 298 148 Q495 232 606 353 L609 356 Q608 360 593 398 L592 401 Q480 294 326 262 Q307 257 304 266 Q301 273 320 282 Q454 347 531 419 L447 420 Q443 410 427 405 Q400 396 395 404 Q391 413 391 428 L391 507 Q391 560 389 582 Q348 549 306 523 Q296 517 291 522 Q286 528 295 538 Q471 746 506 801 Q518 822 530 847 Q536 864 550 854 Q577 839 590 826 Q602 813 590 799 L556 757 Q653 757 698 758 Q716 758 728 764 Q729 765 731 765 L734 766 Q743 767 753 761 Q767 751 784 733 Q794 718 782 706 Q734 653 702 624 L821 624 Q841 624 858 631 L860 632 Q867 636 879 633 Q892 629 907 622 Q923 615 916 600 Q913 593 913 580 L913 450 Q913 418 881 408 Q859 400 856 411 Q854 415 854 419 Q816 420 610 420 L615 415 Q677 356 689 279 L692 256 Z" /><glyph glyph-name="uni513F" unicode="&#x513f;" d="M313 470 Q318 624 309 765 Q308 783 312 787 Q316 790 329 787 Q350 783 373 770 Q387 763 386 738 Q384 705 384 625 Q383 528 381 468 Q374 250 307 134 Q242 18 79 -63 Q58 -73 52 -67 Q47 -61 64 -48 Q200 55 252 159 Q308 272 313 470 ZM610 658 Q610 732 604 800 Q603 828 625 821 Q655 809 672 798 Q688 787 684 763 Q677 712 676 657 Q669 337 675 130 Q678 33 741 27 Q809 21 874 29 Q909 34 913 66 Q928 167 927 164 Q930 183 937 183 Q944 182 945 162 Q951 58 969 40 Q998 11 975 -12 Q952 -32 894 -40 Q814 -49 732 -41 Q671 -34 642 4 Q611 43 609 126 Q607 229 609 408 Q611 598 610 658 Z" /><glyph glyph-name="uni5145" unicode="&#x5145;" d="M544 688 Q826 691 891 699 Q918 703 928 688 Q941 665 944 652 Q952 625 923 628 Q797 635 455 633 Q468 618 475 606 Q485 588 469 574 Q362 464 272 395 Q505 413 733 423 Q686 487 631 553 Q618 570 623 574 Q628 579 645 570 Q767 508 847 375 Q878 325 851 297 Q824 270 798 318 Q777 357 757 389 Q678 377 612 370 Q626 367 636 361 Q651 353 646 337 Q643 322 641 285 Q637 152 639 63 Q642 14 695 10 Q798 2 878 12 Q913 15 917 37 Q931 144 929 134 Q932 149 939 148 Q946 148 947 130 Q953 33 968 20 Q994 -5 972 -24 Q950 -45 893 -51 Q794 -59 687 -51 Q628 -47 602 -20 Q577 6 575 62 Q574 106 576 182 L577 288 Q577 327 574 361 L574 366 L406 349 L422 340 Q435 331 431 314 Q427 299 423 272 L414 226 Q384 101 303 31 Q218 -43 57 -76 Q35 -81 33 -72 Q31 -64 53 -56 Q303 44 347 235 Q358 280 360 343 Q319 339 254 329 Q219 324 192 313 Q177 306 169 318 Q156 340 149 367 Q148 375 151 380 Q155 384 159 385 Q195 398 227 426 Q310 501 377 579 Q399 604 414 633 Q328 632 117 632 Q97 632 90 641 Q82 653 76 671 Q71 687 87 687 Q387 687 505 688 Q499 695 494 705 Q472 750 414 833 Q396 858 426 850 Q502 831 550 753 Q574 715 547 691 L544 688 Z" /><glyph glyph-name="uni5148" unicode="&#x5148;" d="M562 656 Q748 661 794 672 Q820 679 830 666 Q843 650 852 627 Q860 602 836 603 Q739 606 560 603 L555 404 Q834 406 895 413 Q921 417 931 403 Q944 384 948 368 Q955 343 926 344 Q842 350 631 352 Q641 346 637 331 Q635 322 633 278 Q629 138 632 49 Q633 0 685 -4 Q770 -11 857 -3 Q891 1 893 23 L899 67 Q902 95 905 111 Q908 126 915 126 Q921 125 922 109 Q927 18 942 6 Q968 -16 948 -36 Q925 -58 871 -62 Q780 -71 677 -63 Q573 -55 570 47 Q569 95 570 170 L572 281 Q572 318 569 352 L432 351 Q437 344 434 330 Q431 318 426 289 Q420 260 416 244 Q386 116 313 41 Q236 -37 88 -85 Q68 -91 65 -83 Q62 -75 81 -65 Q306 54 353 253 Q363 300 365 351 L119 350 Q101 350 94 358 Q86 369 79 388 Q76 402 91 402 L493 403 L495 507 Q497 578 497 603 Q435 602 288 602 L284 602 Q231 512 164 452 Q156 444 150 448 Q144 452 150 464 Q256 665 273 721 Q277 734 284 774 Q287 792 304 787 Q331 777 349 764 Q361 754 354 738 Q329 685 312 653 Q453 655 498 655 Q500 731 500 757 Q500 800 496 836 Q494 858 512 852 Q540 846 560 837 Q572 831 570 810 Q566 779 565 748 L562 656 Z" /><glyph glyph-name="uni5149" unicode="&#x5149;" d="M640 494 Q631 489 625 494 Q621 499 629 509 Q770 702 780 720 Q791 741 798 759 Q804 776 819 767 Q847 752 862 739 Q876 725 864 711 Q735 551 640 494 ZM326 525 Q290 591 177 731 Q165 746 169 750 Q173 755 189 748 Q295 699 376 581 Q406 538 380 507 Q353 479 326 525 ZM361 390 L120 390 Q101 390 94 398 Q86 409 80 427 Q75 442 90 442 L484 442 Q488 696 488 760 Q486 810 483 836 Q481 855 499 852 Q520 848 548 837 Q559 831 557 811 Q555 793 553 751 Q550 636 547 443 Q825 445 896 453 Q921 457 931 443 Q942 425 947 408 Q954 383 927 384 Q815 392 607 390 Q617 385 622 382 Q635 375 634 358 L631 301 Q627 176 630 61 Q633 9 684 5 Q772 -2 858 7 Q892 11 896 34 L909 162 Q912 179 919 179 Q927 178 928 160 Q932 33 949 16 Q975 -9 954 -29 Q932 -50 873 -56 Q781 -65 677 -57 Q618 -53 593 -25 Q567 1 565 59 Q564 110 565 189 L567 305 Q567 346 564 383 L564 390 L404 390 L422 380 Q436 370 431 352 Q428 340 422 312 Q417 284 412 269 Q377 130 305 51 Q227 -35 78 -89 Q57 -97 54 -89 Q50 -80 69 -69 Q294 61 346 277 Q356 317 360 382 L361 390 Z" /><glyph glyph-name="uni514D" unicode="&#x514d;" d="M489 498 Q334 496 260 494 Q261 441 259 312 L462 312 Q466 324 472 349 Q485 404 489 494 L489 498 ZM361 684 Q291 606 223 550 L235 546 Q437 550 536 551 L583 619 Q611 658 627 682 Q451 682 376 679 Q366 679 361 684 ZM553 492 Q568 483 563 462 Q558 444 552 404 Q545 362 540 340 L533 313 L794 314 Q794 381 796 500 L541 499 L553 492 ZM764 553 Q790 553 807 563 Q813 565 815 565 Q822 567 831 564 Q851 559 865 549 Q880 541 873 522 Q865 503 864 483 Q860 434 858 306 L864 289 Q873 267 870 261 Q865 254 844 254 Q775 256 515 256 Q419 -1 68 -88 Q39 -95 37 -86 Q34 -77 62 -66 Q359 58 443 256 Q319 256 257 257 L256 243 Q255 226 233 216 Q201 204 198 214 Q193 228 193 246 L193 496 L190 525 Q151 497 92 462 Q81 455 76 461 Q71 468 81 479 Q278 672 361 795 Q379 823 390 848 Q399 864 413 855 Q436 841 452 825 Q464 811 453 796 L403 734 L625 737 Q643 737 659 745 Q663 747 666 747 Q677 749 685 742 Q706 726 717 711 Q728 697 716 683 Q639 593 595 552 L764 553 ZM967 0 Q991 -21 971 -41 Q946 -62 889 -66 Q775 -75 649 -67 Q589 -63 562 -40 Q538 -17 536 30 Q535 58 536 106 L537 176 Q537 195 535 228 Q533 244 550 241 Q577 237 595 229 Q609 224 605 208 Q603 198 601 171 Q598 68 600 31 Q601 -4 656 -8 Q763 -16 875 -7 Q913 -3 915 15 Q929 113 928 110 Q932 124 938 123 Q945 122 946 107 Q953 11 967 0 Z" /><glyph glyph-name="uni515C" unicode="&#x515c;" d="M819 356 Q815 527 819 683 Q783 681 698 679 Q685 679 677 706 Q671 725 672 731 Q673 736 684 735 Q729 734 805 736 Q818 736 828 742 Q836 748 842 743 Q844 743 850 741 Q874 735 884 725 Q897 717 890 698 Q885 681 883 652 Q880 611 876 350 Q879 346 882 334 Q888 314 886 308 Q883 301 869 303 L773 303 Q713 303 678 304 Q658 304 653 323 Q648 344 650 351 Q652 356 665 356 L819 356 ZM207 663 Q207 495 200 374 Q268 404 314 422 Q336 431 340 424 Q344 417 324 400 Q296 376 251 349 Q198 316 182 304 Q175 299 154 280 Q143 269 132 279 Q119 292 105 316 Q100 327 107 333 L111 335 Q142 351 143 375 Q149 501 144 634 Q144 651 140 675 Q136 693 155 692 Q175 690 186 688 Q246 725 274 756 Q287 769 296 785 Q305 798 317 792 Q335 784 352 765 Q364 753 349 742 Q261 681 207 666 L207 663 ZM426 265 Q441 256 435 240 Q430 230 423 208 Q416 187 412 177 Q366 65 288 4 Q202 -65 54 -97 Q31 -102 29 -94 Q27 -85 49 -76 Q283 17 346 190 Q359 221 366 271 Q369 288 385 284 Q409 276 426 265 ZM415 501 L412 381 Q444 380 504 381 L586 381 L586 500 Q448 500 420 501 L415 501 ZM587 656 Q494 658 415 656 Q416 625 416 547 L586 548 L587 656 ZM602 713 Q608 715 618 712 Q630 708 649 698 Q663 690 656 674 Q651 663 651 646 Q648 497 650 369 Q651 328 618 312 Q597 303 592 315 L589 332 L410 332 Q409 318 389 307 Q362 294 359 306 Q355 319 355 339 Q358 606 356 653 Q354 684 350 700 Q348 712 350 715 Q352 717 364 715 Q383 712 395 705 L442 706 Q470 776 480 811 Q482 820 484 842 Q485 855 499 854 Q526 851 545 841 Q559 834 550 819 Q496 725 476 706 Q540 706 571 707 Q588 707 599 712 L602 713 ZM965 10 Q990 -12 969 -31 Q949 -52 893 -56 Q794 -65 682 -57 Q626 -53 601 -29 Q578 -7 576 42 Q575 75 576 133 L577 212 Q577 244 574 272 Q573 288 590 286 Q621 279 633 273 Q648 267 643 250 Q639 228 639 209 Q635 121 638 43 Q639 5 689 1 Q782 -6 879 2 Q913 5 916 25 L921 76 Q924 109 928 128 Q931 143 938 143 Q945 143 946 126 Q952 22 965 10 Z" /><glyph glyph-name="uni5165" unicode="&#x5165;" d="M478 579 Q455 636 442 677 Q418 750 379 758 Q361 762 358 787 Q355 815 380 811 Q449 803 487 699 Q610 373 806 157 Q839 120 890 72 Q945 20 967 -4 Q984 -22 983 -26 Q981 -30 959 -30 Q947 -29 931 -33 Q910 -40 902 -41 Q879 -45 858 -21 Q637 213 515 488 Q334 114 61 -50 Q38 -62 34 -56 Q29 -49 49 -30 Q330 221 475 574 L478 579 Z" /><glyph glyph-name="uni5168" unicode="&#x5168;" d="M238 487 Q154 424 63 379 Q40 369 36 376 Q32 383 50 398 Q236 540 357 671 Q435 756 493 844 Q504 862 519 852 Q541 839 553 827 Q567 812 552 796 L528 768 Q690 609 844 532 Q870 519 914 502 Q973 480 987 474 Q1016 462 993 452 Q979 447 965 435 Q947 421 940 417 Q923 407 901 418 Q663 545 508 745 Q442 669 406 634 Q329 560 269 510 L500 513 Q639 514 720 518 Q744 518 752 495 Q766 460 738 460 L524 460 L526 459 Q539 454 536 434 Q534 415 532 370 L530 286 Q667 288 734 291 Q759 292 768 269 Q776 248 773 241 Q769 235 753 234 Q677 233 530 233 L527 30 Q791 32 839 37 Q866 41 876 26 Q889 4 891 -10 Q897 -34 871 -31 Q723 -18 150 -26 Q131 -26 125 -18 Q118 -8 112 12 Q107 27 122 28 L304 29 Q413 29 465 30 Q465 110 467 233 Q326 233 257 234 Q231 234 219 254 Q209 273 211 279 Q213 284 232 284 L467 285 L467 378 Q465 431 461 458 L461 460 L279 460 Q252 460 241 480 L238 487 Z" /><glyph glyph-name="uni516B" unicode="&#x516b;" d="M325 508 Q338 551 345 605 Q350 625 367 620 Q396 610 411 598 Q424 589 418 569 Q303 194 54 -15 Q41 -25 34 -20 Q28 -14 39 -1 Q255 273 325 508 ZM472 759 Q471 789 493 782 Q543 767 573 679 Q672 366 839 154 Q867 119 913 69 Q958 21 978 -6 Q994 -24 993 -29 Q991 -33 969 -31 Q958 -30 941 -34 Q921 -40 913 -41 Q889 -42 871 -19 Q634 271 527 658 Q510 715 487 728 Q472 738 472 759 Z" /><glyph glyph-name="uni516C" unicode="&#x516c;" d="M424 730 Q276 461 81 319 Q69 310 64 316 Q58 321 68 333 Q264 557 336 705 Q349 732 361 773 Q367 790 382 783 Q405 772 422 756 Q433 745 424 730 ZM193 56 Q236 73 273 124 Q350 231 434 376 Q457 420 472 464 Q480 487 497 476 Q521 458 534 440 Q546 425 533 405 Q415 211 304 68 Q486 90 705 105 Q691 129 613 253 Q601 273 606 277 Q611 281 629 269 Q750 184 830 25 Q860 -33 826 -61 Q798 -85 775 -29 Q761 2 726 69 Q630 52 481 30 Q340 10 283 -1 Q252 -7 224 -19 Q209 -25 200 -15 Q185 9 178 36 Q173 53 189 55 L193 56 ZM980 368 Q997 354 995 350 Q994 346 972 343 Q960 341 942 334 Q921 326 911 324 Q891 320 871 338 Q678 527 598 722 Q584 755 566 777 Q555 788 559 809 Q566 840 583 826 Q613 802 640 750 Q731 577 860 463 Q884 443 923 413 Q961 383 980 368 Z" /><glyph glyph-name="uni5173" unicode="&#x5173;" d="M376 661 Q352 710 273 820 Q264 833 268 837 Q271 841 285 835 Q369 802 426 709 Q451 669 425 646 Q398 617 376 661 ZM474 561 Q385 561 215 563 Q186 563 175 582 Q164 602 167 607 Q169 613 188 613 Q443 613 566 615 Q678 788 685 803 Q693 821 700 843 Q706 860 721 852 Q749 839 765 824 Q779 812 768 796 Q668 664 608 616 Q679 617 807 623 Q833 624 843 600 Q851 580 848 573 Q844 567 827 566 Q725 563 526 561 Q529 560 536 555 Q549 548 546 527 Q543 507 538 457 Q533 407 527 377 L521 343 Q822 346 884 353 Q910 357 921 342 Q934 320 937 308 Q942 283 917 284 Q808 291 549 291 Q644 110 808 30 Q840 15 894 -2 Q965 -24 982 -30 Q1011 -42 985 -52 Q971 -58 952 -70 Q933 -86 924 -90 Q906 -97 883 -88 Q607 20 513 291 L508 290 Q466 148 364 59 Q260 -30 74 -83 Q46 -91 43 -83 Q40 -74 67 -62 Q368 71 439 290 L119 289 Q99 289 94 297 Q84 313 80 327 Q75 342 90 342 L454 342 Q460 369 462 382 Q474 454 474 555 L474 561 Z" /><glyph glyph-name="uni5174" unicode="&#x5174;" d="M485 552 Q465 646 398 799 Q390 818 395 822 Q400 825 415 812 Q511 735 549 593 Q564 536 531 517 Q495 495 485 552 ZM262 494 Q236 557 143 707 Q133 723 137 727 Q142 732 157 723 Q255 669 319 545 Q345 495 313 469 Q282 442 262 494 ZM358 300 Q388 282 402 268 Q414 254 403 239 Q241 22 84 -65 Q72 -71 67 -65 Q62 -59 72 -49 Q247 138 310 240 Q330 279 335 291 Q343 309 358 300 ZM587 281 Q725 193 839 11 Q876 -47 846 -79 Q823 -105 794 -52 Q733 61 571 265 Q556 285 561 290 Q566 294 587 281 ZM949 371 Q953 356 949 352 Q945 346 927 347 Q842 351 121 351 Q102 351 96 360 Q86 375 81 390 Q76 405 92 405 Q484 405 620 407 Q767 672 779 702 Q790 732 797 762 Q800 781 818 776 Q850 761 865 750 Q879 740 870 722 Q760 516 657 408 Q850 411 895 417 Q923 421 932 406 Q945 388 949 371 Z" /><glyph glyph-name="uni5176" unicode="&#x5176;" d="M392 148 Q412 132 427 111 Q437 97 423 84 Q236 -66 121 -107 Q109 -111 105 -104 Q102 -98 113 -90 Q255 20 340 109 Q358 126 370 144 Q380 158 392 148 ZM812 -12 Q855 -51 833 -87 Q812 -119 774 -78 Q703 -2 562 106 Q546 119 550 124 Q553 130 573 125 Q697 94 812 -12 ZM337 214 Q487 214 669 216 L671 326 Q620 327 509 327 Q395 326 338 327 L337 214 ZM675 642 L340 642 L339 533 Q402 532 517 534 L673 534 L675 642 ZM338 374 Q410 373 516 374 L671 375 L673 483 L510 483 Q403 483 339 484 L338 374 ZM740 644 Q735 435 732 218 Q875 219 931 226 Q961 230 971 213 Q984 192 988 177 Q995 151 967 153 Q810 164 85 159 Q64 159 57 168 Q47 182 43 198 Q37 213 53 213 L280 214 L280 446 Q280 584 279 644 L169 645 Q139 645 128 664 Q118 682 120 688 Q123 693 142 693 L278 693 L278 720 Q276 777 270 824 Q269 838 271 841 Q275 844 287 841 Q311 835 330 824 Q342 817 342 794 Q340 749 340 709 L340 693 Q511 693 675 696 L675 731 Q675 785 669 838 Q668 853 671 858 Q674 861 687 858 Q717 849 735 838 Q749 832 747 806 Q743 759 743 719 L742 697 L847 700 Q872 701 883 678 Q891 659 887 652 Q884 646 866 645 L740 644 Z" /><glyph glyph-name="uni5179" unicode="&#x5179;" d="M364 689 Q342 735 281 820 Q265 843 293 837 Q367 816 417 738 Q441 700 416 675 Q386 647 364 689 ZM295 596 L102 596 Q82 597 75 606 Q67 617 62 634 Q57 650 72 650 Q361 648 561 650 Q638 769 652 807 Q659 828 662 843 Q666 862 683 853 Q711 841 728 828 Q741 816 731 801 Q658 694 606 650 Q841 653 900 661 Q924 665 935 651 Q948 628 951 616 Q958 591 930 592 Q839 596 695 596 Q713 583 723 572 Q733 559 723 542 Q659 431 591 337 Q659 344 766 352 Q788 390 801 427 Q810 448 825 437 Q845 422 858 404 Q868 390 856 371 Q734 187 610 43 L810 64 Q792 112 772 161 Q765 178 770 182 Q775 185 787 175 Q863 110 902 -13 Q917 -60 887 -77 Q858 -95 847 -49 Q835 -4 821 35 Q763 16 682 -1 Q592 -18 567 -25 Q543 -32 524 -42 Q508 -49 500 -36 Q487 -15 479 12 Q476 21 481 26 Q485 30 488 31 Q547 48 588 98 Q664 192 742 314 Q705 304 641 292 Q581 282 556 274 Q539 269 520 260 Q506 251 497 265 Q485 283 478 310 Q475 322 482 325 L487 328 Q531 344 553 376 Q596 441 642 531 Q657 566 663 593 L664 596 L321 596 Q338 585 351 569 Q361 553 350 538 Q280 424 207 328 Q288 336 365 340 L381 365 Q404 406 424 455 Q431 477 446 464 Q466 451 480 432 Q490 417 478 399 Q340 188 216 39 Q332 54 389 59 Q375 108 352 178 Q341 215 368 191 Q441 124 471 2 Q483 -46 451 -63 Q418 -81 409 -31 Q407 -19 398 22 Q347 5 271 -11 Q191 -26 166 -34 Q149 -40 125 -53 Q108 -61 100 -48 Q86 -25 77 2 Q72 18 86 20 Q88 22 90 22 Q152 39 194 93 Q260 178 339 299 Q305 290 247 280 Q193 270 171 263 Q154 257 136 248 Q119 239 112 253 Q98 278 92 301 Q91 304 91 308 Q91 311 92 312 Q93 318 102 319 Q146 333 169 367 Q220 439 268 528 Q281 554 293 591 L295 596 Z" /><glyph glyph-name="uni517B" unicode="&#x517b;" d="M409 295 Q423 287 419 271 Q416 258 413 233 L405 191 Q384 79 327 14 Q266 -54 146 -97 Q130 -103 127 -96 Q123 -90 138 -79 Q310 29 342 198 Q349 235 351 296 Q351 316 369 311 Q388 307 409 295 ZM427 568 L437 596 Q445 619 456 656 Q294 656 191 657 Q175 657 170 665 Q162 676 157 693 Q154 707 167 707 Q246 706 386 706 Q378 712 374 722 Q355 759 305 830 Q290 852 315 845 Q379 831 422 766 Q443 732 421 711 Q417 707 415 706 Q524 706 571 707 Q622 800 629 822 Q634 834 637 848 Q640 866 656 859 Q686 846 700 833 Q715 821 705 807 Q650 739 611 707 Q776 710 824 717 Q846 720 854 707 Q865 689 868 675 Q873 653 849 654 Q769 658 520 656 Q530 646 523 627 Q514 602 500 569 Q628 569 776 574 Q801 575 810 552 Q823 519 795 519 Q581 517 477 518 Q455 468 428 428 Q813 431 873 437 Q901 439 910 426 Q922 410 926 393 Q933 368 906 371 Q803 378 625 378 Q725 273 835 234 Q858 226 900 216 Q950 205 969 200 Q997 193 973 180 Q961 173 946 159 Q930 144 922 139 Q906 129 887 138 Q750 188 664 277 L659 -10 Q656 -69 636 -104 Q620 -132 610 -103 Q598 -70 598 -13 L599 227 Q599 256 597 291 Q595 306 598 308 Q600 310 616 307 Q627 306 643 299 Q615 331 586 378 L394 378 Q280 226 67 156 Q50 151 46 158 Q43 165 59 175 Q227 264 318 377 L118 376 Q100 375 94 383 Q86 394 81 412 Q76 426 91 426 Q186 427 355 427 Q384 471 404 518 Q300 518 249 519 Q222 519 211 538 Q202 556 204 562 Q206 567 224 567 L427 568 Z" /><glyph glyph-name="uni517C" unicode="&#x517c;" d="M565 267 L566 364 L439 364 L438 266 L565 267 ZM440 412 L566 412 L566 506 L441 504 L440 412 ZM432 651 Q444 639 444 618 Q443 607 443 587 L442 556 Q525 556 565 557 L565 568 Q563 621 560 651 L432 651 ZM624 507 Q623 478 623 413 Q681 413 759 415 L761 510 L624 507 ZM759 364 L623 364 L622 267 Q670 268 758 268 L759 364 ZM820 264 Q826 260 830 245 Q837 225 834 220 Q830 213 809 214 Q705 216 648 216 Q749 114 862 57 Q883 45 921 32 Q967 16 984 9 Q1009 -3 987 -13 Q973 -18 957 -30 Q938 -44 930 -48 Q914 -56 895 -46 Q725 47 622 192 L622 -11 Q622 -61 606 -94 Q595 -113 586 -113 Q576 -113 570 -95 Q558 -61 560 -12 Q562 63 564 216 L437 215 Q435 68 433 -1 Q432 -58 415 -93 Q405 -112 395 -112 Q384 -112 379 -93 Q369 -60 371 -11 L377 154 Q208 -8 48 -53 Q29 -58 26 -51 Q23 -44 40 -33 Q231 77 342 215 Q240 215 188 216 Q161 216 155 236 Q148 256 151 261 Q153 266 173 266 Q279 264 380 266 Q380 300 382 364 Q304 363 119 363 Q102 363 95 371 Q84 388 81 398 Q77 412 92 412 L382 412 L382 503 L214 501 Q196 500 183 527 Q173 547 175 552 Q177 557 193 556 Q253 555 382 555 L382 572 Q382 614 376 651 Q261 651 193 652 Q176 652 170 659 Q161 673 158 688 Q153 702 167 702 L378 701 L375 707 Q359 739 295 821 Q287 831 290 835 Q293 839 306 836 Q376 820 423 751 Q441 724 426 701 L572 702 Q621 786 633 816 Q638 828 643 845 Q647 862 662 854 Q687 842 702 830 Q714 820 705 805 Q649 732 620 703 Q775 705 825 712 Q846 715 856 702 Q867 683 870 670 Q875 647 850 648 Q763 652 615 652 L617 650 Q629 642 628 619 Q625 587 625 559 Q670 559 740 561 Q760 561 774 568 Q777 570 783 570 Q786 571 794 569 Q820 560 828 552 Q841 544 834 526 Q828 505 827 483 Q825 449 824 417 Q875 418 909 422 Q935 424 944 412 Q954 398 959 380 Q966 358 941 359 Q903 361 822 363 L820 264 Z" /><glyph glyph-name="uni5185" unicode="&#x5185;" d="M898 610 Q890 589 890 561 Q888 488 890 295 Q892 94 890 -7 Q888 -58 858 -79 Q822 -106 811 -79 Q808 -73 699 -36 Q687 -32 688 -25 Q689 -18 704 -19 Q783 -20 804 -18 Q820 -16 821 -7 Q827 276 822 592 L544 592 Q531 482 507 407 Q638 353 741 231 Q779 185 759 153 Q738 121 704 165 Q623 270 498 382 Q439 225 273 119 Q255 108 249 113 Q244 118 258 133 Q450 314 479 592 Q296 590 207 588 Q207 557 208 539 Q208 333 202 35 Q201 -30 182 -65 Q172 -85 161 -86 Q150 -86 143 -66 Q133 -33 135 17 Q149 323 143 561 Q141 606 133 638 Q127 662 149 656 Q169 651 181 642 Q280 645 484 647 Q491 747 487 841 Q486 856 491 861 Q494 864 506 862 Q525 856 547 845 Q560 838 559 815 Q556 790 554 740 L548 647 Q631 648 784 648 Q810 648 832 659 Q842 664 849 661 Q851 661 857 659 Q878 650 890 641 Q905 628 898 610 Z" /><glyph glyph-name="uni518D" unicode="&#x518d;" d="M533 215 Q630 215 751 218 Q751 310 750 355 Q682 356 535 356 L533 215 ZM475 356 Q373 355 267 356 L265 214 L474 215 L475 356 ZM267 520 L267 407 L476 407 L476 545 Q366 545 265 542 L267 520 ZM750 408 L749 478 Q749 523 748 545 Q639 546 538 545 L536 408 L750 408 ZM765 611 Q771 614 781 611 Q795 605 811 593 Q828 582 821 564 Q812 544 811 519 Q810 438 814 219 Q898 220 935 225 Q965 229 975 214 Q989 189 993 179 Q1000 154 971 155 Q901 160 815 161 Q817 70 815 -18 Q814 -65 786 -86 Q751 -111 740 -86 Q738 -80 660 -49 Q647 -44 648 -38 Q649 -32 664 -32 Q749 -33 749 -18 Q751 97 751 162 Q637 164 264 162 L262 10 Q260 -55 244 -86 Q234 -104 224 -104 Q213 -104 207 -87 Q196 -51 199 -8 Q203 107 204 162 L78 161 Q57 161 50 169 Q43 181 36 198 Q31 213 47 213 L205 214 Q208 369 204 514 Q203 556 195 588 Q189 611 209 606 Q228 600 238 594 L247 594 Q440 597 476 597 L476 628 Q476 666 471 714 L471 717 Q373 717 187 719 Q156 720 144 741 Q132 759 135 764 Q139 769 159 769 Q603 769 851 778 Q878 778 888 754 Q896 735 892 727 Q889 720 871 720 L529 717 L533 715 Q544 709 543 688 Q541 666 539 618 L539 598 L719 599 Q744 599 761 609 L765 611 Z" /><glyph glyph-name="uni5199" unicode="&#x5199;" d="M693 134 Q700 110 673 111 Q607 115 115 115 Q100 115 93 123 Q85 136 80 154 Q78 169 90 169 Q577 169 648 179 Q670 183 679 168 Q690 152 693 134 ZM352 502 L332 351 Q566 355 765 354 Q792 354 812 360 Q821 362 826 361 Q833 361 837 359 Q860 344 873 334 Q886 322 877 308 Q869 294 864 274 L841 134 Q824 32 813 -24 Q803 -75 769 -91 Q727 -109 721 -83 Q719 -75 607 -34 Q595 -29 597 -23 Q598 -17 613 -18 Q738 -31 742 -18 Q767 103 794 294 Q534 297 280 291 Q260 291 262 306 Q261 311 262 318 Q297 563 296 656 Q296 669 300 671 Q304 675 319 671 Q343 666 359 657 Q374 648 370 630 L359 554 Q681 556 792 562 Q816 563 826 538 Q840 502 810 502 Q573 499 354 502 L352 502 ZM888 745 Q906 723 889 711 Q868 700 857 688 Q830 659 774 588 Q730 550 748 605 Q759 640 793 716 Q395 718 232 715 L222 715 Q215 655 181 588 Q150 525 120 554 Q96 578 113 610 Q171 717 199 795 Q204 810 211 810 Q218 810 220 796 L223 772 Q509 775 771 775 Q797 775 817 782 Q826 785 831 784 Q837 784 845 779 Q869 765 888 745 Z" /><glyph glyph-name="uni51B2" unicode="&#x51b2;" d="M94 697 Q83 707 86 712 Q89 717 104 715 Q196 699 265 615 Q297 577 275 549 Q249 516 220 557 Q183 612 94 697 ZM272 419 Q283 435 290 431 Q297 426 292 410 Q250 286 123 75 Q112 57 94 64 Q71 75 52 91 Q36 105 50 115 Q71 130 80 142 L272 419 ZM640 294 Q705 295 819 295 Q819 446 822 579 L644 579 Q642 390 640 294 ZM579 294 L579 578 Q517 578 411 576 Q414 450 411 294 L579 294 ZM644 631 Q698 632 796 632 Q816 632 834 639 Q842 641 845 641 Q849 641 857 639 Q877 634 892 624 Q904 614 898 594 Q891 574 890 549 Q885 476 881 289 Q883 287 888 273 Q895 251 892 245 Q889 239 870 240 Q834 241 639 241 L637 103 Q635 -6 613 -83 Q597 -133 588 -81 Q575 -9 577 97 L578 241 Q499 239 418 241 Q412 241 410 242 L409 226 Q407 206 387 196 Q359 183 355 195 Q350 208 350 231 Q350 554 349 574 Q348 604 342 625 Q339 638 341 640 Q343 644 357 641 Q379 637 393 628 L579 631 L579 702 Q579 768 575 832 Q573 850 576 852 Q578 855 595 851 Q616 847 638 836 Q652 828 650 802 Q645 754 645 700 L644 631 Z" /><glyph glyph-name="uni51B3" unicode="&#x51b3;" d="M87 699 Q75 709 78 714 Q81 719 97 717 Q197 700 274 613 Q307 575 285 545 Q261 510 230 552 Q184 615 87 699 ZM273 389 Q285 405 292 401 Q298 397 293 379 Q263 289 124 64 Q113 44 95 53 Q70 64 50 80 Q34 96 48 105 Q65 116 79 132 Q101 154 273 389 ZM620 591 L617 502 Q614 416 601 343 Q686 343 793 346 Q793 477 796 594 L620 591 ZM590 290 Q556 148 471 57 Q388 -33 235 -99 Q209 -109 204 -103 Q199 -98 220 -84 Q468 71 523 290 L324 290 Q307 290 301 298 Q293 309 288 327 Q284 342 298 342 L535 342 Q548 422 551 504 Q553 566 553 589 L386 586 Q369 586 357 614 Q346 635 348 641 Q350 648 366 647 Q425 646 554 646 Q554 736 549 828 Q548 845 552 850 Q556 853 569 850 Q594 844 613 834 Q627 825 624 799 Q623 784 621 647 L768 650 Q789 651 802 659 Q805 661 811 663 Q818 666 829 663 Q849 657 861 649 Q874 639 868 621 Q860 603 859 579 Q855 530 851 347 Q913 350 942 353 Q965 357 974 342 Q986 326 989 309 Q995 285 969 286 Q887 290 649 290 Q728 122 858 21 Q882 2 925 -19 Q977 -45 995 -56 Q1018 -72 993 -77 Q980 -81 961 -93 Q941 -105 929 -108 Q911 -113 892 -99 Q686 49 617 290 L590 290 Z" /><glyph glyph-name="uni51C6" unicode="&#x51c6;" d="M695 691 Q670 730 603 804 Q583 826 612 823 Q688 811 744 744 Q773 710 750 682 Q721 649 695 691 ZM202 579 Q165 634 82 714 Q72 725 75 731 Q78 736 92 733 Q180 718 249 635 Q278 600 257 571 Q230 537 202 579 ZM240 368 Q250 384 257 381 Q265 378 261 361 Q242 274 136 42 Q126 23 109 29 Q79 39 61 53 Q44 66 57 77 Q75 93 85 105 Q111 140 155 219 Q217 330 240 368 ZM379 556 Q393 546 396 524 Q398 486 397 467 L389 50 Q390 51 395 51 L526 52 Q604 52 641 53 L643 213 L465 213 Q440 213 431 231 Q423 248 425 254 Q426 260 442 260 Q544 263 644 263 L645 396 L465 394 Q441 393 431 411 Q422 427 424 434 Q426 439 442 440 Q581 444 646 445 L646 495 Q646 524 642 581 L440 581 Q427 581 422 589 Q416 597 413 608 Q388 575 375 559 L379 556 ZM701 53 Q901 55 942 59 Q965 63 974 49 Q984 33 987 15 Q991 -9 968 -6 Q849 4 418 -2 Q404 -3 397 6 Q391 14 388 24 Q387 -35 369 -70 Q350 -104 335 -70 Q319 -40 322 10 Q342 268 334 486 Q334 502 333 510 Q274 446 207 389 Q197 379 190 385 Q184 391 194 403 Q394 681 436 762 Q451 788 463 827 Q469 844 483 838 Q512 825 525 811 Q538 800 528 784 Q479 702 431 633 Q841 633 904 642 Q924 646 932 632 Q942 617 945 599 Q948 577 926 578 Q843 582 711 581 Q714 575 714 560 L710 446 Q830 448 891 450 Q912 451 922 429 Q934 398 907 398 Q840 398 709 396 L706 264 Q771 264 892 266 Q913 266 923 245 Q934 213 908 213 L704 213 L701 53 Z" /><glyph glyph-name="uni51E0" unicode="&#x51e0;" d="M964 63 Q988 36 972 13 Q950 -17 896 -20 Q804 -30 717 -22 Q656 -18 631 15 Q603 50 602 134 Q598 362 610 688 Q387 688 348 687 Q347 660 347 583 Q347 502 345 444 Q340 231 282 117 Q223 2 78 -79 Q58 -90 52 -85 Q46 -79 61 -66 Q180 37 225 140 Q274 250 278 446 Q283 602 273 738 Q271 764 292 759 Q315 754 330 746 Q420 748 583 748 Q602 748 621 758 Q628 761 633 761 Q636 761 646 757 Q666 747 678 736 Q691 724 685 704 Q675 670 672 616 Q660 420 668 138 Q669 84 684 65 Q697 47 731 44 Q824 40 876 48 Q904 52 908 85 Q915 161 919 188 Q923 206 931 206 Q939 205 940 185 Q945 84 964 63 Z" /><glyph glyph-name="uni51ED" unicode="&#x51ed;" d="M212 554 Q143 483 51 421 Q38 413 34 419 Q28 424 38 437 Q236 659 308 778 Q325 807 337 837 Q344 854 359 846 Q383 832 399 817 Q410 804 400 788 Q313 665 251 595 L256 593 Q274 585 275 573 Q277 563 277 542 Q277 425 273 353 Q271 316 254 299 Q236 278 221 299 Q204 320 207 346 Q215 451 212 552 L212 554 ZM350 248 Q436 250 591 250 Q610 250 625 258 Q630 262 635 262 Q638 263 646 261 Q664 256 677 248 Q691 241 684 227 Q680 215 678 193 Q675 101 679 37 Q680 17 690 11 Q699 4 725 2 Q805 -2 871 4 Q895 6 899 21 Q909 59 911 64 Q916 76 921 76 Q927 76 929 61 Q934 20 947 8 Q966 -12 954 -29 Q935 -51 885 -55 Q798 -60 710 -55 Q660 -53 639 -32 Q618 -12 617 35 Q615 120 618 196 Q459 198 356 195 L351 137 Q339 37 282 -17 Q223 -72 98 -96 Q81 -99 79 -91 Q76 -84 93 -76 Q191 -34 233 13 Q278 61 287 142 Q292 183 290 248 Q290 268 308 264 Q329 260 349 249 L350 248 ZM638 583 Q855 585 917 592 Q939 595 948 582 Q957 568 962 550 Q966 528 942 529 Q852 534 637 532 L634 391 L825 391 Q847 391 855 369 Q869 335 840 336 Q605 341 392 336 Q366 336 356 355 Q345 373 347 379 Q350 384 367 385 Q436 388 573 390 Q574 440 574 532 L328 532 Q312 532 307 540 Q297 551 294 568 Q290 583 303 583 L574 583 L574 653 Q574 682 571 713 Q481 701 388 704 Q368 705 367 713 Q367 722 388 725 Q566 756 668 785 Q745 806 787 829 Q801 836 811 825 Q825 809 835 786 Q844 765 820 760 Q808 758 765 748 Q723 738 692 732 Q644 723 622 720 Q625 718 631 716 Q642 711 642 693 Q640 666 640 644 L638 583 Z" /><glyph glyph-name="uni51FA" unicode="&#x51fa;" d="M790 456 L794 685 Q795 700 793 732 Q791 745 795 747 Q798 750 812 746 Q839 738 852 728 Q864 721 860 702 L856 669 L850 420 Q849 392 817 379 Q796 371 792 385 Q789 395 789 404 L541 408 Q537 193 536 39 L817 41 L818 154 Q818 223 819 251 Q819 284 817 301 Q816 315 819 318 Q824 321 838 317 Q864 310 880 299 Q893 290 889 271 L885 235 L879 -47 Q878 -77 845 -92 Q822 -102 818 -86 Q814 -71 815 -49 L816 -16 Q592 -12 224 -18 Q190 -18 166 -25 Q150 -30 137 -17 Q128 -5 123 15 Q120 25 123 29 L125 32 Q133 42 133 65 Q133 200 129 262 Q127 281 124 293 Q119 311 138 310 Q156 309 178 301 Q191 298 192 285 Q199 196 195 34 L475 38 Q475 185 477 408 L270 408 Q246 408 218 400 Q203 396 193 408 Q185 419 180 438 Q177 449 184 452 Q184 456 187 459 Q194 468 194 492 Q194 631 188 695 Q186 716 182 727 Q177 745 198 744 Q218 742 238 737 Q250 733 251 720 Q259 621 254 454 L375 455 Q445 455 478 456 L478 701 Q478 756 471 831 Q469 848 473 852 Q477 856 492 852 Q514 846 541 831 Q554 823 552 795 Q548 754 546 689 L541 456 L790 456 Z" /><glyph glyph-name="uni51FB" unicode="&#x51fb;" d="M543 665 Q655 666 848 670 Q873 671 884 648 Q898 613 867 613 L542 612 L539 438 Q851 440 915 447 Q945 452 956 436 Q969 416 974 398 Q981 371 952 373 Q822 382 538 382 Q538 338 535 211 L533 23 L774 26 Q776 194 777 235 Q777 251 775 284 Q773 298 777 300 Q780 303 796 298 Q816 294 839 282 Q853 273 849 253 Q847 240 845 219 L839 -42 Q838 -71 804 -86 Q780 -96 776 -79 Q772 -65 773 -44 L773 -30 Q563 -28 266 -32 Q234 -34 213 -42 Q196 -47 184 -31 Q174 -17 171 -1 Q170 4 170 9 Q170 15 174 18 Q190 28 190 51 Q195 168 189 238 Q187 258 184 270 Q180 287 201 286 Q227 282 242 278 Q255 274 256 261 Q261 186 255 19 L473 23 L476 381 Q388 381 93 379 Q73 378 65 388 Q58 397 50 419 Q45 435 61 436 L283 437 Q414 437 476 438 Q477 500 477 612 L211 613 Q180 613 169 633 Q158 653 160 658 Q163 663 183 663 Q285 663 477 665 L477 702 Q475 775 470 832 Q468 849 472 853 Q475 858 489 853 Q513 846 537 832 Q551 824 549 796 Q545 744 544 688 L543 665 Z" /><glyph glyph-name="uni51FD" unicode="&#x51fd;" d="M558 369 Q675 348 786 246 Q825 210 808 178 Q788 145 752 183 Q676 263 556 347 Q559 253 544 155 Q537 108 511 84 Q476 56 465 88 Q462 99 361 134 Q345 139 347 147 Q348 155 363 153 Q442 146 460 147 Q477 148 479 158 Q494 265 491 368 Q481 357 259 177 Q243 165 232 175 Q214 188 201 207 Q190 225 205 229 Q224 235 239 243 Q307 278 490 401 Q489 428 485 477 Q479 535 430 610 Q410 639 415 645 Q420 650 449 627 Q477 606 501 578 Q612 645 721 722 Q392 714 239 711 Q220 711 206 739 Q195 759 197 765 Q199 770 217 769 Q480 767 752 776 Q775 777 788 783 Q798 790 806 783 Q813 782 817 776 Q826 764 837 740 Q845 722 828 713 Q572 571 522 549 Q539 519 543 482 Q550 436 555 369 L558 369 ZM375 419 Q335 464 243 537 Q232 546 234 551 Q236 556 250 554 Q328 545 410 471 Q441 444 424 416 Q405 384 375 419 ZM765 582 Q786 563 796 548 Q808 533 793 524 Q657 424 590 404 Q580 400 577 406 Q574 412 583 419 Q676 498 725 553 Q736 567 744 578 Q751 592 765 582 ZM832 -14 Q569 -10 208 -15 Q181 -15 150 -23 Q132 -27 121 -14 Q112 -4 107 16 Q103 29 111 32 Q123 45 125 78 Q130 273 119 427 Q118 451 113 481 Q110 495 113 499 Q115 503 129 502 Q154 498 169 493 Q182 488 182 470 Q191 312 184 35 Q628 41 833 41 Q835 124 838 438 Q838 468 835 505 Q834 520 838 523 Q841 525 856 521 Q879 514 900 501 Q913 492 909 466 Q907 448 905 417 Q901 328 896 -19 Q896 -56 863 -75 Q841 -87 835 -67 Q832 -54 832 -21 L832 -14 Z" /><glyph glyph-name="uni5206" unicode="&#x5206;" d="M418 736 Q253 488 55 365 Q42 358 38 364 Q33 370 43 380 Q248 578 332 722 Q348 751 361 780 Q367 795 381 788 Q405 775 417 761 Q428 750 418 736 ZM245 401 Q228 401 215 427 Q206 449 208 454 Q209 460 224 459 Q394 457 640 463 Q663 464 672 470 Q678 474 683 474 Q689 475 698 471 Q716 461 731 450 Q745 440 736 424 Q729 410 726 385 Q722 346 710 198 Q700 65 690 -13 Q683 -62 653 -77 Q617 -99 607 -73 Q605 -68 497 -29 Q485 -25 486 -20 Q488 -14 501 -15 Q623 -21 624 -9 Q645 151 661 410 L551 408 Q478 406 444 406 L452 401 Q467 391 462 372 L452 331 Q446 304 442 290 Q402 143 331 58 Q253 -35 106 -98 Q85 -106 81 -99 Q77 -91 96 -78 Q316 65 375 298 Q387 343 390 404 L245 401 ZM981 425 Q1000 413 999 408 Q998 404 975 401 Q962 399 944 391 Q924 381 915 379 Q892 374 873 391 Q664 557 562 751 Q545 784 525 799 Q512 809 515 832 Q518 864 538 851 Q571 832 602 782 Q712 614 851 510 Q882 488 921 463 L981 425 Z" /><glyph glyph-name="uni5207" unicode="&#x5207;" d="M458 245 Q417 199 352 146 Q260 71 250 62 Q239 51 216 26 Q204 11 191 20 Q169 34 150 60 Q145 65 145 71 Q142 80 155 87 Q203 115 206 165 Q213 310 213 487 Q193 486 146 482 L68 476 Q53 475 49 482 Q41 497 38 512 Q34 528 45 529 L213 542 Q213 635 210 721 Q209 765 203 798 Q201 812 204 817 Q207 821 221 819 Q245 816 268 806 Q282 799 282 777 Q283 660 282 548 Q407 561 431 568 Q451 573 458 560 Q468 540 470 528 Q474 505 455 504 Q423 503 281 493 Q278 315 271 159 Q360 218 442 269 Q466 284 472 277 Q478 270 458 245 ZM470 664 Q452 664 438 693 Q428 715 430 721 Q432 727 449 726 Q643 724 835 733 Q854 733 868 740 Q874 743 880 743 Q886 745 893 741 Q908 735 928 719 Q943 708 935 689 Q926 670 923 637 Q918 566 908 356 Q899 150 890 39 Q886 -16 853 -37 Q816 -61 805 -34 Q801 -24 680 17 Q667 22 669 28 Q670 34 684 33 Q773 27 800 30 Q819 32 820 41 Q842 304 855 675 L658 669 L666 665 Q680 656 677 633 Q674 611 670 554 Q666 494 662 459 Q638 247 556 123 Q473 -4 294 -91 Q271 -102 266 -95 Q261 -89 282 -74 Q429 31 501 152 Q573 275 593 462 Q603 548 601 662 L601 668 L470 664 Z" /><glyph glyph-name="uni520E" unicode="&#x520e;" d="M571 645 Q580 648 589 644 Q608 633 624 621 Q638 609 630 591 Q619 573 616 545 Q611 497 596 299 Q582 124 569 23 Q564 -28 531 -50 Q494 -72 484 -46 Q481 -37 381 2 Q369 8 370 14 Q372 19 386 18 Q461 13 483 15 Q500 17 501 26 Q528 260 549 579 L470 580 Q474 576 475 574 Q484 564 480 542 Q432 310 352 177 Q264 31 104 -54 Q83 -65 78 -59 Q73 -53 93 -35 Q356 183 418 580 L332 579 L334 577 Q342 567 337 549 Q235 273 71 171 Q55 162 50 167 Q45 173 59 188 Q216 358 274 578 L199 577 Q149 490 73 412 Q63 402 57 407 Q50 411 57 424 Q182 650 214 758 Q221 782 227 826 Q230 844 247 839 Q274 829 290 819 Q303 809 296 791 Q256 688 229 634 L232 634 Q410 637 529 636 Q552 636 568 644 L571 645 ZM757 226 Q757 182 739 154 Q721 123 707 153 Q690 183 692 222 Q701 449 700 610 Q698 652 693 670 Q688 691 708 687 Q734 679 750 671 Q764 662 764 644 Q763 627 763 598 Q757 404 757 226 ZM924 808 Q936 801 933 778 Q929 753 927 706 Q925 631 926 376 Q926 136 922 -1 Q918 -53 892 -74 Q854 -105 845 -74 Q841 -63 750 -28 Q738 -23 739 -17 Q739 -11 753 -11 Q855 -13 856 0 Q866 368 863 743 Q861 788 856 817 Q852 840 875 832 Q902 824 924 808 Z" /><glyph glyph-name="uni521A" unicode="&#x521a;" d="M430 177 Q395 251 356 319 Q290 202 192 98 Q182 86 176 91 Q169 96 178 110 Q276 269 326 371 Q289 433 200 577 Q183 603 189 608 Q195 612 215 591 Q287 520 352 428 Q381 495 398 556 Q410 598 415 642 Q418 661 433 656 Q461 646 470 638 Q481 630 477 613 Q436 479 386 377 Q435 299 471 229 Q504 166 474 141 Q455 121 430 177 ZM145 758 Q330 761 497 761 Q519 762 537 770 Q541 774 549 774 Q552 774 558 772 Q574 764 588 754 Q604 743 596 724 Q587 702 587 672 Q585 591 585 352 Q585 117 581 -7 Q580 -56 552 -76 Q518 -103 507 -76 Q504 -68 420 -34 Q408 -29 410 -24 Q411 -18 425 -18 Q485 -20 504 -17 Q517 -15 517 -6 Q527 323 524 703 Q296 705 164 701 L162 701 Q163 682 163 642 Q163 468 154 39 Q152 -33 135 -70 Q125 -92 114 -92 Q102 -92 97 -71 Q88 -37 90 21 Q106 416 101 664 Q99 716 91 752 Q86 778 108 770 Q125 765 137 758 L145 758 ZM757 632 Q758 616 758 587 Q756 437 749 232 Q745 182 729 159 Q710 130 697 159 Q684 189 687 221 Q699 432 697 600 Q697 628 692 657 Q687 676 706 671 Q725 667 740 659 Q756 650 757 632 ZM919 803 Q931 795 928 773 Q923 750 921 700 Q917 616 919 366 Q919 117 914 -14 Q913 -64 885 -88 Q848 -119 838 -88 Q834 -73 760 -42 Q749 -36 750 -30 Q750 -23 763 -24 Q849 -26 849 -13 Q861 397 856 738 Q856 779 849 811 Q847 825 851 828 Q854 831 868 827 Q895 821 919 803 Z" /><glyph glyph-name="uni521B" unicode="&#x521b;" d="M235 474 Q372 476 425 476 Q445 476 458 485 Q466 491 472 488 L479 486 Q492 483 511 470 Q523 462 517 450 Q512 437 511 424 Q509 399 505 328 Q502 258 499 222 Q495 182 469 168 Q432 149 425 171 Q423 179 362 202 Q349 206 350 211 Q351 218 365 216 Q434 213 435 225 Q444 323 447 423 Q323 425 240 422 L240 405 Q240 393 239 385 Q234 181 237 81 Q240 18 299 13 Q394 5 484 15 Q522 19 526 42 L539 106 Q543 122 549 121 Q555 121 556 103 Q557 39 576 24 Q600 2 580 -18 Q558 -36 499 -43 Q404 -52 292 -44 Q182 -35 179 79 Q177 140 179 241 Q181 354 181 388 L178 485 Q127 437 66 399 Q48 388 43 394 Q38 400 52 415 Q189 560 263 676 Q330 780 353 836 Q361 853 378 846 Q400 838 416 826 Q432 813 419 796 Q408 781 356 700 Q458 674 576 575 Q616 541 598 508 Q582 477 545 513 Q465 593 343 681 Q335 668 319 647 Q249 553 189 494 L194 493 Q212 488 232 477 L235 474 ZM711 639 Q725 632 725 616 L721 282 Q721 243 705 220 Q687 193 673 219 Q659 245 660 276 Q668 467 665 589 Q663 617 658 637 Q653 656 671 652 Q697 646 711 639 ZM908 827 Q922 818 919 796 Q914 772 911 722 Q908 637 909 385 Q909 134 905 1 Q904 -51 876 -74 Q839 -104 828 -74 Q822 -59 737 -27 Q726 -22 727 -16 Q727 -10 740 -10 Q839 -12 839 2 Q851 380 846 760 Q846 800 840 835 Q838 848 841 851 Q845 854 859 850 Q888 841 908 827 Z" /><glyph glyph-name="uni521D" unicode="&#x521d;" d="M279 691 Q257 730 182 812 Q161 836 192 829 Q274 808 325 736 Q350 704 326 678 Q301 653 279 691 ZM226 321 Q149 243 45 185 Q26 175 22 181 Q18 188 34 201 Q145 300 211 385 Q209 389 206 393 Q203 398 201 400 Q180 434 216 420 L230 413 Q287 495 329 588 L99 580 Q85 580 74 607 Q66 628 68 633 Q69 638 83 637 Q214 637 324 642 Q343 644 351 650 Q360 654 365 651 Q367 651 373 649 Q390 641 408 627 Q422 615 411 598 Q396 576 375 536 Q323 436 271 372 Q275 364 276 360 Q278 356 280 343 Q299 338 333 324 Q396 404 414 439 Q422 455 425 462 Q431 477 444 468 Q467 454 479 442 Q491 429 480 417 Q399 336 356 312 Q400 289 444 248 Q477 219 459 192 Q444 164 413 196 Q376 235 283 311 Q287 176 281 -8 Q278 -59 255 -86 Q237 -106 226 -80 Q219 -64 221 -19 Q230 136 226 313 L226 321 ZM633 671 L502 668 Q485 668 474 696 Q464 718 467 723 Q468 728 483 727 Q661 725 843 732 Q864 733 875 742 Q881 745 887 745 Q894 747 901 743 Q922 732 936 720 Q952 708 943 689 Q932 668 929 636 Q924 572 911 346 Q900 136 888 17 Q882 -38 851 -60 Q813 -85 802 -57 Q799 -48 678 -5 Q666 0 667 7 Q668 13 684 12 Q772 6 798 8 Q818 10 819 20 Q844 307 863 676 L683 672 L691 668 Q705 659 702 638 Q699 616 695 570 L687 492 Q661 287 597 167 Q528 38 384 -58 Q364 -71 359 -65 Q353 -60 369 -45 Q583 156 625 495 Q635 585 633 665 L633 671 Z" /><glyph glyph-name="uni522B" unicode="&#x522b;" d="M198 540 Q253 539 337 540 L461 541 Q459 640 461 731 Q305 733 200 730 Q202 650 198 540 ZM347 338 Q402 338 480 340 Q502 341 511 347 Q513 349 516 349 Q524 354 534 349 Q556 337 571 326 Q584 315 576 300 Q569 285 566 268 Q562 236 551 136 Q541 39 533 -15 Q526 -63 494 -78 Q453 -99 446 -73 Q444 -66 345 -30 Q332 -25 334 -19 Q335 -14 350 -15 Q459 -21 462 -10 Q477 91 495 285 L336 282 Q307 144 244 57 Q179 -33 53 -102 Q34 -112 29 -106 Q24 -100 39 -87 Q221 64 268 281 L96 278 Q78 278 65 306 Q55 328 57 333 Q59 339 75 338 Q139 337 278 337 L280 350 Q289 407 289 485 Q227 485 195 486 Q190 474 174 466 Q147 456 142 465 Q138 478 138 495 L138 733 Q136 760 132 775 Q128 786 130 789 Q133 791 146 790 Q165 787 175 782 L440 785 Q458 785 474 792 Q481 795 486 794 Q491 794 494 793 Q516 787 528 778 Q539 769 534 751 Q528 733 527 712 Q525 682 523 527 L526 518 Q533 496 530 490 Q527 484 509 484 Q458 485 351 485 Q366 476 362 455 Q359 439 355 403 Q351 365 348 344 L347 338 ZM715 653 Q716 635 716 605 Q714 411 709 230 Q707 178 691 151 Q671 120 657 151 Q642 184 646 219 Q657 458 654 619 Q654 653 647 678 Q642 699 661 694 Q683 689 699 680 Q714 672 715 653 ZM909 810 Q921 801 918 780 Q914 753 912 705 Q910 621 910 367 Q911 115 907 -20 Q904 -74 876 -97 Q840 -129 828 -97 Q824 -86 721 -49 Q709 -45 710 -37 Q711 -30 724 -30 Q838 -33 840 -19 Q850 359 847 744 Q845 789 840 819 Q836 842 860 834 Q888 825 909 810 Z" /><glyph glyph-name="uni5230" unicode="&#x5230;" d="M365 276 Q416 277 507 281 Q529 282 539 261 Q552 228 524 227 L364 224 L360 82 Q502 106 581 120 Q602 124 605 115 Q608 106 590 99 Q421 35 102 -26 Q80 -30 70 -18 Q56 0 47 28 Q41 49 61 48 Q91 45 111 48 Q207 58 300 73 L303 224 L123 222 Q98 221 88 239 Q79 257 81 264 Q82 269 98 270 Q239 274 303 275 Q304 304 304 353 Q304 391 300 420 L299 426 Q207 410 171 401 Q152 397 125 383 Q112 376 103 388 Q90 411 84 433 Q83 435 83 439 Q80 449 90 453 Q126 467 152 500 Q206 576 254 657 Q265 678 275 706 Q164 706 96 707 Q82 707 77 715 Q70 725 66 744 Q61 759 75 759 Q477 754 561 768 Q580 772 588 758 Q599 741 600 726 Q604 704 582 704 Q538 706 332 706 Q344 690 340 696 Q350 682 340 664 Q258 542 194 463 Q342 485 474 498 Q464 520 410 624 Q400 640 406 645 Q411 649 425 638 Q518 570 567 445 Q586 396 556 375 Q526 355 511 403 L488 465 Q437 452 329 432 Q349 426 360 420 Q372 415 371 397 Q369 380 367 343 L365 276 ZM700 175 Q681 146 669 173 Q654 201 657 233 Q668 421 666 588 Q665 617 659 641 Q654 661 673 657 Q691 653 707 645 Q723 637 724 619 Q725 604 725 576 Q725 440 719 244 Q718 199 700 175 ZM897 812 Q909 804 906 783 Q901 735 901 714 Q899 630 899 378 Q899 130 895 -3 Q894 -52 867 -74 Q834 -102 822 -73 Q819 -65 698 -28 Q687 -24 688 -18 Q688 -12 701 -13 Q834 -15 834 -2 Q846 374 841 749 Q841 786 835 820 Q832 840 853 834 Q878 826 897 812 Z" /><glyph glyph-name="uni5236" unicode="&#x5236;" d="M385 489 Q492 491 594 492 Q618 492 629 468 Q643 433 612 433 Q535 434 384 434 L382 331 L498 332 Q517 332 534 339 L536 340 Q538 341 543 341 L551 340 Q568 334 584 326 Q597 317 591 303 Q586 289 586 277 Q585 251 585 187 Q585 118 584 83 Q583 44 557 30 Q518 8 509 31 Q507 35 442 58 Q430 62 431 68 Q432 74 445 74 Q517 73 517 84 Q520 144 520 276 L381 276 Q379 106 379 14 Q379 -52 360 -92 Q342 -134 328 -93 Q311 -45 314 8 Q317 91 321 276 Q271 276 187 274 Q184 104 181 50 Q180 15 164 -3 Q144 -25 131 -3 Q120 17 121 44 Q128 187 127 286 Q127 304 122 326 Q118 343 135 340 Q160 334 171 329 L248 330 Q298 330 322 331 L324 434 L100 434 Q72 433 60 454 Q49 474 51 480 Q53 485 73 486 L325 489 L327 611 L212 611 Q197 611 192 613 Q152 549 98 508 Q90 502 85 506 Q80 511 85 522 Q160 664 171 702 Q177 723 178 739 Q181 757 197 750 Q221 742 242 728 Q255 718 247 703 L223 662 L275 663 Q309 663 327 664 L327 719 Q327 777 317 820 Q312 846 334 839 Q360 832 380 815 Q393 803 392 777 L388 664 Q482 666 569 667 Q591 668 600 645 Q613 610 585 611 L387 611 L385 489 ZM734 597 Q730 461 728 239 Q727 195 711 169 Q693 142 679 169 Q663 200 666 234 Q677 463 674 610 Q674 640 667 666 Q662 687 681 682 Q707 675 721 667 Q735 659 734 641 L734 597 ZM902 818 Q915 808 911 787 Q906 739 906 715 Q904 630 904 374 Q904 121 900 -12 Q899 -61 871 -84 Q834 -114 825 -84 Q821 -70 748 -40 Q736 -35 737 -28 Q738 -22 751 -22 Q836 -24 836 -11 Q849 368 844 752 Q844 791 837 825 Q833 846 857 840 Q882 832 902 818 Z" /><glyph glyph-name="uni5237" unicode="&#x5237;" d="M514 721 Q336 723 220 720 Q219 705 218 659 Q217 615 215 587 Q278 586 372 587 L513 588 Q512 634 514 721 ZM545 782 Q562 779 576 769 Q589 760 582 744 Q578 732 576 711 Q573 674 571 583 Q574 580 579 567 Q585 546 582 540 Q579 535 563 535 Q508 536 392 536 Q273 535 213 536 Q200 346 168 239 Q132 118 47 18 Q35 5 28 8 Q20 12 28 26 Q138 238 153 583 Q157 678 152 766 Q152 791 170 786 Q192 781 209 772 Q410 774 493 774 Q508 774 524 780 Q528 784 537 784 L545 782 ZM517 378 Q535 378 549 385 L558 389 Q562 390 570 388 Q588 380 601 373 Q615 365 608 351 Q603 335 603 323 Q602 292 603 213 Q603 129 602 88 Q601 53 575 36 Q539 14 530 37 Q527 44 474 63 Q462 68 463 74 Q463 80 477 79 Q538 78 538 91 Q542 185 540 326 L436 327 Q432 149 431 -8 Q429 -59 412 -87 Q395 -119 379 -88 Q363 -51 366 -14 Q373 170 375 327 L326 326 Q295 326 280 325 L280 319 Q280 173 276 78 Q275 41 259 23 Q240 -1 227 22 Q217 42 218 70 Q226 227 223 330 Q223 348 216 371 Q209 389 228 384 Q241 381 253 376 L375 377 L374 432 Q374 469 367 498 Q362 520 382 514 Q402 510 424 498 Q439 489 438 468 L437 377 L517 378 ZM748 218 Q748 172 731 144 Q713 114 699 144 Q685 172 687 210 Q698 443 695 602 Q693 642 688 661 Q684 680 702 676 Q726 669 741 662 Q755 654 755 634 L748 218 ZM925 818 Q938 809 934 787 Q929 739 929 714 Q927 633 927 371 Q927 119 923 -19 Q922 -69 894 -92 Q858 -120 848 -92 Q844 -80 754 -47 Q743 -42 744 -35 Q744 -28 757 -29 Q860 -31 860 -18 Q872 366 867 751 Q867 791 861 826 Q857 848 879 840 Q906 832 925 818 Z" /><glyph glyph-name="uni523B" unicode="&#x523b;" d="M351 701 Q330 742 273 818 Q256 839 283 834 Q357 818 401 747 Q423 713 400 690 Q370 661 351 701 ZM109 625 Q96 625 90 632 Q81 645 78 661 Q75 675 87 675 Q510 677 561 683 Q580 688 589 674 Q598 657 601 642 Q606 621 583 622 Q516 626 318 626 Q332 615 341 603 Q353 588 340 574 Q280 484 224 417 Q311 422 394 423 Q439 482 467 538 Q475 554 492 545 Q511 536 525 521 Q538 508 525 492 Q512 478 475 428 Q443 385 412 353 Q276 208 96 152 Q75 146 72 153 Q69 160 86 171 Q260 268 363 385 Q330 378 274 370 Q222 362 199 357 Q188 355 163 344 Q147 338 140 351 Q128 371 122 398 Q119 412 133 414 L138 414 Q164 425 182 450 Q223 503 262 572 Q278 600 284 625 L109 625 ZM427 134 Q274 -12 60 -64 Q35 -71 32 -62 Q29 -54 52 -44 Q281 57 413 210 Q478 285 533 388 Q543 406 560 395 Q580 384 595 367 Q608 354 593 336 Q582 323 537 262 Q500 210 463 170 L443 150 Q529 129 595 49 Q624 15 602 -15 Q576 -44 550 -5 Q521 40 427 134 ZM739 579 Q734 423 734 216 Q734 171 716 145 Q699 114 683 144 Q667 177 669 214 Q679 443 676 591 Q676 623 670 651 Q665 671 683 667 Q713 660 727 651 Q742 642 741 624 Q740 616 740 603 L739 579 ZM915 816 Q927 807 924 784 Q919 736 919 710 Q916 620 916 371 Q917 114 913 -18 Q912 -70 882 -94 Q846 -124 834 -94 Q830 -81 727 -46 Q715 -41 716 -33 Q717 -26 730 -27 Q846 -29 846 -16 Q858 405 853 749 Q853 789 847 824 Q845 837 848 840 Q852 843 866 839 Q894 830 915 816 Z" /><glyph glyph-name="uni524D" unicode="&#x524d;" d="M206 215 L320 216 Q386 218 420 216 Q420 293 421 331 L317 331 Q249 331 208 332 L206 215 ZM209 380 L323 381 Q389 382 421 381 Q421 454 420 489 Q273 489 210 487 L209 380 ZM483 535 Q499 524 492 506 Q484 489 483 465 Q482 413 482 247 Q483 90 480 1 Q479 -43 451 -61 Q415 -85 406 -60 Q404 -56 328 -25 Q316 -20 317 -15 Q318 -9 331 -10 Q415 -12 415 2 Q417 56 419 166 Q380 167 312 167 L205 167 Q203 57 201 5 Q199 -51 182 -78 Q159 -114 148 -78 Q136 -50 139 -7 Q153 280 150 468 Q150 508 142 537 Q138 559 157 553 Q171 550 189 540 L398 543 Q415 543 430 550 Q436 552 439 552 Q445 554 453 551 Q462 548 483 535 ZM657 477 Q669 470 667 455 Q665 431 665 421 Q663 383 663 303 Q662 195 661 158 Q660 127 644 108 Q625 85 610 108 Q597 128 599 159 Q605 323 604 432 Q604 452 601 477 Q598 493 615 491 Q639 486 657 477 ZM847 582 Q859 574 855 555 Q852 531 850 498 Q848 439 848 254 Q848 74 845 -23 Q844 -72 816 -94 Q780 -121 770 -93 Q767 -81 678 -50 Q667 -46 668 -40 Q668 -32 681 -33 Q781 -35 781 -22 Q791 210 789 529 Q787 571 782 588 Q780 599 783 603 Q787 605 801 602 Q823 595 847 582 ZM396 673 Q537 673 597 674 Q653 756 678 809 Q684 825 689 840 Q693 856 709 849 Q738 836 752 825 Q765 812 754 800 Q680 707 639 674 Q871 677 932 684 Q962 688 970 673 Q982 656 987 638 Q995 613 967 615 Q846 622 84 620 Q63 620 56 628 Q46 647 42 657 Q37 672 53 672 L359 673 Q353 679 348 690 Q333 728 270 827 Q255 852 283 842 Q358 815 403 733 Q423 694 396 673 Z" /><glyph glyph-name="uni5254" unicode="&#x5254;" d="M357 516 Q446 517 491 516 L490 605 Q446 606 350 606 Q254 606 205 607 L204 560 Q204 530 203 514 L357 516 ZM491 744 Q319 746 204 743 L205 655 Q266 654 358 655 L490 656 Q491 687 491 744 ZM556 390 Q564 396 576 391 Q593 383 611 370 Q625 359 617 344 Q609 329 607 312 L594 165 Q585 61 578 0 Q574 -46 542 -61 Q504 -80 496 -57 Q494 -50 416 -18 Q404 -14 405 -8 Q407 -3 420 -4 Q507 -9 510 5 Q525 124 539 326 L472 327 Q475 324 477 320 Q484 308 476 291 Q414 142 341 64 Q258 -26 127 -66 Q108 -72 105 -65 Q101 -58 119 -47 Q339 85 416 327 Q358 327 329 326 L332 321 Q339 309 330 296 Q213 136 88 91 Q73 85 70 92 Q66 98 79 108 Q206 207 270 326 L204 324 Q129 260 50 228 Q39 223 36 229 Q32 235 41 243 Q162 354 214 426 Q226 441 235 459 L237 462 L201 462 Q201 445 179 437 Q152 424 148 435 Q144 448 144 466 L144 610 Q144 705 142 743 Q141 764 135 787 Q131 799 133 802 Q135 804 149 802 Q162 801 174 796 Q381 798 468 798 Q488 798 503 806 L505 807 Q513 812 524 807 Q532 805 555 793 Q570 784 563 768 Q558 758 558 741 Q555 596 558 498 Q558 456 525 441 Q502 433 498 444 Q496 449 494 461 L260 461 Q283 444 291 433 Q302 419 290 407 L263 380 Q355 382 516 382 Q537 382 554 389 L556 390 ZM754 609 Q750 476 748 255 Q747 208 730 183 Q711 154 698 183 Q681 213 683 250 Q694 475 690 621 Q690 652 684 679 Q679 700 699 695 Q720 691 740 680 Q755 672 754 654 L754 609 ZM924 824 Q937 815 933 792 Q928 744 928 719 Q926 639 926 383 Q926 137 922 -1 Q921 -53 892 -76 Q854 -108 844 -76 Q840 -65 737 -28 Q724 -24 726 -18 Q727 -11 741 -11 Q855 -14 855 0 Q868 379 862 757 Q862 797 856 832 Q854 845 857 848 Q861 851 876 847 Q898 840 924 824 Z" /><glyph glyph-name="uni5269" unicode="&#x5269;" d="M224 294 Q203 282 163 266 Q123 250 106 239 Q93 230 84 240 Q70 254 62 272 Q54 288 68 289 Q75 289 91 291 Q140 301 225 327 L225 404 Q191 403 119 399 Q101 398 93 417 Q85 438 87 443 Q89 448 105 447 L225 447 L224 472 Q224 492 217 508 Q213 525 229 522 Q255 516 265 510 Q278 505 278 492 Q277 482 277 465 Q276 409 276 256 Q276 229 263 212 Q248 194 235 211 Q221 232 222 253 L224 294 ZM395 705 Q409 696 409 669 Q408 658 408 639 L407 606 Q588 608 633 614 Q652 616 660 605 Q670 589 673 574 Q677 552 655 553 Q590 557 407 557 Q407 521 402 227 Q504 203 617 114 Q656 84 640 52 Q626 23 589 56 Q520 118 401 202 L398 21 Q397 -44 381 -77 Q362 -116 348 -78 Q334 -35 337 9 Q341 132 342 192 Q202 47 55 -4 Q38 -9 34 -3 Q31 5 47 15 Q238 139 345 289 Q348 442 348 557 Q282 556 115 556 Q102 556 96 564 Q90 571 83 591 Q80 606 92 606 L348 606 L348 622 Q346 666 341 697 Q259 682 174 681 Q154 681 154 690 Q154 698 173 702 Q342 738 431 767 Q500 791 539 815 Q553 822 562 812 Q578 796 585 778 Q593 760 573 755 L521 740 Q485 727 454 720 L423 713 Q403 709 392 706 L395 705 ZM668 283 Q689 265 674 248 Q660 232 625 228 Q583 225 536 228 Q469 233 468 307 Q467 337 468 391 L468 466 Q468 501 466 518 Q465 532 480 531 Q498 528 515 521 Q529 514 525 500 Q523 491 520 464 L519 398 Q559 424 587 452 Q599 464 610 480 Q617 491 628 486 Q646 474 657 461 Q666 450 654 441 Q569 381 519 365 Q519 326 520 308 Q520 279 543 278 Q581 275 615 278 Q632 279 633 294 L640 359 Q643 372 649 372 Q655 371 656 357 Q659 290 668 283 ZM775 237 Q775 198 759 172 Q742 146 729 171 Q714 200 717 231 Q726 423 724 578 Q722 614 718 629 Q713 649 730 645 Q754 639 767 631 Q782 625 782 607 L775 237 ZM926 816 Q938 806 935 786 Q931 759 929 713 Q927 633 927 373 Q927 123 923 -14 Q922 -63 895 -86 Q858 -114 849 -86 Q845 -74 755 -41 Q743 -36 744 -29 Q745 -23 758 -23 Q860 -25 860 -13 Q873 406 868 750 Q868 789 861 824 Q859 837 862 840 Q867 842 880 838 Q907 830 926 816 Z" /><glyph glyph-name="uni526F" unicode="&#x526f;" d="M112 723 Q105 735 101 753 Q97 768 110 768 Q520 770 563 777 Q581 781 591 766 Q600 749 603 735 Q606 712 584 713 Q536 716 131 716 Q118 716 112 723 ZM214 486 Q271 485 357 486 L485 487 Q485 524 487 591 Q323 593 215 590 Q216 557 214 486 ZM501 646 Q508 650 519 647 Q538 639 547 633 Q557 626 552 610 Q549 599 547 580 Q545 549 543 478 L547 465 Q553 445 550 440 Q548 434 531 434 Q481 435 375 435 Q266 434 211 435 Q208 423 191 418 Q165 409 162 417 Q158 426 158 441 Q158 619 159 599 Q157 620 153 632 Q149 642 151 646 Q153 648 166 646 Q182 645 195 637 Q388 639 467 639 Q480 639 498 645 L501 646 ZM532 33 Q531 64 531 149 Q480 150 373 150 Q372 132 372 94 L371 33 L532 33 ZM319 149 Q216 149 163 150 L160 32 L319 32 L319 149 ZM164 198 Q269 198 319 199 L319 276 Q319 297 318 309 L239 308 Q189 308 164 307 L164 198 ZM374 199 Q431 200 531 200 L532 308 L376 309 L374 199 ZM545 367 Q552 373 564 368 Q573 365 596 354 Q610 344 602 329 Q597 319 597 300 Q594 150 596 21 Q596 -22 564 -37 Q544 -47 538 -34 L535 -19 Q477 -18 351 -18 Q222 -19 157 -18 L157 -22 Q154 -41 134 -51 Q107 -63 102 -52 Q98 -37 99 -18 Q102 272 101 300 Q99 333 95 349 Q92 362 94 365 Q96 367 109 365 Q128 361 136 357 Q332 360 506 360 Q525 360 542 366 L545 367 ZM721 164 Q703 137 690 164 Q675 196 678 228 Q688 462 685 614 Q685 646 679 671 Q674 691 692 687 Q721 677 731 671 Q744 663 743 646 Q743 619 742 603 Q738 460 736 232 Q736 191 721 164 ZM910 815 Q923 806 919 784 Q914 736 914 711 Q912 632 912 379 Q912 135 908 -2 Q907 -54 878 -77 Q842 -107 830 -77 Q826 -65 804 -58 L706 -28 Q694 -24 695 -18 Q696 -11 709 -12 Q842 -14 842 -1 Q854 377 849 749 Q849 789 843 823 Q838 846 862 838 Q889 830 910 815 Z" /><glyph glyph-name="uni529B" unicode="&#x529b;" d="M196 537 Q173 537 158 567 Q145 591 148 597 Q150 604 169 603 Q353 603 448 604 Q458 715 455 828 Q455 846 459 850 Q463 854 477 850 Q499 844 522 832 Q538 824 534 797 Q531 766 526 709 L518 605 Q663 607 762 611 Q790 611 801 618 Q807 620 810 620 Q816 623 825 618 Q847 608 861 594 Q877 582 867 565 Q857 545 854 518 Q848 462 835 284 Q822 115 811 19 Q804 -37 769 -57 Q730 -80 720 -53 Q717 -44 580 0 Q566 6 568 12 Q569 18 584 17 Q736 7 738 22 Q761 200 784 551 L512 545 Q480 304 382 159 Q282 11 76 -91 Q49 -104 44 -98 Q39 -91 63 -74 Q237 47 324 189 Q412 331 440 543 L196 537 Z" /><glyph glyph-name="uni529D" unicode="&#x529d;" d="M400 158 Q373 198 314 273 Q226 123 66 15 Q43 -1 38 6 Q33 11 51 30 Q198 178 270 326 Q217 386 114 500 Q94 522 100 527 Q105 531 128 517 Q214 462 295 383 Q341 496 370 645 L112 636 Q96 636 86 664 Q78 687 79 692 Q80 697 94 696 Q236 696 354 701 Q372 702 381 709 Q386 712 389 712 Q398 715 407 711 Q432 700 447 690 Q461 678 453 660 Q437 626 424 567 Q391 433 344 332 Q394 277 435 222 Q476 168 452 133 Q433 108 400 158 ZM514 553 Q497 553 485 583 Q475 606 477 612 Q479 617 495 616 L642 616 Q648 733 643 830 Q642 847 646 851 Q650 855 664 851 Q691 844 707 835 Q721 826 718 800 Q716 773 714 716 Q711 645 709 616 L849 619 Q867 619 879 625 Q886 629 892 627 L901 624 Q919 616 936 603 Q951 590 942 573 Q933 552 930 526 Q925 466 911 277 Q898 97 888 -4 Q882 -58 850 -77 Q812 -101 803 -74 Q800 -66 685 -23 Q673 -19 674 -13 Q675 -8 689 -9 Q774 -15 799 -13 Q817 -11 818 -2 Q845 247 862 560 L705 557 Q685 308 606 161 Q527 11 348 -97 Q326 -110 320 -105 Q314 -100 333 -84 Q483 42 551 187 Q621 331 638 555 L514 553 Z" /><glyph glyph-name="uni529E" unicode="&#x529e;" d="M169 213 Q113 159 96 201 Q82 233 110 260 Q202 347 274 439 Q284 453 291 451 Q297 448 295 433 Q278 319 169 213 ZM213 561 Q193 560 179 590 Q167 614 169 620 Q171 626 190 625 Q265 624 426 624 Q429 733 426 819 Q425 837 429 841 Q434 844 447 841 Q473 834 492 824 Q507 815 504 789 Q503 780 496 625 Q599 625 676 628 Q701 628 714 636 Q720 641 727 639 Q734 641 741 637 Q760 628 777 615 Q792 600 783 584 Q775 566 772 535 Q766 476 755 286 Q744 105 735 2 Q731 -53 696 -74 Q658 -98 647 -70 Q642 -60 520 -18 Q507 -14 508 -8 Q509 -1 525 -2 Q616 -8 642 -6 Q662 -4 663 6 Q683 225 701 568 L492 565 L491 548 Q474 298 388 155 Q299 10 103 -89 Q78 -101 73 -95 Q67 -90 89 -74 Q255 45 329 184 Q406 324 422 550 L423 564 L213 561 ZM964 281 Q996 237 968 207 Q939 175 913 224 Q876 290 778 413 Q765 428 769 434 Q774 438 790 432 Q887 394 964 281 Z" /><glyph glyph-name="uni529F" unicode="&#x529f;" d="M425 223 Q446 230 450 222 Q454 213 440 203 Q404 179 96 48 Q74 38 63 50 Q46 67 33 94 Q24 116 43 117 Q71 119 86 123 Q145 138 215 157 L221 547 Q221 594 217 632 L84 632 Q72 632 68 640 Q62 651 58 671 Q56 687 67 688 Q362 688 404 696 Q421 699 428 684 Q437 670 439 652 Q442 630 421 630 Q383 632 283 632 Q293 625 292 606 Q289 550 289 535 L279 176 Q359 199 425 223 ZM936 594 Q952 582 943 564 Q933 543 930 517 Q924 459 913 283 Q902 112 891 18 Q885 -36 850 -58 Q811 -81 802 -54 Q799 -46 671 -3 Q658 2 660 9 Q661 16 675 15 Q770 9 797 11 Q818 12 820 21 Q842 221 860 550 L681 543 Q660 300 580 157 Q498 9 321 -96 Q298 -109 292 -104 Q286 -99 306 -81 Q451 41 521 182 Q590 323 611 540 L476 535 Q456 535 444 565 Q433 588 435 594 Q437 600 453 599 Q505 599 616 602 Q623 698 619 821 Q618 839 622 843 Q626 846 640 843 Q666 836 686 826 Q701 817 698 790 Q696 768 687 603 L840 609 Q861 610 873 616 Q878 620 885 620 Q894 622 901 618 Q922 608 936 594 Z" /><glyph glyph-name="uni52A0" unicode="&#x52a0;" d="M115 565 Q96 565 84 594 Q75 619 77 624 Q78 630 94 629 L249 629 Q254 718 250 827 Q249 844 253 849 Q257 852 269 849 Q299 842 315 833 Q331 825 328 797 Q325 767 319 630 Q367 630 430 632 Q452 633 461 637 L466 639 Q475 646 484 640 Q504 630 521 617 Q537 605 529 586 Q519 569 516 538 Q512 483 503 292 Q495 113 487 12 Q482 -42 449 -63 Q411 -88 401 -60 Q396 -51 305 -13 Q293 -8 294 -2 Q296 5 310 4 Q414 -2 415 15 Q436 263 446 572 L315 569 Q298 322 249 184 Q194 30 67 -87 Q51 -101 44 -97 Q37 -93 48 -76 Q220 163 246 568 L115 565 ZM659 109 Q732 108 849 110 Q846 337 850 612 Q736 614 663 611 Q668 400 659 109 ZM657 48 Q654 23 633 9 Q604 -10 599 7 Q594 25 595 56 Q600 462 595 594 Q593 642 589 666 Q586 681 588 684 Q591 688 604 684 Q625 680 640 669 L737 670 Q798 670 827 671 Q846 671 861 680 Q865 682 867 682 Q874 685 886 682 Q909 674 924 663 Q937 653 930 630 Q922 604 921 564 Q917 492 911 102 L917 86 Q924 65 921 59 Q918 53 902 54 Q862 55 780 55 Q697 54 657 55 L657 48 Z" /><glyph glyph-name="uni52A1" unicode="&#x52a1;" d="M440 275 Q452 318 456 390 Q457 414 477 407 Q502 399 520 386 Q535 376 531 357 Q526 341 521 315 Q514 280 511 269 Q627 269 713 272 Q737 273 750 280 Q755 283 760 283 Q767 286 776 281 Q797 271 812 257 Q826 246 815 232 Q809 222 804 203 Q798 176 782 95 Q767 17 757 -25 Q746 -72 713 -86 Q670 -103 664 -76 Q663 -68 564 -30 Q552 -25 554 -20 Q555 -15 570 -16 Q683 -28 686 -17 Q709 77 732 214 L493 210 Q412 -15 113 -96 Q89 -102 87 -93 Q84 -84 107 -73 Q348 35 419 209 L205 206 Q184 206 170 235 Q159 258 160 264 Q162 270 180 269 Q261 268 438 268 L440 275 ZM370 677 Q448 586 521 530 Q609 595 678 683 Q495 685 376 682 L371 682 L369 679 L370 677 ZM971 368 Q1005 361 979 348 Q967 341 951 327 Q935 311 927 306 Q912 295 884 300 Q666 351 526 459 Q349 352 71 309 Q40 304 38 313 Q36 322 66 330 Q332 405 478 500 Q408 567 351 654 Q270 540 161 456 Q151 448 146 453 Q139 458 148 470 Q311 696 352 783 Q362 800 373 840 Q379 859 394 851 Q421 839 438 825 Q451 815 442 797 L408 740 Q606 742 687 742 Q710 742 726 750 Q732 753 738 753 Q747 751 752 747 Q771 732 786 714 Q800 696 784 682 Q755 661 728 631 Q657 549 576 492 Q663 438 762 409 Q802 398 865 386 L971 368 Z" /><glyph glyph-name="uni52A8" unicode="&#x52a8;" d="M166 670 Q141 670 133 691 Q124 710 126 716 Q127 722 143 723 Q171 724 281 725 Q363 726 412 728 Q432 730 442 706 Q453 670 427 670 L166 670 ZM82 436 Q55 435 46 456 Q35 481 37 486 Q38 491 61 491 Q117 491 473 497 Q492 497 497 494 Q502 491 507 476 Q514 456 511 450 Q508 444 493 444 Q458 444 382 442 L269 440 Q280 432 284 426 Q296 414 287 397 Q222 262 161 162 Q252 181 404 206 Q397 221 339 342 Q331 359 336 363 Q340 366 354 356 Q445 288 491 163 Q508 115 475 96 Q445 76 431 126 Q423 155 418 169 Q363 151 272 128 Q183 107 148 95 Q132 90 105 74 Q90 64 81 76 Q67 97 57 124 Q55 132 57 136 Q57 141 63 144 Q97 161 118 199 Q167 287 205 376 Q219 414 223 439 L82 436 ZM717 522 Q697 297 631 163 Q562 24 414 -83 Q394 -96 388 -92 Q382 -87 397 -70 Q617 152 650 521 Q552 519 512 519 Q495 519 482 547 Q473 571 475 576 Q476 581 493 580 L655 580 Q663 698 658 824 Q657 841 661 845 Q665 849 677 846 Q702 840 720 829 Q735 822 732 795 Q729 767 727 700 Q724 623 721 581 Q767 581 833 583 Q853 583 865 591 Q876 598 884 593 L891 590 Q916 577 926 568 Q939 555 932 539 Q923 523 920 495 Q914 443 900 268 Q888 104 877 12 Q871 -42 837 -60 Q799 -83 790 -56 Q787 -48 660 -7 Q647 -2 648 5 Q649 11 664 10 Q807 0 808 15 Q830 187 852 525 L717 522 Z" /><glyph glyph-name="uni52E4" unicode="&#x52e4;" d="M308 442 L242 441 Q200 441 178 440 Q178 389 176 363 Q265 363 307 364 L308 442 ZM367 364 L493 365 L494 441 L369 442 L367 364 ZM426 676 L263 676 Q263 651 261 608 L424 609 L426 676 ZM359 34 L547 59 Q567 62 570 53 Q573 43 556 38 Q449 1 102 -58 Q82 -62 72 -50 Q59 -33 49 -7 Q42 15 64 12 Q90 10 109 11 Q218 18 303 28 L304 104 L147 104 Q126 104 117 121 Q109 139 111 144 Q113 149 127 149 Q248 151 305 151 L306 209 L134 209 Q113 209 102 228 Q94 244 96 249 Q98 254 113 254 Q244 256 306 256 L307 318 Q218 318 173 319 Q170 308 154 303 Q128 294 125 303 Q121 312 121 326 L121 450 Q121 460 117 481 Q114 492 116 494 Q117 495 129 494 Q145 493 159 486 L235 487 Q284 487 308 488 Q306 533 304 557 L304 559 L255 560 Q251 553 239 549 Q212 538 208 548 Q204 560 204 576 Q204 640 205 676 L110 676 Q95 676 91 682 Q84 692 80 710 Q76 724 88 724 L205 724 Q205 761 204 776 Q202 800 198 813 Q195 825 197 827 Q199 830 211 828 Q230 826 251 815 Q262 807 263 788 L263 724 L427 725 L427 778 Q427 803 424 829 Q423 845 437 843 Q467 836 482 830 Q493 825 491 809 L485 727 Q534 728 563 733 Q583 735 590 722 Q599 707 602 693 Q606 672 584 673 Q540 676 484 676 Q483 665 483 641 L482 604 Q484 602 488 588 Q495 570 492 565 Q489 559 475 559 L360 559 Q370 552 370 530 L370 488 L473 489 Q491 489 505 494 Q509 496 516 496 Q519 496 525 494 Q540 491 552 483 Q562 475 557 459 Q553 443 553 433 Q551 409 549 355 Q551 353 553 346 Q558 327 556 322 Q553 317 538 317 Q483 318 366 318 L364 257 L535 261 Q555 262 563 240 Q574 210 550 210 L363 209 L361 152 Q439 152 511 155 Q530 155 539 135 Q550 105 525 104 L360 104 L359 34 ZM940 572 Q955 561 947 544 Q940 528 937 500 Q934 441 927 261 Q920 85 913 -10 Q909 -58 881 -77 Q844 -101 835 -75 Q832 -66 748 -32 Q735 -27 737 -22 Q738 -17 753 -18 Q815 -20 833 -18 Q847 -16 847 -7 Q864 230 871 527 L753 524 Q744 282 698 151 Q650 11 529 -100 Q514 -113 507 -109 Q500 -104 511 -89 Q603 38 641 168 Q679 301 686 523 Q629 521 603 521 Q588 521 577 548 Q568 570 570 576 Q571 581 586 580 L688 580 Q689 720 683 834 Q682 851 686 855 Q689 859 701 855 Q725 850 744 840 Q759 832 758 804 Q759 817 754 581 Q799 581 860 583 Q876 584 887 589 Q895 597 907 592 Q927 583 940 572 Z" /><glyph glyph-name="uni5305" unicode="&#x5305;" d="M554 466 Q357 468 275 466 L271 283 L552 284 Q552 350 554 466 ZM612 264 Q618 244 615 238 Q612 233 597 233 Q547 234 438 234 Q327 233 271 234 Q271 150 273 109 Q275 59 304 35 Q334 10 400 5 Q623 -12 817 9 Q891 18 898 49 Q916 148 914 141 Q918 158 924 157 Q932 157 932 139 Q936 49 957 28 Q984 1 955 -18 Q924 -44 832 -52 Q632 -70 396 -54 Q302 -48 259 -9 Q216 29 213 108 Q210 172 212 265 L214 411 Q214 448 210 511 L210 513 Q152 459 74 407 Q61 399 56 405 Q51 411 61 422 Q259 635 332 776 Q347 805 357 839 Q363 856 379 848 Q400 839 420 821 Q431 809 422 793 Q393 744 361 696 Q594 699 759 698 Q781 698 802 706 Q808 708 811 708 Q817 710 824 707 Q848 694 859 685 Q873 674 865 659 Q857 644 856 620 Q852 572 842 428 L825 211 Q820 162 790 144 Q752 121 743 147 Q740 155 653 189 Q641 194 642 200 Q643 206 657 205 Q756 200 757 214 Q774 404 786 644 Q577 645 322 641 Q277 580 226 528 Q246 521 257 514 Q355 517 533 517 Q552 517 566 524 Q571 527 575 527 Q578 527 587 525 Q605 520 617 511 Q631 503 623 485 Q619 471 617 448 Q613 399 611 268 L612 264 Z" /><glyph glyph-name="uni5316" unicode="&#x5316;" d="M268 543 Q281 528 285 503 Q289 470 289 448 Q291 211 284 20 Q281 -46 259 -76 Q239 -104 226 -72 Q218 -47 219 2 Q232 226 227 454 Q227 468 225 491 Q157 411 68 333 Q56 324 50 329 Q43 335 53 348 Q257 623 314 745 Q325 766 341 817 Q345 835 361 829 Q391 816 404 803 Q418 792 409 776 Q342 642 268 543 ZM950 36 Q979 6 955 -18 Q927 -41 863 -48 Q769 -59 670 -49 Q536 -36 531 132 Q529 240 529 294 Q452 242 352 194 Q337 187 333 194 Q328 202 343 212 Q446 286 530 357 L532 674 Q530 756 525 822 Q523 850 546 842 Q577 831 593 820 Q609 808 606 784 Q600 744 598 674 Q594 525 594 412 Q697 506 803 620 Q836 657 855 683 Q866 699 879 689 Q900 673 912 654 Q922 639 908 626 Q728 437 593 338 Q593 233 596 135 Q600 26 678 19 Q767 11 844 22 Q887 28 891 65 Q909 223 906 205 Q909 225 917 224 Q925 224 926 202 Q931 58 950 36 Z" /><glyph glyph-name="uni533A" unicode="&#x533a;" d="M236 697 Q242 373 227 25 Q856 32 892 34 Q916 35 924 23 Q935 9 939 -9 Q943 -28 917 -28 Q728 -22 247 -27 Q218 -27 187 -36 Q170 -42 157 -26 Q146 -11 142 5 Q139 17 144 21 Q146 24 149 26 Q168 38 169 80 Q180 376 170 665 Q169 708 163 744 Q157 766 180 762 Q204 759 222 750 L227 747 Q651 751 846 757 Q871 757 881 735 Q890 714 887 707 Q882 700 865 700 Q541 697 238 697 L236 697 ZM269 95 Q432 251 535 371 Q456 445 328 551 Q301 574 305 581 Q310 587 341 571 Q460 509 575 417 Q633 487 680 555 Q700 584 722 627 Q730 642 743 635 Q762 625 778 609 Q787 596 777 582 Q698 467 620 379 Q699 314 788 223 Q845 165 827 124 Q813 94 764 145 Q681 234 577 332 Q453 198 281 79 Q269 71 263 76 Q257 82 269 95 Z" /><glyph glyph-name="uni5341" unicode="&#x5341;" d="M542 488 Q849 490 911 497 Q942 502 953 486 Q964 468 972 448 Q979 420 949 423 Q821 433 541 433 Q539 223 537 112 Q535 0 509 -83 Q491 -137 482 -81 Q467 -3 469 106 L470 432 Q313 432 101 428 Q80 428 73 438 Q65 449 58 469 Q53 485 69 485 L471 488 L471 694 Q471 744 466 831 Q464 849 467 852 Q470 854 488 850 Q513 846 535 834 Q551 825 550 798 Q547 769 545 691 L542 488 Z" /><glyph glyph-name="uni5348" unicode="&#x5348;" d="M543 638 Q557 631 557 605 Q559 566 557 517 Q555 408 555 344 Q849 347 923 355 Q954 359 963 343 Q975 327 981 308 Q985 292 981 287 Q977 282 959 283 Q837 290 554 290 Q552 139 549 59 Q546 -35 523 -98 Q505 -140 496 -97 Q483 -42 485 55 Q485 133 487 290 Q400 290 78 288 Q57 288 50 297 Q43 307 36 327 Q30 342 46 342 L283 343 Q421 343 488 344 Q489 408 489 523 Q489 592 486 633 L486 639 Q430 639 324 641 Q313 641 309 642 Q232 523 130 437 Q120 427 114 434 Q108 439 116 451 Q270 693 303 776 Q310 791 322 838 Q325 858 342 850 Q373 838 389 825 Q403 813 395 796 Q375 757 340 694 Q675 694 828 700 Q853 701 863 676 Q877 641 846 641 Q743 639 541 639 L543 638 Z" /><glyph glyph-name="uni534A" unicode="&#x534a;" d="M637 538 Q627 533 623 538 Q617 543 625 553 Q735 707 750 738 Q755 747 764 773 Q768 789 784 781 Q808 770 827 753 Q842 741 830 726 Q715 584 637 538 ZM319 564 Q292 614 194 735 Q182 748 186 753 Q190 757 206 752 Q300 721 373 619 Q402 576 375 548 Q346 516 319 564 ZM537 258 Q852 258 912 266 Q945 270 955 253 Q969 232 973 216 Q980 192 951 193 Q816 204 536 204 L535 107 Q532 -5 508 -85 Q490 -139 481 -84 Q468 -14 468 100 L468 203 Q379 203 90 199 Q70 199 63 208 Q55 220 48 238 Q43 253 59 254 Q290 257 469 257 L469 423 Q375 422 196 422 Q164 422 151 443 Q139 462 141 468 Q144 474 166 475 L469 478 L468 695 Q467 776 462 829 Q460 847 463 850 Q466 852 484 848 Q508 844 530 832 Q546 824 544 797 Q540 738 540 692 L539 479 Q692 481 837 485 Q864 486 874 461 Q891 425 857 425 Q642 423 538 423 L537 258 Z" /><glyph glyph-name="uni5355" unicode="&#x5355;" d="M377 685 Q353 727 280 818 Q259 842 289 834 Q367 815 425 736 Q451 700 427 674 Q399 646 377 685 ZM237 437 Q237 392 235 320 L478 320 L479 436 Q322 436 242 437 L237 437 ZM474 599 Q386 599 237 597 L238 486 Q362 484 479 486 L479 497 Q477 567 474 597 L474 599 ZM541 486 Q626 487 773 487 L788 487 Q788 534 790 599 Q701 600 534 600 Q540 594 541 572 Q543 536 541 492 L541 486 ZM539 321 L788 322 L788 435 Q683 438 540 436 L539 321 ZM538 167 Q859 169 934 179 Q962 183 972 167 Q984 151 990 132 Q994 116 990 111 Q985 106 968 107 Q857 113 537 113 L536 56 Q533 -32 511 -90 Q496 -131 487 -89 Q475 -38 475 51 L475 112 L77 112 Q57 112 48 121 Q40 133 34 151 Q28 166 44 166 L477 166 L478 268 Q314 268 230 270 Q226 260 210 252 Q181 240 178 251 Q172 265 172 286 Q172 578 171 596 Q169 629 165 646 Q162 659 164 662 Q166 664 180 662 Q199 658 217 650 L574 653 Q668 795 677 815 Q685 835 690 847 Q694 864 709 856 Q734 844 749 832 Q762 821 751 806 Q667 698 610 653 L757 654 Q782 654 799 662 Q805 664 808 664 Q815 666 823 663 Q839 658 855 648 Q870 639 863 623 Q856 612 856 592 Q853 442 855 311 Q856 265 821 248 Q798 238 795 252 L792 268 Q712 269 539 269 L538 167 Z" /><glyph glyph-name="uni5356" unicode="&#x5356;" d="M858 -13 Q909 -48 895 -87 Q881 -123 834 -86 Q707 18 573 96 Q553 107 556 113 Q558 118 579 115 Q706 95 858 -13 ZM595 509 Q617 503 637 491 Q651 483 647 461 Q644 442 639 394 Q634 344 628 316 Q618 258 603 215 Q852 218 918 226 Q946 230 956 214 Q968 195 972 180 Q980 155 952 156 Q855 162 580 162 Q481 -36 152 -104 Q124 -110 122 -101 Q118 -93 146 -83 Q413 14 503 162 L102 161 Q82 161 75 170 Q65 184 61 199 Q56 213 71 213 Q402 213 530 214 Q551 264 561 322 Q573 392 573 491 Q573 505 577 509 Q367 503 166 500 Q144 500 129 527 Q117 548 119 553 Q121 560 140 559 Q361 559 475 560 L476 675 Q307 675 226 676 Q196 677 184 697 Q174 716 176 721 Q178 726 198 726 L476 727 L476 782 Q474 821 471 841 Q468 860 485 856 Q520 849 536 842 Q550 837 546 820 L543 774 L542 728 Q732 731 824 734 Q850 735 860 711 Q868 691 864 683 Q861 676 842 676 Q741 675 541 675 Q540 657 540 620 L539 561 Q703 563 824 567 Q850 568 862 575 Q873 583 887 573 Q914 553 928 538 Q946 517 928 505 Q913 496 896 481 Q862 445 792 362 Q774 346 768 351 Q761 355 770 378 Q788 423 836 514 L595 509 ZM201 343 Q290 347 392 287 Q431 265 418 232 Q406 198 366 227 Q310 268 198 325 Q184 332 185 337 Q186 342 201 343 ZM436 358 Q403 396 321 459 Q311 467 313 472 Q315 478 327 477 Q403 470 471 410 Q498 383 483 356 Q463 326 436 358 Z" /><glyph glyph-name="uni5357" unicode="&#x5357;" d="M413 320 Q404 327 399 339 Q386 376 335 455 Q320 478 347 468 Q413 446 448 377 Q465 343 442 325 Q440 323 436 321 Q472 321 543 323 Q591 408 604 443 Q608 455 612 471 Q615 488 630 482 Q661 467 670 459 Q684 449 674 435 Q618 354 584 324 Q657 326 726 330 Q747 331 756 311 Q763 292 760 286 Q757 281 743 280 Q591 276 524 275 Q526 271 526 258 Q527 245 527 214 L526 172 L638 173 Q711 173 747 175 Q769 176 777 155 Q790 124 763 124 L525 124 Q525 51 523 11 Q521 -41 500 -74 Q485 -100 476 -73 Q464 -44 464 8 Q464 85 465 124 L363 123 Q295 123 263 122 Q239 121 229 140 Q220 156 222 161 Q224 166 240 166 Q316 169 465 171 L465 219 Q465 245 463 274 Q411 273 310 273 Q287 273 277 290 Q269 307 270 312 Q272 317 287 318 L413 320 ZM166 537 Q339 541 429 542 Q442 630 445 659 Q350 658 109 658 Q89 658 82 667 Q72 682 68 697 Q63 712 78 712 Q344 712 452 713 Q456 747 458 777 Q459 795 459 835 Q458 856 477 852 Q501 849 528 837 Q543 830 538 811 L516 713 Q822 715 892 724 Q919 728 929 713 Q942 694 946 677 Q953 652 924 653 Q790 661 503 659 Q484 589 461 543 L640 545 Q760 547 805 547 Q832 547 853 554 Q861 556 865 556 Q870 557 878 554 Q898 546 910 537 Q926 525 918 507 Q910 488 910 463 Q908 410 908 244 Q907 82 904 -7 Q903 -55 872 -74 Q836 -99 825 -73 Q823 -69 721 -33 Q709 -29 710 -23 Q711 -17 726 -17 Q799 -18 820 -16 Q835 -14 835 -6 Q845 213 843 492 Q431 490 188 484 L186 484 L186 447 Q188 289 181 6 Q179 -52 162 -81 Q140 -119 126 -83 Q115 -54 117 -9 Q129 266 123 464 Q123 500 115 533 Q109 554 130 550 Q144 547 161 537 L166 537 Z" /><glyph glyph-name="uni535A" unicode="&#x535a;" d="M648 488 Q712 489 826 489 L826 564 L649 565 L648 488 ZM646 368 Q712 369 825 369 Q826 381 826 406 L826 444 Q740 445 647 444 L646 368 ZM589 444 Q484 444 430 445 Q429 433 429 407 L428 367 Q535 367 586 368 L589 444 ZM430 488 L590 488 L592 564 Q534 564 432 562 L430 488 ZM593 675 Q511 675 358 677 Q332 677 321 696 Q312 713 314 718 Q316 723 333 723 L593 724 L593 766 Q591 805 586 833 Q581 854 599 849 Q622 843 641 833 Q655 824 655 803 Q654 794 654 779 L652 725 Q706 725 808 727 Q785 757 735 803 Q717 821 741 819 Q803 816 850 765 Q868 748 863 730 L907 731 Q930 731 938 709 Q953 677 924 677 Q740 675 651 675 L650 611 L801 612 Q823 612 836 619 L839 620 Q846 624 855 621 Q877 613 889 604 Q902 594 894 577 Q886 559 885 538 Q884 499 885 427 L885 305 Q885 274 864 256 Q836 234 827 258 Q823 273 824 309 L824 323 Q739 325 646 323 L646 317 Q646 267 629 237 Q612 204 597 237 Q583 272 584 312 L584 323 Q486 323 436 324 L427 325 L426 298 Q425 264 410 244 Q391 222 377 244 Q367 265 368 292 Q376 452 373 561 Q373 580 368 603 Q362 620 380 616 Q397 612 404 609 L499 610 Q562 610 592 611 L593 675 ZM230 499 Q226 232 225 26 Q225 -34 207 -73 Q197 -95 190 -95 Q184 -95 176 -74 Q161 -32 162 21 Q172 342 174 495 Q107 491 72 488 Q57 486 52 489 Q46 492 38 510 Q26 536 28 541 Q30 546 51 546 L174 549 Q176 609 176 714 Q173 768 166 809 Q163 825 167 829 Q170 832 183 828 Q209 819 226 805 Q239 793 238 768 Q237 758 235 698 L231 551 L315 555 Q335 555 341 536 Q353 506 332 505 L230 499 ZM575 52 Q605 24 584 -3 Q564 -31 537 2 Q511 34 424 107 Q414 115 416 120 Q418 125 432 123 Q509 116 575 52 ZM824 197 Q918 199 955 203 Q977 207 985 194 Q997 176 1000 162 Q1005 141 981 142 Q932 145 823 147 Q823 26 821 -37 Q819 -81 793 -100 Q757 -126 747 -100 Q744 -93 640 -62 Q628 -58 629 -52 Q630 -46 643 -46 Q756 -49 758 -36 Q761 55 761 147 Q666 148 312 146 Q295 146 290 153 Q284 162 278 181 Q274 194 287 194 Q644 194 761 196 L761 222 Q761 244 757 261 Q753 276 775 272 Q799 267 819 257 Q831 250 827 236 Q824 220 824 200 L824 197 Z" /><glyph glyph-name="uni5361" unicode="&#x5361;" d="M804 169 Q848 129 827 93 Q808 58 767 100 Q682 188 544 284 Q526 296 529 303 Q532 309 553 305 Q682 278 804 169 ZM479 696 Q749 705 774 713 Q798 720 807 708 Q820 689 824 670 Q832 646 809 646 Q772 648 478 641 L475 469 Q829 471 906 481 Q936 485 946 469 Q958 450 964 432 Q971 405 942 407 Q796 416 438 414 Q452 409 461 404 Q476 396 476 376 L469 -20 Q467 -68 449 -93 Q426 -126 411 -94 Q397 -66 400 -26 Q411 165 408 344 Q406 384 402 403 Q400 411 400 414 L94 412 Q73 412 66 421 Q57 436 51 453 Q46 468 62 468 Q307 468 411 469 Q413 719 412 762 Q412 787 407 834 Q405 853 422 851 Q454 844 473 835 Q486 830 483 810 Q480 761 480 753 L479 696 Z" /><glyph glyph-name="uni5371" unicode="&#x5371;" d="M370 687 Q307 621 248 578 L268 568 Q375 566 550 566 Q616 653 640 688 Q479 690 374 687 L370 687 ZM271 455 Q270 412 268 383 Q258 201 217 100 Q173 -9 69 -95 Q55 -106 48 -101 Q42 -97 52 -83 Q190 97 205 385 Q210 462 206 548 Q160 519 111 495 Q98 489 94 495 Q89 501 100 511 Q286 672 377 800 Q399 832 407 847 Q414 864 428 854 Q452 839 466 823 Q477 809 466 795 L419 741 L637 742 Q656 742 672 750 Q678 753 683 752 Q692 754 700 747 Q719 732 730 716 Q740 703 728 690 Q658 611 609 567 Q821 569 886 578 Q906 581 914 568 Q925 552 930 534 Q934 510 909 511 Q844 513 667 513 Q449 511 274 514 L271 455 ZM915 12 Q944 -11 918 -31 Q890 -54 819 -60 Q676 -73 514 -61 Q441 -57 409 -25 Q376 5 374 69 Q372 123 374 204 L376 326 Q376 358 372 411 Q371 433 389 426 Q404 422 417 416 L545 417 Q625 417 663 418 Q681 418 696 426 Q702 431 710 428 Q713 428 717 426 Q740 416 751 408 Q762 398 755 386 Q750 375 747 362 L735 279 Q728 219 723 187 Q716 145 688 134 Q648 117 642 140 Q641 147 572 173 Q561 179 562 184 Q563 190 577 189 Q655 183 656 193 Q670 270 680 363 Q510 365 439 362 L439 343 Q439 330 438 323 Q433 151 436 71 Q439 4 520 -2 Q658 -14 804 0 Q855 6 860 32 Q868 81 875 105 Q879 120 886 120 Q892 120 893 102 Q895 29 915 12 Z" /><glyph glyph-name="uni5373" unicode="&#x5373;" d="M421 733 Q295 734 190 733 Q192 662 190 594 L313 595 Q384 596 421 595 L421 733 ZM422 402 L421 543 L308 543 Q234 543 190 544 Q190 496 188 402 L422 402 ZM179 785 Q334 787 399 787 Q418 787 433 796 Q441 801 448 797 Q452 797 454 796 Q479 790 491 780 Q504 770 497 751 Q490 728 489 701 Q486 640 484 392 L488 380 Q495 360 492 354 Q490 348 473 348 Q423 349 333 349 L187 349 Q184 230 178 98 Q195 107 280 149 Q339 179 378 197 Q375 203 320 285 Q309 300 313 305 Q318 309 333 299 Q435 242 495 119 Q518 71 492 48 Q463 23 444 70 Q426 115 397 166 Q353 129 282 86 Q199 35 174 18 Q156 5 138 -16 Q123 -29 111 -18 Q93 -4 73 25 Q69 30 69 37 Q69 45 78 51 Q115 74 116 121 Q130 406 120 701 Q119 746 113 779 Q109 803 131 799 Q153 796 175 787 L179 785 ZM916 749 Q931 739 924 720 Q916 702 915 677 Q913 615 913 444 Q913 270 910 180 Q907 130 879 112 Q844 88 833 113 Q830 120 743 152 Q731 157 732 163 Q733 169 747 169 Q810 167 829 170 Q843 172 843 181 Q853 408 851 700 Q733 702 655 699 L653 373 Q652 204 650 85 Q649 -12 625 -90 Q609 -137 599 -89 Q585 -22 587 79 L588 363 Q589 539 588 626 Q586 715 583 749 Q581 766 584 769 Q587 772 604 767 Q620 764 637 755 L741 756 Q804 756 836 757 Q851 757 865 763 Q874 773 885 767 Q906 758 916 749 Z" /><glyph glyph-name="uni5374" unicode="&#x5374;" d="M367 656 Q461 658 506 660 Q528 660 537 636 Q550 603 523 603 L366 602 Q364 548 362 437 Q459 440 544 440 Q571 440 578 419 Q585 400 582 394 Q579 388 563 388 Q490 386 328 382 Q336 374 339 370 Q352 356 340 337 Q279 221 203 110 Q349 140 460 156 Q453 173 393 301 Q383 321 388 324 Q394 328 409 316 Q501 241 557 100 Q579 45 545 23 Q515 2 499 55 Q489 85 474 123 Q412 101 315 77 Q215 52 180 39 Q151 28 134 18 Q120 9 111 21 Q97 41 86 69 Q85 72 85 77 Q82 87 91 91 Q133 108 156 147 Q204 224 251 323 Q265 352 272 381 L81 376 Q55 375 41 399 Q28 425 30 429 Q32 435 57 435 Q223 435 298 436 L300 602 L167 603 Q144 603 133 622 Q124 641 126 648 Q127 653 144 654 L223 655 Q275 655 300 656 Q301 693 301 756 Q299 806 296 832 Q294 852 312 848 Q343 841 363 832 Q376 826 373 806 Q371 790 369 747 L367 656 ZM866 758 Q874 765 885 760 Q902 753 918 743 Q933 732 926 713 Q918 696 918 671 Q916 618 916 466 Q917 313 914 232 Q913 184 883 164 Q846 139 836 165 Q834 170 743 203 Q730 207 731 213 Q733 221 747 221 Q844 218 846 233 Q853 446 850 692 Q754 692 675 689 Q675 640 674 619 Q670 41 671 78 Q669 -21 648 -94 Q632 -142 623 -93 Q611 -28 611 72 Q613 369 611 623 Q610 689 606 745 Q603 761 607 764 Q610 767 626 763 Q648 757 660 750 L666 747 L833 750 Q852 750 866 758 Z" /></font>
</defs>
</svg>
